G75*
G70*
%OFA0B0*%
%FSLAX25Y25*%
%IPPOS*%
%LPD*%
%AMOC8*
5,1,8,0,0,1.08239X$1,22.5*
%
%AMM108*
21,1,0.029530,0.026380,-0.000000,0.000000,0.000000*
21,1,0.020470,0.035430,-0.000000,0.000000,0.000000*
1,1,0.009060,0.010240,-0.013190*
1,1,0.009060,-0.010240,-0.013190*
1,1,0.009060,-0.010240,0.013190*
1,1,0.009060,0.010240,0.013190*
%
%AMM109*
21,1,0.021650,0.027950,-0.000000,0.000000,0.000000*
21,1,0.014170,0.035430,-0.000000,0.000000,0.000000*
1,1,0.007480,0.007090,-0.013980*
1,1,0.007480,-0.007090,-0.013980*
1,1,0.007480,-0.007090,0.013980*
1,1,0.007480,0.007090,0.013980*
%
%AMM112*
21,1,0.031500,0.018900,-0.000000,0.000000,180.000000*
21,1,0.022840,0.027560,-0.000000,0.000000,180.000000*
1,1,0.008660,-0.011420,0.009450*
1,1,0.008660,0.011420,0.009450*
1,1,0.008660,0.011420,-0.009450*
1,1,0.008660,-0.011420,-0.009450*
%
%AMM114*
21,1,0.031500,0.018900,-0.000000,0.000000,270.000000*
21,1,0.022840,0.027560,-0.000000,0.000000,270.000000*
1,1,0.008660,-0.009450,-0.011420*
1,1,0.008660,-0.009450,0.011420*
1,1,0.008660,0.009450,0.011420*
1,1,0.008660,0.009450,-0.011420*
%
%AMM116*
21,1,0.039370,0.030320,-0.000000,0.000000,0.000000*
21,1,0.028350,0.041340,-0.000000,0.000000,0.000000*
1,1,0.011020,0.014170,-0.015160*
1,1,0.011020,-0.014170,-0.015160*
1,1,0.011020,-0.014170,0.015160*
1,1,0.011020,0.014170,0.015160*
%
%AMM119*
21,1,0.031500,0.030710,-0.000000,0.000000,90.000000*
21,1,0.022050,0.040160,-0.000000,0.000000,90.000000*
1,1,0.009450,0.015350,0.011020*
1,1,0.009450,0.015350,-0.011020*
1,1,0.009450,-0.015350,-0.011020*
1,1,0.009450,-0.015350,0.011020*
%
%AMM137*
21,1,0.037400,0.026770,-0.000000,0.000000,180.000000*
21,1,0.026770,0.037400,-0.000000,0.000000,180.000000*
1,1,0.010630,-0.013390,0.013390*
1,1,0.010630,0.013390,0.013390*
1,1,0.010630,0.013390,-0.013390*
1,1,0.010630,-0.013390,-0.013390*
%
%AMM138*
21,1,0.029530,0.026380,-0.000000,0.000000,90.000000*
21,1,0.020470,0.035430,-0.000000,0.000000,90.000000*
1,1,0.009060,0.013190,0.010240*
1,1,0.009060,0.013190,-0.010240*
1,1,0.009060,-0.013190,-0.010240*
1,1,0.009060,-0.013190,0.010240*
%
%AMM139*
21,1,0.021650,0.027950,-0.000000,0.000000,90.000000*
21,1,0.014170,0.035430,-0.000000,0.000000,90.000000*
1,1,0.007480,0.013980,0.007090*
1,1,0.007480,0.013980,-0.007090*
1,1,0.007480,-0.013980,-0.007090*
1,1,0.007480,-0.013980,0.007090*
%
%AMM140*
21,1,0.037400,0.026770,-0.000000,0.000000,90.000000*
21,1,0.026770,0.037400,-0.000000,0.000000,90.000000*
1,1,0.010630,0.013390,0.013390*
1,1,0.010630,0.013390,-0.013390*
1,1,0.010630,-0.013390,-0.013390*
1,1,0.010630,-0.013390,0.013390*
%
%AMM141*
21,1,0.082680,0.045670,-0.000000,0.000000,270.000000*
21,1,0.067320,0.061020,-0.000000,0.000000,270.000000*
1,1,0.015350,-0.022840,-0.033660*
1,1,0.015350,-0.022840,0.033660*
1,1,0.015350,0.022840,0.033660*
1,1,0.015350,0.022840,-0.033660*
%
%AMM142*
21,1,0.062990,0.020470,-0.000000,0.000000,270.000000*
21,1,0.053940,0.029530,-0.000000,0.000000,270.000000*
1,1,0.009060,-0.010240,-0.026970*
1,1,0.009060,-0.010240,0.026970*
1,1,0.009060,0.010240,0.026970*
1,1,0.009060,0.010240,-0.026970*
%
%AMM143*
21,1,0.039370,0.030320,-0.000000,0.000000,270.000000*
21,1,0.028350,0.041340,-0.000000,0.000000,270.000000*
1,1,0.011020,-0.015160,-0.014170*
1,1,0.011020,-0.015160,0.014170*
1,1,0.011020,0.015160,0.014170*
1,1,0.011020,0.015160,-0.014170*
%
%AMM144*
21,1,0.016540,0.028980,-0.000000,0.000000,270.000000*
21,1,0.010080,0.035430,-0.000000,0.000000,270.000000*
1,1,0.006460,-0.014490,-0.005040*
1,1,0.006460,-0.014490,0.005040*
1,1,0.006460,0.014490,0.005040*
1,1,0.006460,0.014490,-0.005040*
%
%AMM145*
21,1,0.074800,0.036220,-0.000000,0.000000,90.000000*
21,1,0.061810,0.049210,-0.000000,0.000000,90.000000*
1,1,0.012990,0.018110,0.030910*
1,1,0.012990,0.018110,-0.030910*
1,1,0.012990,-0.018110,-0.030910*
1,1,0.012990,-0.018110,0.030910*
%
%AMM146*
21,1,0.039760,0.026770,-0.000000,0.000000,90.000000*
21,1,0.029130,0.037400,-0.000000,0.000000,90.000000*
1,1,0.010630,0.013390,0.014570*
1,1,0.010630,0.013390,-0.014570*
1,1,0.010630,-0.013390,-0.014570*
1,1,0.010630,-0.013390,0.014570*
%
%AMM147*
21,1,0.031500,0.049610,-0.000000,0.000000,90.000000*
21,1,0.022050,0.059060,-0.000000,0.000000,90.000000*
1,1,0.009450,0.024800,0.011020*
1,1,0.009450,0.024800,-0.011020*
1,1,0.009450,-0.024800,-0.011020*
1,1,0.009450,-0.024800,0.011020*
%
%AMM148*
21,1,0.074800,0.036220,-0.000000,0.000000,180.000000*
21,1,0.061810,0.049210,-0.000000,0.000000,180.000000*
1,1,0.012990,-0.030910,0.018110*
1,1,0.012990,0.030910,0.018110*
1,1,0.012990,0.030910,-0.018110*
1,1,0.012990,-0.030910,-0.018110*
%
%AMM149*
21,1,0.031500,0.030710,-0.000000,0.000000,180.000000*
21,1,0.022050,0.040160,-0.000000,0.000000,180.000000*
1,1,0.009450,-0.011020,0.015350*
1,1,0.009450,0.011020,0.015350*
1,1,0.009450,0.011020,-0.015350*
1,1,0.009450,-0.011020,-0.015350*
%
%AMM75*
21,1,0.041340,0.026770,0.000000,0.000000,0.000000*
21,1,0.029130,0.038980,0.000000,0.000000,0.000000*
1,1,0.012210,0.014570,-0.013390*
1,1,0.012210,-0.014570,-0.013390*
1,1,0.012210,-0.014570,0.013390*
1,1,0.012210,0.014570,0.013390*
%
%AMM76*
21,1,0.076380,0.036220,0.000000,0.000000,90.000000*
21,1,0.061810,0.050790,0.000000,0.000000,90.000000*
1,1,0.014570,0.018110,0.030910*
1,1,0.014570,0.018110,-0.030910*
1,1,0.014570,-0.018110,-0.030910*
1,1,0.014570,-0.018110,0.030910*
%
%AMM79*
21,1,0.029130,0.018900,0.000000,0.000000,90.000000*
21,1,0.018900,0.029130,0.000000,0.000000,90.000000*
1,1,0.010240,0.009450,0.009450*
1,1,0.010240,0.009450,-0.009450*
1,1,0.010240,-0.009450,-0.009450*
1,1,0.010240,-0.009450,0.009450*
%
%AMM80*
21,1,0.025200,0.019680,0.000000,0.000000,0.000000*
21,1,0.015750,0.029130,0.000000,0.000000,0.000000*
1,1,0.009450,0.007870,-0.009840*
1,1,0.009450,-0.007870,-0.009840*
1,1,0.009450,-0.007870,0.009840*
1,1,0.009450,0.007870,0.009840*
%
%AMM81*
21,1,0.025200,0.019680,0.000000,0.000000,270.000000*
21,1,0.015750,0.029130,0.000000,0.000000,270.000000*
1,1,0.009450,-0.009840,-0.007870*
1,1,0.009450,-0.009840,0.007870*
1,1,0.009450,0.009840,0.007870*
1,1,0.009450,0.009840,-0.007870*
%
%AMM87*
21,1,0.111810,0.050390,0.000000,0.000000,90.000000*
21,1,0.093700,0.068500,0.000000,0.000000,90.000000*
1,1,0.018110,0.025200,0.046850*
1,1,0.018110,0.025200,-0.046850*
1,1,0.018110,-0.025200,-0.046850*
1,1,0.018110,-0.025200,0.046850*
%
%AMM88*
21,1,0.038980,0.026770,0.000000,0.000000,270.000000*
21,1,0.026770,0.038980,0.000000,0.000000,270.000000*
1,1,0.012210,-0.013390,-0.013390*
1,1,0.012210,-0.013390,0.013390*
1,1,0.012210,0.013390,0.013390*
1,1,0.012210,0.013390,-0.013390*
%
%AMM89*
21,1,0.029130,0.018900,0.000000,0.000000,180.000000*
21,1,0.018900,0.029130,0.000000,0.000000,180.000000*
1,1,0.010240,-0.009450,0.009450*
1,1,0.010240,0.009450,0.009450*
1,1,0.010240,0.009450,-0.009450*
1,1,0.010240,-0.009450,-0.009450*
%
%AMM90*
21,1,0.127560,0.075590,0.000000,0.000000,180.000000*
21,1,0.103150,0.100000,0.000000,0.000000,180.000000*
1,1,0.024410,-0.051580,0.037800*
1,1,0.024410,0.051580,0.037800*
1,1,0.024410,0.051580,-0.037800*
1,1,0.024410,-0.051580,-0.037800*
%
%AMM91*
21,1,0.123620,0.083460,0.000000,0.000000,0.000000*
21,1,0.097240,0.109840,0.000000,0.000000,0.000000*
1,1,0.026380,0.048620,-0.041730*
1,1,0.026380,-0.048620,-0.041730*
1,1,0.026380,-0.048620,0.041730*
1,1,0.026380,0.048620,0.041730*
%
%ADD12C,0.06000*%
%ADD129C,0.04724*%
%ADD130C,0.04294*%
%ADD16O,0.06890X0.04724*%
%ADD160R,0.01772X0.01870*%
%ADD166R,0.01870X0.01772*%
%ADD17C,0.02362*%
%ADD191M75*%
%ADD192M76*%
%ADD195M79*%
%ADD196M80*%
%ADD197M81*%
%ADD198C,0.02913*%
%ADD199C,0.06457*%
%ADD206M87*%
%ADD207M88*%
%ADD208M89*%
%ADD209O,0.02520X0.09213*%
%ADD210M90*%
%ADD211M91*%
%ADD230M108*%
%ADD231M109*%
%ADD235M112*%
%ADD237M114*%
%ADD239M116*%
%ADD243M119*%
%ADD264M137*%
%ADD265M138*%
%ADD266M139*%
%ADD267M140*%
%ADD268M141*%
%ADD269M142*%
%ADD270M143*%
%ADD271M144*%
%ADD272O,0.01378X0.05354*%
%ADD273M145*%
%ADD274M146*%
%ADD275R,0.07087X0.09843*%
%ADD276M147*%
%ADD277R,0.04724X0.04331*%
%ADD278M148*%
%ADD279M149*%
%ADD30C,0.07677*%
%ADD37C,0.05906*%
%ADD53C,0.16142*%
%ADD54C,0.09055*%
%ADD63R,0.09055X0.17323*%
%ADD64R,0.09055X0.15748*%
X0000000Y0000000D02*
%LPD*%
G01*
D12*
X0111811Y0236024D03*
X0111811Y0216732D03*
G36*
G01*
X0096358Y0166929D02*
X0091437Y0166929D01*
G75*
G02*
X0090453Y0167913I0000000J0000984D01*
G01*
X0090453Y0170669D01*
G75*
G02*
X0091437Y0171654I0000984J0000000D01*
G01*
X0096358Y0171654D01*
G75*
G02*
X0097343Y0170669I0000000J-000984D01*
G01*
X0097343Y0167913D01*
G75*
G02*
X0096358Y0166929I-000984J0000000D01*
G01*
G37*
D16*
X0093898Y0177165D03*
X0093898Y0185039D03*
X0093898Y0192913D03*
D53*
X0237795Y0268307D03*
D54*
X0221654Y0253150D03*
X0093307Y0253150D03*
D53*
X0077165Y0268307D03*
D30*
X0196260Y0257087D03*
X0196260Y0266929D03*
X0196260Y0276772D03*
X0196260Y0286614D03*
X0186417Y0257087D03*
X0186417Y0266929D03*
X0186417Y0276772D03*
X0186417Y0286614D03*
X0176575Y0257087D03*
X0176575Y0266929D03*
X0176575Y0276772D03*
X0176575Y0286614D03*
X0166732Y0257087D03*
X0166732Y0266929D03*
X0166732Y0276772D03*
X0166732Y0286614D03*
X0156890Y0257087D03*
X0156890Y0266929D03*
X0156890Y0276772D03*
X0156890Y0286614D03*
X0147047Y0257087D03*
X0147047Y0266929D03*
X0147047Y0276772D03*
X0147047Y0286614D03*
X0133268Y0257087D03*
X0133268Y0266929D03*
X0133268Y0276772D03*
X0133268Y0286614D03*
X0118701Y0257087D03*
X0118701Y0266929D03*
X0118701Y0276772D03*
X0118701Y0286614D03*
D12*
X0088583Y0236024D03*
X0088583Y0216732D03*
X0093287Y0007480D03*
X0108287Y0007480D03*
X0078740Y0236024D03*
X0078740Y0216732D03*
X0102362Y0236024D03*
X0102362Y0216732D03*
D17*
X0045915Y0121260D03*
X0045915Y0125984D03*
X0045915Y0116535D03*
X0045915Y0111811D03*
X0102707Y0137244D03*
X0102707Y0141181D03*
D37*
X0108563Y0091831D03*
X0108563Y0066634D03*
X0108563Y0059154D03*
X0108563Y0042224D03*
D17*
X0110335Y0032776D03*
X0110335Y0028839D03*
D37*
X0108563Y0017618D03*
X0047539Y0093602D03*
X0047539Y0086319D03*
X0047539Y0066831D03*
X0047539Y0019390D03*
G36*
G01*
X0057579Y0203996D02*
X0053445Y0203996D01*
G75*
G02*
X0053051Y0204390I0000000J0000394D01*
G01*
X0053051Y0207539D01*
G75*
G02*
X0053445Y0207933I0000394J0000000D01*
G01*
X0057579Y0207933D01*
G75*
G02*
X0057973Y0207539I0000000J-000394D01*
G01*
X0057973Y0204390D01*
G75*
G02*
X0057579Y0203996I-000394J0000000D01*
G01*
G37*
G36*
G01*
X0057579Y0211870D02*
X0053445Y0211870D01*
G75*
G02*
X0053051Y0212264I0000000J0000394D01*
G01*
X0053051Y0215413D01*
G75*
G02*
X0053445Y0215807I0000394J0000000D01*
G01*
X0057579Y0215807D01*
G75*
G02*
X0057973Y0215413I0000000J-000394D01*
G01*
X0057973Y0212264D01*
G75*
G02*
X0057579Y0211870I-000394J0000000D01*
G01*
G37*
G36*
G01*
X0042028Y0203937D02*
X0037894Y0203937D01*
G75*
G02*
X0037500Y0204331I0000000J0000394D01*
G01*
X0037500Y0207480D01*
G75*
G02*
X0037894Y0207874I0000394J0000000D01*
G01*
X0042028Y0207874D01*
G75*
G02*
X0042421Y0207480I0000000J-000394D01*
G01*
X0042421Y0204331D01*
G75*
G02*
X0042028Y0203937I-000394J0000000D01*
G01*
G37*
G36*
G01*
X0042028Y0211811D02*
X0037894Y0211811D01*
G75*
G02*
X0037500Y0212205I0000000J0000394D01*
G01*
X0037500Y0215354D01*
G75*
G02*
X0037894Y0215748I0000394J0000000D01*
G01*
X0042028Y0215748D01*
G75*
G02*
X0042421Y0215354I0000000J-000394D01*
G01*
X0042421Y0212205D01*
G75*
G02*
X0042028Y0211811I-000394J0000000D01*
G01*
G37*
G36*
G01*
X0037894Y0229252D02*
X0042028Y0229252D01*
G75*
G02*
X0042421Y0228858I0000000J-000394D01*
G01*
X0042421Y0225709D01*
G75*
G02*
X0042028Y0225315I-000394J0000000D01*
G01*
X0037894Y0225315D01*
G75*
G02*
X0037500Y0225709I0000000J0000394D01*
G01*
X0037500Y0228858D01*
G75*
G02*
X0037894Y0229252I0000394J0000000D01*
G01*
G37*
G36*
G01*
X0037894Y0221378D02*
X0042028Y0221378D01*
G75*
G02*
X0042421Y0220984I0000000J-000394D01*
G01*
X0042421Y0217835D01*
G75*
G02*
X0042028Y0217441I-000394J0000000D01*
G01*
X0037894Y0217441D01*
G75*
G02*
X0037500Y0217835I0000000J0000394D01*
G01*
X0037500Y0220984D01*
G75*
G02*
X0037894Y0221378I0000394J0000000D01*
G01*
G37*
G36*
G01*
X0038878Y0193307D02*
X0043012Y0193307D01*
G75*
G02*
X0043406Y0192913I0000000J-000394D01*
G01*
X0043406Y0189764D01*
G75*
G02*
X0043012Y0189370I-000394J0000000D01*
G01*
X0038878Y0189370D01*
G75*
G02*
X0038484Y0189764I0000000J0000394D01*
G01*
X0038484Y0192913D01*
G75*
G02*
X0038878Y0193307I0000394J0000000D01*
G01*
G37*
G36*
G01*
X0038878Y0185433D02*
X0043012Y0185433D01*
G75*
G02*
X0043406Y0185039I0000000J-000394D01*
G01*
X0043406Y0181890D01*
G75*
G02*
X0043012Y0181496I-000394J0000000D01*
G01*
X0038878Y0181496D01*
G75*
G02*
X0038484Y0181890I0000000J0000394D01*
G01*
X0038484Y0185039D01*
G75*
G02*
X0038878Y0185433I0000394J0000000D01*
G01*
G37*
G36*
G01*
X0043012Y0167992D02*
X0038878Y0167992D01*
G75*
G02*
X0038484Y0168386I0000000J0000394D01*
G01*
X0038484Y0171535D01*
G75*
G02*
X0038878Y0171929I0000394J0000000D01*
G01*
X0043012Y0171929D01*
G75*
G02*
X0043406Y0171535I0000000J-000394D01*
G01*
X0043406Y0168386D01*
G75*
G02*
X0043012Y0167992I-000394J0000000D01*
G01*
G37*
G36*
G01*
X0043012Y0175866D02*
X0038878Y0175866D01*
G75*
G02*
X0038484Y0176260I0000000J0000394D01*
G01*
X0038484Y0179409D01*
G75*
G02*
X0038878Y0179803I0000394J0000000D01*
G01*
X0043012Y0179803D01*
G75*
G02*
X0043406Y0179409I0000000J-000394D01*
G01*
X0043406Y0176260D01*
G75*
G02*
X0043012Y0175866I-000394J0000000D01*
G01*
G37*
G36*
G01*
X0035335Y0167992D02*
X0031201Y0167992D01*
G75*
G02*
X0030807Y0168386I0000000J0000394D01*
G01*
X0030807Y0171535D01*
G75*
G02*
X0031201Y0171929I0000394J0000000D01*
G01*
X0035335Y0171929D01*
G75*
G02*
X0035728Y0171535I0000000J-000394D01*
G01*
X0035728Y0168386D01*
G75*
G02*
X0035335Y0167992I-000394J0000000D01*
G01*
G37*
G36*
G01*
X0035335Y0175866D02*
X0031201Y0175866D01*
G75*
G02*
X0030807Y0176260I0000000J0000394D01*
G01*
X0030807Y0179409D01*
G75*
G02*
X0031201Y0179803I0000394J0000000D01*
G01*
X0035335Y0179803D01*
G75*
G02*
X0035728Y0179409I0000000J-000394D01*
G01*
X0035728Y0176260D01*
G75*
G02*
X0035335Y0175866I-000394J0000000D01*
G01*
G37*
G36*
G01*
X0026673Y0203937D02*
X0022540Y0203937D01*
G75*
G02*
X0022146Y0204331I0000000J0000394D01*
G01*
X0022146Y0207480D01*
G75*
G02*
X0022540Y0207874I0000394J0000000D01*
G01*
X0026673Y0207874D01*
G75*
G02*
X0027067Y0207480I0000000J-000394D01*
G01*
X0027067Y0204331D01*
G75*
G02*
X0026673Y0203937I-000394J0000000D01*
G01*
G37*
G36*
G01*
X0026673Y0211811D02*
X0022540Y0211811D01*
G75*
G02*
X0022146Y0212205I0000000J0000394D01*
G01*
X0022146Y0215354D01*
G75*
G02*
X0022540Y0215748I0000394J0000000D01*
G01*
X0026673Y0215748D01*
G75*
G02*
X0027067Y0215354I0000000J-000394D01*
G01*
X0027067Y0212205D01*
G75*
G02*
X0026673Y0211811I-000394J0000000D01*
G01*
G37*
G36*
G01*
X0049705Y0203937D02*
X0045571Y0203937D01*
G75*
G02*
X0045177Y0204331I0000000J0000394D01*
G01*
X0045177Y0207480D01*
G75*
G02*
X0045571Y0207874I0000394J0000000D01*
G01*
X0049705Y0207874D01*
G75*
G02*
X0050098Y0207480I0000000J-000394D01*
G01*
X0050098Y0204331D01*
G75*
G02*
X0049705Y0203937I-000394J0000000D01*
G01*
G37*
G36*
G01*
X0049705Y0211811D02*
X0045571Y0211811D01*
G75*
G02*
X0045177Y0212205I0000000J0000394D01*
G01*
X0045177Y0215354D01*
G75*
G02*
X0045571Y0215748I0000394J0000000D01*
G01*
X0049705Y0215748D01*
G75*
G02*
X0050098Y0215354I0000000J-000394D01*
G01*
X0050098Y0212205D01*
G75*
G02*
X0049705Y0211811I-000394J0000000D01*
G01*
G37*
G36*
G01*
X0034351Y0203937D02*
X0030217Y0203937D01*
G75*
G02*
X0029823Y0204331I0000000J0000394D01*
G01*
X0029823Y0207480D01*
G75*
G02*
X0030217Y0207874I0000394J0000000D01*
G01*
X0034351Y0207874D01*
G75*
G02*
X0034744Y0207480I0000000J-000394D01*
G01*
X0034744Y0204331D01*
G75*
G02*
X0034351Y0203937I-000394J0000000D01*
G01*
G37*
G36*
G01*
X0034351Y0211811D02*
X0030217Y0211811D01*
G75*
G02*
X0029823Y0212205I0000000J0000394D01*
G01*
X0029823Y0215354D01*
G75*
G02*
X0030217Y0215748I0000394J0000000D01*
G01*
X0034351Y0215748D01*
G75*
G02*
X0034744Y0215354I0000000J-000394D01*
G01*
X0034744Y0212205D01*
G75*
G02*
X0034351Y0211811I-000394J0000000D01*
G01*
G37*
G36*
G01*
X0060926Y0229252D02*
X0065059Y0229252D01*
G75*
G02*
X0065453Y0228858I0000000J-000394D01*
G01*
X0065453Y0225709D01*
G75*
G02*
X0065059Y0225315I-000394J0000000D01*
G01*
X0060926Y0225315D01*
G75*
G02*
X0060532Y0225709I0000000J0000394D01*
G01*
X0060532Y0228858D01*
G75*
G02*
X0060926Y0229252I0000394J0000000D01*
G01*
G37*
G36*
G01*
X0060926Y0221378D02*
X0065059Y0221378D01*
G75*
G02*
X0065453Y0220984I0000000J-000394D01*
G01*
X0065453Y0217835D01*
G75*
G02*
X0065059Y0217441I-000394J0000000D01*
G01*
X0060926Y0217441D01*
G75*
G02*
X0060532Y0217835I0000000J0000394D01*
G01*
X0060532Y0220984D01*
G75*
G02*
X0060926Y0221378I0000394J0000000D01*
G01*
G37*
G36*
G01*
X0023524Y0193307D02*
X0027658Y0193307D01*
G75*
G02*
X0028051Y0192913I0000000J-000394D01*
G01*
X0028051Y0189764D01*
G75*
G02*
X0027658Y0189370I-000394J0000000D01*
G01*
X0023524Y0189370D01*
G75*
G02*
X0023130Y0189764I0000000J0000394D01*
G01*
X0023130Y0192913D01*
G75*
G02*
X0023524Y0193307I0000394J0000000D01*
G01*
G37*
G36*
G01*
X0023524Y0185433D02*
X0027658Y0185433D01*
G75*
G02*
X0028051Y0185039I0000000J-000394D01*
G01*
X0028051Y0181890D01*
G75*
G02*
X0027658Y0181496I-000394J0000000D01*
G01*
X0023524Y0181496D01*
G75*
G02*
X0023130Y0181890I0000000J0000394D01*
G01*
X0023130Y0185039D01*
G75*
G02*
X0023524Y0185433I0000394J0000000D01*
G01*
G37*
G36*
G01*
X0027658Y0167992D02*
X0023524Y0167992D01*
G75*
G02*
X0023130Y0168386I0000000J0000394D01*
G01*
X0023130Y0171535D01*
G75*
G02*
X0023524Y0171929I0000394J0000000D01*
G01*
X0027658Y0171929D01*
G75*
G02*
X0028051Y0171535I0000000J-000394D01*
G01*
X0028051Y0168386D01*
G75*
G02*
X0027658Y0167992I-000394J0000000D01*
G01*
G37*
G36*
G01*
X0027658Y0175866D02*
X0023524Y0175866D01*
G75*
G02*
X0023130Y0176260I0000000J0000394D01*
G01*
X0023130Y0179409D01*
G75*
G02*
X0023524Y0179803I0000394J0000000D01*
G01*
X0027658Y0179803D01*
G75*
G02*
X0028051Y0179409I0000000J-000394D01*
G01*
X0028051Y0176260D01*
G75*
G02*
X0027658Y0175866I-000394J0000000D01*
G01*
G37*
G36*
G01*
X0054232Y0193307D02*
X0058366Y0193307D01*
G75*
G02*
X0058760Y0192913I0000000J-000394D01*
G01*
X0058760Y0189764D01*
G75*
G02*
X0058366Y0189370I-000394J0000000D01*
G01*
X0054232Y0189370D01*
G75*
G02*
X0053838Y0189764I0000000J0000394D01*
G01*
X0053838Y0192913D01*
G75*
G02*
X0054232Y0193307I0000394J0000000D01*
G01*
G37*
G36*
G01*
X0054232Y0185433D02*
X0058366Y0185433D01*
G75*
G02*
X0058760Y0185039I0000000J-000394D01*
G01*
X0058760Y0181890D01*
G75*
G02*
X0058366Y0181496I-000394J0000000D01*
G01*
X0054232Y0181496D01*
G75*
G02*
X0053838Y0181890I0000000J0000394D01*
G01*
X0053838Y0185039D01*
G75*
G02*
X0054232Y0185433I0000394J0000000D01*
G01*
G37*
X0136614Y0175984D03*
X0136614Y0205511D03*
D63*
X0136614Y0159842D03*
D64*
X0136614Y0222834D03*
G36*
G01*
X0058366Y0167717D02*
X0054232Y0167717D01*
G75*
G02*
X0053839Y0168110I0000000J0000394D01*
G01*
X0053839Y0171260D01*
G75*
G02*
X0054232Y0171654I0000394J0000000D01*
G01*
X0058366Y0171654D01*
G75*
G02*
X0058760Y0171260I0000000J-000394D01*
G01*
X0058760Y0168110D01*
G75*
G02*
X0058366Y0167717I-000394J0000000D01*
G01*
G37*
G36*
G01*
X0058366Y0175591D02*
X0054232Y0175591D01*
G75*
G02*
X0053839Y0175984I0000000J0000394D01*
G01*
X0053839Y0179134D01*
G75*
G02*
X0054232Y0179528I0000394J0000000D01*
G01*
X0058366Y0179528D01*
G75*
G02*
X0058760Y0179134I0000000J-000394D01*
G01*
X0058760Y0175984D01*
G75*
G02*
X0058366Y0175591I-000394J0000000D01*
G01*
G37*
G36*
G01*
X0061319Y0193307D02*
X0065453Y0193307D01*
G75*
G02*
X0065846Y0192913I0000000J-000394D01*
G01*
X0065846Y0189764D01*
G75*
G02*
X0065453Y0189370I-000394J0000000D01*
G01*
X0061319Y0189370D01*
G75*
G02*
X0060925Y0189764I0000000J0000394D01*
G01*
X0060925Y0192913D01*
G75*
G02*
X0061319Y0193307I0000394J0000000D01*
G01*
G37*
G36*
G01*
X0061319Y0185433D02*
X0065453Y0185433D01*
G75*
G02*
X0065846Y0185039I0000000J-000394D01*
G01*
X0065846Y0181890D01*
G75*
G02*
X0065453Y0181496I-000394J0000000D01*
G01*
X0061319Y0181496D01*
G75*
G02*
X0060925Y0181890I0000000J0000394D01*
G01*
X0060925Y0185039D01*
G75*
G02*
X0061319Y0185433I0000394J0000000D01*
G01*
G37*
G36*
G01*
X0046555Y0193307D02*
X0050689Y0193307D01*
G75*
G02*
X0051083Y0192913I0000000J-000394D01*
G01*
X0051083Y0189764D01*
G75*
G02*
X0050689Y0189370I-000394J0000000D01*
G01*
X0046555Y0189370D01*
G75*
G02*
X0046161Y0189764I0000000J0000394D01*
G01*
X0046161Y0192913D01*
G75*
G02*
X0046555Y0193307I0000394J0000000D01*
G01*
G37*
G36*
G01*
X0046555Y0185433D02*
X0050689Y0185433D01*
G75*
G02*
X0051083Y0185039I0000000J-000394D01*
G01*
X0051083Y0181890D01*
G75*
G02*
X0050689Y0181496I-000394J0000000D01*
G01*
X0046555Y0181496D01*
G75*
G02*
X0046161Y0181890I0000000J0000394D01*
G01*
X0046161Y0185039D01*
G75*
G02*
X0046555Y0185433I0000394J0000000D01*
G01*
G37*
G36*
G01*
X0050492Y0167717D02*
X0046358Y0167717D01*
G75*
G02*
X0045965Y0168110I0000000J0000394D01*
G01*
X0045965Y0171260D01*
G75*
G02*
X0046358Y0171654I0000394J0000000D01*
G01*
X0050492Y0171654D01*
G75*
G02*
X0050886Y0171260I0000000J-000394D01*
G01*
X0050886Y0168110D01*
G75*
G02*
X0050492Y0167717I-000394J0000000D01*
G01*
G37*
G36*
G01*
X0050492Y0175591D02*
X0046358Y0175591D01*
G75*
G02*
X0045965Y0175984I0000000J0000394D01*
G01*
X0045965Y0179134D01*
G75*
G02*
X0046358Y0179528I0000394J0000000D01*
G01*
X0050492Y0179528D01*
G75*
G02*
X0050886Y0179134I0000000J-000394D01*
G01*
X0050886Y0175984D01*
G75*
G02*
X0050492Y0175591I-000394J0000000D01*
G01*
G37*
G36*
G01*
X0022540Y0229252D02*
X0026673Y0229252D01*
G75*
G02*
X0027067Y0228858I0000000J-000394D01*
G01*
X0027067Y0225709D01*
G75*
G02*
X0026673Y0225315I-000394J0000000D01*
G01*
X0022540Y0225315D01*
G75*
G02*
X0022146Y0225709I0000000J0000394D01*
G01*
X0022146Y0228858D01*
G75*
G02*
X0022540Y0229252I0000394J0000000D01*
G01*
G37*
G36*
G01*
X0022540Y0221378D02*
X0026673Y0221378D01*
G75*
G02*
X0027067Y0220984I0000000J-000394D01*
G01*
X0027067Y0217835D01*
G75*
G02*
X0026673Y0217441I-000394J0000000D01*
G01*
X0022540Y0217441D01*
G75*
G02*
X0022146Y0217835I0000000J0000394D01*
G01*
X0022146Y0220984D01*
G75*
G02*
X0022540Y0221378I0000394J0000000D01*
G01*
G37*
G36*
G01*
X0045571Y0229252D02*
X0049705Y0229252D01*
G75*
G02*
X0050098Y0228858I0000000J-000394D01*
G01*
X0050098Y0225709D01*
G75*
G02*
X0049705Y0225315I-000394J0000000D01*
G01*
X0045571Y0225315D01*
G75*
G02*
X0045177Y0225709I0000000J0000394D01*
G01*
X0045177Y0228858D01*
G75*
G02*
X0045571Y0229252I0000394J0000000D01*
G01*
G37*
G36*
G01*
X0045571Y0221378D02*
X0049705Y0221378D01*
G75*
G02*
X0050098Y0220984I0000000J-000394D01*
G01*
X0050098Y0217835D01*
G75*
G02*
X0049705Y0217441I-000394J0000000D01*
G01*
X0045571Y0217441D01*
G75*
G02*
X0045177Y0217835I0000000J0000394D01*
G01*
X0045177Y0220984D01*
G75*
G02*
X0045571Y0221378I0000394J0000000D01*
G01*
G37*
G36*
G01*
X0030217Y0229252D02*
X0034351Y0229252D01*
G75*
G02*
X0034744Y0228858I0000000J-000394D01*
G01*
X0034744Y0225709D01*
G75*
G02*
X0034351Y0225315I-000394J0000000D01*
G01*
X0030217Y0225315D01*
G75*
G02*
X0029823Y0225709I0000000J0000394D01*
G01*
X0029823Y0228858D01*
G75*
G02*
X0030217Y0229252I0000394J0000000D01*
G01*
G37*
G36*
G01*
X0030217Y0221378D02*
X0034351Y0221378D01*
G75*
G02*
X0034744Y0220984I0000000J-000394D01*
G01*
X0034744Y0217835D01*
G75*
G02*
X0034351Y0217441I-000394J0000000D01*
G01*
X0030217Y0217441D01*
G75*
G02*
X0029823Y0217835I0000000J0000394D01*
G01*
X0029823Y0220984D01*
G75*
G02*
X0030217Y0221378I0000394J0000000D01*
G01*
G37*
G36*
G01*
X0053445Y0229193D02*
X0057579Y0229193D01*
G75*
G02*
X0057973Y0228799I0000000J-000394D01*
G01*
X0057973Y0225650D01*
G75*
G02*
X0057579Y0225256I-000394J0000000D01*
G01*
X0053445Y0225256D01*
G75*
G02*
X0053051Y0225650I0000000J0000394D01*
G01*
X0053051Y0228799D01*
G75*
G02*
X0053445Y0229193I0000394J0000000D01*
G01*
G37*
G36*
G01*
X0053445Y0221319D02*
X0057579Y0221319D01*
G75*
G02*
X0057973Y0220925I0000000J-000394D01*
G01*
X0057973Y0217776D01*
G75*
G02*
X0057579Y0217382I-000394J0000000D01*
G01*
X0053445Y0217382D01*
G75*
G02*
X0053051Y0217776I0000000J0000394D01*
G01*
X0053051Y0220925D01*
G75*
G02*
X0053445Y0221319I0000394J0000000D01*
G01*
G37*
G36*
G01*
X0031201Y0193307D02*
X0035335Y0193307D01*
G75*
G02*
X0035728Y0192913I0000000J-000394D01*
G01*
X0035728Y0189764D01*
G75*
G02*
X0035335Y0189370I-000394J0000000D01*
G01*
X0031201Y0189370D01*
G75*
G02*
X0030807Y0189764I0000000J0000394D01*
G01*
X0030807Y0192913D01*
G75*
G02*
X0031201Y0193307I0000394J0000000D01*
G01*
G37*
G36*
G01*
X0031201Y0185433D02*
X0035335Y0185433D01*
G75*
G02*
X0035728Y0185039I0000000J-000394D01*
G01*
X0035728Y0181890D01*
G75*
G02*
X0035335Y0181496I-000394J0000000D01*
G01*
X0031201Y0181496D01*
G75*
G02*
X0030807Y0181890I0000000J0000394D01*
G01*
X0030807Y0185039D01*
G75*
G02*
X0031201Y0185433I0000394J0000000D01*
G01*
G37*
X0271260Y0014173D02*
G01*
G75*
D230*
X0186221Y0066142D02*
D03*
X0211516Y0066142D02*
D03*
X0196260Y0066142D02*
D03*
X0201476Y0066142D02*
D03*
X0170965Y0059055D02*
D03*
X0170965Y0066142D02*
D03*
X0181004Y0066142D02*
D03*
X0181004Y0059055D02*
D03*
X0211516Y0059055D02*
D03*
X0201476Y0059055D02*
D03*
X0196260Y0059055D02*
D03*
X0186221Y0059055D02*
D03*
D231*
X0189666Y0066142D02*
D03*
X0204921Y0066142D02*
D03*
X0192815Y0066142D02*
D03*
X0208071Y0066142D02*
D03*
X0177559Y0066142D02*
D03*
X0174410Y0066142D02*
D03*
X0174410Y0059055D02*
D03*
X0177559Y0059055D02*
D03*
X0204921Y0059055D02*
D03*
X0208071Y0059055D02*
D03*
X0189666Y0059055D02*
D03*
X0192815Y0059055D02*
D03*
D235*
X0133071Y0068110D02*
D03*
X0133071Y0064173D02*
D03*
X0136614Y0062598D02*
D03*
X0136614Y0058661D02*
D03*
X0153937Y0070472D02*
D03*
X0153937Y0066535D02*
D03*
X0211639Y0099125D02*
D03*
X0211639Y0095188D02*
D03*
X0211639Y0090929D02*
D03*
X0211639Y0086992D02*
D03*
X0179172Y0047607D02*
D03*
X0179172Y0043670D02*
D03*
X0182895Y0047607D02*
D03*
X0182895Y0043670D02*
D03*
X0146063Y0045191D02*
D03*
X0146063Y0049128D02*
D03*
X0135130Y0133825D02*
D03*
X0135369Y0098077D02*
D03*
X0211639Y0112992D02*
D03*
X0157481Y0080708D02*
D03*
X0161811Y0080708D02*
D03*
X0166030Y0077278D02*
D03*
X0165975Y0066001D02*
D03*
X0195635Y0086417D02*
D03*
X0195635Y0077628D02*
D03*
X0204120Y0073691D02*
D03*
X0233986Y0138608D02*
D03*
X0216142Y0112992D02*
D03*
X0133071Y0072047D02*
D03*
X0166066Y0058661D02*
D03*
X0164668Y0037008D02*
D03*
X0164668Y0022943D02*
D03*
X0168898Y0037008D02*
D03*
X0168898Y0022943D02*
D03*
X0215806Y0062646D02*
D03*
X0217717Y0018110D02*
D03*
X0157481Y0084645D02*
D03*
X0195635Y0073691D02*
D03*
X0195635Y0082480D02*
D03*
X0200123Y0082480D02*
D03*
X0200123Y0086417D02*
D03*
X0220079Y0140551D02*
D03*
X0220079Y0136614D02*
D03*
X0233986Y0134671D02*
D03*
X0163162Y0049226D02*
D03*
X0163162Y0045289D02*
D03*
X0164668Y0019005D02*
D03*
X0166066Y0062598D02*
D03*
X0204120Y0077628D02*
D03*
X0165975Y0069938D02*
D03*
X0166030Y0073341D02*
D03*
X0168898Y0033071D02*
D03*
X0215806Y0058709D02*
D03*
X0217717Y0022047D02*
D03*
X0135369Y0094140D02*
D03*
X0133071Y0068110D02*
D03*
X0158095Y0041338D02*
D03*
X0158095Y0037401D02*
D03*
X0164668Y0033071D02*
D03*
X0216142Y0116929D02*
D03*
X0211639Y0116929D02*
D03*
X0161811Y0084645D02*
D03*
X0135130Y0129888D02*
D03*
X0135130Y0120572D02*
D03*
X0135130Y0124509D02*
D03*
X0168898Y0026880D02*
D03*
X0213780Y0018110D02*
D03*
X0213780Y0022047D02*
D03*
X0201378Y0018110D02*
D03*
X0201378Y0022047D02*
D03*
X0197244Y0018110D02*
D03*
X0197244Y0022047D02*
D03*
X0188976Y0018110D02*
D03*
X0188976Y0022047D02*
D03*
X0193110Y0018110D02*
D03*
X0193110Y0022047D02*
D03*
X0184843Y0018110D02*
D03*
X0184843Y0022047D02*
D03*
X0205512Y0018110D02*
D03*
X0205512Y0022047D02*
D03*
X0209646Y0018110D02*
D03*
X0209646Y0022047D02*
D03*
D237*
X0182284Y0073100D02*
D03*
X0178051Y0073100D02*
D03*
X0266142Y0118504D02*
D03*
X0266142Y0113779D02*
D03*
X0266142Y0109055D02*
D03*
X0266142Y0104331D02*
D03*
X0137795Y0034252D02*
D03*
X0137795Y0038386D02*
D03*
X0230016Y0129566D02*
D03*
X0226079Y0129566D02*
D03*
X0138977Y0018637D02*
D03*
X0142913Y0018637D02*
D03*
X0174114Y0073100D02*
D03*
X0186221Y0073100D02*
D03*
X0230512Y0125394D02*
D03*
X0226575Y0125394D02*
D03*
X0258288Y0100621D02*
D03*
X0254351Y0100621D02*
D03*
X0254351Y0104331D02*
D03*
X0258288Y0104331D02*
D03*
X0243701Y0104331D02*
D03*
X0247638Y0104331D02*
D03*
X0262205Y0104331D02*
D03*
X0262205Y0109055D02*
D03*
X0262205Y0118504D02*
D03*
X0262205Y0113779D02*
D03*
X0229011Y0019672D02*
D03*
X0225074Y0019672D02*
D03*
X0225984Y0069882D02*
D03*
X0229921Y0069882D02*
D03*
X0236221Y0069882D02*
D03*
X0240158Y0069882D02*
D03*
X0225984Y0041929D02*
D03*
X0229921Y0041929D02*
D03*
X0251378Y0065354D02*
D03*
X0247441Y0065354D02*
D03*
X0251378Y0036024D02*
D03*
X0247441Y0036024D02*
D03*
X0251378Y0023228D02*
D03*
X0247441Y0023228D02*
D03*
X0258288Y0040120D02*
D03*
X0262225Y0040120D02*
D03*
X0258662Y0018504D02*
D03*
X0254725Y0018504D02*
D03*
X0261811Y0018701D02*
D03*
X0265748Y0018701D02*
D03*
X0150503Y0018637D02*
D03*
X0146566Y0018637D02*
D03*
X0133858Y0034252D02*
D03*
X0133858Y0038386D02*
D03*
X0247441Y0042126D02*
D03*
X0251378Y0042126D02*
D03*
X0247441Y0046456D02*
D03*
X0251378Y0046456D02*
D03*
X0247441Y0054921D02*
D03*
X0251378Y0054921D02*
D03*
X0262225Y0059087D02*
D03*
X0258288Y0059087D02*
D03*
X0229921Y0097834D02*
D03*
X0225984Y0097834D02*
D03*
X0247441Y0027559D02*
D03*
X0251378Y0027559D02*
D03*
X0262225Y0077930D02*
D03*
X0258288Y0077930D02*
D03*
X0247441Y0073819D02*
D03*
X0251378Y0073819D02*
D03*
X0247441Y0061024D02*
D03*
X0251378Y0061024D02*
D03*
X0262225Y0096910D02*
D03*
X0258288Y0096910D02*
D03*
X0247441Y0092717D02*
D03*
X0251378Y0092717D02*
D03*
X0247441Y0084252D02*
D03*
X0251378Y0084252D02*
D03*
X0247441Y0079921D02*
D03*
X0251378Y0079921D02*
D03*
X0243701Y0097698D02*
D03*
X0247638Y0097698D02*
D03*
D239*
X0141004Y0053730D02*
D03*
X0150479Y0045990D02*
D03*
X0173849Y0027657D02*
D03*
D243*
X0142421Y0101378D02*
D03*
X0142421Y0095078D02*
D03*
X0141043Y0064764D02*
D03*
X0141043Y0058464D02*
D03*
X0145669Y0064764D02*
D03*
X0145669Y0058464D02*
D03*
D239*
X0177590Y0036909D02*
D03*
X0157959Y0045990D02*
D03*
X0154219Y0055242D02*
D03*
X0133524Y0053730D02*
D03*
X0137264Y0044478D02*
D03*
X0181330Y0027657D02*
D03*
D129*
X0217126Y0092086D02*
D03*
X0217126Y0106299D02*
D03*
X0217126Y0076299D02*
D03*
D130*
X0139567Y0129291D02*
D03*
X0143567Y0109291D02*
D03*
X0135567Y0109291D02*
D03*
D37*
X0133858Y0018504D02*
D03*
D264*
X0150866Y0062204D02*
D03*
X0157087Y0062204D02*
D03*
D265*
X0221654Y0091634D02*
D03*
X0228740Y0091634D02*
D03*
X0228740Y0081594D02*
D03*
X0221654Y0081594D02*
D03*
X0228740Y0063681D02*
D03*
X0228740Y0035728D02*
D03*
X0232677Y0053642D02*
D03*
X0257874Y0108760D02*
D03*
X0250788Y0108760D02*
D03*
X0250788Y0118799D02*
D03*
X0257874Y0118799D02*
D03*
X0239764Y0025689D02*
D03*
X0232677Y0025689D02*
D03*
X0232677Y0035728D02*
D03*
X0239764Y0035728D02*
D03*
X0221654Y0035728D02*
D03*
X0228740Y0025689D02*
D03*
X0221654Y0025689D02*
D03*
X0239764Y0053642D02*
D03*
X0232677Y0063681D02*
D03*
X0239764Y0063681D02*
D03*
X0221654Y0063681D02*
D03*
X0228740Y0053642D02*
D03*
X0221654Y0053642D02*
D03*
X0263583Y0054626D02*
D03*
X0256496Y0054626D02*
D03*
X0256496Y0044586D02*
D03*
X0263583Y0044586D02*
D03*
X0263583Y0035728D02*
D03*
X0256496Y0035728D02*
D03*
X0256496Y0025689D02*
D03*
X0263583Y0025689D02*
D03*
X0263583Y0073524D02*
D03*
X0256496Y0073524D02*
D03*
X0256496Y0063484D02*
D03*
X0263583Y0063484D02*
D03*
X0263583Y0092421D02*
D03*
X0256496Y0092421D02*
D03*
X0256496Y0082382D02*
D03*
X0263583Y0082382D02*
D03*
X0239764Y0091634D02*
D03*
X0232677Y0091634D02*
D03*
X0232677Y0081594D02*
D03*
X0239764Y0081594D02*
D03*
X0239764Y0119193D02*
D03*
X0232677Y0119193D02*
D03*
X0232677Y0109153D02*
D03*
X0239764Y0109153D02*
D03*
X0221654Y0109153D02*
D03*
X0228740Y0109153D02*
D03*
X0228740Y0119193D02*
D03*
X0221654Y0119193D02*
D03*
D266*
X0228740Y0085039D02*
D03*
X0228740Y0088189D02*
D03*
X0221654Y0088189D02*
D03*
X0221654Y0085039D02*
D03*
X0228740Y0060236D02*
D03*
X0228740Y0032283D02*
D03*
X0232677Y0057086D02*
D03*
X0250788Y0115354D02*
D03*
X0250788Y0112205D02*
D03*
X0257874Y0112205D02*
D03*
X0257874Y0115354D02*
D03*
X0232677Y0032283D02*
D03*
X0232677Y0029134D02*
D03*
X0239764Y0029134D02*
D03*
X0239764Y0032283D02*
D03*
X0228740Y0029134D02*
D03*
X0221654Y0032283D02*
D03*
X0221654Y0029134D02*
D03*
X0232677Y0060236D02*
D03*
X0239764Y0057086D02*
D03*
X0239764Y0060236D02*
D03*
X0228740Y0057087D02*
D03*
X0221654Y0060236D02*
D03*
X0221654Y0057087D02*
D03*
X0263583Y0051181D02*
D03*
X0263583Y0048031D02*
D03*
X0256496Y0048031D02*
D03*
X0256496Y0051181D02*
D03*
X0263583Y0032284D02*
D03*
X0263583Y0029134D02*
D03*
X0256496Y0029134D02*
D03*
X0256496Y0032284D02*
D03*
X0263583Y0070079D02*
D03*
X0263583Y0066929D02*
D03*
X0256496Y0066929D02*
D03*
X0256496Y0070079D02*
D03*
X0263583Y0088976D02*
D03*
X0263583Y0085827D02*
D03*
X0256496Y0085827D02*
D03*
X0256496Y0088976D02*
D03*
X0239764Y0088189D02*
D03*
X0239764Y0085039D02*
D03*
X0232677Y0085039D02*
D03*
X0232677Y0088189D02*
D03*
X0239764Y0115748D02*
D03*
X0239764Y0112598D02*
D03*
X0232677Y0112598D02*
D03*
X0232677Y0115748D02*
D03*
X0221654Y0112598D02*
D03*
X0221654Y0115748D02*
D03*
X0228740Y0115748D02*
D03*
X0228740Y0112598D02*
D03*
D267*
X0144390Y0123976D02*
D03*
X0139400Y0123976D02*
D03*
X0139400Y0117756D02*
D03*
X0144390Y0117756D02*
D03*
D268*
X0151280Y0136614D02*
D03*
X0151280Y0103937D02*
D03*
X0205413Y0136614D02*
D03*
X0205413Y0103937D02*
D03*
D269*
X0169311Y0126378D02*
D03*
X0160650Y0126378D02*
D03*
X0164980Y0126378D02*
D03*
X0173642Y0126378D02*
D03*
X0177973Y0126378D02*
D03*
X0182303Y0126378D02*
D03*
X0186634Y0126378D02*
D03*
X0190965Y0126378D02*
D03*
D270*
X0249921Y0144685D02*
D03*
X0249921Y0131481D02*
D03*
X0257953Y0137204D02*
D03*
X0257953Y0124001D02*
D03*
X0240669Y0140945D02*
D03*
X0240669Y0127741D02*
D03*
X0267205Y0127741D02*
D03*
X0152284Y0039567D02*
D03*
X0143032Y0035827D02*
D03*
X0267205Y0140945D02*
D03*
D166*
X0224148Y0138608D02*
D03*
X0224148Y0134671D02*
D03*
X0230152Y0138608D02*
D03*
X0230152Y0136640D02*
D03*
X0224148Y0136640D02*
D03*
X0230152Y0134671D02*
D03*
D271*
X0167500Y0048043D02*
D03*
X0167500Y0042925D02*
D03*
X0167500Y0045484D02*
D03*
X0174981Y0048043D02*
D03*
X0174981Y0042925D02*
D03*
D272*
X0187008Y0051260D02*
D03*
X0189567Y0028268D02*
D03*
X0187008Y0028268D02*
D03*
X0210039Y0051260D02*
D03*
X0212598Y0028268D02*
D03*
X0215158Y0028268D02*
D03*
X0210039Y0028268D02*
D03*
X0207480Y0028268D02*
D03*
X0204921Y0028268D02*
D03*
X0202362Y0028268D02*
D03*
X0199803Y0028268D02*
D03*
X0197244Y0028268D02*
D03*
X0194685Y0028268D02*
D03*
X0192126Y0028268D02*
D03*
X0215158Y0051260D02*
D03*
X0212598Y0051260D02*
D03*
X0207480Y0051260D02*
D03*
X0204921Y0051260D02*
D03*
X0202362Y0051260D02*
D03*
X0199803Y0051260D02*
D03*
X0197244Y0051260D02*
D03*
X0194685Y0051260D02*
D03*
X0192126Y0051260D02*
D03*
X0189567Y0051260D02*
D03*
D273*
X0149421Y0025197D02*
D03*
X0138003Y0025197D02*
D03*
D274*
X0147286Y0083287D02*
D03*
X0147286Y0070295D02*
D03*
X0158486Y0019210D02*
D03*
X0158486Y0032202D02*
D03*
D275*
X0172691Y0082062D02*
D03*
X0187258Y0082062D02*
D03*
D160*
X0228134Y0133638D02*
D03*
X0226166Y0133638D02*
D03*
X0226166Y0139642D02*
D03*
X0228134Y0139642D02*
D03*
D276*
X0160168Y0068651D02*
D03*
X0160168Y0074556D02*
D03*
D270*
X0249921Y0137204D02*
D03*
X0249921Y0124001D02*
D03*
X0257953Y0131481D02*
D03*
X0152284Y0032086D02*
D03*
X0257953Y0144685D02*
D03*
D277*
X0210827Y0071454D02*
D03*
X0210827Y0078147D02*
D03*
D278*
X0137290Y0087815D02*
D03*
X0137290Y0076398D02*
D03*
D279*
X0171654Y0018898D02*
D03*
X0177953Y0018898D02*
D03*
X0104183Y0148425D02*
%LPD*%
G01*
D17*
X0045915Y0121260D03*
X0045915Y0125984D03*
X0045915Y0116535D03*
X0045915Y0111811D03*
X0102707Y0137244D03*
X0102707Y0141181D03*
X0044587Y0014665D02*
G01*
G75*
D191*
X0074502Y0091043D02*
D03*
X0061510Y0091043D02*
D03*
D192*
X0094362Y0091437D02*
D03*
X0082945Y0091437D02*
D03*
X0094362Y0083405D02*
D03*
X0082945Y0083405D02*
D03*
D195*
X0056989Y0069389D02*
D03*
X0056989Y0073326D02*
D03*
X0053642Y0083956D02*
D03*
X0062304Y0083956D02*
D03*
X0052855Y0078708D02*
D03*
X0061516Y0078708D02*
D03*
D196*
X0064742Y0026082D02*
D03*
X0061198Y0026082D02*
D03*
X0074133Y0062815D02*
D03*
X0077677Y0062815D02*
D03*
X0066136Y0077920D02*
D03*
X0069679Y0077920D02*
D03*
X0073360Y0026082D02*
D03*
X0069817Y0026082D02*
D03*
X0052855Y0030019D02*
D03*
X0056398Y0030019D02*
D03*
D197*
X0078340Y0079495D02*
D03*
X0078340Y0083039D02*
D03*
X0057573Y0091897D02*
D03*
X0057573Y0088353D02*
D03*
X0106337Y0033580D02*
D03*
X0106337Y0037124D02*
D03*
D198*
X0110335Y0032775D02*
D03*
X0110335Y0028838D02*
D03*
D199*
X0047540Y0086318D02*
D03*
X0047540Y0019389D02*
D03*
X0047540Y0066830D02*
D03*
X0108563Y0066633D02*
D03*
X0108563Y0091830D02*
D03*
X0108563Y0042224D02*
D03*
X0108563Y0059153D02*
D03*
X0108563Y0017618D02*
D03*
X0047540Y0093602D02*
D03*
D206*
X0093800Y0070964D02*
D03*
X0082776Y0070964D02*
D03*
D207*
X0061122Y0066641D02*
D03*
X0061122Y0072861D02*
D03*
X0075216Y0066641D02*
D03*
X0075216Y0072861D02*
D03*
X0070525Y0066641D02*
D03*
X0070525Y0072861D02*
D03*
X0065833Y0066641D02*
D03*
X0065833Y0072861D02*
D03*
X0074035Y0078885D02*
D03*
X0074035Y0085106D02*
D03*
D208*
X0064545Y0030019D02*
D03*
X0060608Y0030019D02*
D03*
X0069226Y0030019D02*
D03*
X0073163Y0030019D02*
D03*
X0065939Y0083956D02*
D03*
X0069876Y0083956D02*
D03*
X0088872Y0062342D02*
D03*
X0092809Y0062342D02*
D03*
X0096648Y0024901D02*
D03*
X0092710Y0024901D02*
D03*
D209*
X0069659Y0036779D02*
D03*
X0064659Y0036779D02*
D03*
X0059659Y0036779D02*
D03*
X0054659Y0036779D02*
D03*
X0069659Y0059416D02*
D03*
X0064659Y0059416D02*
D03*
X0059659Y0059416D02*
D03*
X0054659Y0059416D02*
D03*
X0092726Y0031496D02*
D03*
X0087726Y0031496D02*
D03*
X0082726Y0031496D02*
D03*
X0077726Y0031496D02*
D03*
X0092726Y0054921D02*
D03*
X0087726Y0054921D02*
D03*
X0082726Y0054921D02*
D03*
X0077726Y0054921D02*
D03*
D210*
X0062159Y0048097D02*
D03*
D211*
X0085226Y0043208D02*
D03*
M02*
