G75*
G70*
%OFA0B0*%
%FSLAX25Y25*%
%IPPOS*%
%LPD*%
%AMOC8*
5,1,8,0,0,1.08239X$1,22.5*
%
%AMM100*
21,1,0.035430,0.030320,-0.000000,0.000000,0.000000*
21,1,0.028350,0.037400,-0.000000,0.000000,0.000000*
1,1,0.007090,0.014170,-0.015160*
1,1,0.007090,-0.014170,-0.015160*
1,1,0.007090,-0.014170,0.015160*
1,1,0.007090,0.014170,0.015160*
%
%AMM101*
21,1,0.043310,0.075980,-0.000000,0.000000,90.000000*
21,1,0.034650,0.084650,-0.000000,0.000000,90.000000*
1,1,0.008660,0.037990,0.017320*
1,1,0.008660,0.037990,-0.017320*
1,1,0.008660,-0.037990,-0.017320*
1,1,0.008660,-0.037990,0.017320*
%
%AMM102*
21,1,0.039370,0.035430,-0.000000,0.000000,90.000000*
21,1,0.031500,0.043310,-0.000000,0.000000,90.000000*
1,1,0.007870,0.017720,0.015750*
1,1,0.007870,0.017720,-0.015750*
1,1,0.007870,-0.017720,-0.015750*
1,1,0.007870,-0.017720,0.015750*
%
%AMM103*
21,1,0.027560,0.030710,-0.000000,0.000000,90.000000*
21,1,0.022050,0.036220,-0.000000,0.000000,90.000000*
1,1,0.005510,0.015350,0.011020*
1,1,0.005510,0.015350,-0.011020*
1,1,0.005510,-0.015350,-0.011020*
1,1,0.005510,-0.015350,0.011020*
%
%AMM104*
21,1,0.031500,0.072440,-0.000000,0.000000,90.000000*
21,1,0.025200,0.078740,-0.000000,0.000000,90.000000*
1,1,0.006300,0.036220,0.012600*
1,1,0.006300,0.036220,-0.012600*
1,1,0.006300,-0.036220,-0.012600*
1,1,0.006300,-0.036220,0.012600*
%
%AMM105*
21,1,0.137800,0.067720,-0.000000,0.000000,90.000000*
21,1,0.120870,0.084650,-0.000000,0.000000,90.000000*
1,1,0.016930,0.033860,0.060430*
1,1,0.016930,0.033860,-0.060430*
1,1,0.016930,-0.033860,-0.060430*
1,1,0.016930,-0.033860,0.060430*
%
%AMM106*
21,1,0.043310,0.075990,-0.000000,0.000000,90.000000*
21,1,0.034650,0.084650,-0.000000,0.000000,90.000000*
1,1,0.008660,0.037990,0.017320*
1,1,0.008660,0.037990,-0.017320*
1,1,0.008660,-0.037990,-0.017320*
1,1,0.008660,-0.037990,0.017320*
%
%AMM107*
21,1,0.086610,0.073230,-0.000000,0.000000,180.000000*
21,1,0.069290,0.090550,-0.000000,0.000000,180.000000*
1,1,0.017320,-0.034650,0.036610*
1,1,0.017320,0.034650,0.036610*
1,1,0.017320,0.034650,-0.036610*
1,1,0.017320,-0.034650,-0.036610*
%
%AMM36*
21,1,0.033470,0.026770,0.000000,0.000000,0.000000*
21,1,0.026770,0.033470,0.000000,0.000000,0.000000*
1,1,0.006690,0.013390,-0.013390*
1,1,0.006690,-0.013390,-0.013390*
1,1,0.006690,-0.013390,0.013390*
1,1,0.006690,0.013390,0.013390*
%
%AMM42*
21,1,0.035830,0.026770,0.000000,0.000000,0.000000*
21,1,0.029130,0.033470,0.000000,0.000000,0.000000*
1,1,0.006690,0.014570,-0.013390*
1,1,0.006690,-0.014570,-0.013390*
1,1,0.006690,-0.014570,0.013390*
1,1,0.006690,0.014570,0.013390*
%
%AMM44*
21,1,0.070870,0.036220,0.000000,0.000000,90.000000*
21,1,0.061810,0.045280,0.000000,0.000000,90.000000*
1,1,0.009060,0.018110,0.030910*
1,1,0.009060,0.018110,-0.030910*
1,1,0.009060,-0.018110,-0.030910*
1,1,0.009060,-0.018110,0.030910*
%
%AMM59*
21,1,0.086610,0.073230,0.000000,0.000000,270.000000*
21,1,0.069290,0.090550,0.000000,0.000000,270.000000*
1,1,0.017320,-0.036610,-0.034650*
1,1,0.017320,-0.036610,0.034650*
1,1,0.017320,0.036610,0.034650*
1,1,0.017320,0.036610,-0.034650*
%
%AMM60*
21,1,0.094490,0.111020,0.000000,0.000000,0.000000*
21,1,0.075590,0.129920,0.000000,0.000000,0.000000*
1,1,0.018900,0.037800,-0.055510*
1,1,0.018900,-0.037800,-0.055510*
1,1,0.018900,-0.037800,0.055510*
1,1,0.018900,0.037800,0.055510*
%
%AMM61*
21,1,0.074800,0.083460,0.000000,0.000000,0.000000*
21,1,0.059840,0.098430,0.000000,0.000000,0.000000*
1,1,0.014960,0.029920,-0.041730*
1,1,0.014960,-0.029920,-0.041730*
1,1,0.014960,-0.029920,0.041730*
1,1,0.014960,0.029920,0.041730*
%
%AMM62*
21,1,0.078740,0.053540,0.000000,0.000000,180.000000*
21,1,0.065350,0.066930,0.000000,0.000000,180.000000*
1,1,0.013390,-0.032680,0.026770*
1,1,0.013390,0.032680,0.026770*
1,1,0.013390,0.032680,-0.026770*
1,1,0.013390,-0.032680,-0.026770*
%
%AMM63*
21,1,0.035430,0.030320,0.000000,0.000000,90.000000*
21,1,0.028350,0.037400,0.000000,0.000000,90.000000*
1,1,0.007090,0.015160,0.014170*
1,1,0.007090,0.015160,-0.014170*
1,1,0.007090,-0.015160,-0.014170*
1,1,0.007090,-0.015160,0.014170*
%
%AMM64*
21,1,0.021650,0.052760,0.000000,0.000000,270.000000*
21,1,0.017320,0.057090,0.000000,0.000000,270.000000*
1,1,0.004330,-0.026380,-0.008660*
1,1,0.004330,-0.026380,0.008660*
1,1,0.004330,0.026380,0.008660*
1,1,0.004330,0.026380,-0.008660*
%
%AMM65*
21,1,0.015750,0.016540,0.000000,0.000000,270.000000*
21,1,0.012600,0.019680,0.000000,0.000000,270.000000*
1,1,0.003150,-0.008270,-0.006300*
1,1,0.003150,-0.008270,0.006300*
1,1,0.003150,0.008270,0.006300*
1,1,0.003150,0.008270,-0.006300*
%
%AMM66*
21,1,0.023620,0.018900,0.000000,0.000000,90.000000*
21,1,0.018900,0.023620,0.000000,0.000000,90.000000*
1,1,0.004720,0.009450,0.009450*
1,1,0.004720,0.009450,-0.009450*
1,1,0.004720,-0.009450,-0.009450*
1,1,0.004720,-0.009450,0.009450*
%
%AMM67*
21,1,0.019680,0.019680,0.000000,0.000000,0.000000*
21,1,0.015750,0.023620,0.000000,0.000000,0.000000*
1,1,0.003940,0.007870,-0.009840*
1,1,0.003940,-0.007870,-0.009840*
1,1,0.003940,-0.007870,0.009840*
1,1,0.003940,0.007870,0.009840*
%
%AMM68*
21,1,0.019680,0.019680,0.000000,0.000000,270.000000*
21,1,0.015750,0.023620,0.000000,0.000000,270.000000*
1,1,0.003940,-0.009840,-0.007870*
1,1,0.003940,-0.009840,0.007870*
1,1,0.003940,0.009840,0.007870*
1,1,0.003940,0.009840,-0.007870*
%
%AMM92*
21,1,0.025590,0.026380,-0.000000,0.000000,0.000000*
21,1,0.020470,0.031500,-0.000000,0.000000,0.000000*
1,1,0.005120,0.010240,-0.013190*
1,1,0.005120,-0.010240,-0.013190*
1,1,0.005120,-0.010240,0.013190*
1,1,0.005120,0.010240,0.013190*
%
%AMM93*
21,1,0.017720,0.027950,-0.000000,0.000000,0.000000*
21,1,0.014170,0.031500,-0.000000,0.000000,0.000000*
1,1,0.003540,0.007090,-0.013980*
1,1,0.003540,-0.007090,-0.013980*
1,1,0.003540,-0.007090,0.013980*
1,1,0.003540,0.007090,0.013980*
%
%AMM94*
21,1,0.012600,0.028980,-0.000000,0.000000,180.000000*
21,1,0.010080,0.031500,-0.000000,0.000000,180.000000*
1,1,0.002520,-0.005040,0.014490*
1,1,0.002520,0.005040,0.014490*
1,1,0.002520,0.005040,-0.014490*
1,1,0.002520,-0.005040,-0.014490*
%
%AMM95*
21,1,0.023620,0.030710,-0.000000,0.000000,270.000000*
21,1,0.018900,0.035430,-0.000000,0.000000,270.000000*
1,1,0.004720,-0.015350,-0.009450*
1,1,0.004720,-0.015350,0.009450*
1,1,0.004720,0.015350,0.009450*
1,1,0.004720,0.015350,-0.009450*
%
%AMM96*
21,1,0.027560,0.018900,-0.000000,0.000000,180.000000*
21,1,0.022840,0.023620,-0.000000,0.000000,180.000000*
1,1,0.004720,-0.011420,0.009450*
1,1,0.004720,0.011420,0.009450*
1,1,0.004720,0.011420,-0.009450*
1,1,0.004720,-0.011420,-0.009450*
%
%AMM97*
21,1,0.031500,0.072440,-0.000000,0.000000,180.000000*
21,1,0.025200,0.078740,-0.000000,0.000000,180.000000*
1,1,0.006300,-0.012600,0.036220*
1,1,0.006300,0.012600,0.036220*
1,1,0.006300,0.012600,-0.036220*
1,1,0.006300,-0.012600,-0.036220*
%
%AMM98*
21,1,0.027560,0.018900,-0.000000,0.000000,270.000000*
21,1,0.022840,0.023620,-0.000000,0.000000,270.000000*
1,1,0.004720,-0.009450,-0.011420*
1,1,0.004720,-0.009450,0.011420*
1,1,0.004720,0.009450,0.011420*
1,1,0.004720,0.009450,-0.011420*
%
%AMM99*
21,1,0.023620,0.030710,-0.000000,0.000000,0.000000*
21,1,0.018900,0.035430,-0.000000,0.000000,0.000000*
1,1,0.004720,0.009450,-0.015350*
1,1,0.004720,-0.009450,-0.015350*
1,1,0.004720,-0.009450,0.015350*
1,1,0.004720,0.009450,0.015350*
%
%ADD13R,0.02559X0.06004*%
%ADD138M36*%
%ADD14R,0.06890X0.02559*%
%ADD147M42*%
%ADD15R,0.16929X0.31102*%
%ADD152M44*%
%ADD173R,0.05512X0.01181*%
%ADD175M59*%
%ADD176M60*%
%ADD177M61*%
%ADD178M62*%
%ADD179M63*%
%ADD18R,0.14567X0.00787*%
%ADD180M64*%
%ADD181M65*%
%ADD182M66*%
%ADD183M67*%
%ADD184M68*%
%ADD19R,0.01575X0.00787*%
%ADD20R,0.06299X0.00787*%
%ADD21R,0.38189X0.00787*%
%ADD213M92*%
%ADD214M93*%
%ADD215M94*%
%ADD216O,0.01181X0.04331*%
%ADD217M95*%
%ADD218M96*%
%ADD219M97*%
%ADD22R,0.09055X0.00787*%
%ADD220M98*%
%ADD221M99*%
%ADD222M100*%
%ADD223O,0.02362X0.08661*%
%ADD224M101*%
%ADD225M102*%
%ADD226M103*%
%ADD227M104*%
%ADD228M105*%
%ADD229M106*%
%ADD23R,0.00787X0.05512*%
%ADD230M107*%
%ADD24R,0.00787X0.25197*%
%ADD25R,0.00787X0.06693*%
%ADD26R,0.00787X0.12992*%
%ADD27R,0.27559X0.00787*%
%ADD28R,0.12992X0.00787*%
%ADD29R,0.24803X0.00787*%
%ADD47C,0.03150*%
%ADD80O,0.04724X0.00866*%
%ADD81O,0.00866X0.04724*%
%ADD85R,0.01378X0.00984*%
%ADD86R,0.00984X0.01378*%
X0000000Y0000000D02*
%LPD*%
G01*
G36*
G01*
X0152874Y0172533D02*
X0149803Y0172533D01*
G75*
G02*
X0149528Y0172809I0000000J0000276D01*
G01*
X0149528Y0175013D01*
G75*
G02*
X0149803Y0175289I0000276J0000000D01*
G01*
X0152874Y0175289D01*
G75*
G02*
X0153150Y0175013I0000000J-000276D01*
G01*
X0153150Y0172809D01*
G75*
G02*
X0152874Y0172533I-000276J0000000D01*
G01*
G37*
G36*
G01*
X0152874Y0178832D02*
X0149803Y0178832D01*
G75*
G02*
X0149528Y0179108I0000000J0000276D01*
G01*
X0149528Y0181313D01*
G75*
G02*
X0149803Y0181588I0000276J0000000D01*
G01*
X0152874Y0181588D01*
G75*
G02*
X0153150Y0181313I0000000J-000276D01*
G01*
X0153150Y0179108D01*
G75*
G02*
X0152874Y0178832I-000276J0000000D01*
G01*
G37*
G36*
G01*
X0229547Y0172972D02*
X0226870Y0172972D01*
G75*
G02*
X0226535Y0173307I0000000J0000335D01*
G01*
X0226535Y0175984D01*
G75*
G02*
X0226870Y0176319I0000335J0000000D01*
G01*
X0229547Y0176319D01*
G75*
G02*
X0229882Y0175984I0000000J-000335D01*
G01*
X0229882Y0173307D01*
G75*
G02*
X0229547Y0172972I-000335J0000000D01*
G01*
G37*
G36*
G01*
X0229547Y0179193D02*
X0226870Y0179193D01*
G75*
G02*
X0226535Y0179528I0000000J0000335D01*
G01*
X0226535Y0182205D01*
G75*
G02*
X0226870Y0182539I0000335J0000000D01*
G01*
X0229547Y0182539D01*
G75*
G02*
X0229882Y0182205I0000000J-000335D01*
G01*
X0229882Y0179528D01*
G75*
G02*
X0229547Y0179193I-000335J0000000D01*
G01*
G37*
G36*
G01*
X0007461Y0189606D02*
X0007461Y0192283D01*
G75*
G02*
X0007795Y0192618I0000335J0000000D01*
G01*
X0010472Y0192618D01*
G75*
G02*
X0010807Y0192283I0000000J-000335D01*
G01*
X0010807Y0189606D01*
G75*
G02*
X0010472Y0189272I-000335J0000000D01*
G01*
X0007795Y0189272D01*
G75*
G02*
X0007461Y0189606I0000000J0000335D01*
G01*
G37*
G36*
G01*
X0013681Y0189606D02*
X0013681Y0192283D01*
G75*
G02*
X0014016Y0192618I0000335J0000000D01*
G01*
X0016693Y0192618D01*
G75*
G02*
X0017028Y0192283I0000000J-000335D01*
G01*
X0017028Y0189606D01*
G75*
G02*
X0016693Y0189272I-000335J0000000D01*
G01*
X0014016Y0189272D01*
G75*
G02*
X0013681Y0189606I0000000J0000335D01*
G01*
G37*
G36*
G01*
X0283268Y0092480D02*
X0283268Y0089409D01*
G75*
G02*
X0282992Y0089134I-000276J0000000D01*
G01*
X0280787Y0089134D01*
G75*
G02*
X0280512Y0089409I0000000J0000276D01*
G01*
X0280512Y0092480D01*
G75*
G02*
X0280787Y0092756I0000276J0000000D01*
G01*
X0282992Y0092756D01*
G75*
G02*
X0283268Y0092480I0000000J-000276D01*
G01*
G37*
G36*
G01*
X0276969Y0092480D02*
X0276969Y0089409D01*
G75*
G02*
X0276693Y0089134I-000276J0000000D01*
G01*
X0274488Y0089134D01*
G75*
G02*
X0274213Y0089409I0000000J0000276D01*
G01*
X0274213Y0092480D01*
G75*
G02*
X0274488Y0092756I0000276J0000000D01*
G01*
X0276693Y0092756D01*
G75*
G02*
X0276969Y0092480I0000000J-000276D01*
G01*
G37*
G36*
G01*
X0108268Y0230728D02*
X0108268Y0233445D01*
G75*
G02*
X0109173Y0234350I0000906J0000000D01*
G01*
X0114449Y0234350D01*
G75*
G02*
X0115354Y0233445I0000000J-000906D01*
G01*
X0115354Y0230728D01*
G75*
G02*
X0114449Y0229823I-000906J0000000D01*
G01*
X0109173Y0229823D01*
G75*
G02*
X0108268Y0230728I0000000J0000906D01*
G01*
G37*
G36*
G01*
X0108268Y0219311D02*
X0108268Y0222028D01*
G75*
G02*
X0109173Y0222933I0000906J0000000D01*
G01*
X0114449Y0222933D01*
G75*
G02*
X0115354Y0222028I0000000J-000906D01*
G01*
X0115354Y0219311D01*
G75*
G02*
X0114449Y0218405I-000906J0000000D01*
G01*
X0109173Y0218405D01*
G75*
G02*
X0108268Y0219311I0000000J0000906D01*
G01*
G37*
G36*
G01*
X0198602Y0187205D02*
X0197421Y0187205D01*
G75*
G02*
X0196831Y0187795I0000000J0000591D01*
G01*
X0196831Y0194291D01*
G75*
G02*
X0197421Y0194882I0000591J0000000D01*
G01*
X0198602Y0194882D01*
G75*
G02*
X0199193Y0194291I0000000J-000591D01*
G01*
X0199193Y0187795D01*
G75*
G02*
X0198602Y0187205I-000591J0000000D01*
G01*
G37*
G36*
G01*
X0203602Y0187205D02*
X0202421Y0187205D01*
G75*
G02*
X0201831Y0187795I0000000J0000591D01*
G01*
X0201831Y0194291D01*
G75*
G02*
X0202421Y0194882I0000591J0000000D01*
G01*
X0203602Y0194882D01*
G75*
G02*
X0204193Y0194291I0000000J-000591D01*
G01*
X0204193Y0187795D01*
G75*
G02*
X0203602Y0187205I-000591J0000000D01*
G01*
G37*
G36*
G01*
X0208602Y0187205D02*
X0207421Y0187205D01*
G75*
G02*
X0206831Y0187795I0000000J0000591D01*
G01*
X0206831Y0194291D01*
G75*
G02*
X0207421Y0194882I0000591J0000000D01*
G01*
X0208602Y0194882D01*
G75*
G02*
X0209193Y0194291I0000000J-000591D01*
G01*
X0209193Y0187795D01*
G75*
G02*
X0208602Y0187205I-000591J0000000D01*
G01*
G37*
G36*
G01*
X0213602Y0187205D02*
X0212421Y0187205D01*
G75*
G02*
X0211831Y0187795I0000000J0000591D01*
G01*
X0211831Y0194291D01*
G75*
G02*
X0212421Y0194882I0000591J0000000D01*
G01*
X0213602Y0194882D01*
G75*
G02*
X0214193Y0194291I0000000J-000591D01*
G01*
X0214193Y0187795D01*
G75*
G02*
X0213602Y0187205I-000591J0000000D01*
G01*
G37*
G36*
G01*
X0213602Y0206693D02*
X0212421Y0206693D01*
G75*
G02*
X0211831Y0207283I0000000J0000591D01*
G01*
X0211831Y0213780D01*
G75*
G02*
X0212421Y0214370I0000591J0000000D01*
G01*
X0213602Y0214370D01*
G75*
G02*
X0214193Y0213780I0000000J-000591D01*
G01*
X0214193Y0207283D01*
G75*
G02*
X0213602Y0206693I-000591J0000000D01*
G01*
G37*
G36*
G01*
X0208602Y0206693D02*
X0207421Y0206693D01*
G75*
G02*
X0206831Y0207283I0000000J0000591D01*
G01*
X0206831Y0213780D01*
G75*
G02*
X0207421Y0214370I0000591J0000000D01*
G01*
X0208602Y0214370D01*
G75*
G02*
X0209193Y0213780I0000000J-000591D01*
G01*
X0209193Y0207283D01*
G75*
G02*
X0208602Y0206693I-000591J0000000D01*
G01*
G37*
G36*
G01*
X0203602Y0206693D02*
X0202421Y0206693D01*
G75*
G02*
X0201831Y0207283I0000000J0000591D01*
G01*
X0201831Y0213780D01*
G75*
G02*
X0202421Y0214370I0000591J0000000D01*
G01*
X0203602Y0214370D01*
G75*
G02*
X0204193Y0213780I0000000J-000591D01*
G01*
X0204193Y0207283D01*
G75*
G02*
X0203602Y0206693I-000591J0000000D01*
G01*
G37*
G36*
G01*
X0198602Y0206693D02*
X0197421Y0206693D01*
G75*
G02*
X0196831Y0207283I0000000J0000591D01*
G01*
X0196831Y0213780D01*
G75*
G02*
X0197421Y0214370I0000591J0000000D01*
G01*
X0198602Y0214370D01*
G75*
G02*
X0199193Y0213780I0000000J-000591D01*
G01*
X0199193Y0207283D01*
G75*
G02*
X0198602Y0206693I-000591J0000000D01*
G01*
G37*
D13*
X0221240Y0190209D03*
X0226240Y0190209D03*
X0231240Y0190209D03*
X0236240Y0190209D03*
X0236240Y0211563D03*
X0231240Y0211563D03*
X0226240Y0211563D03*
X0221240Y0211563D03*
G36*
G01*
X0016732Y0177126D02*
X0016732Y0174055D01*
G75*
G02*
X0016457Y0173780I-000276J0000000D01*
G01*
X0014252Y0173780D01*
G75*
G02*
X0013976Y0174055I0000000J0000276D01*
G01*
X0013976Y0177126D01*
G75*
G02*
X0014252Y0177402I0000276J0000000D01*
G01*
X0016457Y0177402D01*
G75*
G02*
X0016732Y0177126I0000000J-000276D01*
G01*
G37*
G36*
G01*
X0010433Y0177126D02*
X0010433Y0174055D01*
G75*
G02*
X0010157Y0173780I-000276J0000000D01*
G01*
X0007953Y0173780D01*
G75*
G02*
X0007677Y0174055I0000000J0000276D01*
G01*
X0007677Y0177126D01*
G75*
G02*
X0007953Y0177402I0000276J0000000D01*
G01*
X0010157Y0177402D01*
G75*
G02*
X0010433Y0177126I0000000J-000276D01*
G01*
G37*
G36*
G01*
X0007854Y0225827D02*
X0007854Y0228504D01*
G75*
G02*
X0008189Y0228839I0000335J0000000D01*
G01*
X0010866Y0228839D01*
G75*
G02*
X0011201Y0228504I0000000J-000335D01*
G01*
X0011201Y0225827D01*
G75*
G02*
X0010866Y0225492I-000335J0000000D01*
G01*
X0008189Y0225492D01*
G75*
G02*
X0007854Y0225827I0000000J0000335D01*
G01*
G37*
G36*
G01*
X0014075Y0225827D02*
X0014075Y0228504D01*
G75*
G02*
X0014409Y0228839I0000335J0000000D01*
G01*
X0017087Y0228839D01*
G75*
G02*
X0017421Y0228504I0000000J-000335D01*
G01*
X0017421Y0225827D01*
G75*
G02*
X0017087Y0225492I-000335J0000000D01*
G01*
X0014409Y0225492D01*
G75*
G02*
X0014075Y0225827I0000000J0000335D01*
G01*
G37*
G36*
G01*
X0274213Y0094921D02*
X0274213Y0097992D01*
G75*
G02*
X0274488Y0098268I0000276J0000000D01*
G01*
X0276693Y0098268D01*
G75*
G02*
X0276969Y0097992I0000000J-000276D01*
G01*
X0276969Y0094921D01*
G75*
G02*
X0276693Y0094646I-000276J0000000D01*
G01*
X0274488Y0094646D01*
G75*
G02*
X0274213Y0094921I0000000J0000276D01*
G01*
G37*
G36*
G01*
X0280512Y0094921D02*
X0280512Y0097992D01*
G75*
G02*
X0280787Y0098268I0000276J0000000D01*
G01*
X0282992Y0098268D01*
G75*
G02*
X0283268Y0097992I0000000J-000276D01*
G01*
X0283268Y0094921D01*
G75*
G02*
X0282992Y0094646I-000276J0000000D01*
G01*
X0280787Y0094646D01*
G75*
G02*
X0280512Y0094921I0000000J0000276D01*
G01*
G37*
D14*
X0062992Y0171260D03*
X0062992Y0175197D03*
X0062992Y0179134D03*
X0062992Y0183071D03*
X0062992Y0187008D03*
X0062992Y0190945D03*
X0025197Y0190945D03*
X0025197Y0187008D03*
X0025197Y0183071D03*
X0025197Y0179134D03*
X0025197Y0175197D03*
X0025197Y0171260D03*
D15*
X0044094Y0181102D03*
G36*
G01*
X0109600Y0100443D02*
X0107711Y0100443D01*
G75*
G02*
X0107474Y0100679I0000000J0000236D01*
G01*
X0107474Y0102569D01*
G75*
G02*
X0107711Y0102805I0000236J0000000D01*
G01*
X0109600Y0102805D01*
G75*
G02*
X0109837Y0102569I0000000J-000236D01*
G01*
X0109837Y0100679D01*
G75*
G02*
X0109600Y0100443I-000236J0000000D01*
G01*
G37*
G36*
G01*
X0100939Y0100443D02*
X0099049Y0100443D01*
G75*
G02*
X0098813Y0100679I0000000J0000236D01*
G01*
X0098813Y0102569D01*
G75*
G02*
X0099049Y0102805I0000236J0000000D01*
G01*
X0100939Y0102805D01*
G75*
G02*
X0101175Y0102569I0000000J-000236D01*
G01*
X0101175Y0100679D01*
G75*
G02*
X0100939Y0100443I-000236J0000000D01*
G01*
G37*
G36*
G01*
X0007461Y0184488D02*
X0007461Y0187165D01*
G75*
G02*
X0007795Y0187500I0000335J0000000D01*
G01*
X0010472Y0187500D01*
G75*
G02*
X0010807Y0187165I0000000J-000335D01*
G01*
X0010807Y0184488D01*
G75*
G02*
X0010472Y0184154I-000335J0000000D01*
G01*
X0007795Y0184154D01*
G75*
G02*
X0007461Y0184488I0000000J0000335D01*
G01*
G37*
G36*
G01*
X0013681Y0184488D02*
X0013681Y0187165D01*
G75*
G02*
X0014016Y0187500I0000335J0000000D01*
G01*
X0016693Y0187500D01*
G75*
G02*
X0017028Y0187165I0000000J-000335D01*
G01*
X0017028Y0184488D01*
G75*
G02*
X0016693Y0184154I-000335J0000000D01*
G01*
X0014016Y0184154D01*
G75*
G02*
X0013681Y0184488I0000000J0000335D01*
G01*
G37*
G36*
G01*
X0110591Y0125000D02*
X0107520Y0125000D01*
G75*
G02*
X0107244Y0125276I0000000J0000276D01*
G01*
X0107244Y0127480D01*
G75*
G02*
X0107520Y0127756I0000276J0000000D01*
G01*
X0110591Y0127756D01*
G75*
G02*
X0110866Y0127480I0000000J-000276D01*
G01*
X0110866Y0125276D01*
G75*
G02*
X0110591Y0125000I-000276J0000000D01*
G01*
G37*
G36*
G01*
X0110591Y0131299D02*
X0107520Y0131299D01*
G75*
G02*
X0107244Y0131575I0000000J0000276D01*
G01*
X0107244Y0133780D01*
G75*
G02*
X0107520Y0134055I0000276J0000000D01*
G01*
X0110591Y0134055D01*
G75*
G02*
X0110866Y0133780I0000000J-000276D01*
G01*
X0110866Y0131575D01*
G75*
G02*
X0110591Y0131299I-000276J0000000D01*
G01*
G37*
G36*
G01*
X0209803Y0172933D02*
X0206732Y0172933D01*
G75*
G02*
X0206457Y0173209I0000000J0000276D01*
G01*
X0206457Y0175413D01*
G75*
G02*
X0206732Y0175689I0000276J0000000D01*
G01*
X0209803Y0175689D01*
G75*
G02*
X0210079Y0175413I0000000J-000276D01*
G01*
X0210079Y0173209D01*
G75*
G02*
X0209803Y0172933I-000276J0000000D01*
G01*
G37*
G36*
G01*
X0209803Y0179232D02*
X0206732Y0179232D01*
G75*
G02*
X0206457Y0179508I0000000J0000276D01*
G01*
X0206457Y0181713D01*
G75*
G02*
X0206732Y0181988I0000276J0000000D01*
G01*
X0209803Y0181988D01*
G75*
G02*
X0210079Y0181713I0000000J-000276D01*
G01*
X0210079Y0179508D01*
G75*
G02*
X0209803Y0179232I-000276J0000000D01*
G01*
G37*
G36*
G01*
X0217283Y0173130D02*
X0214213Y0173130D01*
G75*
G02*
X0213937Y0173406I0000000J0000276D01*
G01*
X0213937Y0175610D01*
G75*
G02*
X0214213Y0175886I0000276J0000000D01*
G01*
X0217283Y0175886D01*
G75*
G02*
X0217559Y0175610I0000000J-000276D01*
G01*
X0217559Y0173406D01*
G75*
G02*
X0217283Y0173130I-000276J0000000D01*
G01*
G37*
G36*
G01*
X0217283Y0179429D02*
X0214213Y0179429D01*
G75*
G02*
X0213937Y0179705I0000000J0000276D01*
G01*
X0213937Y0181909D01*
G75*
G02*
X0214213Y0182185I0000276J0000000D01*
G01*
X0217283Y0182185D01*
G75*
G02*
X0217559Y0181909I0000000J-000276D01*
G01*
X0217559Y0179705D01*
G75*
G02*
X0217283Y0179429I-000276J0000000D01*
G01*
G37*
G36*
G01*
X0176260Y0172539D02*
X0173189Y0172539D01*
G75*
G02*
X0172913Y0172815I0000000J0000276D01*
G01*
X0172913Y0175020D01*
G75*
G02*
X0173189Y0175295I0000276J0000000D01*
G01*
X0176260Y0175295D01*
G75*
G02*
X0176535Y0175020I0000000J-000276D01*
G01*
X0176535Y0172815D01*
G75*
G02*
X0176260Y0172539I-000276J0000000D01*
G01*
G37*
G36*
G01*
X0176260Y0178839D02*
X0173189Y0178839D01*
G75*
G02*
X0172913Y0179114I0000000J0000276D01*
G01*
X0172913Y0181319D01*
G75*
G02*
X0173189Y0181594I0000276J0000000D01*
G01*
X0176260Y0181594D01*
G75*
G02*
X0176535Y0181319I0000000J-000276D01*
G01*
X0176535Y0179114D01*
G75*
G02*
X0176260Y0178839I-000276J0000000D01*
G01*
G37*
D14*
X0062992Y0207480D03*
X0062992Y0211417D03*
X0062992Y0215354D03*
X0062992Y0219291D03*
X0062992Y0223228D03*
X0062992Y0227165D03*
X0025197Y0227165D03*
X0025197Y0223228D03*
X0025197Y0219291D03*
X0025197Y0215354D03*
X0025197Y0211417D03*
X0025197Y0207480D03*
D15*
X0044094Y0217323D03*
G36*
G01*
X0251609Y0205364D02*
X0253627Y0205364D01*
G75*
G02*
X0254488Y0204503I0000000J-000861D01*
G01*
X0254488Y0202781D01*
G75*
G02*
X0253627Y0201919I-000861J0000000D01*
G01*
X0251609Y0201919D01*
G75*
G02*
X0250748Y0202781I0000000J0000861D01*
G01*
X0250748Y0204503D01*
G75*
G02*
X0251609Y0205364I0000861J0000000D01*
G01*
G37*
G36*
G01*
X0251609Y0199163D02*
X0253627Y0199163D01*
G75*
G02*
X0254488Y0198302I0000000J-000861D01*
G01*
X0254488Y0196580D01*
G75*
G02*
X0253627Y0195719I-000861J0000000D01*
G01*
X0251609Y0195719D01*
G75*
G02*
X0250748Y0196580I0000000J0000861D01*
G01*
X0250748Y0198302D01*
G75*
G02*
X0251609Y0199163I0000861J0000000D01*
G01*
G37*
G36*
G01*
X0152047Y0187008D02*
X0150866Y0187008D01*
G75*
G02*
X0150276Y0187598I0000000J0000591D01*
G01*
X0150276Y0194094D01*
G75*
G02*
X0150866Y0194685I0000591J0000000D01*
G01*
X0152047Y0194685D01*
G75*
G02*
X0152638Y0194094I0000000J-000591D01*
G01*
X0152638Y0187598D01*
G75*
G02*
X0152047Y0187008I-000591J0000000D01*
G01*
G37*
G36*
G01*
X0157047Y0187008D02*
X0155866Y0187008D01*
G75*
G02*
X0155276Y0187598I0000000J0000591D01*
G01*
X0155276Y0194094D01*
G75*
G02*
X0155866Y0194685I0000591J0000000D01*
G01*
X0157047Y0194685D01*
G75*
G02*
X0157638Y0194094I0000000J-000591D01*
G01*
X0157638Y0187598D01*
G75*
G02*
X0157047Y0187008I-000591J0000000D01*
G01*
G37*
G36*
G01*
X0162047Y0187008D02*
X0160866Y0187008D01*
G75*
G02*
X0160276Y0187598I0000000J0000591D01*
G01*
X0160276Y0194094D01*
G75*
G02*
X0160866Y0194685I0000591J0000000D01*
G01*
X0162047Y0194685D01*
G75*
G02*
X0162638Y0194094I0000000J-000591D01*
G01*
X0162638Y0187598D01*
G75*
G02*
X0162047Y0187008I-000591J0000000D01*
G01*
G37*
G36*
G01*
X0167047Y0187008D02*
X0165866Y0187008D01*
G75*
G02*
X0165276Y0187598I0000000J0000591D01*
G01*
X0165276Y0194094D01*
G75*
G02*
X0165866Y0194685I0000591J0000000D01*
G01*
X0167047Y0194685D01*
G75*
G02*
X0167638Y0194094I0000000J-000591D01*
G01*
X0167638Y0187598D01*
G75*
G02*
X0167047Y0187008I-000591J0000000D01*
G01*
G37*
G36*
G01*
X0167047Y0206496D02*
X0165866Y0206496D01*
G75*
G02*
X0165276Y0207087I0000000J0000591D01*
G01*
X0165276Y0213583D01*
G75*
G02*
X0165866Y0214173I0000591J0000000D01*
G01*
X0167047Y0214173D01*
G75*
G02*
X0167638Y0213583I0000000J-000591D01*
G01*
X0167638Y0207087D01*
G75*
G02*
X0167047Y0206496I-000591J0000000D01*
G01*
G37*
G36*
G01*
X0162047Y0206496D02*
X0160866Y0206496D01*
G75*
G02*
X0160276Y0207087I0000000J0000591D01*
G01*
X0160276Y0213583D01*
G75*
G02*
X0160866Y0214173I0000591J0000000D01*
G01*
X0162047Y0214173D01*
G75*
G02*
X0162638Y0213583I0000000J-000591D01*
G01*
X0162638Y0207087D01*
G75*
G02*
X0162047Y0206496I-000591J0000000D01*
G01*
G37*
G36*
G01*
X0157047Y0206496D02*
X0155866Y0206496D01*
G75*
G02*
X0155276Y0207087I0000000J0000591D01*
G01*
X0155276Y0213583D01*
G75*
G02*
X0155866Y0214173I0000591J0000000D01*
G01*
X0157047Y0214173D01*
G75*
G02*
X0157638Y0213583I0000000J-000591D01*
G01*
X0157638Y0207087D01*
G75*
G02*
X0157047Y0206496I-000591J0000000D01*
G01*
G37*
G36*
G01*
X0152047Y0206496D02*
X0150866Y0206496D01*
G75*
G02*
X0150276Y0207087I0000000J0000591D01*
G01*
X0150276Y0213583D01*
G75*
G02*
X0150866Y0214173I0000591J0000000D01*
G01*
X0152047Y0214173D01*
G75*
G02*
X0152638Y0213583I0000000J-000591D01*
G01*
X0152638Y0207087D01*
G75*
G02*
X0152047Y0206496I-000591J0000000D01*
G01*
G37*
G36*
G01*
X0085039Y0230728D02*
X0085039Y0233445D01*
G75*
G02*
X0085945Y0234350I0000906J0000000D01*
G01*
X0091220Y0234350D01*
G75*
G02*
X0092126Y0233445I0000000J-000906D01*
G01*
X0092126Y0230728D01*
G75*
G02*
X0091220Y0229823I-000906J0000000D01*
G01*
X0085945Y0229823D01*
G75*
G02*
X0085039Y0230728I0000000J0000906D01*
G01*
G37*
G36*
G01*
X0085039Y0219311D02*
X0085039Y0222028D01*
G75*
G02*
X0085945Y0222933I0000906J0000000D01*
G01*
X0091220Y0222933D01*
G75*
G02*
X0092126Y0222028I0000000J-000906D01*
G01*
X0092126Y0219311D01*
G75*
G02*
X0091220Y0218405I-000906J0000000D01*
G01*
X0085945Y0218405D01*
G75*
G02*
X0085039Y0219311I0000000J0000906D01*
G01*
G37*
G36*
G01*
X0095079Y0005020D02*
X0095079Y0009941D01*
G75*
G02*
X0095472Y0010335I0000394J0000000D01*
G01*
X0098622Y0010335D01*
G75*
G02*
X0099016Y0009941I0000000J-000394D01*
G01*
X0099016Y0005020D01*
G75*
G02*
X0098622Y0004626I-000394J0000000D01*
G01*
X0095472Y0004626D01*
G75*
G02*
X0095079Y0005020I0000000J0000394D01*
G01*
G37*
G36*
G01*
X0102559Y0005020D02*
X0102559Y0009941D01*
G75*
G02*
X0102953Y0010335I0000394J0000000D01*
G01*
X0106102Y0010335D01*
G75*
G02*
X0106496Y0009941I0000000J-000394D01*
G01*
X0106496Y0005020D01*
G75*
G02*
X0106102Y0004626I-000394J0000000D01*
G01*
X0102953Y0004626D01*
G75*
G02*
X0102559Y0005020I0000000J0000394D01*
G01*
G37*
G36*
G01*
X0017126Y0213346D02*
X0017126Y0210276D01*
G75*
G02*
X0016850Y0210000I-000276J0000000D01*
G01*
X0014646Y0210000D01*
G75*
G02*
X0014370Y0210276I0000000J0000276D01*
G01*
X0014370Y0213346D01*
G75*
G02*
X0014646Y0213622I0000276J0000000D01*
G01*
X0016850Y0213622D01*
G75*
G02*
X0017126Y0213346I0000000J-000276D01*
G01*
G37*
G36*
G01*
X0010827Y0213346D02*
X0010827Y0210276D01*
G75*
G02*
X0010551Y0210000I-000276J0000000D01*
G01*
X0008346Y0210000D01*
G75*
G02*
X0008071Y0210276I0000000J0000276D01*
G01*
X0008071Y0213346D01*
G75*
G02*
X0008346Y0213622I0000276J0000000D01*
G01*
X0010551Y0213622D01*
G75*
G02*
X0010827Y0213346I0000000J-000276D01*
G01*
G37*
G36*
G01*
X0123661Y0217717D02*
X0119646Y0217717D01*
G75*
G02*
X0119291Y0218071I0000000J0000354D01*
G01*
X0119291Y0220906D01*
G75*
G02*
X0119646Y0221260I0000354J0000000D01*
G01*
X0123661Y0221260D01*
G75*
G02*
X0124016Y0220906I0000000J-000354D01*
G01*
X0124016Y0218071D01*
G75*
G02*
X0123661Y0217717I-000354J0000000D01*
G01*
G37*
G36*
G01*
X0123661Y0230709D02*
X0119646Y0230709D01*
G75*
G02*
X0119291Y0231063I0000000J0000354D01*
G01*
X0119291Y0233898D01*
G75*
G02*
X0119646Y0234252I0000354J0000000D01*
G01*
X0123661Y0234252D01*
G75*
G02*
X0124016Y0233898I0000000J-000354D01*
G01*
X0124016Y0231063D01*
G75*
G02*
X0123661Y0230709I-000354J0000000D01*
G01*
G37*
G36*
G01*
X0075197Y0230728D02*
X0075197Y0233445D01*
G75*
G02*
X0076102Y0234350I0000906J0000000D01*
G01*
X0081378Y0234350D01*
G75*
G02*
X0082283Y0233445I0000000J-000906D01*
G01*
X0082283Y0230728D01*
G75*
G02*
X0081378Y0229823I-000906J0000000D01*
G01*
X0076102Y0229823D01*
G75*
G02*
X0075197Y0230728I0000000J0000906D01*
G01*
G37*
G36*
G01*
X0075197Y0219311D02*
X0075197Y0222028D01*
G75*
G02*
X0076102Y0222933I0000906J0000000D01*
G01*
X0081378Y0222933D01*
G75*
G02*
X0082283Y0222028I0000000J-000906D01*
G01*
X0082283Y0219311D01*
G75*
G02*
X0081378Y0218405I-000906J0000000D01*
G01*
X0076102Y0218405D01*
G75*
G02*
X0075197Y0219311I0000000J0000906D01*
G01*
G37*
G36*
G01*
X0135472Y0217717D02*
X0131457Y0217717D01*
G75*
G02*
X0131102Y0218071I0000000J0000354D01*
G01*
X0131102Y0220906D01*
G75*
G02*
X0131457Y0221260I0000354J0000000D01*
G01*
X0135472Y0221260D01*
G75*
G02*
X0135827Y0220906I0000000J-000354D01*
G01*
X0135827Y0218071D01*
G75*
G02*
X0135472Y0217717I-000354J0000000D01*
G01*
G37*
G36*
G01*
X0135472Y0230709D02*
X0131457Y0230709D01*
G75*
G02*
X0131102Y0231063I0000000J0000354D01*
G01*
X0131102Y0233898D01*
G75*
G02*
X0131457Y0234252I0000354J0000000D01*
G01*
X0135472Y0234252D01*
G75*
G02*
X0135827Y0233898I0000000J-000354D01*
G01*
X0135827Y0231063D01*
G75*
G02*
X0135472Y0230709I-000354J0000000D01*
G01*
G37*
G36*
G01*
X0175374Y0187205D02*
X0174193Y0187205D01*
G75*
G02*
X0173602Y0187795I0000000J0000591D01*
G01*
X0173602Y0194291D01*
G75*
G02*
X0174193Y0194882I0000591J0000000D01*
G01*
X0175374Y0194882D01*
G75*
G02*
X0175965Y0194291I0000000J-000591D01*
G01*
X0175965Y0187795D01*
G75*
G02*
X0175374Y0187205I-000591J0000000D01*
G01*
G37*
G36*
G01*
X0180374Y0187205D02*
X0179193Y0187205D01*
G75*
G02*
X0178602Y0187795I0000000J0000591D01*
G01*
X0178602Y0194291D01*
G75*
G02*
X0179193Y0194882I0000591J0000000D01*
G01*
X0180374Y0194882D01*
G75*
G02*
X0180965Y0194291I0000000J-000591D01*
G01*
X0180965Y0187795D01*
G75*
G02*
X0180374Y0187205I-000591J0000000D01*
G01*
G37*
G36*
G01*
X0185374Y0187205D02*
X0184193Y0187205D01*
G75*
G02*
X0183602Y0187795I0000000J0000591D01*
G01*
X0183602Y0194291D01*
G75*
G02*
X0184193Y0194882I0000591J0000000D01*
G01*
X0185374Y0194882D01*
G75*
G02*
X0185965Y0194291I0000000J-000591D01*
G01*
X0185965Y0187795D01*
G75*
G02*
X0185374Y0187205I-000591J0000000D01*
G01*
G37*
G36*
G01*
X0190374Y0187205D02*
X0189193Y0187205D01*
G75*
G02*
X0188602Y0187795I0000000J0000591D01*
G01*
X0188602Y0194291D01*
G75*
G02*
X0189193Y0194882I0000591J0000000D01*
G01*
X0190374Y0194882D01*
G75*
G02*
X0190965Y0194291I0000000J-000591D01*
G01*
X0190965Y0187795D01*
G75*
G02*
X0190374Y0187205I-000591J0000000D01*
G01*
G37*
G36*
G01*
X0190374Y0206693D02*
X0189193Y0206693D01*
G75*
G02*
X0188602Y0207283I0000000J0000591D01*
G01*
X0188602Y0213780D01*
G75*
G02*
X0189193Y0214370I0000591J0000000D01*
G01*
X0190374Y0214370D01*
G75*
G02*
X0190965Y0213780I0000000J-000591D01*
G01*
X0190965Y0207283D01*
G75*
G02*
X0190374Y0206693I-000591J0000000D01*
G01*
G37*
G36*
G01*
X0185374Y0206693D02*
X0184193Y0206693D01*
G75*
G02*
X0183602Y0207283I0000000J0000591D01*
G01*
X0183602Y0213780D01*
G75*
G02*
X0184193Y0214370I0000591J0000000D01*
G01*
X0185374Y0214370D01*
G75*
G02*
X0185965Y0213780I0000000J-000591D01*
G01*
X0185965Y0207283D01*
G75*
G02*
X0185374Y0206693I-000591J0000000D01*
G01*
G37*
G36*
G01*
X0180374Y0206693D02*
X0179193Y0206693D01*
G75*
G02*
X0178602Y0207283I0000000J0000591D01*
G01*
X0178602Y0213780D01*
G75*
G02*
X0179193Y0214370I0000591J0000000D01*
G01*
X0180374Y0214370D01*
G75*
G02*
X0180965Y0213780I0000000J-000591D01*
G01*
X0180965Y0207283D01*
G75*
G02*
X0180374Y0206693I-000591J0000000D01*
G01*
G37*
G36*
G01*
X0175374Y0206693D02*
X0174193Y0206693D01*
G75*
G02*
X0173602Y0207283I0000000J0000591D01*
G01*
X0173602Y0213780D01*
G75*
G02*
X0174193Y0214370I0000591J0000000D01*
G01*
X0175374Y0214370D01*
G75*
G02*
X0175965Y0213780I0000000J-000591D01*
G01*
X0175965Y0207283D01*
G75*
G02*
X0175374Y0206693I-000591J0000000D01*
G01*
G37*
G36*
G01*
X0258696Y0205413D02*
X0260714Y0205413D01*
G75*
G02*
X0261575Y0204552I0000000J-000861D01*
G01*
X0261575Y0202830D01*
G75*
G02*
X0260714Y0201969I-000861J0000000D01*
G01*
X0258696Y0201969D01*
G75*
G02*
X0257835Y0202830I0000000J0000861D01*
G01*
X0257835Y0204552D01*
G75*
G02*
X0258696Y0205413I0000861J0000000D01*
G01*
G37*
G36*
G01*
X0258696Y0199213D02*
X0260714Y0199213D01*
G75*
G02*
X0261575Y0198351I0000000J-000861D01*
G01*
X0261575Y0196629D01*
G75*
G02*
X0260714Y0195768I-000861J0000000D01*
G01*
X0258696Y0195768D01*
G75*
G02*
X0257835Y0196629I0000000J0000861D01*
G01*
X0257835Y0198351D01*
G75*
G02*
X0258696Y0199213I0000861J0000000D01*
G01*
G37*
G36*
G01*
X0242343Y0173228D02*
X0239272Y0173228D01*
G75*
G02*
X0238996Y0173504I0000000J0000276D01*
G01*
X0238996Y0175709D01*
G75*
G02*
X0239272Y0175984I0000276J0000000D01*
G01*
X0242343Y0175984D01*
G75*
G02*
X0242618Y0175709I0000000J-000276D01*
G01*
X0242618Y0173504D01*
G75*
G02*
X0242343Y0173228I-000276J0000000D01*
G01*
G37*
G36*
G01*
X0242343Y0179528D02*
X0239272Y0179528D01*
G75*
G02*
X0238996Y0179803I0000000J0000276D01*
G01*
X0238996Y0182008D01*
G75*
G02*
X0239272Y0182283I0000276J0000000D01*
G01*
X0242343Y0182283D01*
G75*
G02*
X0242618Y0182008I0000000J-000276D01*
G01*
X0242618Y0179803D01*
G75*
G02*
X0242343Y0179528I-000276J0000000D01*
G01*
G37*
G36*
G01*
X0236043Y0173228D02*
X0232972Y0173228D01*
G75*
G02*
X0232697Y0173504I0000000J0000276D01*
G01*
X0232697Y0175709D01*
G75*
G02*
X0232972Y0175984I0000276J0000000D01*
G01*
X0236043Y0175984D01*
G75*
G02*
X0236319Y0175709I0000000J-000276D01*
G01*
X0236319Y0173504D01*
G75*
G02*
X0236043Y0173228I-000276J0000000D01*
G01*
G37*
G36*
G01*
X0236043Y0179528D02*
X0232972Y0179528D01*
G75*
G02*
X0232697Y0179803I0000000J0000276D01*
G01*
X0232697Y0182008D01*
G75*
G02*
X0232972Y0182283I0000276J0000000D01*
G01*
X0236043Y0182283D01*
G75*
G02*
X0236319Y0182008I0000000J-000276D01*
G01*
X0236319Y0179803D01*
G75*
G02*
X0236043Y0179528I-000276J0000000D01*
G01*
G37*
G36*
G01*
X0186496Y0172933D02*
X0183425Y0172933D01*
G75*
G02*
X0183150Y0173209I0000000J0000276D01*
G01*
X0183150Y0175413D01*
G75*
G02*
X0183425Y0175689I0000276J0000000D01*
G01*
X0186496Y0175689D01*
G75*
G02*
X0186772Y0175413I0000000J-000276D01*
G01*
X0186772Y0173209D01*
G75*
G02*
X0186496Y0172933I-000276J0000000D01*
G01*
G37*
G36*
G01*
X0186496Y0179232D02*
X0183425Y0179232D01*
G75*
G02*
X0183150Y0179508I0000000J0000276D01*
G01*
X0183150Y0181713D01*
G75*
G02*
X0183425Y0181988I0000276J0000000D01*
G01*
X0186496Y0181988D01*
G75*
G02*
X0186772Y0181713I0000000J-000276D01*
G01*
X0186772Y0179508D01*
G75*
G02*
X0186496Y0179232I-000276J0000000D01*
G01*
G37*
G36*
G01*
X0098819Y0230728D02*
X0098819Y0233445D01*
G75*
G02*
X0099724Y0234350I0000906J0000000D01*
G01*
X0105000Y0234350D01*
G75*
G02*
X0105906Y0233445I0000000J-000906D01*
G01*
X0105906Y0230728D01*
G75*
G02*
X0105000Y0229823I-000906J0000000D01*
G01*
X0099724Y0229823D01*
G75*
G02*
X0098819Y0230728I0000000J0000906D01*
G01*
G37*
G36*
G01*
X0098819Y0219311D02*
X0098819Y0222028D01*
G75*
G02*
X0099724Y0222933I0000906J0000000D01*
G01*
X0105000Y0222933D01*
G75*
G02*
X0105906Y0222028I0000000J-000906D01*
G01*
X0105906Y0219311D01*
G75*
G02*
X0105000Y0218405I-000906J0000000D01*
G01*
X0099724Y0218405D01*
G75*
G02*
X0098819Y0219311I0000000J0000906D01*
G01*
G37*
G36*
G01*
X0199567Y0172933D02*
X0196496Y0172933D01*
G75*
G02*
X0196220Y0173209I0000000J0000276D01*
G01*
X0196220Y0175413D01*
G75*
G02*
X0196496Y0175689I0000276J0000000D01*
G01*
X0199567Y0175689D01*
G75*
G02*
X0199843Y0175413I0000000J-000276D01*
G01*
X0199843Y0173209D01*
G75*
G02*
X0199567Y0172933I-000276J0000000D01*
G01*
G37*
G36*
G01*
X0199567Y0179232D02*
X0196496Y0179232D01*
G75*
G02*
X0196220Y0179508I0000000J0000276D01*
G01*
X0196220Y0181713D01*
G75*
G02*
X0196496Y0181988I0000276J0000000D01*
G01*
X0199567Y0181988D01*
G75*
G02*
X0199843Y0181713I0000000J-000276D01*
G01*
X0199843Y0179508D01*
G75*
G02*
X0199567Y0179232I-000276J0000000D01*
G01*
G37*
G36*
G01*
X0007854Y0220709D02*
X0007854Y0223386D01*
G75*
G02*
X0008189Y0223720I0000335J0000000D01*
G01*
X0010866Y0223720D01*
G75*
G02*
X0011201Y0223386I0000000J-000335D01*
G01*
X0011201Y0220709D01*
G75*
G02*
X0010866Y0220374I-000335J0000000D01*
G01*
X0008189Y0220374D01*
G75*
G02*
X0007854Y0220709I0000000J0000335D01*
G01*
G37*
G36*
G01*
X0014075Y0220709D02*
X0014075Y0223386D01*
G75*
G02*
X0014409Y0223720I0000335J0000000D01*
G01*
X0017087Y0223720D01*
G75*
G02*
X0017421Y0223386I0000000J-000335D01*
G01*
X0017421Y0220709D01*
G75*
G02*
X0017087Y0220374I-000335J0000000D01*
G01*
X0014409Y0220374D01*
G75*
G02*
X0014075Y0220709I0000000J0000335D01*
G01*
G37*
G36*
G01*
X0244090Y0205413D02*
X0246107Y0205413D01*
G75*
G02*
X0246969Y0204552I0000000J-000861D01*
G01*
X0246969Y0202830D01*
G75*
G02*
X0246107Y0201969I-000861J0000000D01*
G01*
X0244090Y0201969D01*
G75*
G02*
X0243228Y0202830I0000000J0000861D01*
G01*
X0243228Y0204552D01*
G75*
G02*
X0244090Y0205413I0000861J0000000D01*
G01*
G37*
G36*
G01*
X0244090Y0199213D02*
X0246107Y0199213D01*
G75*
G02*
X0246969Y0198351I0000000J-000861D01*
G01*
X0246969Y0196629D01*
G75*
G02*
X0246107Y0195768I-000861J0000000D01*
G01*
X0244090Y0195768D01*
G75*
G02*
X0243228Y0196629I0000000J0000861D01*
G01*
X0243228Y0198351D01*
G75*
G02*
X0244090Y0199213I0000861J0000000D01*
G01*
G37*
G36*
G01*
X0223445Y0173228D02*
X0220374Y0173228D01*
G75*
G02*
X0220098Y0173504I0000000J0000276D01*
G01*
X0220098Y0175709D01*
G75*
G02*
X0220374Y0175984I0000276J0000000D01*
G01*
X0223445Y0175984D01*
G75*
G02*
X0223720Y0175709I0000000J-000276D01*
G01*
X0223720Y0173504D01*
G75*
G02*
X0223445Y0173228I-000276J0000000D01*
G01*
G37*
G36*
G01*
X0223445Y0179528D02*
X0220374Y0179528D01*
G75*
G02*
X0220098Y0179803I0000000J0000276D01*
G01*
X0220098Y0182008D01*
G75*
G02*
X0220374Y0182283I0000276J0000000D01*
G01*
X0223445Y0182283D01*
G75*
G02*
X0223720Y0182008I0000000J-000276D01*
G01*
X0223720Y0179803D01*
G75*
G02*
X0223445Y0179528I-000276J0000000D01*
G01*
G37*
G36*
G01*
X0162717Y0172539D02*
X0159646Y0172539D01*
G75*
G02*
X0159370Y0172815I0000000J0000276D01*
G01*
X0159370Y0175020D01*
G75*
G02*
X0159646Y0175295I0000276J0000000D01*
G01*
X0162717Y0175295D01*
G75*
G02*
X0162992Y0175020I0000000J-000276D01*
G01*
X0162992Y0172815D01*
G75*
G02*
X0162717Y0172539I-000276J0000000D01*
G01*
G37*
G36*
G01*
X0162717Y0178839D02*
X0159646Y0178839D01*
G75*
G02*
X0159370Y0179114I0000000J0000276D01*
G01*
X0159370Y0181319D01*
G75*
G02*
X0159646Y0181594I0000276J0000000D01*
G01*
X0162717Y0181594D01*
G75*
G02*
X0162992Y0181319I0000000J-000276D01*
G01*
X0162992Y0179114D01*
G75*
G02*
X0162717Y0178839I-000276J0000000D01*
G01*
G37*
X0271260Y0014173D02*
G01*
G75*
D26*
X0129921Y0067520D02*
D03*
D25*
X0129921Y0053740D02*
D03*
D28*
X0236024Y0147638D02*
D03*
D23*
X0129921Y0105905D02*
D03*
X0270866Y0021653D02*
D03*
D24*
X0270866Y0135433D02*
D03*
X0129921Y0029921D02*
D03*
D21*
X0235236Y0014567D02*
D03*
D22*
X0266732Y0014567D02*
D03*
D20*
X0181496Y0014567D02*
D03*
D29*
X0258858Y0147638D02*
D03*
D27*
X0143307Y0147638D02*
D03*
D18*
X0163977Y0014567D02*
D03*
X0139961Y0014567D02*
D03*
D19*
X0151969Y0014567D02*
D03*
X0177559Y0147638D02*
D03*
D213*
X0253170Y0137795D02*
D03*
X0253170Y0144882D02*
D03*
X0263209Y0144882D02*
D03*
X0263209Y0137795D02*
D03*
X0204429Y0025984D02*
D03*
X0204429Y0018897D02*
D03*
X0214469Y0018897D02*
D03*
X0214469Y0025984D02*
D03*
X0198327Y0025984D02*
D03*
X0198327Y0018897D02*
D03*
X0188287Y0018897D02*
D03*
X0188287Y0025984D02*
D03*
D214*
X0256614Y0137795D02*
D03*
X0259764Y0137795D02*
D03*
X0259764Y0144882D02*
D03*
X0256614Y0144882D02*
D03*
X0211024Y0018897D02*
D03*
X0207874Y0018897D02*
D03*
X0207874Y0025984D02*
D03*
X0211024Y0025984D02*
D03*
X0194882Y0025984D02*
D03*
X0191732Y0025984D02*
D03*
X0191732Y0018897D02*
D03*
X0194882Y0018897D02*
D03*
D215*
X0256166Y0133583D02*
D03*
X0253607Y0133583D02*
D03*
X0251047Y0133583D02*
D03*
X0256166Y0126103D02*
D03*
X0251047Y0126103D02*
D03*
X0253607Y0126103D02*
D03*
X0260791Y0126103D02*
D03*
X0265910Y0126103D02*
D03*
X0260791Y0133583D02*
D03*
X0263351Y0133583D02*
D03*
X0265910Y0133583D02*
D03*
X0263351Y0126103D02*
D03*
D81*
X0156890Y0066375D02*
D03*
X0158858Y0066375D02*
D03*
X0160827Y0066375D02*
D03*
X0162795Y0066375D02*
D03*
X0164764Y0066375D02*
D03*
X0166732Y0066375D02*
D03*
X0168701Y0066375D02*
D03*
X0170669Y0066375D02*
D03*
X0172638Y0066375D02*
D03*
X0176575Y0066375D02*
D03*
X0178544Y0066375D02*
D03*
X0180512Y0066375D02*
D03*
X0182481Y0066375D02*
D03*
X0184449Y0066375D02*
D03*
X0186418Y0066375D02*
D03*
X0188386Y0066375D02*
D03*
X0190355Y0066375D02*
D03*
X0192323Y0066375D02*
D03*
X0194292Y0066375D02*
D03*
X0196260Y0066375D02*
D03*
X0198228Y0066375D02*
D03*
X0200197Y0066375D02*
D03*
X0202165Y0066375D02*
D03*
X0204134Y0066375D02*
D03*
X0204134Y0127399D02*
D03*
X0202165Y0127399D02*
D03*
X0200197Y0127399D02*
D03*
X0198228Y0127399D02*
D03*
X0196260Y0127399D02*
D03*
X0194292Y0127399D02*
D03*
X0192323Y0127399D02*
D03*
X0190355Y0127399D02*
D03*
X0188386Y0127399D02*
D03*
X0186418Y0127399D02*
D03*
X0184449Y0127399D02*
D03*
X0182481Y0127399D02*
D03*
X0180512Y0127399D02*
D03*
X0178544Y0127399D02*
D03*
X0176575Y0127399D02*
D03*
X0174607Y0127399D02*
D03*
X0172638Y0127399D02*
D03*
X0170669Y0127399D02*
D03*
X0168701Y0127399D02*
D03*
X0166732Y0127399D02*
D03*
X0164764Y0127399D02*
D03*
X0162795Y0127399D02*
D03*
X0160827Y0127399D02*
D03*
X0156890Y0127399D02*
D03*
X0174607Y0066375D02*
D03*
X0158858Y0127399D02*
D03*
D80*
X0211024Y0073265D02*
D03*
X0211024Y0077202D02*
D03*
X0211024Y0079171D02*
D03*
X0211024Y0081139D02*
D03*
X0211024Y0083108D02*
D03*
X0211024Y0085076D02*
D03*
X0211024Y0087045D02*
D03*
X0211024Y0089013D02*
D03*
X0211024Y0090982D02*
D03*
X0211024Y0092950D02*
D03*
X0211024Y0094919D02*
D03*
X0211024Y0096887D02*
D03*
X0211024Y0098856D02*
D03*
X0211024Y0100824D02*
D03*
X0211024Y0102793D02*
D03*
X0211024Y0104761D02*
D03*
X0211024Y0106730D02*
D03*
X0211024Y0108698D02*
D03*
X0211024Y0110667D02*
D03*
X0211024Y0112635D02*
D03*
X0211024Y0114604D02*
D03*
X0211024Y0116572D02*
D03*
X0211024Y0118541D02*
D03*
X0211024Y0120509D02*
D03*
X0150000Y0120509D02*
D03*
X0150000Y0118541D02*
D03*
X0150000Y0116572D02*
D03*
X0150000Y0114604D02*
D03*
X0150000Y0112635D02*
D03*
X0150000Y0110667D02*
D03*
X0150000Y0108698D02*
D03*
X0150000Y0106730D02*
D03*
X0150000Y0104761D02*
D03*
X0150000Y0102793D02*
D03*
X0150000Y0100824D02*
D03*
X0150000Y0098856D02*
D03*
X0150000Y0096887D02*
D03*
X0150000Y0094919D02*
D03*
X0150000Y0092950D02*
D03*
X0150000Y0090982D02*
D03*
X0150000Y0089013D02*
D03*
X0150000Y0087045D02*
D03*
X0150000Y0085076D02*
D03*
X0150000Y0083108D02*
D03*
X0150000Y0081139D02*
D03*
X0150000Y0079171D02*
D03*
X0150000Y0077202D02*
D03*
X0150000Y0075234D02*
D03*
X0150000Y0073265D02*
D03*
X0211024Y0075234D02*
D03*
D216*
X0227953Y0069882D02*
D03*
X0227953Y0097834D02*
D03*
X0227953Y0041929D02*
D03*
X0233071Y0047441D02*
D03*
X0222835Y0075394D02*
D03*
X0225394Y0075394D02*
D03*
X0227953Y0075394D02*
D03*
X0230512Y0075394D02*
D03*
X0233071Y0075394D02*
D03*
X0235630Y0075394D02*
D03*
X0238189Y0075394D02*
D03*
X0222835Y0097834D02*
D03*
X0225394Y0097834D02*
D03*
X0230512Y0097834D02*
D03*
X0233071Y0097834D02*
D03*
X0235630Y0097834D02*
D03*
X0238189Y0097834D02*
D03*
X0222835Y0019488D02*
D03*
X0225394Y0019488D02*
D03*
X0227953Y0019488D02*
D03*
X0230512Y0019488D02*
D03*
X0233071Y0019488D02*
D03*
X0235630Y0019488D02*
D03*
X0238189Y0019488D02*
D03*
X0222835Y0041929D02*
D03*
X0225394Y0041929D02*
D03*
X0230512Y0041929D02*
D03*
X0233071Y0041929D02*
D03*
X0235630Y0041929D02*
D03*
X0238189Y0041929D02*
D03*
X0222835Y0047441D02*
D03*
X0225394Y0047441D02*
D03*
X0227953Y0047441D02*
D03*
X0230512Y0047441D02*
D03*
X0235630Y0047441D02*
D03*
X0238189Y0047441D02*
D03*
X0222835Y0069882D02*
D03*
X0225394Y0069882D02*
D03*
X0230512Y0069882D02*
D03*
X0233071Y0069882D02*
D03*
X0235630Y0069882D02*
D03*
X0238189Y0069882D02*
D03*
X0238189Y0125787D02*
D03*
X0235630Y0125787D02*
D03*
X0233071Y0125787D02*
D03*
X0230512Y0125787D02*
D03*
X0227953Y0125787D02*
D03*
X0225394Y0125787D02*
D03*
X0222835Y0125787D02*
D03*
X0238189Y0103346D02*
D03*
X0235630Y0103346D02*
D03*
X0233071Y0103346D02*
D03*
X0230512Y0103346D02*
D03*
X0227953Y0103346D02*
D03*
X0225394Y0103346D02*
D03*
X0222835Y0103346D02*
D03*
D217*
X0135827Y0138582D02*
D03*
X0135827Y0142323D02*
D03*
X0135827Y0134842D02*
D03*
X0145276Y0134842D02*
D03*
X0145276Y0138582D02*
D03*
X0145276Y0142323D02*
D03*
D218*
X0157087Y0140032D02*
D03*
X0152362Y0140032D02*
D03*
X0166634Y0138563D02*
D03*
X0139849Y0052023D02*
D03*
X0215715Y0065335D02*
D03*
X0157087Y0136096D02*
D03*
X0166634Y0142501D02*
D03*
X0203618Y0137201D02*
D03*
X0203618Y0141138D02*
D03*
X0212673Y0137201D02*
D03*
X0212673Y0141138D02*
D03*
X0152362Y0136096D02*
D03*
X0139849Y0055960D02*
D03*
X0156564Y0048883D02*
D03*
X0156564Y0052820D02*
D03*
X0215715Y0069272D02*
D03*
X0211419Y0069291D02*
D03*
X0211419Y0065354D02*
D03*
D86*
X0175269Y0142489D02*
D03*
X0177237Y0142489D02*
D03*
X0173300Y0136190D02*
D03*
X0175269Y0136190D02*
D03*
X0171332Y0136190D02*
D03*
X0177237Y0136190D02*
D03*
X0171332Y0142489D02*
D03*
X0173300Y0142489D02*
D03*
D85*
X0177434Y0140324D02*
D03*
X0177434Y0138355D02*
D03*
X0171135Y0138355D02*
D03*
X0171135Y0140324D02*
D03*
D219*
X0182284Y0137584D02*
D03*
X0198819Y0137584D02*
D03*
D220*
X0254725Y0109055D02*
D03*
X0254725Y0118504D02*
D03*
X0254725Y0113779D02*
D03*
X0254725Y0104331D02*
D03*
X0266142Y0118504D02*
D03*
X0266142Y0109055D02*
D03*
X0266142Y0113779D02*
D03*
X0266142Y0104331D02*
D03*
X0247745Y0098121D02*
D03*
X0243808Y0098121D02*
D03*
X0262205Y0104331D02*
D03*
D03*
X0258268Y0104331D02*
D03*
X0262205Y0109055D02*
D03*
X0258268Y0109055D02*
D03*
X0250788Y0104331D02*
D03*
X0262205Y0113779D02*
D03*
X0258268Y0113779D02*
D03*
X0250788Y0109055D02*
D03*
X0250788Y0113779D02*
D03*
X0262205Y0118504D02*
D03*
X0258268Y0118504D02*
D03*
X0262205Y0118504D02*
D03*
X0250788Y0118504D02*
D03*
X0262205Y0109055D02*
D03*
X0262205Y0113779D02*
D03*
X0259843Y0018307D02*
D03*
X0263780Y0018307D02*
D03*
X0262205Y0042913D02*
D03*
X0266142Y0042913D02*
D03*
X0262205Y0057086D02*
D03*
X0266142Y0057086D02*
D03*
X0258268Y0075984D02*
D03*
X0262205Y0075984D02*
D03*
X0266142Y0075984D02*
D03*
X0262205Y0075984D02*
D03*
X0258268Y0090157D02*
D03*
X0262205Y0090157D02*
D03*
X0243110Y0018307D02*
D03*
X0247047Y0018307D02*
D03*
X0262205Y0024016D02*
D03*
X0258268Y0024016D02*
D03*
X0262205Y0028740D02*
D03*
X0258268Y0028740D02*
D03*
X0262205Y0033464D02*
D03*
X0258268Y0033464D02*
D03*
X0262205Y0038189D02*
D03*
X0258268Y0038189D02*
D03*
X0262205Y0024016D02*
D03*
X0266142Y0024016D02*
D03*
X0262205Y0028740D02*
D03*
X0266142Y0028740D02*
D03*
X0262205Y0033464D02*
D03*
X0266142Y0033464D02*
D03*
X0262205Y0038189D02*
D03*
X0266142Y0038189D02*
D03*
X0262205Y0042913D02*
D03*
X0258268Y0042913D02*
D03*
X0262205Y0047638D02*
D03*
X0258268Y0047638D02*
D03*
X0262205Y0052362D02*
D03*
X0258268Y0052362D02*
D03*
X0262205Y0057086D02*
D03*
X0258268Y0057086D02*
D03*
X0262205Y0047638D02*
D03*
X0266142Y0047638D02*
D03*
X0262205Y0052362D02*
D03*
X0266142Y0052362D02*
D03*
X0258268Y0061811D02*
D03*
X0262205Y0061811D02*
D03*
X0258268Y0066535D02*
D03*
X0262205Y0066535D02*
D03*
X0258268Y0071260D02*
D03*
X0262205Y0071260D02*
D03*
X0266142Y0061811D02*
D03*
X0262205Y0061811D02*
D03*
X0266142Y0066535D02*
D03*
X0262205Y0066535D02*
D03*
X0266142Y0071260D02*
D03*
X0262205Y0071260D02*
D03*
X0258268Y0080709D02*
D03*
X0262205Y0080709D02*
D03*
X0258268Y0085433D02*
D03*
X0262205Y0085433D02*
D03*
X0258268Y0094882D02*
D03*
X0262205Y0094882D02*
D03*
X0266142Y0080709D02*
D03*
X0262205Y0080709D02*
D03*
X0266142Y0085433D02*
D03*
X0262205Y0085433D02*
D03*
X0266142Y0090157D02*
D03*
X0262205Y0090157D02*
D03*
X0266142Y0094882D02*
D03*
X0262205Y0094882D02*
D03*
X0252166Y0018307D02*
D03*
X0256103Y0018307D02*
D03*
D221*
X0249213Y0083071D02*
D03*
X0249213Y0064173D02*
D03*
X0249213Y0045275D02*
D03*
X0249213Y0026378D02*
D03*
X0245473Y0054724D02*
D03*
X0249213Y0054724D02*
D03*
X0252953Y0054724D02*
D03*
X0252953Y0045275D02*
D03*
X0245473Y0045275D02*
D03*
X0245473Y0035827D02*
D03*
X0249213Y0035827D02*
D03*
X0252953Y0035827D02*
D03*
X0252953Y0026378D02*
D03*
X0245473Y0026378D02*
D03*
X0245473Y0073622D02*
D03*
X0249213Y0073622D02*
D03*
X0252953Y0073622D02*
D03*
X0252953Y0064173D02*
D03*
X0245473Y0064173D02*
D03*
X0245473Y0092520D02*
D03*
X0249213Y0092520D02*
D03*
X0252953Y0092520D02*
D03*
X0252953Y0083071D02*
D03*
X0245473Y0083071D02*
D03*
D222*
X0152178Y0049086D02*
D03*
X0141929Y0067008D02*
D03*
D223*
X0177301Y0039764D02*
D03*
X0182301Y0020866D02*
D03*
X0167301Y0020866D02*
D03*
X0172301Y0020866D02*
D03*
X0177301Y0020866D02*
D03*
X0167301Y0039764D02*
D03*
X0172301Y0039764D02*
D03*
X0182301Y0039764D02*
D03*
D224*
X0159660Y0021456D02*
D03*
X0159660Y0039567D02*
D03*
D225*
X0191186Y0055918D02*
D03*
X0191734Y0039709D02*
D03*
X0199346Y0056395D02*
D03*
X0206957Y0056395D02*
D03*
X0199346Y0039709D02*
D03*
X0206957Y0039709D02*
D03*
X0214569Y0056395D02*
D03*
X0214569Y0039709D02*
D03*
X0191186Y0049225D02*
D03*
X0199346Y0049702D02*
D03*
X0206957Y0049702D02*
D03*
X0214569Y0049702D02*
D03*
X0199346Y0033016D02*
D03*
X0191734Y0033016D02*
D03*
X0183209Y0049225D02*
D03*
X0183209Y0055918D02*
D03*
X0176122Y0055918D02*
D03*
X0176122Y0049225D02*
D03*
X0169036Y0049225D02*
D03*
X0169036Y0055918D02*
D03*
X0161949Y0055918D02*
D03*
X0161949Y0049225D02*
D03*
X0206957Y0033016D02*
D03*
X0214569Y0033016D02*
D03*
X0134449Y0055918D02*
D03*
X0134449Y0049225D02*
D03*
D226*
X0161862Y0142592D02*
D03*
X0161862Y0136292D02*
D03*
X0208303Y0135232D02*
D03*
X0208303Y0141532D02*
D03*
D227*
X0138920Y0101967D02*
D03*
X0138920Y0085432D02*
D03*
D222*
X0134449Y0067008D02*
D03*
X0138189Y0076260D02*
D03*
X0144698Y0049086D02*
D03*
X0148438Y0058338D02*
D03*
D228*
X0135250Y0030512D02*
D03*
D229*
X0159660Y0030512D02*
D03*
D47*
X0262205Y0099803D02*
D03*
X0268110Y0018897D02*
D03*
D230*
X0244463Y0136994D02*
D03*
X0226747Y0136994D02*
D03*
X0104183Y0148425D02*
%LPD*%
G01*
D173*
X0070325Y0135433D03*
X0070325Y0137401D03*
X0070325Y0139370D03*
X0070325Y0141338D03*
X0070325Y0143307D03*
X0053002Y0143307D03*
X0053002Y0141338D03*
X0053002Y0139370D03*
X0053002Y0137401D03*
X0053002Y0135433D03*
G36*
G01*
X0062805Y0122244D02*
X0059734Y0122244D01*
G75*
G02*
X0059459Y0122519I0000000J0000276D01*
G01*
X0059459Y0124724D01*
G75*
G02*
X0059734Y0125000I0000276J0000000D01*
G01*
X0062805Y0125000D01*
G75*
G02*
X0063081Y0124724I0000000J-000276D01*
G01*
X0063081Y0122519D01*
G75*
G02*
X0062805Y0122244I-000276J0000000D01*
G01*
G37*
G36*
G01*
X0062805Y0128543D02*
X0059734Y0128543D01*
G75*
G02*
X0059459Y0128819I0000000J0000276D01*
G01*
X0059459Y0131023D01*
G75*
G02*
X0059734Y0131299I0000276J0000000D01*
G01*
X0062805Y0131299D01*
G75*
G02*
X0063081Y0131023I0000000J-000276D01*
G01*
X0063081Y0128819D01*
G75*
G02*
X0062805Y0128543I-000276J0000000D01*
G01*
G37*
G36*
G01*
X0048474Y0115590D02*
X0048474Y0118661D01*
G75*
G02*
X0048750Y0118937I0000276J0000000D01*
G01*
X0050955Y0118937D01*
G75*
G02*
X0051230Y0118661I0000000J-000276D01*
G01*
X0051230Y0115590D01*
G75*
G02*
X0050955Y0115315I-000276J0000000D01*
G01*
X0048750Y0115315D01*
G75*
G02*
X0048474Y0115590I0000000J0000276D01*
G01*
G37*
G36*
G01*
X0054774Y0115590D02*
X0054774Y0118661D01*
G75*
G02*
X0055049Y0118937I0000276J0000000D01*
G01*
X0057254Y0118937D01*
G75*
G02*
X0057529Y0118661I0000000J-000276D01*
G01*
X0057529Y0115590D01*
G75*
G02*
X0057254Y0115315I-000276J0000000D01*
G01*
X0055049Y0115315D01*
G75*
G02*
X0054774Y0115590I0000000J0000276D01*
G01*
G37*
G36*
G01*
X0068711Y0122244D02*
X0065640Y0122244D01*
G75*
G02*
X0065364Y0122519I0000000J0000276D01*
G01*
X0065364Y0124724D01*
G75*
G02*
X0065640Y0125000I0000276J0000000D01*
G01*
X0068711Y0125000D01*
G75*
G02*
X0068986Y0124724I0000000J-000276D01*
G01*
X0068986Y0122519D01*
G75*
G02*
X0068711Y0122244I-000276J0000000D01*
G01*
G37*
G36*
G01*
X0068711Y0128543D02*
X0065640Y0128543D01*
G75*
G02*
X0065364Y0128819I0000000J0000276D01*
G01*
X0065364Y0131023D01*
G75*
G02*
X0065640Y0131299I0000276J0000000D01*
G01*
X0068711Y0131299D01*
G75*
G02*
X0068986Y0131023I0000000J-000276D01*
G01*
X0068986Y0128819D01*
G75*
G02*
X0068711Y0128543I-000276J0000000D01*
G01*
G37*
G36*
G01*
X0060384Y0115920D02*
X0060384Y0117938D01*
G75*
G02*
X0061245Y0118799I0000861J0000000D01*
G01*
X0062967Y0118799D01*
G75*
G02*
X0063829Y0117938I0000000J-000861D01*
G01*
X0063829Y0115920D01*
G75*
G02*
X0062967Y0115059I-000861J0000000D01*
G01*
X0061245Y0115059D01*
G75*
G02*
X0060384Y0115920I0000000J0000861D01*
G01*
G37*
G36*
G01*
X0066585Y0115920D02*
X0066585Y0117938D01*
G75*
G02*
X0067446Y0118799I0000861J0000000D01*
G01*
X0069168Y0118799D01*
G75*
G02*
X0070029Y0117938I0000000J-000861D01*
G01*
X0070029Y0115920D01*
G75*
G02*
X0069168Y0115059I-000861J0000000D01*
G01*
X0067446Y0115059D01*
G75*
G02*
X0066585Y0115920I0000000J0000861D01*
G01*
G37*
G36*
G01*
X0054439Y0122882D02*
X0054439Y0125559D01*
G75*
G02*
X0054774Y0125894I0000335J0000000D01*
G01*
X0057451Y0125894D01*
G75*
G02*
X0057785Y0125559I0000000J-000335D01*
G01*
X0057785Y0122882D01*
G75*
G02*
X0057451Y0122547I-000335J0000000D01*
G01*
X0054774Y0122547D01*
G75*
G02*
X0054439Y0122882I0000000J0000335D01*
G01*
G37*
G36*
G01*
X0048218Y0122882D02*
X0048218Y0125559D01*
G75*
G02*
X0048553Y0125894I0000335J0000000D01*
G01*
X0051230Y0125894D01*
G75*
G02*
X0051565Y0125559I0000000J-000335D01*
G01*
X0051565Y0122882D01*
G75*
G02*
X0051230Y0122547I-000335J0000000D01*
G01*
X0048553Y0122547D01*
G75*
G02*
X0048218Y0122882I0000000J0000335D01*
G01*
G37*
G36*
G01*
X0048218Y0128189D02*
X0048218Y0130866D01*
G75*
G02*
X0048553Y0131201I0000335J0000000D01*
G01*
X0051230Y0131201D01*
G75*
G02*
X0051565Y0130866I0000000J-000335D01*
G01*
X0051565Y0128189D01*
G75*
G02*
X0051230Y0127854I-000335J0000000D01*
G01*
X0048553Y0127854D01*
G75*
G02*
X0048218Y0128189I0000000J0000335D01*
G01*
G37*
G36*
G01*
X0054439Y0128189D02*
X0054439Y0130866D01*
G75*
G02*
X0054774Y0131201I0000335J0000000D01*
G01*
X0057451Y0131201D01*
G75*
G02*
X0057785Y0130866I0000000J-000335D01*
G01*
X0057785Y0128189D01*
G75*
G02*
X0057451Y0127854I-000335J0000000D01*
G01*
X0054774Y0127854D01*
G75*
G02*
X0054439Y0128189I0000000J0000335D01*
G01*
G37*
G36*
G01*
X0073632Y0121988D02*
X0070955Y0121988D01*
G75*
G02*
X0070620Y0122323I0000000J0000335D01*
G01*
X0070620Y0125000D01*
G75*
G02*
X0070955Y0125334I0000335J0000000D01*
G01*
X0073632Y0125334D01*
G75*
G02*
X0073966Y0125000I0000000J-000335D01*
G01*
X0073966Y0122323D01*
G75*
G02*
X0073632Y0121988I-000335J0000000D01*
G01*
G37*
G36*
G01*
X0073632Y0128208D02*
X0070955Y0128208D01*
G75*
G02*
X0070620Y0128543I0000000J0000335D01*
G01*
X0070620Y0131220D01*
G75*
G02*
X0070955Y0131555I0000335J0000000D01*
G01*
X0073632Y0131555D01*
G75*
G02*
X0073966Y0131220I0000000J-000335D01*
G01*
X0073966Y0128543D01*
G75*
G02*
X0073632Y0128208I-000335J0000000D01*
G01*
G37*
X0044587Y0014665D02*
G01*
G75*
D175*
X0089666Y0039032D02*
D03*
X0089666Y0021315D02*
D03*
D176*
X0086339Y0063484D02*
D03*
X0058977Y0063484D02*
D03*
D177*
X0075099Y0040256D02*
D03*
X0058957Y0040256D02*
D03*
D178*
X0076870Y0022145D02*
D03*
X0061122Y0022145D02*
D03*
D179*
X0053931Y0083923D02*
D03*
X0063183Y0080183D02*
D03*
D179*
X0063183Y0087663D02*
D03*
D180*
X0086018Y0093602D02*
D03*
D180*
X0086018Y0089862D02*
D03*
X0086018Y0086122D02*
D03*
X0094482Y0086122D02*
D03*
X0094482Y0093602D02*
D03*
D147*
X0098334Y0079601D02*
D03*
X0085342Y0079601D02*
D03*
D152*
X0080048Y0079889D02*
D03*
X0068630Y0079889D02*
D03*
D138*
X0099233Y0047342D02*
D03*
X0093012Y0047342D02*
D03*
X0088642Y0047342D02*
D03*
X0082422Y0047342D02*
D03*
D181*
X0048556Y0024453D02*
D03*
X0048556Y0028587D02*
D03*
X0099111Y0066327D02*
D03*
X0099111Y0070461D02*
D03*
X0099111Y0061614D02*
D03*
X0099111Y0057480D02*
D03*
X0100003Y0041965D02*
D03*
X0100003Y0037831D02*
D03*
D182*
X0080900Y0086172D02*
D03*
X0080900Y0090109D02*
D03*
X0067225Y0087074D02*
D03*
X0075886Y0087074D02*
D03*
X0067225Y0093471D02*
D03*
X0075886Y0093471D02*
D03*
D183*
X0058852Y0093602D02*
D03*
X0062396Y0093602D02*
D03*
D184*
X0094853Y0070264D02*
D03*
X0094853Y0066720D02*
D03*
X0094853Y0061220D02*
D03*
X0094853Y0057677D02*
D03*
X0100003Y0029664D02*
D03*
X0100003Y0033208D02*
D03*
M02*
