M48
INCH,TZ
T01C0.013750
T02C0.030750
T03C0.039200
T04C0.051200
T05C0.059100
T06C0.090600
T07C0.161400
%
T01
X4591Y12598
X4591Y12126
X4591Y11653
X4591Y11181
X10270Y14118
X10270Y13724
X11033Y3277
X11033Y2884
X13071Y14527
X13071Y14212
X13071Y13897
X13071Y13582
X13071Y13268
X13071Y12953
X13071Y12638
X13071Y12323
X13071Y9488
X13071Y9173
X13071Y8858
X13071Y8543
X13071Y8228
X13071Y12008
X13071Y11693
X13071Y11378
X13071Y11063
X13071Y10118
X13071Y9803
X13071Y7913
X13071Y7598
X13071Y5905
X13071Y4842
X13071Y4449
X13071Y1535
X14921Y1535
X15472Y1535
X15905Y14685
X16220Y14685
X16535Y14685
X16850Y14685
X17165Y14685
X17323Y1535
X17480Y14685
X17638Y1535
X18031Y14685
X18346Y14685
X18661Y14685
X18661Y1535
X18976Y14685
X19055Y1535
X19291Y14685
X19449Y1535
X19606Y14685
X19842Y1535
X19921Y14685
X20236Y14685
X20236Y1535
X20551Y14685
X20630Y1535
X20866Y14685
X21023Y1535
X21181Y14685
X21417Y1535
X21496Y14685
X21811Y14685
X22126Y14685
X22441Y14685
X22756Y14685
X24449Y14685
X25630Y1535
X26023Y1535
X27008Y12086
X27008Y11614
X27008Y11142
X27008Y10669
X27008Y10197
X27008Y9724
X27008Y9252
X27008Y8779
X27008Y8307
X27008Y7834
X27008Y7362
X27008Y6890
X27008Y6417
X27008Y5945
X27008Y5472
X27008Y5000
X27008Y4527
X27008Y4055
X27008Y3582
X27008Y3110
X27008Y2638
X27008Y1693
X393Y24764
X708Y18071
X748Y708
X866Y17086
X945Y21614
X1023Y23543
X1063Y20315
X1102Y16614
X1220Y18031
X1330Y1448
X1378Y16299
X1653Y16023
X1693Y19882
X1693Y18582
X1732Y22205
X1811Y20708
X1811Y18031
X1929Y15748
X2244Y15472
X2283Y23701
X2598Y15197
X3189Y7047
X3307Y19567
X3464Y23661
X3858Y23701
X3897Y24134
X3976Y6102
X4016Y16181
X4094Y19567
X4212Y7874
X4212Y4331
X4252Y2953
X4291Y24134
X4291Y23701
X4527Y9921
X4567Y16181
X4764Y24173
X4764Y23701
X4882Y19567
X5079Y25079
X5118Y16181
X5157Y1181
X5197Y24173
X5197Y23701
X5551Y9882
X5590Y25630
X5669Y25079
X5669Y24173
X5669Y23701
X5708Y16181
X5708Y1181
X6023Y26063
X6102Y23701
X6142Y24134
X6220Y25079
X6338Y19567
X6338Y1181
X6456Y26456
X6496Y23701
X6496Y9921
X6535Y24173
X6771Y25079
X6850Y21929
X6929Y21142
X6929Y18307
X6929Y1181
X7008Y17480
X7086Y16771
X7165Y24173
X7244Y9921
X7283Y18307
X7323Y25079
X7323Y21929
X7401Y20827
X7480Y1181
X7598Y18622
X7756Y17795
X7913Y18937
X8110Y9921
X8189Y1181
X8228Y24527
X8506Y20167
X8819Y24527
X9094Y9921
X9370Y24527
X9645Y10157
X9685Y15275
X9842Y26220
X9882Y25787
X10275Y25748
X10315Y26181
X10393Y27598
X10393Y27165
X10393Y15118
X10748Y25748
X10748Y20669
X10787Y26220
X11023Y27598
X11023Y27126
X11260Y24488
X11319Y12638
X11378Y8031
X11417Y5236
X11614Y24842
X11653Y19685
X11771Y4645
X11811Y3464
X11850Y29645
X12165Y21456
X12205Y23701
X12401Y29645
X12519Y19533
X12559Y12047
X12559Y9370
X12598Y10590
X12638Y2874
X12677Y3661
X12677Y2205
X12716Y7165
X12716Y6338
X12716Y5315
X12834Y18228
X12874Y29645
X12992Y16102
X13268Y21102
X13307Y24882
X13307Y24449
X13346Y29645
X13779Y29645
X13897Y1181
X14016Y28149
X14212Y29645
X14606Y16850
X14685Y15039
X14724Y24842
X14764Y29645
X15118Y16417
X15197Y23228
X15236Y15039
X15512Y16850
X15590Y22638
X15590Y22008
X15630Y17992
X15929Y15968
X16260Y1181
X16614Y20039
X16811Y16732
X16929Y18307
X17165Y24685
X17205Y16456
X17519Y15197
X17598Y20079
X17638Y29606
X17953Y18307
X18149Y24764
X18307Y1181
X18386Y17008
X18858Y20079
X19134Y18149
X19488Y17047
X19921Y20079
X19960Y15315
X20000Y15945
X20118Y24645
X20183Y30301
X20275Y18307
X20433Y26338
X20472Y27362
X20551Y23819
X20699Y30148
X20984Y17086
X21220Y20079
X21234Y29974
X21693Y26063
X21771Y29882
X21929Y1181
X22244Y15512
X22323Y29692
X22638Y27441
X22716Y21850
X22740Y29275
X22795Y1181
X23268Y15039
X23582Y1181
X23701Y23819
X23937Y15039
X24094Y16968
X24134Y23346
X24291Y1181
X24567Y25787
X24645Y22834
X24882Y18346
X24921Y16811
X25000Y15157
X25039Y22362
X25039Y1181
X25079Y25236
X25472Y21929
X25472Y15157
X25630Y24527
X25630Y17716
X25945Y15157
X26063Y24055
X26614Y15039
X26693Y1181
X26968Y22992
X27323Y14291
X27323Y13622
X27323Y12874
X28268Y11102
X28268Y8701
X28327Y10226
X30000Y12756
X30000Y12205
X30000Y11653
X30000Y11063
X30000Y10512
X30000Y9960
X27146Y1831
X27115Y2307
X26925Y2539
X27146Y2775
X26945Y3012
X27146Y3248
X26945Y3484
X27146Y3720
X26945Y3957
X27146Y4193
X26945Y4429
X27146Y4665
X26945Y4901
X27146Y5138
X26945Y5374
X27146Y5610
X26945Y5846
X27146Y6083
X26945Y6319
X27146Y6555
X26945Y6791
X27146Y7027
X26945Y7264
X27146Y7500
X26945Y7736
X27146Y7972
X26945Y8209
X27146Y8445
X26945Y8681
X27146Y8917
X26945Y9153
X27146Y9390
X26945Y9626
X27146Y9862
X26945Y10098
X27146Y10335
X26945Y10571
X27146Y10807
X26945Y11043
X27146Y11279
X26945Y11516
X27146Y11752
X26945Y11988
X27146Y12224
X26988Y12539
X26453Y12532
X26259Y12105
X26249Y11654
X26242Y11212
X26244Y10739
X25197Y10234
X25197Y9924
X25670Y9677
X25467Y9079
X25458Y8783
X25187Y8940
X24505Y9057
X24237Y8802
X23696Y8705
X23696Y9144
X23816Y9604
X23484Y9604
X23189Y9604
X22898Y9598
X22214Y9928
X22218Y10473
X21634Y10335
X21713Y9705
X20881Y9635
X20495Y9620
X20689Y9272
X20889Y9038
X20456Y8781
X20155Y8088
X20138Y7490
X20434Y7143
X20259Y6368
X20814Y6386
X21361Y6376
X21234Y5668
X20435Y5713
X19670Y5687
X18860Y5665
X18820Y6368
X19105Y6368
X19390Y6368
X18519Y6368
X18203Y7156
X17918Y7143
X17620Y7111
X17138Y7161
X17087Y7565
X16609Y8195
X16621Y8572
X16477Y9508
X17077Y9833
X16874Y10041
X17401Y10023
X17448Y10381
X17632Y9830
X18775Y9624
X19004Y9401
X19687Y9355
X19698Y9064
X19906Y9551
X19906Y10220
X20095Y11086
X20309Y11280
X20513Y11484
X20715Y11686
X19902Y11683
X19437Y11236
X18736Y11223
X18834Y11599
X18366Y11476
X17829Y11274
X17603Y11514
X17205Y11708
X16949Y11516
X16566Y11415
X16260Y11375
X16358Y11673
X16560Y12177
X16861Y12233
X17423Y12177
X17668Y12324
X18051Y12067
X18542Y12049
X18934Y13277
X19248Y13587
X19469Y13405
X19989Y13370
X20059Y14823
X19744Y14823
X19429Y14823
X19114Y14823
X18799Y14823
X18484Y14823
X18170Y14823
X17892Y14684
X17618Y14823
X17303Y14823
X16988Y14823
X16673Y14823
X16358Y14823
X16044Y14823
X15956Y14466
X15712Y14683
X15010Y14374
X14075Y14370
X14031Y13997
X14316Y13995
X14075Y13622
X13209Y13720
X13209Y13405
X13209Y13090
X13209Y12775
X13209Y12461
X13209Y12146
X13209Y11831
X13209Y11516
X13209Y11201
X13406Y10610
X13209Y10256
X13209Y9941
X13209Y9626
X13209Y9311
X13209Y8996
X13209Y8681
X13209Y8366
X13209Y8051
X13209Y7736
X13248Y7224
X13903Y7318
X13939Y6920
X13894Y6575
X14196Y6296
X13441Y6354
X13209Y6043
X13209Y4980
X13209Y4586
X13233Y4225
X13696Y4233
X14141Y4003
X15014Y3922
X14791Y3482
X14479Y4668
X14160Y5131
X15011Y5088
X15059Y5531
X15487Y6016
X15772Y6024
X16132Y6092
X16428Y6095
X16329Y5365
X16713Y5374
X17038Y5365
X17366Y5704
X17746Y5365
X18098Y5381
X18393Y5361
X18075Y5678
X17647Y4683
X17203Y4680
X17347Y3504
X17868Y3524
X18257Y3523
X18722Y4348
X18683Y4648
X19136Y4671
X19423Y4671
X19710Y4671
X20126Y4671
X20412Y4671
X20836Y4689
X21144Y4689
X21433Y4689
X22173Y4913
X22268Y5193
X22663Y5505
X22983Y5207
X23549Y5207
X23835Y5200
X24496Y5291
X25241Y5088
X25473Y5256
X25508Y4956
X25672Y4331
X25672Y4035
X25467Y3409
X25467Y3123
X25184Y3287
X24508Y3391
X24239Y3232
X23662Y3052
X23662Y3528
X23816Y4014
X23484Y4014
X23189Y4014
X22898Y4007
X22676Y3244
X22299Y3248
X22291Y2445
X22625Y2472
X22193Y2177
X22150Y1698
X21555Y1673
X21162Y1673
X20768Y1673
X20374Y1673
X19981Y1673
X19587Y1673
X19193Y1673
X18799Y1673
X18170Y1712
X17776Y1673
X17461Y1673
X17087Y1673
X16604Y1801
X16240Y1712
X15610Y1673
X15500Y1957
X15059Y1673
X13897Y1694
X13209Y1673
X16477Y2697
X16772Y2823
X16287Y3692
X15995Y5684
X15547Y6561
X15158Y6693
X15229Y7031
X15551Y7454
X15650Y7894
X15572Y8635
X14636Y9163
X14357Y9303
X14050Y9374
X14740Y9636
X14711Y10467
X14386Y10659
X14732Y11403
X15580Y11329
X15580Y11623
X15580Y11914
X15522Y13100
X15059Y13130
X14528Y12855
X13624Y12829
X13497Y11719
X13209Y14035
X13209Y14350
X13209Y14665
X16113Y13471
X16352Y13315
X16644Y13543
X17071Y13760
X17069Y13319
X17753Y13221
X18042Y13737
X17488Y14013
X18697Y14024
X20374Y14823
X20689Y14823
X21004Y14823
X21319Y14823
X21634Y14823
X21949Y14823
X22264Y14823
X22579Y14823
X22894Y14823
X23508Y14304
X24114Y14744
X24587Y14823
X25185Y14252
X25504Y14252
X25822Y14252
X26140Y14252
X26459Y14252
X26785Y13888
X26828Y14606
X25997Y13010
X25418Y13143
X24508Y12579
X23804Y12346
X23484Y12360
X23196Y12355
X22898Y12354
X22676Y11567
X22263Y11558
X22648Y11048
X22864Y10758
X23437Y10758
X23823Y10795
X23689Y11399
X23696Y11899
X24242Y11559
X24908Y11680
X24908Y11363
X24908Y11017
X24919Y12027
X24508Y10216
X23823Y8000
X23424Y8002
X22985Y8002
X22601Y8084
X22623Y8811
X22341Y8760
X22209Y7618
X22201Y7294
X21709Y7272
X21989Y6862
X22818Y6791
X23189Y6814
X23484Y6801
X23984Y6791
X23721Y6496
X23676Y5827
X24218Y6027
X25094Y5956
X25674Y6187
X25467Y6897
X25467Y7189
X25177Y7047
X24508Y7170
X25628Y7816
X25679Y8144
X22670Y6149
X22264Y5950
X22214Y4337
X21595Y3803
X20834Y3803
X20073Y3803
X19311Y3804
X19364Y7487
X19039Y7283
X18151Y7445
X17051Y6366
X14428Y7165
X14524Y7609
X14794Y7702
X14431Y7905
X15773Y10411
X16056Y10469
X21589Y12042
X21240Y12421
X21385Y13508
X22114Y13459
X22082Y13147
X22214Y12684
X21907Y14219
X20852Y7897
X23396Y2411
X23861Y2449
X24183Y2167
X24222Y1676
X24774Y2274
X25086Y2008
X25768Y1673
X26162Y1673
X26747Y1693
X26555Y2264
X25672Y2461
X22864Y1801
X10280Y12756
X10280Y14724
X10241Y11417
X9414Y12834
X9257Y13897
X9139Y14724
X8902Y11417
X8509Y12323
X8469Y13307
X7918Y13937
X7879Y14724
X7485Y11417
X7249Y12126
X7170Y14724
X7084Y12817
X6658Y14370
X6147Y13504
X5910Y14449
X5753Y11417
X5438Y14724
X5120Y12242
X4847Y13110
X4847Y14449
X10408Y13862
X10408Y14256
X4729Y11319
X4729Y11791
X4729Y12263
X4729Y12736
X5689Y1787
X5417Y2423
X5631Y2808
X4990Y3237
X4950Y3573
X5147Y4163
X5423Y4419
X5541Y4950
X5147Y5246
X4950Y4754
X4950Y5935
X4950Y7510
X5423Y7490
X6534Y7782
X7581Y7757
X7903Y7469
X8956Y7394
X10068Y7510
X10856Y7510
X10383Y6506
X9738Y6500
X9798Y5254
X10265Y5344
X10433Y4864
X10856Y5147
X10434Y3979
X11130Y3807
X11171Y3415
X11171Y3021
X10489Y3115
X10179Y2626
X10566Y2309
X10169Y1879
X9780Y2258
X9705Y2982
X9753Y3415
X8437Y2430
X8437Y1801
X7518Y1787
X6663Y1787
X6886Y2429
X7470Y3454
X7863Y4901
X7116Y4950
X7549Y5460
X8138Y6458
X9084Y8415
X10016Y8482
X10068Y8887
X10856Y8691
X10462Y8100
X7988Y9240
X8030Y9646
X7201Y9230
X6936Y8827
X5499Y8904
X5908Y8269
X5068Y8036
T02
X9390Y19291
X9390Y18504
X9390Y17716
X9390Y16929
X7874Y23602
X7874Y21673
X8858Y23602
X8858Y21673
X9329Y748
X10236Y23602
X10236Y21673
X10829Y748
X11181Y23602
X11181Y21673
X21851Y7768
X21851Y9346
X21851Y10768
T03
X4754Y9360
X4754Y8632
X4754Y6683
X4754Y1939
X10856Y9183
X10856Y6663
X10856Y5915
X10856Y4222
X10856Y1762
X13524Y1988
X14495Y11067
X13695Y11067
X14095Y13067
X4891Y2076
X4891Y6821
X10994Y6801
X10994Y6053
X10994Y4360
X10994Y1899
X10994Y9321
X4891Y9498
X4891Y8769
T04
X11870Y28661
X11870Y27677
X11870Y26693
X11870Y25708
X13327Y28661
X13327Y27677
X13327Y26693
X13327Y25708
X14705Y28661
X14705Y27677
X14705Y26693
X14705Y25708
X15689Y28661
X15689Y27677
X15689Y26693
X15689Y25708
X16673Y28661
X16673Y27677
X16673Y26693
X16673Y25708
X17657Y28661
X17657Y27677
X17657Y26693
X17657Y25708
X18642Y28661
X18642Y27677
X18642Y26693
X18642Y25708
X19626Y28661
X19626Y27677
X19626Y26693
X19626Y25708
T05
X13661Y20551
X13661Y17598
T06
X9331Y25315
X22165Y25315
T07
X7716Y26831
X23779Y26831
M30
