G75*
G70*
%OFA0B0*%
%FSLAX25Y25*%
%IPPOS*%
%LPD*%
%AMOC8*
5,1,8,0,0,1.08239X$1,22.5*
%
%AMM100*
21,1,0.035430,0.030320,-0.000000,0.000000,0.000000*
21,1,0.028350,0.037400,-0.000000,0.000000,0.000000*
1,1,0.007090,0.014170,-0.015160*
1,1,0.007090,-0.014170,-0.015160*
1,1,0.007090,-0.014170,0.015160*
1,1,0.007090,0.014170,0.015160*
%
%AMM103*
21,1,0.027560,0.030710,-0.000000,0.000000,90.000000*
21,1,0.022050,0.036220,-0.000000,0.000000,90.000000*
1,1,0.005510,0.015350,0.011020*
1,1,0.005510,0.015350,-0.011020*
1,1,0.005510,-0.015350,-0.011020*
1,1,0.005510,-0.015350,0.011020*
%
%AMM124*
21,1,0.033470,0.026770,-0.000000,0.000000,180.000000*
21,1,0.026770,0.033470,-0.000000,0.000000,180.000000*
1,1,0.006690,-0.013390,0.013390*
1,1,0.006690,0.013390,0.013390*
1,1,0.006690,0.013390,-0.013390*
1,1,0.006690,-0.013390,-0.013390*
%
%AMM125*
21,1,0.025590,0.026380,-0.000000,0.000000,90.000000*
21,1,0.020470,0.031500,-0.000000,0.000000,90.000000*
1,1,0.005120,0.013190,0.010240*
1,1,0.005120,0.013190,-0.010240*
1,1,0.005120,-0.013190,-0.010240*
1,1,0.005120,-0.013190,0.010240*
%
%AMM126*
21,1,0.017720,0.027950,-0.000000,0.000000,90.000000*
21,1,0.014170,0.031500,-0.000000,0.000000,90.000000*
1,1,0.003540,0.013980,0.007090*
1,1,0.003540,0.013980,-0.007090*
1,1,0.003540,-0.013980,-0.007090*
1,1,0.003540,-0.013980,0.007090*
%
%AMM127*
21,1,0.033470,0.026770,-0.000000,0.000000,90.000000*
21,1,0.026770,0.033470,-0.000000,0.000000,90.000000*
1,1,0.006690,0.013390,0.013390*
1,1,0.006690,0.013390,-0.013390*
1,1,0.006690,-0.013390,-0.013390*
1,1,0.006690,-0.013390,0.013390*
%
%AMM128*
21,1,0.078740,0.045670,-0.000000,0.000000,270.000000*
21,1,0.067320,0.057090,-0.000000,0.000000,270.000000*
1,1,0.011420,-0.022840,-0.033660*
1,1,0.011420,-0.022840,0.033660*
1,1,0.011420,0.022840,0.033660*
1,1,0.011420,0.022840,-0.033660*
%
%AMM129*
21,1,0.059060,0.020470,-0.000000,0.000000,270.000000*
21,1,0.053940,0.025590,-0.000000,0.000000,270.000000*
1,1,0.005120,-0.010240,-0.026970*
1,1,0.005120,-0.010240,0.026970*
1,1,0.005120,0.010240,0.026970*
1,1,0.005120,0.010240,-0.026970*
%
%AMM130*
21,1,0.035430,0.030320,-0.000000,0.000000,270.000000*
21,1,0.028350,0.037400,-0.000000,0.000000,270.000000*
1,1,0.007090,-0.015160,-0.014170*
1,1,0.007090,-0.015160,0.014170*
1,1,0.007090,0.015160,0.014170*
1,1,0.007090,0.015160,-0.014170*
%
%AMM131*
21,1,0.012600,0.028980,-0.000000,0.000000,270.000000*
21,1,0.010080,0.031500,-0.000000,0.000000,270.000000*
1,1,0.002520,-0.014490,-0.005040*
1,1,0.002520,-0.014490,0.005040*
1,1,0.002520,0.014490,0.005040*
1,1,0.002520,0.014490,-0.005040*
%
%AMM132*
21,1,0.070870,0.036220,-0.000000,0.000000,90.000000*
21,1,0.061810,0.045280,-0.000000,0.000000,90.000000*
1,1,0.009060,0.018110,0.030910*
1,1,0.009060,0.018110,-0.030910*
1,1,0.009060,-0.018110,-0.030910*
1,1,0.009060,-0.018110,0.030910*
%
%AMM133*
21,1,0.035830,0.026770,-0.000000,0.000000,90.000000*
21,1,0.029130,0.033470,-0.000000,0.000000,90.000000*
1,1,0.006690,0.013390,0.014570*
1,1,0.006690,0.013390,-0.014570*
1,1,0.006690,-0.013390,-0.014570*
1,1,0.006690,-0.013390,0.014570*
%
%AMM134*
21,1,0.027560,0.049610,-0.000000,0.000000,90.000000*
21,1,0.022050,0.055120,-0.000000,0.000000,90.000000*
1,1,0.005510,0.024800,0.011020*
1,1,0.005510,0.024800,-0.011020*
1,1,0.005510,-0.024800,-0.011020*
1,1,0.005510,-0.024800,0.011020*
%
%AMM135*
21,1,0.070870,0.036220,-0.000000,0.000000,180.000000*
21,1,0.061810,0.045280,-0.000000,0.000000,180.000000*
1,1,0.009060,-0.030910,0.018110*
1,1,0.009060,0.030910,0.018110*
1,1,0.009060,0.030910,-0.018110*
1,1,0.009060,-0.030910,-0.018110*
%
%AMM136*
21,1,0.027560,0.030710,-0.000000,0.000000,180.000000*
21,1,0.022050,0.036220,-0.000000,0.000000,180.000000*
1,1,0.005510,-0.011020,0.015350*
1,1,0.005510,0.011020,0.015350*
1,1,0.005510,0.011020,-0.015350*
1,1,0.005510,-0.011020,-0.015350*
%
%AMM42*
21,1,0.035830,0.026770,0.000000,0.000000,0.000000*
21,1,0.029130,0.033470,0.000000,0.000000,0.000000*
1,1,0.006690,0.014570,-0.013390*
1,1,0.006690,-0.014570,-0.013390*
1,1,0.006690,-0.014570,0.013390*
1,1,0.006690,0.014570,0.013390*
%
%AMM44*
21,1,0.070870,0.036220,0.000000,0.000000,90.000000*
21,1,0.061810,0.045280,0.000000,0.000000,90.000000*
1,1,0.009060,0.018110,0.030910*
1,1,0.009060,0.018110,-0.030910*
1,1,0.009060,-0.018110,-0.030910*
1,1,0.009060,-0.018110,0.030910*
%
%AMM66*
21,1,0.023620,0.018900,0.000000,0.000000,90.000000*
21,1,0.018900,0.023620,0.000000,0.000000,90.000000*
1,1,0.004720,0.009450,0.009450*
1,1,0.004720,0.009450,-0.009450*
1,1,0.004720,-0.009450,-0.009450*
1,1,0.004720,-0.009450,0.009450*
%
%AMM67*
21,1,0.019680,0.019680,0.000000,0.000000,0.000000*
21,1,0.015750,0.023620,0.000000,0.000000,0.000000*
1,1,0.003940,0.007870,-0.009840*
1,1,0.003940,-0.007870,-0.009840*
1,1,0.003940,-0.007870,0.009840*
1,1,0.003940,0.007870,0.009840*
%
%AMM68*
21,1,0.019680,0.019680,0.000000,0.000000,270.000000*
21,1,0.015750,0.023620,0.000000,0.000000,270.000000*
1,1,0.003940,-0.009840,-0.007870*
1,1,0.003940,-0.009840,0.007870*
1,1,0.003940,0.009840,0.007870*
1,1,0.003940,0.009840,-0.007870*
%
%AMM82*
21,1,0.106300,0.050390,0.000000,0.000000,90.000000*
21,1,0.093700,0.062990,0.000000,0.000000,90.000000*
1,1,0.012600,0.025200,0.046850*
1,1,0.012600,0.025200,-0.046850*
1,1,0.012600,-0.025200,-0.046850*
1,1,0.012600,-0.025200,0.046850*
%
%AMM83*
21,1,0.033470,0.026770,0.000000,0.000000,270.000000*
21,1,0.026770,0.033470,0.000000,0.000000,270.000000*
1,1,0.006690,-0.013390,-0.013390*
1,1,0.006690,-0.013390,0.013390*
1,1,0.006690,0.013390,0.013390*
1,1,0.006690,0.013390,-0.013390*
%
%AMM84*
21,1,0.023620,0.018900,0.000000,0.000000,180.000000*
21,1,0.018900,0.023620,0.000000,0.000000,180.000000*
1,1,0.004720,-0.009450,0.009450*
1,1,0.004720,0.009450,0.009450*
1,1,0.004720,0.009450,-0.009450*
1,1,0.004720,-0.009450,-0.009450*
%
%AMM85*
21,1,0.122050,0.075590,0.000000,0.000000,180.000000*
21,1,0.103150,0.094490,0.000000,0.000000,180.000000*
1,1,0.018900,-0.051580,0.037800*
1,1,0.018900,0.051580,0.037800*
1,1,0.018900,0.051580,-0.037800*
1,1,0.018900,-0.051580,-0.037800*
%
%AMM86*
21,1,0.118110,0.083460,0.000000,0.000000,0.000000*
21,1,0.097240,0.104330,0.000000,0.000000,0.000000*
1,1,0.020870,0.048620,-0.041730*
1,1,0.020870,-0.048620,-0.041730*
1,1,0.020870,-0.048620,0.041730*
1,1,0.020870,0.048620,0.041730*
%
%AMM92*
21,1,0.025590,0.026380,-0.000000,0.000000,0.000000*
21,1,0.020470,0.031500,-0.000000,0.000000,0.000000*
1,1,0.005120,0.010240,-0.013190*
1,1,0.005120,-0.010240,-0.013190*
1,1,0.005120,-0.010240,0.013190*
1,1,0.005120,0.010240,0.013190*
%
%AMM93*
21,1,0.017720,0.027950,-0.000000,0.000000,0.000000*
21,1,0.014170,0.031500,-0.000000,0.000000,0.000000*
1,1,0.003540,0.007090,-0.013980*
1,1,0.003540,-0.007090,-0.013980*
1,1,0.003540,-0.007090,0.013980*
1,1,0.003540,0.007090,0.013980*
%
%AMM96*
21,1,0.027560,0.018900,-0.000000,0.000000,180.000000*
21,1,0.022840,0.023620,-0.000000,0.000000,180.000000*
1,1,0.004720,-0.011420,0.009450*
1,1,0.004720,0.011420,0.009450*
1,1,0.004720,0.011420,-0.009450*
1,1,0.004720,-0.011420,-0.009450*
%
%AMM98*
21,1,0.027560,0.018900,-0.000000,0.000000,270.000000*
21,1,0.022840,0.023620,-0.000000,0.000000,270.000000*
1,1,0.004720,-0.009450,-0.011420*
1,1,0.004720,-0.009450,0.011420*
1,1,0.004720,0.009450,0.011420*
1,1,0.004720,0.009450,-0.011420*
%
%ADD142R,0.01378X0.01476*%
%ADD147M42*%
%ADD149R,0.01476X0.01378*%
%ADD152M44*%
%ADD18R,0.14567X0.00787*%
%ADD182M66*%
%ADD183M67*%
%ADD184M68*%
%ADD19R,0.01575X0.00787*%
%ADD20R,0.06299X0.00787*%
%ADD201M82*%
%ADD202M83*%
%ADD203M84*%
%ADD204O,0.01968X0.08661*%
%ADD205M85*%
%ADD206M86*%
%ADD21R,0.38189X0.00787*%
%ADD213M92*%
%ADD214M93*%
%ADD218M96*%
%ADD22R,0.09055X0.00787*%
%ADD220M98*%
%ADD222M100*%
%ADD226M103*%
%ADD23R,0.00787X0.05512*%
%ADD24R,0.00787X0.25197*%
%ADD249M124*%
%ADD25R,0.00787X0.06693*%
%ADD250M125*%
%ADD251M126*%
%ADD252M127*%
%ADD253M128*%
%ADD254M129*%
%ADD255M130*%
%ADD256M131*%
%ADD257O,0.00984X0.04961*%
%ADD258M132*%
%ADD259M133*%
%ADD26R,0.00787X0.12992*%
%ADD260R,0.06693X0.09449*%
%ADD261M134*%
%ADD262R,0.04331X0.03937*%
%ADD263M135*%
%ADD264M136*%
%ADD27R,0.27559X0.00787*%
%ADD28R,0.12992X0.00787*%
%ADD29R,0.24803X0.00787*%
%ADD62R,0.03937X0.05118*%
%ADD63R,0.09055X0.17323*%
%ADD64R,0.09055X0.15748*%
X0000000Y0000000D02*
%LPD*%
G01*
G36*
G01*
X0057579Y0203996D02*
X0053445Y0203996D01*
G75*
G02*
X0053051Y0204390I0000000J0000394D01*
G01*
X0053051Y0207539D01*
G75*
G02*
X0053445Y0207933I0000394J0000000D01*
G01*
X0057579Y0207933D01*
G75*
G02*
X0057973Y0207539I0000000J-000394D01*
G01*
X0057973Y0204390D01*
G75*
G02*
X0057579Y0203996I-000394J0000000D01*
G01*
G37*
G36*
G01*
X0057579Y0211870D02*
X0053445Y0211870D01*
G75*
G02*
X0053051Y0212264I0000000J0000394D01*
G01*
X0053051Y0215413D01*
G75*
G02*
X0053445Y0215807I0000394J0000000D01*
G01*
X0057579Y0215807D01*
G75*
G02*
X0057973Y0215413I0000000J-000394D01*
G01*
X0057973Y0212264D01*
G75*
G02*
X0057579Y0211870I-000394J0000000D01*
G01*
G37*
G36*
G01*
X0042028Y0203937D02*
X0037894Y0203937D01*
G75*
G02*
X0037500Y0204331I0000000J0000394D01*
G01*
X0037500Y0207480D01*
G75*
G02*
X0037894Y0207874I0000394J0000000D01*
G01*
X0042028Y0207874D01*
G75*
G02*
X0042421Y0207480I0000000J-000394D01*
G01*
X0042421Y0204331D01*
G75*
G02*
X0042028Y0203937I-000394J0000000D01*
G01*
G37*
G36*
G01*
X0042028Y0211811D02*
X0037894Y0211811D01*
G75*
G02*
X0037500Y0212205I0000000J0000394D01*
G01*
X0037500Y0215354D01*
G75*
G02*
X0037894Y0215748I0000394J0000000D01*
G01*
X0042028Y0215748D01*
G75*
G02*
X0042421Y0215354I0000000J-000394D01*
G01*
X0042421Y0212205D01*
G75*
G02*
X0042028Y0211811I-000394J0000000D01*
G01*
G37*
G36*
G01*
X0037894Y0229252D02*
X0042028Y0229252D01*
G75*
G02*
X0042421Y0228858I0000000J-000394D01*
G01*
X0042421Y0225709D01*
G75*
G02*
X0042028Y0225315I-000394J0000000D01*
G01*
X0037894Y0225315D01*
G75*
G02*
X0037500Y0225709I0000000J0000394D01*
G01*
X0037500Y0228858D01*
G75*
G02*
X0037894Y0229252I0000394J0000000D01*
G01*
G37*
G36*
G01*
X0037894Y0221378D02*
X0042028Y0221378D01*
G75*
G02*
X0042421Y0220984I0000000J-000394D01*
G01*
X0042421Y0217835D01*
G75*
G02*
X0042028Y0217441I-000394J0000000D01*
G01*
X0037894Y0217441D01*
G75*
G02*
X0037500Y0217835I0000000J0000394D01*
G01*
X0037500Y0220984D01*
G75*
G02*
X0037894Y0221378I0000394J0000000D01*
G01*
G37*
G36*
G01*
X0038878Y0193307D02*
X0043012Y0193307D01*
G75*
G02*
X0043405Y0192913I0000000J-000394D01*
G01*
X0043405Y0189764D01*
G75*
G02*
X0043012Y0189370I-000394J0000000D01*
G01*
X0038878Y0189370D01*
G75*
G02*
X0038484Y0189764I0000000J0000394D01*
G01*
X0038484Y0192913D01*
G75*
G02*
X0038878Y0193307I0000394J0000000D01*
G01*
G37*
G36*
G01*
X0038878Y0185433D02*
X0043012Y0185433D01*
G75*
G02*
X0043405Y0185039I0000000J-000394D01*
G01*
X0043405Y0181890D01*
G75*
G02*
X0043012Y0181496I-000394J0000000D01*
G01*
X0038878Y0181496D01*
G75*
G02*
X0038484Y0181890I0000000J0000394D01*
G01*
X0038484Y0185039D01*
G75*
G02*
X0038878Y0185433I0000394J0000000D01*
G01*
G37*
D62*
X0282776Y0161860D03*
X0276870Y0161860D03*
X0270965Y0161860D03*
X0265059Y0161860D03*
X0259153Y0161860D03*
X0253248Y0161860D03*
X0247342Y0161860D03*
X0241437Y0161860D03*
X0235531Y0161860D03*
X0229626Y0161860D03*
X0223720Y0161860D03*
X0217815Y0161860D03*
X0211909Y0161860D03*
X0211909Y0211860D03*
X0217815Y0211860D03*
X0223720Y0211860D03*
X0229626Y0211860D03*
X0235531Y0211860D03*
X0241437Y0211860D03*
X0247342Y0211860D03*
X0253248Y0211860D03*
X0259153Y0211860D03*
X0265059Y0211860D03*
X0270965Y0211860D03*
X0276870Y0211860D03*
X0282776Y0211860D03*
G36*
G01*
X0210177Y0154173D02*
X0210177Y0156850D01*
G75*
G02*
X0210512Y0157185I0000335J0000000D01*
G01*
X0213189Y0157185D01*
G75*
G02*
X0213524Y0156850I0000000J-000335D01*
G01*
X0213524Y0154173D01*
G75*
G02*
X0213189Y0153839I-000335J0000000D01*
G01*
X0210512Y0153839D01*
G75*
G02*
X0210177Y0154173I0000000J0000335D01*
G01*
G37*
G36*
G01*
X0216398Y0154173D02*
X0216398Y0156850D01*
G75*
G02*
X0216732Y0157185I0000335J0000000D01*
G01*
X0219409Y0157185D01*
G75*
G02*
X0219744Y0156850I0000000J-000335D01*
G01*
X0219744Y0154173D01*
G75*
G02*
X0219409Y0153839I-000335J0000000D01*
G01*
X0216732Y0153839D01*
G75*
G02*
X0216398Y0154173I0000000J0000335D01*
G01*
G37*
G36*
G01*
X0043012Y0167992D02*
X0038878Y0167992D01*
G75*
G02*
X0038484Y0168386I0000000J0000394D01*
G01*
X0038484Y0171535D01*
G75*
G02*
X0038878Y0171929I0000394J0000000D01*
G01*
X0043012Y0171929D01*
G75*
G02*
X0043405Y0171535I0000000J-000394D01*
G01*
X0043405Y0168386D01*
G75*
G02*
X0043012Y0167992I-000394J0000000D01*
G01*
G37*
G36*
G01*
X0043012Y0175866D02*
X0038878Y0175866D01*
G75*
G02*
X0038484Y0176260I0000000J0000394D01*
G01*
X0038484Y0179409D01*
G75*
G02*
X0038878Y0179803I0000394J0000000D01*
G01*
X0043012Y0179803D01*
G75*
G02*
X0043405Y0179409I0000000J-000394D01*
G01*
X0043405Y0176260D01*
G75*
G02*
X0043012Y0175866I-000394J0000000D01*
G01*
G37*
G36*
G01*
X0035335Y0167992D02*
X0031201Y0167992D01*
G75*
G02*
X0030807Y0168386I0000000J0000394D01*
G01*
X0030807Y0171535D01*
G75*
G02*
X0031201Y0171929I0000394J0000000D01*
G01*
X0035335Y0171929D01*
G75*
G02*
X0035728Y0171535I0000000J-000394D01*
G01*
X0035728Y0168386D01*
G75*
G02*
X0035335Y0167992I-000394J0000000D01*
G01*
G37*
G36*
G01*
X0035335Y0175866D02*
X0031201Y0175866D01*
G75*
G02*
X0030807Y0176260I0000000J0000394D01*
G01*
X0030807Y0179409D01*
G75*
G02*
X0031201Y0179803I0000394J0000000D01*
G01*
X0035335Y0179803D01*
G75*
G02*
X0035728Y0179409I0000000J-000394D01*
G01*
X0035728Y0176260D01*
G75*
G02*
X0035335Y0175866I-000394J0000000D01*
G01*
G37*
G36*
G01*
X0026673Y0203937D02*
X0022540Y0203937D01*
G75*
G02*
X0022146Y0204331I0000000J0000394D01*
G01*
X0022146Y0207480D01*
G75*
G02*
X0022540Y0207874I0000394J0000000D01*
G01*
X0026673Y0207874D01*
G75*
G02*
X0027067Y0207480I0000000J-000394D01*
G01*
X0027067Y0204331D01*
G75*
G02*
X0026673Y0203937I-000394J0000000D01*
G01*
G37*
G36*
G01*
X0026673Y0211811D02*
X0022540Y0211811D01*
G75*
G02*
X0022146Y0212205I0000000J0000394D01*
G01*
X0022146Y0215354D01*
G75*
G02*
X0022540Y0215748I0000394J0000000D01*
G01*
X0026673Y0215748D01*
G75*
G02*
X0027067Y0215354I0000000J-000394D01*
G01*
X0027067Y0212205D01*
G75*
G02*
X0026673Y0211811I-000394J0000000D01*
G01*
G37*
G36*
G01*
X0049705Y0203937D02*
X0045571Y0203937D01*
G75*
G02*
X0045177Y0204331I0000000J0000394D01*
G01*
X0045177Y0207480D01*
G75*
G02*
X0045571Y0207874I0000394J0000000D01*
G01*
X0049705Y0207874D01*
G75*
G02*
X0050098Y0207480I0000000J-000394D01*
G01*
X0050098Y0204331D01*
G75*
G02*
X0049705Y0203937I-000394J0000000D01*
G01*
G37*
G36*
G01*
X0049705Y0211811D02*
X0045571Y0211811D01*
G75*
G02*
X0045177Y0212205I0000000J0000394D01*
G01*
X0045177Y0215354D01*
G75*
G02*
X0045571Y0215748I0000394J0000000D01*
G01*
X0049705Y0215748D01*
G75*
G02*
X0050098Y0215354I0000000J-000394D01*
G01*
X0050098Y0212205D01*
G75*
G02*
X0049705Y0211811I-000394J0000000D01*
G01*
G37*
G36*
G01*
X0034350Y0203937D02*
X0030217Y0203937D01*
G75*
G02*
X0029823Y0204331I0000000J0000394D01*
G01*
X0029823Y0207480D01*
G75*
G02*
X0030217Y0207874I0000394J0000000D01*
G01*
X0034350Y0207874D01*
G75*
G02*
X0034744Y0207480I0000000J-000394D01*
G01*
X0034744Y0204331D01*
G75*
G02*
X0034350Y0203937I-000394J0000000D01*
G01*
G37*
G36*
G01*
X0034350Y0211811D02*
X0030217Y0211811D01*
G75*
G02*
X0029823Y0212205I0000000J0000394D01*
G01*
X0029823Y0215354D01*
G75*
G02*
X0030217Y0215748I0000394J0000000D01*
G01*
X0034350Y0215748D01*
G75*
G02*
X0034744Y0215354I0000000J-000394D01*
G01*
X0034744Y0212205D01*
G75*
G02*
X0034350Y0211811I-000394J0000000D01*
G01*
G37*
G36*
G01*
X0060925Y0229252D02*
X0065059Y0229252D01*
G75*
G02*
X0065453Y0228858I0000000J-000394D01*
G01*
X0065453Y0225709D01*
G75*
G02*
X0065059Y0225315I-000394J0000000D01*
G01*
X0060925Y0225315D01*
G75*
G02*
X0060532Y0225709I0000000J0000394D01*
G01*
X0060532Y0228858D01*
G75*
G02*
X0060925Y0229252I0000394J0000000D01*
G01*
G37*
G36*
G01*
X0060925Y0221378D02*
X0065059Y0221378D01*
G75*
G02*
X0065453Y0220984I0000000J-000394D01*
G01*
X0065453Y0217835D01*
G75*
G02*
X0065059Y0217441I-000394J0000000D01*
G01*
X0060925Y0217441D01*
G75*
G02*
X0060532Y0217835I0000000J0000394D01*
G01*
X0060532Y0220984D01*
G75*
G02*
X0060925Y0221378I0000394J0000000D01*
G01*
G37*
G36*
G01*
X0023524Y0193307D02*
X0027658Y0193307D01*
G75*
G02*
X0028051Y0192913I0000000J-000394D01*
G01*
X0028051Y0189764D01*
G75*
G02*
X0027658Y0189370I-000394J0000000D01*
G01*
X0023524Y0189370D01*
G75*
G02*
X0023130Y0189764I0000000J0000394D01*
G01*
X0023130Y0192913D01*
G75*
G02*
X0023524Y0193307I0000394J0000000D01*
G01*
G37*
G36*
G01*
X0023524Y0185433D02*
X0027658Y0185433D01*
G75*
G02*
X0028051Y0185039I0000000J-000394D01*
G01*
X0028051Y0181890D01*
G75*
G02*
X0027658Y0181496I-000394J0000000D01*
G01*
X0023524Y0181496D01*
G75*
G02*
X0023130Y0181890I0000000J0000394D01*
G01*
X0023130Y0185039D01*
G75*
G02*
X0023524Y0185433I0000394J0000000D01*
G01*
G37*
G36*
G01*
X0027658Y0167992D02*
X0023524Y0167992D01*
G75*
G02*
X0023130Y0168386I0000000J0000394D01*
G01*
X0023130Y0171535D01*
G75*
G02*
X0023524Y0171929I0000394J0000000D01*
G01*
X0027658Y0171929D01*
G75*
G02*
X0028051Y0171535I0000000J-000394D01*
G01*
X0028051Y0168386D01*
G75*
G02*
X0027658Y0167992I-000394J0000000D01*
G01*
G37*
G36*
G01*
X0027658Y0175866D02*
X0023524Y0175866D01*
G75*
G02*
X0023130Y0176260I0000000J0000394D01*
G01*
X0023130Y0179409D01*
G75*
G02*
X0023524Y0179803I0000394J0000000D01*
G01*
X0027658Y0179803D01*
G75*
G02*
X0028051Y0179409I0000000J-000394D01*
G01*
X0028051Y0176260D01*
G75*
G02*
X0027658Y0175866I-000394J0000000D01*
G01*
G37*
G36*
G01*
X0054232Y0193307D02*
X0058366Y0193307D01*
G75*
G02*
X0058760Y0192913I0000000J-000394D01*
G01*
X0058760Y0189764D01*
G75*
G02*
X0058366Y0189370I-000394J0000000D01*
G01*
X0054232Y0189370D01*
G75*
G02*
X0053838Y0189764I0000000J0000394D01*
G01*
X0053838Y0192913D01*
G75*
G02*
X0054232Y0193307I0000394J0000000D01*
G01*
G37*
G36*
G01*
X0054232Y0185433D02*
X0058366Y0185433D01*
G75*
G02*
X0058760Y0185039I0000000J-000394D01*
G01*
X0058760Y0181890D01*
G75*
G02*
X0058366Y0181496I-000394J0000000D01*
G01*
X0054232Y0181496D01*
G75*
G02*
X0053838Y0181890I0000000J0000394D01*
G01*
X0053838Y0185039D01*
G75*
G02*
X0054232Y0185433I0000394J0000000D01*
G01*
G37*
D63*
X0136614Y0159842D03*
D64*
X0136614Y0222834D03*
G36*
G01*
X0058366Y0167716D02*
X0054232Y0167716D01*
G75*
G02*
X0053839Y0168110I0000000J0000394D01*
G01*
X0053839Y0171260D01*
G75*
G02*
X0054232Y0171653I0000394J0000000D01*
G01*
X0058366Y0171653D01*
G75*
G02*
X0058760Y0171260I0000000J-000394D01*
G01*
X0058760Y0168110D01*
G75*
G02*
X0058366Y0167716I-000394J0000000D01*
G01*
G37*
G36*
G01*
X0058366Y0175591D02*
X0054232Y0175591D01*
G75*
G02*
X0053839Y0175984I0000000J0000394D01*
G01*
X0053839Y0179134D01*
G75*
G02*
X0054232Y0179528I0000394J0000000D01*
G01*
X0058366Y0179528D01*
G75*
G02*
X0058760Y0179134I0000000J-000394D01*
G01*
X0058760Y0175984D01*
G75*
G02*
X0058366Y0175591I-000394J0000000D01*
G01*
G37*
G36*
G01*
X0061319Y0193307D02*
X0065453Y0193307D01*
G75*
G02*
X0065846Y0192913I0000000J-000394D01*
G01*
X0065846Y0189764D01*
G75*
G02*
X0065453Y0189370I-000394J0000000D01*
G01*
X0061319Y0189370D01*
G75*
G02*
X0060925Y0189764I0000000J0000394D01*
G01*
X0060925Y0192913D01*
G75*
G02*
X0061319Y0193307I0000394J0000000D01*
G01*
G37*
G36*
G01*
X0061319Y0185433D02*
X0065453Y0185433D01*
G75*
G02*
X0065846Y0185039I0000000J-000394D01*
G01*
X0065846Y0181890D01*
G75*
G02*
X0065453Y0181496I-000394J0000000D01*
G01*
X0061319Y0181496D01*
G75*
G02*
X0060925Y0181890I0000000J0000394D01*
G01*
X0060925Y0185039D01*
G75*
G02*
X0061319Y0185433I0000394J0000000D01*
G01*
G37*
G36*
G01*
X0046555Y0193307D02*
X0050689Y0193307D01*
G75*
G02*
X0051083Y0192913I0000000J-000394D01*
G01*
X0051083Y0189764D01*
G75*
G02*
X0050689Y0189370I-000394J0000000D01*
G01*
X0046555Y0189370D01*
G75*
G02*
X0046161Y0189764I0000000J0000394D01*
G01*
X0046161Y0192913D01*
G75*
G02*
X0046555Y0193307I0000394J0000000D01*
G01*
G37*
G36*
G01*
X0046555Y0185433D02*
X0050689Y0185433D01*
G75*
G02*
X0051083Y0185039I0000000J-000394D01*
G01*
X0051083Y0181890D01*
G75*
G02*
X0050689Y0181496I-000394J0000000D01*
G01*
X0046555Y0181496D01*
G75*
G02*
X0046161Y0181890I0000000J0000394D01*
G01*
X0046161Y0185039D01*
G75*
G02*
X0046555Y0185433I0000394J0000000D01*
G01*
G37*
G36*
G01*
X0050492Y0167716D02*
X0046358Y0167716D01*
G75*
G02*
X0045965Y0168110I0000000J0000394D01*
G01*
X0045965Y0171260D01*
G75*
G02*
X0046358Y0171653I0000394J0000000D01*
G01*
X0050492Y0171653D01*
G75*
G02*
X0050886Y0171260I0000000J-000394D01*
G01*
X0050886Y0168110D01*
G75*
G02*
X0050492Y0167716I-000394J0000000D01*
G01*
G37*
G36*
G01*
X0050492Y0175591D02*
X0046358Y0175591D01*
G75*
G02*
X0045965Y0175984I0000000J0000394D01*
G01*
X0045965Y0179134D01*
G75*
G02*
X0046358Y0179528I0000394J0000000D01*
G01*
X0050492Y0179528D01*
G75*
G02*
X0050886Y0179134I0000000J-000394D01*
G01*
X0050886Y0175984D01*
G75*
G02*
X0050492Y0175591I-000394J0000000D01*
G01*
G37*
G36*
G01*
X0022540Y0229252D02*
X0026673Y0229252D01*
G75*
G02*
X0027067Y0228858I0000000J-000394D01*
G01*
X0027067Y0225709D01*
G75*
G02*
X0026673Y0225315I-000394J0000000D01*
G01*
X0022540Y0225315D01*
G75*
G02*
X0022146Y0225709I0000000J0000394D01*
G01*
X0022146Y0228858D01*
G75*
G02*
X0022540Y0229252I0000394J0000000D01*
G01*
G37*
G36*
G01*
X0022540Y0221378D02*
X0026673Y0221378D01*
G75*
G02*
X0027067Y0220984I0000000J-000394D01*
G01*
X0027067Y0217835D01*
G75*
G02*
X0026673Y0217441I-000394J0000000D01*
G01*
X0022540Y0217441D01*
G75*
G02*
X0022146Y0217835I0000000J0000394D01*
G01*
X0022146Y0220984D01*
G75*
G02*
X0022540Y0221378I0000394J0000000D01*
G01*
G37*
G36*
G01*
X0045571Y0229252D02*
X0049705Y0229252D01*
G75*
G02*
X0050098Y0228858I0000000J-000394D01*
G01*
X0050098Y0225709D01*
G75*
G02*
X0049705Y0225315I-000394J0000000D01*
G01*
X0045571Y0225315D01*
G75*
G02*
X0045177Y0225709I0000000J0000394D01*
G01*
X0045177Y0228858D01*
G75*
G02*
X0045571Y0229252I0000394J0000000D01*
G01*
G37*
G36*
G01*
X0045571Y0221378D02*
X0049705Y0221378D01*
G75*
G02*
X0050098Y0220984I0000000J-000394D01*
G01*
X0050098Y0217835D01*
G75*
G02*
X0049705Y0217441I-000394J0000000D01*
G01*
X0045571Y0217441D01*
G75*
G02*
X0045177Y0217835I0000000J0000394D01*
G01*
X0045177Y0220984D01*
G75*
G02*
X0045571Y0221378I0000394J0000000D01*
G01*
G37*
G36*
G01*
X0030217Y0229252D02*
X0034350Y0229252D01*
G75*
G02*
X0034744Y0228858I0000000J-000394D01*
G01*
X0034744Y0225709D01*
G75*
G02*
X0034350Y0225315I-000394J0000000D01*
G01*
X0030217Y0225315D01*
G75*
G02*
X0029823Y0225709I0000000J0000394D01*
G01*
X0029823Y0228858D01*
G75*
G02*
X0030217Y0229252I0000394J0000000D01*
G01*
G37*
G36*
G01*
X0030217Y0221378D02*
X0034350Y0221378D01*
G75*
G02*
X0034744Y0220984I0000000J-000394D01*
G01*
X0034744Y0217835D01*
G75*
G02*
X0034350Y0217441I-000394J0000000D01*
G01*
X0030217Y0217441D01*
G75*
G02*
X0029823Y0217835I0000000J0000394D01*
G01*
X0029823Y0220984D01*
G75*
G02*
X0030217Y0221378I0000394J0000000D01*
G01*
G37*
G36*
G01*
X0053445Y0229193D02*
X0057579Y0229193D01*
G75*
G02*
X0057973Y0228799I0000000J-000394D01*
G01*
X0057973Y0225650D01*
G75*
G02*
X0057579Y0225256I-000394J0000000D01*
G01*
X0053445Y0225256D01*
G75*
G02*
X0053051Y0225650I0000000J0000394D01*
G01*
X0053051Y0228799D01*
G75*
G02*
X0053445Y0229193I0000394J0000000D01*
G01*
G37*
G36*
G01*
X0053445Y0221319D02*
X0057579Y0221319D01*
G75*
G02*
X0057973Y0220925I0000000J-000394D01*
G01*
X0057973Y0217776D01*
G75*
G02*
X0057579Y0217382I-000394J0000000D01*
G01*
X0053445Y0217382D01*
G75*
G02*
X0053051Y0217776I0000000J0000394D01*
G01*
X0053051Y0220925D01*
G75*
G02*
X0053445Y0221319I0000394J0000000D01*
G01*
G37*
G36*
G01*
X0031201Y0193307D02*
X0035335Y0193307D01*
G75*
G02*
X0035728Y0192913I0000000J-000394D01*
G01*
X0035728Y0189764D01*
G75*
G02*
X0035335Y0189370I-000394J0000000D01*
G01*
X0031201Y0189370D01*
G75*
G02*
X0030807Y0189764I0000000J0000394D01*
G01*
X0030807Y0192913D01*
G75*
G02*
X0031201Y0193307I0000394J0000000D01*
G01*
G37*
G36*
G01*
X0031201Y0185433D02*
X0035335Y0185433D01*
G75*
G02*
X0035728Y0185039I0000000J-000394D01*
G01*
X0035728Y0181890D01*
G75*
G02*
X0035335Y0181496I-000394J0000000D01*
G01*
X0031201Y0181496D01*
G75*
G02*
X0030807Y0181890I0000000J0000394D01*
G01*
X0030807Y0185039D01*
G75*
G02*
X0031201Y0185433I0000394J0000000D01*
G01*
G37*
X0272638Y0015551D02*
G01*
G75*
D26*
X0131299Y0068898D02*
D03*
D25*
X0131299Y0055118D02*
D03*
D28*
X0237402Y0149016D02*
D03*
D23*
X0131299Y0107283D02*
D03*
X0272244Y0023031D02*
D03*
D24*
X0272244Y0136811D02*
D03*
X0131299Y0031299D02*
D03*
D21*
X0236614Y0015945D02*
D03*
D22*
X0268110Y0015945D02*
D03*
D20*
X0182874Y0015945D02*
D03*
D29*
X0260236Y0149016D02*
D03*
D27*
X0144685Y0149016D02*
D03*
D18*
X0165355Y0015945D02*
D03*
X0141339Y0015945D02*
D03*
D19*
X0153347Y0015945D02*
D03*
X0178937Y0149016D02*
D03*
D213*
X0187599Y0067520D02*
D03*
X0212894Y0067520D02*
D03*
X0197638Y0067520D02*
D03*
X0202854Y0067520D02*
D03*
X0172343Y0060433D02*
D03*
X0172343Y0067520D02*
D03*
X0182382Y0067520D02*
D03*
X0182382Y0060433D02*
D03*
X0212894Y0060433D02*
D03*
X0202854Y0060433D02*
D03*
X0197638Y0060433D02*
D03*
X0187599Y0060433D02*
D03*
D214*
X0191044Y0067520D02*
D03*
X0206299Y0067520D02*
D03*
X0194193Y0067520D02*
D03*
X0209449Y0067520D02*
D03*
X0178937Y0067520D02*
D03*
X0175788Y0067520D02*
D03*
X0175788Y0060433D02*
D03*
X0178937Y0060433D02*
D03*
X0206299Y0060433D02*
D03*
X0209449Y0060433D02*
D03*
X0191044Y0060433D02*
D03*
X0194193Y0060433D02*
D03*
D218*
X0134449Y0069488D02*
D03*
X0134449Y0065551D02*
D03*
X0137992Y0063976D02*
D03*
X0137992Y0060039D02*
D03*
X0155315Y0071850D02*
D03*
X0155315Y0067913D02*
D03*
X0213017Y0100503D02*
D03*
X0213017Y0096566D02*
D03*
X0213017Y0092307D02*
D03*
X0213017Y0088370D02*
D03*
X0180550Y0048985D02*
D03*
X0180550Y0045048D02*
D03*
X0184273Y0048985D02*
D03*
X0184273Y0045048D02*
D03*
X0147441Y0046569D02*
D03*
X0147441Y0050506D02*
D03*
X0136508Y0135203D02*
D03*
X0136747Y0099455D02*
D03*
X0213017Y0114370D02*
D03*
X0158859Y0082086D02*
D03*
X0163189Y0082086D02*
D03*
X0167408Y0078656D02*
D03*
X0167353Y0067379D02*
D03*
X0197013Y0087795D02*
D03*
X0197013Y0079006D02*
D03*
X0205498Y0075069D02*
D03*
X0235364Y0139986D02*
D03*
X0217520Y0114370D02*
D03*
X0134449Y0073425D02*
D03*
X0167444Y0060039D02*
D03*
X0166046Y0038386D02*
D03*
X0166046Y0024321D02*
D03*
X0170276Y0038386D02*
D03*
X0170276Y0024321D02*
D03*
X0217184Y0064024D02*
D03*
X0219095Y0019488D02*
D03*
X0158859Y0086023D02*
D03*
X0197013Y0075069D02*
D03*
X0197013Y0083858D02*
D03*
X0201501Y0083858D02*
D03*
X0201501Y0087795D02*
D03*
X0221457Y0141929D02*
D03*
X0221457Y0137992D02*
D03*
X0235364Y0136049D02*
D03*
X0164540Y0050604D02*
D03*
X0164540Y0046667D02*
D03*
X0166046Y0020383D02*
D03*
X0167444Y0063976D02*
D03*
X0205498Y0079006D02*
D03*
X0167353Y0071316D02*
D03*
X0167408Y0074719D02*
D03*
X0170276Y0034449D02*
D03*
X0217184Y0060087D02*
D03*
X0219095Y0023425D02*
D03*
X0136747Y0095518D02*
D03*
X0134449Y0069488D02*
D03*
X0159473Y0042716D02*
D03*
X0159473Y0038779D02*
D03*
X0166046Y0034449D02*
D03*
X0217520Y0118307D02*
D03*
X0213017Y0118307D02*
D03*
X0163189Y0086023D02*
D03*
X0136508Y0131266D02*
D03*
X0136508Y0121950D02*
D03*
X0136508Y0125887D02*
D03*
X0170276Y0028258D02*
D03*
X0215158Y0019488D02*
D03*
X0215158Y0023425D02*
D03*
X0202756Y0019488D02*
D03*
X0202756Y0023425D02*
D03*
X0198622Y0019488D02*
D03*
X0198622Y0023425D02*
D03*
X0190354Y0019488D02*
D03*
X0190354Y0023425D02*
D03*
X0194488Y0019488D02*
D03*
X0194488Y0023425D02*
D03*
X0186221Y0019488D02*
D03*
X0186221Y0023425D02*
D03*
X0206890Y0019488D02*
D03*
X0206890Y0023425D02*
D03*
X0211024Y0019488D02*
D03*
X0211024Y0023425D02*
D03*
D220*
X0183662Y0074478D02*
D03*
X0179429Y0074478D02*
D03*
X0267520Y0119882D02*
D03*
X0267520Y0115157D02*
D03*
X0267520Y0110433D02*
D03*
X0267520Y0105709D02*
D03*
X0139173Y0035630D02*
D03*
X0139173Y0039764D02*
D03*
X0231394Y0130944D02*
D03*
X0227457Y0130944D02*
D03*
X0140355Y0020015D02*
D03*
X0144291Y0020015D02*
D03*
X0175492Y0074478D02*
D03*
X0187599Y0074478D02*
D03*
X0231890Y0126772D02*
D03*
X0227953Y0126772D02*
D03*
X0259666Y0101999D02*
D03*
X0255729Y0101999D02*
D03*
X0255729Y0105709D02*
D03*
X0259666Y0105709D02*
D03*
X0245079Y0105709D02*
D03*
X0249016Y0105709D02*
D03*
X0263583Y0105709D02*
D03*
X0263583Y0110433D02*
D03*
X0263583Y0119882D02*
D03*
X0263583Y0115157D02*
D03*
X0230389Y0021050D02*
D03*
X0226452Y0021050D02*
D03*
X0227362Y0071260D02*
D03*
X0231299Y0071260D02*
D03*
X0237599Y0071260D02*
D03*
X0241536Y0071260D02*
D03*
X0227362Y0043307D02*
D03*
X0231299Y0043307D02*
D03*
X0252756Y0066732D02*
D03*
X0248819Y0066732D02*
D03*
X0252756Y0037402D02*
D03*
X0248819Y0037402D02*
D03*
X0252756Y0024606D02*
D03*
X0248819Y0024606D02*
D03*
X0259666Y0041498D02*
D03*
X0263603Y0041498D02*
D03*
X0260040Y0019882D02*
D03*
X0256103Y0019882D02*
D03*
X0263189Y0020079D02*
D03*
X0267126Y0020079D02*
D03*
X0151881Y0020015D02*
D03*
X0147944Y0020015D02*
D03*
X0135236Y0035630D02*
D03*
X0135236Y0039764D02*
D03*
X0248819Y0043504D02*
D03*
X0252756Y0043504D02*
D03*
X0248819Y0047834D02*
D03*
X0252756Y0047834D02*
D03*
X0248819Y0056299D02*
D03*
X0252756Y0056299D02*
D03*
X0263603Y0060465D02*
D03*
X0259666Y0060465D02*
D03*
X0231299Y0099212D02*
D03*
X0227362Y0099212D02*
D03*
X0248819Y0028937D02*
D03*
X0252756Y0028937D02*
D03*
X0263603Y0079308D02*
D03*
X0259666Y0079308D02*
D03*
X0248819Y0075197D02*
D03*
X0252756Y0075197D02*
D03*
X0248819Y0062402D02*
D03*
X0252756Y0062402D02*
D03*
X0263603Y0098288D02*
D03*
X0259666Y0098288D02*
D03*
X0248819Y0094095D02*
D03*
X0252756Y0094095D02*
D03*
X0248819Y0085630D02*
D03*
X0252756Y0085630D02*
D03*
X0248819Y0081299D02*
D03*
X0252756Y0081299D02*
D03*
X0245079Y0099076D02*
D03*
X0249016Y0099076D02*
D03*
D222*
X0142382Y0055108D02*
D03*
X0151857Y0047368D02*
D03*
X0175227Y0029035D02*
D03*
D226*
X0143799Y0102756D02*
D03*
X0143799Y0096456D02*
D03*
X0142421Y0066142D02*
D03*
X0142421Y0059842D02*
D03*
X0147047Y0066142D02*
D03*
X0147047Y0059842D02*
D03*
D222*
X0178968Y0038287D02*
D03*
X0159337Y0047368D02*
D03*
X0155597Y0056620D02*
D03*
X0134902Y0055108D02*
D03*
X0138642Y0045856D02*
D03*
X0182708Y0029035D02*
D03*
D249*
X0152244Y0063582D02*
D03*
X0158465Y0063582D02*
D03*
D250*
X0223032Y0093012D02*
D03*
X0230118Y0093012D02*
D03*
X0230118Y0082972D02*
D03*
X0223032Y0082972D02*
D03*
X0230118Y0065059D02*
D03*
X0230118Y0037106D02*
D03*
X0234055Y0055020D02*
D03*
X0259252Y0110138D02*
D03*
X0252166Y0110138D02*
D03*
X0252166Y0120177D02*
D03*
X0259252Y0120177D02*
D03*
X0241142Y0027067D02*
D03*
X0234055Y0027067D02*
D03*
X0234055Y0037106D02*
D03*
X0241142Y0037106D02*
D03*
X0223032Y0037106D02*
D03*
X0230118Y0027067D02*
D03*
X0223032Y0027067D02*
D03*
X0241142Y0055020D02*
D03*
X0234055Y0065059D02*
D03*
X0241142Y0065059D02*
D03*
X0223032Y0065059D02*
D03*
X0230118Y0055020D02*
D03*
X0223032Y0055020D02*
D03*
X0264961Y0056004D02*
D03*
X0257874Y0056004D02*
D03*
X0257874Y0045964D02*
D03*
X0264961Y0045964D02*
D03*
X0264961Y0037106D02*
D03*
X0257874Y0037106D02*
D03*
X0257874Y0027067D02*
D03*
X0264961Y0027067D02*
D03*
X0264961Y0074902D02*
D03*
X0257874Y0074902D02*
D03*
X0257874Y0064862D02*
D03*
X0264961Y0064862D02*
D03*
X0264961Y0093799D02*
D03*
X0257874Y0093799D02*
D03*
X0257874Y0083760D02*
D03*
X0264961Y0083760D02*
D03*
X0241142Y0093012D02*
D03*
X0234055Y0093012D02*
D03*
X0234055Y0082972D02*
D03*
X0241142Y0082972D02*
D03*
X0241142Y0120571D02*
D03*
X0234055Y0120571D02*
D03*
X0234055Y0110531D02*
D03*
X0241142Y0110531D02*
D03*
X0223032Y0110531D02*
D03*
X0230118Y0110531D02*
D03*
X0230118Y0120571D02*
D03*
X0223032Y0120571D02*
D03*
D251*
X0230118Y0086417D02*
D03*
X0230118Y0089567D02*
D03*
X0223032Y0089567D02*
D03*
X0223032Y0086417D02*
D03*
X0230118Y0061614D02*
D03*
X0230118Y0033661D02*
D03*
X0234055Y0058464D02*
D03*
X0252166Y0116732D02*
D03*
X0252166Y0113583D02*
D03*
X0259252Y0113583D02*
D03*
X0259252Y0116732D02*
D03*
X0234055Y0033661D02*
D03*
X0234055Y0030512D02*
D03*
X0241142Y0030512D02*
D03*
X0241142Y0033661D02*
D03*
X0230118Y0030512D02*
D03*
X0223032Y0033661D02*
D03*
X0223032Y0030512D02*
D03*
X0234055Y0061614D02*
D03*
X0241142Y0058464D02*
D03*
X0241142Y0061614D02*
D03*
X0230118Y0058465D02*
D03*
X0223032Y0061614D02*
D03*
X0223032Y0058465D02*
D03*
X0264961Y0052559D02*
D03*
X0264961Y0049409D02*
D03*
X0257874Y0049409D02*
D03*
X0257874Y0052559D02*
D03*
X0264961Y0033662D02*
D03*
X0264961Y0030512D02*
D03*
X0257874Y0030512D02*
D03*
X0257874Y0033662D02*
D03*
X0264961Y0071457D02*
D03*
X0264961Y0068307D02*
D03*
X0257874Y0068307D02*
D03*
X0257874Y0071457D02*
D03*
X0264961Y0090354D02*
D03*
X0264961Y0087205D02*
D03*
X0257874Y0087205D02*
D03*
X0257874Y0090354D02*
D03*
X0241142Y0089567D02*
D03*
X0241142Y0086417D02*
D03*
X0234055Y0086417D02*
D03*
X0234055Y0089567D02*
D03*
X0241142Y0117126D02*
D03*
X0241142Y0113976D02*
D03*
X0234055Y0113976D02*
D03*
X0234055Y0117126D02*
D03*
X0223032Y0113976D02*
D03*
X0223032Y0117126D02*
D03*
X0230118Y0117126D02*
D03*
X0230118Y0113976D02*
D03*
D252*
X0145768Y0125354D02*
D03*
X0140778Y0125354D02*
D03*
X0140778Y0119134D02*
D03*
X0145768Y0119134D02*
D03*
D253*
X0152658Y0137992D02*
D03*
X0152658Y0105315D02*
D03*
X0206791Y0137992D02*
D03*
X0206791Y0105315D02*
D03*
D254*
X0170689Y0127756D02*
D03*
X0162028Y0127756D02*
D03*
X0166358Y0127756D02*
D03*
X0175020Y0127756D02*
D03*
X0179351Y0127756D02*
D03*
X0183681Y0127756D02*
D03*
X0188012Y0127756D02*
D03*
X0192343Y0127756D02*
D03*
D255*
X0251299Y0146063D02*
D03*
X0251299Y0132859D02*
D03*
X0259331Y0138582D02*
D03*
X0259331Y0125379D02*
D03*
X0242047Y0142323D02*
D03*
X0242047Y0129119D02*
D03*
X0268583Y0129119D02*
D03*
X0153662Y0040945D02*
D03*
X0144410Y0037205D02*
D03*
X0268583Y0142323D02*
D03*
D149*
X0225526Y0139986D02*
D03*
X0225526Y0136049D02*
D03*
X0231530Y0139986D02*
D03*
X0231530Y0138018D02*
D03*
X0225526Y0138018D02*
D03*
X0231530Y0136049D02*
D03*
D256*
X0168878Y0049421D02*
D03*
X0168878Y0044303D02*
D03*
X0168878Y0046862D02*
D03*
X0176359Y0049421D02*
D03*
X0176359Y0044303D02*
D03*
D257*
X0188386Y0052638D02*
D03*
X0190945Y0029646D02*
D03*
X0188386Y0029646D02*
D03*
X0211417Y0052638D02*
D03*
X0213976Y0029646D02*
D03*
X0216536Y0029646D02*
D03*
X0211417Y0029646D02*
D03*
X0208858Y0029646D02*
D03*
X0206299Y0029646D02*
D03*
X0203740Y0029646D02*
D03*
X0201181Y0029646D02*
D03*
X0198622Y0029646D02*
D03*
X0196063Y0029646D02*
D03*
X0193504Y0029646D02*
D03*
X0216536Y0052638D02*
D03*
X0213976Y0052638D02*
D03*
X0208858Y0052638D02*
D03*
X0206299Y0052638D02*
D03*
X0203740Y0052638D02*
D03*
X0201181Y0052638D02*
D03*
X0198622Y0052638D02*
D03*
X0196063Y0052638D02*
D03*
X0193504Y0052638D02*
D03*
X0190945Y0052638D02*
D03*
D258*
X0150799Y0026575D02*
D03*
X0139381Y0026575D02*
D03*
D259*
X0148664Y0084665D02*
D03*
X0148664Y0071673D02*
D03*
X0159864Y0020588D02*
D03*
X0159864Y0033580D02*
D03*
D260*
X0174069Y0083440D02*
D03*
X0188636Y0083440D02*
D03*
D142*
X0229512Y0135016D02*
D03*
X0227544Y0135016D02*
D03*
X0227544Y0141020D02*
D03*
X0229512Y0141020D02*
D03*
D261*
X0161546Y0070029D02*
D03*
X0161546Y0075934D02*
D03*
D255*
X0251299Y0138582D02*
D03*
X0251299Y0125379D02*
D03*
X0259331Y0132859D02*
D03*
X0153662Y0033464D02*
D03*
X0259331Y0146063D02*
D03*
D262*
X0212205Y0072832D02*
D03*
X0212205Y0079525D02*
D03*
D263*
X0138668Y0089193D02*
D03*
X0138668Y0077776D02*
D03*
D264*
X0173032Y0020276D02*
D03*
X0179331Y0020276D02*
D03*
X0105561Y0149803D02*
%LPD*%
G01*
X0045965Y0016043D02*
G01*
G75*
D147*
X0075880Y0092421D02*
D03*
X0062888Y0092421D02*
D03*
D152*
X0095740Y0092815D02*
D03*
X0084323Y0092815D02*
D03*
X0095740Y0084783D02*
D03*
X0084323Y0084783D02*
D03*
D182*
X0058367Y0070767D02*
D03*
X0058367Y0074704D02*
D03*
X0055020Y0085334D02*
D03*
X0063682Y0085334D02*
D03*
X0054233Y0080086D02*
D03*
X0062894Y0080086D02*
D03*
D183*
X0066120Y0027460D02*
D03*
X0062576Y0027460D02*
D03*
X0075511Y0064193D02*
D03*
X0079055Y0064193D02*
D03*
X0067514Y0079298D02*
D03*
X0071057Y0079298D02*
D03*
X0074738Y0027460D02*
D03*
X0071195Y0027460D02*
D03*
X0054233Y0031397D02*
D03*
X0057776Y0031397D02*
D03*
D184*
X0079718Y0080873D02*
D03*
X0079718Y0084417D02*
D03*
X0058951Y0093275D02*
D03*
X0058951Y0089731D02*
D03*
X0107715Y0034958D02*
D03*
X0107715Y0038502D02*
D03*
D201*
X0095178Y0072342D02*
D03*
X0084154Y0072342D02*
D03*
D202*
X0062500Y0068019D02*
D03*
X0062500Y0074239D02*
D03*
X0076594Y0068019D02*
D03*
X0076594Y0074239D02*
D03*
X0071903Y0068019D02*
D03*
X0071903Y0074239D02*
D03*
X0067211Y0068019D02*
D03*
X0067211Y0074239D02*
D03*
X0075413Y0080263D02*
D03*
X0075413Y0086484D02*
D03*
D203*
X0065923Y0031397D02*
D03*
X0061986Y0031397D02*
D03*
X0070604Y0031397D02*
D03*
X0074541Y0031397D02*
D03*
X0067317Y0085334D02*
D03*
X0071254Y0085334D02*
D03*
X0090250Y0063720D02*
D03*
X0094187Y0063720D02*
D03*
X0098026Y0026279D02*
D03*
X0094088Y0026279D02*
D03*
D204*
X0071037Y0038157D02*
D03*
X0066037Y0038157D02*
D03*
X0061037Y0038157D02*
D03*
X0056037Y0038157D02*
D03*
X0071037Y0060794D02*
D03*
X0066037Y0060794D02*
D03*
X0061037Y0060794D02*
D03*
X0056037Y0060794D02*
D03*
X0094104Y0032874D02*
D03*
X0089104Y0032874D02*
D03*
X0084104Y0032874D02*
D03*
X0079104Y0032874D02*
D03*
X0094104Y0056299D02*
D03*
X0089104Y0056299D02*
D03*
X0084104Y0056299D02*
D03*
X0079104Y0056299D02*
D03*
D205*
X0063537Y0049475D02*
D03*
D206*
X0086604Y0044586D02*
D03*
M02*
