G75*
G70*
%OFA0B0*%
%FSLAX25Y25*%
%IPPOS*%
%LPD*%
%AMOC8*
5,1,8,0,0,1.08239X$1,22.5*
%
%AMM100*
21,1,0.035430,0.030320,-0.000000,0.000000,0.000000*
21,1,0.028350,0.037400,-0.000000,0.000000,0.000000*
1,1,0.007090,0.014170,-0.015160*
1,1,0.007090,-0.014170,-0.015160*
1,1,0.007090,-0.014170,0.015160*
1,1,0.007090,0.014170,0.015160*
%
%AMM101*
21,1,0.043310,0.075980,-0.000000,0.000000,90.000000*
21,1,0.034650,0.084650,-0.000000,0.000000,90.000000*
1,1,0.008660,0.037990,0.017320*
1,1,0.008660,0.037990,-0.017320*
1,1,0.008660,-0.037990,-0.017320*
1,1,0.008660,-0.037990,0.017320*
%
%AMM102*
21,1,0.039370,0.035430,-0.000000,0.000000,90.000000*
21,1,0.031500,0.043310,-0.000000,0.000000,90.000000*
1,1,0.007870,0.017720,0.015750*
1,1,0.007870,0.017720,-0.015750*
1,1,0.007870,-0.017720,-0.015750*
1,1,0.007870,-0.017720,0.015750*
%
%AMM103*
21,1,0.027560,0.030710,-0.000000,0.000000,90.000000*
21,1,0.022050,0.036220,-0.000000,0.000000,90.000000*
1,1,0.005510,0.015350,0.011020*
1,1,0.005510,0.015350,-0.011020*
1,1,0.005510,-0.015350,-0.011020*
1,1,0.005510,-0.015350,0.011020*
%
%AMM104*
21,1,0.031500,0.072440,-0.000000,0.000000,90.000000*
21,1,0.025200,0.078740,-0.000000,0.000000,90.000000*
1,1,0.006300,0.036220,0.012600*
1,1,0.006300,0.036220,-0.012600*
1,1,0.006300,-0.036220,-0.012600*
1,1,0.006300,-0.036220,0.012600*
%
%AMM105*
21,1,0.137800,0.067720,-0.000000,0.000000,90.000000*
21,1,0.120870,0.084650,-0.000000,0.000000,90.000000*
1,1,0.016930,0.033860,0.060430*
1,1,0.016930,0.033860,-0.060430*
1,1,0.016930,-0.033860,-0.060430*
1,1,0.016930,-0.033860,0.060430*
%
%AMM106*
21,1,0.043310,0.075990,-0.000000,0.000000,90.000000*
21,1,0.034650,0.084650,-0.000000,0.000000,90.000000*
1,1,0.008660,0.037990,0.017320*
1,1,0.008660,0.037990,-0.017320*
1,1,0.008660,-0.037990,-0.017320*
1,1,0.008660,-0.037990,0.017320*
%
%AMM107*
21,1,0.086610,0.073230,-0.000000,0.000000,180.000000*
21,1,0.069290,0.090550,-0.000000,0.000000,180.000000*
1,1,0.017320,-0.034650,0.036610*
1,1,0.017320,0.034650,0.036610*
1,1,0.017320,0.034650,-0.036610*
1,1,0.017320,-0.034650,-0.036610*
%
%AMM36*
21,1,0.033470,0.026770,0.000000,0.000000,0.000000*
21,1,0.026770,0.033470,0.000000,0.000000,0.000000*
1,1,0.006690,0.013390,-0.013390*
1,1,0.006690,-0.013390,-0.013390*
1,1,0.006690,-0.013390,0.013390*
1,1,0.006690,0.013390,0.013390*
%
%AMM42*
21,1,0.035830,0.026770,0.000000,0.000000,0.000000*
21,1,0.029130,0.033470,0.000000,0.000000,0.000000*
1,1,0.006690,0.014570,-0.013390*
1,1,0.006690,-0.014570,-0.013390*
1,1,0.006690,-0.014570,0.013390*
1,1,0.006690,0.014570,0.013390*
%
%AMM44*
21,1,0.070870,0.036220,0.000000,0.000000,90.000000*
21,1,0.061810,0.045280,0.000000,0.000000,90.000000*
1,1,0.009060,0.018110,0.030910*
1,1,0.009060,0.018110,-0.030910*
1,1,0.009060,-0.018110,-0.030910*
1,1,0.009060,-0.018110,0.030910*
%
%AMM59*
21,1,0.086610,0.073230,0.000000,0.000000,270.000000*
21,1,0.069290,0.090550,0.000000,0.000000,270.000000*
1,1,0.017320,-0.036610,-0.034650*
1,1,0.017320,-0.036610,0.034650*
1,1,0.017320,0.036610,0.034650*
1,1,0.017320,0.036610,-0.034650*
%
%AMM60*
21,1,0.094490,0.111020,0.000000,0.000000,0.000000*
21,1,0.075590,0.129920,0.000000,0.000000,0.000000*
1,1,0.018900,0.037800,-0.055510*
1,1,0.018900,-0.037800,-0.055510*
1,1,0.018900,-0.037800,0.055510*
1,1,0.018900,0.037800,0.055510*
%
%AMM61*
21,1,0.074800,0.083460,0.000000,0.000000,0.000000*
21,1,0.059840,0.098430,0.000000,0.000000,0.000000*
1,1,0.014960,0.029920,-0.041730*
1,1,0.014960,-0.029920,-0.041730*
1,1,0.014960,-0.029920,0.041730*
1,1,0.014960,0.029920,0.041730*
%
%AMM62*
21,1,0.078740,0.053540,0.000000,0.000000,180.000000*
21,1,0.065350,0.066930,0.000000,0.000000,180.000000*
1,1,0.013390,-0.032680,0.026770*
1,1,0.013390,0.032680,0.026770*
1,1,0.013390,0.032680,-0.026770*
1,1,0.013390,-0.032680,-0.026770*
%
%AMM63*
21,1,0.035430,0.030320,0.000000,0.000000,90.000000*
21,1,0.028350,0.037400,0.000000,0.000000,90.000000*
1,1,0.007090,0.015160,0.014170*
1,1,0.007090,0.015160,-0.014170*
1,1,0.007090,-0.015160,-0.014170*
1,1,0.007090,-0.015160,0.014170*
%
%AMM64*
21,1,0.021650,0.052760,0.000000,0.000000,270.000000*
21,1,0.017320,0.057090,0.000000,0.000000,270.000000*
1,1,0.004330,-0.026380,-0.008660*
1,1,0.004330,-0.026380,0.008660*
1,1,0.004330,0.026380,0.008660*
1,1,0.004330,0.026380,-0.008660*
%
%AMM65*
21,1,0.015750,0.016540,0.000000,0.000000,270.000000*
21,1,0.012600,0.019680,0.000000,0.000000,270.000000*
1,1,0.003150,-0.008270,-0.006300*
1,1,0.003150,-0.008270,0.006300*
1,1,0.003150,0.008270,0.006300*
1,1,0.003150,0.008270,-0.006300*
%
%AMM66*
21,1,0.023620,0.018900,0.000000,0.000000,90.000000*
21,1,0.018900,0.023620,0.000000,0.000000,90.000000*
1,1,0.004720,0.009450,0.009450*
1,1,0.004720,0.009450,-0.009450*
1,1,0.004720,-0.009450,-0.009450*
1,1,0.004720,-0.009450,0.009450*
%
%AMM67*
21,1,0.019680,0.019680,0.000000,0.000000,0.000000*
21,1,0.015750,0.023620,0.000000,0.000000,0.000000*
1,1,0.003940,0.007870,-0.009840*
1,1,0.003940,-0.007870,-0.009840*
1,1,0.003940,-0.007870,0.009840*
1,1,0.003940,0.007870,0.009840*
%
%AMM68*
21,1,0.019680,0.019680,0.000000,0.000000,270.000000*
21,1,0.015750,0.023620,0.000000,0.000000,270.000000*
1,1,0.003940,-0.009840,-0.007870*
1,1,0.003940,-0.009840,0.007870*
1,1,0.003940,0.009840,0.007870*
1,1,0.003940,0.009840,-0.007870*
%
%AMM92*
21,1,0.025590,0.026380,-0.000000,0.000000,0.000000*
21,1,0.020470,0.031500,-0.000000,0.000000,0.000000*
1,1,0.005120,0.010240,-0.013190*
1,1,0.005120,-0.010240,-0.013190*
1,1,0.005120,-0.010240,0.013190*
1,1,0.005120,0.010240,0.013190*
%
%AMM93*
21,1,0.017720,0.027950,-0.000000,0.000000,0.000000*
21,1,0.014170,0.031500,-0.000000,0.000000,0.000000*
1,1,0.003540,0.007090,-0.013980*
1,1,0.003540,-0.007090,-0.013980*
1,1,0.003540,-0.007090,0.013980*
1,1,0.003540,0.007090,0.013980*
%
%AMM94*
21,1,0.012600,0.028980,-0.000000,0.000000,180.000000*
21,1,0.010080,0.031500,-0.000000,0.000000,180.000000*
1,1,0.002520,-0.005040,0.014490*
1,1,0.002520,0.005040,0.014490*
1,1,0.002520,0.005040,-0.014490*
1,1,0.002520,-0.005040,-0.014490*
%
%AMM95*
21,1,0.023620,0.030710,-0.000000,0.000000,270.000000*
21,1,0.018900,0.035430,-0.000000,0.000000,270.000000*
1,1,0.004720,-0.015350,-0.009450*
1,1,0.004720,-0.015350,0.009450*
1,1,0.004720,0.015350,0.009450*
1,1,0.004720,0.015350,-0.009450*
%
%AMM96*
21,1,0.027560,0.018900,-0.000000,0.000000,180.000000*
21,1,0.022840,0.023620,-0.000000,0.000000,180.000000*
1,1,0.004720,-0.011420,0.009450*
1,1,0.004720,0.011420,0.009450*
1,1,0.004720,0.011420,-0.009450*
1,1,0.004720,-0.011420,-0.009450*
%
%AMM97*
21,1,0.031500,0.072440,-0.000000,0.000000,180.000000*
21,1,0.025200,0.078740,-0.000000,0.000000,180.000000*
1,1,0.006300,-0.012600,0.036220*
1,1,0.006300,0.012600,0.036220*
1,1,0.006300,0.012600,-0.036220*
1,1,0.006300,-0.012600,-0.036220*
%
%AMM98*
21,1,0.027560,0.018900,-0.000000,0.000000,270.000000*
21,1,0.022840,0.023620,-0.000000,0.000000,270.000000*
1,1,0.004720,-0.009450,-0.011420*
1,1,0.004720,-0.009450,0.011420*
1,1,0.004720,0.009450,0.011420*
1,1,0.004720,0.009450,-0.011420*
%
%AMM99*
21,1,0.023620,0.030710,-0.000000,0.000000,0.000000*
21,1,0.018900,0.035430,-0.000000,0.000000,0.000000*
1,1,0.004720,0.009450,-0.015350*
1,1,0.004720,-0.009450,-0.015350*
1,1,0.004720,-0.009450,0.015350*
1,1,0.004720,0.009450,0.015350*
%
%ADD13R,0.02559X0.06004*%
%ADD138M36*%
%ADD14R,0.06890X0.02559*%
%ADD147M42*%
%ADD15R,0.16929X0.31102*%
%ADD152M44*%
%ADD173R,0.05512X0.01181*%
%ADD175M59*%
%ADD176M60*%
%ADD177M61*%
%ADD178M62*%
%ADD179M63*%
%ADD18R,0.14567X0.00787*%
%ADD180M64*%
%ADD181M65*%
%ADD182M66*%
%ADD183M67*%
%ADD184M68*%
%ADD19R,0.01575X0.00787*%
%ADD20R,0.06299X0.00787*%
%ADD21R,0.38189X0.00787*%
%ADD213M92*%
%ADD214M93*%
%ADD215M94*%
%ADD216O,0.01181X0.04331*%
%ADD217M95*%
%ADD218M96*%
%ADD219M97*%
%ADD22R,0.09055X0.00787*%
%ADD220M98*%
%ADD221M99*%
%ADD222M100*%
%ADD223O,0.02362X0.08661*%
%ADD224M101*%
%ADD225M102*%
%ADD226M103*%
%ADD227M104*%
%ADD228M105*%
%ADD229M106*%
%ADD23R,0.00787X0.05512*%
%ADD230M107*%
%ADD24R,0.00787X0.25197*%
%ADD25R,0.00787X0.06693*%
%ADD26R,0.00787X0.12992*%
%ADD27R,0.27559X0.00787*%
%ADD28R,0.12992X0.00787*%
%ADD29R,0.24803X0.00787*%
%ADD47C,0.03150*%
%ADD80O,0.04724X0.00866*%
%ADD81O,0.00866X0.04724*%
%ADD85R,0.01378X0.00984*%
%ADD86R,0.00984X0.01378*%
X0000000Y0000000D02*
%LPD*%
G01*
G36*
G01*
X0152874Y0172533D02*
X0149803Y0172533D01*
G75*
G02*
X0149528Y0172809I0000000J0000276D01*
G01*
X0149528Y0175013D01*
G75*
G02*
X0149803Y0175289I0000276J0000000D01*
G01*
X0152874Y0175289D01*
G75*
G02*
X0153150Y0175013I0000000J-000276D01*
G01*
X0153150Y0172809D01*
G75*
G02*
X0152874Y0172533I-000276J0000000D01*
G01*
G37*
G36*
G01*
X0152874Y0178832D02*
X0149803Y0178832D01*
G75*
G02*
X0149528Y0179108I0000000J0000276D01*
G01*
X0149528Y0181313D01*
G75*
G02*
X0149803Y0181588I0000276J0000000D01*
G01*
X0152874Y0181588D01*
G75*
G02*
X0153150Y0181313I0000000J-000276D01*
G01*
X0153150Y0179108D01*
G75*
G02*
X0152874Y0178832I-000276J0000000D01*
G01*
G37*
G36*
G01*
X0229547Y0172972D02*
X0226870Y0172972D01*
G75*
G02*
X0226535Y0173307I0000000J0000335D01*
G01*
X0226535Y0175984D01*
G75*
G02*
X0226870Y0176319I0000335J0000000D01*
G01*
X0229547Y0176319D01*
G75*
G02*
X0229882Y0175984I0000000J-000335D01*
G01*
X0229882Y0173307D01*
G75*
G02*
X0229547Y0172972I-000335J0000000D01*
G01*
G37*
G36*
G01*
X0229547Y0179193D02*
X0226870Y0179193D01*
G75*
G02*
X0226535Y0179528I0000000J0000335D01*
G01*
X0226535Y0182205D01*
G75*
G02*
X0226870Y0182539I0000335J0000000D01*
G01*
X0229547Y0182539D01*
G75*
G02*
X0229882Y0182205I0000000J-000335D01*
G01*
X0229882Y0179528D01*
G75*
G02*
X0229547Y0179193I-000335J0000000D01*
G01*
G37*
G36*
G01*
X0007461Y0189606D02*
X0007461Y0192283D01*
G75*
G02*
X0007795Y0192618I0000335J0000000D01*
G01*
X0010472Y0192618D01*
G75*
G02*
X0010807Y0192283I0000000J-000335D01*
G01*
X0010807Y0189606D01*
G75*
G02*
X0010472Y0189272I-000335J0000000D01*
G01*
X0007795Y0189272D01*
G75*
G02*
X0007461Y0189606I0000000J0000335D01*
G01*
G37*
G36*
G01*
X0013681Y0189606D02*
X0013681Y0192283D01*
G75*
G02*
X0014016Y0192618I0000335J0000000D01*
G01*
X0016693Y0192618D01*
G75*
G02*
X0017028Y0192283I0000000J-000335D01*
G01*
X0017028Y0189606D01*
G75*
G02*
X0016693Y0189272I-000335J0000000D01*
G01*
X0014016Y0189272D01*
G75*
G02*
X0013681Y0189606I0000000J0000335D01*
G01*
G37*
G36*
G01*
X0283268Y0092480D02*
X0283268Y0089409D01*
G75*
G02*
X0282992Y0089134I-000276J0000000D01*
G01*
X0280787Y0089134D01*
G75*
G02*
X0280512Y0089409I0000000J0000276D01*
G01*
X0280512Y0092480D01*
G75*
G02*
X0280787Y0092756I0000276J0000000D01*
G01*
X0282992Y0092756D01*
G75*
G02*
X0283268Y0092480I0000000J-000276D01*
G01*
G37*
G36*
G01*
X0276968Y0092480D02*
X0276968Y0089409D01*
G75*
G02*
X0276693Y0089134I-000276J0000000D01*
G01*
X0274488Y0089134D01*
G75*
G02*
X0274213Y0089409I0000000J0000276D01*
G01*
X0274213Y0092480D01*
G75*
G02*
X0274488Y0092756I0000276J0000000D01*
G01*
X0276693Y0092756D01*
G75*
G02*
X0276968Y0092480I0000000J-000276D01*
G01*
G37*
G36*
G01*
X0108268Y0230728D02*
X0108268Y0233445D01*
G75*
G02*
X0109173Y0234350I0000906J0000000D01*
G01*
X0114449Y0234350D01*
G75*
G02*
X0115354Y0233445I0000000J-000906D01*
G01*
X0115354Y0230728D01*
G75*
G02*
X0114449Y0229823I-000906J0000000D01*
G01*
X0109173Y0229823D01*
G75*
G02*
X0108268Y0230728I0000000J0000906D01*
G01*
G37*
G36*
G01*
X0108268Y0219311D02*
X0108268Y0222027D01*
G75*
G02*
X0109173Y0222933I0000906J0000000D01*
G01*
X0114449Y0222933D01*
G75*
G02*
X0115354Y0222027I0000000J-000906D01*
G01*
X0115354Y0219311D01*
G75*
G02*
X0114449Y0218405I-000906J0000000D01*
G01*
X0109173Y0218405D01*
G75*
G02*
X0108268Y0219311I0000000J0000906D01*
G01*
G37*
G36*
G01*
X0198602Y0187205D02*
X0197421Y0187205D01*
G75*
G02*
X0196831Y0187795I0000000J0000591D01*
G01*
X0196831Y0194291D01*
G75*
G02*
X0197421Y0194882I0000591J0000000D01*
G01*
X0198602Y0194882D01*
G75*
G02*
X0199193Y0194291I0000000J-000591D01*
G01*
X0199193Y0187795D01*
G75*
G02*
X0198602Y0187205I-000591J0000000D01*
G01*
G37*
G36*
G01*
X0203602Y0187205D02*
X0202421Y0187205D01*
G75*
G02*
X0201831Y0187795I0000000J0000591D01*
G01*
X0201831Y0194291D01*
G75*
G02*
X0202421Y0194882I0000591J0000000D01*
G01*
X0203602Y0194882D01*
G75*
G02*
X0204193Y0194291I0000000J-000591D01*
G01*
X0204193Y0187795D01*
G75*
G02*
X0203602Y0187205I-000591J0000000D01*
G01*
G37*
G36*
G01*
X0208602Y0187205D02*
X0207421Y0187205D01*
G75*
G02*
X0206831Y0187795I0000000J0000591D01*
G01*
X0206831Y0194291D01*
G75*
G02*
X0207421Y0194882I0000591J0000000D01*
G01*
X0208602Y0194882D01*
G75*
G02*
X0209193Y0194291I0000000J-000591D01*
G01*
X0209193Y0187795D01*
G75*
G02*
X0208602Y0187205I-000591J0000000D01*
G01*
G37*
G36*
G01*
X0213602Y0187205D02*
X0212421Y0187205D01*
G75*
G02*
X0211831Y0187795I0000000J0000591D01*
G01*
X0211831Y0194291D01*
G75*
G02*
X0212421Y0194882I0000591J0000000D01*
G01*
X0213602Y0194882D01*
G75*
G02*
X0214193Y0194291I0000000J-000591D01*
G01*
X0214193Y0187795D01*
G75*
G02*
X0213602Y0187205I-000591J0000000D01*
G01*
G37*
G36*
G01*
X0213602Y0206693D02*
X0212421Y0206693D01*
G75*
G02*
X0211831Y0207283I0000000J0000591D01*
G01*
X0211831Y0213779D01*
G75*
G02*
X0212421Y0214370I0000591J0000000D01*
G01*
X0213602Y0214370D01*
G75*
G02*
X0214193Y0213779I0000000J-000591D01*
G01*
X0214193Y0207283D01*
G75*
G02*
X0213602Y0206693I-000591J0000000D01*
G01*
G37*
G36*
G01*
X0208602Y0206693D02*
X0207421Y0206693D01*
G75*
G02*
X0206831Y0207283I0000000J0000591D01*
G01*
X0206831Y0213779D01*
G75*
G02*
X0207421Y0214370I0000591J0000000D01*
G01*
X0208602Y0214370D01*
G75*
G02*
X0209193Y0213779I0000000J-000591D01*
G01*
X0209193Y0207283D01*
G75*
G02*
X0208602Y0206693I-000591J0000000D01*
G01*
G37*
G36*
G01*
X0203602Y0206693D02*
X0202421Y0206693D01*
G75*
G02*
X0201831Y0207283I0000000J0000591D01*
G01*
X0201831Y0213779D01*
G75*
G02*
X0202421Y0214370I0000591J0000000D01*
G01*
X0203602Y0214370D01*
G75*
G02*
X0204193Y0213779I0000000J-000591D01*
G01*
X0204193Y0207283D01*
G75*
G02*
X0203602Y0206693I-000591J0000000D01*
G01*
G37*
G36*
G01*
X0198602Y0206693D02*
X0197421Y0206693D01*
G75*
G02*
X0196831Y0207283I0000000J0000591D01*
G01*
X0196831Y0213779D01*
G75*
G02*
X0197421Y0214370I0000591J0000000D01*
G01*
X0198602Y0214370D01*
G75*
G02*
X0199193Y0213779I0000000J-000591D01*
G01*
X0199193Y0207283D01*
G75*
G02*
X0198602Y0206693I-000591J0000000D01*
G01*
G37*
D13*
X0221240Y0190209D03*
X0226240Y0190209D03*
X0231240Y0190209D03*
X0236240Y0190209D03*
X0236240Y0211563D03*
X0231240Y0211563D03*
X0226240Y0211563D03*
X0221240Y0211563D03*
G36*
G01*
X0016732Y0177126D02*
X0016732Y0174055D01*
G75*
G02*
X0016457Y0173779I-000276J0000000D01*
G01*
X0014252Y0173779D01*
G75*
G02*
X0013976Y0174055I0000000J0000276D01*
G01*
X0013976Y0177126D01*
G75*
G02*
X0014252Y0177402I0000276J0000000D01*
G01*
X0016457Y0177402D01*
G75*
G02*
X0016732Y0177126I0000000J-000276D01*
G01*
G37*
G36*
G01*
X0010433Y0177126D02*
X0010433Y0174055D01*
G75*
G02*
X0010157Y0173779I-000276J0000000D01*
G01*
X0007953Y0173779D01*
G75*
G02*
X0007677Y0174055I0000000J0000276D01*
G01*
X0007677Y0177126D01*
G75*
G02*
X0007953Y0177402I0000276J0000000D01*
G01*
X0010157Y0177402D01*
G75*
G02*
X0010433Y0177126I0000000J-000276D01*
G01*
G37*
G36*
G01*
X0007854Y0225827D02*
X0007854Y0228504D01*
G75*
G02*
X0008189Y0228839I0000335J0000000D01*
G01*
X0010866Y0228839D01*
G75*
G02*
X0011201Y0228504I0000000J-000335D01*
G01*
X0011201Y0225827D01*
G75*
G02*
X0010866Y0225492I-000335J0000000D01*
G01*
X0008189Y0225492D01*
G75*
G02*
X0007854Y0225827I0000000J0000335D01*
G01*
G37*
G36*
G01*
X0014075Y0225827D02*
X0014075Y0228504D01*
G75*
G02*
X0014409Y0228839I0000335J0000000D01*
G01*
X0017087Y0228839D01*
G75*
G02*
X0017421Y0228504I0000000J-000335D01*
G01*
X0017421Y0225827D01*
G75*
G02*
X0017087Y0225492I-000335J0000000D01*
G01*
X0014409Y0225492D01*
G75*
G02*
X0014075Y0225827I0000000J0000335D01*
G01*
G37*
G36*
G01*
X0274213Y0094921D02*
X0274213Y0097992D01*
G75*
G02*
X0274488Y0098268I0000276J0000000D01*
G01*
X0276693Y0098268D01*
G75*
G02*
X0276968Y0097992I0000000J-000276D01*
G01*
X0276968Y0094921D01*
G75*
G02*
X0276693Y0094646I-000276J0000000D01*
G01*
X0274488Y0094646D01*
G75*
G02*
X0274213Y0094921I0000000J0000276D01*
G01*
G37*
G36*
G01*
X0280512Y0094921D02*
X0280512Y0097992D01*
G75*
G02*
X0280787Y0098268I0000276J0000000D01*
G01*
X0282992Y0098268D01*
G75*
G02*
X0283268Y0097992I0000000J-000276D01*
G01*
X0283268Y0094921D01*
G75*
G02*
X0282992Y0094646I-000276J0000000D01*
G01*
X0280787Y0094646D01*
G75*
G02*
X0280512Y0094921I0000000J0000276D01*
G01*
G37*
D14*
X0062992Y0171260D03*
X0062992Y0175197D03*
X0062992Y0179134D03*
X0062992Y0183071D03*
X0062992Y0187008D03*
X0062992Y0190945D03*
X0025197Y0190945D03*
X0025197Y0187008D03*
X0025197Y0183071D03*
X0025197Y0179134D03*
X0025197Y0175197D03*
X0025197Y0171260D03*
D15*
X0044094Y0181102D03*
G36*
G01*
X0109600Y0100443D02*
X0107711Y0100443D01*
G75*
G02*
X0107474Y0100679I0000000J0000236D01*
G01*
X0107474Y0102569D01*
G75*
G02*
X0107711Y0102805I0000236J0000000D01*
G01*
X0109600Y0102805D01*
G75*
G02*
X0109837Y0102569I0000000J-000236D01*
G01*
X0109837Y0100679D01*
G75*
G02*
X0109600Y0100443I-000236J0000000D01*
G01*
G37*
G36*
G01*
X0100939Y0100443D02*
X0099049Y0100443D01*
G75*
G02*
X0098813Y0100679I0000000J0000236D01*
G01*
X0098813Y0102569D01*
G75*
G02*
X0099049Y0102805I0000236J0000000D01*
G01*
X0100939Y0102805D01*
G75*
G02*
X0101175Y0102569I0000000J-000236D01*
G01*
X0101175Y0100679D01*
G75*
G02*
X0100939Y0100443I-000236J0000000D01*
G01*
G37*
G36*
G01*
X0007461Y0184488D02*
X0007461Y0187165D01*
G75*
G02*
X0007795Y0187500I0000335J0000000D01*
G01*
X0010472Y0187500D01*
G75*
G02*
X0010807Y0187165I0000000J-000335D01*
G01*
X0010807Y0184488D01*
G75*
G02*
X0010472Y0184153I-000335J0000000D01*
G01*
X0007795Y0184153D01*
G75*
G02*
X0007461Y0184488I0000000J0000335D01*
G01*
G37*
G36*
G01*
X0013681Y0184488D02*
X0013681Y0187165D01*
G75*
G02*
X0014016Y0187500I0000335J0000000D01*
G01*
X0016693Y0187500D01*
G75*
G02*
X0017028Y0187165I0000000J-000335D01*
G01*
X0017028Y0184488D01*
G75*
G02*
X0016693Y0184153I-000335J0000000D01*
G01*
X0014016Y0184153D01*
G75*
G02*
X0013681Y0184488I0000000J0000335D01*
G01*
G37*
G36*
G01*
X0110591Y0125000D02*
X0107520Y0125000D01*
G75*
G02*
X0107244Y0125276I0000000J0000276D01*
G01*
X0107244Y0127480D01*
G75*
G02*
X0107520Y0127756I0000276J0000000D01*
G01*
X0110591Y0127756D01*
G75*
G02*
X0110866Y0127480I0000000J-000276D01*
G01*
X0110866Y0125276D01*
G75*
G02*
X0110591Y0125000I-000276J0000000D01*
G01*
G37*
G36*
G01*
X0110591Y0131299D02*
X0107520Y0131299D01*
G75*
G02*
X0107244Y0131575I0000000J0000276D01*
G01*
X0107244Y0133779D01*
G75*
G02*
X0107520Y0134055I0000276J0000000D01*
G01*
X0110591Y0134055D01*
G75*
G02*
X0110866Y0133779I0000000J-000276D01*
G01*
X0110866Y0131575D01*
G75*
G02*
X0110591Y0131299I-000276J0000000D01*
G01*
G37*
G36*
G01*
X0209803Y0172933D02*
X0206732Y0172933D01*
G75*
G02*
X0206457Y0173209I0000000J0000276D01*
G01*
X0206457Y0175413D01*
G75*
G02*
X0206732Y0175689I0000276J0000000D01*
G01*
X0209803Y0175689D01*
G75*
G02*
X0210079Y0175413I0000000J-000276D01*
G01*
X0210079Y0173209D01*
G75*
G02*
X0209803Y0172933I-000276J0000000D01*
G01*
G37*
G36*
G01*
X0209803Y0179232D02*
X0206732Y0179232D01*
G75*
G02*
X0206457Y0179508I0000000J0000276D01*
G01*
X0206457Y0181713D01*
G75*
G02*
X0206732Y0181988I0000276J0000000D01*
G01*
X0209803Y0181988D01*
G75*
G02*
X0210079Y0181713I0000000J-000276D01*
G01*
X0210079Y0179508D01*
G75*
G02*
X0209803Y0179232I-000276J0000000D01*
G01*
G37*
G36*
G01*
X0217283Y0173130D02*
X0214213Y0173130D01*
G75*
G02*
X0213937Y0173405I0000000J0000276D01*
G01*
X0213937Y0175610D01*
G75*
G02*
X0214213Y0175886I0000276J0000000D01*
G01*
X0217283Y0175886D01*
G75*
G02*
X0217559Y0175610I0000000J-000276D01*
G01*
X0217559Y0173405D01*
G75*
G02*
X0217283Y0173130I-000276J0000000D01*
G01*
G37*
G36*
G01*
X0217283Y0179429D02*
X0214213Y0179429D01*
G75*
G02*
X0213937Y0179705I0000000J0000276D01*
G01*
X0213937Y0181909D01*
G75*
G02*
X0214213Y0182185I0000276J0000000D01*
G01*
X0217283Y0182185D01*
G75*
G02*
X0217559Y0181909I0000000J-000276D01*
G01*
X0217559Y0179705D01*
G75*
G02*
X0217283Y0179429I-000276J0000000D01*
G01*
G37*
G36*
G01*
X0176260Y0172539D02*
X0173189Y0172539D01*
G75*
G02*
X0172913Y0172815I0000000J0000276D01*
G01*
X0172913Y0175020D01*
G75*
G02*
X0173189Y0175295I0000276J0000000D01*
G01*
X0176260Y0175295D01*
G75*
G02*
X0176535Y0175020I0000000J-000276D01*
G01*
X0176535Y0172815D01*
G75*
G02*
X0176260Y0172539I-000276J0000000D01*
G01*
G37*
G36*
G01*
X0176260Y0178839D02*
X0173189Y0178839D01*
G75*
G02*
X0172913Y0179114I0000000J0000276D01*
G01*
X0172913Y0181319D01*
G75*
G02*
X0173189Y0181594I0000276J0000000D01*
G01*
X0176260Y0181594D01*
G75*
G02*
X0176535Y0181319I0000000J-000276D01*
G01*
X0176535Y0179114D01*
G75*
G02*
X0176260Y0178839I-000276J0000000D01*
G01*
G37*
D14*
X0062992Y0207480D03*
X0062992Y0211417D03*
X0062992Y0215354D03*
X0062992Y0219291D03*
X0062992Y0223228D03*
X0062992Y0227165D03*
X0025197Y0227165D03*
X0025197Y0223228D03*
X0025197Y0219291D03*
X0025197Y0215354D03*
X0025197Y0211417D03*
X0025197Y0207480D03*
D15*
X0044094Y0217323D03*
G36*
G01*
X0251609Y0205364D02*
X0253627Y0205364D01*
G75*
G02*
X0254488Y0204503I0000000J-000861D01*
G01*
X0254488Y0202780D01*
G75*
G02*
X0253627Y0201919I-000861J0000000D01*
G01*
X0251609Y0201919D01*
G75*
G02*
X0250748Y0202780I0000000J0000861D01*
G01*
X0250748Y0204503D01*
G75*
G02*
X0251609Y0205364I0000861J0000000D01*
G01*
G37*
G36*
G01*
X0251609Y0199163D02*
X0253627Y0199163D01*
G75*
G02*
X0254488Y0198302I0000000J-000861D01*
G01*
X0254488Y0196580D01*
G75*
G02*
X0253627Y0195718I-000861J0000000D01*
G01*
X0251609Y0195718D01*
G75*
G02*
X0250748Y0196580I0000000J0000861D01*
G01*
X0250748Y0198302D01*
G75*
G02*
X0251609Y0199163I0000861J0000000D01*
G01*
G37*
G36*
G01*
X0152047Y0187008D02*
X0150866Y0187008D01*
G75*
G02*
X0150276Y0187598I0000000J0000591D01*
G01*
X0150276Y0194094D01*
G75*
G02*
X0150866Y0194685I0000591J0000000D01*
G01*
X0152047Y0194685D01*
G75*
G02*
X0152638Y0194094I0000000J-000591D01*
G01*
X0152638Y0187598D01*
G75*
G02*
X0152047Y0187008I-000591J0000000D01*
G01*
G37*
G36*
G01*
X0157047Y0187008D02*
X0155866Y0187008D01*
G75*
G02*
X0155276Y0187598I0000000J0000591D01*
G01*
X0155276Y0194094D01*
G75*
G02*
X0155866Y0194685I0000591J0000000D01*
G01*
X0157047Y0194685D01*
G75*
G02*
X0157638Y0194094I0000000J-000591D01*
G01*
X0157638Y0187598D01*
G75*
G02*
X0157047Y0187008I-000591J0000000D01*
G01*
G37*
G36*
G01*
X0162047Y0187008D02*
X0160866Y0187008D01*
G75*
G02*
X0160276Y0187598I0000000J0000591D01*
G01*
X0160276Y0194094D01*
G75*
G02*
X0160866Y0194685I0000591J0000000D01*
G01*
X0162047Y0194685D01*
G75*
G02*
X0162638Y0194094I0000000J-000591D01*
G01*
X0162638Y0187598D01*
G75*
G02*
X0162047Y0187008I-000591J0000000D01*
G01*
G37*
G36*
G01*
X0167047Y0187008D02*
X0165866Y0187008D01*
G75*
G02*
X0165276Y0187598I0000000J0000591D01*
G01*
X0165276Y0194094D01*
G75*
G02*
X0165866Y0194685I0000591J0000000D01*
G01*
X0167047Y0194685D01*
G75*
G02*
X0167638Y0194094I0000000J-000591D01*
G01*
X0167638Y0187598D01*
G75*
G02*
X0167047Y0187008I-000591J0000000D01*
G01*
G37*
G36*
G01*
X0167047Y0206496D02*
X0165866Y0206496D01*
G75*
G02*
X0165276Y0207087I0000000J0000591D01*
G01*
X0165276Y0213583D01*
G75*
G02*
X0165866Y0214173I0000591J0000000D01*
G01*
X0167047Y0214173D01*
G75*
G02*
X0167638Y0213583I0000000J-000591D01*
G01*
X0167638Y0207087D01*
G75*
G02*
X0167047Y0206496I-000591J0000000D01*
G01*
G37*
G36*
G01*
X0162047Y0206496D02*
X0160866Y0206496D01*
G75*
G02*
X0160276Y0207087I0000000J0000591D01*
G01*
X0160276Y0213583D01*
G75*
G02*
X0160866Y0214173I0000591J0000000D01*
G01*
X0162047Y0214173D01*
G75*
G02*
X0162638Y0213583I0000000J-000591D01*
G01*
X0162638Y0207087D01*
G75*
G02*
X0162047Y0206496I-000591J0000000D01*
G01*
G37*
G36*
G01*
X0157047Y0206496D02*
X0155866Y0206496D01*
G75*
G02*
X0155276Y0207087I0000000J0000591D01*
G01*
X0155276Y0213583D01*
G75*
G02*
X0155866Y0214173I0000591J0000000D01*
G01*
X0157047Y0214173D01*
G75*
G02*
X0157638Y0213583I0000000J-000591D01*
G01*
X0157638Y0207087D01*
G75*
G02*
X0157047Y0206496I-000591J0000000D01*
G01*
G37*
G36*
G01*
X0152047Y0206496D02*
X0150866Y0206496D01*
G75*
G02*
X0150276Y0207087I0000000J0000591D01*
G01*
X0150276Y0213583D01*
G75*
G02*
X0150866Y0214173I0000591J0000000D01*
G01*
X0152047Y0214173D01*
G75*
G02*
X0152638Y0213583I0000000J-000591D01*
G01*
X0152638Y0207087D01*
G75*
G02*
X0152047Y0206496I-000591J0000000D01*
G01*
G37*
G36*
G01*
X0085039Y0230728D02*
X0085039Y0233445D01*
G75*
G02*
X0085945Y0234350I0000906J0000000D01*
G01*
X0091220Y0234350D01*
G75*
G02*
X0092126Y0233445I0000000J-000906D01*
G01*
X0092126Y0230728D01*
G75*
G02*
X0091220Y0229823I-000906J0000000D01*
G01*
X0085945Y0229823D01*
G75*
G02*
X0085039Y0230728I0000000J0000906D01*
G01*
G37*
G36*
G01*
X0085039Y0219311D02*
X0085039Y0222027D01*
G75*
G02*
X0085945Y0222933I0000906J0000000D01*
G01*
X0091220Y0222933D01*
G75*
G02*
X0092126Y0222027I0000000J-000906D01*
G01*
X0092126Y0219311D01*
G75*
G02*
X0091220Y0218405I-000906J0000000D01*
G01*
X0085945Y0218405D01*
G75*
G02*
X0085039Y0219311I0000000J0000906D01*
G01*
G37*
G36*
G01*
X0095079Y0005020D02*
X0095079Y0009941D01*
G75*
G02*
X0095472Y0010335I0000394J0000000D01*
G01*
X0098622Y0010335D01*
G75*
G02*
X0099016Y0009941I0000000J-000394D01*
G01*
X0099016Y0005020D01*
G75*
G02*
X0098622Y0004626I-000394J0000000D01*
G01*
X0095472Y0004626D01*
G75*
G02*
X0095079Y0005020I0000000J0000394D01*
G01*
G37*
G36*
G01*
X0102559Y0005020D02*
X0102559Y0009941D01*
G75*
G02*
X0102953Y0010335I0000394J0000000D01*
G01*
X0106102Y0010335D01*
G75*
G02*
X0106496Y0009941I0000000J-000394D01*
G01*
X0106496Y0005020D01*
G75*
G02*
X0106102Y0004626I-000394J0000000D01*
G01*
X0102953Y0004626D01*
G75*
G02*
X0102559Y0005020I0000000J0000394D01*
G01*
G37*
G36*
G01*
X0017126Y0213346D02*
X0017126Y0210276D01*
G75*
G02*
X0016850Y0210000I-000276J0000000D01*
G01*
X0014646Y0210000D01*
G75*
G02*
X0014370Y0210276I0000000J0000276D01*
G01*
X0014370Y0213346D01*
G75*
G02*
X0014646Y0213622I0000276J0000000D01*
G01*
X0016850Y0213622D01*
G75*
G02*
X0017126Y0213346I0000000J-000276D01*
G01*
G37*
G36*
G01*
X0010827Y0213346D02*
X0010827Y0210276D01*
G75*
G02*
X0010551Y0210000I-000276J0000000D01*
G01*
X0008346Y0210000D01*
G75*
G02*
X0008071Y0210276I0000000J0000276D01*
G01*
X0008071Y0213346D01*
G75*
G02*
X0008346Y0213622I0000276J0000000D01*
G01*
X0010551Y0213622D01*
G75*
G02*
X0010827Y0213346I0000000J-000276D01*
G01*
G37*
G36*
G01*
X0123661Y0217716D02*
X0119646Y0217716D01*
G75*
G02*
X0119291Y0218071I0000000J0000354D01*
G01*
X0119291Y0220905D01*
G75*
G02*
X0119646Y0221260I0000354J0000000D01*
G01*
X0123661Y0221260D01*
G75*
G02*
X0124016Y0220905I0000000J-000354D01*
G01*
X0124016Y0218071D01*
G75*
G02*
X0123661Y0217716I-000354J0000000D01*
G01*
G37*
G36*
G01*
X0123661Y0230709D02*
X0119646Y0230709D01*
G75*
G02*
X0119291Y0231063I0000000J0000354D01*
G01*
X0119291Y0233898D01*
G75*
G02*
X0119646Y0234252I0000354J0000000D01*
G01*
X0123661Y0234252D01*
G75*
G02*
X0124016Y0233898I0000000J-000354D01*
G01*
X0124016Y0231063D01*
G75*
G02*
X0123661Y0230709I-000354J0000000D01*
G01*
G37*
G36*
G01*
X0075197Y0230728D02*
X0075197Y0233445D01*
G75*
G02*
X0076102Y0234350I0000906J0000000D01*
G01*
X0081378Y0234350D01*
G75*
G02*
X0082283Y0233445I0000000J-000906D01*
G01*
X0082283Y0230728D01*
G75*
G02*
X0081378Y0229823I-000906J0000000D01*
G01*
X0076102Y0229823D01*
G75*
G02*
X0075197Y0230728I0000000J0000906D01*
G01*
G37*
G36*
G01*
X0075197Y0219311D02*
X0075197Y0222027D01*
G75*
G02*
X0076102Y0222933I0000906J0000000D01*
G01*
X0081378Y0222933D01*
G75*
G02*
X0082283Y0222027I0000000J-000906D01*
G01*
X0082283Y0219311D01*
G75*
G02*
X0081378Y0218405I-000906J0000000D01*
G01*
X0076102Y0218405D01*
G75*
G02*
X0075197Y0219311I0000000J0000906D01*
G01*
G37*
G36*
G01*
X0135472Y0217716D02*
X0131457Y0217716D01*
G75*
G02*
X0131102Y0218071I0000000J0000354D01*
G01*
X0131102Y0220905D01*
G75*
G02*
X0131457Y0221260I0000354J0000000D01*
G01*
X0135472Y0221260D01*
G75*
G02*
X0135827Y0220905I0000000J-000354D01*
G01*
X0135827Y0218071D01*
G75*
G02*
X0135472Y0217716I-000354J0000000D01*
G01*
G37*
G36*
G01*
X0135472Y0230709D02*
X0131457Y0230709D01*
G75*
G02*
X0131102Y0231063I0000000J0000354D01*
G01*
X0131102Y0233898D01*
G75*
G02*
X0131457Y0234252I0000354J0000000D01*
G01*
X0135472Y0234252D01*
G75*
G02*
X0135827Y0233898I0000000J-000354D01*
G01*
X0135827Y0231063D01*
G75*
G02*
X0135472Y0230709I-000354J0000000D01*
G01*
G37*
G36*
G01*
X0175374Y0187205D02*
X0174193Y0187205D01*
G75*
G02*
X0173602Y0187795I0000000J0000591D01*
G01*
X0173602Y0194291D01*
G75*
G02*
X0174193Y0194882I0000591J0000000D01*
G01*
X0175374Y0194882D01*
G75*
G02*
X0175965Y0194291I0000000J-000591D01*
G01*
X0175965Y0187795D01*
G75*
G02*
X0175374Y0187205I-000591J0000000D01*
G01*
G37*
G36*
G01*
X0180374Y0187205D02*
X0179193Y0187205D01*
G75*
G02*
X0178602Y0187795I0000000J0000591D01*
G01*
X0178602Y0194291D01*
G75*
G02*
X0179193Y0194882I0000591J0000000D01*
G01*
X0180374Y0194882D01*
G75*
G02*
X0180965Y0194291I0000000J-000591D01*
G01*
X0180965Y0187795D01*
G75*
G02*
X0180374Y0187205I-000591J0000000D01*
G01*
G37*
G36*
G01*
X0185374Y0187205D02*
X0184193Y0187205D01*
G75*
G02*
X0183602Y0187795I0000000J0000591D01*
G01*
X0183602Y0194291D01*
G75*
G02*
X0184193Y0194882I0000591J0000000D01*
G01*
X0185374Y0194882D01*
G75*
G02*
X0185965Y0194291I0000000J-000591D01*
G01*
X0185965Y0187795D01*
G75*
G02*
X0185374Y0187205I-000591J0000000D01*
G01*
G37*
G36*
G01*
X0190374Y0187205D02*
X0189193Y0187205D01*
G75*
G02*
X0188602Y0187795I0000000J0000591D01*
G01*
X0188602Y0194291D01*
G75*
G02*
X0189193Y0194882I0000591J0000000D01*
G01*
X0190374Y0194882D01*
G75*
G02*
X0190965Y0194291I0000000J-000591D01*
G01*
X0190965Y0187795D01*
G75*
G02*
X0190374Y0187205I-000591J0000000D01*
G01*
G37*
G36*
G01*
X0190374Y0206693D02*
X0189193Y0206693D01*
G75*
G02*
X0188602Y0207283I0000000J0000591D01*
G01*
X0188602Y0213779D01*
G75*
G02*
X0189193Y0214370I0000591J0000000D01*
G01*
X0190374Y0214370D01*
G75*
G02*
X0190965Y0213779I0000000J-000591D01*
G01*
X0190965Y0207283D01*
G75*
G02*
X0190374Y0206693I-000591J0000000D01*
G01*
G37*
G36*
G01*
X0185374Y0206693D02*
X0184193Y0206693D01*
G75*
G02*
X0183602Y0207283I0000000J0000591D01*
G01*
X0183602Y0213779D01*
G75*
G02*
X0184193Y0214370I0000591J0000000D01*
G01*
X0185374Y0214370D01*
G75*
G02*
X0185965Y0213779I0000000J-000591D01*
G01*
X0185965Y0207283D01*
G75*
G02*
X0185374Y0206693I-000591J0000000D01*
G01*
G37*
G36*
G01*
X0180374Y0206693D02*
X0179193Y0206693D01*
G75*
G02*
X0178602Y0207283I0000000J0000591D01*
G01*
X0178602Y0213779D01*
G75*
G02*
X0179193Y0214370I0000591J0000000D01*
G01*
X0180374Y0214370D01*
G75*
G02*
X0180965Y0213779I0000000J-000591D01*
G01*
X0180965Y0207283D01*
G75*
G02*
X0180374Y0206693I-000591J0000000D01*
G01*
G37*
G36*
G01*
X0175374Y0206693D02*
X0174193Y0206693D01*
G75*
G02*
X0173602Y0207283I0000000J0000591D01*
G01*
X0173602Y0213779D01*
G75*
G02*
X0174193Y0214370I0000591J0000000D01*
G01*
X0175374Y0214370D01*
G75*
G02*
X0175965Y0213779I0000000J-000591D01*
G01*
X0175965Y0207283D01*
G75*
G02*
X0175374Y0206693I-000591J0000000D01*
G01*
G37*
G36*
G01*
X0258696Y0205413D02*
X0260714Y0205413D01*
G75*
G02*
X0261575Y0204552I0000000J-000861D01*
G01*
X0261575Y0202830D01*
G75*
G02*
X0260714Y0201968I-000861J0000000D01*
G01*
X0258696Y0201968D01*
G75*
G02*
X0257835Y0202830I0000000J0000861D01*
G01*
X0257835Y0204552D01*
G75*
G02*
X0258696Y0205413I0000861J0000000D01*
G01*
G37*
G36*
G01*
X0258696Y0199213D02*
X0260714Y0199213D01*
G75*
G02*
X0261575Y0198351I0000000J-000861D01*
G01*
X0261575Y0196629D01*
G75*
G02*
X0260714Y0195768I-000861J0000000D01*
G01*
X0258696Y0195768D01*
G75*
G02*
X0257835Y0196629I0000000J0000861D01*
G01*
X0257835Y0198351D01*
G75*
G02*
X0258696Y0199213I0000861J0000000D01*
G01*
G37*
G36*
G01*
X0242342Y0173228D02*
X0239272Y0173228D01*
G75*
G02*
X0238996Y0173504I0000000J0000276D01*
G01*
X0238996Y0175709D01*
G75*
G02*
X0239272Y0175984I0000276J0000000D01*
G01*
X0242342Y0175984D01*
G75*
G02*
X0242618Y0175709I0000000J-000276D01*
G01*
X0242618Y0173504D01*
G75*
G02*
X0242342Y0173228I-000276J0000000D01*
G01*
G37*
G36*
G01*
X0242342Y0179528D02*
X0239272Y0179528D01*
G75*
G02*
X0238996Y0179803I0000000J0000276D01*
G01*
X0238996Y0182008D01*
G75*
G02*
X0239272Y0182283I0000276J0000000D01*
G01*
X0242342Y0182283D01*
G75*
G02*
X0242618Y0182008I0000000J-000276D01*
G01*
X0242618Y0179803D01*
G75*
G02*
X0242342Y0179528I-000276J0000000D01*
G01*
G37*
G36*
G01*
X0236043Y0173228D02*
X0232972Y0173228D01*
G75*
G02*
X0232697Y0173504I0000000J0000276D01*
G01*
X0232697Y0175709D01*
G75*
G02*
X0232972Y0175984I0000276J0000000D01*
G01*
X0236043Y0175984D01*
G75*
G02*
X0236319Y0175709I0000000J-000276D01*
G01*
X0236319Y0173504D01*
G75*
G02*
X0236043Y0173228I-000276J0000000D01*
G01*
G37*
G36*
G01*
X0236043Y0179528D02*
X0232972Y0179528D01*
G75*
G02*
X0232697Y0179803I0000000J0000276D01*
G01*
X0232697Y0182008D01*
G75*
G02*
X0232972Y0182283I0000276J0000000D01*
G01*
X0236043Y0182283D01*
G75*
G02*
X0236319Y0182008I0000000J-000276D01*
G01*
X0236319Y0179803D01*
G75*
G02*
X0236043Y0179528I-000276J0000000D01*
G01*
G37*
G36*
G01*
X0186496Y0172933D02*
X0183425Y0172933D01*
G75*
G02*
X0183150Y0173209I0000000J0000276D01*
G01*
X0183150Y0175413D01*
G75*
G02*
X0183425Y0175689I0000276J0000000D01*
G01*
X0186496Y0175689D01*
G75*
G02*
X0186772Y0175413I0000000J-000276D01*
G01*
X0186772Y0173209D01*
G75*
G02*
X0186496Y0172933I-000276J0000000D01*
G01*
G37*
G36*
G01*
X0186496Y0179232D02*
X0183425Y0179232D01*
G75*
G02*
X0183150Y0179508I0000000J0000276D01*
G01*
X0183150Y0181713D01*
G75*
G02*
X0183425Y0181988I0000276J0000000D01*
G01*
X0186496Y0181988D01*
G75*
G02*
X0186772Y0181713I0000000J-000276D01*
G01*
X0186772Y0179508D01*
G75*
G02*
X0186496Y0179232I-000276J0000000D01*
G01*
G37*
G36*
G01*
X0098819Y0230728D02*
X0098819Y0233445D01*
G75*
G02*
X0099724Y0234350I0000906J0000000D01*
G01*
X0105000Y0234350D01*
G75*
G02*
X0105905Y0233445I0000000J-000906D01*
G01*
X0105905Y0230728D01*
G75*
G02*
X0105000Y0229823I-000906J0000000D01*
G01*
X0099724Y0229823D01*
G75*
G02*
X0098819Y0230728I0000000J0000906D01*
G01*
G37*
G36*
G01*
X0098819Y0219311D02*
X0098819Y0222027D01*
G75*
G02*
X0099724Y0222933I0000906J0000000D01*
G01*
X0105000Y0222933D01*
G75*
G02*
X0105905Y0222027I0000000J-000906D01*
G01*
X0105905Y0219311D01*
G75*
G02*
X0105000Y0218405I-000906J0000000D01*
G01*
X0099724Y0218405D01*
G75*
G02*
X0098819Y0219311I0000000J0000906D01*
G01*
G37*
G36*
G01*
X0199567Y0172933D02*
X0196496Y0172933D01*
G75*
G02*
X0196220Y0173209I0000000J0000276D01*
G01*
X0196220Y0175413D01*
G75*
G02*
X0196496Y0175689I0000276J0000000D01*
G01*
X0199567Y0175689D01*
G75*
G02*
X0199842Y0175413I0000000J-000276D01*
G01*
X0199842Y0173209D01*
G75*
G02*
X0199567Y0172933I-000276J0000000D01*
G01*
G37*
G36*
G01*
X0199567Y0179232D02*
X0196496Y0179232D01*
G75*
G02*
X0196220Y0179508I0000000J0000276D01*
G01*
X0196220Y0181713D01*
G75*
G02*
X0196496Y0181988I0000276J0000000D01*
G01*
X0199567Y0181988D01*
G75*
G02*
X0199842Y0181713I0000000J-000276D01*
G01*
X0199842Y0179508D01*
G75*
G02*
X0199567Y0179232I-000276J0000000D01*
G01*
G37*
G36*
G01*
X0007854Y0220709D02*
X0007854Y0223386D01*
G75*
G02*
X0008189Y0223720I0000335J0000000D01*
G01*
X0010866Y0223720D01*
G75*
G02*
X0011201Y0223386I0000000J-000335D01*
G01*
X0011201Y0220709D01*
G75*
G02*
X0010866Y0220374I-000335J0000000D01*
G01*
X0008189Y0220374D01*
G75*
G02*
X0007854Y0220709I0000000J0000335D01*
G01*
G37*
G36*
G01*
X0014075Y0220709D02*
X0014075Y0223386D01*
G75*
G02*
X0014409Y0223720I0000335J0000000D01*
G01*
X0017087Y0223720D01*
G75*
G02*
X0017421Y0223386I0000000J-000335D01*
G01*
X0017421Y0220709D01*
G75*
G02*
X0017087Y0220374I-000335J0000000D01*
G01*
X0014409Y0220374D01*
G75*
G02*
X0014075Y0220709I0000000J0000335D01*
G01*
G37*
G36*
G01*
X0244090Y0205413D02*
X0246107Y0205413D01*
G75*
G02*
X0246968Y0204552I0000000J-000861D01*
G01*
X0246968Y0202830D01*
G75*
G02*
X0246107Y0201968I-000861J0000000D01*
G01*
X0244090Y0201968D01*
G75*
G02*
X0243228Y0202830I0000000J0000861D01*
G01*
X0243228Y0204552D01*
G75*
G02*
X0244090Y0205413I0000861J0000000D01*
G01*
G37*
G36*
G01*
X0244090Y0199213D02*
X0246107Y0199213D01*
G75*
G02*
X0246968Y0198351I0000000J-000861D01*
G01*
X0246968Y0196629D01*
G75*
G02*
X0246107Y0195768I-000861J0000000D01*
G01*
X0244090Y0195768D01*
G75*
G02*
X0243228Y0196629I0000000J0000861D01*
G01*
X0243228Y0198351D01*
G75*
G02*
X0244090Y0199213I0000861J0000000D01*
G01*
G37*
G36*
G01*
X0223445Y0173228D02*
X0220374Y0173228D01*
G75*
G02*
X0220098Y0173504I0000000J0000276D01*
G01*
X0220098Y0175709D01*
G75*
G02*
X0220374Y0175984I0000276J0000000D01*
G01*
X0223445Y0175984D01*
G75*
G02*
X0223720Y0175709I0000000J-000276D01*
G01*
X0223720Y0173504D01*
G75*
G02*
X0223445Y0173228I-000276J0000000D01*
G01*
G37*
G36*
G01*
X0223445Y0179528D02*
X0220374Y0179528D01*
G75*
G02*
X0220098Y0179803I0000000J0000276D01*
G01*
X0220098Y0182008D01*
G75*
G02*
X0220374Y0182283I0000276J0000000D01*
G01*
X0223445Y0182283D01*
G75*
G02*
X0223720Y0182008I0000000J-000276D01*
G01*
X0223720Y0179803D01*
G75*
G02*
X0223445Y0179528I-000276J0000000D01*
G01*
G37*
G36*
G01*
X0162716Y0172539D02*
X0159646Y0172539D01*
G75*
G02*
X0159370Y0172815I0000000J0000276D01*
G01*
X0159370Y0175020D01*
G75*
G02*
X0159646Y0175295I0000276J0000000D01*
G01*
X0162716Y0175295D01*
G75*
G02*
X0162992Y0175020I0000000J-000276D01*
G01*
X0162992Y0172815D01*
G75*
G02*
X0162716Y0172539I-000276J0000000D01*
G01*
G37*
G36*
G01*
X0162716Y0178839D02*
X0159646Y0178839D01*
G75*
G02*
X0159370Y0179114I0000000J0000276D01*
G01*
X0159370Y0181319D01*
G75*
G02*
X0159646Y0181594I0000276J0000000D01*
G01*
X0162716Y0181594D01*
G75*
G02*
X0162992Y0181319I0000000J-000276D01*
G01*
X0162992Y0179114D01*
G75*
G02*
X0162716Y0178839I-000276J0000000D01*
G01*
G37*
X0272638Y0015551D02*
G01*
G75*
D26*
X0131299Y0068898D02*
D03*
D25*
X0131299Y0055118D02*
D03*
D28*
X0237402Y0149016D02*
D03*
D23*
X0131299Y0107283D02*
D03*
X0272244Y0023031D02*
D03*
D24*
X0272244Y0136811D02*
D03*
X0131299Y0031299D02*
D03*
D21*
X0236614Y0015945D02*
D03*
D22*
X0268110Y0015945D02*
D03*
D20*
X0182874Y0015945D02*
D03*
D29*
X0260236Y0149016D02*
D03*
D27*
X0144685Y0149016D02*
D03*
D18*
X0165355Y0015945D02*
D03*
X0141339Y0015945D02*
D03*
D19*
X0153347Y0015945D02*
D03*
X0178937Y0149016D02*
D03*
D213*
X0254548Y0139173D02*
D03*
X0254548Y0146260D02*
D03*
X0264587Y0146260D02*
D03*
X0264587Y0139173D02*
D03*
X0205807Y0027362D02*
D03*
X0205807Y0020275D02*
D03*
X0215847Y0020275D02*
D03*
X0215847Y0027362D02*
D03*
X0199705Y0027362D02*
D03*
X0199705Y0020275D02*
D03*
X0189665Y0020275D02*
D03*
X0189665Y0027362D02*
D03*
D214*
X0257992Y0139173D02*
D03*
X0261142Y0139173D02*
D03*
X0261142Y0146260D02*
D03*
X0257992Y0146260D02*
D03*
X0212402Y0020275D02*
D03*
X0209252Y0020275D02*
D03*
X0209252Y0027362D02*
D03*
X0212402Y0027362D02*
D03*
X0196260Y0027362D02*
D03*
X0193110Y0027362D02*
D03*
X0193110Y0020275D02*
D03*
X0196260Y0020275D02*
D03*
D215*
X0257544Y0134961D02*
D03*
X0254985Y0134961D02*
D03*
X0252425Y0134961D02*
D03*
X0257544Y0127481D02*
D03*
X0252425Y0127481D02*
D03*
X0254985Y0127481D02*
D03*
X0262169Y0127481D02*
D03*
X0267288Y0127481D02*
D03*
X0262169Y0134961D02*
D03*
X0264729Y0134961D02*
D03*
X0267288Y0134961D02*
D03*
X0264729Y0127481D02*
D03*
D81*
X0158268Y0067753D02*
D03*
X0160236Y0067753D02*
D03*
X0162205Y0067753D02*
D03*
X0164173Y0067753D02*
D03*
X0166142Y0067753D02*
D03*
X0168110Y0067753D02*
D03*
X0170079Y0067753D02*
D03*
X0172047Y0067753D02*
D03*
X0174016Y0067753D02*
D03*
X0177953Y0067753D02*
D03*
X0179922Y0067753D02*
D03*
X0181890Y0067753D02*
D03*
X0183859Y0067753D02*
D03*
X0185827Y0067753D02*
D03*
X0187796Y0067753D02*
D03*
X0189764Y0067753D02*
D03*
X0191733Y0067753D02*
D03*
X0193701Y0067753D02*
D03*
X0195670Y0067753D02*
D03*
X0197638Y0067753D02*
D03*
X0199606Y0067753D02*
D03*
X0201575Y0067753D02*
D03*
X0203543Y0067753D02*
D03*
X0205512Y0067753D02*
D03*
X0205512Y0128777D02*
D03*
X0203543Y0128777D02*
D03*
X0201575Y0128777D02*
D03*
X0199606Y0128777D02*
D03*
X0197638Y0128777D02*
D03*
X0195670Y0128777D02*
D03*
X0193701Y0128777D02*
D03*
X0191733Y0128777D02*
D03*
X0189764Y0128777D02*
D03*
X0187796Y0128777D02*
D03*
X0185827Y0128777D02*
D03*
X0183859Y0128777D02*
D03*
X0181890Y0128777D02*
D03*
X0179922Y0128777D02*
D03*
X0177953Y0128777D02*
D03*
X0175985Y0128777D02*
D03*
X0174016Y0128777D02*
D03*
X0172047Y0128777D02*
D03*
X0170079Y0128777D02*
D03*
X0168110Y0128777D02*
D03*
X0166142Y0128777D02*
D03*
X0164173Y0128777D02*
D03*
X0162205Y0128777D02*
D03*
X0158268Y0128777D02*
D03*
X0175985Y0067753D02*
D03*
X0160236Y0128777D02*
D03*
D80*
X0212402Y0074643D02*
D03*
X0212402Y0078580D02*
D03*
X0212402Y0080549D02*
D03*
X0212402Y0082517D02*
D03*
X0212402Y0084486D02*
D03*
X0212402Y0086454D02*
D03*
X0212402Y0088423D02*
D03*
X0212402Y0090391D02*
D03*
X0212402Y0092360D02*
D03*
X0212402Y0094328D02*
D03*
X0212402Y0096297D02*
D03*
X0212402Y0098265D02*
D03*
X0212402Y0100234D02*
D03*
X0212402Y0102202D02*
D03*
X0212402Y0104171D02*
D03*
X0212402Y0106139D02*
D03*
X0212402Y0108108D02*
D03*
X0212402Y0110076D02*
D03*
X0212402Y0112045D02*
D03*
X0212402Y0114013D02*
D03*
X0212402Y0115982D02*
D03*
X0212402Y0117950D02*
D03*
X0212402Y0119919D02*
D03*
X0212402Y0121887D02*
D03*
X0151378Y0121887D02*
D03*
X0151378Y0119919D02*
D03*
X0151378Y0117950D02*
D03*
X0151378Y0115982D02*
D03*
X0151378Y0114013D02*
D03*
X0151378Y0112045D02*
D03*
X0151378Y0110076D02*
D03*
X0151378Y0108108D02*
D03*
X0151378Y0106139D02*
D03*
X0151378Y0104171D02*
D03*
X0151378Y0102202D02*
D03*
X0151378Y0100234D02*
D03*
X0151378Y0098265D02*
D03*
X0151378Y0096297D02*
D03*
X0151378Y0094328D02*
D03*
X0151378Y0092360D02*
D03*
X0151378Y0090391D02*
D03*
X0151378Y0088423D02*
D03*
X0151378Y0086454D02*
D03*
X0151378Y0084486D02*
D03*
X0151378Y0082517D02*
D03*
X0151378Y0080549D02*
D03*
X0151378Y0078580D02*
D03*
X0151378Y0076612D02*
D03*
X0151378Y0074643D02*
D03*
X0212402Y0076612D02*
D03*
D216*
X0229331Y0071260D02*
D03*
X0229331Y0099212D02*
D03*
X0229331Y0043307D02*
D03*
X0234449Y0048819D02*
D03*
X0224213Y0076772D02*
D03*
X0226772Y0076772D02*
D03*
X0229331Y0076772D02*
D03*
X0231890Y0076772D02*
D03*
X0234449Y0076772D02*
D03*
X0237008Y0076772D02*
D03*
X0239567Y0076772D02*
D03*
X0224213Y0099212D02*
D03*
X0226772Y0099212D02*
D03*
X0231890Y0099212D02*
D03*
X0234449Y0099212D02*
D03*
X0237008Y0099212D02*
D03*
X0239567Y0099212D02*
D03*
X0224213Y0020866D02*
D03*
X0226772Y0020866D02*
D03*
X0229331Y0020866D02*
D03*
X0231890Y0020866D02*
D03*
X0234449Y0020866D02*
D03*
X0237008Y0020866D02*
D03*
X0239567Y0020866D02*
D03*
X0224213Y0043307D02*
D03*
X0226772Y0043307D02*
D03*
X0231890Y0043307D02*
D03*
X0234449Y0043307D02*
D03*
X0237008Y0043307D02*
D03*
X0239567Y0043307D02*
D03*
X0224213Y0048819D02*
D03*
X0226772Y0048819D02*
D03*
X0229331Y0048819D02*
D03*
X0231890Y0048819D02*
D03*
X0237008Y0048819D02*
D03*
X0239567Y0048819D02*
D03*
X0224213Y0071260D02*
D03*
X0226772Y0071260D02*
D03*
X0231890Y0071260D02*
D03*
X0234449Y0071260D02*
D03*
X0237008Y0071260D02*
D03*
X0239567Y0071260D02*
D03*
X0239567Y0127165D02*
D03*
X0237008Y0127165D02*
D03*
X0234449Y0127165D02*
D03*
X0231890Y0127165D02*
D03*
X0229331Y0127165D02*
D03*
X0226772Y0127165D02*
D03*
X0224213Y0127165D02*
D03*
X0239567Y0104724D02*
D03*
X0237008Y0104724D02*
D03*
X0234449Y0104724D02*
D03*
X0231890Y0104724D02*
D03*
X0229331Y0104724D02*
D03*
X0226772Y0104724D02*
D03*
X0224213Y0104724D02*
D03*
D217*
X0137205Y0139960D02*
D03*
X0137205Y0143701D02*
D03*
X0137205Y0136220D02*
D03*
X0146654Y0136220D02*
D03*
X0146654Y0139960D02*
D03*
X0146654Y0143701D02*
D03*
D218*
X0158465Y0141410D02*
D03*
X0153740Y0141410D02*
D03*
X0168012Y0139941D02*
D03*
X0141227Y0053401D02*
D03*
X0217093Y0066713D02*
D03*
X0158465Y0137474D02*
D03*
X0168012Y0143879D02*
D03*
X0204996Y0138579D02*
D03*
X0204996Y0142516D02*
D03*
X0214051Y0138579D02*
D03*
X0214051Y0142516D02*
D03*
X0153740Y0137474D02*
D03*
X0141227Y0057338D02*
D03*
X0157942Y0050261D02*
D03*
X0157942Y0054198D02*
D03*
X0217093Y0070650D02*
D03*
X0212797Y0070669D02*
D03*
X0212797Y0066732D02*
D03*
D86*
X0176647Y0143867D02*
D03*
X0178615Y0143867D02*
D03*
X0174678Y0137568D02*
D03*
X0176647Y0137568D02*
D03*
X0172710Y0137568D02*
D03*
X0178615Y0137568D02*
D03*
X0172710Y0143867D02*
D03*
X0174678Y0143867D02*
D03*
D85*
X0178812Y0141702D02*
D03*
X0178812Y0139733D02*
D03*
X0172513Y0139733D02*
D03*
X0172513Y0141702D02*
D03*
D219*
X0183662Y0138962D02*
D03*
X0200197Y0138962D02*
D03*
D220*
X0256103Y0110433D02*
D03*
X0256103Y0119882D02*
D03*
X0256103Y0115157D02*
D03*
X0256103Y0105709D02*
D03*
X0267520Y0119882D02*
D03*
X0267520Y0110433D02*
D03*
X0267520Y0115157D02*
D03*
X0267520Y0105709D02*
D03*
X0249123Y0099499D02*
D03*
X0245186Y0099499D02*
D03*
X0263583Y0105709D02*
D03*
D03*
X0259646Y0105709D02*
D03*
X0263583Y0110433D02*
D03*
X0259646Y0110433D02*
D03*
X0252166Y0105709D02*
D03*
X0263583Y0115157D02*
D03*
X0259646Y0115157D02*
D03*
X0252166Y0110433D02*
D03*
X0252166Y0115157D02*
D03*
X0263583Y0119882D02*
D03*
X0259646Y0119882D02*
D03*
X0263583Y0119882D02*
D03*
X0252166Y0119882D02*
D03*
X0263583Y0110433D02*
D03*
X0263583Y0115157D02*
D03*
X0261221Y0019685D02*
D03*
X0265158Y0019685D02*
D03*
X0263583Y0044291D02*
D03*
X0267520Y0044291D02*
D03*
X0263583Y0058464D02*
D03*
X0267520Y0058464D02*
D03*
X0259646Y0077362D02*
D03*
X0263583Y0077362D02*
D03*
X0267520Y0077362D02*
D03*
X0263583Y0077362D02*
D03*
X0259646Y0091535D02*
D03*
X0263583Y0091535D02*
D03*
X0244488Y0019685D02*
D03*
X0248425Y0019685D02*
D03*
X0263583Y0025394D02*
D03*
X0259646Y0025394D02*
D03*
X0263583Y0030118D02*
D03*
X0259646Y0030118D02*
D03*
X0263583Y0034842D02*
D03*
X0259646Y0034842D02*
D03*
X0263583Y0039567D02*
D03*
X0259646Y0039567D02*
D03*
X0263583Y0025394D02*
D03*
X0267520Y0025394D02*
D03*
X0263583Y0030118D02*
D03*
X0267520Y0030118D02*
D03*
X0263583Y0034842D02*
D03*
X0267520Y0034842D02*
D03*
X0263583Y0039567D02*
D03*
X0267520Y0039567D02*
D03*
X0263583Y0044291D02*
D03*
X0259646Y0044291D02*
D03*
X0263583Y0049016D02*
D03*
X0259646Y0049016D02*
D03*
X0263583Y0053740D02*
D03*
X0259646Y0053740D02*
D03*
X0263583Y0058464D02*
D03*
X0259646Y0058464D02*
D03*
X0263583Y0049016D02*
D03*
X0267520Y0049016D02*
D03*
X0263583Y0053740D02*
D03*
X0267520Y0053740D02*
D03*
X0259646Y0063189D02*
D03*
X0263583Y0063189D02*
D03*
X0259646Y0067913D02*
D03*
X0263583Y0067913D02*
D03*
X0259646Y0072638D02*
D03*
X0263583Y0072638D02*
D03*
X0267520Y0063189D02*
D03*
X0263583Y0063189D02*
D03*
X0267520Y0067913D02*
D03*
X0263583Y0067913D02*
D03*
X0267520Y0072638D02*
D03*
X0263583Y0072638D02*
D03*
X0259646Y0082087D02*
D03*
X0263583Y0082087D02*
D03*
X0259646Y0086811D02*
D03*
X0263583Y0086811D02*
D03*
X0259646Y0096260D02*
D03*
X0263583Y0096260D02*
D03*
X0267520Y0082087D02*
D03*
X0263583Y0082087D02*
D03*
X0267520Y0086811D02*
D03*
X0263583Y0086811D02*
D03*
X0267520Y0091535D02*
D03*
X0263583Y0091535D02*
D03*
X0267520Y0096260D02*
D03*
X0263583Y0096260D02*
D03*
X0253544Y0019685D02*
D03*
X0257481Y0019685D02*
D03*
D221*
X0250591Y0084449D02*
D03*
X0250591Y0065551D02*
D03*
X0250591Y0046653D02*
D03*
X0250591Y0027756D02*
D03*
X0246851Y0056102D02*
D03*
X0250591Y0056102D02*
D03*
X0254331Y0056102D02*
D03*
X0254331Y0046653D02*
D03*
X0246851Y0046653D02*
D03*
X0246851Y0037205D02*
D03*
X0250591Y0037205D02*
D03*
X0254331Y0037205D02*
D03*
X0254331Y0027756D02*
D03*
X0246851Y0027756D02*
D03*
X0246851Y0075000D02*
D03*
X0250591Y0075000D02*
D03*
X0254331Y0075000D02*
D03*
X0254331Y0065551D02*
D03*
X0246851Y0065551D02*
D03*
X0246851Y0093898D02*
D03*
X0250591Y0093898D02*
D03*
X0254331Y0093898D02*
D03*
X0254331Y0084449D02*
D03*
X0246851Y0084449D02*
D03*
D222*
X0153556Y0050464D02*
D03*
X0143307Y0068386D02*
D03*
D223*
X0178679Y0041142D02*
D03*
X0183679Y0022244D02*
D03*
X0168679Y0022244D02*
D03*
X0173679Y0022244D02*
D03*
X0178679Y0022244D02*
D03*
X0168679Y0041142D02*
D03*
X0173679Y0041142D02*
D03*
X0183679Y0041142D02*
D03*
D224*
X0161038Y0022834D02*
D03*
X0161038Y0040945D02*
D03*
D225*
X0192564Y0057296D02*
D03*
X0193112Y0041087D02*
D03*
X0200724Y0057773D02*
D03*
X0208335Y0057773D02*
D03*
X0200724Y0041087D02*
D03*
X0208335Y0041087D02*
D03*
X0215947Y0057773D02*
D03*
X0215947Y0041087D02*
D03*
X0192564Y0050603D02*
D03*
X0200724Y0051080D02*
D03*
X0208335Y0051080D02*
D03*
X0215947Y0051080D02*
D03*
X0200724Y0034394D02*
D03*
X0193112Y0034394D02*
D03*
X0184587Y0050603D02*
D03*
X0184587Y0057296D02*
D03*
X0177500Y0057296D02*
D03*
X0177500Y0050603D02*
D03*
X0170414Y0050603D02*
D03*
X0170414Y0057296D02*
D03*
X0163327Y0057296D02*
D03*
X0163327Y0050603D02*
D03*
X0208335Y0034394D02*
D03*
X0215947Y0034394D02*
D03*
X0135827Y0057296D02*
D03*
X0135827Y0050603D02*
D03*
D226*
X0163240Y0143970D02*
D03*
X0163240Y0137670D02*
D03*
X0209681Y0136610D02*
D03*
X0209681Y0142910D02*
D03*
D227*
X0140298Y0103345D02*
D03*
X0140298Y0086810D02*
D03*
D222*
X0135827Y0068386D02*
D03*
X0139567Y0077638D02*
D03*
X0146076Y0050464D02*
D03*
X0149816Y0059716D02*
D03*
D228*
X0136628Y0031890D02*
D03*
D229*
X0161038Y0031890D02*
D03*
D47*
X0263583Y0101181D02*
D03*
X0269488Y0020275D02*
D03*
D230*
X0245841Y0138372D02*
D03*
X0228125Y0138372D02*
D03*
X0105561Y0149803D02*
%LPD*%
G01*
D173*
X0071703Y0136811D03*
X0071703Y0138779D03*
X0071703Y0140748D03*
X0071703Y0142716D03*
X0071703Y0144685D03*
X0054380Y0144685D03*
X0054380Y0142716D03*
X0054380Y0140748D03*
X0054380Y0138779D03*
X0054380Y0136811D03*
G36*
G01*
X0064183Y0123622D02*
X0061112Y0123622D01*
G75*
G02*
X0060837Y0123897I0000000J0000276D01*
G01*
X0060837Y0126102D01*
G75*
G02*
X0061112Y0126378I0000276J0000000D01*
G01*
X0064183Y0126378D01*
G75*
G02*
X0064459Y0126102I0000000J-000276D01*
G01*
X0064459Y0123897D01*
G75*
G02*
X0064183Y0123622I-000276J0000000D01*
G01*
G37*
G36*
G01*
X0064183Y0129921D02*
X0061112Y0129921D01*
G75*
G02*
X0060837Y0130197I0000000J0000276D01*
G01*
X0060837Y0132401D01*
G75*
G02*
X0061112Y0132677I0000276J0000000D01*
G01*
X0064183Y0132677D01*
G75*
G02*
X0064459Y0132401I0000000J-000276D01*
G01*
X0064459Y0130197D01*
G75*
G02*
X0064183Y0129921I-000276J0000000D01*
G01*
G37*
G36*
G01*
X0049852Y0116968D02*
X0049852Y0120039D01*
G75*
G02*
X0050128Y0120315I0000276J0000000D01*
G01*
X0052333Y0120315D01*
G75*
G02*
X0052608Y0120039I0000000J-000276D01*
G01*
X0052608Y0116968D01*
G75*
G02*
X0052333Y0116693I-000276J0000000D01*
G01*
X0050128Y0116693D01*
G75*
G02*
X0049852Y0116968I0000000J0000276D01*
G01*
G37*
G36*
G01*
X0056152Y0116968D02*
X0056152Y0120039D01*
G75*
G02*
X0056427Y0120315I0000276J0000000D01*
G01*
X0058632Y0120315D01*
G75*
G02*
X0058907Y0120039I0000000J-000276D01*
G01*
X0058907Y0116968D01*
G75*
G02*
X0058632Y0116693I-000276J0000000D01*
G01*
X0056427Y0116693D01*
G75*
G02*
X0056152Y0116968I0000000J0000276D01*
G01*
G37*
G36*
G01*
X0070089Y0123622D02*
X0067018Y0123622D01*
G75*
G02*
X0066742Y0123897I0000000J0000276D01*
G01*
X0066742Y0126102D01*
G75*
G02*
X0067018Y0126378I0000276J0000000D01*
G01*
X0070089Y0126378D01*
G75*
G02*
X0070364Y0126102I0000000J-000276D01*
G01*
X0070364Y0123897D01*
G75*
G02*
X0070089Y0123622I-000276J0000000D01*
G01*
G37*
G36*
G01*
X0070089Y0129921D02*
X0067018Y0129921D01*
G75*
G02*
X0066742Y0130197I0000000J0000276D01*
G01*
X0066742Y0132401D01*
G75*
G02*
X0067018Y0132677I0000276J0000000D01*
G01*
X0070089Y0132677D01*
G75*
G02*
X0070364Y0132401I0000000J-000276D01*
G01*
X0070364Y0130197D01*
G75*
G02*
X0070089Y0129921I-000276J0000000D01*
G01*
G37*
G36*
G01*
X0061762Y0117298D02*
X0061762Y0119316D01*
G75*
G02*
X0062623Y0120177I0000861J0000000D01*
G01*
X0064345Y0120177D01*
G75*
G02*
X0065207Y0119316I0000000J-000861D01*
G01*
X0065207Y0117298D01*
G75*
G02*
X0064345Y0116437I-000861J0000000D01*
G01*
X0062623Y0116437D01*
G75*
G02*
X0061762Y0117298I0000000J0000861D01*
G01*
G37*
G36*
G01*
X0067963Y0117298D02*
X0067963Y0119316D01*
G75*
G02*
X0068824Y0120177I0000861J0000000D01*
G01*
X0070546Y0120177D01*
G75*
G02*
X0071407Y0119316I0000000J-000861D01*
G01*
X0071407Y0117298D01*
G75*
G02*
X0070546Y0116437I-000861J0000000D01*
G01*
X0068824Y0116437D01*
G75*
G02*
X0067963Y0117298I0000000J0000861D01*
G01*
G37*
G36*
G01*
X0055817Y0124260D02*
X0055817Y0126937D01*
G75*
G02*
X0056152Y0127272I0000335J0000000D01*
G01*
X0058829Y0127272D01*
G75*
G02*
X0059163Y0126937I0000000J-000335D01*
G01*
X0059163Y0124260D01*
G75*
G02*
X0058829Y0123925I-000335J0000000D01*
G01*
X0056152Y0123925D01*
G75*
G02*
X0055817Y0124260I0000000J0000335D01*
G01*
G37*
G36*
G01*
X0049596Y0124260D02*
X0049596Y0126937D01*
G75*
G02*
X0049931Y0127272I0000335J0000000D01*
G01*
X0052608Y0127272D01*
G75*
G02*
X0052943Y0126937I0000000J-000335D01*
G01*
X0052943Y0124260D01*
G75*
G02*
X0052608Y0123925I-000335J0000000D01*
G01*
X0049931Y0123925D01*
G75*
G02*
X0049596Y0124260I0000000J0000335D01*
G01*
G37*
G36*
G01*
X0049596Y0129567D02*
X0049596Y0132244D01*
G75*
G02*
X0049931Y0132579I0000335J0000000D01*
G01*
X0052608Y0132579D01*
G75*
G02*
X0052943Y0132244I0000000J-000335D01*
G01*
X0052943Y0129567D01*
G75*
G02*
X0052608Y0129232I-000335J0000000D01*
G01*
X0049931Y0129232D01*
G75*
G02*
X0049596Y0129567I0000000J0000335D01*
G01*
G37*
G36*
G01*
X0055817Y0129567D02*
X0055817Y0132244D01*
G75*
G02*
X0056152Y0132579I0000335J0000000D01*
G01*
X0058829Y0132579D01*
G75*
G02*
X0059163Y0132244I0000000J-000335D01*
G01*
X0059163Y0129567D01*
G75*
G02*
X0058829Y0129232I-000335J0000000D01*
G01*
X0056152Y0129232D01*
G75*
G02*
X0055817Y0129567I0000000J0000335D01*
G01*
G37*
G36*
G01*
X0075010Y0123366D02*
X0072333Y0123366D01*
G75*
G02*
X0071998Y0123701I0000000J0000335D01*
G01*
X0071998Y0126378D01*
G75*
G02*
X0072333Y0126712I0000335J0000000D01*
G01*
X0075010Y0126712D01*
G75*
G02*
X0075344Y0126378I0000000J-000335D01*
G01*
X0075344Y0123701D01*
G75*
G02*
X0075010Y0123366I-000335J0000000D01*
G01*
G37*
G36*
G01*
X0075010Y0129586D02*
X0072333Y0129586D01*
G75*
G02*
X0071998Y0129921I0000000J0000335D01*
G01*
X0071998Y0132598D01*
G75*
G02*
X0072333Y0132933I0000335J0000000D01*
G01*
X0075010Y0132933D01*
G75*
G02*
X0075344Y0132598I0000000J-000335D01*
G01*
X0075344Y0129921D01*
G75*
G02*
X0075010Y0129586I-000335J0000000D01*
G01*
G37*
X0045965Y0016043D02*
G01*
G75*
D175*
X0091044Y0040410D02*
D03*
X0091044Y0022693D02*
D03*
D176*
X0087717Y0064862D02*
D03*
X0060355Y0064862D02*
D03*
D177*
X0076477Y0041634D02*
D03*
X0060335Y0041634D02*
D03*
D178*
X0078248Y0023523D02*
D03*
X0062500Y0023523D02*
D03*
D179*
X0055309Y0085301D02*
D03*
X0064561Y0081561D02*
D03*
D179*
X0064561Y0089041D02*
D03*
D180*
X0087396Y0094980D02*
D03*
D180*
X0087396Y0091240D02*
D03*
X0087396Y0087500D02*
D03*
X0095860Y0087500D02*
D03*
X0095860Y0094980D02*
D03*
D147*
X0099712Y0080979D02*
D03*
X0086720Y0080979D02*
D03*
D152*
X0081426Y0081267D02*
D03*
X0070008Y0081267D02*
D03*
D138*
X0100611Y0048720D02*
D03*
X0094390Y0048720D02*
D03*
X0090020Y0048720D02*
D03*
X0083800Y0048720D02*
D03*
D181*
X0049934Y0025831D02*
D03*
X0049934Y0029965D02*
D03*
X0100489Y0067705D02*
D03*
X0100489Y0071839D02*
D03*
X0100489Y0062992D02*
D03*
X0100489Y0058858D02*
D03*
X0101381Y0043343D02*
D03*
X0101381Y0039209D02*
D03*
D182*
X0082278Y0087550D02*
D03*
X0082278Y0091487D02*
D03*
X0068603Y0088452D02*
D03*
X0077264Y0088452D02*
D03*
X0068603Y0094849D02*
D03*
X0077264Y0094849D02*
D03*
D183*
X0060230Y0094980D02*
D03*
X0063774Y0094980D02*
D03*
D184*
X0096231Y0071642D02*
D03*
X0096231Y0068098D02*
D03*
X0096231Y0062598D02*
D03*
X0096231Y0059055D02*
D03*
X0101381Y0031042D02*
D03*
X0101381Y0034586D02*
D03*
M02*
