M48
INCH,TZ
T01C0.013750
T02C0.030750
T03C0.039200
T04C0.051200
T05C0.059100
T06C0.090600
T07C0.161400
%
T01
X4592Y12598
X4592Y12126
X4592Y11654
X4592Y11181
X10271Y14118
X10271Y13724
X11033Y3278
X11033Y2884
X13071Y14528
X13071Y14213
X13071Y13898
X13071Y13583
X13071Y13268
X13071Y12953
X13071Y12638
X13071Y12323
X13071Y9488
X13071Y9173
X13071Y8858
X13071Y8543
X13071Y8228
X13071Y12008
X13071Y11693
X13071Y11378
X13071Y11063
X13071Y10118
X13071Y9803
X13071Y7913
X13071Y7598
X13071Y5906
X13071Y4843
X13071Y4449
X13071Y1535
X14921Y1535
X15472Y1535
X15906Y14685
X16220Y14685
X16535Y14685
X16850Y14685
X17165Y14685
X17323Y1535
X17480Y14685
X17638Y1535
X18031Y14685
X18346Y14685
X18661Y14685
X18661Y1535
X18976Y14685
X19055Y1535
X19291Y14685
X19449Y1535
X19606Y14685
X19843Y1535
X19921Y14685
X20236Y14685
X20236Y1535
X20551Y14685
X20630Y1535
X20866Y14685
X21024Y1535
X21181Y14685
X21417Y1535
X21496Y14685
X21811Y14685
X22126Y14685
X22441Y14685
X22756Y14685
X24449Y14685
X25630Y1535
X26024Y1535
X27008Y12087
X27008Y11614
X27008Y11142
X27008Y10669
X27008Y10197
X27008Y9724
X27008Y9252
X27008Y8780
X27008Y8307
X27008Y7835
X27008Y7362
X27008Y6890
X27008Y6417
X27008Y5945
X27008Y5472
X27008Y5000
X27008Y4528
X27008Y4055
X27008Y3583
X27008Y3110
X27008Y2638
X27008Y1693
X394Y24764
X709Y18071
X748Y709
X866Y17087
X945Y21614
X1024Y23543
X1063Y20315
X1102Y16614
X1220Y18031
X1331Y1449
X1378Y16299
X1654Y16024
X1693Y19882
X1693Y18583
X1732Y22205
X1811Y20709
X1811Y18031
X1929Y15748
X2244Y15472
X2283Y23701
X2598Y15197
X3189Y7047
X3307Y19567
X3465Y23661
X3858Y23701
X3898Y24134
X3976Y6102
X4016Y16181
X4094Y19567
X4213Y7874
X4213Y4331
X4252Y2953
X4291Y24134
X4291Y23701
X4528Y9921
X4567Y16181
X4764Y24173
X4764Y23701
X4882Y19567
X5079Y25079
X5118Y16181
X5157Y1181
X5197Y24173
X5197Y23701
X5551Y9882
X5591Y25630
X5669Y25079
X5669Y24173
X5669Y23701
X5709Y16181
X5709Y1181
X6024Y26063
X6102Y23701
X6142Y24134
X6220Y25079
X6339Y19567
X6339Y1181
X6457Y26457
X6496Y23701
X6496Y9921
X6535Y24173
X6772Y25079
X6850Y21929
X6929Y21142
X6929Y18307
X6929Y1181
X7008Y17480
X7087Y16772
X7165Y24173
X7244Y9921
X7283Y18307
X7323Y25079
X7323Y21929
X7402Y20827
X7480Y1181
X7598Y18622
X7756Y17795
X7913Y18937
X8110Y9921
X8189Y1181
X8228Y24528
X8506Y20167
X8819Y24528
X9094Y9921
X9370Y24528
X9646Y10157
X9685Y15276
X9843Y26220
X9882Y25787
X10276Y25748
X10315Y26181
X10394Y27598
X10394Y27165
X10394Y15118
X10748Y25748
X10748Y20669
X10787Y26220
X11024Y27598
X11024Y27126
X11260Y24488
X11319Y12638
X11378Y8031
X11417Y5236
X11614Y24843
X11654Y19685
X11772Y4646
X11811Y3465
X11850Y29646
X12165Y21457
X12205Y23701
X12402Y29646
X12520Y19533
X12559Y12047
X12559Y9370
X12598Y10591
X12638Y2874
X12677Y3661
X12677Y2205
X12717Y7165
X12717Y6339
X12717Y5315
X12835Y18228
X12874Y29646
X12992Y16102
X13268Y21102
X13307Y24882
X13307Y24449
X13346Y29646
X13780Y29646
X13898Y1181
X14016Y28150
X14213Y29646
X14409Y18031
X14606Y16850
X14685Y15039
X14724Y24843
X14764Y29646
X15118Y16417
X15197Y23228
X15236Y15039
X15394Y16811
X15591Y22638
X15591Y22008
X15929Y15968
X16260Y1181
X16614Y20039
X16614Y16890
X16850Y22362
X16850Y21929
X17205Y16457
X17362Y20945
X17520Y15197
X17638Y29606
X17677Y18268
X17677Y17598
X17677Y16969
X17795Y20945
X18228Y20945
X18307Y1181
X18622Y20945
X18622Y17874
X18622Y17087
X19055Y20945
X19488Y20945
X20118Y23268
X20118Y22835
X20118Y22402
X20118Y21969
X20118Y21102
X20183Y30301
X20433Y26339
X20472Y27362
X20512Y15295
X20699Y30148
X20748Y21024
X21024Y26457
X21142Y17913
X21142Y17047
X21181Y21024
X21234Y29974
X21401Y15209
X21535Y19843
X21614Y21024
X21654Y16260
X21772Y29882
X21929Y1181
X22008Y21024
X22087Y19872
X22244Y18425
X22323Y29692
X22638Y27441
X22740Y29275
X22795Y1181
X22913Y24921
X23268Y15039
X23425Y23189
X23425Y22756
X23425Y22323
X23425Y21890
X23583Y1181
X23937Y15039
X24278Y21772
X24291Y1181
X24567Y25787
X24685Y19961
X25000Y15157
X25039Y1181
X25079Y25236
X25197Y16339
X25472Y15157
X25630Y24528
X25630Y16929
X25945Y15157
X26063Y24055
X26614Y15039
X26693Y1181
X26969Y22992
X27323Y14291
X27323Y13622
X27323Y12874
X28268Y11102
X28268Y8701
X28327Y10226
X30000Y12756
X30000Y12205
X30000Y11654
X30000Y11063
X30000Y10512
X30000Y9961
X27008Y1693
X26977Y2169
X26787Y2401
X27008Y2637
X26807Y2874
X27008Y3110
X26807Y3346
X27008Y3582
X26807Y3819
X27008Y4055
X26807Y4291
X27008Y4527
X26807Y4763
X27008Y5000
X26807Y5236
X27008Y5472
X26807Y5708
X27008Y5945
X26807Y6181
X27008Y6417
X26807Y6653
X27008Y6889
X26807Y7126
X27008Y7362
X26807Y7598
X27008Y7834
X26807Y8071
X27008Y8307
X26807Y8543
X27008Y8779
X26807Y9015
X27008Y9252
X26807Y9488
X27008Y9724
X26807Y9960
X27008Y10197
X26807Y10433
X27008Y10669
X26807Y10905
X27008Y11141
X26807Y11378
X27008Y11614
X26807Y11850
X27008Y12086
X26850Y12401
X26315Y12394
X26121Y11967
X26111Y11516
X26104Y11074
X26106Y10601
X25059Y10096
X25059Y9786
X25532Y9539
X25329Y8941
X25320Y8645
X25049Y8802
X24367Y8919
X24099Y8664
X23558Y8567
X23558Y9006
X23678Y9466
X23346Y9466
X23051Y9466
X22760Y9460
X22076Y9790
X22080Y10335
X21496Y10197
X21575Y9567
X20743Y9497
X20357Y9482
X20551Y9134
X20751Y8900
X20318Y8643
X20017Y7950
X20000Y7352
X20296Y7005
X20121Y6230
X20676Y6248
X21223Y6238
X21096Y5530
X20297Y5575
X19532Y5549
X18722Y5527
X18682Y6230
X18967Y6230
X19252Y6230
X18381Y6230
X18065Y7018
X17780Y7005
X17482Y6973
X17000Y7023
X16949Y7427
X16471Y8057
X16483Y8434
X16339Y9370
X16939Y9695
X16736Y9903
X17263Y9885
X17310Y10243
X17494Y9692
X18637Y9486
X18866Y9263
X19549Y9217
X19560Y8926
X19768Y9413
X19768Y10082
X19957Y10948
X20171Y11142
X20375Y11346
X20577Y11548
X19764Y11545
X19299Y11098
X18598Y11085
X18696Y11461
X18228Y11338
X17691Y11136
X17465Y11376
X17067Y11570
X16811Y11378
X16428Y11277
X16122Y11237
X16220Y11535
X16422Y12039
X16723Y12095
X17285Y12039
X17530Y12186
X17913Y11929
X18404Y11911
X18796Y13139
X19110Y13449
X19331Y13267
X19851Y13232
X19921Y14685
X19606Y14685
X19291Y14685
X18976Y14685
X18661Y14685
X18346Y14685
X18032Y14685
X17754Y14546
X17480Y14685
X17165Y14685
X16850Y14685
X16535Y14685
X16220Y14685
X15906Y14685
X15818Y14328
X15574Y14545
X14872Y14236
X13937Y14232
X13893Y13859
X14178Y13857
X13937Y13484
X13071Y13582
X13071Y13267
X13071Y12952
X13071Y12637
X13071Y12323
X13071Y12008
X13071Y11693
X13071Y11378
X13071Y11063
X13268Y10472
X13071Y10118
X13071Y9803
X13071Y9488
X13071Y9173
X13071Y8858
X13071Y8543
X13071Y8228
X13071Y7913
X13071Y7598
X13110Y7086
X13765Y7180
X13801Y6782
X13756Y6437
X14058Y6158
X13303Y6216
X13071Y5905
X13071Y4842
X13071Y4448
X13095Y4087
X13558Y4095
X14003Y3865
X14876Y3784
X14653Y3344
X14341Y4530
X14022Y4993
X14873Y4950
X14921Y5393
X15349Y5878
X15634Y5886
X15994Y5954
X16290Y5957
X16191Y5227
X16575Y5236
X16900Y5227
X17228Y5566
X17608Y5227
X17960Y5243
X18255Y5223
X17937Y5540
X17509Y4545
X17065Y4542
X17209Y3366
X17730Y3386
X18119Y3385
X18584Y4210
X18545Y4510
X18998Y4533
X19285Y4533
X19572Y4533
X19988Y4533
X20274Y4533
X20698Y4551
X21006Y4551
X21295Y4551
X22035Y4775
X22130Y5055
X22525Y5367
X22845Y5069
X23411Y5069
X23697Y5062
X24358Y5153
X25103Y4950
X25335Y5118
X25370Y4818
X25534Y4193
X25534Y3897
X25329Y3271
X25329Y2985
X25046Y3149
X24370Y3253
X24101Y3094
X23524Y2914
X23524Y3390
X23678Y3876
X23346Y3876
X23051Y3876
X22760Y3869
X22538Y3106
X22161Y3110
X22153Y2307
X22487Y2334
X22055Y2039
X22012Y1560
X21417Y1535
X21024Y1535
X20630Y1535
X20236Y1535
X19843Y1535
X19449Y1535
X19055Y1535
X18661Y1535
X18032Y1574
X17638Y1535
X17323Y1535
X16949Y1535
X16466Y1663
X16102Y1574
X15472Y1535
X15362Y1819
X14921Y1535
X13759Y1556
X13071Y1535
X16339Y2559
X16634Y2685
X16149Y3554
X15857Y5546
X15409Y6423
X15020Y6555
X15091Y6893
X15413Y7316
X15512Y7756
X15434Y8497
X14498Y9025
X14219Y9165
X13912Y9236
X14602Y9498
X14573Y10329
X14248Y10521
X14594Y11265
X15442Y11191
X15442Y11485
X15442Y11776
X15384Y12962
X14921Y12992
X14390Y12717
X13486Y12691
X13359Y11581
X13071Y13897
X13071Y14212
X13071Y14527
X15975Y13333
X16214Y13177
X16506Y13405
X16933Y13622
X16931Y13181
X17615Y13083
X17904Y13599
X17350Y13875
X18559Y13886
X20236Y14685
X20551Y14685
X20866Y14685
X21181Y14685
X21496Y14685
X21811Y14685
X22126Y14685
X22441Y14685
X22756Y14685
X23370Y14166
X23976Y14606
X24449Y14685
X25047Y14114
X25366Y14114
X25684Y14114
X26002Y14114
X26321Y14114
X26647Y13750
X26690Y14468
X25859Y12872
X25280Y13005
X24370Y12441
X23666Y12208
X23346Y12222
X23058Y12217
X22760Y12216
X22538Y11429
X22125Y11420
X22510Y10910
X22726Y10620
X23299Y10620
X23685Y10657
X23551Y11261
X23558Y11761
X24104Y11421
X24770Y11542
X24770Y11225
X24770Y10879
X24781Y11889
X24370Y10078
X23685Y7862
X23286Y7864
X22847Y7864
X22463Y7946
X22485Y8673
X22203Y8622
X22071Y7480
X22063Y7156
X21571Y7134
X21851Y6724
X22680Y6653
X23051Y6676
X23346Y6663
X23846Y6653
X23583Y6358
X23538Y5689
X24080Y5889
X24956Y5818
X25536Y6049
X25329Y6759
X25329Y7051
X25039Y6909
X24370Y7032
X25490Y7678
X25541Y8006
X22532Y6011
X22126Y5812
X22076Y4199
X21457Y3665
X20696Y3665
X19935Y3665
X19173Y3666
X19226Y7349
X18901Y7145
X18013Y7307
X16913Y6228
X14290Y7027
X14386Y7471
X14656Y7564
X14293Y7767
X15635Y10273
X15918Y10331
X21451Y11904
X21102Y12283
X21247Y13370
X21976Y13321
X21944Y13009
X22076Y12546
X21769Y14081
X20714Y7759
X23258Y2273
X23723Y2311
X24045Y2029
X24084Y1538
X24636Y2136
X24948Y1870
X25630Y1535
X26024Y1535
X26609Y1555
X26417Y2126
X25534Y2323
X22726Y1663
X10142Y12618
X10142Y14586
X10103Y11279
X9276Y12696
X9119Y13759
X9001Y14586
X8764Y11279
X8371Y12185
X8331Y13169
X7780Y13799
X7741Y14586
X7347Y11279
X7111Y11988
X7032Y14586
X6946Y12679
X6520Y14232
X6009Y13366
X5772Y14311
X5615Y11279
X5300Y14586
X4982Y12104
X4709Y12972
X4709Y14311
X10270Y13724
X10270Y14118
X4591Y11181
X4591Y11653
X4591Y12125
X4591Y12598
X5552Y1649
X5280Y2285
X5494Y2670
X4853Y3099
X4813Y3435
X5010Y4025
X5286Y4281
X5404Y4812
X5010Y5108
X4813Y4616
X4813Y5797
X4813Y7372
X5286Y7352
X6397Y7644
X7444Y7619
X7766Y7331
X8819Y7256
X9931Y7372
X10719Y7372
X10246Y6368
X9601Y6362
X9661Y5116
X10128Y5206
X10296Y4726
X10719Y5009
X10297Y3841
X10993Y3669
X11034Y3277
X11034Y2883
X10352Y2977
X10042Y2488
X10429Y2171
X10032Y1741
X9643Y2120
X9568Y2844
X9616Y3277
X8300Y2292
X8300Y1663
X7381Y1649
X6526Y1649
X6749Y2291
X7333Y3316
X7726Y4763
X6979Y4812
X7412Y5322
X8001Y6320
X8947Y8277
X9879Y8344
X9931Y8749
X10719Y8553
X10325Y7962
X7851Y9102
X7893Y9508
X7064Y9092
X6799Y8689
X5362Y8766
X5771Y8131
X4931Y7898
T02
X9390Y19291
X9390Y18504
X9390Y17717
X9390Y16929
X7874Y23602
X7874Y21673
X8858Y23602
X8858Y21673
X9329Y748
X10236Y23602
X10236Y21673
X10829Y748
X11181Y23602
X11181Y21673
X21713Y7630
X21713Y9208
X21713Y10630
T03
X4754Y9360
X4754Y8632
X4754Y6683
X4754Y1939
X10856Y9183
X10856Y6663
X10856Y5915
X10856Y4222
X10856Y1762
X13386Y1850
X14357Y10929
X13557Y10929
X13957Y12929
X4754Y1938
X4754Y6683
X10857Y6663
X10857Y5915
X10857Y4222
X10857Y1761
X10857Y9183
X4754Y9360
X4754Y8631
T04
X11870Y28661
X11870Y27677
X11870Y26693
X11870Y25709
X13327Y28661
X13327Y27677
X13327Y26693
X13327Y25709
X14705Y28661
X14705Y27677
X14705Y26693
X14705Y25709
X15689Y28661
X15689Y27677
X15689Y26693
X15689Y25709
X16673Y28661
X16673Y27677
X16673Y26693
X16673Y25709
X17657Y28661
X17657Y27677
X17657Y26693
X17657Y25709
X18642Y28661
X18642Y27677
X18642Y26693
X18642Y25709
X19626Y28661
X19626Y27677
X19626Y26693
X19626Y25709
T05
X13661Y20551
X13661Y17598
T06
X9331Y25315
X22165Y25315
T07
X7717Y26831
X23780Y26831
M30
