G75*
G70*
%OFA0B0*%
%FSLAX25Y25*%
%IPPOS*%
%LPD*%
%AMOC8*
5,1,8,0,0,1.08239X$1,22.5*
%
%AMM108*
21,1,0.029530,0.026380,-0.000000,0.000000,0.000000*
21,1,0.020470,0.035430,-0.000000,0.000000,0.000000*
1,1,0.009060,0.010240,-0.013190*
1,1,0.009060,-0.010240,-0.013190*
1,1,0.009060,-0.010240,0.013190*
1,1,0.009060,0.010240,0.013190*
%
%AMM109*
21,1,0.021650,0.027950,-0.000000,0.000000,0.000000*
21,1,0.014170,0.035430,-0.000000,0.000000,0.000000*
1,1,0.007480,0.007090,-0.013980*
1,1,0.007480,-0.007090,-0.013980*
1,1,0.007480,-0.007090,0.013980*
1,1,0.007480,0.007090,0.013980*
%
%AMM110*
21,1,0.016540,0.028980,-0.000000,0.000000,180.000000*
21,1,0.010080,0.035430,-0.000000,0.000000,180.000000*
1,1,0.006460,-0.005040,0.014490*
1,1,0.006460,0.005040,0.014490*
1,1,0.006460,0.005040,-0.014490*
1,1,0.006460,-0.005040,-0.014490*
%
%AMM111*
21,1,0.027560,0.030710,-0.000000,0.000000,270.000000*
21,1,0.018900,0.039370,-0.000000,0.000000,270.000000*
1,1,0.008660,-0.015350,-0.009450*
1,1,0.008660,-0.015350,0.009450*
1,1,0.008660,0.015350,0.009450*
1,1,0.008660,0.015350,-0.009450*
%
%AMM112*
21,1,0.031500,0.018900,-0.000000,0.000000,180.000000*
21,1,0.022840,0.027560,-0.000000,0.000000,180.000000*
1,1,0.008660,-0.011420,0.009450*
1,1,0.008660,0.011420,0.009450*
1,1,0.008660,0.011420,-0.009450*
1,1,0.008660,-0.011420,-0.009450*
%
%AMM113*
21,1,0.035430,0.072440,-0.000000,0.000000,180.000000*
21,1,0.025200,0.082680,-0.000000,0.000000,180.000000*
1,1,0.010240,-0.012600,0.036220*
1,1,0.010240,0.012600,0.036220*
1,1,0.010240,0.012600,-0.036220*
1,1,0.010240,-0.012600,-0.036220*
%
%AMM114*
21,1,0.031500,0.018900,-0.000000,0.000000,270.000000*
21,1,0.022840,0.027560,-0.000000,0.000000,270.000000*
1,1,0.008660,-0.009450,-0.011420*
1,1,0.008660,-0.009450,0.011420*
1,1,0.008660,0.009450,0.011420*
1,1,0.008660,0.009450,-0.011420*
%
%AMM115*
21,1,0.027560,0.030710,-0.000000,0.000000,0.000000*
21,1,0.018900,0.039370,-0.000000,0.000000,0.000000*
1,1,0.008660,0.009450,-0.015350*
1,1,0.008660,-0.009450,-0.015350*
1,1,0.008660,-0.009450,0.015350*
1,1,0.008660,0.009450,0.015350*
%
%AMM116*
21,1,0.039370,0.030320,-0.000000,0.000000,0.000000*
21,1,0.028350,0.041340,-0.000000,0.000000,0.000000*
1,1,0.011020,0.014170,-0.015160*
1,1,0.011020,-0.014170,-0.015160*
1,1,0.011020,-0.014170,0.015160*
1,1,0.011020,0.014170,0.015160*
%
%AMM117*
21,1,0.047240,0.075980,-0.000000,0.000000,90.000000*
21,1,0.034650,0.088580,-0.000000,0.000000,90.000000*
1,1,0.012600,0.037990,0.017320*
1,1,0.012600,0.037990,-0.017320*
1,1,0.012600,-0.037990,-0.017320*
1,1,0.012600,-0.037990,0.017320*
%
%AMM118*
21,1,0.043310,0.035430,-0.000000,0.000000,90.000000*
21,1,0.031500,0.047240,-0.000000,0.000000,90.000000*
1,1,0.011810,0.017720,0.015750*
1,1,0.011810,0.017720,-0.015750*
1,1,0.011810,-0.017720,-0.015750*
1,1,0.011810,-0.017720,0.015750*
%
%AMM119*
21,1,0.031500,0.030710,-0.000000,0.000000,90.000000*
21,1,0.022050,0.040160,-0.000000,0.000000,90.000000*
1,1,0.009450,0.015350,0.011020*
1,1,0.009450,0.015350,-0.011020*
1,1,0.009450,-0.015350,-0.011020*
1,1,0.009450,-0.015350,0.011020*
%
%AMM120*
21,1,0.035430,0.072440,-0.000000,0.000000,90.000000*
21,1,0.025200,0.082680,-0.000000,0.000000,90.000000*
1,1,0.010240,0.036220,0.012600*
1,1,0.010240,0.036220,-0.012600*
1,1,0.010240,-0.036220,-0.012600*
1,1,0.010240,-0.036220,0.012600*
%
%AMM121*
21,1,0.141730,0.067720,-0.000000,0.000000,90.000000*
21,1,0.120870,0.088580,-0.000000,0.000000,90.000000*
1,1,0.020870,0.033860,0.060430*
1,1,0.020870,0.033860,-0.060430*
1,1,0.020870,-0.033860,-0.060430*
1,1,0.020870,-0.033860,0.060430*
%
%AMM122*
21,1,0.047240,0.075990,-0.000000,0.000000,90.000000*
21,1,0.034650,0.088580,-0.000000,0.000000,90.000000*
1,1,0.012600,0.037990,0.017320*
1,1,0.012600,0.037990,-0.017320*
1,1,0.012600,-0.037990,-0.017320*
1,1,0.012600,-0.037990,0.017320*
%
%AMM123*
21,1,0.090550,0.073230,-0.000000,0.000000,180.000000*
21,1,0.069290,0.094490,-0.000000,0.000000,180.000000*
1,1,0.021260,-0.034650,0.036610*
1,1,0.021260,0.034650,0.036610*
1,1,0.021260,0.034650,-0.036610*
1,1,0.021260,-0.034650,-0.036610*
%
%AMM69*
21,1,0.092130,0.073230,0.000000,0.000000,270.000000*
21,1,0.069290,0.096060,0.000000,0.000000,270.000000*
1,1,0.022840,-0.036610,-0.034650*
1,1,0.022840,-0.036610,0.034650*
1,1,0.022840,0.036610,0.034650*
1,1,0.022840,0.036610,-0.034650*
%
%AMM70*
21,1,0.100000,0.111020,0.000000,0.000000,0.000000*
21,1,0.075590,0.135430,0.000000,0.000000,0.000000*
1,1,0.024410,0.037800,-0.055510*
1,1,0.024410,-0.037800,-0.055510*
1,1,0.024410,-0.037800,0.055510*
1,1,0.024410,0.037800,0.055510*
%
%AMM71*
21,1,0.080320,0.083460,0.000000,0.000000,0.000000*
21,1,0.059840,0.103940,0.000000,0.000000,0.000000*
1,1,0.020470,0.029920,-0.041730*
1,1,0.020470,-0.029920,-0.041730*
1,1,0.020470,-0.029920,0.041730*
1,1,0.020470,0.029920,0.041730*
%
%AMM72*
21,1,0.084250,0.053540,0.000000,0.000000,180.000000*
21,1,0.065350,0.072440,0.000000,0.000000,180.000000*
1,1,0.018900,-0.032680,0.026770*
1,1,0.018900,0.032680,0.026770*
1,1,0.018900,0.032680,-0.026770*
1,1,0.018900,-0.032680,-0.026770*
%
%AMM73*
21,1,0.040950,0.030320,0.000000,0.000000,90.000000*
21,1,0.028350,0.042910,0.000000,0.000000,90.000000*
1,1,0.012600,0.015160,0.014170*
1,1,0.012600,0.015160,-0.014170*
1,1,0.012600,-0.015160,-0.014170*
1,1,0.012600,-0.015160,0.014170*
%
%AMM74*
21,1,0.027170,0.052760,0.000000,0.000000,270.000000*
21,1,0.017320,0.062600,0.000000,0.000000,270.000000*
1,1,0.009840,-0.026380,-0.008660*
1,1,0.009840,-0.026380,0.008660*
1,1,0.009840,0.026380,0.008660*
1,1,0.009840,0.026380,-0.008660*
%
%AMM75*
21,1,0.041340,0.026770,0.000000,0.000000,0.000000*
21,1,0.029130,0.038980,0.000000,0.000000,0.000000*
1,1,0.012210,0.014570,-0.013390*
1,1,0.012210,-0.014570,-0.013390*
1,1,0.012210,-0.014570,0.013390*
1,1,0.012210,0.014570,0.013390*
%
%AMM76*
21,1,0.076380,0.036220,0.000000,0.000000,90.000000*
21,1,0.061810,0.050790,0.000000,0.000000,90.000000*
1,1,0.014570,0.018110,0.030910*
1,1,0.014570,0.018110,-0.030910*
1,1,0.014570,-0.018110,-0.030910*
1,1,0.014570,-0.018110,0.030910*
%
%AMM77*
21,1,0.038980,0.026770,0.000000,0.000000,0.000000*
21,1,0.026770,0.038980,0.000000,0.000000,0.000000*
1,1,0.012210,0.013390,-0.013390*
1,1,0.012210,-0.013390,-0.013390*
1,1,0.012210,-0.013390,0.013390*
1,1,0.012210,0.013390,0.013390*
%
%AMM78*
21,1,0.021260,0.016540,0.000000,0.000000,270.000000*
21,1,0.012600,0.025200,0.000000,0.000000,270.000000*
1,1,0.008660,-0.008270,-0.006300*
1,1,0.008660,-0.008270,0.006300*
1,1,0.008660,0.008270,0.006300*
1,1,0.008660,0.008270,-0.006300*
%
%AMM79*
21,1,0.029130,0.018900,0.000000,0.000000,90.000000*
21,1,0.018900,0.029130,0.000000,0.000000,90.000000*
1,1,0.010240,0.009450,0.009450*
1,1,0.010240,0.009450,-0.009450*
1,1,0.010240,-0.009450,-0.009450*
1,1,0.010240,-0.009450,0.009450*
%
%AMM80*
21,1,0.025200,0.019680,0.000000,0.000000,0.000000*
21,1,0.015750,0.029130,0.000000,0.000000,0.000000*
1,1,0.009450,0.007870,-0.009840*
1,1,0.009450,-0.007870,-0.009840*
1,1,0.009450,-0.007870,0.009840*
1,1,0.009450,0.007870,0.009840*
%
%AMM81*
21,1,0.025200,0.019680,0.000000,0.000000,270.000000*
21,1,0.015750,0.029130,0.000000,0.000000,270.000000*
1,1,0.009450,-0.009840,-0.007870*
1,1,0.009450,-0.009840,0.007870*
1,1,0.009450,0.009840,0.007870*
1,1,0.009450,0.009840,-0.007870*
%
%ADD108O,0.05118X0.01260*%
%ADD109O,0.01260X0.05118*%
%ADD11C,0.03937*%
%ADD111C,0.03494*%
%ADD114R,0.01772X0.01378*%
%ADD115R,0.01378X0.01772*%
%ADD12C,0.06000*%
%ADD127C,0.03543*%
%ADD129C,0.04724*%
%ADD13R,0.02559X0.06004*%
%ADD130C,0.04294*%
%ADD14R,0.01575X0.06496*%
%ADD15R,0.06890X0.02559*%
%ADD16R,0.16929X0.31102*%
%ADD17O,0.06890X0.04724*%
%ADD172R,0.05512X0.01181*%
%ADD18C,0.02362*%
%ADD185M69*%
%ADD186M70*%
%ADD187M71*%
%ADD188M72*%
%ADD189M73*%
%ADD190M74*%
%ADD191M75*%
%ADD192M76*%
%ADD193M77*%
%ADD194M78*%
%ADD195M79*%
%ADD196M80*%
%ADD197M81*%
%ADD198C,0.02913*%
%ADD199C,0.06457*%
%ADD230M108*%
%ADD231M109*%
%ADD232M110*%
%ADD233O,0.01575X0.04724*%
%ADD234M111*%
%ADD235M112*%
%ADD236M113*%
%ADD237M114*%
%ADD238M115*%
%ADD239M116*%
%ADD240O,0.02756X0.09055*%
%ADD241M117*%
%ADD242M118*%
%ADD243M119*%
%ADD244M120*%
%ADD245M121*%
%ADD246M122*%
%ADD247M123*%
%ADD31C,0.07677*%
%ADD37C,0.07874*%
%ADD38C,0.05906*%
%ADD53C,0.16142*%
%ADD54C,0.09055*%
X0000000Y0000000D02*
%LPD*%
G01*
G36*
G01*
X0152874Y0172533D02*
X0149803Y0172533D01*
G75*
G02*
X0149528Y0172809I0000000J0000276D01*
G01*
X0149528Y0175013D01*
G75*
G02*
X0149803Y0175289I0000276J0000000D01*
G01*
X0152874Y0175289D01*
G75*
G02*
X0153150Y0175013I0000000J-000276D01*
G01*
X0153150Y0172809D01*
G75*
G02*
X0152874Y0172533I-000276J0000000D01*
G01*
G37*
G36*
G01*
X0152874Y0178832D02*
X0149803Y0178832D01*
G75*
G02*
X0149528Y0179108I0000000J0000276D01*
G01*
X0149528Y0181313D01*
G75*
G02*
X0149803Y0181588I0000276J0000000D01*
G01*
X0152874Y0181588D01*
G75*
G02*
X0153150Y0181313I0000000J-000276D01*
G01*
X0153150Y0179108D01*
G75*
G02*
X0152874Y0178832I-000276J0000000D01*
G01*
G37*
D11*
X0110236Y0141339D03*
G36*
G01*
X0245157Y0172185D02*
X0242480Y0172185D01*
G75*
G02*
X0242146Y0172520I0000000J0000335D01*
G01*
X0242146Y0175197D01*
G75*
G02*
X0242480Y0175531I0000335J0000000D01*
G01*
X0245157Y0175531D01*
G75*
G02*
X0245492Y0175197I0000000J-000335D01*
G01*
X0245492Y0172520D01*
G75*
G02*
X0245157Y0172185I-000335J0000000D01*
G01*
G37*
G36*
G01*
X0245157Y0178406D02*
X0242480Y0178406D01*
G75*
G02*
X0242146Y0178740I0000000J0000335D01*
G01*
X0242146Y0181417D01*
G75*
G02*
X0242480Y0181752I0000335J0000000D01*
G01*
X0245157Y0181752D01*
G75*
G02*
X0245492Y0181417I0000000J-000335D01*
G01*
X0245492Y0178740D01*
G75*
G02*
X0245157Y0178406I-000335J0000000D01*
G01*
G37*
G36*
G01*
X0007461Y0189606D02*
X0007461Y0192283D01*
G75*
G02*
X0007795Y0192618I0000335J0000000D01*
G01*
X0010472Y0192618D01*
G75*
G02*
X0010807Y0192283I0000000J-000335D01*
G01*
X0010807Y0189606D01*
G75*
G02*
X0010472Y0189272I-000335J0000000D01*
G01*
X0007795Y0189272D01*
G75*
G02*
X0007461Y0189606I0000000J0000335D01*
G01*
G37*
G36*
G01*
X0013681Y0189606D02*
X0013681Y0192283D01*
G75*
G02*
X0014016Y0192618I0000335J0000000D01*
G01*
X0016693Y0192618D01*
G75*
G02*
X0017028Y0192283I0000000J-000335D01*
G01*
X0017028Y0189606D01*
G75*
G02*
X0016693Y0189272I-000335J0000000D01*
G01*
X0014016Y0189272D01*
G75*
G02*
X0013681Y0189606I0000000J0000335D01*
G01*
G37*
G36*
G01*
X0283268Y0092480D02*
X0283268Y0089409D01*
G75*
G02*
X0282992Y0089134I-000276J0000000D01*
G01*
X0280787Y0089134D01*
G75*
G02*
X0280512Y0089409I0000000J0000276D01*
G01*
X0280512Y0092480D01*
G75*
G02*
X0280787Y0092756I0000276J0000000D01*
G01*
X0282992Y0092756D01*
G75*
G02*
X0283268Y0092480I0000000J-000276D01*
G01*
G37*
G36*
G01*
X0276969Y0092480D02*
X0276969Y0089409D01*
G75*
G02*
X0276693Y0089134I-000276J0000000D01*
G01*
X0274488Y0089134D01*
G75*
G02*
X0274213Y0089409I0000000J0000276D01*
G01*
X0274213Y0092480D01*
G75*
G02*
X0274488Y0092756I0000276J0000000D01*
G01*
X0276693Y0092756D01*
G75*
G02*
X0276969Y0092480I0000000J-000276D01*
G01*
G37*
D12*
X0111811Y0236024D03*
G36*
G01*
X0108268Y0230728D02*
X0108268Y0233445D01*
G75*
G02*
X0109173Y0234350I0000906J0000000D01*
G01*
X0114449Y0234350D01*
G75*
G02*
X0115354Y0233445I0000000J-000906D01*
G01*
X0115354Y0230728D01*
G75*
G02*
X0114449Y0229823I-000906J0000000D01*
G01*
X0109173Y0229823D01*
G75*
G02*
X0108268Y0230728I0000000J0000906D01*
G01*
G37*
G36*
G01*
X0108268Y0219311D02*
X0108268Y0222028D01*
G75*
G02*
X0109173Y0222933I0000906J0000000D01*
G01*
X0114449Y0222933D01*
G75*
G02*
X0115354Y0222028I0000000J-000906D01*
G01*
X0115354Y0219311D01*
G75*
G02*
X0114449Y0218405I-000906J0000000D01*
G01*
X0109173Y0218405D01*
G75*
G02*
X0108268Y0219311I0000000J0000906D01*
G01*
G37*
X0111811Y0216732D03*
D11*
X0017323Y0018504D03*
G36*
G01*
X0219882Y0179429D02*
X0217913Y0179429D01*
G75*
G02*
X0217028Y0180315I0000000J0000886D01*
G01*
X0217028Y0182087D01*
G75*
G02*
X0217913Y0182972I0000886J0000000D01*
G01*
X0219882Y0182972D01*
G75*
G02*
X0220768Y0182087I0000000J-000886D01*
G01*
X0220768Y0180315D01*
G75*
G02*
X0219882Y0179429I-000886J0000000D01*
G01*
G37*
G36*
G01*
X0219882Y0185531D02*
X0217913Y0185531D01*
G75*
G02*
X0217028Y0186417I0000000J0000886D01*
G01*
X0217028Y0188189D01*
G75*
G02*
X0217913Y0189075I0000886J0000000D01*
G01*
X0219882Y0189075D01*
G75*
G02*
X0220768Y0188189I0000000J-000886D01*
G01*
X0220768Y0186417D01*
G75*
G02*
X0219882Y0185531I-000886J0000000D01*
G01*
G37*
D13*
X0236850Y0189421D03*
X0241850Y0189421D03*
X0246850Y0189421D03*
X0251850Y0189421D03*
X0251850Y0210776D03*
X0246850Y0210776D03*
X0241850Y0210776D03*
X0236850Y0210776D03*
G36*
G01*
X0016732Y0177126D02*
X0016732Y0174055D01*
G75*
G02*
X0016457Y0173780I-000276J0000000D01*
G01*
X0014252Y0173780D01*
G75*
G02*
X0013976Y0174055I0000000J0000276D01*
G01*
X0013976Y0177126D01*
G75*
G02*
X0014252Y0177402I0000276J0000000D01*
G01*
X0016457Y0177402D01*
G75*
G02*
X0016732Y0177126I0000000J-000276D01*
G01*
G37*
G36*
G01*
X0010433Y0177126D02*
X0010433Y0174055D01*
G75*
G02*
X0010157Y0173780I-000276J0000000D01*
G01*
X0007953Y0173780D01*
G75*
G02*
X0007677Y0174055I0000000J0000276D01*
G01*
X0007677Y0177126D01*
G75*
G02*
X0007953Y0177402I0000276J0000000D01*
G01*
X0010157Y0177402D01*
G75*
G02*
X0010433Y0177126I0000000J-000276D01*
G01*
G37*
G36*
G01*
X0007854Y0225827D02*
X0007854Y0228504D01*
G75*
G02*
X0008189Y0228839I0000335J0000000D01*
G01*
X0010866Y0228839D01*
G75*
G02*
X0011201Y0228504I0000000J-000335D01*
G01*
X0011201Y0225827D01*
G75*
G02*
X0010866Y0225492I-000335J0000000D01*
G01*
X0008189Y0225492D01*
G75*
G02*
X0007854Y0225827I0000000J0000335D01*
G01*
G37*
G36*
G01*
X0014075Y0225827D02*
X0014075Y0228504D01*
G75*
G02*
X0014409Y0228839I0000335J0000000D01*
G01*
X0017087Y0228839D01*
G75*
G02*
X0017421Y0228504I0000000J-000335D01*
G01*
X0017421Y0225827D01*
G75*
G02*
X0017087Y0225492I-000335J0000000D01*
G01*
X0014409Y0225492D01*
G75*
G02*
X0014075Y0225827I0000000J0000335D01*
G01*
G37*
G36*
G01*
X0274213Y0094921D02*
X0274213Y0097992D01*
G75*
G02*
X0274488Y0098268I0000276J0000000D01*
G01*
X0276693Y0098268D01*
G75*
G02*
X0276969Y0097992I0000000J-000276D01*
G01*
X0276969Y0094921D01*
G75*
G02*
X0276693Y0094646I-000276J0000000D01*
G01*
X0274488Y0094646D01*
G75*
G02*
X0274213Y0094921I0000000J0000276D01*
G01*
G37*
G36*
G01*
X0280512Y0094921D02*
X0280512Y0097992D01*
G75*
G02*
X0280787Y0098268I0000276J0000000D01*
G01*
X0282992Y0098268D01*
G75*
G02*
X0283268Y0097992I0000000J-000276D01*
G01*
X0283268Y0094921D01*
G75*
G02*
X0282992Y0094646I-000276J0000000D01*
G01*
X0280787Y0094646D01*
G75*
G02*
X0280512Y0094921I0000000J0000276D01*
G01*
G37*
G36*
G01*
X0176949Y0196457D02*
X0174193Y0196457D01*
G75*
G02*
X0173209Y0197441I0000000J0000984D01*
G01*
X0173209Y0204134D01*
G75*
G02*
X0174193Y0205118I0000984J0000000D01*
G01*
X0176949Y0205118D01*
G75*
G02*
X0177933Y0204134I0000000J-000984D01*
G01*
X0177933Y0197441D01*
G75*
G02*
X0176949Y0196457I-000984J0000000D01*
G01*
G37*
G36*
G01*
X0194980Y0212992D02*
X0174114Y0212992D01*
G75*
G02*
X0173130Y0213976I0000000J0000984D01*
G01*
X0173130Y0237205D01*
G75*
G02*
X0174114Y0238189I0000984J0000000D01*
G01*
X0194980Y0238189D01*
G75*
G02*
X0195965Y0237205I0000000J-000984D01*
G01*
X0195965Y0213976D01*
G75*
G02*
X0194980Y0212992I-000984J0000000D01*
G01*
G37*
G36*
G01*
X0194902Y0196457D02*
X0192146Y0196457D01*
G75*
G02*
X0191161Y0197441I0000000J0000984D01*
G01*
X0191161Y0204134D01*
G75*
G02*
X0192146Y0205118I0000984J0000000D01*
G01*
X0194902Y0205118D01*
G75*
G02*
X0195886Y0204134I0000000J-000984D01*
G01*
X0195886Y0197441D01*
G75*
G02*
X0194902Y0196457I-000984J0000000D01*
G01*
G37*
D14*
X0213189Y0186378D03*
X0210630Y0186378D03*
X0208071Y0186378D03*
X0205512Y0186378D03*
X0202953Y0186378D03*
X0200394Y0186378D03*
X0197874Y0186378D03*
X0195276Y0186378D03*
X0192717Y0186378D03*
X0190157Y0186378D03*
X0187598Y0186378D03*
X0185079Y0186378D03*
X0185079Y0162598D03*
X0187598Y0162598D03*
X0190157Y0162598D03*
X0192717Y0162598D03*
X0195276Y0162598D03*
X0197874Y0162598D03*
X0200394Y0162598D03*
X0202953Y0162598D03*
X0205512Y0162598D03*
X0208071Y0162598D03*
X0210630Y0162598D03*
X0213189Y0162598D03*
D11*
X0034646Y0018504D03*
D15*
X0062992Y0171260D03*
X0062992Y0175197D03*
X0062992Y0179134D03*
X0062992Y0183071D03*
X0062992Y0187008D03*
X0062992Y0190945D03*
X0025197Y0190945D03*
X0025197Y0187008D03*
X0025197Y0183071D03*
X0025197Y0179134D03*
X0025197Y0175197D03*
X0025197Y0171260D03*
D16*
X0044094Y0181102D03*
G36*
G01*
X0109600Y0100443D02*
X0107711Y0100443D01*
G75*
G02*
X0107474Y0100679I0000000J0000236D01*
G01*
X0107474Y0102569D01*
G75*
G02*
X0107711Y0102805I0000236J0000000D01*
G01*
X0109600Y0102805D01*
G75*
G02*
X0109837Y0102569I0000000J-000236D01*
G01*
X0109837Y0100679D01*
G75*
G02*
X0109600Y0100443I-000236J0000000D01*
G01*
G37*
G36*
G01*
X0100939Y0100443D02*
X0099049Y0100443D01*
G75*
G02*
X0098813Y0100679I0000000J0000236D01*
G01*
X0098813Y0102569D01*
G75*
G02*
X0099049Y0102805I0000236J0000000D01*
G01*
X0100939Y0102805D01*
G75*
G02*
X0101175Y0102569I0000000J-000236D01*
G01*
X0101175Y0100679D01*
G75*
G02*
X0100939Y0100443I-000236J0000000D01*
G01*
G37*
G36*
G01*
X0171063Y0190984D02*
X0171063Y0194055D01*
G75*
G02*
X0171339Y0194331I0000276J0000000D01*
G01*
X0173543Y0194331D01*
G75*
G02*
X0173819Y0194055I0000000J-000276D01*
G01*
X0173819Y0190984D01*
G75*
G02*
X0173543Y0190709I-000276J0000000D01*
G01*
X0171339Y0190709D01*
G75*
G02*
X0171063Y0190984I0000000J0000276D01*
G01*
G37*
G36*
G01*
X0177362Y0190984D02*
X0177362Y0194055D01*
G75*
G02*
X0177638Y0194331I0000276J0000000D01*
G01*
X0179843Y0194331D01*
G75*
G02*
X0180118Y0194055I0000000J-000276D01*
G01*
X0180118Y0190984D01*
G75*
G02*
X0179843Y0190709I-000276J0000000D01*
G01*
X0177638Y0190709D01*
G75*
G02*
X0177362Y0190984I0000000J0000276D01*
G01*
G37*
D11*
X0227559Y0155512D03*
G36*
G01*
X0007461Y0184488D02*
X0007461Y0187165D01*
G75*
G02*
X0007795Y0187500I0000335J0000000D01*
G01*
X0010472Y0187500D01*
G75*
G02*
X0010807Y0187165I0000000J-000335D01*
G01*
X0010807Y0184488D01*
G75*
G02*
X0010472Y0184154I-000335J0000000D01*
G01*
X0007795Y0184154D01*
G75*
G02*
X0007461Y0184488I0000000J0000335D01*
G01*
G37*
G36*
G01*
X0013681Y0184488D02*
X0013681Y0187165D01*
G75*
G02*
X0014016Y0187500I0000335J0000000D01*
G01*
X0016693Y0187500D01*
G75*
G02*
X0017028Y0187165I0000000J-000335D01*
G01*
X0017028Y0184488D01*
G75*
G02*
X0016693Y0184154I-000335J0000000D01*
G01*
X0014016Y0184154D01*
G75*
G02*
X0013681Y0184488I0000000J0000335D01*
G01*
G37*
G36*
G01*
X0110591Y0125000D02*
X0107520Y0125000D01*
G75*
G02*
X0107244Y0125276I0000000J0000276D01*
G01*
X0107244Y0127480D01*
G75*
G02*
X0107520Y0127756I0000276J0000000D01*
G01*
X0110591Y0127756D01*
G75*
G02*
X0110866Y0127480I0000000J-000276D01*
G01*
X0110866Y0125276D01*
G75*
G02*
X0110591Y0125000I-000276J0000000D01*
G01*
G37*
G36*
G01*
X0110591Y0131299D02*
X0107520Y0131299D01*
G75*
G02*
X0107244Y0131575I0000000J0000276D01*
G01*
X0107244Y0133780D01*
G75*
G02*
X0107520Y0134055I0000276J0000000D01*
G01*
X0110591Y0134055D01*
G75*
G02*
X0110866Y0133780I0000000J-000276D01*
G01*
X0110866Y0131575D01*
G75*
G02*
X0110591Y0131299I-000276J0000000D01*
G01*
G37*
G36*
G01*
X0096358Y0166929D02*
X0091437Y0166929D01*
G75*
G02*
X0090453Y0167913I0000000J0000984D01*
G01*
X0090453Y0170669D01*
G75*
G02*
X0091437Y0171654I0000984J0000000D01*
G01*
X0096358Y0171654D01*
G75*
G02*
X0097343Y0170669I0000000J-000984D01*
G01*
X0097343Y0167913D01*
G75*
G02*
X0096358Y0166929I-000984J0000000D01*
G01*
G37*
D17*
X0093898Y0177165D03*
X0093898Y0185039D03*
X0093898Y0192913D03*
G36*
G01*
X0199646Y0204921D02*
X0202717Y0204921D01*
G75*
G02*
X0202992Y0204646I0000000J-000276D01*
G01*
X0202992Y0202441D01*
G75*
G02*
X0202717Y0202165I-000276J0000000D01*
G01*
X0199646Y0202165D01*
G75*
G02*
X0199370Y0202441I0000000J0000276D01*
G01*
X0199370Y0204646D01*
G75*
G02*
X0199646Y0204921I0000276J0000000D01*
G01*
G37*
G36*
G01*
X0199646Y0198622D02*
X0202717Y0198622D01*
G75*
G02*
X0202992Y0198346I0000000J-000276D01*
G01*
X0202992Y0196142D01*
G75*
G02*
X0202717Y0195866I-000276J0000000D01*
G01*
X0199646Y0195866D01*
G75*
G02*
X0199370Y0196142I0000000J0000276D01*
G01*
X0199370Y0198346D01*
G75*
G02*
X0199646Y0198622I0000276J0000000D01*
G01*
G37*
D11*
X0109843Y0114173D03*
G36*
G01*
X0235256Y0172343D02*
X0232185Y0172343D01*
G75*
G02*
X0231909Y0172618I0000000J0000276D01*
G01*
X0231909Y0174823D01*
G75*
G02*
X0232185Y0175098I0000276J0000000D01*
G01*
X0235256Y0175098D01*
G75*
G02*
X0235531Y0174823I0000000J-000276D01*
G01*
X0235531Y0172618D01*
G75*
G02*
X0235256Y0172343I-000276J0000000D01*
G01*
G37*
G36*
G01*
X0235256Y0178642D02*
X0232185Y0178642D01*
G75*
G02*
X0231909Y0178917I0000000J0000276D01*
G01*
X0231909Y0181122D01*
G75*
G02*
X0232185Y0181398I0000276J0000000D01*
G01*
X0235256Y0181398D01*
G75*
G02*
X0235531Y0181122I0000000J-000276D01*
G01*
X0235531Y0178917D01*
G75*
G02*
X0235256Y0178642I-000276J0000000D01*
G01*
G37*
G36*
G01*
X0154764Y0181693D02*
X0157835Y0181693D01*
G75*
G02*
X0158110Y0181417I0000000J-000276D01*
G01*
X0158110Y0179213D01*
G75*
G02*
X0157835Y0178937I-000276J0000000D01*
G01*
X0154764Y0178937D01*
G75*
G02*
X0154488Y0179213I0000000J0000276D01*
G01*
X0154488Y0181417D01*
G75*
G02*
X0154764Y0181693I0000276J0000000D01*
G01*
G37*
G36*
G01*
X0154764Y0175394D02*
X0157835Y0175394D01*
G75*
G02*
X0158110Y0175118I0000000J-000276D01*
G01*
X0158110Y0172913D01*
G75*
G02*
X0157835Y0172638I-000276J0000000D01*
G01*
X0154764Y0172638D01*
G75*
G02*
X0154488Y0172913I0000000J0000276D01*
G01*
X0154488Y0175118D01*
G75*
G02*
X0154764Y0175394I0000276J0000000D01*
G01*
G37*
X0120079Y0125984D03*
D53*
X0237795Y0268307D03*
D54*
X0221654Y0253150D03*
X0093307Y0253150D03*
D53*
X0077165Y0268307D03*
D31*
X0196260Y0257087D03*
X0196260Y0266929D03*
X0196260Y0276772D03*
X0196260Y0286614D03*
X0186417Y0257087D03*
X0186417Y0266929D03*
X0186417Y0276772D03*
X0186417Y0286614D03*
X0176575Y0257087D03*
X0176575Y0266929D03*
X0176575Y0276772D03*
X0176575Y0286614D03*
X0166732Y0257087D03*
X0166732Y0266929D03*
X0166732Y0276772D03*
X0166732Y0286614D03*
X0156890Y0257087D03*
X0156890Y0266929D03*
X0156890Y0276772D03*
X0156890Y0286614D03*
X0147047Y0257087D03*
X0147047Y0266929D03*
X0147047Y0276772D03*
X0147047Y0286614D03*
X0133268Y0257087D03*
X0133268Y0266929D03*
X0133268Y0276772D03*
X0133268Y0286614D03*
X0118701Y0257087D03*
X0118701Y0266929D03*
X0118701Y0276772D03*
X0118701Y0286614D03*
D15*
X0062992Y0207480D03*
X0062992Y0211417D03*
X0062992Y0215354D03*
X0062992Y0219291D03*
X0062992Y0223228D03*
X0062992Y0227165D03*
X0025197Y0227165D03*
X0025197Y0223228D03*
X0025197Y0219291D03*
X0025197Y0215354D03*
X0025197Y0211417D03*
X0025197Y0207480D03*
D16*
X0044094Y0217323D03*
D11*
X0188189Y0006299D03*
X0176772Y0006299D03*
X0266535Y0236220D03*
G36*
G01*
X0265133Y0205118D02*
X0267151Y0205118D01*
G75*
G02*
X0268012Y0204257I0000000J-000861D01*
G01*
X0268012Y0202534D01*
G75*
G02*
X0267151Y0201673I-000861J0000000D01*
G01*
X0265133Y0201673D01*
G75*
G02*
X0264272Y0202534I0000000J0000861D01*
G01*
X0264272Y0204257D01*
G75*
G02*
X0265133Y0205118I0000861J0000000D01*
G01*
G37*
G36*
G01*
X0265133Y0198917D02*
X0267151Y0198917D01*
G75*
G02*
X0268012Y0198056I0000000J-000861D01*
G01*
X0268012Y0196334D01*
G75*
G02*
X0267151Y0195472I-000861J0000000D01*
G01*
X0265133Y0195472D01*
G75*
G02*
X0264272Y0196334I0000000J0000861D01*
G01*
X0264272Y0198056D01*
G75*
G02*
X0265133Y0198917I0000861J0000000D01*
G01*
G37*
G36*
G01*
X0152047Y0187008D02*
X0150866Y0187008D01*
G75*
G02*
X0150276Y0187598I0000000J0000591D01*
G01*
X0150276Y0194094D01*
G75*
G02*
X0150866Y0194685I0000591J0000000D01*
G01*
X0152047Y0194685D01*
G75*
G02*
X0152638Y0194094I0000000J-000591D01*
G01*
X0152638Y0187598D01*
G75*
G02*
X0152047Y0187008I-000591J0000000D01*
G01*
G37*
G36*
G01*
X0157047Y0187008D02*
X0155866Y0187008D01*
G75*
G02*
X0155276Y0187598I0000000J0000591D01*
G01*
X0155276Y0194094D01*
G75*
G02*
X0155866Y0194685I0000591J0000000D01*
G01*
X0157047Y0194685D01*
G75*
G02*
X0157638Y0194094I0000000J-000591D01*
G01*
X0157638Y0187598D01*
G75*
G02*
X0157047Y0187008I-000591J0000000D01*
G01*
G37*
G36*
G01*
X0162047Y0187008D02*
X0160866Y0187008D01*
G75*
G02*
X0160276Y0187598I0000000J0000591D01*
G01*
X0160276Y0194094D01*
G75*
G02*
X0160866Y0194685I0000591J0000000D01*
G01*
X0162047Y0194685D01*
G75*
G02*
X0162638Y0194094I0000000J-000591D01*
G01*
X0162638Y0187598D01*
G75*
G02*
X0162047Y0187008I-000591J0000000D01*
G01*
G37*
G36*
G01*
X0167047Y0187008D02*
X0165866Y0187008D01*
G75*
G02*
X0165276Y0187598I0000000J0000591D01*
G01*
X0165276Y0194094D01*
G75*
G02*
X0165866Y0194685I0000591J0000000D01*
G01*
X0167047Y0194685D01*
G75*
G02*
X0167638Y0194094I0000000J-000591D01*
G01*
X0167638Y0187598D01*
G75*
G02*
X0167047Y0187008I-000591J0000000D01*
G01*
G37*
G36*
G01*
X0167047Y0206496D02*
X0165866Y0206496D01*
G75*
G02*
X0165276Y0207087I0000000J0000591D01*
G01*
X0165276Y0213583D01*
G75*
G02*
X0165866Y0214173I0000591J0000000D01*
G01*
X0167047Y0214173D01*
G75*
G02*
X0167638Y0213583I0000000J-000591D01*
G01*
X0167638Y0207087D01*
G75*
G02*
X0167047Y0206496I-000591J0000000D01*
G01*
G37*
G36*
G01*
X0162047Y0206496D02*
X0160866Y0206496D01*
G75*
G02*
X0160276Y0207087I0000000J0000591D01*
G01*
X0160276Y0213583D01*
G75*
G02*
X0160866Y0214173I0000591J0000000D01*
G01*
X0162047Y0214173D01*
G75*
G02*
X0162638Y0213583I0000000J-000591D01*
G01*
X0162638Y0207087D01*
G75*
G02*
X0162047Y0206496I-000591J0000000D01*
G01*
G37*
G36*
G01*
X0157047Y0206496D02*
X0155866Y0206496D01*
G75*
G02*
X0155276Y0207087I0000000J0000591D01*
G01*
X0155276Y0213583D01*
G75*
G02*
X0155866Y0214173I0000591J0000000D01*
G01*
X0157047Y0214173D01*
G75*
G02*
X0157638Y0213583I0000000J-000591D01*
G01*
X0157638Y0207087D01*
G75*
G02*
X0157047Y0206496I-000591J0000000D01*
G01*
G37*
G36*
G01*
X0152047Y0206496D02*
X0150866Y0206496D01*
G75*
G02*
X0150276Y0207087I0000000J0000591D01*
G01*
X0150276Y0213583D01*
G75*
G02*
X0150866Y0214173I0000591J0000000D01*
G01*
X0152047Y0214173D01*
G75*
G02*
X0152638Y0213583I0000000J-000591D01*
G01*
X0152638Y0207087D01*
G75*
G02*
X0152047Y0206496I-000591J0000000D01*
G01*
G37*
D12*
X0088583Y0236024D03*
G36*
G01*
X0085039Y0230728D02*
X0085039Y0233445D01*
G75*
G02*
X0085945Y0234350I0000906J0000000D01*
G01*
X0091220Y0234350D01*
G75*
G02*
X0092126Y0233445I0000000J-000906D01*
G01*
X0092126Y0230728D01*
G75*
G02*
X0091220Y0229823I-000906J0000000D01*
G01*
X0085945Y0229823D01*
G75*
G02*
X0085039Y0230728I0000000J0000906D01*
G01*
G37*
G36*
G01*
X0085039Y0219311D02*
X0085039Y0222028D01*
G75*
G02*
X0085945Y0222933I0000906J0000000D01*
G01*
X0091220Y0222933D01*
G75*
G02*
X0092126Y0222028I0000000J-000906D01*
G01*
X0092126Y0219311D01*
G75*
G02*
X0091220Y0218405I-000906J0000000D01*
G01*
X0085945Y0218405D01*
G75*
G02*
X0085039Y0219311I0000000J0000906D01*
G01*
G37*
X0088583Y0216732D03*
D11*
X0237402Y0162598D03*
D12*
X0093287Y0007480D03*
G36*
G01*
X0095079Y0005020D02*
X0095079Y0009941D01*
G75*
G02*
X0095472Y0010335I0000394J0000000D01*
G01*
X0098622Y0010335D01*
G75*
G02*
X0099016Y0009941I0000000J-000394D01*
G01*
X0099016Y0005020D01*
G75*
G02*
X0098622Y0004626I-000394J0000000D01*
G01*
X0095472Y0004626D01*
G75*
G02*
X0095079Y0005020I0000000J0000394D01*
G01*
G37*
G36*
G01*
X0102559Y0005020D02*
X0102559Y0009941D01*
G75*
G02*
X0102953Y0010335I0000394J0000000D01*
G01*
X0106102Y0010335D01*
G75*
G02*
X0106496Y0009941I0000000J-000394D01*
G01*
X0106496Y0005020D01*
G75*
G02*
X0106102Y0004626I-000394J0000000D01*
G01*
X0102953Y0004626D01*
G75*
G02*
X0102559Y0005020I0000000J0000394D01*
G01*
G37*
X0108287Y0007480D03*
G36*
G01*
X0017126Y0213346D02*
X0017126Y0210276D01*
G75*
G02*
X0016850Y0210000I-000276J0000000D01*
G01*
X0014646Y0210000D01*
G75*
G02*
X0014370Y0210276I0000000J0000276D01*
G01*
X0014370Y0213346D01*
G75*
G02*
X0014646Y0213622I0000276J0000000D01*
G01*
X0016850Y0213622D01*
G75*
G02*
X0017126Y0213346I0000000J-000276D01*
G01*
G37*
G36*
G01*
X0010827Y0213346D02*
X0010827Y0210276D01*
G75*
G02*
X0010551Y0210000I-000276J0000000D01*
G01*
X0008346Y0210000D01*
G75*
G02*
X0008071Y0210276I0000000J0000276D01*
G01*
X0008071Y0213346D01*
G75*
G02*
X0008346Y0213622I0000276J0000000D01*
G01*
X0010551Y0213622D01*
G75*
G02*
X0010827Y0213346I0000000J-000276D01*
G01*
G37*
D11*
X0120079Y0059449D03*
G36*
G01*
X0123661Y0217717D02*
X0119646Y0217717D01*
G75*
G02*
X0119291Y0218071I0000000J0000354D01*
G01*
X0119291Y0220906D01*
G75*
G02*
X0119646Y0221260I0000354J0000000D01*
G01*
X0123661Y0221260D01*
G75*
G02*
X0124016Y0220906I0000000J-000354D01*
G01*
X0124016Y0218071D01*
G75*
G02*
X0123661Y0217717I-000354J0000000D01*
G01*
G37*
G36*
G01*
X0123661Y0230709D02*
X0119646Y0230709D01*
G75*
G02*
X0119291Y0231063I0000000J0000354D01*
G01*
X0119291Y0233898D01*
G75*
G02*
X0119646Y0234252I0000354J0000000D01*
G01*
X0123661Y0234252D01*
G75*
G02*
X0124016Y0233898I0000000J-000354D01*
G01*
X0124016Y0231063D01*
G75*
G02*
X0123661Y0230709I-000354J0000000D01*
G01*
G37*
D12*
X0078740Y0236024D03*
G36*
G01*
X0075197Y0230728D02*
X0075197Y0233445D01*
G75*
G02*
X0076102Y0234350I0000906J0000000D01*
G01*
X0081378Y0234350D01*
G75*
G02*
X0082283Y0233445I0000000J-000906D01*
G01*
X0082283Y0230728D01*
G75*
G02*
X0081378Y0229823I-000906J0000000D01*
G01*
X0076102Y0229823D01*
G75*
G02*
X0075197Y0230728I0000000J0000906D01*
G01*
G37*
G36*
G01*
X0075197Y0219311D02*
X0075197Y0222028D01*
G75*
G02*
X0076102Y0222933I0000906J0000000D01*
G01*
X0081378Y0222933D01*
G75*
G02*
X0082283Y0222028I0000000J-000906D01*
G01*
X0082283Y0219311D01*
G75*
G02*
X0081378Y0218405I-000906J0000000D01*
G01*
X0076102Y0218405D01*
G75*
G02*
X0075197Y0219311I0000000J0000906D01*
G01*
G37*
X0078740Y0216732D03*
D11*
X0131102Y0153543D03*
G36*
G01*
X0135472Y0217717D02*
X0131457Y0217717D01*
G75*
G02*
X0131102Y0218071I0000000J0000354D01*
G01*
X0131102Y0220906D01*
G75*
G02*
X0131457Y0221260I0000354J0000000D01*
G01*
X0135472Y0221260D01*
G75*
G02*
X0135827Y0220906I0000000J-000354D01*
G01*
X0135827Y0218071D01*
G75*
G02*
X0135472Y0217717I-000354J0000000D01*
G01*
G37*
G36*
G01*
X0135472Y0230709D02*
X0131457Y0230709D01*
G75*
G02*
X0131102Y0231063I0000000J0000354D01*
G01*
X0131102Y0233898D01*
G75*
G02*
X0131457Y0234252I0000354J0000000D01*
G01*
X0135472Y0234252D01*
G75*
G02*
X0135827Y0233898I0000000J-000354D01*
G01*
X0135827Y0231063D01*
G75*
G02*
X0135472Y0230709I-000354J0000000D01*
G01*
G37*
G36*
G01*
X0272219Y0205167D02*
X0274237Y0205167D01*
G75*
G02*
X0275098Y0204306I0000000J-000861D01*
G01*
X0275098Y0202584D01*
G75*
G02*
X0274237Y0201722I-000861J0000000D01*
G01*
X0272219Y0201722D01*
G75*
G02*
X0271358Y0202584I0000000J0000861D01*
G01*
X0271358Y0204306D01*
G75*
G02*
X0272219Y0205167I0000861J0000000D01*
G01*
G37*
G36*
G01*
X0272219Y0198967D02*
X0274237Y0198967D01*
G75*
G02*
X0275098Y0198105I0000000J-000861D01*
G01*
X0275098Y0196383D01*
G75*
G02*
X0274237Y0195522I-000861J0000000D01*
G01*
X0272219Y0195522D01*
G75*
G02*
X0271358Y0196383I0000000J0000861D01*
G01*
X0271358Y0198105D01*
G75*
G02*
X0272219Y0198967I0000861J0000000D01*
G01*
G37*
G36*
G01*
X0257953Y0172441D02*
X0254882Y0172441D01*
G75*
G02*
X0254606Y0172717I0000000J0000276D01*
G01*
X0254606Y0174921D01*
G75*
G02*
X0254882Y0175197I0000276J0000000D01*
G01*
X0257953Y0175197D01*
G75*
G02*
X0258228Y0174921I0000000J-000276D01*
G01*
X0258228Y0172717D01*
G75*
G02*
X0257953Y0172441I-000276J0000000D01*
G01*
G37*
G36*
G01*
X0257953Y0178740D02*
X0254882Y0178740D01*
G75*
G02*
X0254606Y0179016I0000000J0000276D01*
G01*
X0254606Y0181220D01*
G75*
G02*
X0254882Y0181496I0000276J0000000D01*
G01*
X0257953Y0181496D01*
G75*
G02*
X0258228Y0181220I0000000J-000276D01*
G01*
X0258228Y0179016D01*
G75*
G02*
X0257953Y0178740I-000276J0000000D01*
G01*
G37*
G36*
G01*
X0251654Y0172441D02*
X0248583Y0172441D01*
G75*
G02*
X0248307Y0172717I0000000J0000276D01*
G01*
X0248307Y0174921D01*
G75*
G02*
X0248583Y0175197I0000276J0000000D01*
G01*
X0251654Y0175197D01*
G75*
G02*
X0251929Y0174921I0000000J-000276D01*
G01*
X0251929Y0172717D01*
G75*
G02*
X0251654Y0172441I-000276J0000000D01*
G01*
G37*
G36*
G01*
X0251654Y0178740D02*
X0248583Y0178740D01*
G75*
G02*
X0248307Y0179016I0000000J0000276D01*
G01*
X0248307Y0181220D01*
G75*
G02*
X0248583Y0181496I0000276J0000000D01*
G01*
X0251654Y0181496D01*
G75*
G02*
X0251929Y0181220I0000000J-000276D01*
G01*
X0251929Y0179016D01*
G75*
G02*
X0251654Y0178740I-000276J0000000D01*
G01*
G37*
G36*
G01*
X0217913Y0176083D02*
X0219882Y0176083D01*
G75*
G02*
X0220768Y0175197I0000000J-000886D01*
G01*
X0220768Y0173425D01*
G75*
G02*
X0219882Y0172539I-000886J0000000D01*
G01*
X0217913Y0172539D01*
G75*
G02*
X0217028Y0173425I0000000J0000886D01*
G01*
X0217028Y0175197D01*
G75*
G02*
X0217913Y0176083I0000886J0000000D01*
G01*
G37*
G36*
G01*
X0217913Y0169980D02*
X0219882Y0169980D01*
G75*
G02*
X0220768Y0169094I0000000J-000886D01*
G01*
X0220768Y0167323D01*
G75*
G02*
X0219882Y0166437I-000886J0000000D01*
G01*
X0217913Y0166437D01*
G75*
G02*
X0217028Y0167323I0000000J0000886D01*
G01*
X0217028Y0169094D01*
G75*
G02*
X0217913Y0169980I0000886J0000000D01*
G01*
G37*
G36*
G01*
X0164606Y0181693D02*
X0167677Y0181693D01*
G75*
G02*
X0167953Y0181417I0000000J-000276D01*
G01*
X0167953Y0179213D01*
G75*
G02*
X0167677Y0178937I-000276J0000000D01*
G01*
X0164606Y0178937D01*
G75*
G02*
X0164331Y0179213I0000000J0000276D01*
G01*
X0164331Y0181417D01*
G75*
G02*
X0164606Y0181693I0000276J0000000D01*
G01*
G37*
G36*
G01*
X0164606Y0175394D02*
X0167677Y0175394D01*
G75*
G02*
X0167953Y0175118I0000000J-000276D01*
G01*
X0167953Y0172913D01*
G75*
G02*
X0167677Y0172638I-000276J0000000D01*
G01*
X0164606Y0172638D01*
G75*
G02*
X0164331Y0172913I0000000J0000276D01*
G01*
X0164331Y0175118D01*
G75*
G02*
X0164606Y0175394I0000276J0000000D01*
G01*
G37*
G36*
G01*
X0210522Y0196850D02*
X0207766Y0196850D01*
G75*
G02*
X0206781Y0197835I0000000J0000984D01*
G01*
X0206781Y0204528D01*
G75*
G02*
X0207766Y0205512I0000984J0000000D01*
G01*
X0210522Y0205512D01*
G75*
G02*
X0211506Y0204528I0000000J-000984D01*
G01*
X0211506Y0197835D01*
G75*
G02*
X0210522Y0196850I-000984J0000000D01*
G01*
G37*
G36*
G01*
X0228553Y0213386D02*
X0207687Y0213386D01*
G75*
G02*
X0206703Y0214370I0000000J0000984D01*
G01*
X0206703Y0237598D01*
G75*
G02*
X0207687Y0238583I0000984J0000000D01*
G01*
X0228553Y0238583D01*
G75*
G02*
X0229537Y0237598I0000000J-000984D01*
G01*
X0229537Y0214370D01*
G75*
G02*
X0228553Y0213386I-000984J0000000D01*
G01*
G37*
G36*
G01*
X0228474Y0196850D02*
X0225719Y0196850D01*
G75*
G02*
X0224734Y0197835I0000000J0000984D01*
G01*
X0224734Y0204528D01*
G75*
G02*
X0225719Y0205512I0000984J0000000D01*
G01*
X0228474Y0205512D01*
G75*
G02*
X0229459Y0204528I0000000J-000984D01*
G01*
X0229459Y0197835D01*
G75*
G02*
X0228474Y0196850I-000984J0000000D01*
G01*
G37*
D12*
X0102362Y0236024D03*
G36*
G01*
X0098819Y0230728D02*
X0098819Y0233445D01*
G75*
G02*
X0099724Y0234350I0000906J0000000D01*
G01*
X0105000Y0234350D01*
G75*
G02*
X0105906Y0233445I0000000J-000906D01*
G01*
X0105906Y0230728D01*
G75*
G02*
X0105000Y0229823I-000906J0000000D01*
G01*
X0099724Y0229823D01*
G75*
G02*
X0098819Y0230728I0000000J0000906D01*
G01*
G37*
G36*
G01*
X0098819Y0219311D02*
X0098819Y0222028D01*
G75*
G02*
X0099724Y0222933I0000906J0000000D01*
G01*
X0105000Y0222933D01*
G75*
G02*
X0105906Y0222028I0000000J-000906D01*
G01*
X0105906Y0219311D01*
G75*
G02*
X0105000Y0218405I-000906J0000000D01*
G01*
X0099724Y0218405D01*
G75*
G02*
X0098819Y0219311I0000000J0000906D01*
G01*
G37*
X0102362Y0216732D03*
G36*
G01*
X0007854Y0220709D02*
X0007854Y0223386D01*
G75*
G02*
X0008189Y0223720I0000335J0000000D01*
G01*
X0010866Y0223720D01*
G75*
G02*
X0011201Y0223386I0000000J-000335D01*
G01*
X0011201Y0220709D01*
G75*
G02*
X0010866Y0220374I-000335J0000000D01*
G01*
X0008189Y0220374D01*
G75*
G02*
X0007854Y0220709I0000000J0000335D01*
G01*
G37*
G36*
G01*
X0014075Y0220709D02*
X0014075Y0223386D01*
G75*
G02*
X0014409Y0223720I0000335J0000000D01*
G01*
X0017087Y0223720D01*
G75*
G02*
X0017421Y0223386I0000000J-000335D01*
G01*
X0017421Y0220709D01*
G75*
G02*
X0017087Y0220374I-000335J0000000D01*
G01*
X0014409Y0220374D01*
G75*
G02*
X0014075Y0220709I0000000J0000335D01*
G01*
G37*
G36*
G01*
X0257613Y0205167D02*
X0259631Y0205167D01*
G75*
G02*
X0260492Y0204306I0000000J-000861D01*
G01*
X0260492Y0202584D01*
G75*
G02*
X0259631Y0201722I-000861J0000000D01*
G01*
X0257613Y0201722D01*
G75*
G02*
X0256752Y0202584I0000000J0000861D01*
G01*
X0256752Y0204306D01*
G75*
G02*
X0257613Y0205167I0000861J0000000D01*
G01*
G37*
G36*
G01*
X0257613Y0198967D02*
X0259631Y0198967D01*
G75*
G02*
X0260492Y0198105I0000000J-000861D01*
G01*
X0260492Y0196383D01*
G75*
G02*
X0259631Y0195522I-000861J0000000D01*
G01*
X0257613Y0195522D01*
G75*
G02*
X0256752Y0196383I0000000J0000861D01*
G01*
X0256752Y0198105D01*
G75*
G02*
X0257613Y0198967I0000861J0000000D01*
G01*
G37*
G36*
G01*
X0240374Y0172441D02*
X0237303Y0172441D01*
G75*
G02*
X0237028Y0172717I0000000J0000276D01*
G01*
X0237028Y0174921D01*
G75*
G02*
X0237303Y0175197I0000276J0000000D01*
G01*
X0240374Y0175197D01*
G75*
G02*
X0240650Y0174921I0000000J-000276D01*
G01*
X0240650Y0172717D01*
G75*
G02*
X0240374Y0172441I-000276J0000000D01*
G01*
G37*
G36*
G01*
X0240374Y0178740D02*
X0237303Y0178740D01*
G75*
G02*
X0237028Y0179016I0000000J0000276D01*
G01*
X0237028Y0181220D01*
G75*
G02*
X0237303Y0181496I0000276J0000000D01*
G01*
X0240374Y0181496D01*
G75*
G02*
X0240650Y0181220I0000000J-000276D01*
G01*
X0240650Y0179016D01*
G75*
G02*
X0240374Y0178740I-000276J0000000D01*
G01*
G37*
D18*
X0045915Y0121260D03*
X0045915Y0125984D03*
X0045915Y0116535D03*
X0045915Y0111811D03*
X0102707Y0137244D03*
X0102707Y0141181D03*
D37*
X0297244Y0294488D03*
D38*
X0108563Y0091831D03*
X0108563Y0066634D03*
X0108563Y0059154D03*
X0108563Y0042224D03*
D18*
X0110335Y0032776D03*
X0110335Y0028839D03*
D38*
X0108563Y0017618D03*
X0047539Y0093602D03*
X0047539Y0086319D03*
X0047539Y0066831D03*
X0047539Y0019390D03*
G36*
G01*
X0162717Y0172539D02*
X0159646Y0172539D01*
G75*
G02*
X0159370Y0172815I0000000J0000276D01*
G01*
X0159370Y0175020D01*
G75*
G02*
X0159646Y0175295I0000276J0000000D01*
G01*
X0162717Y0175295D01*
G75*
G02*
X0162992Y0175020I0000000J-000276D01*
G01*
X0162992Y0172815D01*
G75*
G02*
X0162717Y0172539I-000276J0000000D01*
G01*
G37*
G36*
G01*
X0162717Y0178839D02*
X0159646Y0178839D01*
G75*
G02*
X0159370Y0179114I0000000J0000276D01*
G01*
X0159370Y0181319D01*
G75*
G02*
X0159646Y0181594I0000276J0000000D01*
G01*
X0162717Y0181594D01*
G75*
G02*
X0162992Y0181319I0000000J-000276D01*
G01*
X0162992Y0179114D01*
G75*
G02*
X0162717Y0178839I-000276J0000000D01*
G01*
G37*
X0136614Y0175984D03*
X0136614Y0205511D03*
X0271260Y0014173D02*
G01*
G75*
D230*
X0253170Y0137795D02*
D03*
X0253170Y0144882D02*
D03*
X0263209Y0144882D02*
D03*
X0263209Y0137795D02*
D03*
X0204429Y0025984D02*
D03*
X0204429Y0018897D02*
D03*
X0214469Y0018897D02*
D03*
X0214469Y0025984D02*
D03*
X0198327Y0025984D02*
D03*
X0198327Y0018897D02*
D03*
X0188287Y0018897D02*
D03*
X0188287Y0025984D02*
D03*
D231*
X0256614Y0137795D02*
D03*
X0259764Y0137795D02*
D03*
X0259764Y0144882D02*
D03*
X0256614Y0144882D02*
D03*
X0211024Y0018897D02*
D03*
X0207874Y0018897D02*
D03*
X0207874Y0025984D02*
D03*
X0211024Y0025984D02*
D03*
X0194882Y0025984D02*
D03*
X0191732Y0025984D02*
D03*
X0191732Y0018897D02*
D03*
X0194882Y0018897D02*
D03*
D232*
X0256166Y0133583D02*
D03*
X0253607Y0133583D02*
D03*
X0251047Y0133583D02*
D03*
X0256166Y0126103D02*
D03*
X0251047Y0126103D02*
D03*
X0253607Y0126103D02*
D03*
X0260791Y0126103D02*
D03*
X0265910Y0126103D02*
D03*
X0260791Y0133583D02*
D03*
X0263351Y0133583D02*
D03*
X0265910Y0133583D02*
D03*
X0263351Y0126103D02*
D03*
D109*
X0156890Y0066375D02*
D03*
X0158858Y0066375D02*
D03*
X0160827Y0066375D02*
D03*
X0162795Y0066375D02*
D03*
X0164764Y0066375D02*
D03*
X0166732Y0066375D02*
D03*
X0168701Y0066375D02*
D03*
X0170669Y0066375D02*
D03*
X0172638Y0066375D02*
D03*
X0176575Y0066375D02*
D03*
X0178544Y0066375D02*
D03*
X0180512Y0066375D02*
D03*
X0182481Y0066375D02*
D03*
X0184449Y0066375D02*
D03*
X0186418Y0066375D02*
D03*
X0188386Y0066375D02*
D03*
X0190355Y0066375D02*
D03*
X0192323Y0066375D02*
D03*
X0194292Y0066375D02*
D03*
X0196260Y0066375D02*
D03*
X0198228Y0066375D02*
D03*
X0200197Y0066375D02*
D03*
X0202165Y0066375D02*
D03*
X0204134Y0066375D02*
D03*
X0204134Y0127399D02*
D03*
X0202165Y0127399D02*
D03*
X0200197Y0127399D02*
D03*
X0198228Y0127399D02*
D03*
X0196260Y0127399D02*
D03*
X0194292Y0127399D02*
D03*
X0192323Y0127399D02*
D03*
X0190355Y0127399D02*
D03*
X0188386Y0127399D02*
D03*
X0186418Y0127399D02*
D03*
X0184449Y0127399D02*
D03*
X0182481Y0127399D02*
D03*
X0180512Y0127399D02*
D03*
X0178544Y0127399D02*
D03*
X0176575Y0127399D02*
D03*
X0174607Y0127399D02*
D03*
X0172638Y0127399D02*
D03*
X0170669Y0127399D02*
D03*
X0168701Y0127399D02*
D03*
X0166732Y0127399D02*
D03*
X0164764Y0127399D02*
D03*
X0162795Y0127399D02*
D03*
X0160827Y0127399D02*
D03*
X0156890Y0127399D02*
D03*
X0174607Y0066375D02*
D03*
X0158858Y0127399D02*
D03*
D108*
X0211024Y0073265D02*
D03*
X0211024Y0077202D02*
D03*
X0211024Y0079171D02*
D03*
X0211024Y0081139D02*
D03*
X0211024Y0083108D02*
D03*
X0211024Y0085076D02*
D03*
X0211024Y0087045D02*
D03*
X0211024Y0089013D02*
D03*
X0211024Y0090982D02*
D03*
X0211024Y0092950D02*
D03*
X0211024Y0094919D02*
D03*
X0211024Y0096887D02*
D03*
X0211024Y0098856D02*
D03*
X0211024Y0100824D02*
D03*
X0211024Y0102793D02*
D03*
X0211024Y0104761D02*
D03*
X0211024Y0106730D02*
D03*
X0211024Y0108698D02*
D03*
X0211024Y0110667D02*
D03*
X0211024Y0112635D02*
D03*
X0211024Y0114604D02*
D03*
X0211024Y0116572D02*
D03*
X0211024Y0118541D02*
D03*
X0211024Y0120509D02*
D03*
X0150000Y0120509D02*
D03*
X0150000Y0118541D02*
D03*
X0150000Y0116572D02*
D03*
X0150000Y0114604D02*
D03*
X0150000Y0112635D02*
D03*
X0150000Y0110667D02*
D03*
X0150000Y0108698D02*
D03*
X0150000Y0106730D02*
D03*
X0150000Y0104761D02*
D03*
X0150000Y0102793D02*
D03*
X0150000Y0100824D02*
D03*
X0150000Y0098856D02*
D03*
X0150000Y0096887D02*
D03*
X0150000Y0094919D02*
D03*
X0150000Y0092950D02*
D03*
X0150000Y0090982D02*
D03*
X0150000Y0089013D02*
D03*
X0150000Y0087045D02*
D03*
X0150000Y0085076D02*
D03*
X0150000Y0083108D02*
D03*
X0150000Y0081139D02*
D03*
X0150000Y0079171D02*
D03*
X0150000Y0077202D02*
D03*
X0150000Y0075234D02*
D03*
X0150000Y0073265D02*
D03*
X0211024Y0075234D02*
D03*
D233*
X0227953Y0069882D02*
D03*
X0227953Y0097834D02*
D03*
X0227953Y0041929D02*
D03*
X0233071Y0047441D02*
D03*
X0222835Y0075394D02*
D03*
X0225394Y0075394D02*
D03*
X0227953Y0075394D02*
D03*
X0230512Y0075394D02*
D03*
X0233071Y0075394D02*
D03*
X0235630Y0075394D02*
D03*
X0238189Y0075394D02*
D03*
X0222835Y0097834D02*
D03*
X0225394Y0097834D02*
D03*
X0230512Y0097834D02*
D03*
X0233071Y0097834D02*
D03*
X0235630Y0097834D02*
D03*
X0238189Y0097834D02*
D03*
X0222835Y0019488D02*
D03*
X0225394Y0019488D02*
D03*
X0227953Y0019488D02*
D03*
X0230512Y0019488D02*
D03*
X0233071Y0019488D02*
D03*
X0235630Y0019488D02*
D03*
X0238189Y0019488D02*
D03*
X0222835Y0041929D02*
D03*
X0225394Y0041929D02*
D03*
X0230512Y0041929D02*
D03*
X0233071Y0041929D02*
D03*
X0235630Y0041929D02*
D03*
X0238189Y0041929D02*
D03*
X0222835Y0047441D02*
D03*
X0225394Y0047441D02*
D03*
X0227953Y0047441D02*
D03*
X0230512Y0047441D02*
D03*
X0235630Y0047441D02*
D03*
X0238189Y0047441D02*
D03*
X0222835Y0069882D02*
D03*
X0225394Y0069882D02*
D03*
X0230512Y0069882D02*
D03*
X0233071Y0069882D02*
D03*
X0235630Y0069882D02*
D03*
X0238189Y0069882D02*
D03*
X0238189Y0125787D02*
D03*
X0235630Y0125787D02*
D03*
X0233071Y0125787D02*
D03*
X0230512Y0125787D02*
D03*
X0227953Y0125787D02*
D03*
X0225394Y0125787D02*
D03*
X0222835Y0125787D02*
D03*
X0238189Y0103346D02*
D03*
X0235630Y0103346D02*
D03*
X0233071Y0103346D02*
D03*
X0230512Y0103346D02*
D03*
X0227953Y0103346D02*
D03*
X0225394Y0103346D02*
D03*
X0222835Y0103346D02*
D03*
D111*
X0137067Y0124291D02*
D03*
X0142067Y0124291D02*
D03*
X0137067Y0119291D02*
D03*
X0142067Y0119291D02*
D03*
X0137067Y0114291D02*
D03*
X0142067Y0114291D02*
D03*
D234*
X0135827Y0138582D02*
D03*
X0135827Y0142323D02*
D03*
X0135827Y0134842D02*
D03*
X0145276Y0134842D02*
D03*
X0145276Y0138582D02*
D03*
X0145276Y0142323D02*
D03*
D235*
X0157087Y0140032D02*
D03*
X0152362Y0140032D02*
D03*
X0166634Y0138563D02*
D03*
X0139849Y0052023D02*
D03*
X0215715Y0065335D02*
D03*
X0157087Y0136096D02*
D03*
X0166634Y0142501D02*
D03*
X0203618Y0137201D02*
D03*
X0203618Y0141138D02*
D03*
X0212673Y0137201D02*
D03*
X0212673Y0141138D02*
D03*
X0152362Y0136096D02*
D03*
X0139849Y0055960D02*
D03*
X0156564Y0048883D02*
D03*
X0156564Y0052820D02*
D03*
X0215715Y0069272D02*
D03*
X0211419Y0069291D02*
D03*
X0211419Y0065354D02*
D03*
D115*
X0175269Y0142489D02*
D03*
X0177237Y0142489D02*
D03*
X0173300Y0136190D02*
D03*
X0175269Y0136190D02*
D03*
X0171332Y0136190D02*
D03*
X0177237Y0136190D02*
D03*
X0171332Y0142489D02*
D03*
X0173300Y0142489D02*
D03*
D114*
X0177434Y0140324D02*
D03*
X0177434Y0138355D02*
D03*
X0171135Y0138355D02*
D03*
X0171135Y0140324D02*
D03*
D236*
X0182284Y0137584D02*
D03*
X0198819Y0137584D02*
D03*
D237*
X0254725Y0109055D02*
D03*
X0254725Y0118504D02*
D03*
X0254725Y0113779D02*
D03*
X0254725Y0104331D02*
D03*
X0266142Y0118504D02*
D03*
X0266142Y0109055D02*
D03*
X0266142Y0113779D02*
D03*
X0266142Y0104331D02*
D03*
X0247745Y0098121D02*
D03*
X0243808Y0098121D02*
D03*
X0262205Y0104331D02*
D03*
D03*
X0258268Y0104331D02*
D03*
X0262205Y0109055D02*
D03*
X0258268Y0109055D02*
D03*
X0250788Y0104331D02*
D03*
X0262205Y0113779D02*
D03*
X0258268Y0113779D02*
D03*
X0250788Y0109055D02*
D03*
X0250788Y0113779D02*
D03*
X0262205Y0118504D02*
D03*
X0258268Y0118504D02*
D03*
X0262205Y0118504D02*
D03*
X0250788Y0118504D02*
D03*
X0262205Y0109055D02*
D03*
X0262205Y0113779D02*
D03*
X0259843Y0018307D02*
D03*
X0263780Y0018307D02*
D03*
X0262205Y0042913D02*
D03*
X0266142Y0042913D02*
D03*
X0262205Y0057086D02*
D03*
X0266142Y0057086D02*
D03*
X0258268Y0075984D02*
D03*
X0262205Y0075984D02*
D03*
X0266142Y0075984D02*
D03*
X0262205Y0075984D02*
D03*
X0258268Y0090157D02*
D03*
X0262205Y0090157D02*
D03*
X0243110Y0018307D02*
D03*
X0247047Y0018307D02*
D03*
X0262205Y0024016D02*
D03*
X0258268Y0024016D02*
D03*
X0262205Y0028740D02*
D03*
X0258268Y0028740D02*
D03*
X0262205Y0033464D02*
D03*
X0258268Y0033464D02*
D03*
X0262205Y0038189D02*
D03*
X0258268Y0038189D02*
D03*
X0262205Y0024016D02*
D03*
X0266142Y0024016D02*
D03*
X0262205Y0028740D02*
D03*
X0266142Y0028740D02*
D03*
X0262205Y0033464D02*
D03*
X0266142Y0033464D02*
D03*
X0262205Y0038189D02*
D03*
X0266142Y0038189D02*
D03*
X0262205Y0042913D02*
D03*
X0258268Y0042913D02*
D03*
X0262205Y0047638D02*
D03*
X0258268Y0047638D02*
D03*
X0262205Y0052362D02*
D03*
X0258268Y0052362D02*
D03*
X0262205Y0057086D02*
D03*
X0258268Y0057086D02*
D03*
X0262205Y0047638D02*
D03*
X0266142Y0047638D02*
D03*
X0262205Y0052362D02*
D03*
X0266142Y0052362D02*
D03*
X0258268Y0061811D02*
D03*
X0262205Y0061811D02*
D03*
X0258268Y0066535D02*
D03*
X0262205Y0066535D02*
D03*
X0258268Y0071260D02*
D03*
X0262205Y0071260D02*
D03*
X0266142Y0061811D02*
D03*
X0262205Y0061811D02*
D03*
X0266142Y0066535D02*
D03*
X0262205Y0066535D02*
D03*
X0266142Y0071260D02*
D03*
X0262205Y0071260D02*
D03*
X0258268Y0080709D02*
D03*
X0262205Y0080709D02*
D03*
X0258268Y0085433D02*
D03*
X0262205Y0085433D02*
D03*
X0258268Y0094882D02*
D03*
X0262205Y0094882D02*
D03*
X0266142Y0080709D02*
D03*
X0262205Y0080709D02*
D03*
X0266142Y0085433D02*
D03*
X0262205Y0085433D02*
D03*
X0266142Y0090157D02*
D03*
X0262205Y0090157D02*
D03*
X0266142Y0094882D02*
D03*
X0262205Y0094882D02*
D03*
X0252166Y0018307D02*
D03*
X0256103Y0018307D02*
D03*
D238*
X0249213Y0083071D02*
D03*
X0249213Y0064173D02*
D03*
X0249213Y0045275D02*
D03*
X0249213Y0026378D02*
D03*
X0245473Y0054724D02*
D03*
X0249213Y0054724D02*
D03*
X0252953Y0054724D02*
D03*
X0252953Y0045275D02*
D03*
X0245473Y0045275D02*
D03*
X0245473Y0035827D02*
D03*
X0249213Y0035827D02*
D03*
X0252953Y0035827D02*
D03*
X0252953Y0026378D02*
D03*
X0245473Y0026378D02*
D03*
X0245473Y0073622D02*
D03*
X0249213Y0073622D02*
D03*
X0252953Y0073622D02*
D03*
X0252953Y0064173D02*
D03*
X0245473Y0064173D02*
D03*
X0245473Y0092520D02*
D03*
X0249213Y0092520D02*
D03*
X0252953Y0092520D02*
D03*
X0252953Y0083071D02*
D03*
X0245473Y0083071D02*
D03*
D239*
X0152178Y0049086D02*
D03*
X0141929Y0067008D02*
D03*
D240*
X0177301Y0039764D02*
D03*
X0182301Y0020866D02*
D03*
X0167301Y0020866D02*
D03*
X0172301Y0020866D02*
D03*
X0177301Y0020866D02*
D03*
X0167301Y0039764D02*
D03*
X0172301Y0039764D02*
D03*
X0182301Y0039764D02*
D03*
D241*
X0159660Y0021456D02*
D03*
X0159660Y0039567D02*
D03*
D242*
X0191186Y0055918D02*
D03*
X0191734Y0039709D02*
D03*
X0199346Y0056395D02*
D03*
X0206957Y0056395D02*
D03*
X0199346Y0039709D02*
D03*
X0206957Y0039709D02*
D03*
X0214569Y0056395D02*
D03*
X0214569Y0039709D02*
D03*
X0191186Y0049225D02*
D03*
X0199346Y0049702D02*
D03*
X0206957Y0049702D02*
D03*
X0214569Y0049702D02*
D03*
X0199346Y0033016D02*
D03*
X0191734Y0033016D02*
D03*
X0183209Y0049225D02*
D03*
X0183209Y0055918D02*
D03*
X0176122Y0055918D02*
D03*
X0176122Y0049225D02*
D03*
X0169036Y0049225D02*
D03*
X0169036Y0055918D02*
D03*
X0161949Y0055918D02*
D03*
X0161949Y0049225D02*
D03*
X0206957Y0033016D02*
D03*
X0214569Y0033016D02*
D03*
X0134449Y0055918D02*
D03*
X0134449Y0049225D02*
D03*
D243*
X0161862Y0142592D02*
D03*
X0161862Y0136292D02*
D03*
X0208303Y0135232D02*
D03*
X0208303Y0141532D02*
D03*
D244*
X0138920Y0101967D02*
D03*
X0138920Y0085432D02*
D03*
D239*
X0134449Y0067008D02*
D03*
X0138189Y0076260D02*
D03*
X0144698Y0049086D02*
D03*
X0148438Y0058338D02*
D03*
D245*
X0135250Y0030512D02*
D03*
D246*
X0159660Y0030512D02*
D03*
D127*
X0262205Y0099803D02*
D03*
X0268110Y0018897D02*
D03*
D247*
X0244463Y0136994D02*
D03*
X0226747Y0136994D02*
D03*
D129*
X0217126Y0092086D02*
D03*
X0217126Y0106299D02*
D03*
X0217126Y0076299D02*
D03*
D130*
X0139567Y0129291D02*
D03*
X0143567Y0109291D02*
D03*
X0135567Y0109291D02*
D03*
D38*
X0133858Y0018504D02*
D03*
X0104183Y0148425D02*
%LPD*%
G01*
D18*
X0045915Y0121260D03*
X0045915Y0125984D03*
X0045915Y0116535D03*
X0045915Y0111811D03*
X0102707Y0137244D03*
X0102707Y0141181D03*
D172*
X0070325Y0135433D03*
X0070325Y0137401D03*
X0070325Y0139370D03*
X0070325Y0141338D03*
X0070325Y0143307D03*
X0053002Y0143307D03*
X0053002Y0141338D03*
X0053002Y0139370D03*
X0053002Y0137401D03*
X0053002Y0135433D03*
G36*
G01*
X0062805Y0122244D02*
X0059734Y0122244D01*
G75*
G02*
X0059459Y0122519I0000000J0000276D01*
G01*
X0059459Y0124724D01*
G75*
G02*
X0059734Y0125000I0000276J0000000D01*
G01*
X0062805Y0125000D01*
G75*
G02*
X0063081Y0124724I0000000J-000276D01*
G01*
X0063081Y0122519D01*
G75*
G02*
X0062805Y0122244I-000276J0000000D01*
G01*
G37*
G36*
G01*
X0062805Y0128543D02*
X0059734Y0128543D01*
G75*
G02*
X0059459Y0128819I0000000J0000276D01*
G01*
X0059459Y0131023D01*
G75*
G02*
X0059734Y0131299I0000276J0000000D01*
G01*
X0062805Y0131299D01*
G75*
G02*
X0063081Y0131023I0000000J-000276D01*
G01*
X0063081Y0128819D01*
G75*
G02*
X0062805Y0128543I-000276J0000000D01*
G01*
G37*
G36*
G01*
X0048474Y0115590D02*
X0048474Y0118661D01*
G75*
G02*
X0048750Y0118937I0000276J0000000D01*
G01*
X0050955Y0118937D01*
G75*
G02*
X0051230Y0118661I0000000J-000276D01*
G01*
X0051230Y0115590D01*
G75*
G02*
X0050955Y0115315I-000276J0000000D01*
G01*
X0048750Y0115315D01*
G75*
G02*
X0048474Y0115590I0000000J0000276D01*
G01*
G37*
G36*
G01*
X0054774Y0115590D02*
X0054774Y0118661D01*
G75*
G02*
X0055049Y0118937I0000276J0000000D01*
G01*
X0057254Y0118937D01*
G75*
G02*
X0057529Y0118661I0000000J-000276D01*
G01*
X0057529Y0115590D01*
G75*
G02*
X0057254Y0115315I-000276J0000000D01*
G01*
X0055049Y0115315D01*
G75*
G02*
X0054774Y0115590I0000000J0000276D01*
G01*
G37*
G36*
G01*
X0068711Y0122244D02*
X0065640Y0122244D01*
G75*
G02*
X0065364Y0122519I0000000J0000276D01*
G01*
X0065364Y0124724D01*
G75*
G02*
X0065640Y0125000I0000276J0000000D01*
G01*
X0068711Y0125000D01*
G75*
G02*
X0068986Y0124724I0000000J-000276D01*
G01*
X0068986Y0122519D01*
G75*
G02*
X0068711Y0122244I-000276J0000000D01*
G01*
G37*
G36*
G01*
X0068711Y0128543D02*
X0065640Y0128543D01*
G75*
G02*
X0065364Y0128819I0000000J0000276D01*
G01*
X0065364Y0131023D01*
G75*
G02*
X0065640Y0131299I0000276J0000000D01*
G01*
X0068711Y0131299D01*
G75*
G02*
X0068986Y0131023I0000000J-000276D01*
G01*
X0068986Y0128819D01*
G75*
G02*
X0068711Y0128543I-000276J0000000D01*
G01*
G37*
G36*
G01*
X0079360Y0118504D02*
X0076644Y0118504D01*
G75*
G02*
X0075738Y0119409I0000000J0000906D01*
G01*
X0075738Y0124685D01*
G75*
G02*
X0076644Y0125590I0000906J0000000D01*
G01*
X0079360Y0125590D01*
G75*
G02*
X0080266Y0124685I0000000J-000906D01*
G01*
X0080266Y0119409D01*
G75*
G02*
X0079360Y0118504I-000906J0000000D01*
G01*
G37*
G36*
G01*
X0090778Y0118504D02*
X0088061Y0118504D01*
G75*
G02*
X0087155Y0119409I0000000J0000906D01*
G01*
X0087155Y0124685D01*
G75*
G02*
X0088061Y0125590I0000906J0000000D01*
G01*
X0090778Y0125590D01*
G75*
G02*
X0091683Y0124685I0000000J-000906D01*
G01*
X0091683Y0119409D01*
G75*
G02*
X0090778Y0118504I-000906J0000000D01*
G01*
G37*
G36*
G01*
X0079360Y0128346D02*
X0076644Y0128346D01*
G75*
G02*
X0075738Y0129252I0000000J0000906D01*
G01*
X0075738Y0134527D01*
G75*
G02*
X0076644Y0135433I0000906J0000000D01*
G01*
X0079360Y0135433D01*
G75*
G02*
X0080266Y0134527I0000000J-000906D01*
G01*
X0080266Y0129252D01*
G75*
G02*
X0079360Y0128346I-000906J0000000D01*
G01*
G37*
G36*
G01*
X0090778Y0128346D02*
X0088061Y0128346D01*
G75*
G02*
X0087155Y0129252I0000000J0000906D01*
G01*
X0087155Y0134527D01*
G75*
G02*
X0088061Y0135433I0000906J0000000D01*
G01*
X0090778Y0135433D01*
G75*
G02*
X0091683Y0134527I0000000J-000906D01*
G01*
X0091683Y0129252D01*
G75*
G02*
X0090778Y0128346I-000906J0000000D01*
G01*
G37*
G36*
G01*
X0101427Y0122027D02*
X0101427Y0119311D01*
G75*
G02*
X0100522Y0118405I-000906J0000000D01*
G01*
X0095246Y0118405D01*
G75*
G02*
X0094340Y0119311I0000000J0000906D01*
G01*
X0094340Y0122027D01*
G75*
G02*
X0095246Y0122933I0000906J0000000D01*
G01*
X0100522Y0122933D01*
G75*
G02*
X0101427Y0122027I0000000J-000906D01*
G01*
G37*
G36*
G01*
X0101427Y0133445D02*
X0101427Y0130728D01*
G75*
G02*
X0100522Y0129823I-000906J0000000D01*
G01*
X0095246Y0129823D01*
G75*
G02*
X0094340Y0130728I0000000J0000906D01*
G01*
X0094340Y0133445D01*
G75*
G02*
X0095246Y0134350I0000906J0000000D01*
G01*
X0100522Y0134350D01*
G75*
G02*
X0101427Y0133445I0000000J-000906D01*
G01*
G37*
G36*
G01*
X0086053Y0137795D02*
X0083337Y0137795D01*
G75*
G02*
X0082431Y0138701I0000000J0000906D01*
G01*
X0082431Y0143976D01*
G75*
G02*
X0083337Y0144882I0000906J0000000D01*
G01*
X0086053Y0144882D01*
G75*
G02*
X0086959Y0143976I0000000J-000906D01*
G01*
X0086959Y0138701D01*
G75*
G02*
X0086053Y0137795I-000906J0000000D01*
G01*
G37*
G36*
G01*
X0097470Y0137795D02*
X0094754Y0137795D01*
G75*
G02*
X0093848Y0138701I0000000J0000906D01*
G01*
X0093848Y0143976D01*
G75*
G02*
X0094754Y0144882I0000906J0000000D01*
G01*
X0097470Y0144882D01*
G75*
G02*
X0098376Y0143976I0000000J-000906D01*
G01*
X0098376Y0138701D01*
G75*
G02*
X0097470Y0137795I-000906J0000000D01*
G01*
G37*
G36*
G01*
X0060384Y0115920D02*
X0060384Y0117938D01*
G75*
G02*
X0061245Y0118799I0000861J0000000D01*
G01*
X0062967Y0118799D01*
G75*
G02*
X0063829Y0117938I0000000J-000861D01*
G01*
X0063829Y0115920D01*
G75*
G02*
X0062967Y0115059I-000861J0000000D01*
G01*
X0061245Y0115059D01*
G75*
G02*
X0060384Y0115920I0000000J0000861D01*
G01*
G37*
G36*
G01*
X0066585Y0115920D02*
X0066585Y0117938D01*
G75*
G02*
X0067446Y0118799I0000861J0000000D01*
G01*
X0069168Y0118799D01*
G75*
G02*
X0070029Y0117938I0000000J-000861D01*
G01*
X0070029Y0115920D01*
G75*
G02*
X0069168Y0115059I-000861J0000000D01*
G01*
X0067446Y0115059D01*
G75*
G02*
X0066585Y0115920I0000000J0000861D01*
G01*
G37*
G36*
G01*
X0054439Y0122882D02*
X0054439Y0125559D01*
G75*
G02*
X0054774Y0125894I0000335J0000000D01*
G01*
X0057451Y0125894D01*
G75*
G02*
X0057785Y0125559I0000000J-000335D01*
G01*
X0057785Y0122882D01*
G75*
G02*
X0057451Y0122547I-000335J0000000D01*
G01*
X0054774Y0122547D01*
G75*
G02*
X0054439Y0122882I0000000J0000335D01*
G01*
G37*
G36*
G01*
X0048218Y0122882D02*
X0048218Y0125559D01*
G75*
G02*
X0048553Y0125894I0000335J0000000D01*
G01*
X0051230Y0125894D01*
G75*
G02*
X0051565Y0125559I0000000J-000335D01*
G01*
X0051565Y0122882D01*
G75*
G02*
X0051230Y0122547I-000335J0000000D01*
G01*
X0048553Y0122547D01*
G75*
G02*
X0048218Y0122882I0000000J0000335D01*
G01*
G37*
G36*
G01*
X0048218Y0128189D02*
X0048218Y0130866D01*
G75*
G02*
X0048553Y0131201I0000335J0000000D01*
G01*
X0051230Y0131201D01*
G75*
G02*
X0051565Y0130866I0000000J-000335D01*
G01*
X0051565Y0128189D01*
G75*
G02*
X0051230Y0127854I-000335J0000000D01*
G01*
X0048553Y0127854D01*
G75*
G02*
X0048218Y0128189I0000000J0000335D01*
G01*
G37*
G36*
G01*
X0054439Y0128189D02*
X0054439Y0130866D01*
G75*
G02*
X0054774Y0131201I0000335J0000000D01*
G01*
X0057451Y0131201D01*
G75*
G02*
X0057785Y0130866I0000000J-000335D01*
G01*
X0057785Y0128189D01*
G75*
G02*
X0057451Y0127854I-000335J0000000D01*
G01*
X0054774Y0127854D01*
G75*
G02*
X0054439Y0128189I0000000J0000335D01*
G01*
G37*
G36*
G01*
X0073632Y0121988D02*
X0070955Y0121988D01*
G75*
G02*
X0070620Y0122323I0000000J0000335D01*
G01*
X0070620Y0125000D01*
G75*
G02*
X0070955Y0125334I0000335J0000000D01*
G01*
X0073632Y0125334D01*
G75*
G02*
X0073966Y0125000I0000000J-000335D01*
G01*
X0073966Y0122323D01*
G75*
G02*
X0073632Y0121988I-000335J0000000D01*
G01*
G37*
G36*
G01*
X0073632Y0128208D02*
X0070955Y0128208D01*
G75*
G02*
X0070620Y0128543I0000000J0000335D01*
G01*
X0070620Y0131220D01*
G75*
G02*
X0070955Y0131555I0000335J0000000D01*
G01*
X0073632Y0131555D01*
G75*
G02*
X0073966Y0131220I0000000J-000335D01*
G01*
X0073966Y0128543D01*
G75*
G02*
X0073632Y0128208I-000335J0000000D01*
G01*
G37*
X0044587Y0014665D02*
G01*
G75*
D185*
X0089666Y0039032D02*
D03*
X0089666Y0021315D02*
D03*
D186*
X0086339Y0063484D02*
D03*
X0058977Y0063484D02*
D03*
D187*
X0075099Y0040256D02*
D03*
X0058957Y0040256D02*
D03*
D188*
X0076870Y0022145D02*
D03*
X0061122Y0022145D02*
D03*
D189*
X0053931Y0083923D02*
D03*
X0063183Y0080183D02*
D03*
D189*
X0063183Y0087663D02*
D03*
D190*
X0086018Y0093602D02*
D03*
D190*
X0086018Y0089862D02*
D03*
X0086018Y0086122D02*
D03*
X0094482Y0086122D02*
D03*
X0094482Y0093602D02*
D03*
D191*
X0098334Y0079601D02*
D03*
X0085342Y0079601D02*
D03*
D192*
X0080048Y0079889D02*
D03*
X0068630Y0079889D02*
D03*
D193*
X0099233Y0047342D02*
D03*
X0093012Y0047342D02*
D03*
X0088642Y0047342D02*
D03*
X0082422Y0047342D02*
D03*
D194*
X0048556Y0024453D02*
D03*
X0048556Y0028587D02*
D03*
X0099111Y0066327D02*
D03*
X0099111Y0070461D02*
D03*
X0099111Y0061614D02*
D03*
X0099111Y0057480D02*
D03*
X0100003Y0041965D02*
D03*
X0100003Y0037831D02*
D03*
D195*
X0080900Y0086172D02*
D03*
X0080900Y0090109D02*
D03*
X0067225Y0087074D02*
D03*
X0075886Y0087074D02*
D03*
X0067225Y0093471D02*
D03*
X0075886Y0093471D02*
D03*
D196*
X0058852Y0093602D02*
D03*
X0062396Y0093602D02*
D03*
D197*
X0094853Y0070264D02*
D03*
X0094853Y0066720D02*
D03*
X0094853Y0061220D02*
D03*
X0094853Y0057677D02*
D03*
X0100003Y0029664D02*
D03*
X0100003Y0033208D02*
D03*
D198*
X0110335Y0032775D02*
D03*
X0110335Y0028838D02*
D03*
D199*
X0047540Y0086318D02*
D03*
X0047540Y0019389D02*
D03*
X0047540Y0066830D02*
D03*
X0108563Y0066633D02*
D03*
X0108563Y0091830D02*
D03*
X0108563Y0042224D02*
D03*
X0108563Y0059153D02*
D03*
X0108563Y0017618D02*
D03*
X0047540Y0093602D02*
D03*
M02*
