M48
; DRILL file {KiCad 8.0.2-8.0.2-0~ubuntu22.04.1} date 2024-05-29T14:04:05+0000
; FORMAT={2:4/ absolute / inch / suppress leading zeros}
; #@! TF.CreationDate,2024-05-29T14:04:05+00:00
; #@! TF.GenerationSoftware,Kicad,Pcbnew,8.0.2-8.0.2-0~ubuntu22.04.1
; #@! TF.FileFunction,MixedPlating,1,4
FMAT,2
INCH,TZ
; #@! TA.AperFunction,Plated,PTH,ComponentDrill
T1C0.0118
; #@! TA.AperFunction,Plated,PTH,ViaDrill
T2C0.0157
; #@! TA.AperFunction,Plated,PTH,ComponentDrill
T3C0.0295
; #@! TA.AperFunction,Plated,PTH,ComponentDrill
T4C0.0320
; #@! TA.AperFunction,Plated,PTH,ComponentDrill
T5C0.0394
; #@! TA.AperFunction,Plated,PTH,ComponentDrill
T6C0.0512
; #@! TA.AperFunction,NonPlated,NPTH,ComponentDrill
T7C0.0591
; #@! TA.AperFunction,NonPlated,NPTH,ComponentDrill
T8C0.0906
; #@! TA.AperFunction,NonPlated,NPTH,ComponentDrill
T9C0.1614
%
G90
G05
T1
X4729Y12736
X4729Y12264
X4729Y11791
X4729Y11319
X10408Y14256
X10408Y13862
X11171Y3415
X11171Y3022
X13209Y14665
X13209Y14350
X13209Y14035
X13209Y13720
X13209Y13406
X13209Y13091
X13209Y12776
X13209Y12461
X13209Y9626
X13209Y9311
X13209Y8996
X13209Y8681
X13209Y8366
X13209Y12146
X13209Y11831
X13209Y11516
X13209Y11201
X13209Y10256
X13209Y9941
X13209Y8051
X13209Y7736
X13209Y6043
X13209Y4980
X13209Y4587
X13209Y1673
X15059Y1673
X15610Y1673
X16043Y14823
X16358Y14823
X16673Y14823
X16988Y14823
X17303Y14823
X17461Y1673
X17618Y14823
X17776Y1673
X18169Y14823
X18484Y14823
X18799Y14823
X18799Y1673
X19114Y14823
X19193Y1673
X19429Y14823
X19587Y1673
X19744Y14823
X19980Y1673
X20059Y14823
X20374Y14823
X20374Y1673
X20689Y14823
X20768Y1673
X21004Y14823
X21161Y1673
X21319Y14823
X21555Y1673
X21634Y14823
X21949Y14823
X22264Y14823
X22579Y14823
X22894Y14823
X24587Y14823
X25768Y1673
X26161Y1673
X27146Y12224
X27146Y11752
X27146Y11280
X27146Y10807
X27146Y10335
X27146Y9862
X27146Y9390
X27146Y8917
X27146Y8445
X27146Y7972
X27146Y7500
X27146Y7028
X27146Y6555
X27146Y6083
X27146Y5610
X27146Y5138
X27146Y4665
X27146Y4193
X27146Y3720
X27146Y3248
X27146Y2776
X27146Y1831
T2
X531Y24902
X846Y18209
X886Y846
X1004Y17224
X1083Y21752
X1161Y23681
X1201Y20453
X1240Y16752
X1358Y18169
X1468Y1586
X1516Y16437
X1791Y16161
X1831Y20020
X1831Y18720
X1870Y22343
X1949Y20846
X1949Y18169
X2067Y15886
X2382Y15610
X2421Y23839
X2736Y15335
X3327Y7185
X3445Y19705
X3602Y23799
X3996Y23839
X4035Y24272
X4114Y6240
X4154Y16319
X4232Y19705
X4350Y8012
X4350Y4469
X4390Y3091
X4429Y24272
X4429Y23839
X4665Y10059
X4705Y16319
X4902Y24311
X4902Y23839
X5020Y19705
X5217Y25217
X5256Y16319
X5295Y1319
X5335Y24311
X5335Y23839
X5689Y10020
X5728Y25768
X5807Y25217
X5807Y24311
X5807Y23839
X5846Y16319
X5846Y1319
X6161Y26201
X6240Y23839
X6280Y24272
X6358Y25217
X6476Y19705
X6476Y1319
X6594Y26594
X6634Y23839
X6634Y10059
X6673Y24311
X6909Y25217
X6988Y22067
X7067Y21280
X7067Y18445
X7067Y1319
X7146Y17618
X7224Y16909
X7303Y24311
X7382Y10059
X7421Y18445
X7461Y25217
X7461Y22067
X7539Y20965
X7618Y1319
X7736Y18760
X7894Y17933
X8051Y19075
X8248Y10059
X8327Y1319
X8366Y24665
X8644Y20305
X8957Y24665
X9232Y10059
X9508Y24665
X9783Y10295
X9823Y15413
X9980Y26358
X10020Y25925
X10413Y25886
X10453Y26319
X10531Y27736
X10531Y27303
X10531Y15256
X10886Y25886
X10886Y20807
X10925Y26358
X11161Y27736
X11161Y27264
X11398Y24626
X11457Y12776
X11516Y8169
X11555Y5374
X11752Y24980
X11791Y19823
X11909Y4783
X11949Y3602
X11988Y29783
X12303Y21594
X12343Y23839
X12539Y29783
X12657Y19671
X12697Y12185
X12697Y9508
X12736Y10728
X12776Y3012
X12815Y3799
X12815Y2343
X12854Y7303
X12854Y6476
X12854Y5453
X12972Y18366
X13012Y29783
X13130Y16240
X13406Y21240
X13445Y25020
X13445Y24587
X13484Y29783
X13917Y29783
X14035Y1319
X14154Y28287
X14350Y29783
X14744Y16988
X14823Y15177
X14862Y24980
X14902Y29783
X15256Y16555
X15335Y23366
X15374Y15177
X15650Y16988
X15728Y22776
X15728Y22146
X15768Y18130
X16067Y16106
X16398Y1319
X16752Y20177
X16949Y16870
X17067Y18445
X17303Y24823
X17343Y16594
X17657Y15335
X17736Y20217
X17776Y29744
X18091Y18445
X18287Y24902
X18445Y1319
X18524Y17146
X18996Y20217
X19272Y18287
X19626Y17185
X20059Y20217
X20098Y15453
X20138Y16083
X20256Y24783
X20321Y30439
X20413Y18445
X20571Y26476
X20610Y27500
X20689Y23957
X20837Y30286
X21122Y17224
X21358Y20217
X21372Y30112
X21831Y26201
X21909Y30020
X22067Y1319
X22382Y15650
X22461Y29830
X22776Y27579
X22854Y21988
X22878Y29413
X22933Y1319
X23406Y15177
X23720Y1319
X23839Y23957
X24075Y15177
X24232Y17106
X24272Y23484
X24429Y1319
X24705Y25925
X24783Y22972
X25020Y18484
X25059Y16949
X25138Y15295
X25177Y22500
X25177Y1319
X25217Y25374
X25610Y22067
X25610Y15295
X25768Y24665
X25768Y17854
X26083Y15295
X26201Y24193
X26752Y15177
X26831Y1319
X27106Y23130
X27461Y14429
X27461Y13760
X27461Y13012
X28406Y11240
X28406Y8839
X28465Y10364
X30138Y12894
X30138Y12343
X30138Y11791
X30138Y11201
X30138Y10650
X30138Y10098
T3
X9528Y19429
X9528Y18642
X9528Y17854
X9528Y17067
T4
X8012Y23740
X8012Y21811
X8996Y23740
X8996Y21811
X9467Y886
X10374Y23740
X10374Y21811
X10967Y886
X11319Y23740
X11319Y21811
T5
X4892Y9498
X4892Y8770
X4892Y6821
X4892Y2077
X10994Y9321
X10994Y6801
X10994Y6053
X10994Y4360
X10994Y1900
T6
X12008Y28799
X12008Y27815
X12008Y26831
X12008Y25846
X13465Y28799
X13465Y27815
X13465Y26831
X13465Y25846
X14843Y28799
X14843Y27815
X14843Y26831
X14843Y25846
X15827Y28799
X15827Y27815
X15827Y26831
X15827Y25846
X16811Y28799
X16811Y27815
X16811Y26831
X16811Y25846
X17795Y28799
X17795Y27815
X17795Y26831
X17795Y25846
X18780Y28799
X18780Y27815
X18780Y26831
X18780Y25846
X19764Y28799
X19764Y27815
X19764Y26831
X19764Y25846
T7
X13799Y20689
X13799Y17736
T8
X9469Y25453
X22303Y25453
T9
X7854Y26969
X23917Y26969
M30
