G04 #@! TF.GenerationSoftware,KiCad,Pcbnew,8.0.2-8.0.2-0~ubuntu22.04.1*
G04 #@! TF.CreationDate,2024-05-29T15:12:31+00:00*
G04 #@! TF.ProjectId,PROLT,50524f4c-542e-46b6-9963-61645f706362,rev?*
G04 #@! TF.SameCoordinates,Original*
G04 #@! TF.FileFunction,Paste,Top*
G04 #@! TF.FilePolarity,Positive*
%FSLAX46Y46*%
G04 Gerber Fmt 4.6, Leading zero omitted, Abs format (unit mm)*
G04 Created by KiCad (PCBNEW 8.0.2-8.0.2-0~ubuntu22.04.1) date 2024-05-29 15:12:31*
%MOMM*%
%LPD*%
G01*
G04 APERTURE LIST*
%ADD10R,0.650000X1.525000*%
%ADD11R,1.750000X0.650000*%
%ADD12R,4.300000X7.900000*%
G04 APERTURE END LIST*
G04 #@! TO.C,R9*
G36*
G01*
X38830000Y43823405D02*
X38050000Y43823405D01*
G75*
G02*
X37980000Y43893405I0J70000D01*
G01*
X37980000Y44453405D01*
G75*
G02*
X38050000Y44523405I70000J0D01*
G01*
X38830000Y44523405D01*
G75*
G02*
X38900000Y44453405I0J-70000D01*
G01*
X38900000Y43893405D01*
G75*
G02*
X38830000Y43823405I-70000J0D01*
G01*
G37*
G36*
G01*
X38830000Y45423405D02*
X38050000Y45423405D01*
G75*
G02*
X37980000Y45493405I0J70000D01*
G01*
X37980000Y46053405D01*
G75*
G02*
X38050000Y46123405I70000J0D01*
G01*
X38830000Y46123405D01*
G75*
G02*
X38900000Y46053405I0J-70000D01*
G01*
X38900000Y45493405D01*
G75*
G02*
X38830000Y45423405I-70000J0D01*
G01*
G37*
G04 #@! TD*
G04 #@! TO.C,C1*
G36*
G01*
X58305000Y43934999D02*
X57625000Y43934999D01*
G75*
G02*
X57540000Y44019999I0J85000D01*
G01*
X57540000Y44699999D01*
G75*
G02*
X57625000Y44784999I85000J0D01*
G01*
X58305000Y44784999D01*
G75*
G02*
X58390000Y44699999I0J-85000D01*
G01*
X58390000Y44019999D01*
G75*
G02*
X58305000Y43934999I-85000J0D01*
G01*
G37*
G36*
G01*
X58305000Y45515001D02*
X57625000Y45515001D01*
G75*
G02*
X57540000Y45600001I0J85000D01*
G01*
X57540000Y46280001D01*
G75*
G02*
X57625000Y46365001I85000J0D01*
G01*
X58305000Y46365001D01*
G75*
G02*
X58390000Y46280001I0J-85000D01*
G01*
X58390000Y45600001D01*
G75*
G02*
X58305000Y45515001I-85000J0D01*
G01*
G37*
G04 #@! TD*
G04 #@! TO.C,C26*
G36*
G01*
X1894998Y48160000D02*
X1894998Y48840000D01*
G75*
G02*
X1979998Y48925000I85000J0D01*
G01*
X2659998Y48925000D01*
G75*
G02*
X2744998Y48840000I0J-85000D01*
G01*
X2744998Y48160000D01*
G75*
G02*
X2659998Y48075000I-85000J0D01*
G01*
X1979998Y48075000D01*
G75*
G02*
X1894998Y48160000I0J85000D01*
G01*
G37*
G36*
G01*
X3475000Y48160000D02*
X3475000Y48840000D01*
G75*
G02*
X3560000Y48925000I85000J0D01*
G01*
X4240000Y48925000D01*
G75*
G02*
X4325000Y48840000I0J-85000D01*
G01*
X4325000Y48160000D01*
G75*
G02*
X4240000Y48075000I-85000J0D01*
G01*
X3560000Y48075000D01*
G75*
G02*
X3475000Y48160000I0J85000D01*
G01*
G37*
G04 #@! TD*
G04 #@! TO.C,R15*
G36*
G01*
X71950000Y23490000D02*
X71950000Y22710000D01*
G75*
G02*
X71880000Y22640000I-70000J0D01*
G01*
X71320000Y22640000D01*
G75*
G02*
X71250000Y22710000I0J70000D01*
G01*
X71250000Y23490000D01*
G75*
G02*
X71320000Y23560000I70000J0D01*
G01*
X71880000Y23560000D01*
G75*
G02*
X71950000Y23490000I0J-70000D01*
G01*
G37*
G36*
G01*
X70350000Y23490000D02*
X70350000Y22710000D01*
G75*
G02*
X70280000Y22640000I-70000J0D01*
G01*
X69720000Y22640000D01*
G75*
G02*
X69650000Y22710000I0J70000D01*
G01*
X69650000Y23490000D01*
G75*
G02*
X69720000Y23560000I70000J0D01*
G01*
X70280000Y23560000D01*
G75*
G02*
X70350000Y23490000I0J-70000D01*
G01*
G37*
G04 #@! TD*
G04 #@! TO.C,F7*
G36*
G01*
X27500000Y58605010D02*
X27500000Y59295010D01*
G75*
G02*
X27730000Y59525010I230000J0D01*
G01*
X29070000Y59525010D01*
G75*
G02*
X29300000Y59295010I0J-230000D01*
G01*
X29300000Y58605010D01*
G75*
G02*
X29070000Y58375010I-230000J0D01*
G01*
X27730000Y58375010D01*
G75*
G02*
X27500000Y58605010I0J230000D01*
G01*
G37*
G36*
G01*
X27500000Y55704990D02*
X27500000Y56394990D01*
G75*
G02*
X27730000Y56624990I230000J0D01*
G01*
X29070000Y56624990D01*
G75*
G02*
X29300000Y56394990I0J-230000D01*
G01*
X29300000Y55704990D01*
G75*
G02*
X29070000Y55474990I-230000J0D01*
G01*
X27730000Y55474990D01*
G75*
G02*
X27500000Y55704990I0J230000D01*
G01*
G37*
G04 #@! TD*
G04 #@! TO.C,U3*
G36*
G01*
X50445000Y47550000D02*
X50145000Y47550000D01*
G75*
G02*
X49995000Y47700000I0J150000D01*
G01*
X49995000Y49350000D01*
G75*
G02*
X50145000Y49500000I150000J0D01*
G01*
X50445000Y49500000D01*
G75*
G02*
X50595000Y49350000I0J-150000D01*
G01*
X50595000Y47700000D01*
G75*
G02*
X50445000Y47550000I-150000J0D01*
G01*
G37*
G36*
G01*
X51715000Y47550000D02*
X51415000Y47550000D01*
G75*
G02*
X51265000Y47700000I0J150000D01*
G01*
X51265000Y49350000D01*
G75*
G02*
X51415000Y49500000I150000J0D01*
G01*
X51715000Y49500000D01*
G75*
G02*
X51865000Y49350000I0J-150000D01*
G01*
X51865000Y47700000D01*
G75*
G02*
X51715000Y47550000I-150000J0D01*
G01*
G37*
G36*
G01*
X52985000Y47550000D02*
X52685000Y47550000D01*
G75*
G02*
X52535000Y47700000I0J150000D01*
G01*
X52535000Y49350000D01*
G75*
G02*
X52685000Y49500000I150000J0D01*
G01*
X52985000Y49500000D01*
G75*
G02*
X53135000Y49350000I0J-150000D01*
G01*
X53135000Y47700000D01*
G75*
G02*
X52985000Y47550000I-150000J0D01*
G01*
G37*
G36*
G01*
X54255000Y47550000D02*
X53955000Y47550000D01*
G75*
G02*
X53805000Y47700000I0J150000D01*
G01*
X53805000Y49350000D01*
G75*
G02*
X53955000Y49500000I150000J0D01*
G01*
X54255000Y49500000D01*
G75*
G02*
X54405000Y49350000I0J-150000D01*
G01*
X54405000Y47700000D01*
G75*
G02*
X54255000Y47550000I-150000J0D01*
G01*
G37*
G36*
G01*
X54255000Y52500000D02*
X53955000Y52500000D01*
G75*
G02*
X53805000Y52650000I0J150000D01*
G01*
X53805000Y54300000D01*
G75*
G02*
X53955000Y54450000I150000J0D01*
G01*
X54255000Y54450000D01*
G75*
G02*
X54405000Y54300000I0J-150000D01*
G01*
X54405000Y52650000D01*
G75*
G02*
X54255000Y52500000I-150000J0D01*
G01*
G37*
G36*
G01*
X52985000Y52500000D02*
X52685000Y52500000D01*
G75*
G02*
X52535000Y52650000I0J150000D01*
G01*
X52535000Y54300000D01*
G75*
G02*
X52685000Y54450000I150000J0D01*
G01*
X52985000Y54450000D01*
G75*
G02*
X53135000Y54300000I0J-150000D01*
G01*
X53135000Y52650000D01*
G75*
G02*
X52985000Y52500000I-150000J0D01*
G01*
G37*
G36*
G01*
X51715000Y52500000D02*
X51415000Y52500000D01*
G75*
G02*
X51265000Y52650000I0J150000D01*
G01*
X51265000Y54300000D01*
G75*
G02*
X51415000Y54450000I150000J0D01*
G01*
X51715000Y54450000D01*
G75*
G02*
X51865000Y54300000I0J-150000D01*
G01*
X51865000Y52650000D01*
G75*
G02*
X51715000Y52500000I-150000J0D01*
G01*
G37*
G36*
G01*
X50445000Y52500000D02*
X50145000Y52500000D01*
G75*
G02*
X49995000Y52650000I0J150000D01*
G01*
X49995000Y54300000D01*
G75*
G02*
X50145000Y54450000I150000J0D01*
G01*
X50445000Y54450000D01*
G75*
G02*
X50595000Y54300000I0J-150000D01*
G01*
X50595000Y52650000D01*
G75*
G02*
X50445000Y52500000I-150000J0D01*
G01*
G37*
G04 #@! TD*
D10*
G04 #@! TO.C,IC1*
X56195000Y48313000D03*
X57465000Y48313000D03*
X58735000Y48313000D03*
X60005000Y48313000D03*
X60005000Y53737000D03*
X58735000Y53737000D03*
X57465000Y53737000D03*
X56195000Y53737000D03*
G04 #@! TD*
G04 #@! TO.C,R12*
G36*
G01*
X4250000Y44990000D02*
X4250000Y44210000D01*
G75*
G02*
X4180000Y44140000I-70000J0D01*
G01*
X3620000Y44140000D01*
G75*
G02*
X3550000Y44210000I0J70000D01*
G01*
X3550000Y44990000D01*
G75*
G02*
X3620000Y45060000I70000J0D01*
G01*
X4180000Y45060000D01*
G75*
G02*
X4250000Y44990000I0J-70000D01*
G01*
G37*
G36*
G01*
X2650000Y44990000D02*
X2650000Y44210000D01*
G75*
G02*
X2580000Y44140000I-70000J0D01*
G01*
X2020000Y44140000D01*
G75*
G02*
X1950000Y44210000I0J70000D01*
G01*
X1950000Y44990000D01*
G75*
G02*
X2020000Y45060000I70000J0D01*
G01*
X2580000Y45060000D01*
G75*
G02*
X2650000Y44990000I0J-70000D01*
G01*
G37*
G04 #@! TD*
G04 #@! TO.C,C13*
G36*
G01*
X1994998Y57360000D02*
X1994998Y58040000D01*
G75*
G02*
X2079998Y58125000I85000J0D01*
G01*
X2759998Y58125000D01*
G75*
G02*
X2844998Y58040000I0J-85000D01*
G01*
X2844998Y57360000D01*
G75*
G02*
X2759998Y57275000I-85000J0D01*
G01*
X2079998Y57275000D01*
G75*
G02*
X1994998Y57360000I0J85000D01*
G01*
G37*
G36*
G01*
X3575000Y57360000D02*
X3575000Y58040000D01*
G75*
G02*
X3660000Y58125000I85000J0D01*
G01*
X4340000Y58125000D01*
G75*
G02*
X4425000Y58040000I0J-85000D01*
G01*
X4425000Y57360000D01*
G75*
G02*
X4340000Y57275000I-85000J0D01*
G01*
X3660000Y57275000D01*
G75*
G02*
X3575000Y57360000I0J85000D01*
G01*
G37*
G04 #@! TD*
G04 #@! TO.C,R14*
G36*
G01*
X69650000Y24110000D02*
X69650000Y24890000D01*
G75*
G02*
X69720000Y24960000I70000J0D01*
G01*
X70280000Y24960000D01*
G75*
G02*
X70350000Y24890000I0J-70000D01*
G01*
X70350000Y24110000D01*
G75*
G02*
X70280000Y24040000I-70000J0D01*
G01*
X69720000Y24040000D01*
G75*
G02*
X69650000Y24110000I0J70000D01*
G01*
G37*
G36*
G01*
X71250000Y24110000D02*
X71250000Y24890000D01*
G75*
G02*
X71320000Y24960000I70000J0D01*
G01*
X71880000Y24960000D01*
G75*
G02*
X71950000Y24890000I0J-70000D01*
G01*
X71950000Y24110000D01*
G75*
G02*
X71880000Y24040000I-70000J0D01*
G01*
X71320000Y24040000D01*
G75*
G02*
X71250000Y24110000I0J70000D01*
G01*
G37*
G04 #@! TD*
D11*
G04 #@! TO.C,IC3*
X16000000Y43500000D03*
X16000000Y44500000D03*
X16000000Y45500000D03*
X16000000Y46500000D03*
X16000000Y47500000D03*
X16000000Y48500000D03*
X6400000Y48500000D03*
X6400000Y47500000D03*
X6400000Y46500000D03*
X6400000Y45500000D03*
X6400000Y44500000D03*
X6400000Y43500000D03*
D12*
X11200000Y46000000D03*
G04 #@! TD*
G04 #@! TO.C,D3*
G36*
G01*
X27838502Y25512502D02*
X27358502Y25512502D01*
G75*
G02*
X27298502Y25572502I0J60000D01*
G01*
X27298502Y26052502D01*
G75*
G02*
X27358502Y26112502I60000J0D01*
G01*
X27838502Y26112502D01*
G75*
G02*
X27898502Y26052502I0J-60000D01*
G01*
X27898502Y25572502D01*
G75*
G02*
X27838502Y25512502I-60000J0D01*
G01*
G37*
G36*
G01*
X25638502Y25512502D02*
X25158502Y25512502D01*
G75*
G02*
X25098502Y25572502I0J60000D01*
G01*
X25098502Y26052502D01*
G75*
G02*
X25158502Y26112502I60000J0D01*
G01*
X25638502Y26112502D01*
G75*
G02*
X25698502Y26052502I0J-60000D01*
G01*
X25698502Y25572502D01*
G75*
G02*
X25638502Y25512502I-60000J0D01*
G01*
G37*
G04 #@! TD*
G04 #@! TO.C,C27*
G36*
G01*
X1894998Y46860000D02*
X1894998Y47540000D01*
G75*
G02*
X1979998Y47625000I85000J0D01*
G01*
X2659998Y47625000D01*
G75*
G02*
X2744998Y47540000I0J-85000D01*
G01*
X2744998Y46860000D01*
G75*
G02*
X2659998Y46775000I-85000J0D01*
G01*
X1979998Y46775000D01*
G75*
G02*
X1894998Y46860000I0J85000D01*
G01*
G37*
G36*
G01*
X3475000Y46860000D02*
X3475000Y47540000D01*
G75*
G02*
X3560000Y47625000I85000J0D01*
G01*
X4240000Y47625000D01*
G75*
G02*
X4325000Y47540000I0J-85000D01*
G01*
X4325000Y46860000D01*
G75*
G02*
X4240000Y46775000I-85000J0D01*
G01*
X3560000Y46775000D01*
G75*
G02*
X3475000Y46860000I0J85000D01*
G01*
G37*
G04 #@! TD*
G04 #@! TO.C,R13*
G36*
G01*
X28090000Y31750000D02*
X27310000Y31750000D01*
G75*
G02*
X27240000Y31820000I0J70000D01*
G01*
X27240000Y32380000D01*
G75*
G02*
X27310000Y32450000I70000J0D01*
G01*
X28090000Y32450000D01*
G75*
G02*
X28160000Y32380000I0J-70000D01*
G01*
X28160000Y31820000D01*
G75*
G02*
X28090000Y31750000I-70000J0D01*
G01*
G37*
G36*
G01*
X28090000Y33350000D02*
X27310000Y33350000D01*
G75*
G02*
X27240000Y33420000I0J70000D01*
G01*
X27240000Y33980000D01*
G75*
G02*
X27310000Y34050000I70000J0D01*
G01*
X28090000Y34050000D01*
G75*
G02*
X28160000Y33980000I0J-70000D01*
G01*
X28160000Y33420000D01*
G75*
G02*
X28090000Y33350000I-70000J0D01*
G01*
G37*
G04 #@! TD*
G04 #@! TO.C,R4*
G36*
G01*
X53290000Y43925000D02*
X52510000Y43925000D01*
G75*
G02*
X52440000Y43995000I0J70000D01*
G01*
X52440000Y44555000D01*
G75*
G02*
X52510000Y44625000I70000J0D01*
G01*
X53290000Y44625000D01*
G75*
G02*
X53360000Y44555000I0J-70000D01*
G01*
X53360000Y43995000D01*
G75*
G02*
X53290000Y43925000I-70000J0D01*
G01*
G37*
G36*
G01*
X53290000Y45525000D02*
X52510000Y45525000D01*
G75*
G02*
X52440000Y45595000I0J70000D01*
G01*
X52440000Y46155000D01*
G75*
G02*
X52510000Y46225000I70000J0D01*
G01*
X53290000Y46225000D01*
G75*
G02*
X53360000Y46155000I0J-70000D01*
G01*
X53360000Y45595000D01*
G75*
G02*
X53290000Y45525000I-70000J0D01*
G01*
G37*
G04 #@! TD*
G04 #@! TO.C,R5*
G36*
G01*
X55190000Y43975000D02*
X54410000Y43975000D01*
G75*
G02*
X54340000Y44045000I0J70000D01*
G01*
X54340000Y44605000D01*
G75*
G02*
X54410000Y44675000I70000J0D01*
G01*
X55190000Y44675000D01*
G75*
G02*
X55260000Y44605000I0J-70000D01*
G01*
X55260000Y44045000D01*
G75*
G02*
X55190000Y43975000I-70000J0D01*
G01*
G37*
G36*
G01*
X55190000Y45575000D02*
X54410000Y45575000D01*
G75*
G02*
X54340000Y45645000I0J70000D01*
G01*
X54340000Y46205000D01*
G75*
G02*
X54410000Y46275000I70000J0D01*
G01*
X55190000Y46275000D01*
G75*
G02*
X55260000Y46205000I0J-70000D01*
G01*
X55260000Y45645000D01*
G75*
G02*
X55190000Y45575000I-70000J0D01*
G01*
G37*
G04 #@! TD*
G04 #@! TO.C,R1*
G36*
G01*
X44770000Y43825000D02*
X43990000Y43825000D01*
G75*
G02*
X43920000Y43895000I0J70000D01*
G01*
X43920000Y44455000D01*
G75*
G02*
X43990000Y44525000I70000J0D01*
G01*
X44770000Y44525000D01*
G75*
G02*
X44840000Y44455000I0J-70000D01*
G01*
X44840000Y43895000D01*
G75*
G02*
X44770000Y43825000I-70000J0D01*
G01*
G37*
G36*
G01*
X44770000Y45425000D02*
X43990000Y45425000D01*
G75*
G02*
X43920000Y45495000I0J70000D01*
G01*
X43920000Y46055000D01*
G75*
G02*
X43990000Y46125000I70000J0D01*
G01*
X44770000Y46125000D01*
G75*
G02*
X44840000Y46055000I0J-70000D01*
G01*
X44840000Y45495000D01*
G75*
G02*
X44770000Y45425000I-70000J0D01*
G01*
G37*
G04 #@! TD*
D11*
G04 #@! TO.C,IC2*
X16000000Y52700000D03*
X16000000Y53700000D03*
X16000000Y54700000D03*
X16000000Y55700000D03*
X16000000Y56700000D03*
X16000000Y57700000D03*
X6400000Y57700000D03*
X6400000Y56700000D03*
X6400000Y55700000D03*
X6400000Y54700000D03*
X6400000Y53700000D03*
X6400000Y52700000D03*
D12*
X11200000Y55200000D03*
G04 #@! TD*
G04 #@! TO.C,F2*
G36*
G01*
X63908750Y52162500D02*
X64421250Y52162500D01*
G75*
G02*
X64640000Y51943750I0J-218750D01*
G01*
X64640000Y51506250D01*
G75*
G02*
X64421250Y51287500I-218750J0D01*
G01*
X63908750Y51287500D01*
G75*
G02*
X63690000Y51506250I0J218750D01*
G01*
X63690000Y51943750D01*
G75*
G02*
X63908750Y52162500I218750J0D01*
G01*
G37*
G36*
G01*
X63908750Y50587500D02*
X64421250Y50587500D01*
G75*
G02*
X64640000Y50368750I0J-218750D01*
G01*
X64640000Y49931250D01*
G75*
G02*
X64421250Y49712500I-218750J0D01*
G01*
X63908750Y49712500D01*
G75*
G02*
X63690000Y49931250I0J218750D01*
G01*
X63690000Y50368750D01*
G75*
G02*
X63908750Y50587500I218750J0D01*
G01*
G37*
G04 #@! TD*
G04 #@! TO.C,U4*
G36*
G01*
X38620000Y47500000D02*
X38320000Y47500000D01*
G75*
G02*
X38170000Y47650000I0J150000D01*
G01*
X38170000Y49300000D01*
G75*
G02*
X38320000Y49450000I150000J0D01*
G01*
X38620000Y49450000D01*
G75*
G02*
X38770000Y49300000I0J-150000D01*
G01*
X38770000Y47650000D01*
G75*
G02*
X38620000Y47500000I-150000J0D01*
G01*
G37*
G36*
G01*
X39890000Y47500000D02*
X39590000Y47500000D01*
G75*
G02*
X39440000Y47650000I0J150000D01*
G01*
X39440000Y49300000D01*
G75*
G02*
X39590000Y49450000I150000J0D01*
G01*
X39890000Y49450000D01*
G75*
G02*
X40040000Y49300000I0J-150000D01*
G01*
X40040000Y47650000D01*
G75*
G02*
X39890000Y47500000I-150000J0D01*
G01*
G37*
G36*
G01*
X41160000Y47500000D02*
X40860000Y47500000D01*
G75*
G02*
X40710000Y47650000I0J150000D01*
G01*
X40710000Y49300000D01*
G75*
G02*
X40860000Y49450000I150000J0D01*
G01*
X41160000Y49450000D01*
G75*
G02*
X41310000Y49300000I0J-150000D01*
G01*
X41310000Y47650000D01*
G75*
G02*
X41160000Y47500000I-150000J0D01*
G01*
G37*
G36*
G01*
X42430000Y47500000D02*
X42130000Y47500000D01*
G75*
G02*
X41980000Y47650000I0J150000D01*
G01*
X41980000Y49300000D01*
G75*
G02*
X42130000Y49450000I150000J0D01*
G01*
X42430000Y49450000D01*
G75*
G02*
X42580000Y49300000I0J-150000D01*
G01*
X42580000Y47650000D01*
G75*
G02*
X42430000Y47500000I-150000J0D01*
G01*
G37*
G36*
G01*
X42430000Y52450000D02*
X42130000Y52450000D01*
G75*
G02*
X41980000Y52600000I0J150000D01*
G01*
X41980000Y54250000D01*
G75*
G02*
X42130000Y54400000I150000J0D01*
G01*
X42430000Y54400000D01*
G75*
G02*
X42580000Y54250000I0J-150000D01*
G01*
X42580000Y52600000D01*
G75*
G02*
X42430000Y52450000I-150000J0D01*
G01*
G37*
G36*
G01*
X41160000Y52450000D02*
X40860000Y52450000D01*
G75*
G02*
X40710000Y52600000I0J150000D01*
G01*
X40710000Y54250000D01*
G75*
G02*
X40860000Y54400000I150000J0D01*
G01*
X41160000Y54400000D01*
G75*
G02*
X41310000Y54250000I0J-150000D01*
G01*
X41310000Y52600000D01*
G75*
G02*
X41160000Y52450000I-150000J0D01*
G01*
G37*
G36*
G01*
X39890000Y52450000D02*
X39590000Y52450000D01*
G75*
G02*
X39440000Y52600000I0J150000D01*
G01*
X39440000Y54250000D01*
G75*
G02*
X39590000Y54400000I150000J0D01*
G01*
X39890000Y54400000D01*
G75*
G02*
X40040000Y54250000I0J-150000D01*
G01*
X40040000Y52600000D01*
G75*
G02*
X39890000Y52450000I-150000J0D01*
G01*
G37*
G36*
G01*
X38620000Y52450000D02*
X38320000Y52450000D01*
G75*
G02*
X38170000Y52600000I0J150000D01*
G01*
X38170000Y54250000D01*
G75*
G02*
X38320000Y54400000I150000J0D01*
G01*
X38620000Y54400000D01*
G75*
G02*
X38770000Y54250000I0J-150000D01*
G01*
X38770000Y52600000D01*
G75*
G02*
X38620000Y52450000I-150000J0D01*
G01*
G37*
G04 #@! TD*
G04 #@! TO.C,F5*
G36*
G01*
X21600000Y58605010D02*
X21600000Y59295010D01*
G75*
G02*
X21830000Y59525010I230000J0D01*
G01*
X23170000Y59525010D01*
G75*
G02*
X23400000Y59295010I0J-230000D01*
G01*
X23400000Y58605010D01*
G75*
G02*
X23170000Y58375010I-230000J0D01*
G01*
X21830000Y58375010D01*
G75*
G02*
X21600000Y58605010I0J230000D01*
G01*
G37*
G36*
G01*
X21600000Y55704990D02*
X21600000Y56394990D01*
G75*
G02*
X21830000Y56624990I230000J0D01*
G01*
X23170000Y56624990D01*
G75*
G02*
X23400000Y56394990I0J-230000D01*
G01*
X23400000Y55704990D01*
G75*
G02*
X23170000Y55474990I-230000J0D01*
G01*
X21830000Y55474990D01*
G75*
G02*
X21600000Y55704990I0J230000D01*
G01*
G37*
G04 #@! TD*
G04 #@! TO.C,R16*
G36*
G01*
X24149999Y1275000D02*
X24149999Y2525000D01*
G75*
G02*
X24249999Y2625000I100000J0D01*
G01*
X25049999Y2625000D01*
G75*
G02*
X25149999Y2525000I0J-100000D01*
G01*
X25149999Y1275000D01*
G75*
G02*
X25049999Y1175000I-100000J0D01*
G01*
X24249999Y1175000D01*
G75*
G02*
X24149999Y1275000I0J100000D01*
G01*
G37*
G36*
G01*
X26050021Y1275000D02*
X26050021Y2525000D01*
G75*
G02*
X26150021Y2625000I100000J0D01*
G01*
X26950021Y2625000D01*
G75*
G02*
X27050021Y2525000I0J-100000D01*
G01*
X27050021Y1275000D01*
G75*
G02*
X26950021Y1175000I-100000J0D01*
G01*
X26150021Y1175000D01*
G75*
G02*
X26050021Y1275000I0J100000D01*
G01*
G37*
G04 #@! TD*
G04 #@! TO.C,R11*
G36*
G01*
X4350000Y54190000D02*
X4350000Y53410000D01*
G75*
G02*
X4280000Y53340000I-70000J0D01*
G01*
X3720000Y53340000D01*
G75*
G02*
X3650000Y53410000I0J70000D01*
G01*
X3650000Y54190000D01*
G75*
G02*
X3720000Y54260000I70000J0D01*
G01*
X4280000Y54260000D01*
G75*
G02*
X4350000Y54190000I0J-70000D01*
G01*
G37*
G36*
G01*
X2750000Y54190000D02*
X2750000Y53410000D01*
G75*
G02*
X2680000Y53340000I-70000J0D01*
G01*
X2120000Y53340000D01*
G75*
G02*
X2050000Y53410000I0J70000D01*
G01*
X2050000Y54190000D01*
G75*
G02*
X2120000Y54260000I70000J0D01*
G01*
X2680000Y54260000D01*
G75*
G02*
X2750000Y54190000I0J-70000D01*
G01*
G37*
G04 #@! TD*
G04 #@! TO.C,D2*
G36*
G01*
X31410000Y55300000D02*
X30390000Y55300000D01*
G75*
G02*
X30300000Y55390000I0J90000D01*
G01*
X30300000Y56110000D01*
G75*
G02*
X30390000Y56200000I90000J0D01*
G01*
X31410000Y56200000D01*
G75*
G02*
X31500000Y56110000I0J-90000D01*
G01*
X31500000Y55390000D01*
G75*
G02*
X31410000Y55300000I-90000J0D01*
G01*
G37*
G36*
G01*
X31410000Y58600000D02*
X30390000Y58600000D01*
G75*
G02*
X30300000Y58690000I0J90000D01*
G01*
X30300000Y59410000D01*
G75*
G02*
X30390000Y59500000I90000J0D01*
G01*
X31410000Y59500000D01*
G75*
G02*
X31500000Y59410000I0J-90000D01*
G01*
X31500000Y58690000D01*
G75*
G02*
X31410000Y58600000I-90000J0D01*
G01*
G37*
G04 #@! TD*
G04 #@! TO.C,F4*
G36*
G01*
X19100000Y58605010D02*
X19100000Y59295010D01*
G75*
G02*
X19330000Y59525010I230000J0D01*
G01*
X20670000Y59525010D01*
G75*
G02*
X20900000Y59295010I0J-230000D01*
G01*
X20900000Y58605010D01*
G75*
G02*
X20670000Y58375010I-230000J0D01*
G01*
X19330000Y58375010D01*
G75*
G02*
X19100000Y58605010I0J230000D01*
G01*
G37*
G36*
G01*
X19100000Y55704990D02*
X19100000Y56394990D01*
G75*
G02*
X19330000Y56624990I230000J0D01*
G01*
X20670000Y56624990D01*
G75*
G02*
X20900000Y56394990I0J-230000D01*
G01*
X20900000Y55704990D01*
G75*
G02*
X20670000Y55474990I-230000J0D01*
G01*
X19330000Y55474990D01*
G75*
G02*
X19100000Y55704990I0J230000D01*
G01*
G37*
G04 #@! TD*
G04 #@! TO.C,D1*
G36*
G01*
X34410000Y55300000D02*
X33390000Y55300000D01*
G75*
G02*
X33300000Y55390000I0J90000D01*
G01*
X33300000Y56110000D01*
G75*
G02*
X33390000Y56200000I90000J0D01*
G01*
X34410000Y56200000D01*
G75*
G02*
X34500000Y56110000I0J-90000D01*
G01*
X34500000Y55390000D01*
G75*
G02*
X34410000Y55300000I-90000J0D01*
G01*
G37*
G36*
G01*
X34410000Y58600000D02*
X33390000Y58600000D01*
G75*
G02*
X33300000Y58690000I0J90000D01*
G01*
X33300000Y59410000D01*
G75*
G02*
X33390000Y59500000I90000J0D01*
G01*
X34410000Y59500000D01*
G75*
G02*
X34500000Y59410000I0J-90000D01*
G01*
X34500000Y58690000D01*
G75*
G02*
X34410000Y58600000I-90000J0D01*
G01*
G37*
G04 #@! TD*
G04 #@! TO.C,U2*
G36*
G01*
X44545000Y47550000D02*
X44245000Y47550000D01*
G75*
G02*
X44095000Y47700000I0J150000D01*
G01*
X44095000Y49350000D01*
G75*
G02*
X44245000Y49500000I150000J0D01*
G01*
X44545000Y49500000D01*
G75*
G02*
X44695000Y49350000I0J-150000D01*
G01*
X44695000Y47700000D01*
G75*
G02*
X44545000Y47550000I-150000J0D01*
G01*
G37*
G36*
G01*
X45815000Y47550000D02*
X45515000Y47550000D01*
G75*
G02*
X45365000Y47700000I0J150000D01*
G01*
X45365000Y49350000D01*
G75*
G02*
X45515000Y49500000I150000J0D01*
G01*
X45815000Y49500000D01*
G75*
G02*
X45965000Y49350000I0J-150000D01*
G01*
X45965000Y47700000D01*
G75*
G02*
X45815000Y47550000I-150000J0D01*
G01*
G37*
G36*
G01*
X47085000Y47550000D02*
X46785000Y47550000D01*
G75*
G02*
X46635000Y47700000I0J150000D01*
G01*
X46635000Y49350000D01*
G75*
G02*
X46785000Y49500000I150000J0D01*
G01*
X47085000Y49500000D01*
G75*
G02*
X47235000Y49350000I0J-150000D01*
G01*
X47235000Y47700000D01*
G75*
G02*
X47085000Y47550000I-150000J0D01*
G01*
G37*
G36*
G01*
X48355000Y47550000D02*
X48055000Y47550000D01*
G75*
G02*
X47905000Y47700000I0J150000D01*
G01*
X47905000Y49350000D01*
G75*
G02*
X48055000Y49500000I150000J0D01*
G01*
X48355000Y49500000D01*
G75*
G02*
X48505000Y49350000I0J-150000D01*
G01*
X48505000Y47700000D01*
G75*
G02*
X48355000Y47550000I-150000J0D01*
G01*
G37*
G36*
G01*
X48355000Y52500000D02*
X48055000Y52500000D01*
G75*
G02*
X47905000Y52650000I0J150000D01*
G01*
X47905000Y54300000D01*
G75*
G02*
X48055000Y54450000I150000J0D01*
G01*
X48355000Y54450000D01*
G75*
G02*
X48505000Y54300000I0J-150000D01*
G01*
X48505000Y52650000D01*
G75*
G02*
X48355000Y52500000I-150000J0D01*
G01*
G37*
G36*
G01*
X47085000Y52500000D02*
X46785000Y52500000D01*
G75*
G02*
X46635000Y52650000I0J150000D01*
G01*
X46635000Y54300000D01*
G75*
G02*
X46785000Y54450000I150000J0D01*
G01*
X47085000Y54450000D01*
G75*
G02*
X47235000Y54300000I0J-150000D01*
G01*
X47235000Y52650000D01*
G75*
G02*
X47085000Y52500000I-150000J0D01*
G01*
G37*
G36*
G01*
X45815000Y52500000D02*
X45515000Y52500000D01*
G75*
G02*
X45365000Y52650000I0J150000D01*
G01*
X45365000Y54300000D01*
G75*
G02*
X45515000Y54450000I150000J0D01*
G01*
X45815000Y54450000D01*
G75*
G02*
X45965000Y54300000I0J-150000D01*
G01*
X45965000Y52650000D01*
G75*
G02*
X45815000Y52500000I-150000J0D01*
G01*
G37*
G36*
G01*
X44545000Y52500000D02*
X44245000Y52500000D01*
G75*
G02*
X44095000Y52650000I0J150000D01*
G01*
X44095000Y54300000D01*
G75*
G02*
X44245000Y54450000I150000J0D01*
G01*
X44545000Y54450000D01*
G75*
G02*
X44695000Y54300000I0J-150000D01*
G01*
X44695000Y52650000D01*
G75*
G02*
X44545000Y52500000I-150000J0D01*
G01*
G37*
G04 #@! TD*
G04 #@! TO.C,F3*
G36*
G01*
X65708750Y52175000D02*
X66221250Y52175000D01*
G75*
G02*
X66440000Y51956250I0J-218750D01*
G01*
X66440000Y51518750D01*
G75*
G02*
X66221250Y51300000I-218750J0D01*
G01*
X65708750Y51300000D01*
G75*
G02*
X65490000Y51518750I0J218750D01*
G01*
X65490000Y51956250D01*
G75*
G02*
X65708750Y52175000I218750J0D01*
G01*
G37*
G36*
G01*
X65708750Y50600000D02*
X66221250Y50600000D01*
G75*
G02*
X66440000Y50381250I0J-218750D01*
G01*
X66440000Y49943750D01*
G75*
G02*
X66221250Y49725000I-218750J0D01*
G01*
X65708750Y49725000D01*
G75*
G02*
X65490000Y49943750I0J218750D01*
G01*
X65490000Y50381250D01*
G75*
G02*
X65708750Y50600000I218750J0D01*
G01*
G37*
G04 #@! TD*
G04 #@! TO.C,R7*
G36*
G01*
X61555000Y44000000D02*
X60775000Y44000000D01*
G75*
G02*
X60705000Y44070000I0J70000D01*
G01*
X60705000Y44630000D01*
G75*
G02*
X60775000Y44700000I70000J0D01*
G01*
X61555000Y44700000D01*
G75*
G02*
X61625000Y44630000I0J-70000D01*
G01*
X61625000Y44070000D01*
G75*
G02*
X61555000Y44000000I-70000J0D01*
G01*
G37*
G36*
G01*
X61555000Y45600000D02*
X60775000Y45600000D01*
G75*
G02*
X60705000Y45670000I0J70000D01*
G01*
X60705000Y46230000D01*
G75*
G02*
X60775000Y46300000I70000J0D01*
G01*
X61555000Y46300000D01*
G75*
G02*
X61625000Y46230000I0J-70000D01*
G01*
X61625000Y45670000D01*
G75*
G02*
X61555000Y45600000I-70000J0D01*
G01*
G37*
G04 #@! TD*
G04 #@! TO.C,R8*
G36*
G01*
X59955000Y44000000D02*
X59175000Y44000000D01*
G75*
G02*
X59105000Y44070000I0J70000D01*
G01*
X59105000Y44630000D01*
G75*
G02*
X59175000Y44700000I70000J0D01*
G01*
X59955000Y44700000D01*
G75*
G02*
X60025000Y44630000I0J-70000D01*
G01*
X60025000Y44070000D01*
G75*
G02*
X59955000Y44000000I-70000J0D01*
G01*
G37*
G36*
G01*
X59955000Y45600000D02*
X59175000Y45600000D01*
G75*
G02*
X59105000Y45670000I0J70000D01*
G01*
X59105000Y46230000D01*
G75*
G02*
X59175000Y46300000I70000J0D01*
G01*
X59955000Y46300000D01*
G75*
G02*
X60025000Y46230000I0J-70000D01*
G01*
X60025000Y45670000D01*
G75*
G02*
X59955000Y45600000I-70000J0D01*
G01*
G37*
G04 #@! TD*
G04 #@! TO.C,R2*
G36*
G01*
X47370000Y43925000D02*
X46590000Y43925000D01*
G75*
G02*
X46520000Y43995000I0J70000D01*
G01*
X46520000Y44555000D01*
G75*
G02*
X46590000Y44625000I70000J0D01*
G01*
X47370000Y44625000D01*
G75*
G02*
X47440000Y44555000I0J-70000D01*
G01*
X47440000Y43995000D01*
G75*
G02*
X47370000Y43925000I-70000J0D01*
G01*
G37*
G36*
G01*
X47370000Y45525000D02*
X46590000Y45525000D01*
G75*
G02*
X46520000Y45595000I0J70000D01*
G01*
X46520000Y46155000D01*
G75*
G02*
X46590000Y46225000I70000J0D01*
G01*
X47370000Y46225000D01*
G75*
G02*
X47440000Y46155000I0J-70000D01*
G01*
X47440000Y45595000D01*
G75*
G02*
X47370000Y45525000I-70000J0D01*
G01*
G37*
G04 #@! TD*
G04 #@! TO.C,F6*
G36*
G01*
X25100000Y58605010D02*
X25100000Y59295010D01*
G75*
G02*
X25330000Y59525010I230000J0D01*
G01*
X26670000Y59525010D01*
G75*
G02*
X26900000Y59295010I0J-230000D01*
G01*
X26900000Y58605010D01*
G75*
G02*
X26670000Y58375010I-230000J0D01*
G01*
X25330000Y58375010D01*
G75*
G02*
X25100000Y58605010I0J230000D01*
G01*
G37*
G36*
G01*
X25100000Y55704990D02*
X25100000Y56394990D01*
G75*
G02*
X25330000Y56624990I230000J0D01*
G01*
X26670000Y56624990D01*
G75*
G02*
X26900000Y56394990I0J-230000D01*
G01*
X26900000Y55704990D01*
G75*
G02*
X26670000Y55474990I-230000J0D01*
G01*
X25330000Y55474990D01*
G75*
G02*
X25100000Y55704990I0J230000D01*
G01*
G37*
G04 #@! TD*
G04 #@! TO.C,R3*
G36*
G01*
X50690000Y43925000D02*
X49910000Y43925000D01*
G75*
G02*
X49840000Y43995000I0J70000D01*
G01*
X49840000Y44555000D01*
G75*
G02*
X49910000Y44625000I70000J0D01*
G01*
X50690000Y44625000D01*
G75*
G02*
X50760000Y44555000I0J-70000D01*
G01*
X50760000Y43995000D01*
G75*
G02*
X50690000Y43925000I-70000J0D01*
G01*
G37*
G36*
G01*
X50690000Y45525000D02*
X49910000Y45525000D01*
G75*
G02*
X49840000Y45595000I0J70000D01*
G01*
X49840000Y46155000D01*
G75*
G02*
X49910000Y46225000I70000J0D01*
G01*
X50690000Y46225000D01*
G75*
G02*
X50760000Y46155000I0J-70000D01*
G01*
X50760000Y45595000D01*
G75*
G02*
X50690000Y45525000I-70000J0D01*
G01*
G37*
G04 #@! TD*
G04 #@! TO.C,C14*
G36*
G01*
X1994998Y56060000D02*
X1994998Y56740000D01*
G75*
G02*
X2079998Y56825000I85000J0D01*
G01*
X2759998Y56825000D01*
G75*
G02*
X2844998Y56740000I0J-85000D01*
G01*
X2844998Y56060000D01*
G75*
G02*
X2759998Y55975000I-85000J0D01*
G01*
X2079998Y55975000D01*
G75*
G02*
X1994998Y56060000I0J85000D01*
G01*
G37*
G36*
G01*
X3575000Y56060000D02*
X3575000Y56740000D01*
G75*
G02*
X3660000Y56825000I85000J0D01*
G01*
X4340000Y56825000D01*
G75*
G02*
X4425000Y56740000I0J-85000D01*
G01*
X4425000Y56060000D01*
G75*
G02*
X4340000Y55975000I-85000J0D01*
G01*
X3660000Y55975000D01*
G75*
G02*
X3575000Y56060000I0J85000D01*
G01*
G37*
G04 #@! TD*
G04 #@! TO.C,F1*
G36*
G01*
X61998750Y52175000D02*
X62511250Y52175000D01*
G75*
G02*
X62730000Y51956250I0J-218750D01*
G01*
X62730000Y51518750D01*
G75*
G02*
X62511250Y51300000I-218750J0D01*
G01*
X61998750Y51300000D01*
G75*
G02*
X61780000Y51518750I0J218750D01*
G01*
X61780000Y51956250D01*
G75*
G02*
X61998750Y52175000I218750J0D01*
G01*
G37*
G36*
G01*
X61998750Y50600000D02*
X62511250Y50600000D01*
G75*
G02*
X62730000Y50381250I0J-218750D01*
G01*
X62730000Y49943750D01*
G75*
G02*
X62511250Y49725000I-218750J0D01*
G01*
X61998750Y49725000D01*
G75*
G02*
X61780000Y49943750I0J218750D01*
G01*
X61780000Y50381250D01*
G75*
G02*
X61998750Y50600000I218750J0D01*
G01*
G37*
G04 #@! TD*
G04 #@! TO.C,R6*
G36*
G01*
X56755000Y44000000D02*
X55975000Y44000000D01*
G75*
G02*
X55905000Y44070000I0J70000D01*
G01*
X55905000Y44630000D01*
G75*
G02*
X55975000Y44700000I70000J0D01*
G01*
X56755000Y44700000D01*
G75*
G02*
X56825000Y44630000I0J-70000D01*
G01*
X56825000Y44070000D01*
G75*
G02*
X56755000Y44000000I-70000J0D01*
G01*
G37*
G36*
G01*
X56755000Y45600000D02*
X55975000Y45600000D01*
G75*
G02*
X55905000Y45670000I0J70000D01*
G01*
X55905000Y46230000D01*
G75*
G02*
X55975000Y46300000I70000J0D01*
G01*
X56755000Y46300000D01*
G75*
G02*
X56825000Y46230000I0J-70000D01*
G01*
X56825000Y45670000D01*
G75*
G02*
X56755000Y45600000I-70000J0D01*
G01*
G37*
G04 #@! TD*
G04 #@! TO.C,R10*
G36*
G01*
X41330000Y43825000D02*
X40550000Y43825000D01*
G75*
G02*
X40480000Y43895000I0J70000D01*
G01*
X40480000Y44455000D01*
G75*
G02*
X40550000Y44525000I70000J0D01*
G01*
X41330000Y44525000D01*
G75*
G02*
X41400000Y44455000I0J-70000D01*
G01*
X41400000Y43895000D01*
G75*
G02*
X41330000Y43825000I-70000J0D01*
G01*
G37*
G36*
G01*
X41330000Y45425000D02*
X40550000Y45425000D01*
G75*
G02*
X40480000Y45495000I0J70000D01*
G01*
X40480000Y46055000D01*
G75*
G02*
X40550000Y46125000I70000J0D01*
G01*
X41330000Y46125000D01*
G75*
G02*
X41400000Y46055000I0J-70000D01*
G01*
X41400000Y45495000D01*
G75*
G02*
X41330000Y45425000I-70000J0D01*
G01*
G37*
G04 #@! TD*
M02*
