G04 #@! TF.GenerationSoftware,KiCad,Pcbnew,8.0.2-8.0.2-0~ubuntu22.04.1*
G04 #@! TF.CreationDate,2024-05-29T14:04:05+00:00*
G04 #@! TF.ProjectId,PROLT,50524f4c-542e-46b6-9963-61645f706362,rev?*
G04 #@! TF.SameCoordinates,Original*
G04 #@! TF.FileFunction,Soldermask,Bot*
G04 #@! TF.FilePolarity,Negative*
%FSLAX46Y46*%
G04 Gerber Fmt 4.6, Leading zero omitted, Abs format (unit mm)*
G04 Created by KiCad (PCBNEW 8.0.2-8.0.2-0~ubuntu22.04.1) date 2024-05-29 14:04:05*
%MOMM*%
%LPD*%
G01*
G04 APERTURE LIST*
%ADD10C,0.120000*%
%ADD11C,1.524000*%
%ADD12O,1.750000X1.200000*%
%ADD13C,4.100000*%
%ADD14C,2.300000*%
%ADD15C,1.950000*%
%ADD16C,0.600000*%
%ADD17C,1.500000*%
%ADD18R,1.000000X1.300000*%
%ADD19R,2.299995X4.399991*%
%ADD20R,2.299995X3.999992*%
G04 APERTURE END LIST*
D10*
G04 #@! TO.C,U1*
X79750000Y41312500D02*
X72750000Y41312500D01*
X72750000Y54312500D01*
X79750000Y54312500D01*
X79750000Y41312500D01*
G36*
X79750000Y41312500D02*
G01*
X72750000Y41312500D01*
X72750000Y54312500D01*
X79750000Y54312500D01*
X79750000Y41312500D01*
G37*
G04 #@! TD*
D11*
G04 #@! TO.C,F7*
X28750000Y60300000D03*
X28750000Y55400000D03*
G04 #@! TD*
G04 #@! TO.C,J2*
G36*
G01*
X24825000Y42750000D02*
X23575000Y42750000D01*
G75*
G02*
X23325000Y43000000I0J250000D01*
G01*
X23325000Y43700000D01*
G75*
G02*
X23575000Y43950000I250000J0D01*
G01*
X24825000Y43950000D01*
G75*
G02*
X25075000Y43700000I0J-250000D01*
G01*
X25075000Y43000000D01*
G75*
G02*
X24825000Y42750000I-250000J0D01*
G01*
G37*
D12*
X24200000Y45350000D03*
X24200000Y47350000D03*
X24200000Y49350000D03*
G04 #@! TD*
D13*
G04 #@! TO.C,J1*
X60750000Y68500000D03*
D14*
X56650000Y64650000D03*
X24050000Y64650000D03*
D13*
X19950000Y68500000D03*
D15*
X50200000Y65650000D03*
X50200000Y68150000D03*
X50200000Y70650000D03*
X50200000Y73150000D03*
X47700000Y65650000D03*
X47700000Y68150000D03*
X47700000Y70650000D03*
X47700000Y73150000D03*
X45200000Y65650000D03*
X45200000Y68150000D03*
X45200000Y70650000D03*
X45200000Y73150000D03*
X42700000Y65650000D03*
X42700000Y68150000D03*
X42700000Y70650000D03*
X42700000Y73150000D03*
X40200000Y65650000D03*
X40200000Y68150000D03*
X40200000Y70650000D03*
X40200000Y73150000D03*
X37700000Y65650000D03*
X37700000Y68150000D03*
X37700000Y70650000D03*
X37700000Y73150000D03*
X34200000Y65650000D03*
X34200000Y68150000D03*
X34200000Y70650000D03*
X34200000Y73150000D03*
X30500000Y65650000D03*
X30500000Y68150000D03*
X30500000Y70650000D03*
X30500000Y73150000D03*
G04 #@! TD*
D11*
G04 #@! TO.C,F5*
X22850000Y60300000D03*
X22850000Y55400000D03*
G04 #@! TD*
G04 #@! TO.C,R16*
X24045000Y2250000D03*
X27855000Y2250000D03*
G04 #@! TD*
G04 #@! TO.C,F4*
X20350000Y60300000D03*
X20350000Y55400000D03*
G04 #@! TD*
G04 #@! TO.C,F6*
X26350000Y60300000D03*
X26350000Y55400000D03*
G04 #@! TD*
D16*
G04 #@! TO.C,M2*
X12012500Y31150000D03*
X12012500Y32350000D03*
X12012500Y29950000D03*
X12012500Y28750000D03*
X26437500Y35210000D03*
X26437500Y36210000D03*
G04 #@! TD*
D17*
G04 #@! TO.C,M3*
X27924995Y23674999D03*
X27924995Y17275002D03*
X27924995Y15374999D03*
X27924995Y11074999D03*
D16*
X28374994Y8675002D03*
X28374994Y7675001D03*
D17*
X27924995Y4824999D03*
X12424998Y24125001D03*
X12424998Y22275002D03*
X12424998Y17324999D03*
X12424998Y5275001D03*
G04 #@! TD*
G04 #@! TO.C,C6*
G36*
G01*
X14975079Y52164993D02*
X13925079Y52164993D01*
G75*
G02*
X13825079Y52264993I0J100000D01*
G01*
X13825079Y53064993D01*
G75*
G02*
X13925079Y53164993I100000J0D01*
G01*
X14975079Y53164993D01*
G75*
G02*
X15075079Y53064993I0J-100000D01*
G01*
X15075079Y52264993D01*
G75*
G02*
X14975079Y52164993I-100000J0D01*
G01*
G37*
G36*
G01*
X14975079Y54164993D02*
X13925079Y54164993D01*
G75*
G02*
X13825079Y54264993I0J100000D01*
G01*
X13825079Y55064993D01*
G75*
G02*
X13925079Y55164993I100000J0D01*
G01*
X14975079Y55164993D01*
G75*
G02*
X15075079Y55064993I0J-100000D01*
G01*
X15075079Y54264993D01*
G75*
G02*
X14975079Y54164993I-100000J0D01*
G01*
G37*
G04 #@! TD*
G04 #@! TO.C,C11*
G36*
G01*
X11025015Y52150000D02*
X9975015Y52150000D01*
G75*
G02*
X9875015Y52250000I0J100000D01*
G01*
X9875015Y53050000D01*
G75*
G02*
X9975015Y53150000I100000J0D01*
G01*
X11025015Y53150000D01*
G75*
G02*
X11125015Y53050000I0J-100000D01*
G01*
X11125015Y52250000D01*
G75*
G02*
X11025015Y52150000I-100000J0D01*
G01*
G37*
G36*
G01*
X11025015Y54150000D02*
X9975015Y54150000D01*
G75*
G02*
X9875015Y54250000I0J100000D01*
G01*
X9875015Y55050000D01*
G75*
G02*
X9975015Y55150000I100000J0D01*
G01*
X11025015Y55150000D01*
G75*
G02*
X11125015Y55050000I0J-100000D01*
G01*
X11125015Y54250000D01*
G75*
G02*
X11025015Y54150000I-100000J0D01*
G01*
G37*
G04 #@! TD*
G04 #@! TO.C,C4*
G36*
G01*
X9975015Y58580002D02*
X11025015Y58580002D01*
G75*
G02*
X11125015Y58480002I0J-100000D01*
G01*
X11125015Y57680002D01*
G75*
G02*
X11025015Y57580002I-100000J0D01*
G01*
X9975015Y57580002D01*
G75*
G02*
X9875015Y57680002I0J100000D01*
G01*
X9875015Y58480002D01*
G75*
G02*
X9975015Y58580002I100000J0D01*
G01*
G37*
G36*
G01*
X9975015Y56580002D02*
X11025015Y56580002D01*
G75*
G02*
X11125015Y56480002I0J-100000D01*
G01*
X11125015Y55680002D01*
G75*
G02*
X11025015Y55580002I-100000J0D01*
G01*
X9975015Y55580002D01*
G75*
G02*
X9875015Y55680002I0J100000D01*
G01*
X9875015Y56480002D01*
G75*
G02*
X9975015Y56580002I100000J0D01*
G01*
G37*
G04 #@! TD*
G04 #@! TO.C,C18*
G36*
G01*
X10225000Y49450000D02*
X11275000Y49450000D01*
G75*
G02*
X11375000Y49350000I0J-100000D01*
G01*
X11375000Y48550000D01*
G75*
G02*
X11275000Y48450000I-100000J0D01*
G01*
X10225000Y48450000D01*
G75*
G02*
X10125000Y48550000I0J100000D01*
G01*
X10125000Y49350000D01*
G75*
G02*
X10225000Y49450000I100000J0D01*
G01*
G37*
G36*
G01*
X10225000Y47450000D02*
X11275000Y47450000D01*
G75*
G02*
X11375000Y47350000I0J-100000D01*
G01*
X11375000Y46550000D01*
G75*
G02*
X11275000Y46450000I-100000J0D01*
G01*
X10225000Y46450000D01*
G75*
G02*
X10125000Y46550000I0J100000D01*
G01*
X10125000Y47350000D01*
G75*
G02*
X10225000Y47450000I100000J0D01*
G01*
G37*
G04 #@! TD*
D18*
G04 #@! TO.C,U1*
X72175000Y41462500D03*
X70675000Y41462500D03*
X69175000Y41462500D03*
X67675000Y41462500D03*
X66175000Y41462500D03*
X64675000Y41462500D03*
X63175000Y41462500D03*
X61675000Y41462500D03*
X60175000Y41462500D03*
X58675000Y41462500D03*
X57175000Y41462500D03*
X55675000Y41462500D03*
X54175000Y41462500D03*
X54175000Y54162500D03*
X55675000Y54162500D03*
X57175000Y54162500D03*
X58675000Y54162500D03*
X60175000Y54162500D03*
X61675000Y54162500D03*
X63175000Y54162500D03*
X64675000Y54162500D03*
X66175000Y54162500D03*
X67675000Y54162500D03*
X69175000Y54162500D03*
X70675000Y54162500D03*
X72175000Y54162500D03*
G04 #@! TD*
G04 #@! TO.C,C28*
G36*
G01*
X53734999Y39510000D02*
X53734999Y40190000D01*
G75*
G02*
X53819999Y40275000I85000J0D01*
G01*
X54499999Y40275000D01*
G75*
G02*
X54584999Y40190000I0J-85000D01*
G01*
X54584999Y39510000D01*
G75*
G02*
X54499999Y39425000I-85000J0D01*
G01*
X53819999Y39425000D01*
G75*
G02*
X53734999Y39510000I0J85000D01*
G01*
G37*
G36*
G01*
X55315001Y39510000D02*
X55315001Y40190000D01*
G75*
G02*
X55400001Y40275000I85000J0D01*
G01*
X56080001Y40275000D01*
G75*
G02*
X56165001Y40190000I0J-85000D01*
G01*
X56165001Y39510000D01*
G75*
G02*
X56080001Y39425000I-85000J0D01*
G01*
X55400001Y39425000D01*
G75*
G02*
X55315001Y39510000I0J85000D01*
G01*
G37*
G04 #@! TD*
G04 #@! TO.C,C25*
G36*
G01*
X11275000Y43019998D02*
X10225000Y43019998D01*
G75*
G02*
X10125000Y43119998I0J100000D01*
G01*
X10125000Y43919998D01*
G75*
G02*
X10225000Y44019998I100000J0D01*
G01*
X11275000Y44019998D01*
G75*
G02*
X11375000Y43919998I0J-100000D01*
G01*
X11375000Y43119998D01*
G75*
G02*
X11275000Y43019998I-100000J0D01*
G01*
G37*
G36*
G01*
X11275000Y45019998D02*
X10225000Y45019998D01*
G75*
G02*
X10125000Y45119998I0J100000D01*
G01*
X10125000Y45919998D01*
G75*
G02*
X10225000Y46019998I100000J0D01*
G01*
X11275000Y46019998D01*
G75*
G02*
X11375000Y45919998I0J-100000D01*
G01*
X11375000Y45119998D01*
G75*
G02*
X11275000Y45019998I-100000J0D01*
G01*
G37*
G04 #@! TD*
G04 #@! TO.C,C24*
G36*
G01*
X9325015Y43019998D02*
X8275015Y43019998D01*
G75*
G02*
X8175015Y43119998I0J100000D01*
G01*
X8175015Y43919998D01*
G75*
G02*
X8275015Y44019998I100000J0D01*
G01*
X9325015Y44019998D01*
G75*
G02*
X9425015Y43919998I0J-100000D01*
G01*
X9425015Y43119998D01*
G75*
G02*
X9325015Y43019998I-100000J0D01*
G01*
G37*
G36*
G01*
X9325015Y45019998D02*
X8275015Y45019998D01*
G75*
G02*
X8175015Y45119998I0J100000D01*
G01*
X8175015Y45919998D01*
G75*
G02*
X8275015Y46019998I100000J0D01*
G01*
X9325015Y46019998D01*
G75*
G02*
X9425015Y45919998I0J-100000D01*
G01*
X9425015Y45119998D01*
G75*
G02*
X9325015Y45019998I-100000J0D01*
G01*
G37*
G04 #@! TD*
G04 #@! TO.C,C9*
G36*
G01*
X7125045Y52150000D02*
X6075045Y52150000D01*
G75*
G02*
X5975045Y52250000I0J100000D01*
G01*
X5975045Y53050000D01*
G75*
G02*
X6075045Y53150000I100000J0D01*
G01*
X7125045Y53150000D01*
G75*
G02*
X7225045Y53050000I0J-100000D01*
G01*
X7225045Y52250000D01*
G75*
G02*
X7125045Y52150000I-100000J0D01*
G01*
G37*
G36*
G01*
X7125045Y54150000D02*
X6075045Y54150000D01*
G75*
G02*
X5975045Y54250000I0J100000D01*
G01*
X5975045Y55050000D01*
G75*
G02*
X6075045Y55150000I100000J0D01*
G01*
X7125045Y55150000D01*
G75*
G02*
X7225045Y55050000I0J-100000D01*
G01*
X7225045Y54250000D01*
G75*
G02*
X7125045Y54150000I-100000J0D01*
G01*
G37*
G04 #@! TD*
G04 #@! TO.C,C12*
G36*
G01*
X12975000Y52150000D02*
X11925000Y52150000D01*
G75*
G02*
X11825000Y52250000I0J100000D01*
G01*
X11825000Y53050000D01*
G75*
G02*
X11925000Y53150000I100000J0D01*
G01*
X12975000Y53150000D01*
G75*
G02*
X13075000Y53050000I0J-100000D01*
G01*
X13075000Y52250000D01*
G75*
G02*
X12975000Y52150000I-100000J0D01*
G01*
G37*
G36*
G01*
X12975000Y54150000D02*
X11925000Y54150000D01*
G75*
G02*
X11825000Y54250000I0J100000D01*
G01*
X11825000Y55050000D01*
G75*
G02*
X11925000Y55150000I100000J0D01*
G01*
X12975000Y55150000D01*
G75*
G02*
X13075000Y55050000I0J-100000D01*
G01*
X13075000Y54250000D01*
G75*
G02*
X12975000Y54150000I-100000J0D01*
G01*
G37*
G04 #@! TD*
G04 #@! TO.C,C10*
G36*
G01*
X9075030Y52150000D02*
X8025030Y52150000D01*
G75*
G02*
X7925030Y52250000I0J100000D01*
G01*
X7925030Y53050000D01*
G75*
G02*
X8025030Y53150000I100000J0D01*
G01*
X9075030Y53150000D01*
G75*
G02*
X9175030Y53050000I0J-100000D01*
G01*
X9175030Y52250000D01*
G75*
G02*
X9075030Y52150000I-100000J0D01*
G01*
G37*
G36*
G01*
X9075030Y54150000D02*
X8025030Y54150000D01*
G75*
G02*
X7925030Y54250000I0J100000D01*
G01*
X7925030Y55050000D01*
G75*
G02*
X8025030Y55150000I100000J0D01*
G01*
X9075030Y55150000D01*
G75*
G02*
X9175030Y55050000I0J-100000D01*
G01*
X9175030Y54250000D01*
G75*
G02*
X9075030Y54150000I-100000J0D01*
G01*
G37*
G04 #@! TD*
G04 #@! TO.C,C8*
G36*
G01*
X15825079Y58580002D02*
X16875079Y58580002D01*
G75*
G02*
X16975079Y58480002I0J-100000D01*
G01*
X16975079Y57680002D01*
G75*
G02*
X16875079Y57580002I-100000J0D01*
G01*
X15825079Y57580002D01*
G75*
G02*
X15725079Y57680002I0J100000D01*
G01*
X15725079Y58480002D01*
G75*
G02*
X15825079Y58580002I100000J0D01*
G01*
G37*
G36*
G01*
X15825079Y56580002D02*
X16875079Y56580002D01*
G75*
G02*
X16975079Y56480002I0J-100000D01*
G01*
X16975079Y55680002D01*
G75*
G02*
X16875079Y55580002I-100000J0D01*
G01*
X15825079Y55580002D01*
G75*
G02*
X15725079Y55680002I0J100000D01*
G01*
X15725079Y56480002D01*
G75*
G02*
X15825079Y56580002I100000J0D01*
G01*
G37*
G04 #@! TD*
G04 #@! TO.C,C16*
G36*
G01*
X6325030Y49450000D02*
X7375030Y49450000D01*
G75*
G02*
X7475030Y49350000I0J-100000D01*
G01*
X7475030Y48550000D01*
G75*
G02*
X7375030Y48450000I-100000J0D01*
G01*
X6325030Y48450000D01*
G75*
G02*
X6225030Y48550000I0J100000D01*
G01*
X6225030Y49350000D01*
G75*
G02*
X6325030Y49450000I100000J0D01*
G01*
G37*
G36*
G01*
X6325030Y47450000D02*
X7375030Y47450000D01*
G75*
G02*
X7475030Y47350000I0J-100000D01*
G01*
X7475030Y46550000D01*
G75*
G02*
X7375030Y46450000I-100000J0D01*
G01*
X6325030Y46450000D01*
G75*
G02*
X6225030Y46550000I0J100000D01*
G01*
X6225030Y47350000D01*
G75*
G02*
X6325030Y47450000I100000J0D01*
G01*
G37*
G04 #@! TD*
G04 #@! TO.C,C23*
G36*
G01*
X7375030Y43019998D02*
X6325030Y43019998D01*
G75*
G02*
X6225030Y43119998I0J100000D01*
G01*
X6225030Y43919998D01*
G75*
G02*
X6325030Y44019998I100000J0D01*
G01*
X7375030Y44019998D01*
G75*
G02*
X7475030Y43919998I0J-100000D01*
G01*
X7475030Y43119998D01*
G75*
G02*
X7375030Y43019998I-100000J0D01*
G01*
G37*
G36*
G01*
X7375030Y45019998D02*
X6325030Y45019998D01*
G75*
G02*
X6225030Y45119998I0J100000D01*
G01*
X6225030Y45919998D01*
G75*
G02*
X6325030Y46019998I100000J0D01*
G01*
X7375030Y46019998D01*
G75*
G02*
X7475030Y45919998I0J-100000D01*
G01*
X7475030Y45119998D01*
G75*
G02*
X7375030Y45019998I-100000J0D01*
G01*
G37*
G04 #@! TD*
G04 #@! TO.C,C20*
G36*
G01*
X14124970Y49450000D02*
X15174970Y49450000D01*
G75*
G02*
X15274970Y49350000I0J-100000D01*
G01*
X15274970Y48550000D01*
G75*
G02*
X15174970Y48450000I-100000J0D01*
G01*
X14124970Y48450000D01*
G75*
G02*
X14024970Y48550000I0J100000D01*
G01*
X14024970Y49350000D01*
G75*
G02*
X14124970Y49450000I100000J0D01*
G01*
G37*
G36*
G01*
X14124970Y47450000D02*
X15174970Y47450000D01*
G75*
G02*
X15274970Y47350000I0J-100000D01*
G01*
X15274970Y46550000D01*
G75*
G02*
X15174970Y46450000I-100000J0D01*
G01*
X14124970Y46450000D01*
G75*
G02*
X14024970Y46550000I0J100000D01*
G01*
X14024970Y47350000D01*
G75*
G02*
X14124970Y47450000I100000J0D01*
G01*
G37*
G04 #@! TD*
D17*
G04 #@! TO.C,BT1*
X35050000Y45050000D03*
X35050000Y52549858D03*
D19*
X35050000Y40949906D03*
D20*
X35050000Y56949925D03*
G04 #@! TD*
G04 #@! TO.C,C15*
G36*
G01*
X15175000Y42950000D02*
X14125000Y42950000D01*
G75*
G02*
X14025000Y43050000I0J100000D01*
G01*
X14025000Y43850000D01*
G75*
G02*
X14125000Y43950000I100000J0D01*
G01*
X15175000Y43950000D01*
G75*
G02*
X15275000Y43850000I0J-100000D01*
G01*
X15275000Y43050000D01*
G75*
G02*
X15175000Y42950000I-100000J0D01*
G01*
G37*
G36*
G01*
X15175000Y44950000D02*
X14125000Y44950000D01*
G75*
G02*
X14025000Y45050000I0J100000D01*
G01*
X14025000Y45850000D01*
G75*
G02*
X14125000Y45950000I100000J0D01*
G01*
X15175000Y45950000D01*
G75*
G02*
X15275000Y45850000I0J-100000D01*
G01*
X15275000Y45050000D01*
G75*
G02*
X15175000Y44950000I-100000J0D01*
G01*
G37*
G04 #@! TD*
G04 #@! TO.C,C22*
G36*
G01*
X15925000Y49450000D02*
X16975000Y49450000D01*
G75*
G02*
X17075000Y49350000I0J-100000D01*
G01*
X17075000Y48550000D01*
G75*
G02*
X16975000Y48450000I-100000J0D01*
G01*
X15925000Y48450000D01*
G75*
G02*
X15825000Y48550000I0J100000D01*
G01*
X15825000Y49350000D01*
G75*
G02*
X15925000Y49450000I100000J0D01*
G01*
G37*
G36*
G01*
X15925000Y47450000D02*
X16975000Y47450000D01*
G75*
G02*
X17075000Y47350000I0J-100000D01*
G01*
X17075000Y46550000D01*
G75*
G02*
X16975000Y46450000I-100000J0D01*
G01*
X15925000Y46450000D01*
G75*
G02*
X15825000Y46550000I0J100000D01*
G01*
X15825000Y47350000D01*
G75*
G02*
X15925000Y47450000I100000J0D01*
G01*
G37*
G04 #@! TD*
G04 #@! TO.C,C19*
G36*
G01*
X12174985Y49450000D02*
X13224985Y49450000D01*
G75*
G02*
X13324985Y49350000I0J-100000D01*
G01*
X13324985Y48550000D01*
G75*
G02*
X13224985Y48450000I-100000J0D01*
G01*
X12174985Y48450000D01*
G75*
G02*
X12074985Y48550000I0J100000D01*
G01*
X12074985Y49350000D01*
G75*
G02*
X12174985Y49450000I100000J0D01*
G01*
G37*
G36*
G01*
X12174985Y47450000D02*
X13224985Y47450000D01*
G75*
G02*
X13324985Y47350000I0J-100000D01*
G01*
X13324985Y46550000D01*
G75*
G02*
X13224985Y46450000I-100000J0D01*
G01*
X12174985Y46450000D01*
G75*
G02*
X12074985Y46550000I0J100000D01*
G01*
X12074985Y47350000D01*
G75*
G02*
X12174985Y47450000I100000J0D01*
G01*
G37*
G04 #@! TD*
G04 #@! TO.C,C21*
G36*
G01*
X13175000Y42950000D02*
X12125000Y42950000D01*
G75*
G02*
X12025000Y43050000I0J100000D01*
G01*
X12025000Y43850000D01*
G75*
G02*
X12125000Y43950000I100000J0D01*
G01*
X13175000Y43950000D01*
G75*
G02*
X13275000Y43850000I0J-100000D01*
G01*
X13275000Y43050000D01*
G75*
G02*
X13175000Y42950000I-100000J0D01*
G01*
G37*
G36*
G01*
X13175000Y44950000D02*
X12125000Y44950000D01*
G75*
G02*
X12025000Y45050000I0J100000D01*
G01*
X12025000Y45850000D01*
G75*
G02*
X12125000Y45950000I100000J0D01*
G01*
X13175000Y45950000D01*
G75*
G02*
X13275000Y45850000I0J-100000D01*
G01*
X13275000Y45050000D01*
G75*
G02*
X13175000Y44950000I-100000J0D01*
G01*
G37*
G04 #@! TD*
G04 #@! TO.C,C2*
G36*
G01*
X6075045Y58580002D02*
X7125045Y58580002D01*
G75*
G02*
X7225045Y58480002I0J-100000D01*
G01*
X7225045Y57680002D01*
G75*
G02*
X7125045Y57580002I-100000J0D01*
G01*
X6075045Y57580002D01*
G75*
G02*
X5975045Y57680002I0J100000D01*
G01*
X5975045Y58480002D01*
G75*
G02*
X6075045Y58580002I100000J0D01*
G01*
G37*
G36*
G01*
X6075045Y56580002D02*
X7125045Y56580002D01*
G75*
G02*
X7225045Y56480002I0J-100000D01*
G01*
X7225045Y55680002D01*
G75*
G02*
X7125045Y55580002I-100000J0D01*
G01*
X6075045Y55580002D01*
G75*
G02*
X5975045Y55680002I0J100000D01*
G01*
X5975045Y56480002D01*
G75*
G02*
X6075045Y56580002I100000J0D01*
G01*
G37*
G04 #@! TD*
G04 #@! TO.C,C5*
G36*
G01*
X11925000Y58580002D02*
X12975000Y58580002D01*
G75*
G02*
X13075000Y58480002I0J-100000D01*
G01*
X13075000Y57680002D01*
G75*
G02*
X12975000Y57580002I-100000J0D01*
G01*
X11925000Y57580002D01*
G75*
G02*
X11825000Y57680002I0J100000D01*
G01*
X11825000Y58480002D01*
G75*
G02*
X11925000Y58580002I100000J0D01*
G01*
G37*
G36*
G01*
X11925000Y56580002D02*
X12975000Y56580002D01*
G75*
G02*
X13075000Y56480002I0J-100000D01*
G01*
X13075000Y55680002D01*
G75*
G02*
X12975000Y55580002I-100000J0D01*
G01*
X11925000Y55580002D01*
G75*
G02*
X11825000Y55680002I0J100000D01*
G01*
X11825000Y56480002D01*
G75*
G02*
X11925000Y56580002I100000J0D01*
G01*
G37*
G04 #@! TD*
G04 #@! TO.C,C3*
G36*
G01*
X8025030Y58580002D02*
X9075030Y58580002D01*
G75*
G02*
X9175030Y58480002I0J-100000D01*
G01*
X9175030Y57680002D01*
G75*
G02*
X9075030Y57580002I-100000J0D01*
G01*
X8025030Y57580002D01*
G75*
G02*
X7925030Y57680002I0J100000D01*
G01*
X7925030Y58480002D01*
G75*
G02*
X8025030Y58580002I100000J0D01*
G01*
G37*
G36*
G01*
X8025030Y56580002D02*
X9075030Y56580002D01*
G75*
G02*
X9175030Y56480002I0J-100000D01*
G01*
X9175030Y55680002D01*
G75*
G02*
X9075030Y55580002I-100000J0D01*
G01*
X8025030Y55580002D01*
G75*
G02*
X7925030Y55680002I0J100000D01*
G01*
X7925030Y56480002D01*
G75*
G02*
X8025030Y56580002I100000J0D01*
G01*
G37*
G04 #@! TD*
G04 #@! TO.C,C7*
G36*
G01*
X13925079Y58564993D02*
X14975079Y58564993D01*
G75*
G02*
X15075079Y58464993I0J-100000D01*
G01*
X15075079Y57664993D01*
G75*
G02*
X14975079Y57564993I-100000J0D01*
G01*
X13925079Y57564993D01*
G75*
G02*
X13825079Y57664993I0J100000D01*
G01*
X13825079Y58464993D01*
G75*
G02*
X13925079Y58564993I100000J0D01*
G01*
G37*
G36*
G01*
X13925079Y56564993D02*
X14975079Y56564993D01*
G75*
G02*
X15075079Y56464993I0J-100000D01*
G01*
X15075079Y55664993D01*
G75*
G02*
X14975079Y55564993I-100000J0D01*
G01*
X13925079Y55564993D01*
G75*
G02*
X13825079Y55664993I0J100000D01*
G01*
X13825079Y56464993D01*
G75*
G02*
X13925079Y56564993I100000J0D01*
G01*
G37*
G04 #@! TD*
G04 #@! TO.C,C17*
G36*
G01*
X8275015Y49450000D02*
X9325015Y49450000D01*
G75*
G02*
X9425015Y49350000I0J-100000D01*
G01*
X9425015Y48550000D01*
G75*
G02*
X9325015Y48450000I-100000J0D01*
G01*
X8275015Y48450000D01*
G75*
G02*
X8175015Y48550000I0J100000D01*
G01*
X8175015Y49350000D01*
G75*
G02*
X8275015Y49450000I100000J0D01*
G01*
G37*
G36*
G01*
X8275015Y47450000D02*
X9325015Y47450000D01*
G75*
G02*
X9425015Y47350000I0J-100000D01*
G01*
X9425015Y46550000D01*
G75*
G02*
X9325015Y46450000I-100000J0D01*
G01*
X8275015Y46450000D01*
G75*
G02*
X8175015Y46550000I0J100000D01*
G01*
X8175015Y47350000D01*
G75*
G02*
X8275015Y47450000I100000J0D01*
G01*
G37*
G04 #@! TD*
M02*
