G04 #@! TF.GenerationSoftware,KiCad,Pcbnew,8.0.2-8.0.2-0~ubuntu22.04.1*
G04 #@! TF.CreationDate,2024-05-29T14:04:05+00:00*
G04 #@! TF.ProjectId,PROLT,50524f4c-542e-46b6-9963-61645f706362,rev?*
G04 #@! TF.SameCoordinates,Original*
G04 #@! TF.FileFunction,Copper,L2,Inr*
G04 #@! TF.FilePolarity,Positive*
%FSLAX46Y46*%
G04 Gerber Fmt 4.6, Leading zero omitted, Abs format (unit mm)*
G04 Created by KiCad (PCBNEW 8.0.2-8.0.2-0~ubuntu22.04.1) date 2024-05-29 14:04:05*
%MOMM*%
%LPD*%
G01*
G04 APERTURE LIST*
G04 #@! TA.AperFunction,ComponentPad*
%ADD10C,1.524000*%
G04 #@! TD*
G04 #@! TA.AperFunction,ComponentPad*
%ADD11O,1.750000X1.200000*%
G04 #@! TD*
G04 #@! TA.AperFunction,ComponentPad*
%ADD12C,0.600000*%
G04 #@! TD*
G04 #@! TA.AperFunction,Conductor*
%ADD13R,3.700000X0.200000*%
G04 #@! TD*
G04 #@! TA.AperFunction,Conductor*
%ADD14R,0.400000X0.200000*%
G04 #@! TD*
G04 #@! TA.AperFunction,Conductor*
%ADD15R,1.600000X0.200000*%
G04 #@! TD*
G04 #@! TA.AperFunction,Conductor*
%ADD16R,9.700000X0.200000*%
G04 #@! TD*
G04 #@! TA.AperFunction,Conductor*
%ADD17R,2.300000X0.200000*%
G04 #@! TD*
G04 #@! TA.AperFunction,Conductor*
%ADD18R,0.200000X1.400000*%
G04 #@! TD*
G04 #@! TA.AperFunction,Conductor*
%ADD19R,0.200000X6.400000*%
G04 #@! TD*
G04 #@! TA.AperFunction,Conductor*
%ADD20R,0.200000X1.700000*%
G04 #@! TD*
G04 #@! TA.AperFunction,Conductor*
%ADD21R,0.200000X3.300000*%
G04 #@! TD*
G04 #@! TA.AperFunction,Conductor*
%ADD22R,7.000000X0.200000*%
G04 #@! TD*
G04 #@! TA.AperFunction,Conductor*
%ADD23R,3.300000X0.200000*%
G04 #@! TD*
G04 #@! TA.AperFunction,Conductor*
%ADD24R,6.300000X0.200000*%
G04 #@! TD*
G04 #@! TA.AperFunction,ComponentPad*
%ADD25C,1.950000*%
G04 #@! TD*
G04 #@! TA.AperFunction,Conductor*
%ADD26R,0.250000X6.185000*%
G04 #@! TD*
G04 #@! TA.AperFunction,Conductor*
%ADD27R,0.250000X1.115000*%
G04 #@! TD*
G04 #@! TA.AperFunction,Conductor*
%ADD28R,14.275000X0.250000*%
G04 #@! TD*
G04 #@! TA.AperFunction,Conductor*
%ADD29R,15.100000X0.250000*%
G04 #@! TD*
G04 #@! TA.AperFunction,Conductor*
%ADD30R,0.250000X5.175000*%
G04 #@! TD*
G04 #@! TA.AperFunction,ComponentPad*
%ADD31C,1.500000*%
G04 #@! TD*
G04 #@! TA.AperFunction,Conductor*
%ADD32O,0.200000X3.300000*%
G04 #@! TD*
G04 #@! TA.AperFunction,Conductor*
%ADD33O,0.200000X10.200000*%
G04 #@! TD*
G04 #@! TA.AperFunction,Conductor*
%ADD34O,0.200000X0.300000*%
G04 #@! TD*
G04 #@! TA.AperFunction,Conductor*
%ADD35O,17.000000X0.200000*%
G04 #@! TD*
G04 #@! TA.AperFunction,Conductor*
%ADD36O,15.400000X0.200000*%
G04 #@! TD*
G04 #@! TA.AperFunction,Conductor*
%ADD37O,0.200000X4.800000*%
G04 #@! TD*
G04 #@! TA.AperFunction,Conductor*
%ADD38O,0.200000X2.600000*%
G04 #@! TD*
G04 #@! TA.AperFunction,Conductor*
%ADD39O,0.200000X1.000000*%
G04 #@! TD*
G04 #@! TA.AperFunction,Conductor*
%ADD40O,0.200000X1.500000*%
G04 #@! TD*
G04 #@! TA.AperFunction,ViaPad*
%ADD41C,0.800000*%
G04 #@! TD*
G04 #@! TA.AperFunction,Conductor*
%ADD42C,0.150000*%
G04 #@! TD*
G04 #@! TA.AperFunction,Conductor*
%ADD43C,0.300000*%
G04 #@! TD*
G04 #@! TA.AperFunction,Conductor*
%ADD44C,0.500000*%
G04 #@! TD*
G04 #@! TA.AperFunction,Conductor*
%ADD45C,0.200000*%
G04 #@! TD*
G04 APERTURE END LIST*
D10*
G04 #@! TO.N,+12V*
G04 #@! TO.C,F7*
X28750000Y60300000D03*
G04 #@! TO.N,+12V_RAW*
X28750000Y55400000D03*
G04 #@! TD*
G04 #@! TO.N,GND*
G04 #@! TO.C,J2*
G04 #@! TA.AperFunction,ComponentPad*
G36*
G01*
X24825000Y42750000D02*
X23575000Y42750000D01*
G75*
G02*
X23325000Y43000000I0J250000D01*
G01*
X23325000Y43700000D01*
G75*
G02*
X23575000Y43950000I250000J0D01*
G01*
X24825000Y43950000D01*
G75*
G02*
X25075000Y43700000I0J-250000D01*
G01*
X25075000Y43000000D01*
G75*
G02*
X24825000Y42750000I-250000J0D01*
G01*
G37*
G04 #@! TD.AperFunction*
D11*
G04 #@! TO.N,/USB+*
X24200000Y45350000D03*
G04 #@! TO.N,/USB-*
X24200000Y47350000D03*
G04 #@! TO.N,/VBUS*
X24200000Y49350000D03*
G04 #@! TD*
D12*
G04 #@! TO.N,+5VA*
G04 #@! TO.C,M1*
X62449990Y37650000D03*
G04 #@! TO.N,GNDA*
X58149990Y37650010D03*
G04 #@! TO.N,unconnected-(M1-I2C_SCL_(PB10)-PadE3)*
X57350000Y37650010D03*
G04 #@! TO.N,unconnected-(M1-I2C_SDA_(PB11)-PadE4)*
X56549990Y37650010D03*
G04 #@! TO.N,Net-(M1-IN_VIGN_(PA5))*
X55749990Y37650010D03*
G04 #@! TO.N,unconnected-(M1-SPI2_CS_{slash}_CAN2_RX_(PB12)-PadE6)*
X54949990Y37650010D03*
G04 #@! TO.N,unconnected-(M1-SPI2_SCK_{slash}_CAN2_TX_(PB13)-PadE7)*
X54149990Y37650010D03*
G04 #@! TO.N,/DC1_DIS*
X53349990Y37650010D03*
G04 #@! TO.N,/DC2_DIR*
X52549990Y37650010D03*
G04 #@! TO.N,unconnected-(M1-OUT_INJ8_(PD12)-PadE10)*
X51749990Y37650010D03*
G04 #@! TO.N,unconnected-(M1-OUT_INJ7_(PD15)-PadE11)*
X50949990Y37650010D03*
G04 #@! TO.N,unconnected-(M1-OUT_INJ6_(PA8)-PadE12)*
X50149990Y37650010D03*
G04 #@! TO.N,/HS*
X49349990Y37650010D03*
G04 #@! TO.N,/INJ4_IN*
X48549990Y37650010D03*
G04 #@! TO.N,/INJ3_IN*
X47749990Y37650010D03*
G04 #@! TO.N,/INJ2_IN*
X46950000Y37650000D03*
G04 #@! TO.N,/INJ1_IN*
X46149990Y37650010D03*
G04 #@! TO.N,/LS1*
X44749990Y37650010D03*
G04 #@! TO.N,/LS2*
X43950000Y37650010D03*
G04 #@! TO.N,/DC1_PWM*
X43150000Y37650010D03*
G04 #@! TO.N,/DC1_DIR*
X42350000Y37650010D03*
G04 #@! TO.N,/DC2_PWM*
X41550000Y37650010D03*
G04 #@! TO.N,unconnected-(M1-OUT_PWM6_(PD14)-PadE23)*
X40749990Y37650010D03*
D13*
G04 #@! TO.N,GND*
X35900000Y4050000D03*
D14*
X38949990Y4050000D03*
D13*
X42000000Y4050000D03*
D15*
X46449990Y4050000D03*
D16*
X60099990Y4050000D03*
D17*
X68099990Y4050000D03*
D18*
X69150000Y5850010D03*
D19*
X33350000Y7950000D03*
D20*
X33350000Y14000000D03*
D21*
X33350000Y17500000D03*
D18*
X33350000Y27250000D03*
D19*
X69150000Y34750000D03*
D22*
X36749980Y37850010D03*
D14*
X45450000Y37850010D03*
D23*
X60300000Y37850010D03*
D24*
X66100000Y37850010D03*
D12*
G04 #@! TO.N,/VBUS*
X33549990Y37250010D03*
G04 #@! TO.N,/USB-*
X33549990Y36450010D03*
G04 #@! TO.N,/USB+*
X33549990Y35650010D03*
G04 #@! TO.N,/DC2_DIS*
X33549990Y34850000D03*
G04 #@! TO.N,unconnected-(M1-SWDIO_(PA13)-PadN5)*
X33549990Y34050010D03*
G04 #@! TO.N,unconnected-(M1-SWCLK_(PA14)-PadN6)*
X33549990Y33250010D03*
G04 #@! TO.N,unconnected-(M1-nReset-PadN7)*
X33549990Y32450010D03*
G04 #@! TO.N,unconnected-(M1-SWO_(PB3)-PadN8)*
X33549990Y31650000D03*
G04 #@! TO.N,unconnected-(M1-SPI3_CS_(PA15)-PadN9)*
X33550000Y30850010D03*
G04 #@! TO.N,unconnected-(M1-SPI3_SCK_(PC10)-PadN10)*
X33550000Y30050010D03*
G04 #@! TO.N,unconnected-(M1-SPI3_MISO_(PC11)-PadN11)*
X33550000Y29250010D03*
G04 #@! TO.N,/PG_5VP*
X33550000Y28450010D03*
G04 #@! TO.N,Net-(M1-UART2_TX_(PD5))*
X33550000Y26050000D03*
G04 #@! TO.N,Net-(M1-UART2_RX_(PD6))*
X33550000Y25250000D03*
G04 #@! TO.N,unconnected-(M1-LED_GREEN-PadN14a)*
X33549990Y24450010D03*
G04 #@! TO.N,unconnected-(M1-LED_YELLOW-PadN14b)*
X33549990Y23650000D03*
G04 #@! TO.N,+3.3VA*
X33549990Y22850000D03*
G04 #@! TO.N,unconnected-(M1-BOOT0-PadN16)*
X33549990Y22050000D03*
G04 #@! TO.N,Net-(D3-K)*
X33549990Y21250000D03*
G04 #@! TO.N,unconnected-(M1-UART8_RX_(PE0)-PadN18)*
X33550000Y20450000D03*
G04 #@! TO.N,/VR_MAX9924*
X33550000Y19650000D03*
G04 #@! TO.N,/EN_5VP*
X33550000Y15350000D03*
G04 #@! TO.N,+3.3V*
X33550000Y12650000D03*
G04 #@! TO.N,+5V*
X33550000Y11650010D03*
G04 #@! TO.N,unconnected-(M1-V33-PadN23)*
X33550000Y4250000D03*
G04 #@! TO.N,/IN_D3*
X68950000Y31050020D03*
G04 #@! TO.N,/IN_D2*
X68950000Y29850010D03*
G04 #@! TO.N,/IN_D1*
X68950000Y28650010D03*
G04 #@! TO.N,/IN_CMP*
X68950000Y27450010D03*
G04 #@! TO.N,unconnected-(M1-VREF2-PadS5)*
X68950000Y26250010D03*
G04 #@! TO.N,/IN_VMAIN*
X68950000Y25050010D03*
G04 #@! TO.N,unconnected-(M1-IN_AUX3_(PA7)-PadS7)*
X68950000Y23850010D03*
G04 #@! TO.N,unconnected-(M1-IN_AUX2_(PC4{slash}PE9)-PadS8)*
X68950000Y22650010D03*
G04 #@! TO.N,unconnected-(M1-IN_AUX1_(PB0)-PadS9)*
X68950000Y21450010D03*
G04 #@! TO.N,/IN_AUX2*
X68950000Y20250010D03*
G04 #@! TO.N,/IN_AUX1*
X68950000Y19050010D03*
G04 #@! TO.N,unconnected-(M1-IN_MAP2_(PC1)-PadS12)*
X68950000Y17850010D03*
G04 #@! TO.N,/IN_MAP*
X68950000Y16650010D03*
G04 #@! TO.N,unconnected-(M1-IN_CRANK_(PB1)-PadS14)*
X68950000Y15450010D03*
G04 #@! TO.N,unconnected-(M1-IN_KNOCK_(PA2)-PadS15)*
X68950000Y14250010D03*
G04 #@! TO.N,unconnected-(M1-IN_CAM_(PA6)-PadS16)*
X68950000Y13050010D03*
G04 #@! TO.N,unconnected-(M1-IN_VSS_(PE11)-PadS17)*
X68950000Y11850010D03*
G04 #@! TO.N,/IN_TPS*
X68950000Y10650000D03*
G04 #@! TO.N,unconnected-(M1-IN_PPS_(PA3)-PadS19)*
X68950000Y9450000D03*
G04 #@! TO.N,/IN_IAT*
X68950000Y8250000D03*
G04 #@! TO.N,/IN_CLT*
X68950000Y7050000D03*
G04 #@! TO.N,unconnected-(M1-VREF1-PadS22)*
X68950000Y4650000D03*
G04 #@! TO.N,unconnected-(M1-GNDA-PadW1)*
X66449990Y4250000D03*
G04 #@! TO.N,unconnected-(M1-V5A_SWITCHABLE-PadW2)*
X65449990Y4250000D03*
G04 #@! TO.N,unconnected-(M1-IGN8_(PE6)-PadW3)*
X54750000Y4250000D03*
G04 #@! TO.N,unconnected-(M1-IGN7_(PB9)-PadW4)*
X53749990Y4250000D03*
G04 #@! TO.N,unconnected-(M1-IGN6_(PB8)-PadW5)*
X52750000Y4250000D03*
G04 #@! TO.N,unconnected-(M1-IGN5_(PE2)-PadW6)*
X51750000Y4250000D03*
G04 #@! TO.N,unconnected-(M1-IGN4_(PE3)-PadW7)*
X50750000Y4250000D03*
G04 #@! TO.N,/IGN3_IN*
X49750000Y4250000D03*
G04 #@! TO.N,/IGN2_IN*
X48750000Y4250000D03*
G04 #@! TO.N,/IGN1_IN*
X47750000Y4250000D03*
G04 #@! TO.N,/CAN-H*
X45150000Y4250000D03*
G04 #@! TO.N,/CAN-L*
X44350000Y4250000D03*
G04 #@! TO.N,unconnected-(M1-V33_REF-PadW13)*
X39649990Y4250000D03*
G04 #@! TO.N,unconnected-(M1-V5A_SWITCHABLE-PadW14)*
X38250000Y4250000D03*
G04 #@! TD*
D25*
G04 #@! TO.N,/IGN1_OUT*
G04 #@! TO.C,J1*
X50200000Y65650000D03*
G04 #@! TO.N,/IGN2_OUT*
X50200000Y68150000D03*
G04 #@! TO.N,/IGN3_OUT*
X50200000Y70650000D03*
G04 #@! TO.N,/TACH*
X50200000Y73150000D03*
G04 #@! TO.N,/OUT_1*
X47700000Y65650000D03*
G04 #@! TO.N,/IN_IAT*
X47700000Y68150000D03*
G04 #@! TO.N,/IN_CLT*
X47700000Y70650000D03*
G04 #@! TO.N,/IN_MAP*
X47700000Y73150000D03*
G04 #@! TO.N,/INJ3_OUT*
X45200000Y65650000D03*
G04 #@! TO.N,/IN_TPS*
X45200000Y68150000D03*
G04 #@! TO.N,/IN_AUX1*
X45200000Y70650000D03*
G04 #@! TO.N,/IN_AUX2*
X45200000Y73150000D03*
G04 #@! TO.N,/INJ2_OUT*
X42700000Y65650000D03*
G04 #@! TO.N,/IN_D1*
X42700000Y68150000D03*
G04 #@! TO.N,/IN_D2*
X42700000Y70650000D03*
G04 #@! TO.N,/IN_D3*
X42700000Y73150000D03*
G04 #@! TO.N,/INJ1_OUT*
X40200000Y65650000D03*
G04 #@! TO.N,/VR-*
X40200000Y68150000D03*
G04 #@! TO.N,/IN_CMP*
X40200000Y70650000D03*
G04 #@! TO.N,GNDA*
X40200000Y73150000D03*
G04 #@! TO.N,+5VP*
X37700000Y65650000D03*
G04 #@! TO.N,/VR+*
X37700000Y68150000D03*
G04 #@! TO.N,/CAN-H*
X37700000Y70650000D03*
G04 #@! TO.N,/CAN-L*
X37700000Y73150000D03*
G04 #@! TO.N,+12V*
X34200000Y65650000D03*
G04 #@! TO.N,GND*
X34200000Y68150000D03*
G04 #@! TO.N,/OUT_2*
X34200000Y70650000D03*
G04 #@! TO.N,/OUT_3*
X34200000Y73150000D03*
G04 #@! TO.N,/DC2-*
X30500000Y65650000D03*
G04 #@! TO.N,/DC1-*
X30500000Y68150000D03*
G04 #@! TO.N,/DC1+*
X30500000Y70650000D03*
G04 #@! TO.N,/DC2+*
X30500000Y73150000D03*
G04 #@! TD*
D10*
G04 #@! TO.N,+12V*
G04 #@! TO.C,F5*
X22850000Y60300000D03*
G04 #@! TO.N,/DC Drivers/DC2_PWR*
X22850000Y55400000D03*
G04 #@! TD*
G04 #@! TO.N,Net-(M3-PG_5VP)*
G04 #@! TO.C,R16*
X24045000Y2250000D03*
G04 #@! TO.N,/PG_5VP*
X27855000Y2250000D03*
G04 #@! TD*
G04 #@! TO.N,+12V*
G04 #@! TO.C,F4*
X20350000Y60300000D03*
G04 #@! TO.N,/DC Drivers/DC1_PWR*
X20350000Y55400000D03*
G04 #@! TD*
G04 #@! TO.N,+12V*
G04 #@! TO.C,F6*
X26350000Y60300000D03*
G04 #@! TO.N,/IN_VING*
X26350000Y55400000D03*
G04 #@! TD*
D12*
G04 #@! TO.N,unconnected-(M2-NC-PadE1)*
G04 #@! TO.C,M2*
X12012500Y31150000D03*
G04 #@! TO.N,unconnected-(M2-NC-PadE2)*
X12012500Y32350000D03*
G04 #@! TO.N,/VR_MAX9924*
X12012500Y29950000D03*
G04 #@! TO.N,+5VA*
X12012500Y28750000D03*
D26*
G04 #@! TO.N,GND*
X26662500Y31417500D03*
D27*
X26662500Y37467500D03*
D28*
X19650000Y28450000D03*
D29*
X19237500Y37900000D03*
D30*
X11812500Y35437500D03*
D12*
G04 #@! TO.N,/VR-*
X26437500Y35210000D03*
G04 #@! TO.N,/VR+*
X26437500Y36210000D03*
G04 #@! TD*
D31*
G04 #@! TO.N,Net-(D3-K)*
G04 #@! TO.C,M3*
X27924995Y23674999D03*
G04 #@! TO.N,unconnected-(M3-V12-PadE2)*
X27924995Y17275002D03*
G04 #@! TO.N,Net-(M1-IN_VIGN_(PA5))*
X27924995Y15374999D03*
G04 #@! TO.N,+5V*
X27924995Y11074999D03*
D12*
G04 #@! TO.N,/EN_5VP*
X28374994Y8675002D03*
G04 #@! TO.N,Net-(M3-PG_5VP)*
X28374994Y7675001D03*
D32*
G04 #@! TO.N,GND*
X11774999Y19824999D03*
D33*
X11774999Y11325001D03*
D34*
X11774999Y4224999D03*
D35*
X20174997Y4174999D03*
D36*
X20974998Y24774999D03*
D31*
X27924995Y4824999D03*
D34*
X28574996Y24724999D03*
D37*
X28574996Y20525001D03*
D38*
X28574996Y13174999D03*
D39*
X28574996Y9675002D03*
D40*
X28574996Y6375001D03*
D31*
G04 #@! TO.N,+12V_RAW*
X12424998Y24125001D03*
G04 #@! TO.N,/IN_VING*
X12424998Y22275002D03*
G04 #@! TO.N,+12V_RAW*
X12424998Y17324999D03*
G04 #@! TO.N,+5VP*
X12424998Y5275001D03*
G04 #@! TD*
D41*
G04 #@! TO.N,Net-(BT1-+)*
X33350000Y41250000D03*
X24850000Y26150000D03*
G04 #@! TO.N,GND*
X38750000Y42050000D03*
X24150000Y62650000D03*
X32650000Y18550000D03*
X26450000Y65750000D03*
X13550000Y61750000D03*
X32350000Y27250000D03*
X61650000Y59650000D03*
X11050000Y20350000D03*
X65050000Y56050000D03*
X26750000Y70450000D03*
X11250000Y61650000D03*
X18350000Y42950000D03*
X14750000Y60550000D03*
X72150000Y28550000D03*
X27650000Y65750000D03*
X26550000Y66850000D03*
X16450000Y3350000D03*
X10550000Y41450000D03*
X43950000Y63050000D03*
X46850000Y3350000D03*
X63950000Y57150000D03*
X41650000Y3350000D03*
X43350000Y46850000D03*
X35350000Y75650000D03*
X14450000Y25450000D03*
X47050000Y43550000D03*
X16450000Y50050000D03*
X52550000Y60850000D03*
X11150000Y7850000D03*
X76550000Y25650000D03*
X35950000Y71850000D03*
X69750000Y34950000D03*
X18750000Y25550000D03*
X14750000Y64050000D03*
X65450000Y45350000D03*
X18950000Y64050000D03*
X32650000Y13850000D03*
X69750000Y36650000D03*
X53650000Y43750000D03*
X57850000Y70050000D03*
X29250000Y20750000D03*
X76550000Y27050000D03*
X37450000Y43150000D03*
X13550000Y60550000D03*
X2150000Y46250000D03*
X52350000Y69850000D03*
X68850000Y58750000D03*
X76550000Y32750000D03*
X63950000Y3350000D03*
X55450000Y66550000D03*
X60250000Y3350000D03*
X14750000Y61750000D03*
X33050000Y75650000D03*
X20050000Y45550000D03*
X32650000Y16450000D03*
X45950000Y46850000D03*
X34250000Y75650000D03*
X32250000Y24150000D03*
X39050000Y38550000D03*
X14850000Y3350000D03*
X11950000Y41450000D03*
X4650000Y50850000D03*
X48250000Y51350000D03*
X64050000Y64450000D03*
X29350000Y13650000D03*
X11050000Y11350000D03*
X76550000Y29950000D03*
X1350000Y63250000D03*
X23450000Y25550000D03*
X6150000Y60550000D03*
X60550000Y60850000D03*
X61150000Y38550000D03*
X2950000Y60150000D03*
X54250000Y51350000D03*
X72150000Y22450000D03*
X10450000Y15850000D03*
X22750000Y62650000D03*
X76550000Y31350000D03*
X58250000Y3350000D03*
X51850000Y46850000D03*
X6950000Y38950000D03*
X46450000Y63250000D03*
X20950000Y25550000D03*
X59450000Y38550000D03*
X29850000Y63450000D03*
X12750000Y50050000D03*
X25350000Y66950000D03*
X27750000Y66950000D03*
X16750000Y67550000D03*
X10750000Y50050000D03*
X21250000Y62650000D03*
X15850000Y60550000D03*
X6050000Y39650000D03*
X5250000Y40350000D03*
X48950000Y46450000D03*
X63550000Y46950000D03*
X16850000Y60550000D03*
X34150000Y62450000D03*
X3150000Y42550000D03*
X62050000Y3350000D03*
X19350000Y3350000D03*
X10250000Y61650000D03*
X62950000Y58350000D03*
X32450000Y7650000D03*
X62750000Y65850000D03*
X25450000Y65850000D03*
X39950000Y57850000D03*
X26750000Y69350000D03*
X8750000Y50050000D03*
X10150000Y60550000D03*
X44850000Y38950000D03*
X13350000Y41450000D03*
X28950000Y62550000D03*
X13250000Y64050000D03*
X13450000Y3350000D03*
X76550000Y28450000D03*
X14850000Y41450000D03*
X16850000Y25550000D03*
X35650000Y3350000D03*
X68150000Y3350000D03*
X4550000Y41050000D03*
X52250000Y67250000D03*
X36450000Y75650000D03*
X43050000Y42850000D03*
X66550000Y61450000D03*
X42550000Y51250000D03*
X12450000Y61750000D03*
X15650000Y66550000D03*
X11250000Y60550000D03*
X67950000Y38550000D03*
X29950000Y50350000D03*
X26750000Y38750000D03*
X49850000Y43650000D03*
X2250000Y2150000D03*
X63650000Y43050000D03*
X28350000Y69250000D03*
X15950000Y61650000D03*
X17950000Y3350000D03*
X45050000Y51350000D03*
X32550000Y9650000D03*
X12450000Y60550000D03*
X69750000Y33050000D03*
X16950000Y61750000D03*
X21150000Y3350000D03*
X39950000Y56250000D03*
X50950000Y51350000D03*
X37750000Y63450000D03*
X16150000Y64050000D03*
X51450000Y62950000D03*
X56050000Y3350000D03*
X30450000Y75650000D03*
X9150000Y60450000D03*
X4950000Y46150000D03*
X65450000Y62650000D03*
X27650000Y52850000D03*
X34150000Y63550000D03*
X14550000Y65450000D03*
X37650000Y38550000D03*
X3850000Y41750000D03*
X32550000Y5950000D03*
X37850000Y75650000D03*
X17550000Y64050000D03*
X28350000Y70450000D03*
X44050000Y42150000D03*
X31850000Y75650000D03*
G04 #@! TO.N,/DC1-*
X4750000Y56750000D03*
X18550000Y61750000D03*
G04 #@! TO.N,/DC2-*
X19150000Y53250000D03*
X4650000Y47550000D03*
G04 #@! TO.N,+3.3VA*
X51050000Y39250000D03*
X56850000Y39750000D03*
X32250000Y30950000D03*
G04 #@! TO.N,+12V_RAW*
X31250000Y54850000D03*
X34050000Y53950000D03*
X58050000Y55850000D03*
G04 #@! TO.N,/OUT_3*
X31350000Y60550000D03*
G04 #@! TO.N,/IGN1_IN*
X63850000Y38850000D03*
G04 #@! TO.N,/IGN2_IN*
X65050000Y38850000D03*
G04 #@! TO.N,/IGN3_IN*
X66250000Y38850000D03*
G04 #@! TO.N,+12V*
X72300000Y26325000D03*
G04 #@! TO.N,+3.3V*
X2750000Y55250000D03*
X18150000Y44750000D03*
X2550000Y43750000D03*
X61550000Y43450000D03*
X17950000Y54050000D03*
X3729657Y4029657D03*
G04 #@! TO.N,/DC1_DIS*
X3050000Y51950000D03*
X24950000Y39150000D03*
X3450000Y46150000D03*
G04 #@! TO.N,/DC1_PWM*
X4950000Y52950000D03*
X21955517Y51574757D03*
G04 #@! TO.N,/DC2_DIR*
X40809625Y40909625D03*
X51150000Y40850000D03*
G04 #@! TO.N,/IN_IAT*
X58109620Y74709620D03*
G04 #@! TO.N,/IN_CLT*
X57050826Y75768414D03*
G04 #@! TO.N,/IN_MAP*
X54284926Y76484926D03*
G04 #@! TO.N,/IN_TPS*
X55650000Y76250000D03*
G04 #@! TO.N,/IN_AUX1*
X52925306Y76925306D03*
G04 #@! TO.N,/IN_AUX2*
X51615686Y77315686D03*
G04 #@! TO.N,/IN_D3*
X45150000Y75550000D03*
G04 #@! TO.N,+5VP*
X11850000Y25550000D03*
X8450000Y18250000D03*
X32150000Y49963173D03*
X29100000Y32450000D03*
X32950000Y46650000D03*
G04 #@! TO.N,/CAN-H*
X38950000Y59350000D03*
G04 #@! TO.N,/LS2*
X40050000Y46050000D03*
X39750000Y43150000D03*
G04 #@! TO.N,/PG_5VP*
X30250000Y12150000D03*
X30350000Y9150000D03*
G04 #@! TO.N,/DC Drivers/DC1_PWR*
X18950000Y56050000D03*
X17750000Y56050000D03*
G04 #@! TO.N,/DC Drivers/DC2_PWR*
X17950000Y46850000D03*
X20450000Y48450000D03*
X19650000Y47650000D03*
X18850000Y46850000D03*
G04 #@! TD*
D42*
G04 #@! TO.N,GND*
X44850000Y38450010D02*
X45450000Y37850010D01*
X44850000Y38950000D02*
X44850000Y38450010D01*
D43*
G04 #@! TO.N,+3.3VA*
X51050000Y39250000D02*
X51350000Y38950000D01*
X32250000Y30950000D02*
X30850000Y29550000D01*
X56850000Y38450000D02*
X56850000Y39750000D01*
X51350000Y38950000D02*
X52615686Y38950000D01*
X52615686Y38950000D02*
X53115686Y38450000D01*
X30850000Y22850000D02*
X33549990Y22850000D01*
X30850000Y29550000D02*
X30850000Y22850000D01*
X53115686Y38450000D02*
X56850000Y38450000D01*
D44*
G04 #@! TO.N,+12V_RAW*
X9750000Y23550000D02*
X9750000Y18939337D01*
X9750000Y18939337D02*
X11364338Y17324999D01*
X12424998Y24125001D02*
X10325001Y24125001D01*
X11364338Y17324999D02*
X12424998Y17324999D01*
X34050000Y53950000D02*
X33150000Y54850000D01*
X10325001Y24125001D02*
X9750000Y23550000D01*
X33150000Y54850000D02*
X31250000Y54850000D01*
D43*
G04 #@! TO.N,Net-(D3-K)*
X31750000Y21250000D02*
X33549990Y21250000D01*
X29325001Y23674999D02*
X31750000Y21250000D01*
X27924995Y23674999D02*
X29325001Y23674999D01*
D45*
G04 #@! TO.N,/DC1_DIS*
X24950000Y39150000D02*
X25550000Y39750000D01*
X25550000Y39750000D02*
X49630761Y39750000D01*
X52450000Y38550000D02*
X53349990Y37650010D01*
X50830761Y38550000D02*
X52450000Y38550000D01*
X49630761Y39750000D02*
X50830761Y38550000D01*
G04 #@! TO.N,/DC1_PWM*
X21955517Y51574757D02*
X21480274Y52050000D01*
X4950000Y52050000D02*
X4950000Y52950000D01*
X21480274Y52050000D02*
X4950000Y52050000D01*
D44*
G04 #@! TO.N,GNDA*
X58149990Y37650010D02*
X58149990Y54618639D01*
X54050000Y73750000D02*
X51050000Y76750000D01*
X54050000Y58718629D02*
X54050000Y73750000D01*
X41650000Y76750000D02*
X40200000Y75300000D01*
X51050000Y76750000D02*
X41650000Y76750000D01*
X40200000Y75300000D02*
X40200000Y73150000D01*
X58149990Y54618639D02*
X54050000Y58718629D01*
G04 #@! TO.N,+5VP*
X32950000Y49163173D02*
X32950000Y46650000D01*
X32150000Y49963173D02*
X32950000Y49163173D01*
G04 #@! TO.N,+5V*
X27924995Y11074999D02*
X32374999Y11074999D01*
X32950010Y11650010D02*
X33550000Y11650010D01*
X32374999Y11074999D02*
X32950010Y11650010D01*
G04 #@! TD*
G04 #@! TA.AperFunction,Conductor*
G04 #@! TO.N,GND*
G36*
X29197002Y23305592D02*
G01*
X29208815Y23295503D01*
X31534787Y20969531D01*
X31534789Y20969530D01*
X31534790Y20969529D01*
X31534791Y20969528D01*
X31614708Y20923388D01*
X31614706Y20923388D01*
X31614710Y20923387D01*
X31614712Y20923386D01*
X31703856Y20899500D01*
X33060458Y20899500D01*
X33118649Y20880593D01*
X33154613Y20831093D01*
X33154613Y20769907D01*
X33135279Y20735671D01*
X33134327Y20734572D01*
X33124622Y20723372D01*
X33064834Y20592457D01*
X33044353Y20450003D01*
X33044353Y20449998D01*
X33064834Y20307544D01*
X33124623Y20176627D01*
X33178169Y20114830D01*
X33201986Y20058471D01*
X33188127Y19998876D01*
X33178169Y19985170D01*
X33124623Y19923374D01*
X33064834Y19792457D01*
X33044353Y19650003D01*
X33044353Y19649998D01*
X33064834Y19507544D01*
X33074123Y19487205D01*
X33124623Y19376627D01*
X33170759Y19323383D01*
X33218873Y19267856D01*
X33304513Y19212819D01*
X33343244Y19165453D01*
X33349990Y19129535D01*
X33349990Y15870466D01*
X33331083Y15812275D01*
X33304514Y15787182D01*
X33218872Y15732143D01*
X33124622Y15623372D01*
X33064834Y15492457D01*
X33044353Y15350003D01*
X33044353Y15349998D01*
X33064834Y15207544D01*
X33078949Y15176637D01*
X33124623Y15076627D01*
X33218872Y14967857D01*
X33218873Y14967856D01*
X33304513Y14912819D01*
X33343244Y14865453D01*
X33349990Y14829535D01*
X33349990Y13170466D01*
X33331083Y13112275D01*
X33304514Y13087182D01*
X33218872Y13032143D01*
X33124622Y12923372D01*
X33064834Y12792457D01*
X33044353Y12650003D01*
X33044353Y12649998D01*
X33064834Y12507544D01*
X33124622Y12376629D01*
X33124623Y12376627D01*
X33202107Y12287205D01*
X33221919Y12264341D01*
X33245736Y12207981D01*
X33231877Y12148386D01*
X33185636Y12108319D01*
X33147099Y12100510D01*
X32890701Y12100510D01*
X32833412Y12085160D01*
X32776122Y12069809D01*
X32732706Y12044744D01*
X32732707Y12044743D01*
X32673397Y12010501D01*
X32217391Y11554495D01*
X32162875Y11526718D01*
X32147388Y11525499D01*
X30714209Y11525499D01*
X30656018Y11544406D01*
X30620054Y11593906D01*
X30620054Y11655092D01*
X30653942Y11703041D01*
X30662239Y11709408D01*
X30678282Y11721718D01*
X30774536Y11847159D01*
X30835044Y11993238D01*
X30855682Y12150000D01*
X30835044Y12306762D01*
X30774537Y12452839D01*
X30774537Y12452840D01*
X30678286Y12578277D01*
X30678285Y12578278D01*
X30678282Y12578282D01*
X30678277Y12578286D01*
X30678276Y12578287D01*
X30596757Y12640838D01*
X30552841Y12674536D01*
X30552840Y12674537D01*
X30552838Y12674538D01*
X30406766Y12735043D01*
X30406758Y12735045D01*
X30250001Y12755682D01*
X30249999Y12755682D01*
X30093241Y12735045D01*
X30093233Y12735043D01*
X29947161Y12674538D01*
X29947160Y12674538D01*
X29821723Y12578287D01*
X29821713Y12578277D01*
X29725462Y12452840D01*
X29725462Y12452839D01*
X29664957Y12306767D01*
X29664955Y12306759D01*
X29644318Y12150001D01*
X29644318Y12150000D01*
X29664955Y11993242D01*
X29664957Y11993234D01*
X29725462Y11847162D01*
X29725462Y11847161D01*
X29753332Y11810840D01*
X29821718Y11721718D01*
X29821722Y11721715D01*
X29821723Y11721714D01*
X29846058Y11703041D01*
X29880714Y11652616D01*
X29879112Y11591452D01*
X29841865Y11542910D01*
X29785791Y11525499D01*
X28821297Y11525499D01*
X28763106Y11544406D01*
X28733987Y11577831D01*
X28719135Y11605617D01*
X28719133Y11605619D01*
X28719131Y11605624D01*
X28600352Y11750356D01*
X28597474Y11753863D01*
X28575174Y11810840D01*
X28575002Y11816668D01*
X28575002Y14633331D01*
X28593909Y14691522D01*
X28597474Y14696136D01*
X28600349Y14699641D01*
X28600352Y14699642D01*
X28719131Y14844374D01*
X28807391Y15009498D01*
X28861742Y15188668D01*
X28863602Y15207544D01*
X28880094Y15374995D01*
X28880094Y15375004D01*
X28861743Y15561325D01*
X28861742Y15561328D01*
X28861742Y15561330D01*
X28807391Y15740500D01*
X28719131Y15905624D01*
X28600352Y16050356D01*
X28597474Y16053863D01*
X28575174Y16110840D01*
X28575002Y16116668D01*
X28575002Y16533334D01*
X28593909Y16591525D01*
X28597474Y16596139D01*
X28600349Y16599644D01*
X28600352Y16599645D01*
X28719131Y16744377D01*
X28807391Y16909501D01*
X28861742Y17088671D01*
X28864131Y17112918D01*
X28880094Y17274998D01*
X28880094Y17275007D01*
X28861743Y17461328D01*
X28861742Y17461331D01*
X28861742Y17461333D01*
X28807391Y17640503D01*
X28794320Y17664958D01*
X28719135Y17805620D01*
X28719133Y17805622D01*
X28719131Y17805627D01*
X28600352Y17950359D01*
X28597474Y17953866D01*
X28575174Y18010843D01*
X28575002Y18016671D01*
X28575002Y22933331D01*
X28593909Y22991522D01*
X28597474Y22996136D01*
X28600349Y22999641D01*
X28600352Y22999642D01*
X28719131Y23144374D01*
X28759237Y23219407D01*
X28787438Y23272167D01*
X28831543Y23314574D01*
X28874748Y23324499D01*
X29138811Y23324499D01*
X29197002Y23305592D01*
G37*
G04 #@! TD.AperFunction*
G04 #@! TA.AperFunction,Conductor*
G36*
X11586887Y23655594D02*
G01*
X11616006Y23622169D01*
X11630857Y23594384D01*
X11630860Y23594379D01*
X11630862Y23594376D01*
X11734686Y23467867D01*
X11752527Y23446128D01*
X11774827Y23389151D01*
X11774999Y23383323D01*
X11774999Y23016682D01*
X11756092Y22958491D01*
X11752527Y22953877D01*
X11630861Y22805626D01*
X11630857Y22805620D01*
X11542604Y22640509D01*
X11542603Y22640507D01*
X11488250Y22461331D01*
X11488249Y22461328D01*
X11469899Y22275007D01*
X11469899Y22274998D01*
X11488249Y22088677D01*
X11488250Y22088674D01*
X11488251Y22088671D01*
X11541565Y21912918D01*
X11542603Y21909498D01*
X11542604Y21909496D01*
X11630857Y21744385D01*
X11630860Y21744380D01*
X11630862Y21744377D01*
X11749641Y21599645D01*
X11752527Y21596129D01*
X11774827Y21539152D01*
X11774999Y21533324D01*
X11774999Y18066679D01*
X11756092Y18008488D01*
X11752527Y18003874D01*
X11628016Y17852156D01*
X11576485Y17819169D01*
X11515406Y17822771D01*
X11481484Y17844957D01*
X10229496Y19096945D01*
X10201719Y19151462D01*
X10200500Y19166949D01*
X10200500Y23322389D01*
X10219407Y23380580D01*
X10229496Y23392393D01*
X10482608Y23645505D01*
X10537125Y23673282D01*
X10552612Y23674501D01*
X11528696Y23674501D01*
X11586887Y23655594D01*
G37*
G04 #@! TD.AperFunction*
G04 #@! TA.AperFunction,Conductor*
G36*
X77352777Y80149345D02*
G01*
X77657898Y80132209D01*
X77668921Y80130967D01*
X77967476Y80080241D01*
X77978270Y80077778D01*
X78269279Y79993939D01*
X78279750Y79990275D01*
X78559523Y79874389D01*
X78569525Y79869572D01*
X78834555Y79723095D01*
X78843955Y79717189D01*
X79090930Y79541951D01*
X79099610Y79535028D01*
X79325399Y79333250D01*
X79333249Y79325400D01*
X79535027Y79099611D01*
X79541950Y79090931D01*
X79717188Y78843956D01*
X79723094Y78834556D01*
X79869571Y78569526D01*
X79874388Y78559524D01*
X79990272Y78279755D01*
X79993939Y78269276D01*
X80077773Y77978286D01*
X80080243Y77967462D01*
X80130965Y77668927D01*
X80132208Y77657895D01*
X80143893Y77449844D01*
X80149298Y77353588D01*
X80149344Y77352778D01*
X80149500Y77347227D01*
X80149500Y3352774D01*
X80149344Y3347223D01*
X80132208Y3042106D01*
X80130965Y3031074D01*
X80080243Y2732539D01*
X80077773Y2721715D01*
X79993939Y2430725D01*
X79990272Y2420246D01*
X79874388Y2140477D01*
X79869571Y2130475D01*
X79723094Y1865445D01*
X79717188Y1856045D01*
X79541950Y1609070D01*
X79535027Y1600390D01*
X79333249Y1374601D01*
X79325399Y1366751D01*
X79099610Y1164973D01*
X79090930Y1158050D01*
X78843955Y982812D01*
X78834555Y976906D01*
X78569525Y830429D01*
X78559523Y825612D01*
X78279754Y709728D01*
X78269275Y706061D01*
X77978285Y622227D01*
X77967461Y619757D01*
X77668926Y569035D01*
X77657894Y567792D01*
X77352778Y550656D01*
X77347227Y550500D01*
X3352773Y550500D01*
X3347222Y550656D01*
X3042105Y567792D01*
X3031073Y569035D01*
X2732538Y619757D01*
X2721716Y622227D01*
X2647239Y643683D01*
X2430724Y706061D01*
X2420245Y709728D01*
X2140476Y825612D01*
X2130474Y830429D01*
X1865444Y976906D01*
X1856044Y982812D01*
X1609069Y1158050D01*
X1600389Y1164973D01*
X1374600Y1366751D01*
X1366750Y1374601D01*
X1164972Y1600390D01*
X1158049Y1609070D01*
X982811Y1856045D01*
X976905Y1865445D01*
X830428Y2130475D01*
X825611Y2140477D01*
X780245Y2250000D01*
X780243Y2250004D01*
X23077843Y2250004D01*
X23077843Y2249997D01*
X23096425Y2061322D01*
X23096426Y2061317D01*
X23151463Y1879885D01*
X23151465Y1879880D01*
X23219797Y1752041D01*
X23240838Y1712676D01*
X23361117Y1566117D01*
X23507676Y1445838D01*
X23674885Y1356463D01*
X23801280Y1318123D01*
X23856316Y1301427D01*
X23856321Y1301426D01*
X24044997Y1282843D01*
X24045000Y1282843D01*
X24045003Y1282843D01*
X24233678Y1301426D01*
X24233683Y1301427D01*
X24415115Y1356463D01*
X24582324Y1445838D01*
X24728883Y1566117D01*
X24849162Y1712676D01*
X24938537Y1879885D01*
X24993573Y2061317D01*
X24993574Y2061322D01*
X25012157Y2249997D01*
X25012157Y2250004D01*
X26887843Y2250004D01*
X26887843Y2249997D01*
X26906425Y2061322D01*
X26906426Y2061317D01*
X26961463Y1879885D01*
X26961465Y1879880D01*
X27029797Y1752041D01*
X27050838Y1712676D01*
X27171117Y1566117D01*
X27317676Y1445838D01*
X27484885Y1356463D01*
X27611280Y1318123D01*
X27666316Y1301427D01*
X27666321Y1301426D01*
X27854997Y1282843D01*
X27855000Y1282843D01*
X27855003Y1282843D01*
X28043678Y1301426D01*
X28043683Y1301427D01*
X28225115Y1356463D01*
X28392324Y1445838D01*
X28538883Y1566117D01*
X28659162Y1712676D01*
X28748537Y1879885D01*
X28803573Y2061317D01*
X28803574Y2061322D01*
X28822157Y2249997D01*
X28822157Y2250004D01*
X28803574Y2438679D01*
X28803573Y2438684D01*
X28778750Y2520513D01*
X28748537Y2620115D01*
X28659162Y2787324D01*
X28538883Y2933883D01*
X28392324Y3054162D01*
X28352959Y3075203D01*
X28225120Y3143535D01*
X28225115Y3143537D01*
X28043683Y3198574D01*
X28043678Y3198575D01*
X27855003Y3217157D01*
X27854997Y3217157D01*
X27666321Y3198575D01*
X27666316Y3198574D01*
X27484884Y3143537D01*
X27484879Y3143535D01*
X27317681Y3054165D01*
X27317671Y3054159D01*
X27171121Y2933887D01*
X27171113Y2933879D01*
X27050841Y2787329D01*
X27050835Y2787319D01*
X26961465Y2620121D01*
X26961463Y2620116D01*
X26906426Y2438684D01*
X26906425Y2438679D01*
X26887843Y2250004D01*
X25012157Y2250004D01*
X24993574Y2438679D01*
X24993573Y2438684D01*
X24968750Y2520513D01*
X24938537Y2620115D01*
X24849162Y2787324D01*
X24728883Y2933883D01*
X24582324Y3054162D01*
X24542959Y3075203D01*
X24415120Y3143535D01*
X24415115Y3143537D01*
X24233683Y3198574D01*
X24233678Y3198575D01*
X24045003Y3217157D01*
X24044997Y3217157D01*
X23856321Y3198575D01*
X23856316Y3198574D01*
X23674884Y3143537D01*
X23674879Y3143535D01*
X23507681Y3054165D01*
X23507671Y3054159D01*
X23361121Y2933887D01*
X23361113Y2933879D01*
X23240841Y2787329D01*
X23240835Y2787319D01*
X23151465Y2620121D01*
X23151463Y2620116D01*
X23096426Y2438684D01*
X23096425Y2438679D01*
X23077843Y2250004D01*
X780243Y2250004D01*
X709725Y2420250D01*
X706060Y2430725D01*
X622222Y2721730D01*
X619759Y2732524D01*
X569033Y3031079D01*
X567791Y3042106D01*
X550656Y3347223D01*
X550500Y3352774D01*
X550500Y4029658D01*
X3123975Y4029658D01*
X3123975Y4029657D01*
X3144612Y3872899D01*
X3144614Y3872891D01*
X3205119Y3726819D01*
X3205119Y3726818D01*
X3205121Y3726816D01*
X3301375Y3601375D01*
X3426816Y3505121D01*
X3572895Y3444613D01*
X3690466Y3429135D01*
X3729656Y3423975D01*
X3729657Y3423975D01*
X3729658Y3423975D01*
X3761009Y3428103D01*
X3886419Y3444613D01*
X4032498Y3505121D01*
X4157939Y3601375D01*
X4254193Y3726816D01*
X4314701Y3872895D01*
X4335339Y4029657D01*
X4334345Y4037204D01*
X4314701Y4186416D01*
X4314701Y4186419D01*
X4280968Y4267857D01*
X4254194Y4332496D01*
X4254194Y4332497D01*
X4157943Y4457934D01*
X4157942Y4457935D01*
X4157939Y4457939D01*
X4157934Y4457943D01*
X4157933Y4457944D01*
X4072665Y4523372D01*
X4032498Y4554193D01*
X4032497Y4554194D01*
X4032495Y4554195D01*
X3886423Y4614700D01*
X3886415Y4614702D01*
X3729658Y4635339D01*
X3729656Y4635339D01*
X3572898Y4614702D01*
X3572890Y4614700D01*
X3426818Y4554195D01*
X3426817Y4554195D01*
X3301380Y4457944D01*
X3301370Y4457934D01*
X3205119Y4332497D01*
X3205119Y4332496D01*
X3144614Y4186424D01*
X3144612Y4186416D01*
X3123975Y4029658D01*
X550500Y4029658D01*
X550500Y11250005D01*
X2344457Y11250005D01*
X2344457Y11249996D01*
X2364611Y10891103D01*
X2364614Y10891083D01*
X2424824Y10536713D01*
X2424828Y10536693D01*
X2524340Y10191277D01*
X2661907Y9859163D01*
X2835787Y9544551D01*
X2835789Y9544548D01*
X3043806Y9251377D01*
X3283339Y8983339D01*
X3551377Y8743806D01*
X3551380Y8743804D01*
X3551381Y8743803D01*
X3594923Y8712908D01*
X3844548Y8535789D01*
X3844550Y8535788D01*
X4159163Y8361908D01*
X4159162Y8361908D01*
X4491276Y8224341D01*
X4836692Y8124829D01*
X4836695Y8124829D01*
X4836700Y8124827D01*
X5191093Y8064613D01*
X5191096Y8064613D01*
X5191102Y8064612D01*
X5549995Y8044457D01*
X5550000Y8044457D01*
X5550005Y8044457D01*
X5908897Y8064612D01*
X5908901Y8064613D01*
X5908907Y8064613D01*
X6263300Y8124827D01*
X6608724Y8224341D01*
X6940833Y8361906D01*
X7255452Y8535789D01*
X7548623Y8743806D01*
X7816661Y8983339D01*
X8056194Y9251377D01*
X8264211Y9544548D01*
X8395917Y9782855D01*
X8438092Y9859163D01*
X8438094Y9859167D01*
X8575659Y10191276D01*
X8675173Y10536700D01*
X8735387Y10891093D01*
X8737292Y10924998D01*
X8755543Y11249996D01*
X8755543Y11250005D01*
X8735388Y11608898D01*
X8735385Y11608918D01*
X8727960Y11652616D01*
X8675173Y11963300D01*
X8666549Y11993234D01*
X8575659Y12308724D01*
X8438092Y12640838D01*
X8264212Y12955450D01*
X8209795Y13032143D01*
X8056194Y13248623D01*
X7816661Y13516661D01*
X7548623Y13756194D01*
X7548620Y13756196D01*
X7548618Y13756198D01*
X7255449Y13964213D01*
X6940836Y14138093D01*
X6940837Y14138093D01*
X6608723Y14275660D01*
X6263307Y14375172D01*
X6263287Y14375176D01*
X5908917Y14435386D01*
X5908897Y14435389D01*
X5550005Y14455543D01*
X5549995Y14455543D01*
X5191102Y14435389D01*
X5191082Y14435386D01*
X4836712Y14375176D01*
X4836692Y14375172D01*
X4491276Y14275660D01*
X4159162Y14138093D01*
X3844550Y13964213D01*
X3551381Y13756198D01*
X3283346Y13516668D01*
X3283332Y13516654D01*
X3043802Y13248619D01*
X2835787Y12955450D01*
X2661907Y12640838D01*
X2524340Y12308724D01*
X2424828Y11963308D01*
X2424824Y11963288D01*
X2364614Y11608918D01*
X2364611Y11608898D01*
X2344457Y11250005D01*
X550500Y11250005D01*
X550500Y18250001D01*
X7844318Y18250001D01*
X7844318Y18250000D01*
X7864955Y18093242D01*
X7864957Y18093234D01*
X7925462Y17947162D01*
X7925462Y17947161D01*
X8000010Y17850008D01*
X8021718Y17821718D01*
X8021722Y17821715D01*
X8021723Y17821714D01*
X8042697Y17805620D01*
X8147159Y17725464D01*
X8293238Y17664956D01*
X8410809Y17649478D01*
X8449999Y17644318D01*
X8450000Y17644318D01*
X8450001Y17644318D01*
X8481352Y17648446D01*
X8606762Y17664956D01*
X8752841Y17725464D01*
X8878282Y17821718D01*
X8974536Y17947159D01*
X9035044Y18093238D01*
X9055682Y18250000D01*
X9035044Y18406762D01*
X8974537Y18552839D01*
X8974537Y18552840D01*
X8878286Y18678277D01*
X8878285Y18678278D01*
X8878282Y18678282D01*
X8878277Y18678286D01*
X8878276Y18678287D01*
X8752838Y18774538D01*
X8606766Y18835043D01*
X8606758Y18835045D01*
X8450001Y18855682D01*
X8449999Y18855682D01*
X8293241Y18835045D01*
X8293233Y18835043D01*
X8147161Y18774538D01*
X8147160Y18774538D01*
X8021723Y18678287D01*
X8021713Y18678277D01*
X7925462Y18552840D01*
X7925462Y18552839D01*
X7864957Y18406767D01*
X7864955Y18406759D01*
X7844318Y18250001D01*
X550500Y18250001D01*
X550500Y23609309D01*
X9299500Y23609309D01*
X9299500Y18880028D01*
X9323713Y18789664D01*
X9323712Y18789664D01*
X9330200Y18765451D01*
X9330202Y18765447D01*
X9389507Y18662728D01*
X9389508Y18662727D01*
X9389509Y18662726D01*
X9389511Y18662723D01*
X11087724Y16964509D01*
X11190451Y16905200D01*
X11214658Y16898715D01*
X11214663Y16898712D01*
X11214664Y16898713D01*
X11305026Y16874500D01*
X11305028Y16874499D01*
X11305029Y16874499D01*
X11528696Y16874499D01*
X11586887Y16855592D01*
X11616006Y16822167D01*
X11630857Y16794382D01*
X11630860Y16794377D01*
X11630862Y16794374D01*
X11671894Y16744377D01*
X11752527Y16646126D01*
X11774827Y16589149D01*
X11774999Y16583321D01*
X11774999Y6016681D01*
X11756092Y5958490D01*
X11752527Y5953876D01*
X11630861Y5805625D01*
X11630857Y5805619D01*
X11542604Y5640508D01*
X11542603Y5640506D01*
X11488250Y5461330D01*
X11488249Y5461327D01*
X11469899Y5275006D01*
X11469899Y5274997D01*
X11488249Y5088676D01*
X11488250Y5088673D01*
X11542603Y4909497D01*
X11542604Y4909495D01*
X11630857Y4744384D01*
X11630860Y4744379D01*
X11630862Y4744376D01*
X11737284Y4614701D01*
X11752527Y4596128D01*
X11774827Y4539151D01*
X11774999Y4533323D01*
X11774999Y4174999D01*
X11775000Y4174999D01*
X28575001Y4174999D01*
X28575002Y4174999D01*
X28575002Y7154535D01*
X28593909Y7212726D01*
X28620479Y7237819D01*
X28706120Y7292857D01*
X28706119Y7292857D01*
X28706122Y7292858D01*
X28800371Y7401628D01*
X28860159Y7532544D01*
X28880641Y7675001D01*
X28864435Y7787714D01*
X28860159Y7817458D01*
X28800371Y7948373D01*
X28800371Y7948374D01*
X28706122Y8057144D01*
X28652324Y8091718D01*
X28613593Y8139085D01*
X28610101Y8200170D01*
X28643180Y8251642D01*
X28652325Y8258286D01*
X28706120Y8292858D01*
X28706119Y8292858D01*
X28706122Y8292859D01*
X28800371Y8401629D01*
X28860159Y8532545D01*
X28866986Y8580031D01*
X28880641Y8675000D01*
X28880641Y8675005D01*
X28860159Y8817459D01*
X28846594Y8847162D01*
X28800371Y8948375D01*
X28706122Y9057145D01*
X28706121Y9057146D01*
X28620478Y9112186D01*
X28589557Y9150001D01*
X29744318Y9150001D01*
X29744318Y9150000D01*
X29764955Y8993242D01*
X29764957Y8993234D01*
X29825462Y8847162D01*
X29825462Y8847161D01*
X29911862Y8734562D01*
X29921718Y8721718D01*
X30047159Y8625464D01*
X30193238Y8564956D01*
X30310809Y8549478D01*
X30349999Y8544318D01*
X30350000Y8544318D01*
X30350001Y8544318D01*
X30381352Y8548446D01*
X30506762Y8564956D01*
X30652841Y8625464D01*
X30778282Y8721718D01*
X30874536Y8847159D01*
X30935044Y8993238D01*
X30955682Y9150000D01*
X30935044Y9306762D01*
X30935042Y9306767D01*
X30874537Y9452839D01*
X30874537Y9452840D01*
X30778286Y9578277D01*
X30778285Y9578278D01*
X30778282Y9578282D01*
X30778277Y9578286D01*
X30778276Y9578287D01*
X30652838Y9674538D01*
X30506766Y9735043D01*
X30506758Y9735045D01*
X30350001Y9755682D01*
X30349999Y9755682D01*
X30193241Y9735045D01*
X30193233Y9735043D01*
X30047161Y9674538D01*
X30047160Y9674538D01*
X29921723Y9578287D01*
X29921713Y9578277D01*
X29825462Y9452840D01*
X29825462Y9452839D01*
X29764957Y9306767D01*
X29764955Y9306759D01*
X29744318Y9150001D01*
X28589557Y9150001D01*
X28581747Y9159553D01*
X28575002Y9195470D01*
X28575002Y10333331D01*
X28593909Y10391522D01*
X28597474Y10396136D01*
X28600349Y10399641D01*
X28600352Y10399642D01*
X28719131Y10544374D01*
X28723943Y10553379D01*
X28733987Y10572167D01*
X28778092Y10614574D01*
X28821297Y10624499D01*
X32434308Y10624499D01*
X32524668Y10648712D01*
X32524671Y10648712D01*
X32537902Y10652258D01*
X32548886Y10655200D01*
X32651613Y10714510D01*
X32969246Y11032143D01*
X33107618Y11170514D01*
X33162134Y11198291D01*
X33177621Y11199510D01*
X33250990Y11199510D01*
X33309181Y11180603D01*
X33345145Y11131103D01*
X33349990Y11100510D01*
X33349990Y4770466D01*
X33331083Y4712275D01*
X33304514Y4687182D01*
X33218872Y4632143D01*
X33124622Y4523372D01*
X33064834Y4392457D01*
X33044353Y4250003D01*
X33044353Y4249998D01*
X33064834Y4107544D01*
X33112687Y4002762D01*
X33124623Y3976627D01*
X33214503Y3872899D01*
X33218873Y3867856D01*
X33218875Y3867855D01*
X33339947Y3790047D01*
X33446403Y3758789D01*
X33478035Y3749501D01*
X33478036Y3749501D01*
X33478039Y3749500D01*
X33478041Y3749500D01*
X33621959Y3749500D01*
X33621961Y3749500D01*
X33760053Y3790047D01*
X33881128Y3867857D01*
X33975377Y3976627D01*
X33982456Y3992127D01*
X34023829Y4037204D01*
X34072509Y4050000D01*
X37727491Y4050000D01*
X37785682Y4031093D01*
X37817544Y3992127D01*
X37824621Y3976629D01*
X37824819Y3976401D01*
X37907205Y3881321D01*
X37918873Y3867856D01*
X37918875Y3867855D01*
X38039947Y3790047D01*
X38146403Y3758789D01*
X38178035Y3749501D01*
X38178036Y3749501D01*
X38178039Y3749500D01*
X38178041Y3749500D01*
X38321959Y3749500D01*
X38321961Y3749500D01*
X38460053Y3790047D01*
X38581128Y3867857D01*
X38675377Y3976627D01*
X38682456Y3992127D01*
X38723829Y4037204D01*
X38772509Y4050000D01*
X39127481Y4050000D01*
X39185672Y4031093D01*
X39217534Y3992127D01*
X39224611Y3976629D01*
X39224809Y3976401D01*
X39307195Y3881321D01*
X39318863Y3867856D01*
X39318865Y3867855D01*
X39439937Y3790047D01*
X39546393Y3758789D01*
X39578025Y3749501D01*
X39578026Y3749501D01*
X39578029Y3749500D01*
X39578031Y3749500D01*
X39721949Y3749500D01*
X39721951Y3749500D01*
X39860043Y3790047D01*
X39981118Y3867857D01*
X40075367Y3976627D01*
X40082446Y3992127D01*
X40123819Y4037204D01*
X40172499Y4050000D01*
X43827491Y4050000D01*
X43885682Y4031093D01*
X43917544Y3992127D01*
X43924621Y3976629D01*
X43924819Y3976401D01*
X44007205Y3881321D01*
X44018873Y3867856D01*
X44018875Y3867855D01*
X44139947Y3790047D01*
X44246403Y3758789D01*
X44278035Y3749501D01*
X44278036Y3749501D01*
X44278039Y3749500D01*
X44278041Y3749500D01*
X44421959Y3749500D01*
X44421961Y3749500D01*
X44560053Y3790047D01*
X44681128Y3867857D01*
X44681136Y3867867D01*
X44685165Y3871356D01*
X44741523Y3895176D01*
X44801119Y3881321D01*
X44814835Y3871356D01*
X44818866Y3867863D01*
X44818872Y3867857D01*
X44939947Y3790047D01*
X45046403Y3758789D01*
X45078035Y3749501D01*
X45078036Y3749501D01*
X45078039Y3749500D01*
X45078041Y3749500D01*
X45221959Y3749500D01*
X45221961Y3749500D01*
X45360053Y3790047D01*
X45481128Y3867857D01*
X45575377Y3976627D01*
X45582456Y3992127D01*
X45623829Y4037204D01*
X45672509Y4050000D01*
X47227491Y4050000D01*
X47285682Y4031093D01*
X47317544Y3992127D01*
X47324621Y3976629D01*
X47324819Y3976401D01*
X47407205Y3881321D01*
X47418873Y3867856D01*
X47418875Y3867855D01*
X47539947Y3790047D01*
X47646403Y3758789D01*
X47678035Y3749501D01*
X47678036Y3749501D01*
X47678039Y3749500D01*
X47678041Y3749500D01*
X47821959Y3749500D01*
X47821961Y3749500D01*
X47960053Y3790047D01*
X48081128Y3867857D01*
X48175182Y3976403D01*
X48227576Y4007997D01*
X48288537Y4002762D01*
X48324816Y3976404D01*
X48414503Y3872899D01*
X48418873Y3867856D01*
X48418875Y3867855D01*
X48539947Y3790047D01*
X48646403Y3758789D01*
X48678035Y3749501D01*
X48678036Y3749501D01*
X48678039Y3749500D01*
X48678041Y3749500D01*
X48821959Y3749500D01*
X48821961Y3749500D01*
X48960053Y3790047D01*
X49081128Y3867857D01*
X49175182Y3976403D01*
X49227576Y4007997D01*
X49288537Y4002762D01*
X49324816Y3976404D01*
X49414503Y3872899D01*
X49418873Y3867856D01*
X49418875Y3867855D01*
X49539947Y3790047D01*
X49646403Y3758789D01*
X49678035Y3749501D01*
X49678036Y3749501D01*
X49678039Y3749500D01*
X49678041Y3749500D01*
X49821959Y3749500D01*
X49821961Y3749500D01*
X49960053Y3790047D01*
X50081128Y3867857D01*
X50175182Y3976403D01*
X50227576Y4007997D01*
X50288537Y4002762D01*
X50324816Y3976404D01*
X50414503Y3872899D01*
X50418873Y3867856D01*
X50418875Y3867855D01*
X50539947Y3790047D01*
X50646403Y3758789D01*
X50678035Y3749501D01*
X50678036Y3749501D01*
X50678039Y3749500D01*
X50678041Y3749500D01*
X50821959Y3749500D01*
X50821961Y3749500D01*
X50960053Y3790047D01*
X51081128Y3867857D01*
X51175182Y3976403D01*
X51227576Y4007997D01*
X51288537Y4002762D01*
X51324816Y3976404D01*
X51414503Y3872899D01*
X51418873Y3867856D01*
X51418875Y3867855D01*
X51539947Y3790047D01*
X51646403Y3758789D01*
X51678035Y3749501D01*
X51678036Y3749501D01*
X51678039Y3749500D01*
X51678041Y3749500D01*
X51821959Y3749500D01*
X51821961Y3749500D01*
X51960053Y3790047D01*
X52081128Y3867857D01*
X52175182Y3976403D01*
X52227576Y4007997D01*
X52288537Y4002762D01*
X52324816Y3976404D01*
X52414503Y3872899D01*
X52418873Y3867856D01*
X52418875Y3867855D01*
X52539947Y3790047D01*
X52646403Y3758789D01*
X52678035Y3749501D01*
X52678036Y3749501D01*
X52678039Y3749500D01*
X52678041Y3749500D01*
X52821959Y3749500D01*
X52821961Y3749500D01*
X52960053Y3790047D01*
X53081128Y3867857D01*
X53175177Y3976397D01*
X53227571Y4007991D01*
X53288532Y4002756D01*
X53324812Y3976397D01*
X53414493Y3872899D01*
X53418863Y3867856D01*
X53418865Y3867855D01*
X53539937Y3790047D01*
X53646393Y3758789D01*
X53678025Y3749501D01*
X53678026Y3749501D01*
X53678029Y3749500D01*
X53678031Y3749500D01*
X53821949Y3749500D01*
X53821951Y3749500D01*
X53960043Y3790047D01*
X54081118Y3867857D01*
X54175177Y3976409D01*
X54227571Y4008003D01*
X54288532Y4002768D01*
X54324811Y3976410D01*
X54414503Y3872899D01*
X54418873Y3867856D01*
X54418875Y3867855D01*
X54539947Y3790047D01*
X54646403Y3758789D01*
X54678035Y3749501D01*
X54678036Y3749501D01*
X54678039Y3749500D01*
X54678041Y3749500D01*
X54821959Y3749500D01*
X54821961Y3749500D01*
X54960053Y3790047D01*
X55081128Y3867857D01*
X55175377Y3976627D01*
X55182456Y3992127D01*
X55223829Y4037204D01*
X55272509Y4050000D01*
X64927481Y4050000D01*
X64985672Y4031093D01*
X65017534Y3992127D01*
X65024611Y3976629D01*
X65024809Y3976401D01*
X65107195Y3881321D01*
X65118863Y3867856D01*
X65118865Y3867855D01*
X65239937Y3790047D01*
X65346393Y3758789D01*
X65378025Y3749501D01*
X65378026Y3749501D01*
X65378029Y3749500D01*
X65378031Y3749500D01*
X65521949Y3749500D01*
X65521951Y3749500D01*
X65660043Y3790047D01*
X65781118Y3867857D01*
X65875172Y3976403D01*
X65927566Y4007997D01*
X65988527Y4002762D01*
X66024806Y3976404D01*
X66114493Y3872899D01*
X66118863Y3867856D01*
X66118865Y3867855D01*
X66239937Y3790047D01*
X66346393Y3758789D01*
X66378025Y3749501D01*
X66378026Y3749501D01*
X66378029Y3749500D01*
X66378031Y3749500D01*
X66521949Y3749500D01*
X66521951Y3749500D01*
X66660043Y3790047D01*
X66781118Y3867857D01*
X66875367Y3976627D01*
X66882446Y3992127D01*
X66923819Y4037204D01*
X66972499Y4050000D01*
X69149989Y4050000D01*
X69149990Y4050000D01*
X69149990Y4129523D01*
X69168897Y4187714D01*
X69195460Y4212803D01*
X69281128Y4267857D01*
X69375377Y4376627D01*
X69435165Y4507543D01*
X69445415Y4578834D01*
X69455647Y4649998D01*
X69455647Y4650003D01*
X69435165Y4792457D01*
X69381714Y4909497D01*
X69375377Y4923373D01*
X69281128Y5032143D01*
X69232998Y5063074D01*
X69195466Y5087195D01*
X69156735Y5134562D01*
X69149990Y5170479D01*
X69149990Y6529523D01*
X69168897Y6587714D01*
X69195460Y6612803D01*
X69281128Y6667857D01*
X69375377Y6776627D01*
X69435165Y6907543D01*
X69455647Y7050000D01*
X69435165Y7192457D01*
X69375377Y7323373D01*
X69281128Y7432143D01*
X69232998Y7463074D01*
X69195466Y7487195D01*
X69156735Y7534562D01*
X69149990Y7570479D01*
X69149990Y7729523D01*
X69168897Y7787714D01*
X69195460Y7812803D01*
X69281128Y7867857D01*
X69375377Y7976627D01*
X69435165Y8107543D01*
X69455647Y8250000D01*
X69435165Y8392457D01*
X69375377Y8523373D01*
X69281128Y8632143D01*
X69214438Y8675002D01*
X69195466Y8687195D01*
X69156735Y8734562D01*
X69149990Y8770479D01*
X69149990Y8929523D01*
X69168897Y8987714D01*
X69195460Y9012803D01*
X69281128Y9067857D01*
X69375377Y9176627D01*
X69435165Y9307543D01*
X69455647Y9450000D01*
X69435165Y9592457D01*
X69375377Y9723373D01*
X69281128Y9832143D01*
X69232998Y9863074D01*
X69195466Y9887195D01*
X69156735Y9934562D01*
X69149990Y9970479D01*
X69149990Y10129523D01*
X69168897Y10187714D01*
X69195460Y10212803D01*
X69281128Y10267857D01*
X69375377Y10376627D01*
X69435165Y10507543D01*
X69444456Y10572167D01*
X69455647Y10649998D01*
X69455647Y10650003D01*
X69435165Y10792457D01*
X69375377Y10923373D01*
X69281128Y11032143D01*
X69232998Y11063074D01*
X69195466Y11087195D01*
X69156735Y11134562D01*
X69149990Y11170479D01*
X69149990Y11250005D01*
X71944457Y11250005D01*
X71944457Y11249996D01*
X71964611Y10891103D01*
X71964614Y10891083D01*
X72024824Y10536713D01*
X72024828Y10536693D01*
X72124340Y10191277D01*
X72261907Y9859163D01*
X72435787Y9544551D01*
X72435789Y9544548D01*
X72643806Y9251377D01*
X72883339Y8983339D01*
X73151377Y8743806D01*
X73151380Y8743804D01*
X73151381Y8743803D01*
X73194923Y8712908D01*
X73444548Y8535789D01*
X73444550Y8535788D01*
X73759163Y8361908D01*
X73759162Y8361908D01*
X74091276Y8224341D01*
X74436692Y8124829D01*
X74436695Y8124829D01*
X74436700Y8124827D01*
X74791093Y8064613D01*
X74791096Y8064613D01*
X74791102Y8064612D01*
X75149995Y8044457D01*
X75150000Y8044457D01*
X75150005Y8044457D01*
X75508897Y8064612D01*
X75508901Y8064613D01*
X75508907Y8064613D01*
X75863300Y8124827D01*
X76208724Y8224341D01*
X76540833Y8361906D01*
X76855452Y8535789D01*
X77148623Y8743806D01*
X77416661Y8983339D01*
X77656194Y9251377D01*
X77864211Y9544548D01*
X77995917Y9782855D01*
X78038092Y9859163D01*
X78038094Y9859167D01*
X78175659Y10191276D01*
X78275173Y10536700D01*
X78335387Y10891093D01*
X78337292Y10924998D01*
X78355543Y11249996D01*
X78355543Y11250005D01*
X78335388Y11608898D01*
X78335385Y11608918D01*
X78327960Y11652616D01*
X78275173Y11963300D01*
X78266549Y11993234D01*
X78175659Y12308724D01*
X78038092Y12640838D01*
X77864212Y12955450D01*
X77809795Y13032143D01*
X77656194Y13248623D01*
X77416661Y13516661D01*
X77148623Y13756194D01*
X77148620Y13756196D01*
X77148618Y13756198D01*
X76855449Y13964213D01*
X76540836Y14138093D01*
X76540837Y14138093D01*
X76208723Y14275660D01*
X75863307Y14375172D01*
X75863287Y14375176D01*
X75508917Y14435386D01*
X75508897Y14435389D01*
X75150005Y14455543D01*
X75149995Y14455543D01*
X74791102Y14435389D01*
X74791082Y14435386D01*
X74436712Y14375176D01*
X74436692Y14375172D01*
X74091276Y14275660D01*
X73759162Y14138093D01*
X73444550Y13964213D01*
X73151381Y13756198D01*
X72883346Y13516668D01*
X72883332Y13516654D01*
X72643802Y13248619D01*
X72435787Y12955450D01*
X72261907Y12640838D01*
X72124340Y12308724D01*
X72024828Y11963308D01*
X72024824Y11963288D01*
X71964614Y11608918D01*
X71964611Y11608898D01*
X71944457Y11250005D01*
X69149990Y11250005D01*
X69149990Y11329533D01*
X69168897Y11387724D01*
X69195460Y11412813D01*
X69281128Y11467867D01*
X69375377Y11576637D01*
X69435165Y11707553D01*
X69455237Y11847159D01*
X69455647Y11850008D01*
X69455647Y11850013D01*
X69435165Y11992467D01*
X69426929Y12010501D01*
X69375377Y12123383D01*
X69281128Y12232153D01*
X69231042Y12264341D01*
X69195466Y12287205D01*
X69156735Y12334572D01*
X69149990Y12370489D01*
X69149990Y12529533D01*
X69168897Y12587724D01*
X69195460Y12612813D01*
X69281128Y12667867D01*
X69375377Y12776637D01*
X69435165Y12907553D01*
X69453078Y13032143D01*
X69455647Y13050008D01*
X69455647Y13050013D01*
X69435165Y13192467D01*
X69375377Y13323382D01*
X69375377Y13323383D01*
X69281128Y13432153D01*
X69232998Y13463084D01*
X69195466Y13487205D01*
X69156735Y13534572D01*
X69149990Y13570489D01*
X69149990Y13729533D01*
X69168897Y13787724D01*
X69195460Y13812813D01*
X69281128Y13867867D01*
X69375377Y13976637D01*
X69435165Y14107553D01*
X69455647Y14250010D01*
X69451959Y14275659D01*
X69435165Y14392467D01*
X69375377Y14523382D01*
X69375377Y14523383D01*
X69281128Y14632153D01*
X69208485Y14678838D01*
X69195466Y14687205D01*
X69156735Y14734572D01*
X69149990Y14770489D01*
X69149990Y14929533D01*
X69168897Y14987724D01*
X69195460Y15012813D01*
X69281128Y15067867D01*
X69375377Y15176637D01*
X69435165Y15307553D01*
X69455647Y15450010D01*
X69439642Y15561325D01*
X69435165Y15592467D01*
X69421051Y15623372D01*
X69375377Y15723383D01*
X69281128Y15832153D01*
X69221512Y15870466D01*
X69195466Y15887205D01*
X69156735Y15934572D01*
X69149990Y15970489D01*
X69149990Y16129533D01*
X69168897Y16187724D01*
X69195460Y16212813D01*
X69281128Y16267867D01*
X69375377Y16376637D01*
X69435165Y16507553D01*
X69455647Y16650010D01*
X69435165Y16792467D01*
X69375377Y16923383D01*
X69281128Y17032153D01*
X69232998Y17063084D01*
X69195466Y17087205D01*
X69156735Y17134572D01*
X69149990Y17170489D01*
X69149990Y17329533D01*
X69168897Y17387724D01*
X69195460Y17412813D01*
X69281128Y17467867D01*
X69375377Y17576637D01*
X69435165Y17707553D01*
X69451731Y17822771D01*
X69455647Y17850008D01*
X69455647Y17850013D01*
X69435165Y17992467D01*
X69431562Y18000356D01*
X69375377Y18123383D01*
X69281128Y18232153D01*
X69232998Y18263084D01*
X69195466Y18287205D01*
X69156735Y18334572D01*
X69149990Y18370489D01*
X69149990Y18529533D01*
X69168897Y18587724D01*
X69195460Y18612813D01*
X69281128Y18667867D01*
X69375377Y18776637D01*
X69435165Y18907553D01*
X69455647Y19050010D01*
X69435165Y19192467D01*
X69375377Y19323383D01*
X69281128Y19432153D01*
X69232998Y19463084D01*
X69195466Y19487205D01*
X69156735Y19534572D01*
X69149990Y19570489D01*
X69149990Y19729533D01*
X69168897Y19787724D01*
X69195460Y19812813D01*
X69281128Y19867867D01*
X69375377Y19976637D01*
X69435165Y20107553D01*
X69455647Y20250010D01*
X69435165Y20392467D01*
X69375377Y20523383D01*
X69281128Y20632153D01*
X69232998Y20663084D01*
X69195466Y20687205D01*
X69156735Y20734572D01*
X69149990Y20770489D01*
X69149990Y20929533D01*
X69168897Y20987724D01*
X69195460Y21012813D01*
X69281128Y21067867D01*
X69375377Y21176637D01*
X69435165Y21307553D01*
X69455647Y21450010D01*
X69443668Y21533324D01*
X69435165Y21592467D01*
X69400735Y21667857D01*
X69375377Y21723383D01*
X69281128Y21832153D01*
X69232998Y21863084D01*
X69195466Y21887205D01*
X69156735Y21934572D01*
X69149990Y21970489D01*
X69149990Y22129533D01*
X69168897Y22187724D01*
X69195460Y22212813D01*
X69281128Y22267867D01*
X69375377Y22376637D01*
X69435165Y22507553D01*
X69455647Y22650010D01*
X69435165Y22792467D01*
X69375377Y22923383D01*
X69281128Y23032153D01*
X69232998Y23063084D01*
X69195466Y23087205D01*
X69156735Y23134572D01*
X69149990Y23170489D01*
X69149990Y23329533D01*
X69168897Y23387724D01*
X69195460Y23412813D01*
X69281128Y23467867D01*
X69375377Y23576637D01*
X69435165Y23707553D01*
X69455647Y23850010D01*
X69440484Y23955469D01*
X69435165Y23992467D01*
X69405019Y24058476D01*
X69375377Y24123383D01*
X69281128Y24232153D01*
X69232998Y24263084D01*
X69195466Y24287205D01*
X69156735Y24334572D01*
X69149990Y24370489D01*
X69149990Y24529533D01*
X69168897Y24587724D01*
X69195460Y24612813D01*
X69281128Y24667867D01*
X69375377Y24776637D01*
X69435165Y24907553D01*
X69455647Y25050010D01*
X69453959Y25061748D01*
X69435165Y25192467D01*
X69375377Y25323383D01*
X69281128Y25432153D01*
X69232998Y25463084D01*
X69195466Y25487205D01*
X69156735Y25534572D01*
X69149990Y25570489D01*
X69149990Y25729533D01*
X69168897Y25787724D01*
X69195460Y25812813D01*
X69281128Y25867867D01*
X69375377Y25976637D01*
X69435165Y26107553D01*
X69455647Y26250010D01*
X69447487Y26306762D01*
X69444865Y26325001D01*
X71694318Y26325001D01*
X71694318Y26325000D01*
X71714955Y26168242D01*
X71714957Y26168234D01*
X71775462Y26022162D01*
X71775462Y26022161D01*
X71871713Y25896724D01*
X71871718Y25896718D01*
X71997159Y25800464D01*
X71997160Y25800464D01*
X71997161Y25800463D01*
X72143233Y25739958D01*
X72143238Y25739956D01*
X72260809Y25724478D01*
X72299999Y25719318D01*
X72300000Y25719318D01*
X72300001Y25719318D01*
X72331352Y25723446D01*
X72456762Y25739956D01*
X72602841Y25800464D01*
X72728282Y25896718D01*
X72824536Y26022159D01*
X72885044Y26168238D01*
X72905682Y26325000D01*
X72885044Y26481762D01*
X72872145Y26512902D01*
X72824537Y26627839D01*
X72824537Y26627840D01*
X72728286Y26753277D01*
X72728285Y26753278D01*
X72728282Y26753282D01*
X72728277Y26753286D01*
X72728276Y26753287D01*
X72602838Y26849538D01*
X72456766Y26910043D01*
X72456758Y26910045D01*
X72300001Y26930682D01*
X72299999Y26930682D01*
X72143241Y26910045D01*
X72143233Y26910043D01*
X71997161Y26849538D01*
X71997160Y26849538D01*
X71871723Y26753287D01*
X71871713Y26753277D01*
X71775462Y26627840D01*
X71775462Y26627839D01*
X71714957Y26481767D01*
X71714955Y26481759D01*
X71694318Y26325001D01*
X69444865Y26325001D01*
X69435165Y26392467D01*
X69394385Y26481762D01*
X69375377Y26523383D01*
X69281128Y26632153D01*
X69215176Y26674538D01*
X69195466Y26687205D01*
X69156735Y26734572D01*
X69149990Y26770489D01*
X69149990Y26929533D01*
X69168897Y26987724D01*
X69195460Y27012813D01*
X69281128Y27067867D01*
X69375377Y27176637D01*
X69435165Y27307553D01*
X69455647Y27450010D01*
X69435165Y27592467D01*
X69375377Y27723383D01*
X69281128Y27832153D01*
X69232998Y27863084D01*
X69195466Y27887205D01*
X69156735Y27934572D01*
X69149990Y27970489D01*
X69149990Y28129533D01*
X69168897Y28187724D01*
X69195460Y28212813D01*
X69281128Y28267867D01*
X69375377Y28376637D01*
X69435165Y28507553D01*
X69449541Y28607543D01*
X69455647Y28650008D01*
X69455647Y28650013D01*
X69435165Y28792467D01*
X69375377Y28923383D01*
X69281128Y29032153D01*
X69232998Y29063084D01*
X69195466Y29087205D01*
X69156735Y29134572D01*
X69149990Y29170489D01*
X69149990Y29329533D01*
X69168897Y29387724D01*
X69195460Y29412813D01*
X69281128Y29467867D01*
X69375377Y29576637D01*
X69435165Y29707553D01*
X69449541Y29807543D01*
X69455647Y29850008D01*
X69455647Y29850013D01*
X69435165Y29992467D01*
X69375377Y30123383D01*
X69281128Y30232153D01*
X69232998Y30263084D01*
X69195466Y30287205D01*
X69156735Y30334572D01*
X69149990Y30370489D01*
X69149990Y30529543D01*
X69168897Y30587734D01*
X69195460Y30612823D01*
X69281128Y30667877D01*
X69375377Y30776647D01*
X69435165Y30907563D01*
X69455647Y31050020D01*
X69447489Y31106759D01*
X69435165Y31192477D01*
X69405026Y31258472D01*
X69375377Y31323393D01*
X69281128Y31432163D01*
X69232998Y31463094D01*
X69195466Y31487215D01*
X69156735Y31534582D01*
X69149990Y31570499D01*
X69149990Y37849999D01*
X69149990Y37850000D01*
X69149989Y37850000D01*
X62972499Y37850000D01*
X62914308Y37868907D01*
X62882446Y37907873D01*
X62875368Y37923372D01*
X62804789Y38004825D01*
X62781118Y38032143D01*
X62781117Y38032144D01*
X62781116Y38032145D01*
X62660047Y38109951D01*
X62660044Y38109953D01*
X62660043Y38109953D01*
X62660006Y38109964D01*
X62521954Y38150500D01*
X62521951Y38150500D01*
X62378029Y38150500D01*
X62378025Y38150500D01*
X62239939Y38109954D01*
X62239932Y38109951D01*
X62118863Y38032145D01*
X62024611Y37923372D01*
X62017534Y37907873D01*
X61976161Y37862796D01*
X61927481Y37850000D01*
X58699490Y37850000D01*
X58641299Y37868907D01*
X58605335Y37918407D01*
X58600490Y37949000D01*
X58600490Y38850001D01*
X63244318Y38850001D01*
X63244318Y38850000D01*
X63264955Y38693242D01*
X63264957Y38693234D01*
X63325462Y38547162D01*
X63325462Y38547161D01*
X63421713Y38421724D01*
X63421718Y38421718D01*
X63547159Y38325464D01*
X63547160Y38325464D01*
X63547161Y38325463D01*
X63681111Y38269979D01*
X63693238Y38264956D01*
X63810639Y38249500D01*
X63849999Y38244318D01*
X63850000Y38244318D01*
X63850001Y38244318D01*
X63889361Y38249500D01*
X64006762Y38264956D01*
X64152841Y38325464D01*
X64278282Y38421718D01*
X64371458Y38543149D01*
X64421882Y38577804D01*
X64483047Y38576203D01*
X64528541Y38543149D01*
X64621718Y38421718D01*
X64747159Y38325464D01*
X64747160Y38325464D01*
X64747161Y38325463D01*
X64881111Y38269979D01*
X64893238Y38264956D01*
X65010639Y38249500D01*
X65049999Y38244318D01*
X65050000Y38244318D01*
X65050001Y38244318D01*
X65089361Y38249500D01*
X65206762Y38264956D01*
X65352841Y38325464D01*
X65478282Y38421718D01*
X65571458Y38543149D01*
X65621882Y38577804D01*
X65683047Y38576203D01*
X65728541Y38543149D01*
X65821718Y38421718D01*
X65947159Y38325464D01*
X65947160Y38325464D01*
X65947161Y38325463D01*
X66081111Y38269979D01*
X66093238Y38264956D01*
X66210639Y38249500D01*
X66249999Y38244318D01*
X66250000Y38244318D01*
X66250001Y38244318D01*
X66289361Y38249500D01*
X66406762Y38264956D01*
X66552841Y38325464D01*
X66678282Y38421718D01*
X66774536Y38547159D01*
X66835044Y38693238D01*
X66855682Y38850000D01*
X66835044Y39006762D01*
X66775713Y39150000D01*
X66774537Y39152839D01*
X66774537Y39152840D01*
X66678286Y39278277D01*
X66678285Y39278278D01*
X66678282Y39278282D01*
X66678277Y39278286D01*
X66678276Y39278287D01*
X66552838Y39374538D01*
X66406766Y39435043D01*
X66406758Y39435045D01*
X66250001Y39455682D01*
X66249999Y39455682D01*
X66093241Y39435045D01*
X66093233Y39435043D01*
X65947161Y39374538D01*
X65947160Y39374538D01*
X65821723Y39278287D01*
X65821713Y39278277D01*
X65728542Y39156853D01*
X65678117Y39122197D01*
X65616953Y39123799D01*
X65571458Y39156853D01*
X65478286Y39278277D01*
X65478285Y39278278D01*
X65478282Y39278282D01*
X65478277Y39278286D01*
X65478276Y39278287D01*
X65352838Y39374538D01*
X65206766Y39435043D01*
X65206758Y39435045D01*
X65050001Y39455682D01*
X65049999Y39455682D01*
X64893241Y39435045D01*
X64893233Y39435043D01*
X64747161Y39374538D01*
X64747160Y39374538D01*
X64621723Y39278287D01*
X64621713Y39278277D01*
X64528542Y39156853D01*
X64478117Y39122197D01*
X64416953Y39123799D01*
X64371458Y39156853D01*
X64278286Y39278277D01*
X64278285Y39278278D01*
X64278282Y39278282D01*
X64278277Y39278286D01*
X64278276Y39278287D01*
X64152838Y39374538D01*
X64006766Y39435043D01*
X64006758Y39435045D01*
X63850001Y39455682D01*
X63849999Y39455682D01*
X63693241Y39435045D01*
X63693233Y39435043D01*
X63547161Y39374538D01*
X63547160Y39374538D01*
X63421723Y39278287D01*
X63421713Y39278277D01*
X63325462Y39152840D01*
X63325462Y39152839D01*
X63264957Y39006767D01*
X63264955Y39006759D01*
X63244318Y38850001D01*
X58600490Y38850001D01*
X58600490Y43450001D01*
X60944318Y43450001D01*
X60944318Y43450000D01*
X60964955Y43293242D01*
X60964957Y43293234D01*
X61025462Y43147162D01*
X61025462Y43147161D01*
X61025464Y43147159D01*
X61121718Y43021718D01*
X61247159Y42925464D01*
X61247160Y42925464D01*
X61247161Y42925463D01*
X61271458Y42915399D01*
X61393238Y42864956D01*
X61510809Y42849478D01*
X61549999Y42844318D01*
X61550000Y42844318D01*
X61550001Y42844318D01*
X61581352Y42848446D01*
X61706762Y42864956D01*
X61852841Y42925464D01*
X61978282Y43021718D01*
X62074536Y43147159D01*
X62135044Y43293238D01*
X62155682Y43450000D01*
X62135044Y43606762D01*
X62081908Y43735044D01*
X62074537Y43752839D01*
X62074537Y43752840D01*
X61978286Y43878277D01*
X61978285Y43878278D01*
X61978282Y43878282D01*
X61978277Y43878286D01*
X61978276Y43878287D01*
X61852838Y43974538D01*
X61706766Y44035043D01*
X61706758Y44035045D01*
X61550001Y44055682D01*
X61549999Y44055682D01*
X61393241Y44035045D01*
X61393233Y44035043D01*
X61247161Y43974538D01*
X61247160Y43974538D01*
X61121723Y43878287D01*
X61121713Y43878277D01*
X61025462Y43752840D01*
X61025462Y43752839D01*
X60964957Y43606767D01*
X60964955Y43606759D01*
X60944318Y43450001D01*
X58600490Y43450001D01*
X58600490Y54677947D01*
X58590263Y54716114D01*
X58569789Y54792525D01*
X58539776Y54844508D01*
X58529283Y54862682D01*
X58510480Y54895251D01*
X58510479Y54895253D01*
X58264870Y55140863D01*
X58237093Y55195379D01*
X58246664Y55255811D01*
X58289929Y55299076D01*
X58296962Y55302319D01*
X58352841Y55325464D01*
X58478282Y55421718D01*
X58574536Y55547159D01*
X58635044Y55693238D01*
X58655682Y55850000D01*
X58635044Y56006762D01*
X58613160Y56059595D01*
X58574537Y56152839D01*
X58574537Y56152840D01*
X58478286Y56278277D01*
X58478285Y56278278D01*
X58478282Y56278282D01*
X58478277Y56278286D01*
X58478276Y56278287D01*
X58381116Y56352840D01*
X58352841Y56374536D01*
X58352840Y56374537D01*
X58352838Y56374538D01*
X58206766Y56435043D01*
X58206758Y56435045D01*
X58050001Y56455682D01*
X58049999Y56455682D01*
X57893241Y56435045D01*
X57893233Y56435043D01*
X57747161Y56374538D01*
X57747160Y56374538D01*
X57621723Y56278287D01*
X57621713Y56278277D01*
X57525463Y56152840D01*
X57502329Y56096989D01*
X57462592Y56050464D01*
X57403097Y56036180D01*
X57346570Y56059595D01*
X57340861Y56064871D01*
X54529496Y58876236D01*
X54501719Y58930753D01*
X54500500Y58946240D01*
X54500500Y64753143D01*
X55339500Y64753143D01*
X55339500Y64546858D01*
X55371767Y64343129D01*
X55435512Y64146943D01*
X55529159Y63963149D01*
X55529163Y63963143D01*
X55650402Y63796273D01*
X55650404Y63796271D01*
X55650407Y63796267D01*
X55796267Y63650407D01*
X55796270Y63650405D01*
X55796272Y63650403D01*
X55963142Y63529164D01*
X55963148Y63529160D01*
X56146943Y63435512D01*
X56343124Y63371769D01*
X56343125Y63371769D01*
X56343128Y63371768D01*
X56546858Y63339500D01*
X56546861Y63339500D01*
X56753142Y63339500D01*
X56956871Y63371768D01*
X56956872Y63371769D01*
X56956876Y63371769D01*
X57153057Y63435512D01*
X57336852Y63529160D01*
X57503733Y63650407D01*
X57649593Y63796267D01*
X57770840Y63963148D01*
X57864488Y64146943D01*
X57928231Y64343124D01*
X57949039Y64474500D01*
X57960500Y64546858D01*
X57960500Y64753143D01*
X57928232Y64956872D01*
X57904950Y65028527D01*
X57864488Y65153057D01*
X57770840Y65336852D01*
X57715370Y65413200D01*
X57649597Y65503728D01*
X57649595Y65503730D01*
X57649593Y65503733D01*
X57503733Y65649593D01*
X57503729Y65649596D01*
X57503727Y65649598D01*
X57336857Y65770837D01*
X57336851Y65770841D01*
X57153057Y65864488D01*
X56956871Y65928233D01*
X56753142Y65960500D01*
X56753139Y65960500D01*
X56546861Y65960500D01*
X56546858Y65960500D01*
X56343128Y65928233D01*
X56146942Y65864488D01*
X55963148Y65770841D01*
X55963142Y65770837D01*
X55796272Y65649598D01*
X55650402Y65503728D01*
X55529163Y65336858D01*
X55529159Y65336852D01*
X55435512Y65153058D01*
X55371767Y64956872D01*
X55339500Y64753143D01*
X54500500Y64753143D01*
X54500500Y68644886D01*
X58539500Y68644886D01*
X58539500Y68355115D01*
X58577321Y68067836D01*
X58577321Y68067831D01*
X58652318Y67787941D01*
X58652322Y67787928D01*
X58763205Y67520231D01*
X58763207Y67520227D01*
X58763209Y67520223D01*
X58885213Y67308907D01*
X58908095Y67269274D01*
X59084486Y67039396D01*
X59084488Y67039394D01*
X59084492Y67039389D01*
X59289389Y66834492D01*
X59289393Y66834489D01*
X59289395Y66834487D01*
X59455837Y66706772D01*
X59519277Y66658093D01*
X59770223Y66513209D01*
X60037933Y66402320D01*
X60317828Y66327322D01*
X60605116Y66289500D01*
X60605117Y66289500D01*
X60894883Y66289500D01*
X60894884Y66289500D01*
X61182172Y66327322D01*
X61462067Y66402320D01*
X61729777Y66513209D01*
X61980723Y66658093D01*
X62210611Y66834492D01*
X62326124Y66950005D01*
X71944457Y66950005D01*
X71944457Y66949996D01*
X71964611Y66591103D01*
X71964614Y66591083D01*
X72024824Y66236713D01*
X72024828Y66236693D01*
X72124340Y65891277D01*
X72261907Y65559163D01*
X72435787Y65244551D01*
X72435789Y65244548D01*
X72643806Y64951377D01*
X72883339Y64683339D01*
X73151377Y64443806D01*
X73444548Y64235789D01*
X73444550Y64235788D01*
X73759163Y64061908D01*
X73759162Y64061908D01*
X74091276Y63924341D01*
X74436692Y63824829D01*
X74436695Y63824829D01*
X74436700Y63824827D01*
X74791093Y63764613D01*
X74791096Y63764613D01*
X74791102Y63764612D01*
X75149995Y63744457D01*
X75150000Y63744457D01*
X75150005Y63744457D01*
X75508897Y63764612D01*
X75508901Y63764613D01*
X75508907Y63764613D01*
X75863300Y63824827D01*
X76208724Y63924341D01*
X76540833Y64061906D01*
X76855452Y64235789D01*
X77148623Y64443806D01*
X77416661Y64683339D01*
X77656194Y64951377D01*
X77864211Y65244548D01*
X78038094Y65559167D01*
X78175659Y65891276D01*
X78275173Y66236700D01*
X78335387Y66591093D01*
X78337292Y66624998D01*
X78355543Y66949996D01*
X78355543Y66950005D01*
X78335388Y67308898D01*
X78335385Y67308918D01*
X78275175Y67663288D01*
X78275171Y67663308D01*
X78175659Y68008724D01*
X78038092Y68340838D01*
X77864212Y68655450D01*
X77781888Y68771474D01*
X77658536Y68945322D01*
X77656197Y68948619D01*
X77656196Y68948620D01*
X77656194Y68948623D01*
X77416661Y69216661D01*
X77148623Y69456194D01*
X77148620Y69456196D01*
X77148618Y69456198D01*
X76855449Y69664213D01*
X76540836Y69838093D01*
X76540837Y69838093D01*
X76208723Y69975660D01*
X75863307Y70075172D01*
X75863287Y70075176D01*
X75508917Y70135386D01*
X75508897Y70135389D01*
X75150005Y70155543D01*
X75149995Y70155543D01*
X74791102Y70135389D01*
X74791082Y70135386D01*
X74436712Y70075176D01*
X74436692Y70075172D01*
X74091276Y69975660D01*
X73759162Y69838093D01*
X73444550Y69664213D01*
X73151381Y69456198D01*
X72883346Y69216668D01*
X72883332Y69216654D01*
X72643802Y68948619D01*
X72435787Y68655450D01*
X72261907Y68340838D01*
X72124340Y68008724D01*
X72024828Y67663308D01*
X72024824Y67663288D01*
X71964614Y67308918D01*
X71964611Y67308898D01*
X71944457Y66950005D01*
X62326124Y66950005D01*
X62415508Y67039389D01*
X62591907Y67269277D01*
X62736791Y67520223D01*
X62847680Y67787933D01*
X62922678Y68067828D01*
X62960500Y68355116D01*
X62960500Y68644884D01*
X62922678Y68932172D01*
X62847680Y69212067D01*
X62736791Y69479777D01*
X62591907Y69730723D01*
X62509519Y69838093D01*
X62415513Y69960605D01*
X62415511Y69960607D01*
X62415508Y69960611D01*
X62210611Y70165508D01*
X62210606Y70165512D01*
X62210604Y70165514D01*
X61980726Y70341905D01*
X61980723Y70341907D01*
X61729777Y70486791D01*
X61729773Y70486793D01*
X61729769Y70486795D01*
X61462072Y70597678D01*
X61462071Y70597679D01*
X61462067Y70597680D01*
X61182172Y70672678D01*
X61182169Y70672679D01*
X61182167Y70672679D01*
X60894885Y70710500D01*
X60894884Y70710500D01*
X60605116Y70710500D01*
X60605114Y70710500D01*
X60317835Y70672679D01*
X60317830Y70672679D01*
X60037940Y70597682D01*
X60037927Y70597678D01*
X59770230Y70486795D01*
X59519273Y70341905D01*
X59289395Y70165514D01*
X59084486Y69960605D01*
X58908095Y69730727D01*
X58763205Y69479770D01*
X58652322Y69212073D01*
X58652318Y69212060D01*
X58577321Y68932170D01*
X58577321Y68932165D01*
X58539500Y68644886D01*
X54500500Y68644886D01*
X54500500Y73809308D01*
X54469800Y73923882D01*
X54469799Y73923886D01*
X54469799Y73923887D01*
X54410490Y74026614D01*
X53727483Y74709621D01*
X57503938Y74709621D01*
X57503938Y74709620D01*
X57524575Y74552862D01*
X57524577Y74552854D01*
X57585082Y74406782D01*
X57585082Y74406781D01*
X57678167Y74285470D01*
X57681338Y74281338D01*
X57806779Y74185084D01*
X57952858Y74124576D01*
X58070429Y74109098D01*
X58109619Y74103938D01*
X58109620Y74103938D01*
X58109621Y74103938D01*
X58140972Y74108066D01*
X58266382Y74124576D01*
X58412461Y74185084D01*
X58537902Y74281338D01*
X58634156Y74406779D01*
X58694664Y74552858D01*
X58715302Y74709620D01*
X58694664Y74866382D01*
X58653833Y74964956D01*
X58634157Y75012459D01*
X58634157Y75012460D01*
X58537906Y75137897D01*
X58537905Y75137898D01*
X58537902Y75137902D01*
X58537897Y75137906D01*
X58537896Y75137907D01*
X58412458Y75234158D01*
X58266386Y75294663D01*
X58266378Y75294665D01*
X58109621Y75315302D01*
X58109619Y75315302D01*
X57952861Y75294665D01*
X57952853Y75294663D01*
X57806781Y75234158D01*
X57806780Y75234158D01*
X57681343Y75137907D01*
X57681333Y75137897D01*
X57585082Y75012460D01*
X57585082Y75012459D01*
X57524577Y74866387D01*
X57524575Y74866379D01*
X57503938Y74709621D01*
X53727483Y74709621D01*
X51830555Y76606548D01*
X51802779Y76661064D01*
X51812350Y76721496D01*
X51855615Y76764761D01*
X51862675Y76768015D01*
X51910357Y76787766D01*
X51918527Y76791150D01*
X52043968Y76887404D01*
X52140222Y77012845D01*
X52140222Y77012846D01*
X52144172Y77017993D01*
X52145891Y77016674D01*
X52184144Y77051130D01*
X52244993Y77057536D01*
X52297987Y77026953D01*
X52322884Y76971062D01*
X52322581Y76947777D01*
X52319624Y76925312D01*
X52319624Y76925306D01*
X52340261Y76768548D01*
X52340263Y76768540D01*
X52400768Y76622468D01*
X52400768Y76622467D01*
X52497019Y76497030D01*
X52497024Y76497024D01*
X52622465Y76400770D01*
X52622466Y76400770D01*
X52622467Y76400769D01*
X52744875Y76350066D01*
X52768544Y76340262D01*
X52886115Y76324784D01*
X52925305Y76319624D01*
X52925306Y76319624D01*
X52925307Y76319624D01*
X52956658Y76323752D01*
X53082068Y76340262D01*
X53228147Y76400770D01*
X53337823Y76484927D01*
X53679244Y76484927D01*
X53679244Y76484926D01*
X53699881Y76328168D01*
X53699883Y76328160D01*
X53760388Y76182088D01*
X53760388Y76182087D01*
X53845433Y76071254D01*
X53856644Y76056644D01*
X53982085Y75960390D01*
X53982086Y75960390D01*
X53982087Y75960389D01*
X54014027Y75947159D01*
X54128164Y75899882D01*
X54245735Y75884404D01*
X54284925Y75879244D01*
X54284926Y75879244D01*
X54284927Y75879244D01*
X54316278Y75883372D01*
X54441688Y75899882D01*
X54587767Y75960390D01*
X54713208Y76056644D01*
X54809462Y76182085D01*
X54843722Y76264795D01*
X54853854Y76289256D01*
X54893590Y76335782D01*
X54953085Y76350066D01*
X55009613Y76326651D01*
X55041583Y76274482D01*
X55044318Y76251371D01*
X55044318Y76250000D01*
X55064955Y76093242D01*
X55064957Y76093234D01*
X55125462Y75947162D01*
X55125462Y75947161D01*
X55197837Y75852840D01*
X55221718Y75821718D01*
X55347159Y75725464D01*
X55347160Y75725464D01*
X55347161Y75725463D01*
X55493233Y75664958D01*
X55493238Y75664956D01*
X55610809Y75649478D01*
X55649999Y75644318D01*
X55650000Y75644318D01*
X55650001Y75644318D01*
X55681352Y75648446D01*
X55806762Y75664956D01*
X55952841Y75725464D01*
X56008816Y75768415D01*
X56445144Y75768415D01*
X56445144Y75768414D01*
X56465781Y75611656D01*
X56465783Y75611648D01*
X56526288Y75465576D01*
X56526288Y75465575D01*
X56607829Y75359309D01*
X56622544Y75340132D01*
X56747985Y75243878D01*
X56894064Y75183370D01*
X57011635Y75167892D01*
X57050825Y75162732D01*
X57050826Y75162732D01*
X57050827Y75162732D01*
X57082178Y75166860D01*
X57207588Y75183370D01*
X57353667Y75243878D01*
X57479108Y75340132D01*
X57575362Y75465573D01*
X57635870Y75611652D01*
X57656508Y75768414D01*
X57635870Y75925176D01*
X57575363Y76071253D01*
X57575363Y76071254D01*
X57479112Y76196691D01*
X57479111Y76196692D01*
X57479108Y76196696D01*
X57479103Y76196700D01*
X57479102Y76196701D01*
X57353664Y76292952D01*
X57207592Y76353457D01*
X57207584Y76353459D01*
X57050827Y76374096D01*
X57050825Y76374096D01*
X56894067Y76353459D01*
X56894059Y76353457D01*
X56747987Y76292952D01*
X56747986Y76292952D01*
X56622549Y76196701D01*
X56622539Y76196691D01*
X56526288Y76071254D01*
X56526288Y76071253D01*
X56465783Y75925181D01*
X56465781Y75925173D01*
X56445144Y75768415D01*
X56008816Y75768415D01*
X56078282Y75821718D01*
X56174536Y75947159D01*
X56235044Y76093238D01*
X56255682Y76250000D01*
X56235044Y76406762D01*
X56174537Y76552839D01*
X56174537Y76552840D01*
X56078286Y76678277D01*
X56078285Y76678278D01*
X56078282Y76678282D01*
X56078277Y76678286D01*
X56078276Y76678287D01*
X55960650Y76768544D01*
X55952841Y76774536D01*
X55952840Y76774537D01*
X55952838Y76774538D01*
X55806766Y76835043D01*
X55806758Y76835045D01*
X55650001Y76855682D01*
X55649999Y76855682D01*
X55493241Y76835045D01*
X55493233Y76835043D01*
X55347161Y76774538D01*
X55347160Y76774538D01*
X55221723Y76678287D01*
X55221713Y76678277D01*
X55125463Y76552840D01*
X55081072Y76445670D01*
X55041335Y76399145D01*
X54981840Y76384861D01*
X54925313Y76408276D01*
X54893343Y76460445D01*
X54890608Y76483556D01*
X54890608Y76484927D01*
X54874596Y76606547D01*
X54869970Y76641688D01*
X54854810Y76678287D01*
X54809463Y76787765D01*
X54809463Y76787766D01*
X54713212Y76913203D01*
X54713211Y76913204D01*
X54713208Y76913208D01*
X54713203Y76913212D01*
X54713202Y76913213D01*
X54587764Y77009464D01*
X54441692Y77069969D01*
X54441684Y77069971D01*
X54284927Y77090608D01*
X54284925Y77090608D01*
X54128167Y77069971D01*
X54128159Y77069969D01*
X53982087Y77009464D01*
X53982086Y77009464D01*
X53856649Y76913213D01*
X53856639Y76913203D01*
X53760388Y76787766D01*
X53760388Y76787765D01*
X53699883Y76641693D01*
X53699881Y76641685D01*
X53679244Y76484927D01*
X53337823Y76484927D01*
X53353588Y76497024D01*
X53449842Y76622465D01*
X53510350Y76768544D01*
X53530988Y76925306D01*
X53510350Y77082068D01*
X53468350Y77183465D01*
X53449843Y77228145D01*
X53449843Y77228146D01*
X53353592Y77353583D01*
X53353591Y77353584D01*
X53353588Y77353588D01*
X53353583Y77353592D01*
X53353582Y77353593D01*
X53228144Y77449844D01*
X53082072Y77510349D01*
X53082064Y77510351D01*
X52925307Y77530988D01*
X52925305Y77530988D01*
X52768547Y77510351D01*
X52768539Y77510349D01*
X52622467Y77449844D01*
X52622466Y77449844D01*
X52497029Y77353593D01*
X52497019Y77353583D01*
X52396820Y77222999D01*
X52395106Y77224315D01*
X52356811Y77189847D01*
X52295959Y77183465D01*
X52242977Y77214069D01*
X52218103Y77269970D01*
X52218410Y77293220D01*
X52220939Y77312424D01*
X52221368Y77315686D01*
X52200730Y77472448D01*
X52185031Y77510349D01*
X52140223Y77618525D01*
X52140223Y77618526D01*
X52043972Y77743963D01*
X52043971Y77743964D01*
X52043968Y77743968D01*
X52043963Y77743972D01*
X52043962Y77743973D01*
X51918524Y77840224D01*
X51772452Y77900729D01*
X51772444Y77900731D01*
X51615687Y77921368D01*
X51615685Y77921368D01*
X51458927Y77900731D01*
X51458919Y77900729D01*
X51312847Y77840224D01*
X51312846Y77840224D01*
X51187409Y77743973D01*
X51187399Y77743963D01*
X51091148Y77618526D01*
X51091148Y77618525D01*
X51030643Y77472453D01*
X51030641Y77472445D01*
X51014993Y77353583D01*
X51010004Y77315686D01*
X51010433Y77312423D01*
X51010004Y77310104D01*
X51010004Y77309198D01*
X51009836Y77309198D01*
X50999285Y77252263D01*
X50954904Y77210145D01*
X50912281Y77200500D01*
X41590691Y77200500D01*
X41550933Y77189847D01*
X41500325Y77176287D01*
X41500324Y77176288D01*
X41476115Y77169800D01*
X41373386Y77110490D01*
X39839508Y75576611D01*
X39839507Y75576610D01*
X39780202Y75473891D01*
X39780201Y75473888D01*
X39773712Y75449676D01*
X39773713Y75449675D01*
X39749500Y75359309D01*
X39749500Y74303919D01*
X39730593Y74245728D01*
X39686265Y74211605D01*
X39673792Y74206773D01*
X39673791Y74206773D01*
X39673790Y74206772D01*
X39541038Y74124576D01*
X39488565Y74092086D01*
X39327574Y73945323D01*
X39196289Y73771474D01*
X39196284Y73771465D01*
X39107117Y73592393D01*
X39099183Y73576459D01*
X39045220Y73386799D01*
X39011111Y73336005D01*
X38953658Y73314961D01*
X38894809Y73331705D01*
X38857040Y73379842D01*
X38854783Y73386788D01*
X38800817Y73576459D01*
X38703712Y73771472D01*
X38572427Y73945322D01*
X38411432Y74092088D01*
X38226210Y74206772D01*
X38023069Y74285470D01*
X38023068Y74285471D01*
X38023066Y74285471D01*
X37808926Y74325500D01*
X37591074Y74325500D01*
X37376933Y74285471D01*
X37302258Y74256542D01*
X37173790Y74206772D01*
X37007707Y74103938D01*
X36988565Y74092086D01*
X36827574Y73945323D01*
X36696289Y73771474D01*
X36696284Y73771465D01*
X36599183Y73576460D01*
X36539565Y73366925D01*
X36534750Y73314961D01*
X36519464Y73150000D01*
X36539565Y72933077D01*
X36599183Y72723541D01*
X36696288Y72528528D01*
X36827573Y72354678D01*
X36988568Y72207912D01*
X37173790Y72093228D01*
X37376931Y72014530D01*
X37465758Y71997926D01*
X37469029Y71997314D01*
X37522755Y71968037D01*
X37549011Y71912771D01*
X37537768Y71852627D01*
X37493321Y71810579D01*
X37469029Y71802686D01*
X37376933Y71785471D01*
X37302258Y71756542D01*
X37173790Y71706772D01*
X36988568Y71592088D01*
X36988565Y71592086D01*
X36827574Y71445323D01*
X36696289Y71271474D01*
X36696284Y71271465D01*
X36599183Y71076460D01*
X36539565Y70866925D01*
X36519464Y70650000D01*
X36539565Y70433076D01*
X36599183Y70223541D01*
X36643078Y70135387D01*
X36696288Y70028528D01*
X36827573Y69854678D01*
X36988568Y69707912D01*
X37173790Y69593228D01*
X37376931Y69514530D01*
X37465758Y69497926D01*
X37469029Y69497314D01*
X37522755Y69468037D01*
X37549011Y69412771D01*
X37537768Y69352627D01*
X37493321Y69310579D01*
X37469029Y69302686D01*
X37376933Y69285471D01*
X37302258Y69256542D01*
X37173790Y69206772D01*
X36988568Y69092088D01*
X36988565Y69092086D01*
X36872505Y68986283D01*
X36827573Y68945322D01*
X36785009Y68888958D01*
X36696289Y68771474D01*
X36696284Y68771465D01*
X36599183Y68576460D01*
X36539565Y68366925D01*
X36519464Y68150000D01*
X36539565Y67933076D01*
X36580860Y67787941D01*
X36599183Y67723541D01*
X36696288Y67528528D01*
X36827573Y67354678D01*
X36988568Y67207912D01*
X37173790Y67093228D01*
X37376931Y67014530D01*
X37465758Y66997926D01*
X37469029Y66997314D01*
X37522755Y66968037D01*
X37549011Y66912771D01*
X37537768Y66852627D01*
X37493321Y66810579D01*
X37469029Y66802686D01*
X37376933Y66785471D01*
X37302258Y66756542D01*
X37173790Y66706772D01*
X37041720Y66624998D01*
X36988565Y66592086D01*
X36827574Y66445323D01*
X36696289Y66271474D01*
X36696284Y66271465D01*
X36599183Y66076460D01*
X36539565Y65866925D01*
X36519464Y65650000D01*
X36539565Y65433076D01*
X36566943Y65336852D01*
X36599183Y65223541D01*
X36696288Y65028528D01*
X36827573Y64854678D01*
X36988568Y64707912D01*
X37173790Y64593228D01*
X37376931Y64514530D01*
X37591074Y64474500D01*
X37808926Y64474500D01*
X38023069Y64514530D01*
X38226210Y64593228D01*
X38411432Y64707912D01*
X38572427Y64854678D01*
X38703712Y65028528D01*
X38800817Y65223541D01*
X38854779Y65413202D01*
X38888889Y65463996D01*
X38946342Y65485040D01*
X39005191Y65468296D01*
X39042960Y65420159D01*
X39045216Y65413213D01*
X39099183Y65223541D01*
X39196288Y65028528D01*
X39327573Y64854678D01*
X39488568Y64707912D01*
X39673790Y64593228D01*
X39876931Y64514530D01*
X40091074Y64474500D01*
X40308926Y64474500D01*
X40523069Y64514530D01*
X40726210Y64593228D01*
X40911432Y64707912D01*
X41072427Y64854678D01*
X41203712Y65028528D01*
X41300817Y65223541D01*
X41354779Y65413202D01*
X41388889Y65463996D01*
X41446342Y65485040D01*
X41505191Y65468296D01*
X41542960Y65420159D01*
X41545216Y65413213D01*
X41599183Y65223541D01*
X41696288Y65028528D01*
X41827573Y64854678D01*
X41988568Y64707912D01*
X42173790Y64593228D01*
X42376931Y64514530D01*
X42591074Y64474500D01*
X42808926Y64474500D01*
X43023069Y64514530D01*
X43226210Y64593228D01*
X43411432Y64707912D01*
X43572427Y64854678D01*
X43703712Y65028528D01*
X43800817Y65223541D01*
X43854779Y65413202D01*
X43888889Y65463996D01*
X43946342Y65485040D01*
X44005191Y65468296D01*
X44042960Y65420159D01*
X44045216Y65413213D01*
X44099183Y65223541D01*
X44196288Y65028528D01*
X44327573Y64854678D01*
X44488568Y64707912D01*
X44673790Y64593228D01*
X44876931Y64514530D01*
X45091074Y64474500D01*
X45308926Y64474500D01*
X45523069Y64514530D01*
X45726210Y64593228D01*
X45911432Y64707912D01*
X46072427Y64854678D01*
X46203712Y65028528D01*
X46300817Y65223541D01*
X46354779Y65413202D01*
X46388889Y65463996D01*
X46446342Y65485040D01*
X46505191Y65468296D01*
X46542960Y65420159D01*
X46545216Y65413213D01*
X46599183Y65223541D01*
X46696288Y65028528D01*
X46827573Y64854678D01*
X46988568Y64707912D01*
X47173790Y64593228D01*
X47376931Y64514530D01*
X47591074Y64474500D01*
X47808926Y64474500D01*
X48023069Y64514530D01*
X48226210Y64593228D01*
X48411432Y64707912D01*
X48572427Y64854678D01*
X48703712Y65028528D01*
X48800817Y65223541D01*
X48854779Y65413202D01*
X48888889Y65463996D01*
X48946342Y65485040D01*
X49005191Y65468296D01*
X49042960Y65420159D01*
X49045216Y65413213D01*
X49099183Y65223541D01*
X49196288Y65028528D01*
X49327573Y64854678D01*
X49488568Y64707912D01*
X49673790Y64593228D01*
X49876931Y64514530D01*
X50091074Y64474500D01*
X50308926Y64474500D01*
X50523069Y64514530D01*
X50726210Y64593228D01*
X50911432Y64707912D01*
X51072427Y64854678D01*
X51203712Y65028528D01*
X51300817Y65223541D01*
X51360435Y65433077D01*
X51380536Y65650000D01*
X51360435Y65866923D01*
X51300817Y66076459D01*
X51203712Y66271472D01*
X51072427Y66445322D01*
X50911432Y66592088D01*
X50726210Y66706772D01*
X50523069Y66785470D01*
X50523068Y66785471D01*
X50523066Y66785471D01*
X50457012Y66797818D01*
X50430969Y66802687D01*
X50377244Y66831963D01*
X50350988Y66887229D01*
X50362231Y66947372D01*
X50406678Y66989421D01*
X50430968Y66997314D01*
X50523069Y67014530D01*
X50726210Y67093228D01*
X50911432Y67207912D01*
X51072427Y67354678D01*
X51203712Y67528528D01*
X51300817Y67723541D01*
X51360435Y67933077D01*
X51380536Y68150000D01*
X51360435Y68366923D01*
X51300817Y68576459D01*
X51203712Y68771472D01*
X51072427Y68945322D01*
X50911432Y69092088D01*
X50726210Y69206772D01*
X50523069Y69285470D01*
X50523068Y69285471D01*
X50523066Y69285471D01*
X50457012Y69297818D01*
X50430969Y69302687D01*
X50377244Y69331963D01*
X50350988Y69387229D01*
X50362231Y69447372D01*
X50406678Y69489421D01*
X50430968Y69497314D01*
X50523069Y69514530D01*
X50726210Y69593228D01*
X50911432Y69707912D01*
X51072427Y69854678D01*
X51203712Y70028528D01*
X51300817Y70223541D01*
X51360435Y70433077D01*
X51380536Y70650000D01*
X51360435Y70866923D01*
X51300817Y71076459D01*
X51203712Y71271472D01*
X51072427Y71445322D01*
X50911432Y71592088D01*
X50726210Y71706772D01*
X50523069Y71785470D01*
X50523068Y71785471D01*
X50523066Y71785471D01*
X50457012Y71797818D01*
X50430969Y71802687D01*
X50377244Y71831963D01*
X50350988Y71887229D01*
X50362231Y71947372D01*
X50406678Y71989421D01*
X50430968Y71997314D01*
X50523069Y72014530D01*
X50726210Y72093228D01*
X50911432Y72207912D01*
X51072427Y72354678D01*
X51203712Y72528528D01*
X51300817Y72723541D01*
X51360435Y72933077D01*
X51380536Y73150000D01*
X51360435Y73366923D01*
X51300817Y73576459D01*
X51203712Y73771472D01*
X51072427Y73945322D01*
X50911432Y74092088D01*
X50726210Y74206772D01*
X50523069Y74285470D01*
X50523068Y74285471D01*
X50523066Y74285471D01*
X50308926Y74325500D01*
X50091074Y74325500D01*
X49876933Y74285471D01*
X49802258Y74256542D01*
X49673790Y74206772D01*
X49507707Y74103938D01*
X49488565Y74092086D01*
X49327574Y73945323D01*
X49196289Y73771474D01*
X49196284Y73771465D01*
X49107117Y73592393D01*
X49099183Y73576459D01*
X49045220Y73386799D01*
X49011111Y73336005D01*
X48953658Y73314961D01*
X48894809Y73331705D01*
X48857040Y73379842D01*
X48854783Y73386788D01*
X48800817Y73576459D01*
X48703712Y73771472D01*
X48572427Y73945322D01*
X48411432Y74092088D01*
X48226210Y74206772D01*
X48023069Y74285470D01*
X48023068Y74285471D01*
X48023066Y74285471D01*
X47808926Y74325500D01*
X47591074Y74325500D01*
X47376933Y74285471D01*
X47302258Y74256542D01*
X47173790Y74206772D01*
X47007707Y74103938D01*
X46988565Y74092086D01*
X46827574Y73945323D01*
X46696289Y73771474D01*
X46696284Y73771465D01*
X46607117Y73592393D01*
X46599183Y73576459D01*
X46545220Y73386799D01*
X46511111Y73336005D01*
X46453658Y73314961D01*
X46394809Y73331705D01*
X46357040Y73379842D01*
X46354783Y73386788D01*
X46300817Y73576459D01*
X46203712Y73771472D01*
X46072427Y73945322D01*
X45911432Y74092088D01*
X45726210Y74206772D01*
X45523069Y74285470D01*
X45523068Y74285471D01*
X45523066Y74285471D01*
X45308926Y74325500D01*
X45091074Y74325500D01*
X44876933Y74285471D01*
X44802258Y74256542D01*
X44673790Y74206772D01*
X44507707Y74103938D01*
X44488565Y74092086D01*
X44327574Y73945323D01*
X44196289Y73771474D01*
X44196284Y73771465D01*
X44107117Y73592393D01*
X44099183Y73576459D01*
X44045220Y73386799D01*
X44011111Y73336005D01*
X43953658Y73314961D01*
X43894809Y73331705D01*
X43857040Y73379842D01*
X43854783Y73386788D01*
X43800817Y73576459D01*
X43703712Y73771472D01*
X43572427Y73945322D01*
X43411432Y74092088D01*
X43226210Y74206772D01*
X43023069Y74285470D01*
X43023068Y74285471D01*
X43023066Y74285471D01*
X42808926Y74325500D01*
X42591074Y74325500D01*
X42376933Y74285471D01*
X42302258Y74256542D01*
X42173790Y74206772D01*
X42007707Y74103938D01*
X41988565Y74092086D01*
X41827574Y73945323D01*
X41696289Y73771474D01*
X41696284Y73771465D01*
X41607117Y73592393D01*
X41599183Y73576459D01*
X41545220Y73386799D01*
X41511111Y73336005D01*
X41453658Y73314961D01*
X41394809Y73331705D01*
X41357040Y73379842D01*
X41354783Y73386788D01*
X41300817Y73576459D01*
X41203712Y73771472D01*
X41072427Y73945322D01*
X40911432Y74092088D01*
X40726210Y74206772D01*
X40713735Y74211605D01*
X40666305Y74250258D01*
X40650500Y74303919D01*
X40650500Y75072389D01*
X40669407Y75130580D01*
X40679496Y75142393D01*
X41807608Y76270504D01*
X41862125Y76298281D01*
X41877612Y76299500D01*
X44892563Y76299500D01*
X44950754Y76280593D01*
X44986718Y76231093D01*
X44986718Y76169907D01*
X44950754Y76120407D01*
X44930449Y76109036D01*
X44847160Y76074537D01*
X44721723Y75978287D01*
X44721713Y75978277D01*
X44625462Y75852840D01*
X44625462Y75852839D01*
X44564957Y75706767D01*
X44564955Y75706759D01*
X44544318Y75550001D01*
X44544318Y75550000D01*
X44564955Y75393242D01*
X44564957Y75393234D01*
X44625462Y75247162D01*
X44625462Y75247161D01*
X44709303Y75137897D01*
X44721718Y75121718D01*
X44847159Y75025464D01*
X44847160Y75025464D01*
X44847161Y75025463D01*
X44993233Y74964958D01*
X44993238Y74964956D01*
X45110809Y74949478D01*
X45149999Y74944318D01*
X45150000Y74944318D01*
X45150001Y74944318D01*
X45181352Y74948446D01*
X45306762Y74964956D01*
X45452841Y75025464D01*
X45578282Y75121718D01*
X45674536Y75247159D01*
X45735044Y75393238D01*
X45755682Y75550000D01*
X45735044Y75706762D01*
X45709507Y75768414D01*
X45674537Y75852839D01*
X45674537Y75852840D01*
X45578286Y75978277D01*
X45578285Y75978278D01*
X45578282Y75978282D01*
X45578277Y75978286D01*
X45578276Y75978287D01*
X45524897Y76019246D01*
X45452841Y76074536D01*
X45407690Y76093238D01*
X45369551Y76109036D01*
X45323026Y76148773D01*
X45308742Y76208267D01*
X45332157Y76264795D01*
X45384326Y76296765D01*
X45407437Y76299500D01*
X50822389Y76299500D01*
X50880580Y76280593D01*
X50892393Y76270504D01*
X53570504Y73592393D01*
X53598281Y73537876D01*
X53599500Y73522389D01*
X53599500Y58659320D01*
X53623713Y58568956D01*
X53623712Y58568956D01*
X53630200Y58544743D01*
X53630202Y58544739D01*
X53689507Y58442020D01*
X53689509Y58442018D01*
X53689511Y58442015D01*
X57670495Y54461031D01*
X57698271Y54406516D01*
X57699490Y54391029D01*
X57699490Y38200332D01*
X57680583Y38142141D01*
X57631083Y38106177D01*
X57569897Y38106177D01*
X57560535Y38109822D01*
X57421964Y38150510D01*
X57421961Y38150510D01*
X57278039Y38150510D01*
X57278037Y38150510D01*
X57271030Y38149502D01*
X57270809Y38151035D01*
X57217861Y38152551D01*
X57169411Y38189918D01*
X57152178Y38248626D01*
X57165401Y38295292D01*
X57176614Y38314712D01*
X57200500Y38403856D01*
X57200500Y39213213D01*
X57219407Y39271404D01*
X57239233Y39291755D01*
X57250630Y39300500D01*
X57278282Y39321718D01*
X57374536Y39447159D01*
X57435044Y39593238D01*
X57455682Y39750000D01*
X57435044Y39906762D01*
X57383989Y40030020D01*
X57374537Y40052839D01*
X57374537Y40052840D01*
X57278286Y40178277D01*
X57278285Y40178278D01*
X57278282Y40178282D01*
X57278277Y40178286D01*
X57278276Y40178287D01*
X57152838Y40274538D01*
X57006766Y40335043D01*
X57006758Y40335045D01*
X56850001Y40355682D01*
X56849999Y40355682D01*
X56693241Y40335045D01*
X56693233Y40335043D01*
X56547161Y40274538D01*
X56547160Y40274538D01*
X56421723Y40178287D01*
X56421713Y40178277D01*
X56325462Y40052840D01*
X56325462Y40052839D01*
X56264957Y39906767D01*
X56264955Y39906759D01*
X56244318Y39750001D01*
X56244318Y39750000D01*
X56264955Y39593242D01*
X56264957Y39593234D01*
X56325462Y39447162D01*
X56325462Y39447161D01*
X56421713Y39321724D01*
X56421718Y39321718D01*
X56422072Y39321446D01*
X56460767Y39291755D01*
X56495423Y39241331D01*
X56499500Y39213213D01*
X56499500Y38899500D01*
X56480593Y38841309D01*
X56431093Y38805345D01*
X56400500Y38800500D01*
X53301876Y38800500D01*
X53243685Y38819407D01*
X53231873Y38829496D01*
X52830900Y39230468D01*
X52830898Y39230470D01*
X52750974Y39276614D01*
X52750973Y39276615D01*
X52750972Y39276615D01*
X52745579Y39278060D01*
X52744749Y39278282D01*
X52744745Y39278284D01*
X52692177Y39292369D01*
X52661830Y39300500D01*
X52661828Y39300500D01*
X51735854Y39300500D01*
X51677663Y39319407D01*
X51641699Y39368907D01*
X51637701Y39386579D01*
X51635044Y39406762D01*
X51574537Y39552839D01*
X51574537Y39552840D01*
X51478286Y39678277D01*
X51478285Y39678278D01*
X51478282Y39678282D01*
X51478277Y39678286D01*
X51478276Y39678287D01*
X51377412Y39755682D01*
X51352841Y39774536D01*
X51352840Y39774537D01*
X51352838Y39774538D01*
X51206766Y39835043D01*
X51206758Y39835045D01*
X51050001Y39855682D01*
X51049999Y39855682D01*
X50893241Y39835045D01*
X50893233Y39835043D01*
X50747161Y39774538D01*
X50747160Y39774538D01*
X50621723Y39678287D01*
X50621713Y39678277D01*
X50525463Y39552840D01*
X50502329Y39496989D01*
X50462592Y39450464D01*
X50403097Y39436180D01*
X50346570Y39459595D01*
X50340861Y39464871D01*
X50127445Y39678287D01*
X49815272Y39990460D01*
X49815269Y39990462D01*
X49746753Y40030020D01*
X49746749Y40030022D01*
X49670325Y40050500D01*
X49670323Y40050500D01*
X25510438Y40050500D01*
X25510435Y40050500D01*
X25434011Y40030022D01*
X25434007Y40030020D01*
X25365489Y39990461D01*
X25144208Y39769181D01*
X25089692Y39741404D01*
X25061283Y39741032D01*
X24950001Y39755682D01*
X24949999Y39755682D01*
X24793241Y39735045D01*
X24793233Y39735043D01*
X24647161Y39674538D01*
X24647160Y39674538D01*
X24521723Y39578287D01*
X24521713Y39578277D01*
X24425462Y39452840D01*
X24425462Y39452839D01*
X24364957Y39306767D01*
X24364955Y39306759D01*
X24344318Y39150001D01*
X24344318Y39150000D01*
X24364955Y38993242D01*
X24364957Y38993234D01*
X24425462Y38847162D01*
X24425462Y38847161D01*
X24521713Y38721724D01*
X24521718Y38721718D01*
X24647159Y38625464D01*
X24793238Y38564956D01*
X24910809Y38549478D01*
X24949999Y38544318D01*
X24950000Y38544318D01*
X24950001Y38544318D01*
X24981352Y38548446D01*
X25106762Y38564956D01*
X25252841Y38625464D01*
X25378282Y38721718D01*
X25474536Y38847159D01*
X25535044Y38993238D01*
X25555682Y39150000D01*
X25541031Y39261286D01*
X25552181Y39321446D01*
X25569181Y39344211D01*
X25645475Y39420504D01*
X25699992Y39448281D01*
X25715478Y39449500D01*
X49465282Y39449500D01*
X49523473Y39430593D01*
X49535286Y39420504D01*
X50590301Y38365489D01*
X50590300Y38365489D01*
X50630326Y38325464D01*
X50646250Y38309540D01*
X50692242Y38282987D01*
X50718528Y38267810D01*
X50759468Y38222340D01*
X50765863Y38161490D01*
X50735270Y38108502D01*
X50722551Y38098790D01*
X50618859Y38032151D01*
X50614820Y38028651D01*
X50558461Y38004834D01*
X50498866Y38018693D01*
X50485160Y38028651D01*
X50481117Y38032154D01*
X50360047Y38109961D01*
X50360044Y38109963D01*
X50360043Y38109963D01*
X50360040Y38109964D01*
X50221954Y38150510D01*
X50221951Y38150510D01*
X50078029Y38150510D01*
X50078025Y38150510D01*
X49939939Y38109964D01*
X49939932Y38109961D01*
X49818862Y38032154D01*
X49814820Y38028651D01*
X49758461Y38004834D01*
X49698866Y38018693D01*
X49685160Y38028651D01*
X49681117Y38032154D01*
X49560047Y38109961D01*
X49560044Y38109963D01*
X49560043Y38109963D01*
X49560040Y38109964D01*
X49421954Y38150510D01*
X49421951Y38150510D01*
X49278029Y38150510D01*
X49278025Y38150510D01*
X49139939Y38109964D01*
X49139932Y38109961D01*
X49018862Y38032154D01*
X49014820Y38028651D01*
X48958461Y38004834D01*
X48898866Y38018693D01*
X48885160Y38028651D01*
X48881117Y38032154D01*
X48760047Y38109961D01*
X48760044Y38109963D01*
X48760043Y38109963D01*
X48760040Y38109964D01*
X48621954Y38150510D01*
X48621951Y38150510D01*
X48478029Y38150510D01*
X48478025Y38150510D01*
X48339939Y38109964D01*
X48339932Y38109961D01*
X48218862Y38032154D01*
X48214820Y38028651D01*
X48158461Y38004834D01*
X48098866Y38018693D01*
X48085160Y38028651D01*
X48081117Y38032154D01*
X47960047Y38109961D01*
X47960044Y38109963D01*
X47960043Y38109963D01*
X47960040Y38109964D01*
X47821954Y38150510D01*
X47821951Y38150510D01*
X47678029Y38150510D01*
X47678025Y38150510D01*
X47539939Y38109964D01*
X47539932Y38109961D01*
X47418857Y38032151D01*
X47414815Y38028648D01*
X47358454Y38004834D01*
X47298860Y38018696D01*
X47285161Y38028649D01*
X47281127Y38032144D01*
X47160057Y38109951D01*
X47160054Y38109953D01*
X47160053Y38109953D01*
X47160016Y38109964D01*
X47021964Y38150500D01*
X47021961Y38150500D01*
X46878039Y38150500D01*
X46878035Y38150500D01*
X46739949Y38109954D01*
X46739942Y38109951D01*
X46618871Y38032144D01*
X46614826Y38028638D01*
X46558465Y38004825D01*
X46498870Y38018687D01*
X46485168Y38028643D01*
X46481122Y38032148D01*
X46481118Y38032153D01*
X46377429Y38098790D01*
X46360047Y38109961D01*
X46360044Y38109963D01*
X46360043Y38109963D01*
X46360040Y38109964D01*
X46221954Y38150510D01*
X46221951Y38150510D01*
X46078029Y38150510D01*
X46078025Y38150510D01*
X45939939Y38109964D01*
X45939932Y38109961D01*
X45818863Y38032155D01*
X45724612Y37923382D01*
X45717531Y37907875D01*
X45676159Y37862797D01*
X45627477Y37850000D01*
X45272503Y37850000D01*
X45214312Y37868907D01*
X45182449Y37907875D01*
X45175372Y37923372D01*
X45175367Y37923383D01*
X45081118Y38032153D01*
X45081117Y38032154D01*
X45081116Y38032155D01*
X44960047Y38109961D01*
X44960044Y38109963D01*
X44960043Y38109963D01*
X44960040Y38109964D01*
X44821954Y38150510D01*
X44821951Y38150510D01*
X44678029Y38150510D01*
X44678025Y38150510D01*
X44539939Y38109964D01*
X44539932Y38109961D01*
X44418866Y38032156D01*
X44418864Y38032155D01*
X44418862Y38032153D01*
X44418860Y38032152D01*
X44414827Y38028656D01*
X44358468Y38004838D01*
X44298872Y38018696D01*
X44285163Y38028656D01*
X44281132Y38032148D01*
X44281128Y38032153D01*
X44177439Y38098790D01*
X44160057Y38109961D01*
X44160054Y38109963D01*
X44160053Y38109963D01*
X44160050Y38109964D01*
X44021964Y38150510D01*
X44021961Y38150510D01*
X43878039Y38150510D01*
X43878035Y38150510D01*
X43739949Y38109964D01*
X43739942Y38109961D01*
X43618872Y38032154D01*
X43614830Y38028651D01*
X43558471Y38004834D01*
X43498876Y38018693D01*
X43485170Y38028651D01*
X43481127Y38032154D01*
X43360057Y38109961D01*
X43360054Y38109963D01*
X43360053Y38109963D01*
X43360050Y38109964D01*
X43221964Y38150510D01*
X43221961Y38150510D01*
X43078039Y38150510D01*
X43078035Y38150510D01*
X42939949Y38109964D01*
X42939942Y38109961D01*
X42818872Y38032154D01*
X42814830Y38028651D01*
X42758471Y38004834D01*
X42698876Y38018693D01*
X42685170Y38028651D01*
X42681127Y38032154D01*
X42560057Y38109961D01*
X42560054Y38109963D01*
X42560053Y38109963D01*
X42560050Y38109964D01*
X42421964Y38150510D01*
X42421961Y38150510D01*
X42278039Y38150510D01*
X42278035Y38150510D01*
X42139949Y38109964D01*
X42139942Y38109961D01*
X42018872Y38032154D01*
X42014830Y38028651D01*
X41958471Y38004834D01*
X41898876Y38018693D01*
X41885170Y38028651D01*
X41881127Y38032154D01*
X41760057Y38109961D01*
X41760054Y38109963D01*
X41760053Y38109963D01*
X41760050Y38109964D01*
X41621964Y38150510D01*
X41621961Y38150510D01*
X41478039Y38150510D01*
X41478035Y38150510D01*
X41339949Y38109964D01*
X41339942Y38109961D01*
X41218871Y38032154D01*
X41214824Y38028646D01*
X41158464Y38004830D01*
X41098869Y38018690D01*
X41085166Y38028646D01*
X41081118Y38032154D01*
X40960047Y38109961D01*
X40960044Y38109963D01*
X40960043Y38109963D01*
X40960040Y38109964D01*
X40821954Y38150510D01*
X40821951Y38150510D01*
X40678029Y38150510D01*
X40678025Y38150510D01*
X40539939Y38109964D01*
X40539932Y38109961D01*
X40418863Y38032155D01*
X40324612Y37923382D01*
X40317531Y37907875D01*
X40276159Y37862797D01*
X40227477Y37850000D01*
X33349990Y37850000D01*
X33349990Y37849999D01*
X33349990Y37770482D01*
X33331083Y37712291D01*
X33304514Y37687198D01*
X33218862Y37632153D01*
X33124612Y37523382D01*
X33064824Y37392467D01*
X33044343Y37250013D01*
X33044343Y37250008D01*
X33064824Y37107554D01*
X33124613Y36976637D01*
X33178159Y36914840D01*
X33201976Y36858481D01*
X33188117Y36798886D01*
X33178159Y36785180D01*
X33124613Y36723384D01*
X33064824Y36592467D01*
X33044343Y36450013D01*
X33044343Y36450008D01*
X33064824Y36307554D01*
X33124613Y36176637D01*
X33178159Y36114840D01*
X33201976Y36058481D01*
X33188117Y35998886D01*
X33178159Y35985180D01*
X33124613Y35923384D01*
X33064824Y35792467D01*
X33044343Y35650013D01*
X33044343Y35650008D01*
X33064824Y35507554D01*
X33124613Y35376637D01*
X33178163Y35314835D01*
X33201980Y35258476D01*
X33188121Y35198881D01*
X33178163Y35185175D01*
X33124613Y35123374D01*
X33064824Y34992457D01*
X33044343Y34850003D01*
X33044343Y34849998D01*
X33064824Y34707544D01*
X33124612Y34576629D01*
X33124613Y34576627D01*
X33178155Y34514836D01*
X33201972Y34458476D01*
X33188113Y34398881D01*
X33178155Y34385174D01*
X33124612Y34323382D01*
X33064824Y34192467D01*
X33044343Y34050013D01*
X33044343Y34050008D01*
X33064824Y33907554D01*
X33124613Y33776637D01*
X33178159Y33714840D01*
X33201976Y33658481D01*
X33188117Y33598886D01*
X33178159Y33585180D01*
X33124613Y33523384D01*
X33064824Y33392467D01*
X33044343Y33250013D01*
X33044343Y33250008D01*
X33064824Y33107554D01*
X33124613Y32976637D01*
X33178159Y32914840D01*
X33201976Y32858481D01*
X33188117Y32798886D01*
X33178159Y32785180D01*
X33124613Y32723384D01*
X33064824Y32592467D01*
X33044343Y32450013D01*
X33044343Y32450008D01*
X33064824Y32307554D01*
X33124613Y32176637D01*
X33178163Y32114835D01*
X33201980Y32058476D01*
X33188121Y31998881D01*
X33178163Y31985175D01*
X33124613Y31923374D01*
X33064824Y31792457D01*
X33044343Y31650003D01*
X33044343Y31649998D01*
X33064824Y31507544D01*
X33124613Y31376627D01*
X33178159Y31314831D01*
X33201977Y31258472D01*
X33188118Y31198877D01*
X33178160Y31185170D01*
X33124623Y31123384D01*
X33064834Y30992467D01*
X33044353Y30850013D01*
X33044353Y30850008D01*
X33064834Y30707554D01*
X33124623Y30576637D01*
X33178169Y30514840D01*
X33201986Y30458481D01*
X33188127Y30398886D01*
X33178169Y30385180D01*
X33124623Y30323384D01*
X33064834Y30192467D01*
X33044353Y30050013D01*
X33044353Y30050008D01*
X33064834Y29907554D01*
X33124623Y29776637D01*
X33178169Y29714840D01*
X33201986Y29658481D01*
X33188127Y29598886D01*
X33178169Y29585180D01*
X33124623Y29523384D01*
X33064834Y29392467D01*
X33044353Y29250013D01*
X33044353Y29250008D01*
X33064834Y29107554D01*
X33124623Y28976637D01*
X33178169Y28914840D01*
X33201986Y28858481D01*
X33188127Y28798886D01*
X33178169Y28785180D01*
X33124623Y28723384D01*
X33064834Y28592467D01*
X33044353Y28450013D01*
X33044353Y28450008D01*
X33064834Y28307554D01*
X33118494Y28190057D01*
X33124623Y28176637D01*
X33165439Y28129533D01*
X33218873Y28067866D01*
X33304513Y28012829D01*
X33343244Y27965463D01*
X33349990Y27929545D01*
X33349990Y26570466D01*
X33331083Y26512275D01*
X33304514Y26487182D01*
X33218872Y26432143D01*
X33124622Y26323372D01*
X33064834Y26192457D01*
X33044353Y26050003D01*
X33044353Y26049998D01*
X33064834Y25907544D01*
X33124623Y25776627D01*
X33178169Y25714830D01*
X33201986Y25658471D01*
X33188127Y25598876D01*
X33178169Y25585170D01*
X33124623Y25523374D01*
X33064834Y25392457D01*
X33044353Y25250003D01*
X33044353Y25249998D01*
X33064834Y25107544D01*
X33124623Y24976627D01*
X33178159Y24914843D01*
X33201977Y24858484D01*
X33188119Y24798889D01*
X33178160Y24785182D01*
X33124613Y24723384D01*
X33064824Y24592467D01*
X33044343Y24450013D01*
X33044343Y24450008D01*
X33064824Y24307554D01*
X33124613Y24176637D01*
X33178163Y24114835D01*
X33201980Y24058476D01*
X33188121Y23998881D01*
X33178163Y23985175D01*
X33124613Y23923374D01*
X33064824Y23792457D01*
X33044343Y23650003D01*
X33044343Y23649998D01*
X33064824Y23507544D01*
X33108085Y23412818D01*
X33124613Y23376627D01*
X33135268Y23364330D01*
X33159085Y23307971D01*
X33145226Y23248376D01*
X33098985Y23208308D01*
X33060448Y23200500D01*
X31299500Y23200500D01*
X31241309Y23219407D01*
X31205345Y23268907D01*
X31200500Y23299500D01*
X31200500Y29363811D01*
X31219407Y29422002D01*
X31229490Y29433809D01*
X32118276Y30322596D01*
X32172791Y30350371D01*
X32201197Y30350743D01*
X32250000Y30344318D01*
X32406762Y30364956D01*
X32552841Y30425464D01*
X32678282Y30521718D01*
X32774536Y30647159D01*
X32835044Y30793238D01*
X32855682Y30950000D01*
X32835044Y31106762D01*
X32774537Y31252839D01*
X32774537Y31252840D01*
X32678286Y31378277D01*
X32678285Y31378278D01*
X32678282Y31378282D01*
X32678277Y31378286D01*
X32678276Y31378287D01*
X32552838Y31474538D01*
X32406766Y31535043D01*
X32406758Y31535045D01*
X32250001Y31555682D01*
X32249999Y31555682D01*
X32093241Y31535045D01*
X32093233Y31535043D01*
X31947161Y31474538D01*
X31947160Y31474538D01*
X31821723Y31378287D01*
X31821713Y31378277D01*
X31725462Y31252840D01*
X31725462Y31252839D01*
X31664957Y31106767D01*
X31664955Y31106759D01*
X31644318Y30950001D01*
X31644318Y30949998D01*
X31650741Y30901200D01*
X31639590Y30841039D01*
X31622592Y30818277D01*
X30569530Y29765213D01*
X30559389Y29747648D01*
X30551965Y29734788D01*
X30540448Y29714840D01*
X30523387Y29685291D01*
X30523386Y29685289D01*
X30523386Y29685288D01*
X30513934Y29650010D01*
X30499500Y29596143D01*
X30499500Y23235190D01*
X30480593Y23176999D01*
X30431093Y23141035D01*
X30369907Y23141035D01*
X30330496Y23165186D01*
X29988138Y23507544D01*
X29540213Y23955469D01*
X29460289Y24001613D01*
X29460286Y24001614D01*
X29440893Y24006811D01*
X29440893Y24006810D01*
X29371145Y24025499D01*
X29371143Y24025499D01*
X28874748Y24025499D01*
X28816557Y24044406D01*
X28787438Y24077831D01*
X28719135Y24205617D01*
X28719133Y24205619D01*
X28719131Y24205624D01*
X28600352Y24350356D01*
X28597474Y24353863D01*
X28575174Y24410840D01*
X28575002Y24416668D01*
X28575002Y24764998D01*
X28575002Y24764999D01*
X28575001Y24764999D01*
X13176197Y24764999D01*
X13118006Y24783906D01*
X13103991Y24797118D01*
X13103793Y24796919D01*
X13100359Y24800353D01*
X13100355Y24800358D01*
X13095773Y24804118D01*
X13039855Y24850009D01*
X12955623Y24919137D01*
X12955620Y24919139D01*
X12955615Y24919142D01*
X12790504Y25007395D01*
X12790502Y25007396D01*
X12611326Y25061749D01*
X12611324Y25061750D01*
X12436183Y25078999D01*
X12380126Y25103519D01*
X12349187Y25156305D01*
X12355184Y25217196D01*
X12367339Y25237781D01*
X12374536Y25247159D01*
X12435044Y25393238D01*
X12455682Y25550000D01*
X12435044Y25706762D01*
X12401766Y25787103D01*
X12374537Y25852839D01*
X12374537Y25852840D01*
X12278285Y25978278D01*
X12278282Y25978282D01*
X12278277Y25978286D01*
X12278276Y25978287D01*
X12207104Y26032899D01*
X12152841Y26074536D01*
X12152840Y26074537D01*
X12152838Y26074538D01*
X12006766Y26135043D01*
X12006758Y26135045D01*
X11893153Y26150001D01*
X24244318Y26150001D01*
X24244318Y26150000D01*
X24264955Y25993242D01*
X24264957Y25993234D01*
X24325462Y25847162D01*
X24325462Y25847161D01*
X24415721Y25729533D01*
X24421718Y25721718D01*
X24421722Y25721715D01*
X24421723Y25721714D01*
X24441203Y25706767D01*
X24547159Y25625464D01*
X24693238Y25564956D01*
X24806833Y25550001D01*
X24849999Y25544318D01*
X24850000Y25544318D01*
X24850001Y25544318D01*
X24893167Y25550001D01*
X25006762Y25564956D01*
X25152841Y25625464D01*
X25278282Y25721718D01*
X25374536Y25847159D01*
X25435044Y25993238D01*
X25455682Y26150000D01*
X25453281Y26168234D01*
X25442516Y26250008D01*
X25435044Y26306762D01*
X25428164Y26323372D01*
X25374537Y26452839D01*
X25374537Y26452840D01*
X25278286Y26578277D01*
X25278285Y26578278D01*
X25278282Y26578282D01*
X25278277Y26578286D01*
X25278276Y26578287D01*
X25152838Y26674538D01*
X25006766Y26735043D01*
X25006758Y26735045D01*
X24850001Y26755682D01*
X24849999Y26755682D01*
X24693241Y26735045D01*
X24693233Y26735043D01*
X24547161Y26674538D01*
X24547160Y26674538D01*
X24421723Y26578287D01*
X24421713Y26578277D01*
X24325462Y26452840D01*
X24325462Y26452839D01*
X24264957Y26306767D01*
X24264955Y26306759D01*
X24244318Y26150001D01*
X11893153Y26150001D01*
X11850001Y26155682D01*
X11849999Y26155682D01*
X11693241Y26135045D01*
X11693233Y26135043D01*
X11547161Y26074538D01*
X11547160Y26074538D01*
X11421723Y25978287D01*
X11421719Y25978284D01*
X11421718Y25978282D01*
X11421715Y25978278D01*
X11325462Y25852840D01*
X11325462Y25852839D01*
X11264957Y25706767D01*
X11264955Y25706759D01*
X11244318Y25550001D01*
X11244318Y25550000D01*
X11264955Y25393242D01*
X11264957Y25393234D01*
X11325462Y25247162D01*
X11325462Y25247161D01*
X11421713Y25121724D01*
X11421718Y25121718D01*
X11547159Y25025464D01*
X11547160Y25025464D01*
X11547161Y25025463D01*
X11590779Y25007396D01*
X11693238Y24964956D01*
X11693242Y24964956D01*
X11699506Y24963277D01*
X11698885Y24960963D01*
X11744695Y24939131D01*
X11773907Y24885370D01*
X11765941Y24824705D01*
X11751896Y24804799D01*
X11752726Y24804118D01*
X11630861Y24655625D01*
X11630857Y24655619D01*
X11616006Y24627833D01*
X11571901Y24585426D01*
X11528696Y24575501D01*
X10265692Y24575501D01*
X10220509Y24563395D01*
X10175326Y24551288D01*
X10175325Y24551289D01*
X10151113Y24544800D01*
X10151110Y24544799D01*
X10048391Y24485494D01*
X9389507Y23826610D01*
X9330203Y23723893D01*
X9330199Y23723883D01*
X9325195Y23705204D01*
X9325195Y23705203D01*
X9316642Y23673282D01*
X9299500Y23609309D01*
X550500Y23609309D01*
X550500Y32350003D01*
X11506853Y32350003D01*
X11506853Y32349998D01*
X11527334Y32207544D01*
X11569674Y32114835D01*
X11587123Y32076627D01*
X11634702Y32021718D01*
X11681373Y31967856D01*
X11720267Y31942861D01*
X11767023Y31912813D01*
X11805754Y31865448D01*
X11812500Y31829529D01*
X11812500Y31670472D01*
X11793593Y31612281D01*
X11767024Y31587189D01*
X11685167Y31534582D01*
X11681372Y31532143D01*
X11587122Y31423372D01*
X11527334Y31292457D01*
X11506853Y31150003D01*
X11506853Y31149998D01*
X11527334Y31007544D01*
X11534220Y30992467D01*
X11587123Y30876627D01*
X11681372Y30767857D01*
X11681373Y30767856D01*
X11720267Y30742861D01*
X11767023Y30712813D01*
X11805754Y30665448D01*
X11812500Y30629529D01*
X11812500Y30470472D01*
X11793593Y30412281D01*
X11767024Y30387188D01*
X11681372Y30332143D01*
X11587122Y30223372D01*
X11527334Y30092457D01*
X11506853Y29950003D01*
X11506853Y29949998D01*
X11527334Y29807544D01*
X11587122Y29676629D01*
X11587123Y29676627D01*
X11673764Y29576637D01*
X11681373Y29567856D01*
X11720267Y29542861D01*
X11767023Y29512813D01*
X11805754Y29465448D01*
X11812500Y29429529D01*
X11812500Y29270472D01*
X11793593Y29212281D01*
X11767024Y29187188D01*
X11681372Y29132143D01*
X11587122Y29023372D01*
X11527334Y28892457D01*
X11506853Y28750003D01*
X11506853Y28749998D01*
X11527334Y28607544D01*
X11534220Y28592467D01*
X11587123Y28476627D01*
X11673764Y28376637D01*
X11681373Y28367856D01*
X11775207Y28307553D01*
X11802447Y28290047D01*
X11908903Y28258789D01*
X11940535Y28249501D01*
X11940536Y28249501D01*
X11940539Y28249500D01*
X11940541Y28249500D01*
X12084459Y28249500D01*
X12084461Y28249500D01*
X12222553Y28290047D01*
X12343628Y28367857D01*
X12385198Y28415832D01*
X12437592Y28447427D01*
X12460016Y28450000D01*
X26712499Y28450000D01*
X26712500Y28450000D01*
X26712500Y32450001D01*
X28494318Y32450001D01*
X28494318Y32450000D01*
X28514955Y32293242D01*
X28514957Y32293234D01*
X28575462Y32147162D01*
X28575462Y32147161D01*
X28671713Y32021724D01*
X28671718Y32021718D01*
X28797159Y31925464D01*
X28797160Y31925464D01*
X28797161Y31925463D01*
X28802207Y31923373D01*
X28943238Y31864956D01*
X29060809Y31849478D01*
X29099999Y31844318D01*
X29100000Y31844318D01*
X29100001Y31844318D01*
X29131352Y31848446D01*
X29256762Y31864956D01*
X29402841Y31925464D01*
X29528282Y32021718D01*
X29624536Y32147159D01*
X29685044Y32293238D01*
X29705682Y32450000D01*
X29685044Y32606762D01*
X29678164Y32623372D01*
X29624537Y32752839D01*
X29624537Y32752840D01*
X29528286Y32878277D01*
X29528285Y32878278D01*
X29528282Y32878282D01*
X29528277Y32878286D01*
X29528276Y32878287D01*
X29402838Y32974538D01*
X29256766Y33035043D01*
X29256758Y33035045D01*
X29100001Y33055682D01*
X29099999Y33055682D01*
X28943241Y33035045D01*
X28943233Y33035043D01*
X28797161Y32974538D01*
X28797160Y32974538D01*
X28671723Y32878287D01*
X28671713Y32878277D01*
X28575462Y32752840D01*
X28575462Y32752839D01*
X28514957Y32606767D01*
X28514955Y32606759D01*
X28494318Y32450001D01*
X26712500Y32450001D01*
X26712500Y34737728D01*
X26731407Y34795919D01*
X26757978Y34821013D01*
X26768628Y34827857D01*
X26862877Y34936627D01*
X26922665Y35067543D01*
X26939578Y35185175D01*
X26943147Y35209998D01*
X26943147Y35210003D01*
X26922665Y35352457D01*
X26862877Y35483372D01*
X26862877Y35483373D01*
X26768628Y35592143D01*
X26768627Y35592144D01*
X26768625Y35592146D01*
X26757973Y35598992D01*
X26719244Y35646360D01*
X26712500Y35682274D01*
X26712500Y35737728D01*
X26731407Y35795919D01*
X26757978Y35821013D01*
X26768628Y35827857D01*
X26862877Y35936627D01*
X26922665Y36067543D01*
X26943147Y36210000D01*
X26922665Y36352457D01*
X26862877Y36483373D01*
X26768628Y36592143D01*
X26768627Y36592144D01*
X26768625Y36592146D01*
X26757973Y36598992D01*
X26719244Y36646360D01*
X26712500Y36682274D01*
X26712500Y37849999D01*
X26712500Y37850000D01*
X11812500Y37850000D01*
X11812500Y37849999D01*
X11812500Y32870472D01*
X11793593Y32812281D01*
X11767024Y32787188D01*
X11681372Y32732143D01*
X11587122Y32623372D01*
X11527334Y32492457D01*
X11506853Y32350003D01*
X550500Y32350003D01*
X550500Y41250001D01*
X32744318Y41250001D01*
X32744318Y41250000D01*
X32764955Y41093242D01*
X32764957Y41093234D01*
X32825462Y40947162D01*
X32825462Y40947161D01*
X32921713Y40821724D01*
X32921718Y40821718D01*
X33047159Y40725464D01*
X33047160Y40725464D01*
X33047161Y40725463D01*
X33124959Y40693238D01*
X33193238Y40664956D01*
X33310809Y40649478D01*
X33349999Y40644318D01*
X33350000Y40644318D01*
X33350001Y40644318D01*
X33381352Y40648446D01*
X33506762Y40664956D01*
X33652841Y40725464D01*
X33778282Y40821718D01*
X33845736Y40909626D01*
X40203943Y40909626D01*
X40203943Y40909625D01*
X40224580Y40752867D01*
X40224582Y40752859D01*
X40285087Y40606787D01*
X40285087Y40606786D01*
X40381338Y40481349D01*
X40381343Y40481343D01*
X40506784Y40385089D01*
X40506785Y40385089D01*
X40506786Y40385088D01*
X40652858Y40324583D01*
X40652863Y40324581D01*
X40770434Y40309103D01*
X40809624Y40303943D01*
X40809625Y40303943D01*
X40809626Y40303943D01*
X40840977Y40308071D01*
X40966387Y40324581D01*
X41112466Y40385089D01*
X41237907Y40481343D01*
X41334161Y40606784D01*
X41394669Y40752863D01*
X41407457Y40850001D01*
X50544318Y40850001D01*
X50544318Y40850000D01*
X50564955Y40693242D01*
X50564957Y40693234D01*
X50625462Y40547162D01*
X50625462Y40547161D01*
X50675966Y40481343D01*
X50721718Y40421718D01*
X50847159Y40325464D01*
X50847160Y40325464D01*
X50847161Y40325463D01*
X50899115Y40303943D01*
X50993238Y40264956D01*
X51110809Y40249478D01*
X51149999Y40244318D01*
X51150000Y40244318D01*
X51150001Y40244318D01*
X51181352Y40248446D01*
X51306762Y40264956D01*
X51452841Y40325464D01*
X51578282Y40421718D01*
X51674536Y40547159D01*
X51735044Y40693238D01*
X51755682Y40850000D01*
X51735044Y41006762D01*
X51710348Y41066384D01*
X51674537Y41152839D01*
X51674537Y41152840D01*
X51578286Y41278277D01*
X51578285Y41278278D01*
X51578282Y41278282D01*
X51578277Y41278286D01*
X51578276Y41278287D01*
X51452838Y41374538D01*
X51306766Y41435043D01*
X51306758Y41435045D01*
X51150001Y41455682D01*
X51149999Y41455682D01*
X50993241Y41435045D01*
X50993233Y41435043D01*
X50847161Y41374538D01*
X50847160Y41374538D01*
X50721723Y41278287D01*
X50721713Y41278277D01*
X50625462Y41152840D01*
X50625462Y41152839D01*
X50564957Y41006767D01*
X50564955Y41006759D01*
X50544318Y40850001D01*
X41407457Y40850001D01*
X41415307Y40909625D01*
X41394669Y41066387D01*
X41334162Y41212464D01*
X41334162Y41212465D01*
X41237911Y41337902D01*
X41237910Y41337903D01*
X41237907Y41337907D01*
X41237902Y41337911D01*
X41237901Y41337912D01*
X41112463Y41434163D01*
X40966391Y41494668D01*
X40966383Y41494670D01*
X40809626Y41515307D01*
X40809624Y41515307D01*
X40652866Y41494670D01*
X40652858Y41494668D01*
X40506786Y41434163D01*
X40506785Y41434163D01*
X40381348Y41337912D01*
X40381338Y41337902D01*
X40285087Y41212465D01*
X40285087Y41212464D01*
X40224582Y41066392D01*
X40224580Y41066384D01*
X40203943Y40909626D01*
X33845736Y40909626D01*
X33874536Y40947159D01*
X33935044Y41093238D01*
X33955682Y41250000D01*
X33935044Y41406762D01*
X33874537Y41552839D01*
X33874537Y41552840D01*
X33778286Y41678277D01*
X33778285Y41678278D01*
X33778282Y41678282D01*
X33778277Y41678286D01*
X33778276Y41678287D01*
X33652838Y41774538D01*
X33506766Y41835043D01*
X33506758Y41835045D01*
X33350001Y41855682D01*
X33349999Y41855682D01*
X33193241Y41835045D01*
X33193233Y41835043D01*
X33047161Y41774538D01*
X33047160Y41774538D01*
X32921723Y41678287D01*
X32921713Y41678277D01*
X32825462Y41552840D01*
X32825462Y41552839D01*
X32764957Y41406767D01*
X32764955Y41406759D01*
X32744318Y41250001D01*
X550500Y41250001D01*
X550500Y43750001D01*
X1944318Y43750001D01*
X1944318Y43750000D01*
X1964955Y43593242D01*
X1964957Y43593234D01*
X2025462Y43447162D01*
X2025462Y43447161D01*
X2121713Y43321724D01*
X2121718Y43321718D01*
X2247159Y43225464D01*
X2247160Y43225464D01*
X2247161Y43225463D01*
X2308634Y43200000D01*
X2393238Y43164956D01*
X2506833Y43150001D01*
X2549999Y43144318D01*
X2550000Y43144318D01*
X2550001Y43144318D01*
X2593167Y43150001D01*
X2706762Y43164956D01*
X2852841Y43225464D01*
X2978282Y43321718D01*
X3074536Y43447159D01*
X3135044Y43593238D01*
X3155682Y43750000D01*
X3155127Y43754212D01*
X23125000Y43754212D01*
X23125000Y43500001D01*
X23125001Y43500000D01*
X23853590Y43500000D01*
X23850556Y43494745D01*
X23825000Y43399370D01*
X23825000Y43300630D01*
X23850556Y43205255D01*
X23853590Y43200000D01*
X23125002Y43200000D01*
X23125001Y43199999D01*
X23125001Y42945797D01*
X23127850Y42915400D01*
X23127850Y42915398D01*
X23172654Y42787353D01*
X23253207Y42678210D01*
X23253209Y42678208D01*
X23362352Y42597655D01*
X23490398Y42552851D01*
X23520789Y42550001D01*
X24049998Y42550001D01*
X24050000Y42550002D01*
X24050000Y43003590D01*
X24055255Y43000556D01*
X24150630Y42975000D01*
X24249370Y42975000D01*
X24344745Y43000556D01*
X24350000Y43003590D01*
X24350000Y42550002D01*
X24350001Y42550001D01*
X24879203Y42550001D01*
X24909600Y42552851D01*
X24909602Y42552851D01*
X25037647Y42597655D01*
X25146790Y42678208D01*
X25146792Y42678210D01*
X25227345Y42787353D01*
X25272149Y42915399D01*
X25274999Y42945789D01*
X25275000Y42945790D01*
X25275000Y43150001D01*
X39144318Y43150001D01*
X39144318Y43150000D01*
X39164955Y42993242D01*
X39164957Y42993234D01*
X39225462Y42847162D01*
X39225462Y42847161D01*
X39321713Y42721724D01*
X39321718Y42721718D01*
X39447159Y42625464D01*
X39447160Y42625464D01*
X39447161Y42625463D01*
X39593233Y42564958D01*
X39593238Y42564956D01*
X39706826Y42550002D01*
X39749999Y42544318D01*
X39750000Y42544318D01*
X39750001Y42544318D01*
X39793174Y42550002D01*
X39906762Y42564956D01*
X40052841Y42625464D01*
X40178282Y42721718D01*
X40274536Y42847159D01*
X40335044Y42993238D01*
X40355682Y43150000D01*
X40335044Y43306762D01*
X40328847Y43321724D01*
X40274537Y43452839D01*
X40274537Y43452840D01*
X40178286Y43578277D01*
X40178285Y43578278D01*
X40178282Y43578282D01*
X40178277Y43578286D01*
X40178276Y43578287D01*
X40052838Y43674538D01*
X39906766Y43735043D01*
X39906758Y43735045D01*
X39750001Y43755682D01*
X39749999Y43755682D01*
X39593241Y43735045D01*
X39593233Y43735043D01*
X39447161Y43674538D01*
X39447160Y43674538D01*
X39321723Y43578287D01*
X39321713Y43578277D01*
X39225462Y43452840D01*
X39225462Y43452839D01*
X39164957Y43306767D01*
X39164955Y43306759D01*
X39144318Y43150001D01*
X25275000Y43150001D01*
X25275000Y43199999D01*
X25274999Y43200000D01*
X24546410Y43200000D01*
X24549444Y43205255D01*
X24575000Y43300630D01*
X24575000Y43399370D01*
X24549444Y43494745D01*
X24546410Y43500000D01*
X25274998Y43500000D01*
X25274999Y43500001D01*
X25274999Y43754204D01*
X25272149Y43784601D01*
X25272149Y43784603D01*
X25227345Y43912648D01*
X25146792Y44021791D01*
X25146790Y44021793D01*
X25037647Y44102346D01*
X24909601Y44147150D01*
X24879211Y44150000D01*
X24350001Y44150000D01*
X24350000Y44149999D01*
X24350000Y43696411D01*
X24344745Y43699444D01*
X24249370Y43725000D01*
X24150630Y43725000D01*
X24055255Y43699444D01*
X24050000Y43696411D01*
X24050000Y44149999D01*
X24049999Y44150000D01*
X23520796Y44150000D01*
X23490399Y44147150D01*
X23490397Y44147150D01*
X23362352Y44102346D01*
X23253209Y44021793D01*
X23253207Y44021791D01*
X23172654Y43912648D01*
X23127850Y43784602D01*
X23125000Y43754212D01*
X3155127Y43754212D01*
X3138793Y43878282D01*
X3135044Y43906762D01*
X3106970Y43974538D01*
X3074537Y44052839D01*
X3074537Y44052840D01*
X2978286Y44178277D01*
X2978285Y44178278D01*
X2978282Y44178282D01*
X2978277Y44178286D01*
X2978276Y44178287D01*
X2852838Y44274538D01*
X2706766Y44335043D01*
X2706758Y44335045D01*
X2550001Y44355682D01*
X2549999Y44355682D01*
X2393241Y44335045D01*
X2393233Y44335043D01*
X2247161Y44274538D01*
X2247160Y44274538D01*
X2121723Y44178287D01*
X2121713Y44178277D01*
X2025462Y44052840D01*
X2025462Y44052839D01*
X1964957Y43906767D01*
X1964955Y43906759D01*
X1944318Y43750001D01*
X550500Y43750001D01*
X550500Y44750001D01*
X17544318Y44750001D01*
X17544318Y44750000D01*
X17564955Y44593242D01*
X17564957Y44593234D01*
X17625462Y44447162D01*
X17625462Y44447161D01*
X17711493Y44335043D01*
X17721718Y44321718D01*
X17847159Y44225464D01*
X17993238Y44164956D01*
X18106841Y44150000D01*
X18149999Y44144318D01*
X18150000Y44144318D01*
X18150001Y44144318D01*
X18181352Y44148446D01*
X18306762Y44164956D01*
X18452841Y44225464D01*
X18578282Y44321718D01*
X18674536Y44447159D01*
X18735044Y44593238D01*
X18755682Y44750000D01*
X18735044Y44906762D01*
X18674537Y45052839D01*
X18674537Y45052840D01*
X18578286Y45178277D01*
X18578285Y45178278D01*
X18578282Y45178282D01*
X18578277Y45178286D01*
X18578276Y45178287D01*
X18457243Y45271158D01*
X18452841Y45274536D01*
X18452840Y45274537D01*
X18452838Y45274538D01*
X18306766Y45335043D01*
X18306758Y45335045D01*
X18150001Y45355682D01*
X18149999Y45355682D01*
X17993241Y45335045D01*
X17993233Y45335043D01*
X17847161Y45274538D01*
X17847160Y45274538D01*
X17721723Y45178287D01*
X17721713Y45178277D01*
X17625462Y45052840D01*
X17625462Y45052839D01*
X17564957Y44906767D01*
X17564955Y44906759D01*
X17544318Y44750001D01*
X550500Y44750001D01*
X550500Y45428845D01*
X23124500Y45428845D01*
X23124500Y45271156D01*
X23155263Y45116504D01*
X23155263Y45116502D01*
X23215603Y44970826D01*
X23215609Y44970815D01*
X23258409Y44906762D01*
X23303211Y44839711D01*
X23414711Y44728211D01*
X23492876Y44675983D01*
X23545814Y44640610D01*
X23545825Y44640604D01*
X23598673Y44618714D01*
X23691503Y44580263D01*
X23846158Y44549500D01*
X23846159Y44549500D01*
X24553841Y44549500D01*
X24553842Y44549500D01*
X24708497Y44580263D01*
X24854179Y44640606D01*
X24985289Y44728211D01*
X25096789Y44839711D01*
X25184394Y44970821D01*
X25244737Y45116503D01*
X25249347Y45139681D01*
X34139489Y45139681D01*
X34139489Y44960320D01*
X34174479Y44784415D01*
X34174479Y44784413D01*
X34243113Y44618714D01*
X34243113Y44618713D01*
X34342759Y44469584D01*
X34342760Y44469583D01*
X34469583Y44342760D01*
X34618711Y44243115D01*
X34784414Y44174479D01*
X34960322Y44139489D01*
X34960323Y44139489D01*
X35139677Y44139489D01*
X35139678Y44139489D01*
X35315586Y44174479D01*
X35481289Y44243115D01*
X35630417Y44342760D01*
X35757240Y44469583D01*
X35856885Y44618711D01*
X35925521Y44784414D01*
X35960511Y44960322D01*
X35960511Y45139678D01*
X35925521Y45315586D01*
X35863650Y45464956D01*
X35856886Y45481287D01*
X35856886Y45481288D01*
X35757240Y45630417D01*
X35630416Y45757241D01*
X35481286Y45856887D01*
X35315586Y45925521D01*
X35139680Y45960511D01*
X35139678Y45960511D01*
X34960322Y45960511D01*
X34960319Y45960511D01*
X34784414Y45925521D01*
X34784412Y45925521D01*
X34618713Y45856887D01*
X34618712Y45856887D01*
X34469583Y45757241D01*
X34342759Y45630417D01*
X34243113Y45481288D01*
X34243113Y45481287D01*
X34174479Y45315588D01*
X34174479Y45315586D01*
X34139489Y45139681D01*
X25249347Y45139681D01*
X25275500Y45271158D01*
X25275500Y45428842D01*
X25244737Y45583497D01*
X25187486Y45721714D01*
X25184396Y45729175D01*
X25184390Y45729186D01*
X25149017Y45782124D01*
X25096789Y45860289D01*
X24985289Y45971789D01*
X24933059Y46006688D01*
X24854185Y46059391D01*
X24854174Y46059397D01*
X24708497Y46119737D01*
X24553844Y46150500D01*
X24553842Y46150500D01*
X23846158Y46150500D01*
X23846155Y46150500D01*
X23691503Y46119737D01*
X23691501Y46119737D01*
X23545825Y46059397D01*
X23545814Y46059391D01*
X23414711Y45971789D01*
X23414707Y45971786D01*
X23303214Y45860293D01*
X23303211Y45860289D01*
X23215609Y45729186D01*
X23215603Y45729175D01*
X23155263Y45583499D01*
X23155263Y45583497D01*
X23124500Y45428845D01*
X550500Y45428845D01*
X550500Y46150001D01*
X2844318Y46150001D01*
X2844318Y46150000D01*
X2864955Y45993242D01*
X2864957Y45993234D01*
X2925462Y45847162D01*
X2925462Y45847161D01*
X3015993Y45729179D01*
X3021718Y45721718D01*
X3147159Y45625464D01*
X3147160Y45625464D01*
X3147161Y45625463D01*
X3156212Y45621714D01*
X3293238Y45564956D01*
X3410809Y45549478D01*
X3449999Y45544318D01*
X3450000Y45544318D01*
X3450001Y45544318D01*
X3481352Y45548446D01*
X3606762Y45564956D01*
X3752841Y45625464D01*
X3878282Y45721718D01*
X3974536Y45847159D01*
X4035044Y45993238D01*
X4055682Y46150000D01*
X4035044Y46306762D01*
X4015958Y46352840D01*
X3974537Y46452839D01*
X3974537Y46452840D01*
X3878286Y46578277D01*
X3878285Y46578278D01*
X3878282Y46578282D01*
X3878277Y46578286D01*
X3878276Y46578287D01*
X3797062Y46640604D01*
X3752841Y46674536D01*
X3752840Y46674537D01*
X3752838Y46674538D01*
X3606766Y46735043D01*
X3606758Y46735045D01*
X3450001Y46755682D01*
X3449999Y46755682D01*
X3293241Y46735045D01*
X3293233Y46735043D01*
X3147161Y46674538D01*
X3147160Y46674538D01*
X3021723Y46578287D01*
X3021713Y46578277D01*
X2925462Y46452840D01*
X2925462Y46452839D01*
X2864957Y46306767D01*
X2864955Y46306759D01*
X2844318Y46150001D01*
X550500Y46150001D01*
X550500Y46850001D01*
X17344318Y46850001D01*
X17344318Y46850000D01*
X17364955Y46693242D01*
X17364957Y46693234D01*
X17425462Y46547162D01*
X17425462Y46547161D01*
X17521713Y46421724D01*
X17521718Y46421718D01*
X17647159Y46325464D01*
X17647160Y46325464D01*
X17647161Y46325463D01*
X17793233Y46264958D01*
X17793238Y46264956D01*
X17910809Y46249478D01*
X17949999Y46244318D01*
X17950000Y46244318D01*
X17950001Y46244318D01*
X17981352Y46248446D01*
X18106762Y46264956D01*
X18252841Y46325464D01*
X18339735Y46392141D01*
X18397408Y46412563D01*
X18456074Y46395186D01*
X18460234Y46392164D01*
X18547159Y46325464D01*
X18547162Y46325463D01*
X18547163Y46325462D01*
X18693233Y46264958D01*
X18693238Y46264956D01*
X18810809Y46249478D01*
X18849999Y46244318D01*
X18850000Y46244318D01*
X18850001Y46244318D01*
X18881352Y46248446D01*
X19006762Y46264956D01*
X19152841Y46325464D01*
X19278282Y46421718D01*
X19374536Y46547159D01*
X19435044Y46693238D01*
X19455682Y46850000D01*
X19443061Y46945866D01*
X19454211Y47006024D01*
X19498593Y47048142D01*
X19554134Y47056939D01*
X19650000Y47044318D01*
X19650001Y47044318D01*
X19688047Y47049327D01*
X19806762Y47064956D01*
X19952841Y47125464D01*
X20078282Y47221718D01*
X20174536Y47347159D01*
X20208372Y47428845D01*
X23124500Y47428845D01*
X23124500Y47271156D01*
X23134333Y47221724D01*
X23154226Y47121714D01*
X23155263Y47116504D01*
X23155263Y47116502D01*
X23215603Y46970826D01*
X23215609Y46970815D01*
X23268312Y46891941D01*
X23303211Y46839711D01*
X23414711Y46728211D01*
X23467046Y46693242D01*
X23545814Y46640610D01*
X23545825Y46640604D01*
X23559251Y46635043D01*
X23691503Y46580263D01*
X23846158Y46549500D01*
X23846159Y46549500D01*
X24553841Y46549500D01*
X24553842Y46549500D01*
X24708497Y46580263D01*
X24854179Y46640606D01*
X24985289Y46728211D01*
X25096789Y46839711D01*
X25184394Y46970821D01*
X25244737Y47116503D01*
X25275500Y47271158D01*
X25275500Y47428842D01*
X25244737Y47583497D01*
X25193681Y47706759D01*
X25184396Y47729175D01*
X25184390Y47729186D01*
X25149017Y47782124D01*
X25096789Y47860289D01*
X24985289Y47971789D01*
X24910565Y48021718D01*
X24854185Y48059391D01*
X24854174Y48059397D01*
X24708497Y48119737D01*
X24553844Y48150500D01*
X24553842Y48150500D01*
X23846158Y48150500D01*
X23846155Y48150500D01*
X23691503Y48119737D01*
X23691501Y48119737D01*
X23545825Y48059397D01*
X23545814Y48059391D01*
X23414711Y47971789D01*
X23414707Y47971786D01*
X23303214Y47860293D01*
X23303211Y47860289D01*
X23215609Y47729186D01*
X23215603Y47729175D01*
X23155263Y47583499D01*
X23155263Y47583497D01*
X23124500Y47428845D01*
X20208372Y47428845D01*
X20235044Y47493238D01*
X20255682Y47650000D01*
X20243061Y47745866D01*
X20254211Y47806024D01*
X20298593Y47848142D01*
X20354134Y47856939D01*
X20450000Y47844318D01*
X20450001Y47844318D01*
X20481352Y47848446D01*
X20606762Y47864956D01*
X20752841Y47925464D01*
X20878282Y48021718D01*
X20974536Y48147159D01*
X21035044Y48293238D01*
X21055682Y48450000D01*
X21035044Y48606762D01*
X20984738Y48728212D01*
X20974537Y48752839D01*
X20974537Y48752840D01*
X20878286Y48878277D01*
X20878285Y48878278D01*
X20878282Y48878282D01*
X20878277Y48878286D01*
X20878276Y48878287D01*
X20803632Y48935563D01*
X20752841Y48974536D01*
X20752840Y48974537D01*
X20752838Y48974538D01*
X20606766Y49035043D01*
X20606758Y49035045D01*
X20450001Y49055682D01*
X20449999Y49055682D01*
X20293241Y49035045D01*
X20293233Y49035043D01*
X20147161Y48974538D01*
X20147160Y48974538D01*
X20021723Y48878287D01*
X20021713Y48878277D01*
X19925462Y48752840D01*
X19925462Y48752839D01*
X19864957Y48606767D01*
X19864955Y48606759D01*
X19844318Y48450001D01*
X19844318Y48450000D01*
X19856938Y48354137D01*
X19845788Y48293976D01*
X19801405Y48251859D01*
X19745863Y48243062D01*
X19650001Y48255682D01*
X19649999Y48255682D01*
X19493241Y48235045D01*
X19493233Y48235043D01*
X19347161Y48174538D01*
X19347160Y48174538D01*
X19221723Y48078287D01*
X19221713Y48078277D01*
X19125462Y47952840D01*
X19125462Y47952839D01*
X19064957Y47806767D01*
X19064955Y47806759D01*
X19044318Y47650001D01*
X19044318Y47650000D01*
X19056938Y47554137D01*
X19045788Y47493976D01*
X19001405Y47451859D01*
X18945863Y47443062D01*
X18850001Y47455682D01*
X18849999Y47455682D01*
X18693241Y47435045D01*
X18693233Y47435043D01*
X18547161Y47374538D01*
X18547160Y47374538D01*
X18460267Y47307862D01*
X18402591Y47287438D01*
X18343925Y47304816D01*
X18339733Y47307862D01*
X18252838Y47374538D01*
X18106766Y47435043D01*
X18106758Y47435045D01*
X17950001Y47455682D01*
X17949999Y47455682D01*
X17793241Y47435045D01*
X17793233Y47435043D01*
X17647161Y47374538D01*
X17647160Y47374538D01*
X17521723Y47278287D01*
X17521713Y47278277D01*
X17425462Y47152840D01*
X17425462Y47152839D01*
X17364957Y47006767D01*
X17364955Y47006759D01*
X17344318Y46850001D01*
X550500Y46850001D01*
X550500Y47550001D01*
X4044318Y47550001D01*
X4044318Y47550000D01*
X4064955Y47393242D01*
X4064957Y47393234D01*
X4125462Y47247162D01*
X4125462Y47247161D01*
X4218844Y47125463D01*
X4221718Y47121718D01*
X4221722Y47121715D01*
X4221723Y47121714D01*
X4242064Y47106106D01*
X4347159Y47025464D01*
X4347160Y47025464D01*
X4347161Y47025463D01*
X4479093Y46970815D01*
X4493238Y46964956D01*
X4610809Y46949478D01*
X4649999Y46944318D01*
X4650000Y46944318D01*
X4650001Y46944318D01*
X4681352Y46948446D01*
X4806762Y46964956D01*
X4952841Y47025464D01*
X5078282Y47121718D01*
X5174536Y47247159D01*
X5235044Y47393238D01*
X5255682Y47550000D01*
X5235044Y47706762D01*
X5193621Y47806767D01*
X5174537Y47852839D01*
X5174537Y47852840D01*
X5078286Y47978277D01*
X5078285Y47978278D01*
X5078282Y47978282D01*
X5078277Y47978286D01*
X5078276Y47978287D01*
X4972574Y48059394D01*
X4952841Y48074536D01*
X4952840Y48074537D01*
X4952838Y48074538D01*
X4806766Y48135043D01*
X4806758Y48135045D01*
X4650001Y48155682D01*
X4649999Y48155682D01*
X4493241Y48135045D01*
X4493233Y48135043D01*
X4347161Y48074538D01*
X4347160Y48074538D01*
X4221723Y47978287D01*
X4221713Y47978277D01*
X4125462Y47852840D01*
X4125462Y47852839D01*
X4064957Y47706767D01*
X4064955Y47706759D01*
X4044318Y47550001D01*
X550500Y47550001D01*
X550500Y49428845D01*
X23124500Y49428845D01*
X23124500Y49271156D01*
X23155263Y49116504D01*
X23155263Y49116502D01*
X23215603Y48970826D01*
X23215609Y48970815D01*
X23268312Y48891941D01*
X23303211Y48839711D01*
X23414711Y48728211D01*
X23492876Y48675983D01*
X23545814Y48640610D01*
X23545825Y48640604D01*
X23599638Y48618315D01*
X23691503Y48580263D01*
X23846158Y48549500D01*
X23846159Y48549500D01*
X24553841Y48549500D01*
X24553842Y48549500D01*
X24708497Y48580263D01*
X24854179Y48640606D01*
X24985289Y48728211D01*
X25096789Y48839711D01*
X25184394Y48970821D01*
X25244737Y49116503D01*
X25275500Y49271158D01*
X25275500Y49428842D01*
X25244737Y49583497D01*
X25184394Y49729179D01*
X25184393Y49729181D01*
X25184390Y49729186D01*
X25132786Y49806415D01*
X25096789Y49860289D01*
X24993904Y49963174D01*
X31544318Y49963174D01*
X31544318Y49963173D01*
X31564955Y49806415D01*
X31564957Y49806407D01*
X31625462Y49660335D01*
X31625462Y49660334D01*
X31684421Y49583497D01*
X31721718Y49534891D01*
X31847159Y49438637D01*
X31847160Y49438637D01*
X31847161Y49438636D01*
X31993233Y49378131D01*
X31993238Y49378129D01*
X32080496Y49366642D01*
X32135720Y49340301D01*
X32137576Y49338493D01*
X32470503Y49005567D01*
X32498281Y48951050D01*
X32499500Y48935563D01*
X32499500Y47082933D01*
X32480593Y47024742D01*
X32479042Y47022666D01*
X32425462Y46952840D01*
X32425462Y46952839D01*
X32364957Y46806767D01*
X32364955Y46806759D01*
X32344318Y46650001D01*
X32344318Y46650000D01*
X32364955Y46493242D01*
X32364957Y46493234D01*
X32425462Y46347162D01*
X32425462Y46347161D01*
X32488540Y46264956D01*
X32521718Y46221718D01*
X32647159Y46125464D01*
X32793238Y46064956D01*
X32906833Y46050001D01*
X32949999Y46044318D01*
X32950000Y46044318D01*
X32950001Y46044318D01*
X32993167Y46050001D01*
X39444318Y46050001D01*
X39444318Y46050000D01*
X39464955Y45893242D01*
X39464957Y45893234D01*
X39525462Y45747162D01*
X39525462Y45747161D01*
X39618844Y45625463D01*
X39621718Y45621718D01*
X39747159Y45525464D01*
X39747160Y45525464D01*
X39747161Y45525463D01*
X39893233Y45464958D01*
X39893238Y45464956D01*
X40010809Y45449478D01*
X40049999Y45444318D01*
X40050000Y45444318D01*
X40050001Y45444318D01*
X40081352Y45448446D01*
X40206762Y45464956D01*
X40352841Y45525464D01*
X40478282Y45621718D01*
X40574536Y45747159D01*
X40635044Y45893238D01*
X40655682Y46050000D01*
X40635044Y46206762D01*
X40585877Y46325462D01*
X40574537Y46352839D01*
X40574537Y46352840D01*
X40478286Y46478277D01*
X40478285Y46478278D01*
X40478282Y46478282D01*
X40478277Y46478286D01*
X40478276Y46478287D01*
X40388517Y46547161D01*
X40352841Y46574536D01*
X40352840Y46574537D01*
X40352838Y46574538D01*
X40206766Y46635043D01*
X40206758Y46635045D01*
X40050001Y46655682D01*
X40049999Y46655682D01*
X39893241Y46635045D01*
X39893233Y46635043D01*
X39747161Y46574538D01*
X39747160Y46574538D01*
X39621723Y46478287D01*
X39621713Y46478277D01*
X39525462Y46352840D01*
X39525462Y46352839D01*
X39464957Y46206767D01*
X39464955Y46206759D01*
X39444318Y46050001D01*
X32993167Y46050001D01*
X33106762Y46064956D01*
X33252841Y46125464D01*
X33378282Y46221718D01*
X33474536Y46347159D01*
X33535044Y46493238D01*
X33555682Y46650000D01*
X33535044Y46806762D01*
X33517134Y46850001D01*
X33474537Y46952839D01*
X33474537Y46952840D01*
X33420958Y47022666D01*
X33400534Y47080342D01*
X33400500Y47082933D01*
X33400500Y49222481D01*
X33369800Y49337055D01*
X33369799Y49337059D01*
X33369799Y49337060D01*
X33310490Y49439787D01*
X32774680Y49975597D01*
X32746903Y50030114D01*
X32746531Y50032679D01*
X32743014Y50059391D01*
X32735044Y50119935D01*
X32674537Y50266012D01*
X32674537Y50266013D01*
X32578286Y50391450D01*
X32578285Y50391451D01*
X32578282Y50391455D01*
X32578277Y50391459D01*
X32578276Y50391460D01*
X32452838Y50487711D01*
X32306766Y50548216D01*
X32306758Y50548218D01*
X32150001Y50568855D01*
X32149999Y50568855D01*
X31993241Y50548218D01*
X31993233Y50548216D01*
X31847161Y50487711D01*
X31847160Y50487711D01*
X31721723Y50391460D01*
X31721713Y50391450D01*
X31625462Y50266013D01*
X31625462Y50266012D01*
X31564957Y50119940D01*
X31564955Y50119932D01*
X31544318Y49963174D01*
X24993904Y49963174D01*
X24985289Y49971789D01*
X24898000Y50030114D01*
X24854185Y50059391D01*
X24854174Y50059397D01*
X24708497Y50119737D01*
X24553844Y50150500D01*
X24553842Y50150500D01*
X23846158Y50150500D01*
X23846155Y50150500D01*
X23691503Y50119737D01*
X23691501Y50119737D01*
X23545825Y50059397D01*
X23545814Y50059391D01*
X23414711Y49971789D01*
X23414707Y49971786D01*
X23303214Y49860293D01*
X23303211Y49860289D01*
X23215609Y49729186D01*
X23215603Y49729175D01*
X23155263Y49583499D01*
X23155263Y49583497D01*
X23124500Y49428845D01*
X550500Y49428845D01*
X550500Y51950001D01*
X2444318Y51950001D01*
X2444318Y51950000D01*
X2464955Y51793242D01*
X2464957Y51793234D01*
X2525462Y51647162D01*
X2525462Y51647161D01*
X2621713Y51521724D01*
X2621718Y51521718D01*
X2747159Y51425464D01*
X2747160Y51425464D01*
X2747161Y51425463D01*
X2765200Y51417991D01*
X2893238Y51364956D01*
X3010809Y51349478D01*
X3049999Y51344318D01*
X3050000Y51344318D01*
X3050001Y51344318D01*
X3081352Y51348446D01*
X3206762Y51364956D01*
X3352841Y51425464D01*
X3478282Y51521718D01*
X3574536Y51647159D01*
X3635044Y51793238D01*
X3655682Y51950000D01*
X3635044Y52106762D01*
X3613075Y52159800D01*
X3574537Y52252839D01*
X3574537Y52252840D01*
X3478286Y52378277D01*
X3478285Y52378278D01*
X3478282Y52378282D01*
X3478277Y52378286D01*
X3478276Y52378287D01*
X3407104Y52432899D01*
X3352841Y52474536D01*
X3352840Y52474537D01*
X3352838Y52474538D01*
X3206766Y52535043D01*
X3206758Y52535045D01*
X3050001Y52555682D01*
X3049999Y52555682D01*
X2893241Y52535045D01*
X2893233Y52535043D01*
X2747161Y52474538D01*
X2747160Y52474538D01*
X2621723Y52378287D01*
X2621713Y52378277D01*
X2525462Y52252840D01*
X2525462Y52252839D01*
X2464957Y52106767D01*
X2464955Y52106759D01*
X2444318Y51950001D01*
X550500Y51950001D01*
X550500Y52950001D01*
X4344318Y52950001D01*
X4344318Y52950000D01*
X4364955Y52793242D01*
X4364957Y52793234D01*
X4425462Y52647162D01*
X4425462Y52647161D01*
X4511493Y52535043D01*
X4521718Y52521718D01*
X4521722Y52521715D01*
X4521723Y52521714D01*
X4610767Y52453388D01*
X4645423Y52402963D01*
X4649500Y52374846D01*
X4649500Y52010436D01*
X4669978Y51934012D01*
X4669980Y51934008D01*
X4702549Y51877598D01*
X4709540Y51865489D01*
X4765489Y51809540D01*
X4765491Y51809539D01*
X4834007Y51769981D01*
X4834011Y51769979D01*
X4910435Y51749501D01*
X4910437Y51749500D01*
X4910438Y51749500D01*
X21259953Y51749500D01*
X21318144Y51730593D01*
X21354108Y51681093D01*
X21358105Y51637580D01*
X21349835Y51574758D01*
X21349835Y51574757D01*
X21370472Y51417999D01*
X21370474Y51417991D01*
X21430979Y51271919D01*
X21430979Y51271918D01*
X21430981Y51271916D01*
X21527235Y51146475D01*
X21652676Y51050221D01*
X21798755Y50989713D01*
X21916326Y50974235D01*
X21955516Y50969075D01*
X21955517Y50969075D01*
X21955518Y50969075D01*
X21986869Y50973203D01*
X22112279Y50989713D01*
X22258358Y51050221D01*
X22383799Y51146475D01*
X22480053Y51271916D01*
X22540561Y51417995D01*
X22561199Y51574757D01*
X22540561Y51731519D01*
X22524630Y51769979D01*
X22480054Y51877596D01*
X22480054Y51877597D01*
X22383803Y52003034D01*
X22383802Y52003035D01*
X22383799Y52003039D01*
X22383794Y52003043D01*
X22383793Y52003044D01*
X22312621Y52057656D01*
X22258358Y52099293D01*
X22258357Y52099294D01*
X22258355Y52099295D01*
X22112283Y52159800D01*
X22112275Y52159802D01*
X21955518Y52180439D01*
X21955515Y52180439D01*
X21844232Y52165789D01*
X21784072Y52176939D01*
X21761308Y52193938D01*
X21664784Y52290461D01*
X21596266Y52330020D01*
X21596262Y52330022D01*
X21519838Y52350500D01*
X21519836Y52350500D01*
X5446071Y52350500D01*
X5387880Y52369407D01*
X5351916Y52418907D01*
X5351916Y52480093D01*
X5376067Y52519504D01*
X5378273Y52521712D01*
X5378282Y52521718D01*
X5468689Y52639539D01*
X34139489Y52639539D01*
X34139489Y52460178D01*
X34174479Y52284273D01*
X34174479Y52284271D01*
X34243113Y52118572D01*
X34243113Y52118571D01*
X34342759Y51969442D01*
X34342760Y51969441D01*
X34469583Y51842618D01*
X34618711Y51742973D01*
X34618712Y51742973D01*
X34618713Y51742972D01*
X34646371Y51731516D01*
X34784414Y51674337D01*
X34960322Y51639347D01*
X34960323Y51639347D01*
X35139677Y51639347D01*
X35139678Y51639347D01*
X35315586Y51674337D01*
X35481289Y51742973D01*
X35630417Y51842618D01*
X35757240Y51969441D01*
X35856885Y52118569D01*
X35925521Y52284272D01*
X35960511Y52460180D01*
X35960511Y52639536D01*
X35925521Y52815444D01*
X35870962Y52947162D01*
X35856886Y52981145D01*
X35856886Y52981146D01*
X35757240Y53130275D01*
X35630416Y53257099D01*
X35481286Y53356745D01*
X35315586Y53425379D01*
X35139680Y53460369D01*
X35139678Y53460369D01*
X34960322Y53460369D01*
X34960319Y53460369D01*
X34784414Y53425379D01*
X34784412Y53425379D01*
X34618713Y53356745D01*
X34618712Y53356745D01*
X34469583Y53257099D01*
X34342759Y53130275D01*
X34243113Y52981146D01*
X34243113Y52981145D01*
X34174479Y52815446D01*
X34174479Y52815444D01*
X34139489Y52639539D01*
X5468689Y52639539D01*
X5474536Y52647159D01*
X5535044Y52793238D01*
X5555682Y52950000D01*
X5535044Y53106762D01*
X5475713Y53250000D01*
X5475713Y53250001D01*
X18544318Y53250001D01*
X18544318Y53250000D01*
X18564955Y53093242D01*
X18564957Y53093234D01*
X18625462Y52947162D01*
X18625462Y52947161D01*
X18625464Y52947159D01*
X18721718Y52821718D01*
X18847159Y52725464D01*
X18993238Y52664956D01*
X19110809Y52649478D01*
X19149999Y52644318D01*
X19150000Y52644318D01*
X19150001Y52644318D01*
X19181352Y52648446D01*
X19306762Y52664956D01*
X19452841Y52725464D01*
X19578282Y52821718D01*
X19674536Y52947159D01*
X19735044Y53093238D01*
X19755682Y53250000D01*
X19754747Y53257099D01*
X19740548Y53364956D01*
X19735044Y53406762D01*
X19687425Y53521724D01*
X19674537Y53552839D01*
X19674537Y53552840D01*
X19578286Y53678277D01*
X19578285Y53678278D01*
X19578282Y53678282D01*
X19578277Y53678286D01*
X19578276Y53678287D01*
X19488517Y53747161D01*
X19452841Y53774536D01*
X19452840Y53774537D01*
X19452838Y53774538D01*
X19306766Y53835043D01*
X19306758Y53835045D01*
X19150001Y53855682D01*
X19149999Y53855682D01*
X18993241Y53835045D01*
X18993233Y53835043D01*
X18847161Y53774538D01*
X18847160Y53774538D01*
X18721723Y53678287D01*
X18721713Y53678277D01*
X18625462Y53552840D01*
X18625462Y53552839D01*
X18564957Y53406767D01*
X18564955Y53406759D01*
X18544318Y53250001D01*
X5475713Y53250001D01*
X5474537Y53252839D01*
X5474537Y53252840D01*
X5378286Y53378277D01*
X5378285Y53378278D01*
X5378282Y53378282D01*
X5378277Y53378286D01*
X5378276Y53378287D01*
X5252838Y53474538D01*
X5106766Y53535043D01*
X5106758Y53535045D01*
X4950001Y53555682D01*
X4949999Y53555682D01*
X4793241Y53535045D01*
X4793233Y53535043D01*
X4647161Y53474538D01*
X4647160Y53474538D01*
X4521723Y53378287D01*
X4521713Y53378277D01*
X4425462Y53252840D01*
X4425462Y53252839D01*
X4364957Y53106767D01*
X4364955Y53106759D01*
X4344318Y52950001D01*
X550500Y52950001D01*
X550500Y54050001D01*
X17344318Y54050001D01*
X17344318Y54050000D01*
X17364955Y53893242D01*
X17364957Y53893234D01*
X17425462Y53747162D01*
X17425462Y53747161D01*
X17502194Y53647162D01*
X17521718Y53621718D01*
X17647159Y53525464D01*
X17647160Y53525464D01*
X17647161Y53525463D01*
X17656212Y53521714D01*
X17793238Y53464956D01*
X17910809Y53449478D01*
X17949999Y53444318D01*
X17950000Y53444318D01*
X17950001Y53444318D01*
X17981352Y53448446D01*
X18106762Y53464956D01*
X18252841Y53525464D01*
X18378282Y53621718D01*
X18474536Y53747159D01*
X18535044Y53893238D01*
X18555682Y54050000D01*
X18535044Y54206762D01*
X18515958Y54252840D01*
X18474537Y54352839D01*
X18474537Y54352840D01*
X18378286Y54478277D01*
X18378285Y54478278D01*
X18378282Y54478282D01*
X18378277Y54478286D01*
X18378276Y54478287D01*
X18288517Y54547161D01*
X18252841Y54574536D01*
X18252840Y54574537D01*
X18252838Y54574538D01*
X18106766Y54635043D01*
X18106758Y54635045D01*
X17950001Y54655682D01*
X17949999Y54655682D01*
X17793241Y54635045D01*
X17793233Y54635043D01*
X17647161Y54574538D01*
X17647160Y54574538D01*
X17521723Y54478287D01*
X17521713Y54478277D01*
X17425462Y54352840D01*
X17425462Y54352839D01*
X17364957Y54206767D01*
X17364955Y54206759D01*
X17344318Y54050001D01*
X550500Y54050001D01*
X550500Y55250001D01*
X2144318Y55250001D01*
X2144318Y55250000D01*
X2164955Y55093242D01*
X2164957Y55093234D01*
X2225462Y54947162D01*
X2225462Y54947161D01*
X2321713Y54821724D01*
X2321718Y54821718D01*
X2447159Y54725464D01*
X2447160Y54725464D01*
X2447161Y54725463D01*
X2561875Y54677947D01*
X2593238Y54664956D01*
X2710809Y54649478D01*
X2749999Y54644318D01*
X2750000Y54644318D01*
X2750001Y54644318D01*
X2781352Y54648446D01*
X2906762Y54664956D01*
X3052841Y54725464D01*
X3178282Y54821718D01*
X3274536Y54947159D01*
X3335044Y55093238D01*
X3355682Y55250000D01*
X3351958Y55278283D01*
X3349034Y55300500D01*
X3335044Y55406762D01*
X3286594Y55523731D01*
X3274537Y55552839D01*
X3274537Y55552840D01*
X3178286Y55678277D01*
X3178285Y55678278D01*
X3178282Y55678282D01*
X3178277Y55678286D01*
X3178276Y55678287D01*
X3088517Y55747161D01*
X3052841Y55774536D01*
X3052840Y55774537D01*
X3052838Y55774538D01*
X2906766Y55835043D01*
X2906758Y55835045D01*
X2750001Y55855682D01*
X2749999Y55855682D01*
X2593241Y55835045D01*
X2593233Y55835043D01*
X2447161Y55774538D01*
X2447160Y55774538D01*
X2321723Y55678287D01*
X2321713Y55678277D01*
X2225462Y55552840D01*
X2225462Y55552839D01*
X2164957Y55406767D01*
X2164955Y55406759D01*
X2144318Y55250001D01*
X550500Y55250001D01*
X550500Y56050001D01*
X17144318Y56050001D01*
X17144318Y56050000D01*
X17164955Y55893242D01*
X17164957Y55893234D01*
X17225462Y55747162D01*
X17225462Y55747161D01*
X17321713Y55621724D01*
X17321718Y55621718D01*
X17447159Y55525464D01*
X17447160Y55525464D01*
X17447161Y55525463D01*
X17516932Y55496563D01*
X17593238Y55464956D01*
X17710809Y55449478D01*
X17749999Y55444318D01*
X17750000Y55444318D01*
X17750001Y55444318D01*
X17781352Y55448446D01*
X17906762Y55464956D01*
X18052841Y55525464D01*
X18178282Y55621718D01*
X18271458Y55743149D01*
X18321882Y55777804D01*
X18383047Y55776203D01*
X18428541Y55743149D01*
X18521718Y55621718D01*
X18647159Y55525464D01*
X18647160Y55525464D01*
X18647161Y55525463D01*
X18716932Y55496563D01*
X18793238Y55464956D01*
X18910809Y55449478D01*
X18949999Y55444318D01*
X18950000Y55444318D01*
X18950001Y55444318D01*
X18981352Y55448446D01*
X19106762Y55464956D01*
X19248657Y55523732D01*
X19309652Y55528532D01*
X19361821Y55496563D01*
X19385236Y55440035D01*
X19385065Y55422567D01*
X19382843Y55399999D01*
X19382843Y55399997D01*
X19401425Y55211322D01*
X19401426Y55211317D01*
X19456463Y55029885D01*
X19456465Y55029880D01*
X19468822Y55006762D01*
X19545838Y54862676D01*
X19545840Y54862674D01*
X19545841Y54862672D01*
X19603410Y54792525D01*
X19666117Y54716117D01*
X19812676Y54595838D01*
X19979885Y54506463D01*
X20085136Y54474536D01*
X20161316Y54451427D01*
X20161321Y54451426D01*
X20349997Y54432843D01*
X20350000Y54432843D01*
X20350003Y54432843D01*
X20538678Y54451426D01*
X20538683Y54451427D01*
X20570350Y54461033D01*
X20720115Y54506463D01*
X20887324Y54595838D01*
X21033883Y54716117D01*
X21154162Y54862676D01*
X21243537Y55029885D01*
X21298573Y55211317D01*
X21298574Y55211322D01*
X21317157Y55399997D01*
X21317157Y55400004D01*
X21882843Y55400004D01*
X21882843Y55399997D01*
X21901425Y55211322D01*
X21901426Y55211317D01*
X21956463Y55029885D01*
X21956465Y55029880D01*
X21968822Y55006762D01*
X22045838Y54862676D01*
X22045840Y54862674D01*
X22045841Y54862672D01*
X22103410Y54792525D01*
X22166117Y54716117D01*
X22312676Y54595838D01*
X22479885Y54506463D01*
X22585136Y54474536D01*
X22661316Y54451427D01*
X22661321Y54451426D01*
X22849997Y54432843D01*
X22850000Y54432843D01*
X22850003Y54432843D01*
X23038678Y54451426D01*
X23038683Y54451427D01*
X23070350Y54461033D01*
X23220115Y54506463D01*
X23387324Y54595838D01*
X23533883Y54716117D01*
X23654162Y54862676D01*
X23743537Y55029885D01*
X23798573Y55211317D01*
X23798574Y55211322D01*
X23817157Y55399997D01*
X23817157Y55400004D01*
X25382843Y55400004D01*
X25382843Y55399997D01*
X25401425Y55211322D01*
X25401426Y55211317D01*
X25456463Y55029885D01*
X25456465Y55029880D01*
X25468822Y55006762D01*
X25545838Y54862676D01*
X25545840Y54862674D01*
X25545841Y54862672D01*
X25603410Y54792525D01*
X25666117Y54716117D01*
X25812676Y54595838D01*
X25979885Y54506463D01*
X26085136Y54474536D01*
X26161316Y54451427D01*
X26161321Y54451426D01*
X26349997Y54432843D01*
X26350000Y54432843D01*
X26350003Y54432843D01*
X26538678Y54451426D01*
X26538683Y54451427D01*
X26570350Y54461033D01*
X26720115Y54506463D01*
X26887324Y54595838D01*
X27033883Y54716117D01*
X27154162Y54862676D01*
X27243537Y55029885D01*
X27298573Y55211317D01*
X27298574Y55211322D01*
X27317157Y55399997D01*
X27317157Y55400004D01*
X27782843Y55400004D01*
X27782843Y55399997D01*
X27801425Y55211322D01*
X27801426Y55211317D01*
X27856463Y55029885D01*
X27856465Y55029880D01*
X27868822Y55006762D01*
X27945838Y54862676D01*
X27945840Y54862674D01*
X27945841Y54862672D01*
X28003410Y54792525D01*
X28066117Y54716117D01*
X28212676Y54595838D01*
X28379885Y54506463D01*
X28485136Y54474536D01*
X28561316Y54451427D01*
X28561321Y54451426D01*
X28749997Y54432843D01*
X28750000Y54432843D01*
X28750003Y54432843D01*
X28938678Y54451426D01*
X28938683Y54451427D01*
X28970350Y54461033D01*
X29120115Y54506463D01*
X29287324Y54595838D01*
X29433883Y54716117D01*
X29543760Y54850001D01*
X30644318Y54850001D01*
X30644318Y54850000D01*
X30664955Y54693242D01*
X30664957Y54693234D01*
X30725462Y54547162D01*
X30725462Y54547161D01*
X30821713Y54421724D01*
X30821718Y54421718D01*
X30947159Y54325464D01*
X31093238Y54264956D01*
X31210809Y54249478D01*
X31249999Y54244318D01*
X31250000Y54244318D01*
X31250001Y54244318D01*
X31281352Y54248446D01*
X31406762Y54264956D01*
X31552841Y54325464D01*
X31622665Y54379043D01*
X31680341Y54399466D01*
X31682932Y54399500D01*
X32922389Y54399500D01*
X32980580Y54380593D01*
X32992393Y54370504D01*
X33425318Y53937579D01*
X33453095Y53883062D01*
X33453467Y53880498D01*
X33464956Y53793238D01*
X33525462Y53647162D01*
X33525462Y53647161D01*
X33618844Y53525463D01*
X33621718Y53521718D01*
X33747159Y53425464D01*
X33747160Y53425464D01*
X33747161Y53425463D01*
X33861054Y53378287D01*
X33893238Y53364956D01*
X34010809Y53349478D01*
X34049999Y53344318D01*
X34050000Y53344318D01*
X34050001Y53344318D01*
X34081352Y53348446D01*
X34206762Y53364956D01*
X34352841Y53425464D01*
X34478282Y53521718D01*
X34574536Y53647159D01*
X34635044Y53793238D01*
X34655682Y53950000D01*
X34635044Y54106762D01*
X34593621Y54206767D01*
X34574537Y54252839D01*
X34574537Y54252840D01*
X34478286Y54378277D01*
X34478285Y54378278D01*
X34478282Y54378282D01*
X34478277Y54378286D01*
X34478276Y54378287D01*
X34407104Y54432899D01*
X34352841Y54474536D01*
X34352840Y54474537D01*
X34352838Y54474538D01*
X34206762Y54535044D01*
X34119502Y54546533D01*
X34064277Y54572875D01*
X34062421Y54574682D01*
X33774421Y54862682D01*
X33426614Y55210489D01*
X33426611Y55210491D01*
X33426610Y55210492D01*
X33426609Y55210493D01*
X33323892Y55269797D01*
X33323889Y55269798D01*
X33323887Y55269799D01*
X33292227Y55278282D01*
X33209309Y55300500D01*
X33209308Y55300500D01*
X31682932Y55300500D01*
X31624741Y55319407D01*
X31622684Y55320944D01*
X31552841Y55374536D01*
X31552840Y55374537D01*
X31552838Y55374538D01*
X31406766Y55435043D01*
X31406758Y55435045D01*
X31250001Y55455682D01*
X31249999Y55455682D01*
X31093241Y55435045D01*
X31093233Y55435043D01*
X30947161Y55374538D01*
X30947160Y55374538D01*
X30821723Y55278287D01*
X30821713Y55278277D01*
X30725462Y55152840D01*
X30725462Y55152839D01*
X30664957Y55006767D01*
X30664955Y55006759D01*
X30644318Y54850001D01*
X29543760Y54850001D01*
X29554162Y54862676D01*
X29643537Y55029885D01*
X29698573Y55211317D01*
X29698574Y55211322D01*
X29717157Y55399997D01*
X29717157Y55400004D01*
X29698574Y55588679D01*
X29698573Y55588684D01*
X29651717Y55743148D01*
X29643537Y55770115D01*
X29554162Y55937324D01*
X29433883Y56083883D01*
X29394626Y56116101D01*
X29287328Y56204159D01*
X29287326Y56204160D01*
X29287324Y56204162D01*
X29247471Y56225464D01*
X29120120Y56293535D01*
X29120115Y56293537D01*
X28938683Y56348574D01*
X28938678Y56348575D01*
X28750003Y56367157D01*
X28749997Y56367157D01*
X28561321Y56348575D01*
X28561316Y56348574D01*
X28379884Y56293537D01*
X28379879Y56293535D01*
X28212681Y56204165D01*
X28212671Y56204159D01*
X28066121Y56083887D01*
X28066113Y56083879D01*
X27945841Y55937329D01*
X27945835Y55937319D01*
X27856465Y55770121D01*
X27856463Y55770116D01*
X27801426Y55588684D01*
X27801425Y55588679D01*
X27782843Y55400004D01*
X27317157Y55400004D01*
X27298574Y55588679D01*
X27298573Y55588684D01*
X27251717Y55743148D01*
X27243537Y55770115D01*
X27154162Y55937324D01*
X27033883Y56083883D01*
X26994626Y56116101D01*
X26887328Y56204159D01*
X26887326Y56204160D01*
X26887324Y56204162D01*
X26847471Y56225464D01*
X26720120Y56293535D01*
X26720115Y56293537D01*
X26538683Y56348574D01*
X26538678Y56348575D01*
X26350003Y56367157D01*
X26349997Y56367157D01*
X26161321Y56348575D01*
X26161316Y56348574D01*
X25979884Y56293537D01*
X25979879Y56293535D01*
X25812681Y56204165D01*
X25812671Y56204159D01*
X25666121Y56083887D01*
X25666113Y56083879D01*
X25545841Y55937329D01*
X25545835Y55937319D01*
X25456465Y55770121D01*
X25456463Y55770116D01*
X25401426Y55588684D01*
X25401425Y55588679D01*
X25382843Y55400004D01*
X23817157Y55400004D01*
X23798574Y55588679D01*
X23798573Y55588684D01*
X23751717Y55743148D01*
X23743537Y55770115D01*
X23654162Y55937324D01*
X23533883Y56083883D01*
X23494626Y56116101D01*
X23387328Y56204159D01*
X23387326Y56204160D01*
X23387324Y56204162D01*
X23347471Y56225464D01*
X23220120Y56293535D01*
X23220115Y56293537D01*
X23038683Y56348574D01*
X23038678Y56348575D01*
X22850003Y56367157D01*
X22849997Y56367157D01*
X22661321Y56348575D01*
X22661316Y56348574D01*
X22479884Y56293537D01*
X22479879Y56293535D01*
X22312681Y56204165D01*
X22312671Y56204159D01*
X22166121Y56083887D01*
X22166113Y56083879D01*
X22045841Y55937329D01*
X22045835Y55937319D01*
X21956465Y55770121D01*
X21956463Y55770116D01*
X21901426Y55588684D01*
X21901425Y55588679D01*
X21882843Y55400004D01*
X21317157Y55400004D01*
X21298574Y55588679D01*
X21298573Y55588684D01*
X21251717Y55743148D01*
X21243537Y55770115D01*
X21154162Y55937324D01*
X21033883Y56083883D01*
X20994626Y56116101D01*
X20887328Y56204159D01*
X20887326Y56204160D01*
X20887324Y56204162D01*
X20847471Y56225464D01*
X20720120Y56293535D01*
X20720115Y56293537D01*
X20538683Y56348574D01*
X20538678Y56348575D01*
X20350003Y56367157D01*
X20349997Y56367157D01*
X20161321Y56348575D01*
X20161316Y56348574D01*
X19979884Y56293537D01*
X19979879Y56293535D01*
X19812681Y56204165D01*
X19812671Y56204159D01*
X19700130Y56111798D01*
X19643153Y56089498D01*
X19583950Y56104947D01*
X19545135Y56152243D01*
X19539172Y56175405D01*
X19535044Y56206762D01*
X19527297Y56225464D01*
X19474537Y56352839D01*
X19474537Y56352840D01*
X19378286Y56478277D01*
X19378285Y56478278D01*
X19378282Y56478282D01*
X19378277Y56478286D01*
X19378276Y56478287D01*
X19252838Y56574538D01*
X19106766Y56635043D01*
X19106758Y56635045D01*
X18950001Y56655682D01*
X18949999Y56655682D01*
X18793241Y56635045D01*
X18793233Y56635043D01*
X18647161Y56574538D01*
X18647160Y56574538D01*
X18521723Y56478287D01*
X18521713Y56478277D01*
X18428542Y56356853D01*
X18378117Y56322197D01*
X18316953Y56323799D01*
X18271458Y56356853D01*
X18178286Y56478277D01*
X18178285Y56478278D01*
X18178282Y56478282D01*
X18178277Y56478286D01*
X18178276Y56478287D01*
X18052838Y56574538D01*
X17906766Y56635043D01*
X17906758Y56635045D01*
X17750001Y56655682D01*
X17749999Y56655682D01*
X17593241Y56635045D01*
X17593233Y56635043D01*
X17447161Y56574538D01*
X17447160Y56574538D01*
X17321723Y56478287D01*
X17321713Y56478277D01*
X17225462Y56352840D01*
X17225462Y56352839D01*
X17164957Y56206767D01*
X17164955Y56206759D01*
X17144318Y56050001D01*
X550500Y56050001D01*
X550500Y56750001D01*
X4144318Y56750001D01*
X4144318Y56750000D01*
X4164955Y56593242D01*
X4164957Y56593234D01*
X4225462Y56447162D01*
X4225462Y56447161D01*
X4301111Y56348573D01*
X4321718Y56321718D01*
X4447159Y56225464D01*
X4447160Y56225464D01*
X4447161Y56225463D01*
X4568012Y56175405D01*
X4593238Y56164956D01*
X4710809Y56149478D01*
X4749999Y56144318D01*
X4750000Y56144318D01*
X4750001Y56144318D01*
X4781352Y56148446D01*
X4906762Y56164956D01*
X5052841Y56225464D01*
X5178282Y56321718D01*
X5274536Y56447159D01*
X5335044Y56593238D01*
X5355682Y56750000D01*
X5335044Y56906762D01*
X5274537Y57052839D01*
X5274537Y57052840D01*
X5178286Y57178277D01*
X5178285Y57178278D01*
X5178282Y57178282D01*
X5178277Y57178286D01*
X5178276Y57178287D01*
X5052838Y57274538D01*
X4906766Y57335043D01*
X4906758Y57335045D01*
X4750001Y57355682D01*
X4749999Y57355682D01*
X4593241Y57335045D01*
X4593233Y57335043D01*
X4447161Y57274538D01*
X4447160Y57274538D01*
X4321723Y57178287D01*
X4321713Y57178277D01*
X4225462Y57052840D01*
X4225462Y57052839D01*
X4164957Y56906767D01*
X4164955Y56906759D01*
X4144318Y56750001D01*
X550500Y56750001D01*
X550500Y60300004D01*
X19382843Y60300004D01*
X19382843Y60299997D01*
X19401425Y60111322D01*
X19401426Y60111317D01*
X19456463Y59929885D01*
X19456465Y59929880D01*
X19524797Y59802041D01*
X19545838Y59762676D01*
X19666117Y59616117D01*
X19812676Y59495838D01*
X19979885Y59406463D01*
X20106280Y59368123D01*
X20161316Y59351427D01*
X20161321Y59351426D01*
X20349997Y59332843D01*
X20350000Y59332843D01*
X20350003Y59332843D01*
X20538678Y59351426D01*
X20538683Y59351427D01*
X20720115Y59406463D01*
X20887324Y59495838D01*
X21033883Y59616117D01*
X21154162Y59762676D01*
X21243537Y59929885D01*
X21298573Y60111317D01*
X21298574Y60111322D01*
X21317157Y60299997D01*
X21317157Y60300004D01*
X21882843Y60300004D01*
X21882843Y60299997D01*
X21901425Y60111322D01*
X21901426Y60111317D01*
X21956463Y59929885D01*
X21956465Y59929880D01*
X22024797Y59802041D01*
X22045838Y59762676D01*
X22166117Y59616117D01*
X22312676Y59495838D01*
X22479885Y59406463D01*
X22606280Y59368123D01*
X22661316Y59351427D01*
X22661321Y59351426D01*
X22849997Y59332843D01*
X22850000Y59332843D01*
X22850003Y59332843D01*
X23038678Y59351426D01*
X23038683Y59351427D01*
X23220115Y59406463D01*
X23387324Y59495838D01*
X23533883Y59616117D01*
X23654162Y59762676D01*
X23743537Y59929885D01*
X23798573Y60111317D01*
X23798574Y60111322D01*
X23817157Y60299997D01*
X23817157Y60300004D01*
X25382843Y60300004D01*
X25382843Y60299997D01*
X25401425Y60111322D01*
X25401426Y60111317D01*
X25456463Y59929885D01*
X25456465Y59929880D01*
X25524797Y59802041D01*
X25545838Y59762676D01*
X25666117Y59616117D01*
X25812676Y59495838D01*
X25979885Y59406463D01*
X26106280Y59368123D01*
X26161316Y59351427D01*
X26161321Y59351426D01*
X26349997Y59332843D01*
X26350000Y59332843D01*
X26350003Y59332843D01*
X26538678Y59351426D01*
X26538683Y59351427D01*
X26720115Y59406463D01*
X26887324Y59495838D01*
X27033883Y59616117D01*
X27154162Y59762676D01*
X27243537Y59929885D01*
X27298573Y60111317D01*
X27298574Y60111322D01*
X27317157Y60299997D01*
X27317157Y60300004D01*
X27782843Y60300004D01*
X27782843Y60299997D01*
X27801425Y60111322D01*
X27801426Y60111317D01*
X27856463Y59929885D01*
X27856465Y59929880D01*
X27924797Y59802041D01*
X27945838Y59762676D01*
X28066117Y59616117D01*
X28212676Y59495838D01*
X28379885Y59406463D01*
X28506280Y59368123D01*
X28561316Y59351427D01*
X28561321Y59351426D01*
X28749997Y59332843D01*
X28750000Y59332843D01*
X28750003Y59332843D01*
X28924210Y59350001D01*
X38344318Y59350001D01*
X38344318Y59350000D01*
X38364955Y59193242D01*
X38364957Y59193234D01*
X38425462Y59047162D01*
X38425462Y59047161D01*
X38514785Y58930753D01*
X38521718Y58921718D01*
X38647159Y58825464D01*
X38793238Y58764956D01*
X38910809Y58749478D01*
X38949999Y58744318D01*
X38950000Y58744318D01*
X38950001Y58744318D01*
X38981352Y58748446D01*
X39106762Y58764956D01*
X39252841Y58825464D01*
X39378282Y58921718D01*
X39474536Y59047159D01*
X39535044Y59193238D01*
X39555682Y59350000D01*
X39535044Y59506762D01*
X39474537Y59652839D01*
X39474537Y59652840D01*
X39378286Y59778277D01*
X39378285Y59778278D01*
X39378282Y59778282D01*
X39378277Y59778286D01*
X39378276Y59778287D01*
X39252838Y59874538D01*
X39106766Y59935043D01*
X39106758Y59935045D01*
X38950001Y59955682D01*
X38949999Y59955682D01*
X38793241Y59935045D01*
X38793233Y59935043D01*
X38647161Y59874538D01*
X38647160Y59874538D01*
X38521723Y59778287D01*
X38521713Y59778277D01*
X38425462Y59652840D01*
X38425462Y59652839D01*
X38364957Y59506767D01*
X38364955Y59506759D01*
X38344318Y59350001D01*
X28924210Y59350001D01*
X28938678Y59351426D01*
X28938683Y59351427D01*
X29120115Y59406463D01*
X29287324Y59495838D01*
X29433883Y59616117D01*
X29554162Y59762676D01*
X29643537Y59929885D01*
X29698573Y60111317D01*
X29698574Y60111322D01*
X29717157Y60299997D01*
X29717157Y60300004D01*
X29698574Y60488679D01*
X29698573Y60488684D01*
X29679973Y60550001D01*
X30744318Y60550001D01*
X30744318Y60550000D01*
X30764955Y60393242D01*
X30764957Y60393234D01*
X30825462Y60247162D01*
X30825462Y60247161D01*
X30825464Y60247159D01*
X30921718Y60121718D01*
X31047159Y60025464D01*
X31193238Y59964956D01*
X31310809Y59949478D01*
X31349999Y59944318D01*
X31350000Y59944318D01*
X31350001Y59944318D01*
X31381352Y59948446D01*
X31506762Y59964956D01*
X31652841Y60025464D01*
X31778282Y60121718D01*
X31874536Y60247159D01*
X31935044Y60393238D01*
X31955682Y60550000D01*
X31935044Y60706762D01*
X31935042Y60706767D01*
X31874537Y60852839D01*
X31874537Y60852840D01*
X31778286Y60978277D01*
X31778285Y60978278D01*
X31778282Y60978282D01*
X31778277Y60978286D01*
X31778276Y60978287D01*
X31652838Y61074538D01*
X31506766Y61135043D01*
X31506758Y61135045D01*
X31350001Y61155682D01*
X31349999Y61155682D01*
X31193241Y61135045D01*
X31193233Y61135043D01*
X31047161Y61074538D01*
X31047160Y61074538D01*
X30921723Y60978287D01*
X30921713Y60978277D01*
X30825462Y60852840D01*
X30825462Y60852839D01*
X30764957Y60706767D01*
X30764955Y60706759D01*
X30744318Y60550001D01*
X29679973Y60550001D01*
X29643537Y60670115D01*
X29554162Y60837324D01*
X29433883Y60983883D01*
X29287324Y61104162D01*
X29229546Y61135045D01*
X29120120Y61193535D01*
X29120115Y61193537D01*
X28938683Y61248574D01*
X28938678Y61248575D01*
X28750003Y61267157D01*
X28749997Y61267157D01*
X28561321Y61248575D01*
X28561316Y61248574D01*
X28379884Y61193537D01*
X28379879Y61193535D01*
X28212681Y61104165D01*
X28212671Y61104159D01*
X28066121Y60983887D01*
X28066113Y60983879D01*
X27945841Y60837329D01*
X27945835Y60837319D01*
X27856465Y60670121D01*
X27856463Y60670116D01*
X27801426Y60488684D01*
X27801425Y60488679D01*
X27782843Y60300004D01*
X27317157Y60300004D01*
X27298574Y60488679D01*
X27298573Y60488684D01*
X27279973Y60550001D01*
X27243537Y60670115D01*
X27154162Y60837324D01*
X27033883Y60983883D01*
X26887324Y61104162D01*
X26829546Y61135045D01*
X26720120Y61193535D01*
X26720115Y61193537D01*
X26538683Y61248574D01*
X26538678Y61248575D01*
X26350003Y61267157D01*
X26349997Y61267157D01*
X26161321Y61248575D01*
X26161316Y61248574D01*
X25979884Y61193537D01*
X25979879Y61193535D01*
X25812681Y61104165D01*
X25812671Y61104159D01*
X25666121Y60983887D01*
X25666113Y60983879D01*
X25545841Y60837329D01*
X25545835Y60837319D01*
X25456465Y60670121D01*
X25456463Y60670116D01*
X25401426Y60488684D01*
X25401425Y60488679D01*
X25382843Y60300004D01*
X23817157Y60300004D01*
X23798574Y60488679D01*
X23798573Y60488684D01*
X23779973Y60550001D01*
X23743537Y60670115D01*
X23654162Y60837324D01*
X23533883Y60983883D01*
X23387324Y61104162D01*
X23329546Y61135045D01*
X23220120Y61193535D01*
X23220115Y61193537D01*
X23038683Y61248574D01*
X23038678Y61248575D01*
X22850003Y61267157D01*
X22849997Y61267157D01*
X22661321Y61248575D01*
X22661316Y61248574D01*
X22479884Y61193537D01*
X22479879Y61193535D01*
X22312681Y61104165D01*
X22312671Y61104159D01*
X22166121Y60983887D01*
X22166113Y60983879D01*
X22045841Y60837329D01*
X22045835Y60837319D01*
X21956465Y60670121D01*
X21956463Y60670116D01*
X21901426Y60488684D01*
X21901425Y60488679D01*
X21882843Y60300004D01*
X21317157Y60300004D01*
X21298574Y60488679D01*
X21298573Y60488684D01*
X21279973Y60550001D01*
X21243537Y60670115D01*
X21154162Y60837324D01*
X21033883Y60983883D01*
X20887324Y61104162D01*
X20829546Y61135045D01*
X20720120Y61193535D01*
X20720115Y61193537D01*
X20538683Y61248574D01*
X20538678Y61248575D01*
X20350003Y61267157D01*
X20349997Y61267157D01*
X20161321Y61248575D01*
X20161316Y61248574D01*
X19979884Y61193537D01*
X19979879Y61193535D01*
X19812681Y61104165D01*
X19812671Y61104159D01*
X19666121Y60983887D01*
X19666113Y60983879D01*
X19545841Y60837329D01*
X19545835Y60837319D01*
X19456465Y60670121D01*
X19456463Y60670116D01*
X19401426Y60488684D01*
X19401425Y60488679D01*
X19382843Y60300004D01*
X550500Y60300004D01*
X550500Y61750001D01*
X17944318Y61750001D01*
X17944318Y61750000D01*
X17964955Y61593242D01*
X17964957Y61593234D01*
X18025462Y61447162D01*
X18025462Y61447161D01*
X18025464Y61447159D01*
X18121718Y61321718D01*
X18247159Y61225464D01*
X18393238Y61164956D01*
X18510809Y61149478D01*
X18549999Y61144318D01*
X18550000Y61144318D01*
X18550001Y61144318D01*
X18581352Y61148446D01*
X18706762Y61164956D01*
X18852841Y61225464D01*
X18978282Y61321718D01*
X19074536Y61447159D01*
X19135044Y61593238D01*
X19155682Y61750000D01*
X19135044Y61906762D01*
X19074537Y62052839D01*
X19074537Y62052840D01*
X18978286Y62178277D01*
X18978285Y62178278D01*
X18978282Y62178282D01*
X18978277Y62178286D01*
X18978276Y62178287D01*
X18852838Y62274538D01*
X18706766Y62335043D01*
X18706758Y62335045D01*
X18550001Y62355682D01*
X18549999Y62355682D01*
X18393241Y62335045D01*
X18393233Y62335043D01*
X18247161Y62274538D01*
X18247160Y62274538D01*
X18121723Y62178287D01*
X18121713Y62178277D01*
X18025462Y62052840D01*
X18025462Y62052839D01*
X17964957Y61906767D01*
X17964955Y61906759D01*
X17944318Y61750001D01*
X550500Y61750001D01*
X550500Y66950005D01*
X2344457Y66950005D01*
X2344457Y66949996D01*
X2364611Y66591103D01*
X2364614Y66591083D01*
X2424824Y66236713D01*
X2424828Y66236693D01*
X2524340Y65891277D01*
X2661907Y65559163D01*
X2835787Y65244551D01*
X2835789Y65244548D01*
X3043806Y64951377D01*
X3283339Y64683339D01*
X3551377Y64443806D01*
X3844548Y64235789D01*
X3844550Y64235788D01*
X4159163Y64061908D01*
X4159162Y64061908D01*
X4491276Y63924341D01*
X4836692Y63824829D01*
X4836695Y63824829D01*
X4836700Y63824827D01*
X5191093Y63764613D01*
X5191096Y63764613D01*
X5191102Y63764612D01*
X5549995Y63744457D01*
X5550000Y63744457D01*
X5550005Y63744457D01*
X5908897Y63764612D01*
X5908901Y63764613D01*
X5908907Y63764613D01*
X6263300Y63824827D01*
X6608724Y63924341D01*
X6940833Y64061906D01*
X7255452Y64235789D01*
X7548623Y64443806D01*
X7816661Y64683339D01*
X7879042Y64753143D01*
X22739500Y64753143D01*
X22739500Y64546858D01*
X22771767Y64343129D01*
X22835512Y64146943D01*
X22929159Y63963149D01*
X22929163Y63963143D01*
X23050402Y63796273D01*
X23050404Y63796271D01*
X23050407Y63796267D01*
X23196267Y63650407D01*
X23196270Y63650405D01*
X23196272Y63650403D01*
X23363142Y63529164D01*
X23363148Y63529160D01*
X23546943Y63435512D01*
X23743124Y63371769D01*
X23743125Y63371769D01*
X23743128Y63371768D01*
X23946858Y63339500D01*
X23946861Y63339500D01*
X24153142Y63339500D01*
X24356871Y63371768D01*
X24356872Y63371769D01*
X24356876Y63371769D01*
X24553057Y63435512D01*
X24736852Y63529160D01*
X24903733Y63650407D01*
X25049593Y63796267D01*
X25170840Y63963148D01*
X25264488Y64146943D01*
X25328231Y64343124D01*
X25349039Y64474500D01*
X25360500Y64546858D01*
X25360500Y64753143D01*
X25328232Y64956872D01*
X25304950Y65028527D01*
X25264488Y65153057D01*
X25170840Y65336852D01*
X25115370Y65413200D01*
X25049597Y65503728D01*
X25049595Y65503730D01*
X25049593Y65503733D01*
X24903733Y65649593D01*
X24903729Y65649596D01*
X24903727Y65649598D01*
X24736857Y65770837D01*
X24736851Y65770841D01*
X24553057Y65864488D01*
X24356871Y65928233D01*
X24153142Y65960500D01*
X24153139Y65960500D01*
X23946861Y65960500D01*
X23946858Y65960500D01*
X23743128Y65928233D01*
X23546942Y65864488D01*
X23363148Y65770841D01*
X23363142Y65770837D01*
X23196272Y65649598D01*
X23050402Y65503728D01*
X22929163Y65336858D01*
X22929159Y65336852D01*
X22835512Y65153058D01*
X22771767Y64956872D01*
X22739500Y64753143D01*
X7879042Y64753143D01*
X8056194Y64951377D01*
X8264211Y65244548D01*
X8438094Y65559167D01*
X8575659Y65891276D01*
X8675173Y66236700D01*
X8735387Y66591093D01*
X8737292Y66624998D01*
X8755543Y66949996D01*
X8755543Y66950005D01*
X8735388Y67308898D01*
X8735385Y67308918D01*
X8675175Y67663288D01*
X8675171Y67663308D01*
X8575659Y68008724D01*
X8438092Y68340838D01*
X8270051Y68644886D01*
X17739500Y68644886D01*
X17739500Y68355115D01*
X17777321Y68067836D01*
X17777321Y68067831D01*
X17852318Y67787941D01*
X17852322Y67787928D01*
X17963205Y67520231D01*
X17963207Y67520227D01*
X17963209Y67520223D01*
X18085213Y67308907D01*
X18108095Y67269274D01*
X18284486Y67039396D01*
X18284488Y67039394D01*
X18284492Y67039389D01*
X18489389Y66834492D01*
X18489393Y66834489D01*
X18489395Y66834487D01*
X18655837Y66706772D01*
X18719277Y66658093D01*
X18970223Y66513209D01*
X19237933Y66402320D01*
X19517828Y66327322D01*
X19805116Y66289500D01*
X19805117Y66289500D01*
X20094883Y66289500D01*
X20094884Y66289500D01*
X20382172Y66327322D01*
X20662067Y66402320D01*
X20929777Y66513209D01*
X21180723Y66658093D01*
X21410611Y66834492D01*
X21615508Y67039389D01*
X21791907Y67269277D01*
X21936791Y67520223D01*
X22047680Y67787933D01*
X22122678Y68067828D01*
X22160500Y68355116D01*
X22160500Y68644884D01*
X22122678Y68932172D01*
X22047680Y69212067D01*
X21936791Y69479777D01*
X21791907Y69730723D01*
X21709519Y69838093D01*
X21615513Y69960605D01*
X21615511Y69960607D01*
X21615508Y69960611D01*
X21410611Y70165508D01*
X21410606Y70165512D01*
X21410604Y70165514D01*
X21180726Y70341905D01*
X21180723Y70341907D01*
X20929777Y70486791D01*
X20929773Y70486793D01*
X20929769Y70486795D01*
X20662072Y70597678D01*
X20662071Y70597679D01*
X20662067Y70597680D01*
X20382172Y70672678D01*
X20382169Y70672679D01*
X20382167Y70672679D01*
X20094885Y70710500D01*
X20094884Y70710500D01*
X19805116Y70710500D01*
X19805114Y70710500D01*
X19517835Y70672679D01*
X19517830Y70672679D01*
X19237940Y70597682D01*
X19237927Y70597678D01*
X18970230Y70486795D01*
X18719273Y70341905D01*
X18489395Y70165514D01*
X18284486Y69960605D01*
X18108095Y69730727D01*
X17963205Y69479770D01*
X17852322Y69212073D01*
X17852318Y69212060D01*
X17777321Y68932170D01*
X17777321Y68932165D01*
X17739500Y68644886D01*
X8270051Y68644886D01*
X8264212Y68655450D01*
X8181888Y68771474D01*
X8058536Y68945322D01*
X8056197Y68948619D01*
X8056196Y68948620D01*
X8056194Y68948623D01*
X7816661Y69216661D01*
X7548623Y69456194D01*
X7548620Y69456196D01*
X7548618Y69456198D01*
X7255449Y69664213D01*
X6940836Y69838093D01*
X6940837Y69838093D01*
X6608723Y69975660D01*
X6263307Y70075172D01*
X6263287Y70075176D01*
X5908917Y70135386D01*
X5908897Y70135389D01*
X5550005Y70155543D01*
X5549995Y70155543D01*
X5191102Y70135389D01*
X5191082Y70135386D01*
X4836712Y70075176D01*
X4836692Y70075172D01*
X4491276Y69975660D01*
X4159162Y69838093D01*
X3844550Y69664213D01*
X3551381Y69456198D01*
X3283346Y69216668D01*
X3283332Y69216654D01*
X3043802Y68948619D01*
X2835787Y68655450D01*
X2661907Y68340838D01*
X2524340Y68008724D01*
X2424828Y67663308D01*
X2424824Y67663288D01*
X2364614Y67308918D01*
X2364611Y67308898D01*
X2344457Y66950005D01*
X550500Y66950005D01*
X550500Y73150000D01*
X29319464Y73150000D01*
X29339565Y72933077D01*
X29399183Y72723541D01*
X29496288Y72528528D01*
X29627573Y72354678D01*
X29788568Y72207912D01*
X29973790Y72093228D01*
X30176931Y72014530D01*
X30265758Y71997926D01*
X30269029Y71997314D01*
X30322755Y71968037D01*
X30349011Y71912771D01*
X30337768Y71852627D01*
X30293321Y71810579D01*
X30269029Y71802686D01*
X30176933Y71785471D01*
X30102258Y71756542D01*
X29973790Y71706772D01*
X29788568Y71592088D01*
X29788565Y71592086D01*
X29627574Y71445323D01*
X29496289Y71271474D01*
X29496284Y71271465D01*
X29399183Y71076460D01*
X29339565Y70866925D01*
X29319464Y70650000D01*
X29339565Y70433076D01*
X29399183Y70223541D01*
X29443078Y70135387D01*
X29496288Y70028528D01*
X29627573Y69854678D01*
X29788568Y69707912D01*
X29973790Y69593228D01*
X30176931Y69514530D01*
X30265758Y69497926D01*
X30269029Y69497314D01*
X30322755Y69468037D01*
X30349011Y69412771D01*
X30337768Y69352627D01*
X30293321Y69310579D01*
X30269029Y69302686D01*
X30176933Y69285471D01*
X30102258Y69256542D01*
X29973790Y69206772D01*
X29788568Y69092088D01*
X29788565Y69092086D01*
X29672505Y68986283D01*
X29627573Y68945322D01*
X29585009Y68888958D01*
X29496289Y68771474D01*
X29496284Y68771465D01*
X29399183Y68576460D01*
X29339565Y68366925D01*
X29319464Y68150000D01*
X29339565Y67933076D01*
X29380860Y67787941D01*
X29399183Y67723541D01*
X29496288Y67528528D01*
X29627573Y67354678D01*
X29788568Y67207912D01*
X29973790Y67093228D01*
X30176931Y67014530D01*
X30265758Y66997926D01*
X30269029Y66997314D01*
X30322755Y66968037D01*
X30349011Y66912771D01*
X30337768Y66852627D01*
X30293321Y66810579D01*
X30269029Y66802686D01*
X30176933Y66785471D01*
X30102258Y66756542D01*
X29973790Y66706772D01*
X29841720Y66624998D01*
X29788565Y66592086D01*
X29627574Y66445323D01*
X29496289Y66271474D01*
X29496284Y66271465D01*
X29399183Y66076460D01*
X29339565Y65866925D01*
X29319464Y65650000D01*
X29339565Y65433076D01*
X29366943Y65336852D01*
X29399183Y65223541D01*
X29496288Y65028528D01*
X29627573Y64854678D01*
X29788568Y64707912D01*
X29973790Y64593228D01*
X30176931Y64514530D01*
X30391074Y64474500D01*
X30608926Y64474500D01*
X30823069Y64514530D01*
X31026210Y64593228D01*
X31211432Y64707912D01*
X31372427Y64854678D01*
X31503712Y65028528D01*
X31600817Y65223541D01*
X31660435Y65433077D01*
X31680536Y65650000D01*
X33019464Y65650000D01*
X33039565Y65433076D01*
X33066943Y65336852D01*
X33099183Y65223541D01*
X33196288Y65028528D01*
X33327573Y64854678D01*
X33488568Y64707912D01*
X33673790Y64593228D01*
X33876931Y64514530D01*
X34091074Y64474500D01*
X34308926Y64474500D01*
X34523069Y64514530D01*
X34726210Y64593228D01*
X34911432Y64707912D01*
X35072427Y64854678D01*
X35203712Y65028528D01*
X35300817Y65223541D01*
X35360435Y65433077D01*
X35380536Y65650000D01*
X35360435Y65866923D01*
X35300817Y66076459D01*
X35203712Y66271472D01*
X35072427Y66445322D01*
X34911432Y66592088D01*
X34726210Y66706772D01*
X34523069Y66785470D01*
X34523068Y66785471D01*
X34523066Y66785471D01*
X34308926Y66825500D01*
X34091074Y66825500D01*
X33876933Y66785471D01*
X33802258Y66756542D01*
X33673790Y66706772D01*
X33541720Y66624998D01*
X33488565Y66592086D01*
X33327574Y66445323D01*
X33196289Y66271474D01*
X33196284Y66271465D01*
X33099183Y66076460D01*
X33039565Y65866925D01*
X33019464Y65650000D01*
X31680536Y65650000D01*
X31660435Y65866923D01*
X31600817Y66076459D01*
X31503712Y66271472D01*
X31372427Y66445322D01*
X31211432Y66592088D01*
X31026210Y66706772D01*
X30823069Y66785470D01*
X30823068Y66785471D01*
X30823066Y66785471D01*
X30757012Y66797818D01*
X30730969Y66802687D01*
X30677244Y66831963D01*
X30650988Y66887229D01*
X30662231Y66947372D01*
X30706678Y66989421D01*
X30730968Y66997314D01*
X30823069Y67014530D01*
X31026210Y67093228D01*
X31211432Y67207912D01*
X31372427Y67354678D01*
X31503712Y67528528D01*
X31600817Y67723541D01*
X31660435Y67933077D01*
X31680536Y68150000D01*
X31660435Y68366923D01*
X31600817Y68576459D01*
X31503712Y68771472D01*
X31372427Y68945322D01*
X31211432Y69092088D01*
X31026210Y69206772D01*
X30823069Y69285470D01*
X30823068Y69285471D01*
X30823066Y69285471D01*
X30757012Y69297818D01*
X30730969Y69302687D01*
X30677244Y69331963D01*
X30650988Y69387229D01*
X30662231Y69447372D01*
X30706678Y69489421D01*
X30730968Y69497314D01*
X30823069Y69514530D01*
X31026210Y69593228D01*
X31211432Y69707912D01*
X31372427Y69854678D01*
X31503712Y70028528D01*
X31600817Y70223541D01*
X31660435Y70433077D01*
X31680536Y70650000D01*
X31660435Y70866923D01*
X31600817Y71076459D01*
X31503712Y71271472D01*
X31372427Y71445322D01*
X31211432Y71592088D01*
X31026210Y71706772D01*
X30823069Y71785470D01*
X30823068Y71785471D01*
X30823066Y71785471D01*
X30757012Y71797818D01*
X30730969Y71802687D01*
X30677244Y71831963D01*
X30650988Y71887229D01*
X30662231Y71947372D01*
X30706678Y71989421D01*
X30730968Y71997314D01*
X30823069Y72014530D01*
X31026210Y72093228D01*
X31211432Y72207912D01*
X31372427Y72354678D01*
X31503712Y72528528D01*
X31600817Y72723541D01*
X31660435Y72933077D01*
X31680536Y73150000D01*
X33019464Y73150000D01*
X33039565Y72933077D01*
X33099183Y72723541D01*
X33196288Y72528528D01*
X33327573Y72354678D01*
X33488568Y72207912D01*
X33673790Y72093228D01*
X33876931Y72014530D01*
X33965758Y71997926D01*
X33969029Y71997314D01*
X34022755Y71968037D01*
X34049011Y71912771D01*
X34037768Y71852627D01*
X33993321Y71810579D01*
X33969029Y71802686D01*
X33876933Y71785471D01*
X33802258Y71756542D01*
X33673790Y71706772D01*
X33488568Y71592088D01*
X33488565Y71592086D01*
X33327574Y71445323D01*
X33196289Y71271474D01*
X33196284Y71271465D01*
X33099183Y71076460D01*
X33039565Y70866925D01*
X33019464Y70650000D01*
X33039565Y70433076D01*
X33099183Y70223541D01*
X33143078Y70135387D01*
X33196288Y70028528D01*
X33327573Y69854678D01*
X33488568Y69707912D01*
X33673790Y69593228D01*
X33876931Y69514530D01*
X34091074Y69474500D01*
X34308926Y69474500D01*
X34523069Y69514530D01*
X34726210Y69593228D01*
X34911432Y69707912D01*
X35072427Y69854678D01*
X35203712Y70028528D01*
X35300817Y70223541D01*
X35360435Y70433077D01*
X35380536Y70650000D01*
X35360435Y70866923D01*
X35300817Y71076459D01*
X35203712Y71271472D01*
X35072427Y71445322D01*
X34911432Y71592088D01*
X34726210Y71706772D01*
X34523069Y71785470D01*
X34523068Y71785471D01*
X34523066Y71785471D01*
X34457012Y71797818D01*
X34430969Y71802687D01*
X34377244Y71831963D01*
X34350988Y71887229D01*
X34362231Y71947372D01*
X34406678Y71989421D01*
X34430968Y71997314D01*
X34523069Y72014530D01*
X34726210Y72093228D01*
X34911432Y72207912D01*
X35072427Y72354678D01*
X35203712Y72528528D01*
X35300817Y72723541D01*
X35360435Y72933077D01*
X35380536Y73150000D01*
X35360435Y73366923D01*
X35300817Y73576459D01*
X35203712Y73771472D01*
X35072427Y73945322D01*
X34911432Y74092088D01*
X34726210Y74206772D01*
X34523069Y74285470D01*
X34523068Y74285471D01*
X34523066Y74285471D01*
X34308926Y74325500D01*
X34091074Y74325500D01*
X33876933Y74285471D01*
X33802258Y74256542D01*
X33673790Y74206772D01*
X33507707Y74103938D01*
X33488565Y74092086D01*
X33327574Y73945323D01*
X33196289Y73771474D01*
X33196284Y73771465D01*
X33099183Y73576460D01*
X33039565Y73366925D01*
X33034750Y73314961D01*
X33019464Y73150000D01*
X31680536Y73150000D01*
X31660435Y73366923D01*
X31600817Y73576459D01*
X31503712Y73771472D01*
X31372427Y73945322D01*
X31211432Y74092088D01*
X31026210Y74206772D01*
X30823069Y74285470D01*
X30823068Y74285471D01*
X30823066Y74285471D01*
X30608926Y74325500D01*
X30391074Y74325500D01*
X30176933Y74285471D01*
X30102258Y74256542D01*
X29973790Y74206772D01*
X29807707Y74103938D01*
X29788565Y74092086D01*
X29627574Y73945323D01*
X29496289Y73771474D01*
X29496284Y73771465D01*
X29399183Y73576460D01*
X29339565Y73366925D01*
X29334750Y73314961D01*
X29319464Y73150000D01*
X550500Y73150000D01*
X550500Y77347227D01*
X550656Y77352778D01*
X550701Y77353583D01*
X567791Y77657901D01*
X569034Y77668927D01*
X598138Y77840222D01*
X619760Y77967481D01*
X622221Y77978267D01*
X706063Y78269286D01*
X709723Y78279746D01*
X825614Y78559531D01*
X830428Y78569526D01*
X976909Y78834564D01*
X982806Y78843949D01*
X1158053Y79090937D01*
X1164967Y79099606D01*
X1366757Y79325408D01*
X1374592Y79333243D01*
X1600394Y79535033D01*
X1609063Y79541947D01*
X1856051Y79717194D01*
X1865436Y79723091D01*
X2130480Y79869576D01*
X2140469Y79874386D01*
X2420254Y79990277D01*
X2430714Y79993937D01*
X2721733Y80077779D01*
X2732519Y80080240D01*
X3031080Y80130967D01*
X3042099Y80132209D01*
X3347222Y80149345D01*
X3352773Y80149500D01*
X3389882Y80149500D01*
X77310118Y80149500D01*
X77347227Y80149500D01*
X77352777Y80149345D01*
G37*
G04 #@! TD.AperFunction*
G04 #@! TD*
M02*
