G04 #@! TF.GenerationSoftware,KiCad,Pcbnew,8.0.2-8.0.2-0~ubuntu22.04.1*
G04 #@! TF.CreationDate,2024-05-29T14:04:05+00:00*
G04 #@! TF.ProjectId,PROLT,50524f4c-542e-46b6-9963-61645f706362,rev?*
G04 #@! TF.SameCoordinates,Original*
G04 #@! TF.FileFunction,Soldermask,Top*
G04 #@! TF.FilePolarity,Negative*
%FSLAX46Y46*%
G04 Gerber Fmt 4.6, Leading zero omitted, Abs format (unit mm)*
G04 Created by KiCad (PCBNEW 8.0.2-8.0.2-0~ubuntu22.04.1) date 2024-05-29 14:04:05*
%MOMM*%
%LPD*%
G01*
G04 APERTURE LIST*
%ADD10C,0.120000*%
%ADD11C,1.000000*%
%ADD12C,1.524000*%
%ADD13R,0.650000X1.525000*%
%ADD14R,1.750000X0.650000*%
%ADD15R,4.300000X7.900000*%
%ADD16O,1.750000X1.200000*%
%ADD17C,4.100000*%
%ADD18C,2.300000*%
%ADD19C,1.950000*%
%ADD20C,0.600000*%
%ADD21C,2.000000*%
%ADD22C,1.500000*%
G04 APERTURE END LIST*
D10*
G04 #@! TO.C,U1*
X79750000Y41312500D02*
X72750000Y41312500D01*
X72750000Y54312500D01*
X79750000Y54312500D01*
X79750000Y41312500D01*
G36*
X79750000Y41312500D02*
G01*
X72750000Y41312500D01*
X72750000Y54312500D01*
X79750000Y54312500D01*
X79750000Y41312500D01*
G37*
G04 #@! TD*
G04 #@! TO.C,R9*
G36*
G01*
X39180000Y44173405D02*
X38400000Y44173405D01*
G75*
G02*
X38330000Y44243405I0J70000D01*
G01*
X38330000Y44803405D01*
G75*
G02*
X38400000Y44873405I70000J0D01*
G01*
X39180000Y44873405D01*
G75*
G02*
X39250000Y44803405I0J-70000D01*
G01*
X39250000Y44243405D01*
G75*
G02*
X39180000Y44173405I-70000J0D01*
G01*
G37*
G36*
G01*
X39180000Y45773405D02*
X38400000Y45773405D01*
G75*
G02*
X38330000Y45843405I0J70000D01*
G01*
X38330000Y46403405D01*
G75*
G02*
X38400000Y46473405I70000J0D01*
G01*
X39180000Y46473405D01*
G75*
G02*
X39250000Y46403405I0J-70000D01*
G01*
X39250000Y45843405D01*
G75*
G02*
X39180000Y45773405I-70000J0D01*
G01*
G37*
G04 #@! TD*
D11*
G04 #@! TO.C,TP1*
X28350000Y36250000D03*
G04 #@! TD*
G04 #@! TO.C,C1*
G36*
G01*
X58655000Y44284999D02*
X57975000Y44284999D01*
G75*
G02*
X57890000Y44369999I0J85000D01*
G01*
X57890000Y45049999D01*
G75*
G02*
X57975000Y45134999I85000J0D01*
G01*
X58655000Y45134999D01*
G75*
G02*
X58740000Y45049999I0J-85000D01*
G01*
X58740000Y44369999D01*
G75*
G02*
X58655000Y44284999I-85000J0D01*
G01*
G37*
G36*
G01*
X58655000Y45865001D02*
X57975000Y45865001D01*
G75*
G02*
X57890000Y45950001I0J85000D01*
G01*
X57890000Y46630001D01*
G75*
G02*
X57975000Y46715001I85000J0D01*
G01*
X58655000Y46715001D01*
G75*
G02*
X58740000Y46630001I0J-85000D01*
G01*
X58740000Y45950001D01*
G75*
G02*
X58655000Y45865001I-85000J0D01*
G01*
G37*
G04 #@! TD*
G04 #@! TO.C,C26*
G36*
G01*
X2244998Y48510000D02*
X2244998Y49190000D01*
G75*
G02*
X2329998Y49275000I85000J0D01*
G01*
X3009998Y49275000D01*
G75*
G02*
X3094998Y49190000I0J-85000D01*
G01*
X3094998Y48510000D01*
G75*
G02*
X3009998Y48425000I-85000J0D01*
G01*
X2329998Y48425000D01*
G75*
G02*
X2244998Y48510000I0J85000D01*
G01*
G37*
G36*
G01*
X3825000Y48510000D02*
X3825000Y49190000D01*
G75*
G02*
X3910000Y49275000I85000J0D01*
G01*
X4590000Y49275000D01*
G75*
G02*
X4675000Y49190000I0J-85000D01*
G01*
X4675000Y48510000D01*
G75*
G02*
X4590000Y48425000I-85000J0D01*
G01*
X3910000Y48425000D01*
G75*
G02*
X3825000Y48510000I0J85000D01*
G01*
G37*
G04 #@! TD*
G04 #@! TO.C,R15*
G36*
G01*
X72300000Y23840000D02*
X72300000Y23060000D01*
G75*
G02*
X72230000Y22990000I-70000J0D01*
G01*
X71670000Y22990000D01*
G75*
G02*
X71600000Y23060000I0J70000D01*
G01*
X71600000Y23840000D01*
G75*
G02*
X71670000Y23910000I70000J0D01*
G01*
X72230000Y23910000D01*
G75*
G02*
X72300000Y23840000I0J-70000D01*
G01*
G37*
G36*
G01*
X70700000Y23840000D02*
X70700000Y23060000D01*
G75*
G02*
X70630000Y22990000I-70000J0D01*
G01*
X70070000Y22990000D01*
G75*
G02*
X70000000Y23060000I0J70000D01*
G01*
X70000000Y23840000D01*
G75*
G02*
X70070000Y23910000I70000J0D01*
G01*
X70630000Y23910000D01*
G75*
G02*
X70700000Y23840000I0J-70000D01*
G01*
G37*
G04 #@! TD*
D12*
G04 #@! TO.C,F7*
X28750000Y60300000D03*
G36*
G01*
X27850000Y58955010D02*
X27850000Y59645010D01*
G75*
G02*
X28080000Y59875010I230000J0D01*
G01*
X29420000Y59875010D01*
G75*
G02*
X29650000Y59645010I0J-230000D01*
G01*
X29650000Y58955010D01*
G75*
G02*
X29420000Y58725010I-230000J0D01*
G01*
X28080000Y58725010D01*
G75*
G02*
X27850000Y58955010I0J230000D01*
G01*
G37*
G36*
G01*
X27850000Y56054990D02*
X27850000Y56744990D01*
G75*
G02*
X28080000Y56974990I230000J0D01*
G01*
X29420000Y56974990D01*
G75*
G02*
X29650000Y56744990I0J-230000D01*
G01*
X29650000Y56054990D01*
G75*
G02*
X29420000Y55824990I-230000J0D01*
G01*
X28080000Y55824990D01*
G75*
G02*
X27850000Y56054990I0J230000D01*
G01*
G37*
X28750000Y55400000D03*
G04 #@! TD*
D11*
G04 #@! TO.C,TP11*
X4750000Y5050000D03*
G04 #@! TD*
G04 #@! TO.C,U3*
G36*
G01*
X50795000Y47900000D02*
X50495000Y47900000D01*
G75*
G02*
X50345000Y48050000I0J150000D01*
G01*
X50345000Y49700000D01*
G75*
G02*
X50495000Y49850000I150000J0D01*
G01*
X50795000Y49850000D01*
G75*
G02*
X50945000Y49700000I0J-150000D01*
G01*
X50945000Y48050000D01*
G75*
G02*
X50795000Y47900000I-150000J0D01*
G01*
G37*
G36*
G01*
X52065000Y47900000D02*
X51765000Y47900000D01*
G75*
G02*
X51615000Y48050000I0J150000D01*
G01*
X51615000Y49700000D01*
G75*
G02*
X51765000Y49850000I150000J0D01*
G01*
X52065000Y49850000D01*
G75*
G02*
X52215000Y49700000I0J-150000D01*
G01*
X52215000Y48050000D01*
G75*
G02*
X52065000Y47900000I-150000J0D01*
G01*
G37*
G36*
G01*
X53335000Y47900000D02*
X53035000Y47900000D01*
G75*
G02*
X52885000Y48050000I0J150000D01*
G01*
X52885000Y49700000D01*
G75*
G02*
X53035000Y49850000I150000J0D01*
G01*
X53335000Y49850000D01*
G75*
G02*
X53485000Y49700000I0J-150000D01*
G01*
X53485000Y48050000D01*
G75*
G02*
X53335000Y47900000I-150000J0D01*
G01*
G37*
G36*
G01*
X54605000Y47900000D02*
X54305000Y47900000D01*
G75*
G02*
X54155000Y48050000I0J150000D01*
G01*
X54155000Y49700000D01*
G75*
G02*
X54305000Y49850000I150000J0D01*
G01*
X54605000Y49850000D01*
G75*
G02*
X54755000Y49700000I0J-150000D01*
G01*
X54755000Y48050000D01*
G75*
G02*
X54605000Y47900000I-150000J0D01*
G01*
G37*
G36*
G01*
X54605000Y52850000D02*
X54305000Y52850000D01*
G75*
G02*
X54155000Y53000000I0J150000D01*
G01*
X54155000Y54650000D01*
G75*
G02*
X54305000Y54800000I150000J0D01*
G01*
X54605000Y54800000D01*
G75*
G02*
X54755000Y54650000I0J-150000D01*
G01*
X54755000Y53000000D01*
G75*
G02*
X54605000Y52850000I-150000J0D01*
G01*
G37*
G36*
G01*
X53335000Y52850000D02*
X53035000Y52850000D01*
G75*
G02*
X52885000Y53000000I0J150000D01*
G01*
X52885000Y54650000D01*
G75*
G02*
X53035000Y54800000I150000J0D01*
G01*
X53335000Y54800000D01*
G75*
G02*
X53485000Y54650000I0J-150000D01*
G01*
X53485000Y53000000D01*
G75*
G02*
X53335000Y52850000I-150000J0D01*
G01*
G37*
G36*
G01*
X52065000Y52850000D02*
X51765000Y52850000D01*
G75*
G02*
X51615000Y53000000I0J150000D01*
G01*
X51615000Y54650000D01*
G75*
G02*
X51765000Y54800000I150000J0D01*
G01*
X52065000Y54800000D01*
G75*
G02*
X52215000Y54650000I0J-150000D01*
G01*
X52215000Y53000000D01*
G75*
G02*
X52065000Y52850000I-150000J0D01*
G01*
G37*
G36*
G01*
X50795000Y52850000D02*
X50495000Y52850000D01*
G75*
G02*
X50345000Y53000000I0J150000D01*
G01*
X50345000Y54650000D01*
G75*
G02*
X50495000Y54800000I150000J0D01*
G01*
X50795000Y54800000D01*
G75*
G02*
X50945000Y54650000I0J-150000D01*
G01*
X50945000Y53000000D01*
G75*
G02*
X50795000Y52850000I-150000J0D01*
G01*
G37*
G04 #@! TD*
D13*
G04 #@! TO.C,IC1*
X56545000Y48663000D03*
X57815000Y48663000D03*
X59085000Y48663000D03*
X60355000Y48663000D03*
X60355000Y54087000D03*
X59085000Y54087000D03*
X57815000Y54087000D03*
X56545000Y54087000D03*
G04 #@! TD*
G04 #@! TO.C,R12*
G36*
G01*
X4600000Y45340000D02*
X4600000Y44560000D01*
G75*
G02*
X4530000Y44490000I-70000J0D01*
G01*
X3970000Y44490000D01*
G75*
G02*
X3900000Y44560000I0J70000D01*
G01*
X3900000Y45340000D01*
G75*
G02*
X3970000Y45410000I70000J0D01*
G01*
X4530000Y45410000D01*
G75*
G02*
X4600000Y45340000I0J-70000D01*
G01*
G37*
G36*
G01*
X3000000Y45340000D02*
X3000000Y44560000D01*
G75*
G02*
X2930000Y44490000I-70000J0D01*
G01*
X2370000Y44490000D01*
G75*
G02*
X2300000Y44560000I0J70000D01*
G01*
X2300000Y45340000D01*
G75*
G02*
X2370000Y45410000I70000J0D01*
G01*
X2930000Y45410000D01*
G75*
G02*
X3000000Y45340000I0J-70000D01*
G01*
G37*
G04 #@! TD*
G04 #@! TO.C,C13*
G36*
G01*
X2344998Y57710000D02*
X2344998Y58390000D01*
G75*
G02*
X2429998Y58475000I85000J0D01*
G01*
X3109998Y58475000D01*
G75*
G02*
X3194998Y58390000I0J-85000D01*
G01*
X3194998Y57710000D01*
G75*
G02*
X3109998Y57625000I-85000J0D01*
G01*
X2429998Y57625000D01*
G75*
G02*
X2344998Y57710000I0J85000D01*
G01*
G37*
G36*
G01*
X3925000Y57710000D02*
X3925000Y58390000D01*
G75*
G02*
X4010000Y58475000I85000J0D01*
G01*
X4690000Y58475000D01*
G75*
G02*
X4775000Y58390000I0J-85000D01*
G01*
X4775000Y57710000D01*
G75*
G02*
X4690000Y57625000I-85000J0D01*
G01*
X4010000Y57625000D01*
G75*
G02*
X3925000Y57710000I0J85000D01*
G01*
G37*
G04 #@! TD*
G04 #@! TO.C,R14*
G36*
G01*
X70000000Y24460000D02*
X70000000Y25240000D01*
G75*
G02*
X70070000Y25310000I70000J0D01*
G01*
X70630000Y25310000D01*
G75*
G02*
X70700000Y25240000I0J-70000D01*
G01*
X70700000Y24460000D01*
G75*
G02*
X70630000Y24390000I-70000J0D01*
G01*
X70070000Y24390000D01*
G75*
G02*
X70000000Y24460000I0J70000D01*
G01*
G37*
G36*
G01*
X71600000Y24460000D02*
X71600000Y25240000D01*
G75*
G02*
X71670000Y25310000I70000J0D01*
G01*
X72230000Y25310000D01*
G75*
G02*
X72300000Y25240000I0J-70000D01*
G01*
X72300000Y24460000D01*
G75*
G02*
X72230000Y24390000I-70000J0D01*
G01*
X71670000Y24390000D01*
G75*
G02*
X71600000Y24460000I0J70000D01*
G01*
G37*
G04 #@! TD*
D11*
G04 #@! TO.C,TP9*
X9150000Y5050000D03*
G04 #@! TD*
D14*
G04 #@! TO.C,IC3*
X16350000Y43850000D03*
X16350000Y44850000D03*
X16350000Y45850000D03*
X16350000Y46850000D03*
X16350000Y47850000D03*
X16350000Y48850000D03*
X6750000Y48850000D03*
X6750000Y47850000D03*
X6750000Y46850000D03*
X6750000Y45850000D03*
X6750000Y44850000D03*
X6750000Y43850000D03*
D15*
X11550000Y46350000D03*
G04 #@! TD*
G04 #@! TO.C,D3*
G36*
G01*
X28188502Y25862502D02*
X27708502Y25862502D01*
G75*
G02*
X27648502Y25922502I0J60000D01*
G01*
X27648502Y26402502D01*
G75*
G02*
X27708502Y26462502I60000J0D01*
G01*
X28188502Y26462502D01*
G75*
G02*
X28248502Y26402502I0J-60000D01*
G01*
X28248502Y25922502D01*
G75*
G02*
X28188502Y25862502I-60000J0D01*
G01*
G37*
G36*
G01*
X25988502Y25862502D02*
X25508502Y25862502D01*
G75*
G02*
X25448502Y25922502I0J60000D01*
G01*
X25448502Y26402502D01*
G75*
G02*
X25508502Y26462502I60000J0D01*
G01*
X25988502Y26462502D01*
G75*
G02*
X26048502Y26402502I0J-60000D01*
G01*
X26048502Y25922502D01*
G75*
G02*
X25988502Y25862502I-60000J0D01*
G01*
G37*
G04 #@! TD*
D11*
G04 #@! TO.C,TP14*
X58150000Y41750000D03*
G04 #@! TD*
G04 #@! TO.C,C27*
G36*
G01*
X2244998Y47210000D02*
X2244998Y47890000D01*
G75*
G02*
X2329998Y47975000I85000J0D01*
G01*
X3009998Y47975000D01*
G75*
G02*
X3094998Y47890000I0J-85000D01*
G01*
X3094998Y47210000D01*
G75*
G02*
X3009998Y47125000I-85000J0D01*
G01*
X2329998Y47125000D01*
G75*
G02*
X2244998Y47210000I0J85000D01*
G01*
G37*
G36*
G01*
X3825000Y47210000D02*
X3825000Y47890000D01*
G75*
G02*
X3910000Y47975000I85000J0D01*
G01*
X4590000Y47975000D01*
G75*
G02*
X4675000Y47890000I0J-85000D01*
G01*
X4675000Y47210000D01*
G75*
G02*
X4590000Y47125000I-85000J0D01*
G01*
X3910000Y47125000D01*
G75*
G02*
X3825000Y47210000I0J85000D01*
G01*
G37*
G04 #@! TD*
G04 #@! TO.C,R13*
G36*
G01*
X28440000Y32100000D02*
X27660000Y32100000D01*
G75*
G02*
X27590000Y32170000I0J70000D01*
G01*
X27590000Y32730000D01*
G75*
G02*
X27660000Y32800000I70000J0D01*
G01*
X28440000Y32800000D01*
G75*
G02*
X28510000Y32730000I0J-70000D01*
G01*
X28510000Y32170000D01*
G75*
G02*
X28440000Y32100000I-70000J0D01*
G01*
G37*
G36*
G01*
X28440000Y33700000D02*
X27660000Y33700000D01*
G75*
G02*
X27590000Y33770000I0J70000D01*
G01*
X27590000Y34330000D01*
G75*
G02*
X27660000Y34400000I70000J0D01*
G01*
X28440000Y34400000D01*
G75*
G02*
X28510000Y34330000I0J-70000D01*
G01*
X28510000Y33770000D01*
G75*
G02*
X28440000Y33700000I-70000J0D01*
G01*
G37*
G04 #@! TD*
G04 #@! TO.C,J2*
G36*
G01*
X24825000Y42750000D02*
X23575000Y42750000D01*
G75*
G02*
X23325000Y43000000I0J250000D01*
G01*
X23325000Y43700000D01*
G75*
G02*
X23575000Y43950000I250000J0D01*
G01*
X24825000Y43950000D01*
G75*
G02*
X25075000Y43700000I0J-250000D01*
G01*
X25075000Y43000000D01*
G75*
G02*
X24825000Y42750000I-250000J0D01*
G01*
G37*
D16*
X24200000Y45350000D03*
X24200000Y47350000D03*
X24200000Y49350000D03*
G04 #@! TD*
G04 #@! TO.C,R4*
G36*
G01*
X53640000Y44275000D02*
X52860000Y44275000D01*
G75*
G02*
X52790000Y44345000I0J70000D01*
G01*
X52790000Y44905000D01*
G75*
G02*
X52860000Y44975000I70000J0D01*
G01*
X53640000Y44975000D01*
G75*
G02*
X53710000Y44905000I0J-70000D01*
G01*
X53710000Y44345000D01*
G75*
G02*
X53640000Y44275000I-70000J0D01*
G01*
G37*
G36*
G01*
X53640000Y45875000D02*
X52860000Y45875000D01*
G75*
G02*
X52790000Y45945000I0J70000D01*
G01*
X52790000Y46505000D01*
G75*
G02*
X52860000Y46575000I70000J0D01*
G01*
X53640000Y46575000D01*
G75*
G02*
X53710000Y46505000I0J-70000D01*
G01*
X53710000Y45945000D01*
G75*
G02*
X53640000Y45875000I-70000J0D01*
G01*
G37*
G04 #@! TD*
D11*
G04 #@! TO.C,TP3*
X28250000Y29350000D03*
G04 #@! TD*
G04 #@! TO.C,R5*
G36*
G01*
X55540000Y44325000D02*
X54760000Y44325000D01*
G75*
G02*
X54690000Y44395000I0J70000D01*
G01*
X54690000Y44955000D01*
G75*
G02*
X54760000Y45025000I70000J0D01*
G01*
X55540000Y45025000D01*
G75*
G02*
X55610000Y44955000I0J-70000D01*
G01*
X55610000Y44395000D01*
G75*
G02*
X55540000Y44325000I-70000J0D01*
G01*
G37*
G36*
G01*
X55540000Y45925000D02*
X54760000Y45925000D01*
G75*
G02*
X54690000Y45995000I0J70000D01*
G01*
X54690000Y46555000D01*
G75*
G02*
X54760000Y46625000I70000J0D01*
G01*
X55540000Y46625000D01*
G75*
G02*
X55610000Y46555000I0J-70000D01*
G01*
X55610000Y45995000D01*
G75*
G02*
X55540000Y45925000I-70000J0D01*
G01*
G37*
G04 #@! TD*
G04 #@! TO.C,R1*
G36*
G01*
X45120000Y44175000D02*
X44340000Y44175000D01*
G75*
G02*
X44270000Y44245000I0J70000D01*
G01*
X44270000Y44805000D01*
G75*
G02*
X44340000Y44875000I70000J0D01*
G01*
X45120000Y44875000D01*
G75*
G02*
X45190000Y44805000I0J-70000D01*
G01*
X45190000Y44245000D01*
G75*
G02*
X45120000Y44175000I-70000J0D01*
G01*
G37*
G36*
G01*
X45120000Y45775000D02*
X44340000Y45775000D01*
G75*
G02*
X44270000Y45845000I0J70000D01*
G01*
X44270000Y46405000D01*
G75*
G02*
X44340000Y46475000I70000J0D01*
G01*
X45120000Y46475000D01*
G75*
G02*
X45190000Y46405000I0J-70000D01*
G01*
X45190000Y45845000D01*
G75*
G02*
X45120000Y45775000I-70000J0D01*
G01*
G37*
G04 #@! TD*
G04 #@! TO.C,TP12*
X30850000Y32350000D03*
G04 #@! TD*
D17*
G04 #@! TO.C,J1*
X60750000Y68500000D03*
D18*
X56650000Y64650000D03*
X24050000Y64650000D03*
D17*
X19950000Y68500000D03*
D19*
X50200000Y65650000D03*
X50200000Y68150000D03*
X50200000Y70650000D03*
X50200000Y73150000D03*
X47700000Y65650000D03*
X47700000Y68150000D03*
X47700000Y70650000D03*
X47700000Y73150000D03*
X45200000Y65650000D03*
X45200000Y68150000D03*
X45200000Y70650000D03*
X45200000Y73150000D03*
X42700000Y65650000D03*
X42700000Y68150000D03*
X42700000Y70650000D03*
X42700000Y73150000D03*
X40200000Y65650000D03*
X40200000Y68150000D03*
X40200000Y70650000D03*
X40200000Y73150000D03*
X37700000Y65650000D03*
X37700000Y68150000D03*
X37700000Y70650000D03*
X37700000Y73150000D03*
X34200000Y65650000D03*
X34200000Y68150000D03*
X34200000Y70650000D03*
X34200000Y73150000D03*
X30500000Y65650000D03*
X30500000Y68150000D03*
X30500000Y70650000D03*
X30500000Y73150000D03*
G04 #@! TD*
D14*
G04 #@! TO.C,IC2*
X16350000Y53050000D03*
X16350000Y54050000D03*
X16350000Y55050000D03*
X16350000Y56050000D03*
X16350000Y57050000D03*
X16350000Y58050000D03*
X6750000Y58050000D03*
X6750000Y57050000D03*
X6750000Y56050000D03*
X6750000Y55050000D03*
X6750000Y54050000D03*
X6750000Y53050000D03*
D15*
X11550000Y55550000D03*
G04 #@! TD*
D11*
G04 #@! TO.C,TP5*
X48150000Y1950000D03*
G04 #@! TD*
G04 #@! TO.C,TP6*
X45250000Y1950000D03*
G04 #@! TD*
G04 #@! TO.C,TP4*
X68050000Y60350000D03*
G04 #@! TD*
G04 #@! TO.C,F2*
G36*
G01*
X64258750Y52512500D02*
X64771250Y52512500D01*
G75*
G02*
X64990000Y52293750I0J-218750D01*
G01*
X64990000Y51856250D01*
G75*
G02*
X64771250Y51637500I-218750J0D01*
G01*
X64258750Y51637500D01*
G75*
G02*
X64040000Y51856250I0J218750D01*
G01*
X64040000Y52293750D01*
G75*
G02*
X64258750Y52512500I218750J0D01*
G01*
G37*
G36*
G01*
X64258750Y50937500D02*
X64771250Y50937500D01*
G75*
G02*
X64990000Y50718750I0J-218750D01*
G01*
X64990000Y50281250D01*
G75*
G02*
X64771250Y50062500I-218750J0D01*
G01*
X64258750Y50062500D01*
G75*
G02*
X64040000Y50281250I0J218750D01*
G01*
X64040000Y50718750D01*
G75*
G02*
X64258750Y50937500I218750J0D01*
G01*
G37*
G04 #@! TD*
G04 #@! TO.C,U4*
G36*
G01*
X38970000Y47850000D02*
X38670000Y47850000D01*
G75*
G02*
X38520000Y48000000I0J150000D01*
G01*
X38520000Y49650000D01*
G75*
G02*
X38670000Y49800000I150000J0D01*
G01*
X38970000Y49800000D01*
G75*
G02*
X39120000Y49650000I0J-150000D01*
G01*
X39120000Y48000000D01*
G75*
G02*
X38970000Y47850000I-150000J0D01*
G01*
G37*
G36*
G01*
X40240000Y47850000D02*
X39940000Y47850000D01*
G75*
G02*
X39790000Y48000000I0J150000D01*
G01*
X39790000Y49650000D01*
G75*
G02*
X39940000Y49800000I150000J0D01*
G01*
X40240000Y49800000D01*
G75*
G02*
X40390000Y49650000I0J-150000D01*
G01*
X40390000Y48000000D01*
G75*
G02*
X40240000Y47850000I-150000J0D01*
G01*
G37*
G36*
G01*
X41510000Y47850000D02*
X41210000Y47850000D01*
G75*
G02*
X41060000Y48000000I0J150000D01*
G01*
X41060000Y49650000D01*
G75*
G02*
X41210000Y49800000I150000J0D01*
G01*
X41510000Y49800000D01*
G75*
G02*
X41660000Y49650000I0J-150000D01*
G01*
X41660000Y48000000D01*
G75*
G02*
X41510000Y47850000I-150000J0D01*
G01*
G37*
G36*
G01*
X42780000Y47850000D02*
X42480000Y47850000D01*
G75*
G02*
X42330000Y48000000I0J150000D01*
G01*
X42330000Y49650000D01*
G75*
G02*
X42480000Y49800000I150000J0D01*
G01*
X42780000Y49800000D01*
G75*
G02*
X42930000Y49650000I0J-150000D01*
G01*
X42930000Y48000000D01*
G75*
G02*
X42780000Y47850000I-150000J0D01*
G01*
G37*
G36*
G01*
X42780000Y52800000D02*
X42480000Y52800000D01*
G75*
G02*
X42330000Y52950000I0J150000D01*
G01*
X42330000Y54600000D01*
G75*
G02*
X42480000Y54750000I150000J0D01*
G01*
X42780000Y54750000D01*
G75*
G02*
X42930000Y54600000I0J-150000D01*
G01*
X42930000Y52950000D01*
G75*
G02*
X42780000Y52800000I-150000J0D01*
G01*
G37*
G36*
G01*
X41510000Y52800000D02*
X41210000Y52800000D01*
G75*
G02*
X41060000Y52950000I0J150000D01*
G01*
X41060000Y54600000D01*
G75*
G02*
X41210000Y54750000I150000J0D01*
G01*
X41510000Y54750000D01*
G75*
G02*
X41660000Y54600000I0J-150000D01*
G01*
X41660000Y52950000D01*
G75*
G02*
X41510000Y52800000I-150000J0D01*
G01*
G37*
G36*
G01*
X40240000Y52800000D02*
X39940000Y52800000D01*
G75*
G02*
X39790000Y52950000I0J150000D01*
G01*
X39790000Y54600000D01*
G75*
G02*
X39940000Y54750000I150000J0D01*
G01*
X40240000Y54750000D01*
G75*
G02*
X40390000Y54600000I0J-150000D01*
G01*
X40390000Y52950000D01*
G75*
G02*
X40240000Y52800000I-150000J0D01*
G01*
G37*
G36*
G01*
X38970000Y52800000D02*
X38670000Y52800000D01*
G75*
G02*
X38520000Y52950000I0J150000D01*
G01*
X38520000Y54600000D01*
G75*
G02*
X38670000Y54750000I150000J0D01*
G01*
X38970000Y54750000D01*
G75*
G02*
X39120000Y54600000I0J-150000D01*
G01*
X39120000Y52950000D01*
G75*
G02*
X38970000Y52800000I-150000J0D01*
G01*
G37*
G04 #@! TD*
D12*
G04 #@! TO.C,F5*
X22850000Y60300000D03*
G36*
G01*
X21950000Y58955010D02*
X21950000Y59645010D01*
G75*
G02*
X22180000Y59875010I230000J0D01*
G01*
X23520000Y59875010D01*
G75*
G02*
X23750000Y59645010I0J-230000D01*
G01*
X23750000Y58955010D01*
G75*
G02*
X23520000Y58725010I-230000J0D01*
G01*
X22180000Y58725010D01*
G75*
G02*
X21950000Y58955010I0J230000D01*
G01*
G37*
G36*
G01*
X21950000Y56054990D02*
X21950000Y56744990D01*
G75*
G02*
X22180000Y56974990I230000J0D01*
G01*
X23520000Y56974990D01*
G75*
G02*
X23750000Y56744990I0J-230000D01*
G01*
X23750000Y56054990D01*
G75*
G02*
X23520000Y55824990I-230000J0D01*
G01*
X22180000Y55824990D01*
G75*
G02*
X21950000Y56054990I0J230000D01*
G01*
G37*
X22850000Y55400000D03*
G04 #@! TD*
D11*
G04 #@! TO.C,TP10*
X60650000Y41650000D03*
G04 #@! TD*
D12*
G04 #@! TO.C,R16*
X24045000Y2250000D03*
G36*
G01*
X24499999Y1625000D02*
X24499999Y2875000D01*
G75*
G02*
X24599999Y2975000I100000J0D01*
G01*
X25399999Y2975000D01*
G75*
G02*
X25499999Y2875000I0J-100000D01*
G01*
X25499999Y1625000D01*
G75*
G02*
X25399999Y1525000I-100000J0D01*
G01*
X24599999Y1525000D01*
G75*
G02*
X24499999Y1625000I0J100000D01*
G01*
G37*
G36*
G01*
X26400021Y1625000D02*
X26400021Y2875000D01*
G75*
G02*
X26500021Y2975000I100000J0D01*
G01*
X27300021Y2975000D01*
G75*
G02*
X27400021Y2875000I0J-100000D01*
G01*
X27400021Y1625000D01*
G75*
G02*
X27300021Y1525000I-100000J0D01*
G01*
X26500021Y1525000D01*
G75*
G02*
X26400021Y1625000I0J100000D01*
G01*
G37*
X27855000Y2250000D03*
G04 #@! TD*
G04 #@! TO.C,R11*
G36*
G01*
X4700000Y54540000D02*
X4700000Y53760000D01*
G75*
G02*
X4630000Y53690000I-70000J0D01*
G01*
X4070000Y53690000D01*
G75*
G02*
X4000000Y53760000I0J70000D01*
G01*
X4000000Y54540000D01*
G75*
G02*
X4070000Y54610000I70000J0D01*
G01*
X4630000Y54610000D01*
G75*
G02*
X4700000Y54540000I0J-70000D01*
G01*
G37*
G36*
G01*
X3100000Y54540000D02*
X3100000Y53760000D01*
G75*
G02*
X3030000Y53690000I-70000J0D01*
G01*
X2470000Y53690000D01*
G75*
G02*
X2400000Y53760000I0J70000D01*
G01*
X2400000Y54540000D01*
G75*
G02*
X2470000Y54610000I70000J0D01*
G01*
X3030000Y54610000D01*
G75*
G02*
X3100000Y54540000I0J-70000D01*
G01*
G37*
G04 #@! TD*
D11*
G04 #@! TO.C,TP8*
X30850000Y15450000D03*
G04 #@! TD*
G04 #@! TO.C,D2*
G36*
G01*
X31760000Y55650000D02*
X30740000Y55650000D01*
G75*
G02*
X30650000Y55740000I0J90000D01*
G01*
X30650000Y56460000D01*
G75*
G02*
X30740000Y56550000I90000J0D01*
G01*
X31760000Y56550000D01*
G75*
G02*
X31850000Y56460000I0J-90000D01*
G01*
X31850000Y55740000D01*
G75*
G02*
X31760000Y55650000I-90000J0D01*
G01*
G37*
G36*
G01*
X31760000Y58950000D02*
X30740000Y58950000D01*
G75*
G02*
X30650000Y59040000I0J90000D01*
G01*
X30650000Y59760000D01*
G75*
G02*
X30740000Y59850000I90000J0D01*
G01*
X31760000Y59850000D01*
G75*
G02*
X31850000Y59760000I0J-90000D01*
G01*
X31850000Y59040000D01*
G75*
G02*
X31760000Y58950000I-90000J0D01*
G01*
G37*
G04 #@! TD*
D12*
G04 #@! TO.C,F4*
X20350000Y60300000D03*
G36*
G01*
X19450000Y58955010D02*
X19450000Y59645010D01*
G75*
G02*
X19680000Y59875010I230000J0D01*
G01*
X21020000Y59875010D01*
G75*
G02*
X21250000Y59645010I0J-230000D01*
G01*
X21250000Y58955010D01*
G75*
G02*
X21020000Y58725010I-230000J0D01*
G01*
X19680000Y58725010D01*
G75*
G02*
X19450000Y58955010I0J230000D01*
G01*
G37*
G36*
G01*
X19450000Y56054990D02*
X19450000Y56744990D01*
G75*
G02*
X19680000Y56974990I230000J0D01*
G01*
X21020000Y56974990D01*
G75*
G02*
X21250000Y56744990I0J-230000D01*
G01*
X21250000Y56054990D01*
G75*
G02*
X21020000Y55824990I-230000J0D01*
G01*
X19680000Y55824990D01*
G75*
G02*
X19450000Y56054990I0J230000D01*
G01*
G37*
X20350000Y55400000D03*
G04 #@! TD*
D11*
G04 #@! TO.C,TP7*
X33650000Y39350000D03*
G04 #@! TD*
G04 #@! TO.C,D1*
G36*
G01*
X34760000Y55650000D02*
X33740000Y55650000D01*
G75*
G02*
X33650000Y55740000I0J90000D01*
G01*
X33650000Y56460000D01*
G75*
G02*
X33740000Y56550000I90000J0D01*
G01*
X34760000Y56550000D01*
G75*
G02*
X34850000Y56460000I0J-90000D01*
G01*
X34850000Y55740000D01*
G75*
G02*
X34760000Y55650000I-90000J0D01*
G01*
G37*
G36*
G01*
X34760000Y58950000D02*
X33740000Y58950000D01*
G75*
G02*
X33650000Y59040000I0J90000D01*
G01*
X33650000Y59760000D01*
G75*
G02*
X33740000Y59850000I90000J0D01*
G01*
X34760000Y59850000D01*
G75*
G02*
X34850000Y59760000I0J-90000D01*
G01*
X34850000Y59040000D01*
G75*
G02*
X34760000Y58950000I-90000J0D01*
G01*
G37*
G04 #@! TD*
G04 #@! TO.C,U2*
G36*
G01*
X44895000Y47900000D02*
X44595000Y47900000D01*
G75*
G02*
X44445000Y48050000I0J150000D01*
G01*
X44445000Y49700000D01*
G75*
G02*
X44595000Y49850000I150000J0D01*
G01*
X44895000Y49850000D01*
G75*
G02*
X45045000Y49700000I0J-150000D01*
G01*
X45045000Y48050000D01*
G75*
G02*
X44895000Y47900000I-150000J0D01*
G01*
G37*
G36*
G01*
X46165000Y47900000D02*
X45865000Y47900000D01*
G75*
G02*
X45715000Y48050000I0J150000D01*
G01*
X45715000Y49700000D01*
G75*
G02*
X45865000Y49850000I150000J0D01*
G01*
X46165000Y49850000D01*
G75*
G02*
X46315000Y49700000I0J-150000D01*
G01*
X46315000Y48050000D01*
G75*
G02*
X46165000Y47900000I-150000J0D01*
G01*
G37*
G36*
G01*
X47435000Y47900000D02*
X47135000Y47900000D01*
G75*
G02*
X46985000Y48050000I0J150000D01*
G01*
X46985000Y49700000D01*
G75*
G02*
X47135000Y49850000I150000J0D01*
G01*
X47435000Y49850000D01*
G75*
G02*
X47585000Y49700000I0J-150000D01*
G01*
X47585000Y48050000D01*
G75*
G02*
X47435000Y47900000I-150000J0D01*
G01*
G37*
G36*
G01*
X48705000Y47900000D02*
X48405000Y47900000D01*
G75*
G02*
X48255000Y48050000I0J150000D01*
G01*
X48255000Y49700000D01*
G75*
G02*
X48405000Y49850000I150000J0D01*
G01*
X48705000Y49850000D01*
G75*
G02*
X48855000Y49700000I0J-150000D01*
G01*
X48855000Y48050000D01*
G75*
G02*
X48705000Y47900000I-150000J0D01*
G01*
G37*
G36*
G01*
X48705000Y52850000D02*
X48405000Y52850000D01*
G75*
G02*
X48255000Y53000000I0J150000D01*
G01*
X48255000Y54650000D01*
G75*
G02*
X48405000Y54800000I150000J0D01*
G01*
X48705000Y54800000D01*
G75*
G02*
X48855000Y54650000I0J-150000D01*
G01*
X48855000Y53000000D01*
G75*
G02*
X48705000Y52850000I-150000J0D01*
G01*
G37*
G36*
G01*
X47435000Y52850000D02*
X47135000Y52850000D01*
G75*
G02*
X46985000Y53000000I0J150000D01*
G01*
X46985000Y54650000D01*
G75*
G02*
X47135000Y54800000I150000J0D01*
G01*
X47435000Y54800000D01*
G75*
G02*
X47585000Y54650000I0J-150000D01*
G01*
X47585000Y53000000D01*
G75*
G02*
X47435000Y52850000I-150000J0D01*
G01*
G37*
G36*
G01*
X46165000Y52850000D02*
X45865000Y52850000D01*
G75*
G02*
X45715000Y53000000I0J150000D01*
G01*
X45715000Y54650000D01*
G75*
G02*
X45865000Y54800000I150000J0D01*
G01*
X46165000Y54800000D01*
G75*
G02*
X46315000Y54650000I0J-150000D01*
G01*
X46315000Y53000000D01*
G75*
G02*
X46165000Y52850000I-150000J0D01*
G01*
G37*
G36*
G01*
X44895000Y52850000D02*
X44595000Y52850000D01*
G75*
G02*
X44445000Y53000000I0J150000D01*
G01*
X44445000Y54650000D01*
G75*
G02*
X44595000Y54800000I150000J0D01*
G01*
X44895000Y54800000D01*
G75*
G02*
X45045000Y54650000I0J-150000D01*
G01*
X45045000Y53000000D01*
G75*
G02*
X44895000Y52850000I-150000J0D01*
G01*
G37*
G04 #@! TD*
G04 #@! TO.C,F3*
G36*
G01*
X66058750Y52525000D02*
X66571250Y52525000D01*
G75*
G02*
X66790000Y52306250I0J-218750D01*
G01*
X66790000Y51868750D01*
G75*
G02*
X66571250Y51650000I-218750J0D01*
G01*
X66058750Y51650000D01*
G75*
G02*
X65840000Y51868750I0J218750D01*
G01*
X65840000Y52306250D01*
G75*
G02*
X66058750Y52525000I218750J0D01*
G01*
G37*
G36*
G01*
X66058750Y50950000D02*
X66571250Y50950000D01*
G75*
G02*
X66790000Y50731250I0J-218750D01*
G01*
X66790000Y50293750D01*
G75*
G02*
X66571250Y50075000I-218750J0D01*
G01*
X66058750Y50075000D01*
G75*
G02*
X65840000Y50293750I0J218750D01*
G01*
X65840000Y50731250D01*
G75*
G02*
X66058750Y50950000I218750J0D01*
G01*
G37*
G04 #@! TD*
G04 #@! TO.C,R7*
G36*
G01*
X61905000Y44350000D02*
X61125000Y44350000D01*
G75*
G02*
X61055000Y44420000I0J70000D01*
G01*
X61055000Y44980000D01*
G75*
G02*
X61125000Y45050000I70000J0D01*
G01*
X61905000Y45050000D01*
G75*
G02*
X61975000Y44980000I0J-70000D01*
G01*
X61975000Y44420000D01*
G75*
G02*
X61905000Y44350000I-70000J0D01*
G01*
G37*
G36*
G01*
X61905000Y45950000D02*
X61125000Y45950000D01*
G75*
G02*
X61055000Y46020000I0J70000D01*
G01*
X61055000Y46580000D01*
G75*
G02*
X61125000Y46650000I70000J0D01*
G01*
X61905000Y46650000D01*
G75*
G02*
X61975000Y46580000I0J-70000D01*
G01*
X61975000Y46020000D01*
G75*
G02*
X61905000Y45950000I-70000J0D01*
G01*
G37*
G04 #@! TD*
G04 #@! TO.C,R8*
G36*
G01*
X60305000Y44350000D02*
X59525000Y44350000D01*
G75*
G02*
X59455000Y44420000I0J70000D01*
G01*
X59455000Y44980000D01*
G75*
G02*
X59525000Y45050000I70000J0D01*
G01*
X60305000Y45050000D01*
G75*
G02*
X60375000Y44980000I0J-70000D01*
G01*
X60375000Y44420000D01*
G75*
G02*
X60305000Y44350000I-70000J0D01*
G01*
G37*
G36*
G01*
X60305000Y45950000D02*
X59525000Y45950000D01*
G75*
G02*
X59455000Y46020000I0J70000D01*
G01*
X59455000Y46580000D01*
G75*
G02*
X59525000Y46650000I70000J0D01*
G01*
X60305000Y46650000D01*
G75*
G02*
X60375000Y46580000I0J-70000D01*
G01*
X60375000Y46020000D01*
G75*
G02*
X60305000Y45950000I-70000J0D01*
G01*
G37*
G04 #@! TD*
G04 #@! TO.C,R2*
G36*
G01*
X47720000Y44275000D02*
X46940000Y44275000D01*
G75*
G02*
X46870000Y44345000I0J70000D01*
G01*
X46870000Y44905000D01*
G75*
G02*
X46940000Y44975000I70000J0D01*
G01*
X47720000Y44975000D01*
G75*
G02*
X47790000Y44905000I0J-70000D01*
G01*
X47790000Y44345000D01*
G75*
G02*
X47720000Y44275000I-70000J0D01*
G01*
G37*
G36*
G01*
X47720000Y45875000D02*
X46940000Y45875000D01*
G75*
G02*
X46870000Y45945000I0J70000D01*
G01*
X46870000Y46505000D01*
G75*
G02*
X46940000Y46575000I70000J0D01*
G01*
X47720000Y46575000D01*
G75*
G02*
X47790000Y46505000I0J-70000D01*
G01*
X47790000Y45945000D01*
G75*
G02*
X47720000Y45875000I-70000J0D01*
G01*
G37*
G04 #@! TD*
D12*
G04 #@! TO.C,F6*
X26350000Y60300000D03*
G36*
G01*
X25450000Y58955010D02*
X25450000Y59645010D01*
G75*
G02*
X25680000Y59875010I230000J0D01*
G01*
X27020000Y59875010D01*
G75*
G02*
X27250000Y59645010I0J-230000D01*
G01*
X27250000Y58955010D01*
G75*
G02*
X27020000Y58725010I-230000J0D01*
G01*
X25680000Y58725010D01*
G75*
G02*
X25450000Y58955010I0J230000D01*
G01*
G37*
G36*
G01*
X25450000Y56054990D02*
X25450000Y56744990D01*
G75*
G02*
X25680000Y56974990I230000J0D01*
G01*
X27020000Y56974990D01*
G75*
G02*
X27250000Y56744990I0J-230000D01*
G01*
X27250000Y56054990D01*
G75*
G02*
X27020000Y55824990I-230000J0D01*
G01*
X25680000Y55824990D01*
G75*
G02*
X25450000Y56054990I0J230000D01*
G01*
G37*
X26350000Y55400000D03*
G04 #@! TD*
G04 #@! TO.C,R3*
G36*
G01*
X51040000Y44275000D02*
X50260000Y44275000D01*
G75*
G02*
X50190000Y44345000I0J70000D01*
G01*
X50190000Y44905000D01*
G75*
G02*
X50260000Y44975000I70000J0D01*
G01*
X51040000Y44975000D01*
G75*
G02*
X51110000Y44905000I0J-70000D01*
G01*
X51110000Y44345000D01*
G75*
G02*
X51040000Y44275000I-70000J0D01*
G01*
G37*
G36*
G01*
X51040000Y45875000D02*
X50260000Y45875000D01*
G75*
G02*
X50190000Y45945000I0J70000D01*
G01*
X50190000Y46505000D01*
G75*
G02*
X50260000Y46575000I70000J0D01*
G01*
X51040000Y46575000D01*
G75*
G02*
X51110000Y46505000I0J-70000D01*
G01*
X51110000Y45945000D01*
G75*
G02*
X51040000Y45875000I-70000J0D01*
G01*
G37*
G04 #@! TD*
G04 #@! TO.C,C14*
G36*
G01*
X2344998Y56410000D02*
X2344998Y57090000D01*
G75*
G02*
X2429998Y57175000I85000J0D01*
G01*
X3109998Y57175000D01*
G75*
G02*
X3194998Y57090000I0J-85000D01*
G01*
X3194998Y56410000D01*
G75*
G02*
X3109998Y56325000I-85000J0D01*
G01*
X2429998Y56325000D01*
G75*
G02*
X2344998Y56410000I0J85000D01*
G01*
G37*
G36*
G01*
X3925000Y56410000D02*
X3925000Y57090000D01*
G75*
G02*
X4010000Y57175000I85000J0D01*
G01*
X4690000Y57175000D01*
G75*
G02*
X4775000Y57090000I0J-85000D01*
G01*
X4775000Y56410000D01*
G75*
G02*
X4690000Y56325000I-85000J0D01*
G01*
X4010000Y56325000D01*
G75*
G02*
X3925000Y56410000I0J85000D01*
G01*
G37*
G04 #@! TD*
G04 #@! TO.C,F1*
G36*
G01*
X62348750Y52525000D02*
X62861250Y52525000D01*
G75*
G02*
X63080000Y52306250I0J-218750D01*
G01*
X63080000Y51868750D01*
G75*
G02*
X62861250Y51650000I-218750J0D01*
G01*
X62348750Y51650000D01*
G75*
G02*
X62130000Y51868750I0J218750D01*
G01*
X62130000Y52306250D01*
G75*
G02*
X62348750Y52525000I218750J0D01*
G01*
G37*
G36*
G01*
X62348750Y50950000D02*
X62861250Y50950000D01*
G75*
G02*
X63080000Y50731250I0J-218750D01*
G01*
X63080000Y50293750D01*
G75*
G02*
X62861250Y50075000I-218750J0D01*
G01*
X62348750Y50075000D01*
G75*
G02*
X62130000Y50293750I0J218750D01*
G01*
X62130000Y50731250D01*
G75*
G02*
X62348750Y50950000I218750J0D01*
G01*
G37*
G04 #@! TD*
G04 #@! TO.C,R6*
G36*
G01*
X57105000Y44350000D02*
X56325000Y44350000D01*
G75*
G02*
X56255000Y44420000I0J70000D01*
G01*
X56255000Y44980000D01*
G75*
G02*
X56325000Y45050000I70000J0D01*
G01*
X57105000Y45050000D01*
G75*
G02*
X57175000Y44980000I0J-70000D01*
G01*
X57175000Y44420000D01*
G75*
G02*
X57105000Y44350000I-70000J0D01*
G01*
G37*
G36*
G01*
X57105000Y45950000D02*
X56325000Y45950000D01*
G75*
G02*
X56255000Y46020000I0J70000D01*
G01*
X56255000Y46580000D01*
G75*
G02*
X56325000Y46650000I70000J0D01*
G01*
X57105000Y46650000D01*
G75*
G02*
X57175000Y46580000I0J-70000D01*
G01*
X57175000Y46020000D01*
G75*
G02*
X57105000Y45950000I-70000J0D01*
G01*
G37*
G04 #@! TD*
D20*
G04 #@! TO.C,M2*
X12012500Y31150000D03*
X12012500Y32350000D03*
X12012500Y29950000D03*
X12012500Y28750000D03*
X26437500Y35210000D03*
X26437500Y36210000D03*
G04 #@! TD*
D21*
G04 #@! TO.C,TP13*
X76050000Y58750000D03*
G04 #@! TD*
D22*
G04 #@! TO.C,M3*
X27924995Y23674999D03*
X27924995Y17275002D03*
X27924995Y15374999D03*
X27924995Y11074999D03*
D20*
X28374994Y8675002D03*
X28374994Y7675001D03*
D22*
X27924995Y4824999D03*
X12424998Y24125001D03*
X12424998Y22275002D03*
X12424998Y17324999D03*
X12424998Y5275001D03*
G04 #@! TD*
G04 #@! TO.C,R10*
G36*
G01*
X41680000Y44175000D02*
X40900000Y44175000D01*
G75*
G02*
X40830000Y44245000I0J70000D01*
G01*
X40830000Y44805000D01*
G75*
G02*
X40900000Y44875000I70000J0D01*
G01*
X41680000Y44875000D01*
G75*
G02*
X41750000Y44805000I0J-70000D01*
G01*
X41750000Y44245000D01*
G75*
G02*
X41680000Y44175000I-70000J0D01*
G01*
G37*
G36*
G01*
X41680000Y45775000D02*
X40900000Y45775000D01*
G75*
G02*
X40830000Y45845000I0J70000D01*
G01*
X40830000Y46405000D01*
G75*
G02*
X40900000Y46475000I70000J0D01*
G01*
X41680000Y46475000D01*
G75*
G02*
X41750000Y46405000I0J-70000D01*
G01*
X41750000Y45845000D01*
G75*
G02*
X41680000Y45775000I-70000J0D01*
G01*
G37*
G04 #@! TD*
G04 #@! TO.C,BT1*
X35050000Y45050000D03*
X35050000Y52549858D03*
G04 #@! TD*
M02*
