G04 #@! TF.GenerationSoftware,KiCad,Pcbnew,8.0.2-8.0.2-0~ubuntu22.04.1*
G04 #@! TF.CreationDate,2024-05-29T14:04:05+00:00*
G04 #@! TF.ProjectId,PROLT,50524f4c-542e-46b6-9963-61645f706362,rev?*
G04 #@! TF.SameCoordinates,Original*
G04 #@! TF.FileFunction,Copper,L3,Inr*
G04 #@! TF.FilePolarity,Positive*
%FSLAX46Y46*%
G04 Gerber Fmt 4.6, Leading zero omitted, Abs format (unit mm)*
G04 Created by KiCad (PCBNEW 8.0.2-8.0.2-0~ubuntu22.04.1) date 2024-05-29 14:04:05*
%MOMM*%
%LPD*%
G01*
G04 APERTURE LIST*
G04 #@! TA.AperFunction,ComponentPad*
%ADD10C,1.524000*%
G04 #@! TD*
G04 #@! TA.AperFunction,ComponentPad*
%ADD11O,1.750000X1.200000*%
G04 #@! TD*
G04 #@! TA.AperFunction,ComponentPad*
%ADD12C,0.600000*%
G04 #@! TD*
G04 #@! TA.AperFunction,Conductor*
%ADD13R,3.700000X0.200000*%
G04 #@! TD*
G04 #@! TA.AperFunction,Conductor*
%ADD14R,0.400000X0.200000*%
G04 #@! TD*
G04 #@! TA.AperFunction,Conductor*
%ADD15R,1.600000X0.200000*%
G04 #@! TD*
G04 #@! TA.AperFunction,Conductor*
%ADD16R,9.700000X0.200000*%
G04 #@! TD*
G04 #@! TA.AperFunction,Conductor*
%ADD17R,2.300000X0.200000*%
G04 #@! TD*
G04 #@! TA.AperFunction,Conductor*
%ADD18R,0.200000X1.400000*%
G04 #@! TD*
G04 #@! TA.AperFunction,Conductor*
%ADD19R,0.200000X6.400000*%
G04 #@! TD*
G04 #@! TA.AperFunction,Conductor*
%ADD20R,0.200000X1.700000*%
G04 #@! TD*
G04 #@! TA.AperFunction,Conductor*
%ADD21R,0.200000X3.300000*%
G04 #@! TD*
G04 #@! TA.AperFunction,Conductor*
%ADD22R,7.000000X0.200000*%
G04 #@! TD*
G04 #@! TA.AperFunction,Conductor*
%ADD23R,3.300000X0.200000*%
G04 #@! TD*
G04 #@! TA.AperFunction,Conductor*
%ADD24R,6.300000X0.200000*%
G04 #@! TD*
G04 #@! TA.AperFunction,ComponentPad*
%ADD25C,1.950000*%
G04 #@! TD*
G04 #@! TA.AperFunction,Conductor*
%ADD26R,0.250000X6.185000*%
G04 #@! TD*
G04 #@! TA.AperFunction,Conductor*
%ADD27R,0.250000X1.115000*%
G04 #@! TD*
G04 #@! TA.AperFunction,Conductor*
%ADD28R,14.275000X0.250000*%
G04 #@! TD*
G04 #@! TA.AperFunction,Conductor*
%ADD29R,15.100000X0.250000*%
G04 #@! TD*
G04 #@! TA.AperFunction,Conductor*
%ADD30R,0.250000X5.175000*%
G04 #@! TD*
G04 #@! TA.AperFunction,ComponentPad*
%ADD31C,1.500000*%
G04 #@! TD*
G04 #@! TA.AperFunction,Conductor*
%ADD32O,0.200000X3.300000*%
G04 #@! TD*
G04 #@! TA.AperFunction,Conductor*
%ADD33O,0.200000X10.200000*%
G04 #@! TD*
G04 #@! TA.AperFunction,Conductor*
%ADD34O,0.200000X0.300000*%
G04 #@! TD*
G04 #@! TA.AperFunction,Conductor*
%ADD35O,17.000000X0.200000*%
G04 #@! TD*
G04 #@! TA.AperFunction,Conductor*
%ADD36O,15.400000X0.200000*%
G04 #@! TD*
G04 #@! TA.AperFunction,Conductor*
%ADD37O,0.200000X4.800000*%
G04 #@! TD*
G04 #@! TA.AperFunction,Conductor*
%ADD38O,0.200000X2.600000*%
G04 #@! TD*
G04 #@! TA.AperFunction,Conductor*
%ADD39O,0.200000X1.000000*%
G04 #@! TD*
G04 #@! TA.AperFunction,Conductor*
%ADD40O,0.200000X1.500000*%
G04 #@! TD*
G04 #@! TA.AperFunction,ViaPad*
%ADD41C,0.800000*%
G04 #@! TD*
G04 #@! TA.AperFunction,Conductor*
%ADD42C,0.300000*%
G04 #@! TD*
G04 #@! TA.AperFunction,Conductor*
%ADD43C,0.150000*%
G04 #@! TD*
G04 #@! TA.AperFunction,Conductor*
%ADD44C,0.500000*%
G04 #@! TD*
G04 APERTURE END LIST*
D10*
G04 #@! TO.N,+12V*
G04 #@! TO.C,F7*
X28750000Y60300000D03*
G04 #@! TO.N,+12V_RAW*
X28750000Y55400000D03*
G04 #@! TD*
G04 #@! TO.N,GND*
G04 #@! TO.C,J2*
G04 #@! TA.AperFunction,ComponentPad*
G36*
G01*
X24825000Y42750000D02*
X23575000Y42750000D01*
G75*
G02*
X23325000Y43000000I0J250000D01*
G01*
X23325000Y43700000D01*
G75*
G02*
X23575000Y43950000I250000J0D01*
G01*
X24825000Y43950000D01*
G75*
G02*
X25075000Y43700000I0J-250000D01*
G01*
X25075000Y43000000D01*
G75*
G02*
X24825000Y42750000I-250000J0D01*
G01*
G37*
G04 #@! TD.AperFunction*
D11*
G04 #@! TO.N,/USB+*
X24200000Y45350000D03*
G04 #@! TO.N,/USB-*
X24200000Y47350000D03*
G04 #@! TO.N,/VBUS*
X24200000Y49350000D03*
G04 #@! TD*
D12*
G04 #@! TO.N,+5VA*
G04 #@! TO.C,M1*
X62449990Y37650000D03*
G04 #@! TO.N,GNDA*
X58149990Y37650010D03*
G04 #@! TO.N,unconnected-(M1-I2C_SCL_(PB10)-PadE3)*
X57350000Y37650010D03*
G04 #@! TO.N,unconnected-(M1-I2C_SDA_(PB11)-PadE4)*
X56549990Y37650010D03*
G04 #@! TO.N,Net-(M1-IN_VIGN_(PA5))*
X55749990Y37650010D03*
G04 #@! TO.N,unconnected-(M1-SPI2_CS_{slash}_CAN2_RX_(PB12)-PadE6)*
X54949990Y37650010D03*
G04 #@! TO.N,unconnected-(M1-SPI2_SCK_{slash}_CAN2_TX_(PB13)-PadE7)*
X54149990Y37650010D03*
G04 #@! TO.N,/DC1_DIS*
X53349990Y37650010D03*
G04 #@! TO.N,/DC2_DIR*
X52549990Y37650010D03*
G04 #@! TO.N,unconnected-(M1-OUT_INJ8_(PD12)-PadE10)*
X51749990Y37650010D03*
G04 #@! TO.N,unconnected-(M1-OUT_INJ7_(PD15)-PadE11)*
X50949990Y37650010D03*
G04 #@! TO.N,unconnected-(M1-OUT_INJ6_(PA8)-PadE12)*
X50149990Y37650010D03*
G04 #@! TO.N,/HS*
X49349990Y37650010D03*
G04 #@! TO.N,/INJ4_IN*
X48549990Y37650010D03*
G04 #@! TO.N,/INJ3_IN*
X47749990Y37650010D03*
G04 #@! TO.N,/INJ2_IN*
X46950000Y37650000D03*
G04 #@! TO.N,/INJ1_IN*
X46149990Y37650010D03*
G04 #@! TO.N,/LS1*
X44749990Y37650010D03*
G04 #@! TO.N,/LS2*
X43950000Y37650010D03*
G04 #@! TO.N,/DC1_PWM*
X43150000Y37650010D03*
G04 #@! TO.N,/DC1_DIR*
X42350000Y37650010D03*
G04 #@! TO.N,/DC2_PWM*
X41550000Y37650010D03*
G04 #@! TO.N,unconnected-(M1-OUT_PWM6_(PD14)-PadE23)*
X40749990Y37650010D03*
D13*
G04 #@! TO.N,GND*
X35900000Y4050000D03*
D14*
X38949990Y4050000D03*
D13*
X42000000Y4050000D03*
D15*
X46449990Y4050000D03*
D16*
X60099990Y4050000D03*
D17*
X68099990Y4050000D03*
D18*
X69150000Y5850010D03*
D19*
X33350000Y7950000D03*
D20*
X33350000Y14000000D03*
D21*
X33350000Y17500000D03*
D18*
X33350000Y27250000D03*
D19*
X69150000Y34750000D03*
D22*
X36749980Y37850010D03*
D14*
X45450000Y37850010D03*
D23*
X60300000Y37850010D03*
D24*
X66100000Y37850010D03*
D12*
G04 #@! TO.N,/VBUS*
X33549990Y37250010D03*
G04 #@! TO.N,/USB-*
X33549990Y36450010D03*
G04 #@! TO.N,/USB+*
X33549990Y35650010D03*
G04 #@! TO.N,/DC2_DIS*
X33549990Y34850000D03*
G04 #@! TO.N,unconnected-(M1-SWDIO_(PA13)-PadN5)*
X33549990Y34050010D03*
G04 #@! TO.N,unconnected-(M1-SWCLK_(PA14)-PadN6)*
X33549990Y33250010D03*
G04 #@! TO.N,unconnected-(M1-nReset-PadN7)*
X33549990Y32450010D03*
G04 #@! TO.N,unconnected-(M1-SWO_(PB3)-PadN8)*
X33549990Y31650000D03*
G04 #@! TO.N,unconnected-(M1-SPI3_CS_(PA15)-PadN9)*
X33550000Y30850010D03*
G04 #@! TO.N,unconnected-(M1-SPI3_SCK_(PC10)-PadN10)*
X33550000Y30050010D03*
G04 #@! TO.N,unconnected-(M1-SPI3_MISO_(PC11)-PadN11)*
X33550000Y29250010D03*
G04 #@! TO.N,/PG_5VP*
X33550000Y28450010D03*
G04 #@! TO.N,Net-(M1-UART2_TX_(PD5))*
X33550000Y26050000D03*
G04 #@! TO.N,Net-(M1-UART2_RX_(PD6))*
X33550000Y25250000D03*
G04 #@! TO.N,unconnected-(M1-LED_GREEN-PadN14a)*
X33549990Y24450010D03*
G04 #@! TO.N,unconnected-(M1-LED_YELLOW-PadN14b)*
X33549990Y23650000D03*
G04 #@! TO.N,+3.3VA*
X33549990Y22850000D03*
G04 #@! TO.N,unconnected-(M1-BOOT0-PadN16)*
X33549990Y22050000D03*
G04 #@! TO.N,Net-(D3-K)*
X33549990Y21250000D03*
G04 #@! TO.N,unconnected-(M1-UART8_RX_(PE0)-PadN18)*
X33550000Y20450000D03*
G04 #@! TO.N,/VR_MAX9924*
X33550000Y19650000D03*
G04 #@! TO.N,/EN_5VP*
X33550000Y15350000D03*
G04 #@! TO.N,+3.3V*
X33550000Y12650000D03*
G04 #@! TO.N,+5V*
X33550000Y11650010D03*
G04 #@! TO.N,unconnected-(M1-V33-PadN23)*
X33550000Y4250000D03*
G04 #@! TO.N,/IN_D3*
X68950000Y31050020D03*
G04 #@! TO.N,/IN_D2*
X68950000Y29850010D03*
G04 #@! TO.N,/IN_D1*
X68950000Y28650010D03*
G04 #@! TO.N,/IN_CMP*
X68950000Y27450010D03*
G04 #@! TO.N,unconnected-(M1-VREF2-PadS5)*
X68950000Y26250010D03*
G04 #@! TO.N,/IN_VMAIN*
X68950000Y25050010D03*
G04 #@! TO.N,unconnected-(M1-IN_AUX3_(PA7)-PadS7)*
X68950000Y23850010D03*
G04 #@! TO.N,unconnected-(M1-IN_AUX2_(PC4{slash}PE9)-PadS8)*
X68950000Y22650010D03*
G04 #@! TO.N,unconnected-(M1-IN_AUX1_(PB0)-PadS9)*
X68950000Y21450010D03*
G04 #@! TO.N,/IN_AUX2*
X68950000Y20250010D03*
G04 #@! TO.N,/IN_AUX1*
X68950000Y19050010D03*
G04 #@! TO.N,unconnected-(M1-IN_MAP2_(PC1)-PadS12)*
X68950000Y17850010D03*
G04 #@! TO.N,/IN_MAP*
X68950000Y16650010D03*
G04 #@! TO.N,unconnected-(M1-IN_CRANK_(PB1)-PadS14)*
X68950000Y15450010D03*
G04 #@! TO.N,unconnected-(M1-IN_KNOCK_(PA2)-PadS15)*
X68950000Y14250010D03*
G04 #@! TO.N,unconnected-(M1-IN_CAM_(PA6)-PadS16)*
X68950000Y13050010D03*
G04 #@! TO.N,unconnected-(M1-IN_VSS_(PE11)-PadS17)*
X68950000Y11850010D03*
G04 #@! TO.N,/IN_TPS*
X68950000Y10650000D03*
G04 #@! TO.N,unconnected-(M1-IN_PPS_(PA3)-PadS19)*
X68950000Y9450000D03*
G04 #@! TO.N,/IN_IAT*
X68950000Y8250000D03*
G04 #@! TO.N,/IN_CLT*
X68950000Y7050000D03*
G04 #@! TO.N,unconnected-(M1-VREF1-PadS22)*
X68950000Y4650000D03*
G04 #@! TO.N,unconnected-(M1-GNDA-PadW1)*
X66449990Y4250000D03*
G04 #@! TO.N,unconnected-(M1-V5A_SWITCHABLE-PadW2)*
X65449990Y4250000D03*
G04 #@! TO.N,unconnected-(M1-IGN8_(PE6)-PadW3)*
X54750000Y4250000D03*
G04 #@! TO.N,unconnected-(M1-IGN7_(PB9)-PadW4)*
X53749990Y4250000D03*
G04 #@! TO.N,unconnected-(M1-IGN6_(PB8)-PadW5)*
X52750000Y4250000D03*
G04 #@! TO.N,unconnected-(M1-IGN5_(PE2)-PadW6)*
X51750000Y4250000D03*
G04 #@! TO.N,unconnected-(M1-IGN4_(PE3)-PadW7)*
X50750000Y4250000D03*
G04 #@! TO.N,/IGN3_IN*
X49750000Y4250000D03*
G04 #@! TO.N,/IGN2_IN*
X48750000Y4250000D03*
G04 #@! TO.N,/IGN1_IN*
X47750000Y4250000D03*
G04 #@! TO.N,/CAN-H*
X45150000Y4250000D03*
G04 #@! TO.N,/CAN-L*
X44350000Y4250000D03*
G04 #@! TO.N,unconnected-(M1-V33_REF-PadW13)*
X39649990Y4250000D03*
G04 #@! TO.N,unconnected-(M1-V5A_SWITCHABLE-PadW14)*
X38250000Y4250000D03*
G04 #@! TD*
D25*
G04 #@! TO.N,/IGN1_OUT*
G04 #@! TO.C,J1*
X50200000Y65650000D03*
G04 #@! TO.N,/IGN2_OUT*
X50200000Y68150000D03*
G04 #@! TO.N,/IGN3_OUT*
X50200000Y70650000D03*
G04 #@! TO.N,/TACH*
X50200000Y73150000D03*
G04 #@! TO.N,/OUT_1*
X47700000Y65650000D03*
G04 #@! TO.N,/IN_IAT*
X47700000Y68150000D03*
G04 #@! TO.N,/IN_CLT*
X47700000Y70650000D03*
G04 #@! TO.N,/IN_MAP*
X47700000Y73150000D03*
G04 #@! TO.N,/INJ3_OUT*
X45200000Y65650000D03*
G04 #@! TO.N,/IN_TPS*
X45200000Y68150000D03*
G04 #@! TO.N,/IN_AUX1*
X45200000Y70650000D03*
G04 #@! TO.N,/IN_AUX2*
X45200000Y73150000D03*
G04 #@! TO.N,/INJ2_OUT*
X42700000Y65650000D03*
G04 #@! TO.N,/IN_D1*
X42700000Y68150000D03*
G04 #@! TO.N,/IN_D2*
X42700000Y70650000D03*
G04 #@! TO.N,/IN_D3*
X42700000Y73150000D03*
G04 #@! TO.N,/INJ1_OUT*
X40200000Y65650000D03*
G04 #@! TO.N,/VR-*
X40200000Y68150000D03*
G04 #@! TO.N,/IN_CMP*
X40200000Y70650000D03*
G04 #@! TO.N,GNDA*
X40200000Y73150000D03*
G04 #@! TO.N,+5VP*
X37700000Y65650000D03*
G04 #@! TO.N,/VR+*
X37700000Y68150000D03*
G04 #@! TO.N,/CAN-H*
X37700000Y70650000D03*
G04 #@! TO.N,/CAN-L*
X37700000Y73150000D03*
G04 #@! TO.N,+12V*
X34200000Y65650000D03*
G04 #@! TO.N,GND*
X34200000Y68150000D03*
G04 #@! TO.N,/OUT_2*
X34200000Y70650000D03*
G04 #@! TO.N,/OUT_3*
X34200000Y73150000D03*
G04 #@! TO.N,/DC2-*
X30500000Y65650000D03*
G04 #@! TO.N,/DC1-*
X30500000Y68150000D03*
G04 #@! TO.N,/DC1+*
X30500000Y70650000D03*
G04 #@! TO.N,/DC2+*
X30500000Y73150000D03*
G04 #@! TD*
D10*
G04 #@! TO.N,+12V*
G04 #@! TO.C,F5*
X22850000Y60300000D03*
G04 #@! TO.N,/DC Drivers/DC2_PWR*
X22850000Y55400000D03*
G04 #@! TD*
G04 #@! TO.N,Net-(M3-PG_5VP)*
G04 #@! TO.C,R16*
X24045000Y2250000D03*
G04 #@! TO.N,/PG_5VP*
X27855000Y2250000D03*
G04 #@! TD*
G04 #@! TO.N,+12V*
G04 #@! TO.C,F4*
X20350000Y60300000D03*
G04 #@! TO.N,/DC Drivers/DC1_PWR*
X20350000Y55400000D03*
G04 #@! TD*
G04 #@! TO.N,+12V*
G04 #@! TO.C,F6*
X26350000Y60300000D03*
G04 #@! TO.N,/IN_VING*
X26350000Y55400000D03*
G04 #@! TD*
D12*
G04 #@! TO.N,unconnected-(M2-NC-PadE1)*
G04 #@! TO.C,M2*
X12012500Y31150000D03*
G04 #@! TO.N,unconnected-(M2-NC-PadE2)*
X12012500Y32350000D03*
G04 #@! TO.N,/VR_MAX9924*
X12012500Y29950000D03*
G04 #@! TO.N,+5VA*
X12012500Y28750000D03*
D26*
G04 #@! TO.N,GND*
X26662500Y31417500D03*
D27*
X26662500Y37467500D03*
D28*
X19650000Y28450000D03*
D29*
X19237500Y37900000D03*
D30*
X11812500Y35437500D03*
D12*
G04 #@! TO.N,/VR-*
X26437500Y35210000D03*
G04 #@! TO.N,/VR+*
X26437500Y36210000D03*
G04 #@! TD*
D31*
G04 #@! TO.N,Net-(D3-K)*
G04 #@! TO.C,M3*
X27924995Y23674999D03*
G04 #@! TO.N,unconnected-(M3-V12-PadE2)*
X27924995Y17275002D03*
G04 #@! TO.N,Net-(M1-IN_VIGN_(PA5))*
X27924995Y15374999D03*
G04 #@! TO.N,+5V*
X27924995Y11074999D03*
D12*
G04 #@! TO.N,/EN_5VP*
X28374994Y8675002D03*
G04 #@! TO.N,Net-(M3-PG_5VP)*
X28374994Y7675001D03*
D32*
G04 #@! TO.N,GND*
X11774999Y19824999D03*
D33*
X11774999Y11325001D03*
D34*
X11774999Y4224999D03*
D35*
X20174997Y4174999D03*
D36*
X20974998Y24774999D03*
D31*
X27924995Y4824999D03*
D34*
X28574996Y24724999D03*
D37*
X28574996Y20525001D03*
D38*
X28574996Y13174999D03*
D39*
X28574996Y9675002D03*
D40*
X28574996Y6375001D03*
D31*
G04 #@! TO.N,+12V_RAW*
X12424998Y24125001D03*
G04 #@! TO.N,/IN_VING*
X12424998Y22275002D03*
G04 #@! TO.N,+12V_RAW*
X12424998Y17324999D03*
G04 #@! TO.N,+5VP*
X12424998Y5275001D03*
G04 #@! TD*
D41*
G04 #@! TO.N,Net-(BT1-+)*
X33350000Y41250000D03*
X24850000Y26150000D03*
G04 #@! TO.N,GND*
X38750000Y42050000D03*
X24150000Y62650000D03*
X32650000Y18550000D03*
X26450000Y65750000D03*
X13550000Y61750000D03*
X32350000Y27250000D03*
X61650000Y59650000D03*
X11050000Y20350000D03*
X65050000Y56050000D03*
X26750000Y70450000D03*
X11250000Y61650000D03*
X18350000Y42950000D03*
X14750000Y60550000D03*
X72150000Y28550000D03*
X27650000Y65750000D03*
X26550000Y66850000D03*
X16450000Y3350000D03*
X10550000Y41450000D03*
X43950000Y63050000D03*
X46850000Y3350000D03*
X63950000Y57150000D03*
X41650000Y3350000D03*
X43350000Y46850000D03*
X35350000Y75650000D03*
X14450000Y25450000D03*
X47050000Y43550000D03*
X16450000Y50050000D03*
X52550000Y60850000D03*
X11150000Y7850000D03*
X76550000Y25650000D03*
X35950000Y71850000D03*
X69750000Y34950000D03*
X18750000Y25550000D03*
X14750000Y64050000D03*
X65450000Y45350000D03*
X18950000Y64050000D03*
X32650000Y13850000D03*
X69750000Y36650000D03*
X53650000Y43750000D03*
X57850000Y70050000D03*
X29250000Y20750000D03*
X76550000Y27050000D03*
X37450000Y43150000D03*
X13550000Y60550000D03*
X2150000Y46250000D03*
X52350000Y69850000D03*
X68850000Y58750000D03*
X76550000Y32750000D03*
X63950000Y3350000D03*
X55450000Y66550000D03*
X60250000Y3350000D03*
X14750000Y61750000D03*
X33050000Y75650000D03*
X20050000Y45550000D03*
X32650000Y16450000D03*
X45950000Y46850000D03*
X34250000Y75650000D03*
X32250000Y24150000D03*
X39050000Y38550000D03*
X14850000Y3350000D03*
X11950000Y41450000D03*
X4650000Y50850000D03*
X48250000Y51350000D03*
X64050000Y64450000D03*
X29350000Y13650000D03*
X11050000Y11350000D03*
X76550000Y29950000D03*
X1350000Y63250000D03*
X23450000Y25550000D03*
X6150000Y60550000D03*
X60550000Y60850000D03*
X61150000Y38550000D03*
X2950000Y60150000D03*
X54250000Y51350000D03*
X72150000Y22450000D03*
X10450000Y15850000D03*
X22750000Y62650000D03*
X76550000Y31350000D03*
X58250000Y3350000D03*
X51850000Y46850000D03*
X6950000Y38950000D03*
X46450000Y63250000D03*
X20950000Y25550000D03*
X59450000Y38550000D03*
X29850000Y63450000D03*
X12750000Y50050000D03*
X25350000Y66950000D03*
X27750000Y66950000D03*
X16750000Y67550000D03*
X10750000Y50050000D03*
X21250000Y62650000D03*
X15850000Y60550000D03*
X6050000Y39650000D03*
X5250000Y40350000D03*
X48950000Y46450000D03*
X63550000Y46950000D03*
X16850000Y60550000D03*
X34150000Y62450000D03*
X3150000Y42550000D03*
X62050000Y3350000D03*
X19350000Y3350000D03*
X10250000Y61650000D03*
X62950000Y58350000D03*
X32450000Y7650000D03*
X62750000Y65850000D03*
X25450000Y65850000D03*
X39950000Y57850000D03*
X26750000Y69350000D03*
X8750000Y50050000D03*
X10150000Y60550000D03*
X44850000Y38950000D03*
X13350000Y41450000D03*
X28950000Y62550000D03*
X13250000Y64050000D03*
X13450000Y3350000D03*
X76550000Y28450000D03*
X14850000Y41450000D03*
X16850000Y25550000D03*
X35650000Y3350000D03*
X68150000Y3350000D03*
X4550000Y41050000D03*
X52250000Y67250000D03*
X36450000Y75650000D03*
X43050000Y42850000D03*
X66550000Y61450000D03*
X42550000Y51250000D03*
X12450000Y61750000D03*
X15650000Y66550000D03*
X11250000Y60550000D03*
X67950000Y38550000D03*
X29950000Y50350000D03*
X26750000Y38750000D03*
X49850000Y43650000D03*
X2250000Y2150000D03*
X63650000Y43050000D03*
X28350000Y69250000D03*
X15950000Y61650000D03*
X17950000Y3350000D03*
X45050000Y51350000D03*
X32550000Y9650000D03*
X12450000Y60550000D03*
X69750000Y33050000D03*
X16950000Y61750000D03*
X21150000Y3350000D03*
X39950000Y56250000D03*
X50950000Y51350000D03*
X37750000Y63450000D03*
X16150000Y64050000D03*
X51450000Y62950000D03*
X56050000Y3350000D03*
X30450000Y75650000D03*
X9150000Y60450000D03*
X4950000Y46150000D03*
X65450000Y62650000D03*
X27650000Y52850000D03*
X34150000Y63550000D03*
X14550000Y65450000D03*
X37650000Y38550000D03*
X3850000Y41750000D03*
X32550000Y5950000D03*
X37850000Y75650000D03*
X17550000Y64050000D03*
X28350000Y70450000D03*
X44050000Y42150000D03*
X31850000Y75650000D03*
G04 #@! TO.N,/DC1-*
X4750000Y56750000D03*
X18550000Y61750000D03*
G04 #@! TO.N,/DC2-*
X19150000Y53250000D03*
X4650000Y47550000D03*
G04 #@! TO.N,+3.3VA*
X51050000Y39250000D03*
X56850000Y39750000D03*
X32250000Y30950000D03*
G04 #@! TO.N,+12V_RAW*
X31250000Y54850000D03*
X34050000Y53950000D03*
X58050000Y55850000D03*
G04 #@! TO.N,/OUT_3*
X31350000Y60550000D03*
G04 #@! TO.N,/IGN1_IN*
X63850000Y38850000D03*
G04 #@! TO.N,/IGN2_IN*
X65050000Y38850000D03*
G04 #@! TO.N,/IGN3_IN*
X66250000Y38850000D03*
G04 #@! TO.N,+12V*
X72300000Y26325000D03*
G04 #@! TO.N,+3.3V*
X2750000Y55250000D03*
X18150000Y44750000D03*
X2550000Y43750000D03*
X61550000Y43450000D03*
X17950000Y54050000D03*
X3729657Y4029657D03*
G04 #@! TO.N,/DC1_DIS*
X3050000Y51950000D03*
X24950000Y39150000D03*
X3450000Y46150000D03*
G04 #@! TO.N,/DC1_PWM*
X4950000Y52950000D03*
X21955517Y51574757D03*
G04 #@! TO.N,/DC2_DIR*
X40809625Y40909625D03*
X51150000Y40850000D03*
G04 #@! TO.N,/IN_IAT*
X58109620Y74709620D03*
G04 #@! TO.N,/IN_CLT*
X57050826Y75768414D03*
G04 #@! TO.N,/IN_MAP*
X54284926Y76484926D03*
G04 #@! TO.N,/IN_TPS*
X55650000Y76250000D03*
G04 #@! TO.N,/IN_AUX1*
X52925306Y76925306D03*
G04 #@! TO.N,/IN_AUX2*
X51615686Y77315686D03*
G04 #@! TO.N,/IN_D3*
X45150000Y75550000D03*
G04 #@! TO.N,+5VP*
X11850000Y25550000D03*
X8450000Y18250000D03*
X32150000Y49963173D03*
X29100000Y32450000D03*
X32950000Y46650000D03*
G04 #@! TO.N,/CAN-H*
X38950000Y59350000D03*
G04 #@! TO.N,/LS2*
X40050000Y46050000D03*
X39750000Y43150000D03*
G04 #@! TO.N,/PG_5VP*
X30250000Y12150000D03*
X30350000Y9150000D03*
G04 #@! TO.N,/DC Drivers/DC1_PWR*
X18950000Y56050000D03*
X17750000Y56050000D03*
G04 #@! TO.N,/DC Drivers/DC2_PWR*
X17950000Y46850000D03*
X20450000Y48450000D03*
X19650000Y47650000D03*
X18850000Y46850000D03*
G04 #@! TD*
D42*
G04 #@! TO.N,Net-(BT1-+)*
X29950000Y29350000D02*
X26750000Y26150000D01*
X33350000Y41250000D02*
X29950000Y37850000D01*
X26750000Y26150000D02*
X24850000Y26150000D01*
X29950000Y37850000D02*
X29950000Y29350000D01*
D43*
G04 #@! TO.N,GND*
X44850000Y38950000D02*
X44850000Y38450010D01*
X44850000Y38450010D02*
X45450000Y37850010D01*
D42*
G04 #@! TO.N,+3.3VA*
X32250000Y30950000D02*
X32250000Y37550030D01*
X34399970Y39700000D02*
X50600000Y39700000D01*
X50600000Y39700000D02*
X51050000Y39250000D01*
X32250000Y37550030D02*
X34399970Y39700000D01*
D44*
G04 #@! TO.N,+12V_RAW*
X28750000Y55400000D02*
X27200000Y53850000D01*
X8950000Y26950000D02*
X11774999Y24125001D01*
D42*
X57023260Y54823260D02*
X58050000Y55850000D01*
D44*
X26650000Y53850000D02*
X22350000Y49550000D01*
X28750000Y55400000D02*
X29300000Y54850000D01*
X8950000Y38150000D02*
X8950000Y26950000D01*
X11774999Y24125001D02*
X12424998Y24125001D01*
X56950000Y54750000D02*
X57023260Y54823260D01*
X22350000Y43450000D02*
X18500000Y39600000D01*
X18500000Y39600000D02*
X10400000Y39600000D01*
X10400000Y39600000D02*
X8950000Y38150000D01*
X27200000Y53850000D02*
X26650000Y53850000D01*
X29300000Y54850000D02*
X31250000Y54850000D01*
X22350000Y49550000D02*
X22350000Y43450000D01*
X34850000Y54750000D02*
X56950000Y54750000D01*
X34050000Y53950000D02*
X34850000Y54750000D01*
D42*
G04 #@! TO.N,+12V*
X72950000Y49150000D02*
X72900000Y49200000D01*
X32400000Y54373654D02*
X32400000Y56650000D01*
X31450000Y53423654D02*
X32400000Y54373654D01*
X31450000Y49586396D02*
X31450000Y53423654D01*
X32400000Y56650000D02*
X28750000Y60300000D01*
X72300000Y26325000D02*
X72950000Y26975000D01*
X72950000Y26975000D02*
X72950000Y49150000D01*
X72900000Y49200000D02*
X31836396Y49200000D01*
X31836396Y49200000D02*
X31450000Y49586396D01*
G04 #@! TO.N,+3.3V*
X6809313Y950000D02*
X3729657Y4029657D01*
X30539950Y56550000D02*
X31950000Y55139950D01*
X1450000Y6309313D02*
X1450000Y42650000D01*
X2750000Y55250000D02*
X2750000Y54250000D01*
X1450000Y42650000D02*
X2550000Y43750000D01*
X30350000Y950000D02*
X6809313Y950000D01*
X30850000Y49550000D02*
X31650000Y48750000D01*
X17250000Y53350000D02*
X17950000Y54050000D01*
X31550000Y10650000D02*
X31550000Y2150000D01*
X31650000Y48750000D02*
X56250000Y48750000D01*
X33550000Y12650000D02*
X31550000Y10650000D01*
X30850000Y53460050D02*
X30850000Y49550000D01*
X25998105Y56550000D02*
X30539950Y56550000D01*
X31550000Y2150000D02*
X30350000Y950000D01*
X2750000Y54250000D02*
X1250000Y52750000D01*
X17250000Y45650000D02*
X17250000Y53350000D01*
X2550000Y43750000D02*
X18150000Y43750000D01*
X23498105Y54050000D02*
X25998105Y56550000D01*
X56250000Y48750000D02*
X61550000Y43450000D01*
X31950000Y54560050D02*
X30850000Y53460050D01*
X1250000Y52750000D02*
X1250000Y44350000D01*
X61650000Y43550000D02*
X61550000Y43450000D01*
X1250000Y44350000D02*
X1850000Y43750000D01*
X3729657Y4029657D02*
X1450000Y6309313D01*
X31950000Y55139950D02*
X31950000Y54560050D01*
X1850000Y43750000D02*
X2550000Y43750000D01*
X18150000Y44750000D02*
X17250000Y45650000D01*
X18150000Y43750000D02*
X18150000Y44750000D01*
X17950000Y54050000D02*
X23498105Y54050000D01*
D44*
G04 #@! TO.N,+5VP*
X9850000Y6875001D02*
X11450000Y5275001D01*
X8450000Y18250000D02*
X8450000Y14750000D01*
X12750000Y26450000D02*
X11850000Y25550000D01*
X36050000Y59650000D02*
X36050000Y64000000D01*
X32950000Y56550000D02*
X36050000Y59650000D01*
X29150000Y29750000D02*
X26350000Y26950000D01*
X32150000Y53345836D02*
X32950000Y54145837D01*
X24518629Y26950000D02*
X24018629Y26450000D01*
X30750000Y46650000D02*
X29150000Y45050000D01*
X9850000Y13350000D02*
X9850000Y6875001D01*
X24018629Y26450000D02*
X12750000Y26450000D01*
X29150000Y45050000D02*
X29150000Y29750000D01*
X36050000Y64000000D02*
X37700000Y65650000D01*
X32950000Y46650000D02*
X30750000Y46650000D01*
X8450000Y14750000D02*
X9850000Y13350000D01*
X32950000Y54145837D02*
X32950000Y56550000D01*
X26350000Y26950000D02*
X24518629Y26950000D01*
X11450000Y5275001D02*
X12424998Y5275001D01*
X32150000Y49963173D02*
X32150000Y53345836D01*
D42*
G04 #@! TO.N,+5VA*
X31060050Y47950000D02*
X53650000Y47950000D01*
X12112500Y39050000D02*
X22160050Y39050000D01*
X10850000Y37787500D02*
X12112500Y39050000D01*
X22160050Y39050000D02*
X31060050Y47950000D01*
X53650000Y47950000D02*
X62449990Y39150010D01*
X62449990Y39150010D02*
X62449990Y37650000D01*
X10850000Y29912500D02*
X10850000Y37787500D01*
X12012500Y28750000D02*
X10850000Y29912500D01*
G04 #@! TO.N,Net-(M1-IN_VIGN_(PA5))*
X53150000Y38250000D02*
X55198529Y38250000D01*
X31000000Y37800000D02*
X33350000Y40150000D01*
X33350000Y40150000D02*
X51250000Y40150000D01*
X31000000Y18450004D02*
X31000000Y37800000D01*
X55749990Y37698539D02*
X55749990Y37650010D01*
X55198529Y38250000D02*
X55749990Y37698539D01*
X51250000Y40150000D02*
X53150000Y38250000D01*
X27924995Y15374999D02*
X31000000Y18450004D01*
G04 #@! TO.N,/PG_5VP*
X30700000Y12600000D02*
X30700000Y17513608D01*
X31450000Y18263608D02*
X31450000Y27850000D01*
X27855000Y2250000D02*
X30350000Y2250000D01*
X30250000Y12150000D02*
X30700000Y12600000D01*
X31450000Y27850000D02*
X32050010Y28450010D01*
X32050010Y28450010D02*
X33550000Y28450010D01*
X30700000Y17513608D02*
X31450000Y18263608D01*
X30350000Y2250000D02*
X30350000Y9150000D01*
G04 #@! TO.N,/EN_5VP*
X31150000Y14850000D02*
X31650000Y15350000D01*
X31150000Y11250000D02*
X31150000Y14850000D01*
X28575002Y8675002D02*
X31150000Y11250000D01*
X31650000Y15350000D02*
X33550000Y15350000D01*
X28374994Y8675002D02*
X28575002Y8675002D01*
G04 #@! TO.N,Net-(M3-PG_5VP)*
X24045000Y2250000D02*
X25145000Y3350000D01*
X29750000Y4150000D02*
X29750000Y7675001D01*
X29750000Y7675001D02*
X28374994Y7675001D01*
X25145000Y3350000D02*
X28950000Y3350000D01*
X28950000Y3350000D02*
X29750000Y4150000D01*
D44*
G04 #@! TO.N,/IN_VING*
X21550000Y49669239D02*
X21550000Y43850000D01*
X8150000Y26550000D02*
X12424998Y22275002D01*
X21550000Y43850000D02*
X18050000Y40350000D01*
X18050000Y40350000D02*
X10050000Y40350000D01*
X26350000Y55400000D02*
X26350000Y54469239D01*
X10050000Y40350000D02*
X8150000Y38450000D01*
X26350000Y54469239D02*
X21550000Y49669239D01*
X8150000Y38450000D02*
X8150000Y26550000D01*
G04 #@! TD*
G04 #@! TA.AperFunction,Conductor*
G04 #@! TO.N,GND*
G36*
X77352777Y80149345D02*
G01*
X77657898Y80132209D01*
X77668921Y80130967D01*
X77967476Y80080241D01*
X77978270Y80077778D01*
X78269279Y79993939D01*
X78279750Y79990275D01*
X78559523Y79874389D01*
X78569525Y79869572D01*
X78834555Y79723095D01*
X78843955Y79717189D01*
X79090930Y79541951D01*
X79099610Y79535028D01*
X79325399Y79333250D01*
X79333249Y79325400D01*
X79535027Y79099611D01*
X79541950Y79090931D01*
X79717188Y78843956D01*
X79723094Y78834556D01*
X79869571Y78569526D01*
X79874388Y78559524D01*
X79990272Y78279755D01*
X79993939Y78269276D01*
X80077773Y77978286D01*
X80080243Y77967462D01*
X80130965Y77668927D01*
X80132208Y77657895D01*
X80143893Y77449844D01*
X80149298Y77353588D01*
X80149344Y77352778D01*
X80149500Y77347227D01*
X80149500Y3352774D01*
X80149344Y3347223D01*
X80132208Y3042106D01*
X80130965Y3031074D01*
X80080243Y2732539D01*
X80077773Y2721715D01*
X79993939Y2430725D01*
X79990272Y2420246D01*
X79874388Y2140477D01*
X79869571Y2130475D01*
X79723094Y1865445D01*
X79717188Y1856045D01*
X79541950Y1609070D01*
X79535027Y1600390D01*
X79333249Y1374601D01*
X79325399Y1366751D01*
X79099610Y1164973D01*
X79090930Y1158050D01*
X78843955Y982812D01*
X78834555Y976906D01*
X78569525Y830429D01*
X78559523Y825612D01*
X78279754Y709728D01*
X78269275Y706061D01*
X77978285Y622227D01*
X77967461Y619757D01*
X77668926Y569035D01*
X77657894Y567792D01*
X77352778Y550656D01*
X77347227Y550500D01*
X30685189Y550500D01*
X30626998Y569407D01*
X30591034Y618907D01*
X30591034Y680093D01*
X30615183Y719502D01*
X31830469Y1934788D01*
X31876614Y2014712D01*
X31876616Y2014718D01*
X31881993Y2034786D01*
X31881993Y2034788D01*
X31881994Y2034791D01*
X31900500Y2103856D01*
X31900500Y10463811D01*
X31919407Y10522002D01*
X31929490Y10533809D01*
X32913348Y11517668D01*
X32967863Y11545443D01*
X33028295Y11535872D01*
X33071560Y11492607D01*
X33073403Y11488789D01*
X33124621Y11376639D01*
X33218873Y11267866D01*
X33304513Y11212829D01*
X33343244Y11165463D01*
X33349990Y11129545D01*
X33349990Y4770466D01*
X33331083Y4712275D01*
X33304514Y4687182D01*
X33218872Y4632143D01*
X33124622Y4523372D01*
X33064834Y4392457D01*
X33044353Y4250003D01*
X33044353Y4249998D01*
X33064834Y4107544D01*
X33112687Y4002762D01*
X33124623Y3976627D01*
X33214503Y3872899D01*
X33218873Y3867856D01*
X33218875Y3867855D01*
X33339947Y3790047D01*
X33433451Y3762592D01*
X33478035Y3749501D01*
X33478036Y3749501D01*
X33478039Y3749500D01*
X33478041Y3749500D01*
X33621959Y3749500D01*
X33621961Y3749500D01*
X33760053Y3790047D01*
X33881128Y3867857D01*
X33975377Y3976627D01*
X33982456Y3992127D01*
X34023829Y4037204D01*
X34072509Y4050000D01*
X37727491Y4050000D01*
X37785682Y4031093D01*
X37817544Y3992127D01*
X37824621Y3976629D01*
X37824819Y3976401D01*
X37907205Y3881321D01*
X37918873Y3867856D01*
X37918875Y3867855D01*
X38039947Y3790047D01*
X38133451Y3762592D01*
X38178035Y3749501D01*
X38178036Y3749501D01*
X38178039Y3749500D01*
X38178041Y3749500D01*
X38321959Y3749500D01*
X38321961Y3749500D01*
X38460053Y3790047D01*
X38581128Y3867857D01*
X38675377Y3976627D01*
X38682456Y3992127D01*
X38723829Y4037204D01*
X38772509Y4050000D01*
X39127481Y4050000D01*
X39185672Y4031093D01*
X39217534Y3992127D01*
X39224611Y3976629D01*
X39224809Y3976401D01*
X39307195Y3881321D01*
X39318863Y3867856D01*
X39318865Y3867855D01*
X39439937Y3790047D01*
X39533441Y3762592D01*
X39578025Y3749501D01*
X39578026Y3749501D01*
X39578029Y3749500D01*
X39578031Y3749500D01*
X39721949Y3749500D01*
X39721951Y3749500D01*
X39860043Y3790047D01*
X39981118Y3867857D01*
X40075367Y3976627D01*
X40082446Y3992127D01*
X40123819Y4037204D01*
X40172499Y4050000D01*
X43827491Y4050000D01*
X43885682Y4031093D01*
X43917544Y3992127D01*
X43924621Y3976629D01*
X43924819Y3976401D01*
X44007205Y3881321D01*
X44018873Y3867856D01*
X44018875Y3867855D01*
X44139947Y3790047D01*
X44233451Y3762592D01*
X44278035Y3749501D01*
X44278036Y3749501D01*
X44278039Y3749500D01*
X44278041Y3749500D01*
X44421959Y3749500D01*
X44421961Y3749500D01*
X44560053Y3790047D01*
X44681128Y3867857D01*
X44681136Y3867867D01*
X44685165Y3871356D01*
X44741523Y3895176D01*
X44801119Y3881321D01*
X44814835Y3871356D01*
X44818866Y3867863D01*
X44818872Y3867857D01*
X44939947Y3790047D01*
X45033451Y3762592D01*
X45078035Y3749501D01*
X45078036Y3749501D01*
X45078039Y3749500D01*
X45078041Y3749500D01*
X45221959Y3749500D01*
X45221961Y3749500D01*
X45360053Y3790047D01*
X45481128Y3867857D01*
X45575377Y3976627D01*
X45582456Y3992127D01*
X45623829Y4037204D01*
X45672509Y4050000D01*
X47227491Y4050000D01*
X47285682Y4031093D01*
X47317544Y3992127D01*
X47324621Y3976629D01*
X47324819Y3976401D01*
X47407205Y3881321D01*
X47418873Y3867856D01*
X47418875Y3867855D01*
X47539947Y3790047D01*
X47633451Y3762592D01*
X47678035Y3749501D01*
X47678036Y3749501D01*
X47678039Y3749500D01*
X47678041Y3749500D01*
X47821959Y3749500D01*
X47821961Y3749500D01*
X47960053Y3790047D01*
X48081128Y3867857D01*
X48175182Y3976403D01*
X48227576Y4007997D01*
X48288537Y4002762D01*
X48324816Y3976404D01*
X48414503Y3872899D01*
X48418873Y3867856D01*
X48418875Y3867855D01*
X48539947Y3790047D01*
X48633451Y3762592D01*
X48678035Y3749501D01*
X48678036Y3749501D01*
X48678039Y3749500D01*
X48678041Y3749500D01*
X48821959Y3749500D01*
X48821961Y3749500D01*
X48960053Y3790047D01*
X49081128Y3867857D01*
X49175182Y3976403D01*
X49227576Y4007997D01*
X49288537Y4002762D01*
X49324816Y3976404D01*
X49414503Y3872899D01*
X49418873Y3867856D01*
X49418875Y3867855D01*
X49539947Y3790047D01*
X49633451Y3762592D01*
X49678035Y3749501D01*
X49678036Y3749501D01*
X49678039Y3749500D01*
X49678041Y3749500D01*
X49821959Y3749500D01*
X49821961Y3749500D01*
X49960053Y3790047D01*
X50081128Y3867857D01*
X50175182Y3976403D01*
X50227576Y4007997D01*
X50288537Y4002762D01*
X50324816Y3976404D01*
X50414503Y3872899D01*
X50418873Y3867856D01*
X50418875Y3867855D01*
X50539947Y3790047D01*
X50633451Y3762592D01*
X50678035Y3749501D01*
X50678036Y3749501D01*
X50678039Y3749500D01*
X50678041Y3749500D01*
X50821959Y3749500D01*
X50821961Y3749500D01*
X50960053Y3790047D01*
X51081128Y3867857D01*
X51175182Y3976403D01*
X51227576Y4007997D01*
X51288537Y4002762D01*
X51324816Y3976404D01*
X51414503Y3872899D01*
X51418873Y3867856D01*
X51418875Y3867855D01*
X51539947Y3790047D01*
X51633451Y3762592D01*
X51678035Y3749501D01*
X51678036Y3749501D01*
X51678039Y3749500D01*
X51678041Y3749500D01*
X51821959Y3749500D01*
X51821961Y3749500D01*
X51960053Y3790047D01*
X52081128Y3867857D01*
X52175182Y3976403D01*
X52227576Y4007997D01*
X52288537Y4002762D01*
X52324816Y3976404D01*
X52414503Y3872899D01*
X52418873Y3867856D01*
X52418875Y3867855D01*
X52539947Y3790047D01*
X52633451Y3762592D01*
X52678035Y3749501D01*
X52678036Y3749501D01*
X52678039Y3749500D01*
X52678041Y3749500D01*
X52821959Y3749500D01*
X52821961Y3749500D01*
X52960053Y3790047D01*
X53081128Y3867857D01*
X53175177Y3976397D01*
X53227571Y4007991D01*
X53288532Y4002756D01*
X53324812Y3976397D01*
X53414493Y3872899D01*
X53418863Y3867856D01*
X53418865Y3867855D01*
X53539937Y3790047D01*
X53633441Y3762592D01*
X53678025Y3749501D01*
X53678026Y3749501D01*
X53678029Y3749500D01*
X53678031Y3749500D01*
X53821949Y3749500D01*
X53821951Y3749500D01*
X53960043Y3790047D01*
X54081118Y3867857D01*
X54175177Y3976409D01*
X54227571Y4008003D01*
X54288532Y4002768D01*
X54324811Y3976410D01*
X54414503Y3872899D01*
X54418873Y3867856D01*
X54418875Y3867855D01*
X54539947Y3790047D01*
X54633451Y3762592D01*
X54678035Y3749501D01*
X54678036Y3749501D01*
X54678039Y3749500D01*
X54678041Y3749500D01*
X54821959Y3749500D01*
X54821961Y3749500D01*
X54960053Y3790047D01*
X55081128Y3867857D01*
X55175377Y3976627D01*
X55182456Y3992127D01*
X55223829Y4037204D01*
X55272509Y4050000D01*
X64927481Y4050000D01*
X64985672Y4031093D01*
X65017534Y3992127D01*
X65024611Y3976629D01*
X65024809Y3976401D01*
X65107195Y3881321D01*
X65118863Y3867856D01*
X65118865Y3867855D01*
X65239937Y3790047D01*
X65333441Y3762592D01*
X65378025Y3749501D01*
X65378026Y3749501D01*
X65378029Y3749500D01*
X65378031Y3749500D01*
X65521949Y3749500D01*
X65521951Y3749500D01*
X65660043Y3790047D01*
X65781118Y3867857D01*
X65875172Y3976403D01*
X65927566Y4007997D01*
X65988527Y4002762D01*
X66024806Y3976404D01*
X66114493Y3872899D01*
X66118863Y3867856D01*
X66118865Y3867855D01*
X66239937Y3790047D01*
X66333441Y3762592D01*
X66378025Y3749501D01*
X66378026Y3749501D01*
X66378029Y3749500D01*
X66378031Y3749500D01*
X66521949Y3749500D01*
X66521951Y3749500D01*
X66660043Y3790047D01*
X66781118Y3867857D01*
X66875367Y3976627D01*
X66882446Y3992127D01*
X66923819Y4037204D01*
X66972499Y4050000D01*
X69149989Y4050000D01*
X69149990Y4050000D01*
X69149990Y4129523D01*
X69168897Y4187714D01*
X69195460Y4212803D01*
X69281128Y4267857D01*
X69375377Y4376627D01*
X69435165Y4507543D01*
X69445415Y4578834D01*
X69455647Y4649998D01*
X69455647Y4650003D01*
X69435165Y4792457D01*
X69409473Y4848714D01*
X69375377Y4923373D01*
X69281128Y5032143D01*
X69232998Y5063074D01*
X69195466Y5087195D01*
X69156735Y5134562D01*
X69149990Y5170479D01*
X69149990Y6529523D01*
X69168897Y6587714D01*
X69195460Y6612803D01*
X69281128Y6667857D01*
X69375377Y6776627D01*
X69435165Y6907543D01*
X69455647Y7050000D01*
X69453978Y7061605D01*
X69435165Y7192457D01*
X69420074Y7225501D01*
X69375377Y7323373D01*
X69281128Y7432143D01*
X69232998Y7463074D01*
X69195466Y7487195D01*
X69156735Y7534562D01*
X69149990Y7570479D01*
X69149990Y7729523D01*
X69168897Y7787714D01*
X69195460Y7812803D01*
X69281128Y7867857D01*
X69375377Y7976627D01*
X69435165Y8107543D01*
X69455647Y8250000D01*
X69435165Y8392457D01*
X69375377Y8523373D01*
X69281128Y8632143D01*
X69220037Y8671404D01*
X69195466Y8687195D01*
X69156735Y8734562D01*
X69149990Y8770479D01*
X69149990Y8929523D01*
X69168897Y8987714D01*
X69195460Y9012803D01*
X69281128Y9067857D01*
X69375377Y9176627D01*
X69435165Y9307543D01*
X69455647Y9450000D01*
X69435165Y9592457D01*
X69375377Y9723373D01*
X69281128Y9832143D01*
X69232998Y9863074D01*
X69195466Y9887195D01*
X69156735Y9934562D01*
X69149990Y9970479D01*
X69149990Y10129523D01*
X69168897Y10187714D01*
X69195460Y10212803D01*
X69281128Y10267857D01*
X69375377Y10376627D01*
X69435165Y10507543D01*
X69443399Y10564811D01*
X69455647Y10649998D01*
X69455647Y10650003D01*
X69435165Y10792457D01*
X69375377Y10923373D01*
X69281128Y11032143D01*
X69214435Y11075004D01*
X69195466Y11087195D01*
X69156735Y11134562D01*
X69149990Y11170479D01*
X69149990Y11250005D01*
X71944457Y11250005D01*
X71944457Y11249996D01*
X71964611Y10891103D01*
X71964614Y10891083D01*
X72024824Y10536713D01*
X72024828Y10536693D01*
X72124340Y10191277D01*
X72261907Y9859163D01*
X72435787Y9544551D01*
X72600854Y9311911D01*
X72643806Y9251377D01*
X72883339Y8983339D01*
X73151377Y8743806D01*
X73151380Y8743804D01*
X73151381Y8743803D01*
X73182507Y8721718D01*
X73444548Y8535789D01*
X73444550Y8535788D01*
X73759163Y8361908D01*
X73759162Y8361908D01*
X74091276Y8224341D01*
X74436692Y8124829D01*
X74436695Y8124829D01*
X74436700Y8124827D01*
X74791093Y8064613D01*
X74791096Y8064613D01*
X74791102Y8064612D01*
X75149995Y8044457D01*
X75150000Y8044457D01*
X75150005Y8044457D01*
X75508897Y8064612D01*
X75508901Y8064613D01*
X75508907Y8064613D01*
X75863300Y8124827D01*
X76208724Y8224341D01*
X76540833Y8361906D01*
X76855452Y8535789D01*
X77148623Y8743806D01*
X77416661Y8983339D01*
X77656194Y9251377D01*
X77864211Y9544548D01*
X77995917Y9782855D01*
X78038092Y9859163D01*
X78038094Y9859167D01*
X78175659Y10191276D01*
X78275173Y10536700D01*
X78335387Y10891093D01*
X78337292Y10924998D01*
X78355543Y11249996D01*
X78355543Y11250005D01*
X78335388Y11608898D01*
X78335385Y11608918D01*
X78316219Y11721718D01*
X78275173Y11963300D01*
X78266549Y11993234D01*
X78175659Y12308724D01*
X78038092Y12640838D01*
X77864212Y12955450D01*
X77809795Y13032143D01*
X77656194Y13248623D01*
X77416661Y13516661D01*
X77148623Y13756194D01*
X77148620Y13756196D01*
X77148618Y13756198D01*
X76855449Y13964213D01*
X76540836Y14138093D01*
X76540837Y14138093D01*
X76208723Y14275660D01*
X75863307Y14375172D01*
X75863287Y14375176D01*
X75508917Y14435386D01*
X75508897Y14435389D01*
X75150005Y14455543D01*
X75149995Y14455543D01*
X74791102Y14435389D01*
X74791082Y14435386D01*
X74436712Y14375176D01*
X74436692Y14375172D01*
X74091276Y14275660D01*
X73759162Y14138093D01*
X73444550Y13964213D01*
X73151381Y13756198D01*
X72883346Y13516668D01*
X72883332Y13516654D01*
X72643802Y13248619D01*
X72435787Y12955450D01*
X72261907Y12640838D01*
X72124340Y12308724D01*
X72024828Y11963308D01*
X72024824Y11963288D01*
X71964614Y11608918D01*
X71964611Y11608898D01*
X71944457Y11250005D01*
X69149990Y11250005D01*
X69149990Y11329533D01*
X69168897Y11387724D01*
X69195460Y11412813D01*
X69281128Y11467867D01*
X69375377Y11576637D01*
X69435165Y11707553D01*
X69455237Y11847159D01*
X69455647Y11850008D01*
X69455647Y11850013D01*
X69435165Y11992467D01*
X69375377Y12123382D01*
X69375377Y12123383D01*
X69281128Y12232153D01*
X69232998Y12263084D01*
X69195466Y12287205D01*
X69156735Y12334572D01*
X69149990Y12370489D01*
X69149990Y12529533D01*
X69168897Y12587724D01*
X69195460Y12612813D01*
X69281128Y12667867D01*
X69375377Y12776637D01*
X69435165Y12907553D01*
X69453078Y13032143D01*
X69455647Y13050008D01*
X69455647Y13050013D01*
X69435165Y13192467D01*
X69375377Y13323382D01*
X69375377Y13323383D01*
X69281128Y13432153D01*
X69232998Y13463084D01*
X69195466Y13487205D01*
X69156735Y13534572D01*
X69149990Y13570489D01*
X69149990Y13729533D01*
X69168897Y13787724D01*
X69195460Y13812813D01*
X69281128Y13867867D01*
X69375377Y13976637D01*
X69435165Y14107553D01*
X69455647Y14250010D01*
X69451959Y14275659D01*
X69435165Y14392467D01*
X69375377Y14523382D01*
X69375377Y14523383D01*
X69281128Y14632153D01*
X69208485Y14678838D01*
X69195466Y14687205D01*
X69156735Y14734572D01*
X69149990Y14770489D01*
X69149990Y14929533D01*
X69168897Y14987724D01*
X69195460Y15012813D01*
X69281128Y15067867D01*
X69375377Y15176637D01*
X69435165Y15307553D01*
X69444863Y15375004D01*
X69455647Y15450008D01*
X69455647Y15450013D01*
X69435165Y15592467D01*
X69396736Y15676614D01*
X69375377Y15723383D01*
X69281128Y15832153D01*
X69221512Y15870466D01*
X69195466Y15887205D01*
X69156735Y15934572D01*
X69149990Y15970489D01*
X69149990Y16129533D01*
X69168897Y16187724D01*
X69195460Y16212813D01*
X69281128Y16267867D01*
X69375377Y16376637D01*
X69435165Y16507553D01*
X69455647Y16650010D01*
X69435165Y16792467D01*
X69375377Y16923383D01*
X69281128Y17032153D01*
X69230305Y17064815D01*
X69195466Y17087205D01*
X69156735Y17134572D01*
X69149990Y17170489D01*
X69149990Y17329533D01*
X69168897Y17387724D01*
X69195460Y17412813D01*
X69281128Y17467867D01*
X69375377Y17576637D01*
X69435165Y17707553D01*
X69450911Y17817068D01*
X69455647Y17850008D01*
X69455647Y17850013D01*
X69435165Y17992467D01*
X69431562Y18000356D01*
X69375377Y18123383D01*
X69281128Y18232153D01*
X69232998Y18263084D01*
X69195466Y18287205D01*
X69156735Y18334572D01*
X69149990Y18370489D01*
X69149990Y18529533D01*
X69168897Y18587724D01*
X69195460Y18612813D01*
X69281128Y18667867D01*
X69375377Y18776637D01*
X69435165Y18907553D01*
X69455647Y19050010D01*
X69435165Y19192467D01*
X69375377Y19323383D01*
X69281128Y19432153D01*
X69232998Y19463084D01*
X69195466Y19487205D01*
X69156735Y19534572D01*
X69149990Y19570489D01*
X69149990Y19729533D01*
X69168897Y19787724D01*
X69195460Y19812813D01*
X69281128Y19867867D01*
X69375377Y19976637D01*
X69435165Y20107553D01*
X69455647Y20250010D01*
X69435165Y20392467D01*
X69375377Y20523383D01*
X69281128Y20632153D01*
X69232998Y20663084D01*
X69195466Y20687205D01*
X69156735Y20734572D01*
X69149990Y20770489D01*
X69149990Y20929533D01*
X69168897Y20987724D01*
X69195460Y21012813D01*
X69281128Y21067867D01*
X69375377Y21176637D01*
X69435165Y21307553D01*
X69455647Y21450010D01*
X69443668Y21533324D01*
X69435165Y21592467D01*
X69408890Y21650000D01*
X69375377Y21723383D01*
X69281128Y21832153D01*
X69232998Y21863084D01*
X69195466Y21887205D01*
X69156735Y21934572D01*
X69149990Y21970489D01*
X69149990Y22129533D01*
X69168897Y22187724D01*
X69195460Y22212813D01*
X69281128Y22267867D01*
X69375377Y22376637D01*
X69435165Y22507553D01*
X69455647Y22650010D01*
X69435165Y22792467D01*
X69375377Y22923383D01*
X69281128Y23032153D01*
X69232998Y23063084D01*
X69195466Y23087205D01*
X69156735Y23134572D01*
X69149990Y23170489D01*
X69149990Y23329533D01*
X69168897Y23387724D01*
X69195460Y23412813D01*
X69281128Y23467867D01*
X69375377Y23576637D01*
X69435165Y23707553D01*
X69455647Y23850010D01*
X69454020Y23861325D01*
X69435165Y23992467D01*
X69405019Y24058476D01*
X69375377Y24123383D01*
X69281128Y24232153D01*
X69232998Y24263084D01*
X69195466Y24287205D01*
X69156735Y24334572D01*
X69149990Y24370489D01*
X69149990Y24529533D01*
X69168897Y24587724D01*
X69195460Y24612813D01*
X69281128Y24667867D01*
X69375377Y24776637D01*
X69435165Y24907553D01*
X69455647Y25050010D01*
X69453959Y25061748D01*
X69435165Y25192467D01*
X69375377Y25323383D01*
X69281128Y25432153D01*
X69232998Y25463084D01*
X69195466Y25487205D01*
X69156735Y25534572D01*
X69149990Y25570489D01*
X69149990Y25729533D01*
X69168897Y25787724D01*
X69195460Y25812813D01*
X69281128Y25867867D01*
X69375377Y25976637D01*
X69435165Y26107553D01*
X69455647Y26250010D01*
X69452285Y26273391D01*
X69435165Y26392467D01*
X69408751Y26450304D01*
X69375377Y26523383D01*
X69281128Y26632153D01*
X69232998Y26663084D01*
X69195466Y26687205D01*
X69156735Y26734572D01*
X69149990Y26770489D01*
X69149990Y26929533D01*
X69168897Y26987724D01*
X69195460Y27012813D01*
X69281128Y27067867D01*
X69375377Y27176637D01*
X69435165Y27307553D01*
X69445047Y27376287D01*
X69455647Y27450008D01*
X69455647Y27450013D01*
X69435165Y27592467D01*
X69383855Y27704819D01*
X69375377Y27723383D01*
X69281128Y27832153D01*
X69232998Y27863084D01*
X69195466Y27887205D01*
X69156735Y27934572D01*
X69149990Y27970489D01*
X69149990Y28129533D01*
X69168897Y28187724D01*
X69195460Y28212813D01*
X69281128Y28267867D01*
X69375377Y28376637D01*
X69435165Y28507553D01*
X69449541Y28607543D01*
X69455647Y28650008D01*
X69455647Y28650013D01*
X69435165Y28792467D01*
X69409627Y28848386D01*
X69375377Y28923383D01*
X69281128Y29032153D01*
X69232998Y29063084D01*
X69195466Y29087205D01*
X69156735Y29134572D01*
X69149990Y29170489D01*
X69149990Y29329533D01*
X69168897Y29387724D01*
X69195460Y29412813D01*
X69281128Y29467867D01*
X69375377Y29576637D01*
X69435165Y29707553D01*
X69455647Y29850010D01*
X69445992Y29917160D01*
X69435165Y29992467D01*
X69418624Y30028686D01*
X69375377Y30123383D01*
X69281128Y30232153D01*
X69232998Y30263084D01*
X69195466Y30287205D01*
X69156735Y30334572D01*
X69149990Y30370489D01*
X69149990Y30529543D01*
X69168897Y30587734D01*
X69195460Y30612823D01*
X69281128Y30667877D01*
X69375377Y30776647D01*
X69435165Y30907563D01*
X69455647Y31050020D01*
X69447489Y31106759D01*
X69435165Y31192477D01*
X69405026Y31258472D01*
X69375377Y31323393D01*
X69281128Y31432163D01*
X69232998Y31463094D01*
X69195466Y31487215D01*
X69156735Y31534582D01*
X69149990Y31570499D01*
X69149990Y37849999D01*
X69149990Y37850000D01*
X69149989Y37850000D01*
X62972499Y37850000D01*
X62914308Y37868907D01*
X62882446Y37907873D01*
X62875634Y37922788D01*
X62875367Y37923373D01*
X62875366Y37923374D01*
X62875367Y37923374D01*
X62824670Y37981883D01*
X62800853Y38038243D01*
X62800490Y38046713D01*
X62800490Y38850001D01*
X63244318Y38850001D01*
X63244318Y38850000D01*
X63264955Y38693242D01*
X63264957Y38693234D01*
X63325462Y38547162D01*
X63325462Y38547161D01*
X63338271Y38530468D01*
X63421718Y38421718D01*
X63547159Y38325464D01*
X63547160Y38325464D01*
X63547161Y38325463D01*
X63693139Y38264997D01*
X63693238Y38264956D01*
X63810809Y38249478D01*
X63849999Y38244318D01*
X63850000Y38244318D01*
X63850001Y38244318D01*
X63881352Y38248446D01*
X64006762Y38264956D01*
X64152841Y38325464D01*
X64278282Y38421718D01*
X64371458Y38543149D01*
X64421882Y38577804D01*
X64483047Y38576203D01*
X64528541Y38543149D01*
X64621718Y38421718D01*
X64747159Y38325464D01*
X64747160Y38325464D01*
X64747161Y38325463D01*
X64893139Y38264997D01*
X64893238Y38264956D01*
X65010809Y38249478D01*
X65049999Y38244318D01*
X65050000Y38244318D01*
X65050001Y38244318D01*
X65081352Y38248446D01*
X65206762Y38264956D01*
X65352841Y38325464D01*
X65478282Y38421718D01*
X65571458Y38543149D01*
X65621882Y38577804D01*
X65683047Y38576203D01*
X65728541Y38543149D01*
X65821718Y38421718D01*
X65947159Y38325464D01*
X65947160Y38325464D01*
X65947161Y38325463D01*
X66093139Y38264997D01*
X66093238Y38264956D01*
X66210809Y38249478D01*
X66249999Y38244318D01*
X66250000Y38244318D01*
X66250001Y38244318D01*
X66281352Y38248446D01*
X66406762Y38264956D01*
X66552841Y38325464D01*
X66678282Y38421718D01*
X66774536Y38547159D01*
X66835044Y38693238D01*
X66855682Y38850000D01*
X66835044Y39006762D01*
X66799226Y39093234D01*
X66774537Y39152839D01*
X66774537Y39152840D01*
X66678286Y39278277D01*
X66678285Y39278278D01*
X66678282Y39278282D01*
X66678277Y39278286D01*
X66678276Y39278287D01*
X66587057Y39348281D01*
X66552841Y39374536D01*
X66552840Y39374537D01*
X66552838Y39374538D01*
X66406766Y39435043D01*
X66406758Y39435045D01*
X66250001Y39455682D01*
X66249999Y39455682D01*
X66093241Y39435045D01*
X66093233Y39435043D01*
X65947161Y39374538D01*
X65947160Y39374538D01*
X65821723Y39278287D01*
X65821713Y39278277D01*
X65728542Y39156853D01*
X65678117Y39122197D01*
X65616953Y39123799D01*
X65571458Y39156853D01*
X65478286Y39278277D01*
X65478285Y39278278D01*
X65478282Y39278282D01*
X65478277Y39278286D01*
X65478276Y39278287D01*
X65387057Y39348281D01*
X65352841Y39374536D01*
X65352840Y39374537D01*
X65352838Y39374538D01*
X65206766Y39435043D01*
X65206758Y39435045D01*
X65050001Y39455682D01*
X65049999Y39455682D01*
X64893241Y39435045D01*
X64893233Y39435043D01*
X64747161Y39374538D01*
X64747160Y39374538D01*
X64621723Y39278287D01*
X64621713Y39278277D01*
X64528542Y39156853D01*
X64478117Y39122197D01*
X64416953Y39123799D01*
X64371458Y39156853D01*
X64278286Y39278277D01*
X64278285Y39278278D01*
X64278282Y39278282D01*
X64278277Y39278286D01*
X64278276Y39278287D01*
X64187057Y39348281D01*
X64152841Y39374536D01*
X64152840Y39374537D01*
X64152838Y39374538D01*
X64006766Y39435043D01*
X64006758Y39435045D01*
X63850001Y39455682D01*
X63849999Y39455682D01*
X63693241Y39435045D01*
X63693233Y39435043D01*
X63547161Y39374538D01*
X63547160Y39374538D01*
X63421723Y39278287D01*
X63421713Y39278277D01*
X63325462Y39152840D01*
X63325462Y39152839D01*
X63264957Y39006767D01*
X63264955Y39006759D01*
X63244318Y38850001D01*
X62800490Y38850001D01*
X62800490Y39196153D01*
X62800490Y39196154D01*
X62776604Y39285298D01*
X62756278Y39320504D01*
X62755578Y39321717D01*
X62739537Y39349500D01*
X62730460Y39365222D01*
X53865212Y48230470D01*
X53865209Y48230472D01*
X53865185Y48230496D01*
X53837408Y48285013D01*
X53846979Y48345445D01*
X53890244Y48388710D01*
X53935189Y48399500D01*
X56063810Y48399500D01*
X56122001Y48380593D01*
X56133814Y48370504D01*
X60922592Y43581726D01*
X60950369Y43527209D01*
X60950741Y43498803D01*
X60944318Y43450005D01*
X60944318Y43450000D01*
X60964955Y43293242D01*
X60964957Y43293234D01*
X61025462Y43147162D01*
X61025462Y43147161D01*
X61025464Y43147159D01*
X61121718Y43021718D01*
X61247159Y42925464D01*
X61247160Y42925464D01*
X61247161Y42925463D01*
X61392620Y42865212D01*
X61393238Y42864956D01*
X61509651Y42849630D01*
X61549999Y42844318D01*
X61550000Y42844318D01*
X61550001Y42844318D01*
X61590349Y42849630D01*
X61706762Y42864956D01*
X61852841Y42925464D01*
X61978282Y43021718D01*
X62074536Y43147159D01*
X62135044Y43293238D01*
X62155682Y43450000D01*
X62135044Y43606762D01*
X62094826Y43703856D01*
X62074537Y43752839D01*
X62074537Y43752840D01*
X61978286Y43878277D01*
X61978285Y43878278D01*
X61978282Y43878282D01*
X61978277Y43878286D01*
X61978276Y43878287D01*
X61852838Y43974538D01*
X61706766Y44035043D01*
X61706758Y44035045D01*
X61550001Y44055682D01*
X61549996Y44055682D01*
X61501197Y44049259D01*
X61441037Y44060411D01*
X61418274Y44077408D01*
X56815186Y48680496D01*
X56787409Y48735013D01*
X56796980Y48795445D01*
X56840245Y48838710D01*
X56885190Y48849500D01*
X72500500Y48849500D01*
X72558691Y48830593D01*
X72594655Y48781093D01*
X72599500Y48750500D01*
X72599500Y27161190D01*
X72580593Y27102999D01*
X72570504Y27091187D01*
X72431723Y26952407D01*
X72377208Y26924630D01*
X72348800Y26924258D01*
X72300001Y26930682D01*
X72299999Y26930682D01*
X72143241Y26910045D01*
X72143233Y26910043D01*
X71997161Y26849538D01*
X71997160Y26849538D01*
X71871723Y26753287D01*
X71871713Y26753277D01*
X71775462Y26627840D01*
X71775462Y26627839D01*
X71714957Y26481767D01*
X71714955Y26481759D01*
X71694318Y26325001D01*
X71694318Y26325000D01*
X71714955Y26168242D01*
X71714957Y26168234D01*
X71775462Y26022162D01*
X71775462Y26022161D01*
X71871713Y25896724D01*
X71871718Y25896718D01*
X71997159Y25800464D01*
X71997160Y25800464D01*
X71997161Y25800463D01*
X72092996Y25760767D01*
X72143238Y25739956D01*
X72260809Y25724478D01*
X72299999Y25719318D01*
X72300000Y25719318D01*
X72300001Y25719318D01*
X72331352Y25723446D01*
X72456762Y25739956D01*
X72602841Y25800464D01*
X72728282Y25896718D01*
X72824536Y26022159D01*
X72885044Y26168238D01*
X72905682Y26325000D01*
X72899257Y26373802D01*
X72910407Y26433961D01*
X72927403Y26456723D01*
X73230470Y26759788D01*
X73276614Y26839712D01*
X73300500Y26928856D01*
X73300500Y27021144D01*
X73300500Y49196144D01*
X73276614Y49285288D01*
X73248035Y49334788D01*
X73230470Y49365212D01*
X73115212Y49480470D01*
X73035288Y49526614D01*
X72946144Y49550500D01*
X72946142Y49550500D01*
X32777206Y49550500D01*
X32719015Y49569407D01*
X32683051Y49618907D01*
X32683051Y49680093D01*
X32685742Y49687386D01*
X32735044Y49806411D01*
X32755682Y49963173D01*
X32735044Y50119935D01*
X32735042Y50119940D01*
X32674537Y50266012D01*
X32674537Y50266013D01*
X32620958Y50335839D01*
X32600534Y50393515D01*
X32600500Y50396106D01*
X32600500Y52639539D01*
X34139489Y52639539D01*
X34139489Y52460178D01*
X34174479Y52284273D01*
X34174479Y52284271D01*
X34243113Y52118572D01*
X34243113Y52118571D01*
X34342759Y51969442D01*
X34342760Y51969441D01*
X34469583Y51842618D01*
X34618711Y51742973D01*
X34618712Y51742973D01*
X34618713Y51742972D01*
X34646371Y51731516D01*
X34784414Y51674337D01*
X34960322Y51639347D01*
X34960323Y51639347D01*
X35139677Y51639347D01*
X35139678Y51639347D01*
X35315586Y51674337D01*
X35481289Y51742973D01*
X35630417Y51842618D01*
X35757240Y51969441D01*
X35856885Y52118569D01*
X35925521Y52284272D01*
X35960511Y52460180D01*
X35960511Y52639536D01*
X35925521Y52815444D01*
X35891203Y52898296D01*
X35856886Y52981145D01*
X35856886Y52981146D01*
X35757240Y53130275D01*
X35630416Y53257099D01*
X35481286Y53356745D01*
X35315587Y53425379D01*
X35315586Y53425379D01*
X35256950Y53437043D01*
X35139680Y53460369D01*
X35139678Y53460369D01*
X34960322Y53460369D01*
X34960319Y53460369D01*
X34784414Y53425379D01*
X34784412Y53425379D01*
X34618713Y53356745D01*
X34618712Y53356745D01*
X34469583Y53257099D01*
X34342759Y53130275D01*
X34243113Y52981146D01*
X34243113Y52981145D01*
X34174479Y52815446D01*
X34174479Y52815444D01*
X34139489Y52639539D01*
X32600500Y52639539D01*
X32600500Y53118227D01*
X32619407Y53176418D01*
X32629490Y53188225D01*
X33296196Y53854931D01*
X33350709Y53882705D01*
X33411141Y53873134D01*
X33454406Y53829869D01*
X33464348Y53797851D01*
X33464955Y53793242D01*
X33464956Y53793240D01*
X33464957Y53793234D01*
X33525462Y53647162D01*
X33525462Y53647161D01*
X33618844Y53525463D01*
X33621718Y53521718D01*
X33747159Y53425464D01*
X33747160Y53425464D01*
X33747161Y53425463D01*
X33817946Y53396143D01*
X33893238Y53364956D01*
X34010809Y53349478D01*
X34049999Y53344318D01*
X34050000Y53344318D01*
X34050001Y53344318D01*
X34081352Y53348446D01*
X34206762Y53364956D01*
X34352841Y53425464D01*
X34478282Y53521718D01*
X34574536Y53647159D01*
X34635044Y53793238D01*
X34646531Y53880498D01*
X34672871Y53935722D01*
X34674640Y53937538D01*
X35007608Y54270504D01*
X35062124Y54298281D01*
X35077611Y54299500D01*
X57009309Y54299500D01*
X57099669Y54323713D01*
X57099672Y54323713D01*
X57113842Y54327510D01*
X57123887Y54330201D01*
X57226614Y54389511D01*
X57383749Y54546646D01*
X57443058Y54649373D01*
X57472064Y54757629D01*
X57497684Y54802003D01*
X57918275Y55222595D01*
X57972790Y55250371D01*
X58001197Y55250743D01*
X58050000Y55244318D01*
X58206762Y55264956D01*
X58352841Y55325464D01*
X58478282Y55421718D01*
X58574536Y55547159D01*
X58635044Y55693238D01*
X58655682Y55850000D01*
X58635044Y56006762D01*
X58617134Y56050001D01*
X58574537Y56152839D01*
X58574537Y56152840D01*
X58478286Y56278277D01*
X58478285Y56278278D01*
X58478282Y56278282D01*
X58478277Y56278286D01*
X58478276Y56278287D01*
X58381116Y56352840D01*
X58352841Y56374536D01*
X58352840Y56374537D01*
X58352838Y56374538D01*
X58206766Y56435043D01*
X58206758Y56435045D01*
X58050001Y56455682D01*
X58049999Y56455682D01*
X57893241Y56435045D01*
X57893233Y56435043D01*
X57747161Y56374538D01*
X57747160Y56374538D01*
X57621723Y56278287D01*
X57621713Y56278277D01*
X57525462Y56152840D01*
X57525462Y56152839D01*
X57464957Y56006767D01*
X57464955Y56006759D01*
X57444318Y55850001D01*
X57444318Y55849999D01*
X57450742Y55801200D01*
X57439591Y55741039D01*
X57422595Y55718279D01*
X57208940Y55504622D01*
X57002005Y55297687D01*
X56957624Y55272064D01*
X56849373Y55243058D01*
X56849372Y55243058D01*
X56849370Y55243057D01*
X56798632Y55213763D01*
X56749133Y55200500D01*
X34790691Y55200500D01*
X34706907Y55178050D01*
X34706906Y55178051D01*
X34676115Y55169800D01*
X34573383Y55110488D01*
X34037575Y54574682D01*
X33983059Y54546905D01*
X33980496Y54546533D01*
X33893236Y54535044D01*
X33747161Y54474538D01*
X33747160Y54474538D01*
X33621723Y54378287D01*
X33621718Y54378282D01*
X33581190Y54325464D01*
X33578042Y54321362D01*
X33527617Y54286707D01*
X33466453Y54288309D01*
X33417911Y54325556D01*
X33400500Y54381630D01*
X33400500Y56322390D01*
X33419407Y56380581D01*
X33429490Y56392388D01*
X36387104Y59350001D01*
X38344318Y59350001D01*
X38344318Y59350000D01*
X38364955Y59193242D01*
X38364957Y59193234D01*
X38425462Y59047162D01*
X38425462Y59047161D01*
X38425464Y59047159D01*
X38521718Y58921718D01*
X38647159Y58825464D01*
X38793238Y58764956D01*
X38910809Y58749478D01*
X38949999Y58744318D01*
X38950000Y58744318D01*
X38950001Y58744318D01*
X38981352Y58748446D01*
X39106762Y58764956D01*
X39252841Y58825464D01*
X39378282Y58921718D01*
X39474536Y59047159D01*
X39535044Y59193238D01*
X39555682Y59350000D01*
X39535044Y59506762D01*
X39535042Y59506767D01*
X39474537Y59652839D01*
X39474537Y59652840D01*
X39378286Y59778277D01*
X39378285Y59778278D01*
X39378282Y59778282D01*
X39378277Y59778286D01*
X39378276Y59778287D01*
X39252838Y59874538D01*
X39106766Y59935043D01*
X39106758Y59935045D01*
X38950001Y59955682D01*
X38949999Y59955682D01*
X38793241Y59935045D01*
X38793233Y59935043D01*
X38647161Y59874538D01*
X38647160Y59874538D01*
X38521723Y59778287D01*
X38521713Y59778277D01*
X38425462Y59652840D01*
X38425462Y59652839D01*
X38364957Y59506767D01*
X38364955Y59506759D01*
X38344318Y59350001D01*
X36387104Y59350001D01*
X36410489Y59373386D01*
X36469799Y59476113D01*
X36478011Y59506762D01*
X36500500Y59590691D01*
X36500500Y63772390D01*
X36519407Y63830581D01*
X36529490Y63842388D01*
X37204968Y64517867D01*
X37259483Y64545642D01*
X37310731Y64540177D01*
X37376931Y64514530D01*
X37591074Y64474500D01*
X37808926Y64474500D01*
X38023069Y64514530D01*
X38226210Y64593228D01*
X38411432Y64707912D01*
X38572427Y64854678D01*
X38703712Y65028528D01*
X38800817Y65223541D01*
X38854779Y65413202D01*
X38888889Y65463996D01*
X38946342Y65485040D01*
X39005191Y65468296D01*
X39042960Y65420159D01*
X39045216Y65413213D01*
X39099183Y65223541D01*
X39196288Y65028528D01*
X39327573Y64854678D01*
X39488568Y64707912D01*
X39673790Y64593228D01*
X39876931Y64514530D01*
X40091074Y64474500D01*
X40308926Y64474500D01*
X40523069Y64514530D01*
X40726210Y64593228D01*
X40911432Y64707912D01*
X41072427Y64854678D01*
X41203712Y65028528D01*
X41300817Y65223541D01*
X41354779Y65413202D01*
X41388889Y65463996D01*
X41446342Y65485040D01*
X41505191Y65468296D01*
X41542960Y65420159D01*
X41545216Y65413213D01*
X41599183Y65223541D01*
X41696288Y65028528D01*
X41827573Y64854678D01*
X41988568Y64707912D01*
X42173790Y64593228D01*
X42376931Y64514530D01*
X42591074Y64474500D01*
X42808926Y64474500D01*
X43023069Y64514530D01*
X43226210Y64593228D01*
X43411432Y64707912D01*
X43572427Y64854678D01*
X43703712Y65028528D01*
X43800817Y65223541D01*
X43854779Y65413202D01*
X43888889Y65463996D01*
X43946342Y65485040D01*
X44005191Y65468296D01*
X44042960Y65420159D01*
X44045216Y65413213D01*
X44099183Y65223541D01*
X44196288Y65028528D01*
X44327573Y64854678D01*
X44488568Y64707912D01*
X44673790Y64593228D01*
X44876931Y64514530D01*
X45091074Y64474500D01*
X45308926Y64474500D01*
X45523069Y64514530D01*
X45726210Y64593228D01*
X45911432Y64707912D01*
X46072427Y64854678D01*
X46203712Y65028528D01*
X46300817Y65223541D01*
X46354779Y65413202D01*
X46388889Y65463996D01*
X46446342Y65485040D01*
X46505191Y65468296D01*
X46542960Y65420159D01*
X46545216Y65413213D01*
X46599183Y65223541D01*
X46696288Y65028528D01*
X46827573Y64854678D01*
X46988568Y64707912D01*
X47173790Y64593228D01*
X47376931Y64514530D01*
X47591074Y64474500D01*
X47808926Y64474500D01*
X48023069Y64514530D01*
X48226210Y64593228D01*
X48411432Y64707912D01*
X48572427Y64854678D01*
X48703712Y65028528D01*
X48800817Y65223541D01*
X48854779Y65413202D01*
X48888889Y65463996D01*
X48946342Y65485040D01*
X49005191Y65468296D01*
X49042960Y65420159D01*
X49045216Y65413213D01*
X49099183Y65223541D01*
X49196288Y65028528D01*
X49327573Y64854678D01*
X49488568Y64707912D01*
X49673790Y64593228D01*
X49876931Y64514530D01*
X50091074Y64474500D01*
X50308926Y64474500D01*
X50523069Y64514530D01*
X50726210Y64593228D01*
X50911432Y64707912D01*
X50961048Y64753143D01*
X55339500Y64753143D01*
X55339500Y64546858D01*
X55371767Y64343129D01*
X55435512Y64146943D01*
X55529159Y63963149D01*
X55529163Y63963143D01*
X55650402Y63796273D01*
X55650404Y63796271D01*
X55650407Y63796267D01*
X55796267Y63650407D01*
X55796270Y63650405D01*
X55796272Y63650403D01*
X55963142Y63529164D01*
X55963148Y63529160D01*
X56146943Y63435512D01*
X56343124Y63371769D01*
X56343125Y63371769D01*
X56343128Y63371768D01*
X56546858Y63339500D01*
X56546861Y63339500D01*
X56753142Y63339500D01*
X56956871Y63371768D01*
X56956872Y63371769D01*
X56956876Y63371769D01*
X57153057Y63435512D01*
X57336852Y63529160D01*
X57503733Y63650407D01*
X57649593Y63796267D01*
X57770840Y63963148D01*
X57864488Y64146943D01*
X57928231Y64343124D01*
X57949039Y64474500D01*
X57960500Y64546858D01*
X57960500Y64753143D01*
X57928232Y64956872D01*
X57904950Y65028527D01*
X57864488Y65153057D01*
X57770840Y65336852D01*
X57715370Y65413200D01*
X57649597Y65503728D01*
X57649595Y65503730D01*
X57649593Y65503733D01*
X57503733Y65649593D01*
X57503729Y65649596D01*
X57503727Y65649598D01*
X57336857Y65770837D01*
X57336851Y65770841D01*
X57153057Y65864488D01*
X56956871Y65928233D01*
X56753142Y65960500D01*
X56753139Y65960500D01*
X56546861Y65960500D01*
X56546858Y65960500D01*
X56343128Y65928233D01*
X56146942Y65864488D01*
X55963148Y65770841D01*
X55963142Y65770837D01*
X55796272Y65649598D01*
X55650402Y65503728D01*
X55529163Y65336858D01*
X55529159Y65336852D01*
X55435512Y65153058D01*
X55371767Y64956872D01*
X55339500Y64753143D01*
X50961048Y64753143D01*
X51072427Y64854678D01*
X51203712Y65028528D01*
X51300817Y65223541D01*
X51360435Y65433077D01*
X51380536Y65650000D01*
X51360435Y65866923D01*
X51300817Y66076459D01*
X51203712Y66271472D01*
X51072427Y66445322D01*
X50911432Y66592088D01*
X50726210Y66706772D01*
X50523069Y66785470D01*
X50523068Y66785471D01*
X50523066Y66785471D01*
X50457012Y66797818D01*
X50430969Y66802687D01*
X50377244Y66831963D01*
X50350988Y66887229D01*
X50362231Y66947372D01*
X50406678Y66989421D01*
X50430968Y66997314D01*
X50523069Y67014530D01*
X50726210Y67093228D01*
X50911432Y67207912D01*
X51072427Y67354678D01*
X51203712Y67528528D01*
X51300817Y67723541D01*
X51360435Y67933077D01*
X51380536Y68150000D01*
X51360435Y68366923D01*
X51300817Y68576459D01*
X51266744Y68644886D01*
X58539500Y68644886D01*
X58539500Y68355115D01*
X58577321Y68067836D01*
X58577321Y68067831D01*
X58652318Y67787941D01*
X58652322Y67787928D01*
X58763205Y67520231D01*
X58763207Y67520227D01*
X58763209Y67520223D01*
X58885213Y67308907D01*
X58908095Y67269274D01*
X59084486Y67039396D01*
X59084488Y67039394D01*
X59084492Y67039389D01*
X59289389Y66834492D01*
X59289393Y66834489D01*
X59289395Y66834487D01*
X59455837Y66706772D01*
X59519277Y66658093D01*
X59770223Y66513209D01*
X60037933Y66402320D01*
X60317828Y66327322D01*
X60605116Y66289500D01*
X60605117Y66289500D01*
X60894883Y66289500D01*
X60894884Y66289500D01*
X61182172Y66327322D01*
X61462067Y66402320D01*
X61729777Y66513209D01*
X61980723Y66658093D01*
X62210611Y66834492D01*
X62326124Y66950005D01*
X71944457Y66950005D01*
X71944457Y66949996D01*
X71964611Y66591103D01*
X71964614Y66591083D01*
X72024824Y66236713D01*
X72024828Y66236693D01*
X72124340Y65891277D01*
X72261907Y65559163D01*
X72432501Y65250497D01*
X72435789Y65244548D01*
X72643806Y64951377D01*
X72883339Y64683339D01*
X73151377Y64443806D01*
X73444548Y64235789D01*
X73444550Y64235788D01*
X73759163Y64061908D01*
X73759162Y64061908D01*
X74091276Y63924341D01*
X74436692Y63824829D01*
X74436695Y63824829D01*
X74436700Y63824827D01*
X74791093Y63764613D01*
X74791096Y63764613D01*
X74791102Y63764612D01*
X75149995Y63744457D01*
X75150000Y63744457D01*
X75150005Y63744457D01*
X75508897Y63764612D01*
X75508901Y63764613D01*
X75508907Y63764613D01*
X75863300Y63824827D01*
X76208724Y63924341D01*
X76540833Y64061906D01*
X76855452Y64235789D01*
X77148623Y64443806D01*
X77416661Y64683339D01*
X77656194Y64951377D01*
X77864211Y65244548D01*
X78038094Y65559167D01*
X78175659Y65891276D01*
X78275173Y66236700D01*
X78335387Y66591093D01*
X78337292Y66624998D01*
X78355543Y66949996D01*
X78355543Y66950005D01*
X78335388Y67308898D01*
X78335385Y67308918D01*
X78275175Y67663288D01*
X78275171Y67663308D01*
X78175659Y68008724D01*
X78038092Y68340838D01*
X77864212Y68655450D01*
X77781888Y68771474D01*
X77658536Y68945322D01*
X77656197Y68948619D01*
X77656196Y68948620D01*
X77656194Y68948623D01*
X77416661Y69216661D01*
X77148623Y69456194D01*
X77148620Y69456196D01*
X77148618Y69456198D01*
X76855449Y69664213D01*
X76540836Y69838093D01*
X76540837Y69838093D01*
X76208723Y69975660D01*
X75863307Y70075172D01*
X75863287Y70075176D01*
X75508917Y70135386D01*
X75508897Y70135389D01*
X75150005Y70155543D01*
X75149995Y70155543D01*
X74791102Y70135389D01*
X74791082Y70135386D01*
X74436712Y70075176D01*
X74436692Y70075172D01*
X74091276Y69975660D01*
X73759162Y69838093D01*
X73444550Y69664213D01*
X73151381Y69456198D01*
X72883346Y69216668D01*
X72883332Y69216654D01*
X72643802Y68948619D01*
X72435787Y68655450D01*
X72261907Y68340838D01*
X72124340Y68008724D01*
X72024828Y67663308D01*
X72024824Y67663288D01*
X71964614Y67308918D01*
X71964611Y67308898D01*
X71944457Y66950005D01*
X62326124Y66950005D01*
X62415508Y67039389D01*
X62591907Y67269277D01*
X62736791Y67520223D01*
X62847680Y67787933D01*
X62922678Y68067828D01*
X62960500Y68355116D01*
X62960500Y68644884D01*
X62922678Y68932172D01*
X62847680Y69212067D01*
X62736791Y69479777D01*
X62591907Y69730723D01*
X62509519Y69838093D01*
X62415513Y69960605D01*
X62415511Y69960607D01*
X62415508Y69960611D01*
X62210611Y70165508D01*
X62210606Y70165512D01*
X62210604Y70165514D01*
X61980726Y70341905D01*
X61980723Y70341907D01*
X61729777Y70486791D01*
X61729773Y70486793D01*
X61729769Y70486795D01*
X61462072Y70597678D01*
X61462071Y70597679D01*
X61462067Y70597680D01*
X61182172Y70672678D01*
X61182169Y70672679D01*
X61182167Y70672679D01*
X60894885Y70710500D01*
X60894884Y70710500D01*
X60605116Y70710500D01*
X60605114Y70710500D01*
X60317835Y70672679D01*
X60317830Y70672679D01*
X60037940Y70597682D01*
X60037927Y70597678D01*
X59770230Y70486795D01*
X59519273Y70341905D01*
X59289395Y70165514D01*
X59084486Y69960605D01*
X58908095Y69730727D01*
X58763205Y69479770D01*
X58652322Y69212073D01*
X58652318Y69212060D01*
X58577321Y68932170D01*
X58577321Y68932165D01*
X58539500Y68644886D01*
X51266744Y68644886D01*
X51203712Y68771472D01*
X51072427Y68945322D01*
X50911432Y69092088D01*
X50726210Y69206772D01*
X50523069Y69285470D01*
X50523068Y69285471D01*
X50523066Y69285471D01*
X50457012Y69297818D01*
X50430969Y69302687D01*
X50377244Y69331963D01*
X50350988Y69387229D01*
X50362231Y69447372D01*
X50406678Y69489421D01*
X50430968Y69497314D01*
X50523069Y69514530D01*
X50726210Y69593228D01*
X50911432Y69707912D01*
X51072427Y69854678D01*
X51203712Y70028528D01*
X51300817Y70223541D01*
X51360435Y70433077D01*
X51380536Y70650000D01*
X51360435Y70866923D01*
X51300817Y71076459D01*
X51203712Y71271472D01*
X51072427Y71445322D01*
X50911432Y71592088D01*
X50726210Y71706772D01*
X50523069Y71785470D01*
X50523068Y71785471D01*
X50523066Y71785471D01*
X50457012Y71797818D01*
X50430969Y71802687D01*
X50377244Y71831963D01*
X50350988Y71887229D01*
X50362231Y71947372D01*
X50406678Y71989421D01*
X50430968Y71997314D01*
X50523069Y72014530D01*
X50726210Y72093228D01*
X50911432Y72207912D01*
X51072427Y72354678D01*
X51203712Y72528528D01*
X51300817Y72723541D01*
X51360435Y72933077D01*
X51380536Y73150000D01*
X51360435Y73366923D01*
X51300817Y73576459D01*
X51203712Y73771472D01*
X51072427Y73945322D01*
X50911432Y74092088D01*
X50726210Y74206772D01*
X50523069Y74285470D01*
X50523068Y74285471D01*
X50523066Y74285471D01*
X50308926Y74325500D01*
X50091074Y74325500D01*
X49876933Y74285471D01*
X49802258Y74256542D01*
X49673790Y74206772D01*
X49507707Y74103938D01*
X49488565Y74092086D01*
X49327574Y73945323D01*
X49196289Y73771474D01*
X49196284Y73771465D01*
X49099184Y73576462D01*
X49099183Y73576459D01*
X49045220Y73386799D01*
X49011111Y73336005D01*
X48953658Y73314961D01*
X48894809Y73331705D01*
X48857040Y73379842D01*
X48854783Y73386788D01*
X48800817Y73576459D01*
X48703712Y73771472D01*
X48572427Y73945322D01*
X48411432Y74092088D01*
X48226210Y74206772D01*
X48023069Y74285470D01*
X48023068Y74285471D01*
X48023066Y74285471D01*
X47808926Y74325500D01*
X47591074Y74325500D01*
X47376933Y74285471D01*
X47302258Y74256542D01*
X47173790Y74206772D01*
X47007707Y74103938D01*
X46988565Y74092086D01*
X46827574Y73945323D01*
X46696289Y73771474D01*
X46696284Y73771465D01*
X46599184Y73576462D01*
X46599183Y73576459D01*
X46545220Y73386799D01*
X46511111Y73336005D01*
X46453658Y73314961D01*
X46394809Y73331705D01*
X46357040Y73379842D01*
X46354783Y73386788D01*
X46300817Y73576459D01*
X46203712Y73771472D01*
X46072427Y73945322D01*
X45911432Y74092088D01*
X45726210Y74206772D01*
X45523069Y74285470D01*
X45523068Y74285471D01*
X45523066Y74285471D01*
X45308926Y74325500D01*
X45091074Y74325500D01*
X44876933Y74285471D01*
X44802258Y74256542D01*
X44673790Y74206772D01*
X44507707Y74103938D01*
X44488565Y74092086D01*
X44327574Y73945323D01*
X44196289Y73771474D01*
X44196284Y73771465D01*
X44099184Y73576462D01*
X44099183Y73576459D01*
X44045220Y73386799D01*
X44011111Y73336005D01*
X43953658Y73314961D01*
X43894809Y73331705D01*
X43857040Y73379842D01*
X43854783Y73386788D01*
X43800817Y73576459D01*
X43703712Y73771472D01*
X43572427Y73945322D01*
X43411432Y74092088D01*
X43226210Y74206772D01*
X43023069Y74285470D01*
X43023068Y74285471D01*
X43023066Y74285471D01*
X42808926Y74325500D01*
X42591074Y74325500D01*
X42376933Y74285471D01*
X42302258Y74256542D01*
X42173790Y74206772D01*
X42007707Y74103938D01*
X41988565Y74092086D01*
X41827574Y73945323D01*
X41696289Y73771474D01*
X41696284Y73771465D01*
X41599184Y73576462D01*
X41599183Y73576459D01*
X41545220Y73386799D01*
X41511111Y73336005D01*
X41453658Y73314961D01*
X41394809Y73331705D01*
X41357040Y73379842D01*
X41354783Y73386788D01*
X41300817Y73576459D01*
X41203712Y73771472D01*
X41072427Y73945322D01*
X40911432Y74092088D01*
X40726210Y74206772D01*
X40523069Y74285470D01*
X40523068Y74285471D01*
X40523066Y74285471D01*
X40308926Y74325500D01*
X40091074Y74325500D01*
X39876933Y74285471D01*
X39802258Y74256542D01*
X39673790Y74206772D01*
X39507707Y74103938D01*
X39488565Y74092086D01*
X39327574Y73945323D01*
X39196289Y73771474D01*
X39196284Y73771465D01*
X39099184Y73576462D01*
X39099183Y73576459D01*
X39045220Y73386799D01*
X39011111Y73336005D01*
X38953658Y73314961D01*
X38894809Y73331705D01*
X38857040Y73379842D01*
X38854783Y73386788D01*
X38800817Y73576459D01*
X38703712Y73771472D01*
X38572427Y73945322D01*
X38411432Y74092088D01*
X38226210Y74206772D01*
X38023069Y74285470D01*
X38023068Y74285471D01*
X38023066Y74285471D01*
X37808926Y74325500D01*
X37591074Y74325500D01*
X37376933Y74285471D01*
X37302258Y74256542D01*
X37173790Y74206772D01*
X37007707Y74103938D01*
X36988565Y74092086D01*
X36827574Y73945323D01*
X36696289Y73771474D01*
X36696284Y73771465D01*
X36599183Y73576460D01*
X36539565Y73366925D01*
X36534750Y73314961D01*
X36519464Y73150000D01*
X36539565Y72933077D01*
X36599183Y72723541D01*
X36696288Y72528528D01*
X36827573Y72354678D01*
X36988568Y72207912D01*
X37173790Y72093228D01*
X37376931Y72014530D01*
X37465758Y71997926D01*
X37469029Y71997314D01*
X37522755Y71968037D01*
X37549011Y71912771D01*
X37537768Y71852627D01*
X37493321Y71810579D01*
X37469029Y71802686D01*
X37376933Y71785471D01*
X37302258Y71756542D01*
X37173790Y71706772D01*
X36988568Y71592088D01*
X36988565Y71592086D01*
X36827574Y71445323D01*
X36696289Y71271474D01*
X36696284Y71271465D01*
X36599183Y71076460D01*
X36539565Y70866925D01*
X36519464Y70650000D01*
X36539565Y70433076D01*
X36599183Y70223541D01*
X36643078Y70135387D01*
X36696288Y70028528D01*
X36827573Y69854678D01*
X36988568Y69707912D01*
X37173790Y69593228D01*
X37376931Y69514530D01*
X37465758Y69497926D01*
X37469029Y69497314D01*
X37522755Y69468037D01*
X37549011Y69412771D01*
X37537768Y69352627D01*
X37493321Y69310579D01*
X37469029Y69302686D01*
X37376933Y69285471D01*
X37302258Y69256542D01*
X37173790Y69206772D01*
X36988568Y69092088D01*
X36988565Y69092086D01*
X36872505Y68986283D01*
X36827573Y68945322D01*
X36785009Y68888958D01*
X36696289Y68771474D01*
X36696284Y68771465D01*
X36599183Y68576460D01*
X36539565Y68366925D01*
X36519464Y68150000D01*
X36539565Y67933076D01*
X36580860Y67787941D01*
X36599183Y67723541D01*
X36696288Y67528528D01*
X36827573Y67354678D01*
X36988568Y67207912D01*
X37173790Y67093228D01*
X37376931Y67014530D01*
X37465758Y66997926D01*
X37469029Y66997314D01*
X37522755Y66968037D01*
X37549011Y66912771D01*
X37537768Y66852627D01*
X37493321Y66810579D01*
X37469029Y66802686D01*
X37376933Y66785471D01*
X37302258Y66756542D01*
X37173790Y66706772D01*
X37041720Y66624998D01*
X36988565Y66592086D01*
X36827574Y66445323D01*
X36696289Y66271474D01*
X36696284Y66271465D01*
X36599183Y66076460D01*
X36539565Y65866925D01*
X36519464Y65650000D01*
X36539565Y65433076D01*
X36591513Y65250497D01*
X36589252Y65189354D01*
X36566296Y65153402D01*
X35689511Y64276615D01*
X35689507Y64276610D01*
X35630200Y64173888D01*
X35630200Y64173887D01*
X35630201Y64173886D01*
X35600197Y64061908D01*
X35599500Y64059308D01*
X35599500Y59877612D01*
X35580593Y59819421D01*
X35570504Y59807608D01*
X32724293Y56961397D01*
X32669776Y56933620D01*
X32609344Y56943191D01*
X32584285Y56961397D01*
X29679038Y59866644D01*
X29651261Y59921161D01*
X29654304Y59965382D01*
X29698573Y60111317D01*
X29698574Y60111322D01*
X29717157Y60299997D01*
X29717157Y60300004D01*
X29698574Y60488679D01*
X29698573Y60488684D01*
X29679973Y60550001D01*
X30744318Y60550001D01*
X30744318Y60550000D01*
X30764955Y60393242D01*
X30764957Y60393234D01*
X30825462Y60247162D01*
X30825462Y60247161D01*
X30825464Y60247159D01*
X30921718Y60121718D01*
X31047159Y60025464D01*
X31193238Y59964956D01*
X31310809Y59949478D01*
X31349999Y59944318D01*
X31350000Y59944318D01*
X31350001Y59944318D01*
X31381352Y59948446D01*
X31506762Y59964956D01*
X31652841Y60025464D01*
X31778282Y60121718D01*
X31874536Y60247159D01*
X31935044Y60393238D01*
X31955682Y60550000D01*
X31935044Y60706762D01*
X31935042Y60706767D01*
X31874537Y60852839D01*
X31874537Y60852840D01*
X31778286Y60978277D01*
X31778285Y60978278D01*
X31778282Y60978282D01*
X31778277Y60978286D01*
X31778276Y60978287D01*
X31652838Y61074538D01*
X31506766Y61135043D01*
X31506758Y61135045D01*
X31350001Y61155682D01*
X31349999Y61155682D01*
X31193241Y61135045D01*
X31193233Y61135043D01*
X31047161Y61074538D01*
X31047160Y61074538D01*
X30921723Y60978287D01*
X30921713Y60978277D01*
X30825462Y60852840D01*
X30825462Y60852839D01*
X30764957Y60706767D01*
X30764955Y60706759D01*
X30744318Y60550001D01*
X29679973Y60550001D01*
X29643537Y60670115D01*
X29554162Y60837324D01*
X29433883Y60983883D01*
X29287324Y61104162D01*
X29229546Y61135045D01*
X29120120Y61193535D01*
X29120115Y61193537D01*
X28938683Y61248574D01*
X28938678Y61248575D01*
X28750003Y61267157D01*
X28749997Y61267157D01*
X28561321Y61248575D01*
X28561316Y61248574D01*
X28379884Y61193537D01*
X28379879Y61193535D01*
X28212681Y61104165D01*
X28212671Y61104159D01*
X28066121Y60983887D01*
X28066113Y60983879D01*
X27945841Y60837329D01*
X27945835Y60837319D01*
X27856465Y60670121D01*
X27856463Y60670116D01*
X27801426Y60488684D01*
X27801425Y60488679D01*
X27782843Y60300004D01*
X27782843Y60299997D01*
X27801425Y60111322D01*
X27801426Y60111317D01*
X27856463Y59929885D01*
X27856465Y59929880D01*
X27890266Y59866644D01*
X27945838Y59762676D01*
X28066117Y59616117D01*
X28212676Y59495838D01*
X28379885Y59406463D01*
X28488914Y59373390D01*
X28561316Y59351427D01*
X28561321Y59351426D01*
X28749997Y59332843D01*
X28750000Y59332843D01*
X28750003Y59332843D01*
X28938678Y59351426D01*
X28938683Y59351427D01*
X29084616Y59395695D01*
X29145787Y59394494D01*
X29183356Y59370962D01*
X32020504Y56533814D01*
X32048281Y56479297D01*
X32049500Y56463810D01*
X32049500Y55775140D01*
X32030593Y55716949D01*
X31981093Y55680985D01*
X31919907Y55680985D01*
X31880496Y55705136D01*
X31360168Y56225464D01*
X30755162Y56830470D01*
X30675238Y56876614D01*
X30586094Y56900500D01*
X25951961Y56900500D01*
X25862817Y56876614D01*
X25782893Y56830470D01*
X23919037Y54966615D01*
X23864520Y54938838D01*
X23804088Y54948409D01*
X23760823Y54991674D01*
X23751252Y55052106D01*
X23754291Y55065339D01*
X23798573Y55211317D01*
X23798573Y55211321D01*
X23798574Y55211322D01*
X23817157Y55399997D01*
X23817157Y55400004D01*
X23798574Y55588679D01*
X23798573Y55588684D01*
X23759262Y55718275D01*
X23743537Y55770115D01*
X23654162Y55937324D01*
X23533883Y56083883D01*
X23476358Y56131093D01*
X23387328Y56204159D01*
X23387326Y56204160D01*
X23387324Y56204162D01*
X23347471Y56225464D01*
X23220120Y56293535D01*
X23220115Y56293537D01*
X23038683Y56348574D01*
X23038678Y56348575D01*
X22850003Y56367157D01*
X22849997Y56367157D01*
X22661321Y56348575D01*
X22661316Y56348574D01*
X22479884Y56293537D01*
X22479879Y56293535D01*
X22312681Y56204165D01*
X22312671Y56204159D01*
X22166121Y56083887D01*
X22166113Y56083879D01*
X22045841Y55937329D01*
X22045835Y55937319D01*
X21956465Y55770121D01*
X21956463Y55770116D01*
X21901426Y55588684D01*
X21901425Y55588679D01*
X21882843Y55400004D01*
X21882843Y55399997D01*
X21901425Y55211322D01*
X21901426Y55211317D01*
X21956463Y55029885D01*
X21956465Y55029880D01*
X22024797Y54902041D01*
X22045838Y54862676D01*
X22166117Y54716117D01*
X22312676Y54595838D01*
X22327114Y54588121D01*
X22329566Y54586810D01*
X22371973Y54542704D01*
X22380356Y54482096D01*
X22351514Y54428135D01*
X22296462Y54401434D01*
X22282898Y54400500D01*
X20917102Y54400500D01*
X20858911Y54419407D01*
X20822947Y54468907D01*
X20822947Y54530093D01*
X20858911Y54579593D01*
X20870434Y54586810D01*
X20871893Y54587591D01*
X20887324Y54595838D01*
X21033883Y54716117D01*
X21154162Y54862676D01*
X21243537Y55029885D01*
X21298573Y55211317D01*
X21298574Y55211322D01*
X21317157Y55399997D01*
X21317157Y55400004D01*
X21298574Y55588679D01*
X21298573Y55588684D01*
X21259262Y55718275D01*
X21243537Y55770115D01*
X21154162Y55937324D01*
X21033883Y56083883D01*
X20976358Y56131093D01*
X20887328Y56204159D01*
X20887326Y56204160D01*
X20887324Y56204162D01*
X20847471Y56225464D01*
X20720120Y56293535D01*
X20720115Y56293537D01*
X20538683Y56348574D01*
X20538678Y56348575D01*
X20350003Y56367157D01*
X20349997Y56367157D01*
X20161321Y56348575D01*
X20161316Y56348574D01*
X19979884Y56293537D01*
X19979879Y56293535D01*
X19812681Y56204165D01*
X19812671Y56204159D01*
X19700130Y56111798D01*
X19643153Y56089498D01*
X19583950Y56104947D01*
X19545135Y56152243D01*
X19539172Y56175405D01*
X19538489Y56180593D01*
X19535044Y56206762D01*
X19527297Y56225464D01*
X19474537Y56352839D01*
X19474537Y56352840D01*
X19378286Y56478277D01*
X19378285Y56478278D01*
X19378282Y56478282D01*
X19378277Y56478286D01*
X19378276Y56478287D01*
X19252838Y56574538D01*
X19106766Y56635043D01*
X19106758Y56635045D01*
X18950001Y56655682D01*
X18949999Y56655682D01*
X18793241Y56635045D01*
X18793233Y56635043D01*
X18647161Y56574538D01*
X18647160Y56574538D01*
X18521723Y56478287D01*
X18521713Y56478277D01*
X18428542Y56356853D01*
X18378117Y56322197D01*
X18316953Y56323799D01*
X18271458Y56356853D01*
X18178286Y56478277D01*
X18178285Y56478278D01*
X18178282Y56478282D01*
X18178277Y56478286D01*
X18178276Y56478287D01*
X18052838Y56574538D01*
X17906766Y56635043D01*
X17906758Y56635045D01*
X17750001Y56655682D01*
X17749999Y56655682D01*
X17593241Y56635045D01*
X17593233Y56635043D01*
X17447161Y56574538D01*
X17447160Y56574538D01*
X17321723Y56478287D01*
X17321713Y56478277D01*
X17225462Y56352840D01*
X17225462Y56352839D01*
X17164957Y56206767D01*
X17164955Y56206759D01*
X17144318Y56050001D01*
X17144318Y56050000D01*
X17164955Y55893242D01*
X17164957Y55893234D01*
X17225462Y55747162D01*
X17225462Y55747161D01*
X17321713Y55621724D01*
X17321718Y55621718D01*
X17447159Y55525464D01*
X17447160Y55525464D01*
X17447161Y55525463D01*
X17497476Y55504622D01*
X17593238Y55464956D01*
X17710809Y55449478D01*
X17749999Y55444318D01*
X17750000Y55444318D01*
X17750001Y55444318D01*
X17781352Y55448446D01*
X17906762Y55464956D01*
X18052841Y55525464D01*
X18178282Y55621718D01*
X18271458Y55743149D01*
X18321882Y55777804D01*
X18383047Y55776203D01*
X18428541Y55743149D01*
X18521718Y55621718D01*
X18647159Y55525464D01*
X18647160Y55525464D01*
X18647161Y55525463D01*
X18697476Y55504622D01*
X18793238Y55464956D01*
X18910809Y55449478D01*
X18949999Y55444318D01*
X18950000Y55444318D01*
X18950001Y55444318D01*
X18981352Y55448446D01*
X19106762Y55464956D01*
X19248657Y55523732D01*
X19309652Y55528532D01*
X19361821Y55496563D01*
X19385236Y55440035D01*
X19385065Y55422567D01*
X19382843Y55399999D01*
X19382843Y55399997D01*
X19401425Y55211322D01*
X19401426Y55211317D01*
X19456463Y55029885D01*
X19456465Y55029880D01*
X19524797Y54902041D01*
X19545838Y54862676D01*
X19666117Y54716117D01*
X19812676Y54595838D01*
X19827114Y54588121D01*
X19829566Y54586810D01*
X19871973Y54542704D01*
X19880356Y54482096D01*
X19851514Y54428135D01*
X19796462Y54401434D01*
X19782898Y54400500D01*
X18486787Y54400500D01*
X18428596Y54419407D01*
X18408245Y54439233D01*
X18378285Y54478278D01*
X18378282Y54478282D01*
X18378277Y54478286D01*
X18378276Y54478287D01*
X18289187Y54546647D01*
X18252841Y54574536D01*
X18252840Y54574537D01*
X18252838Y54574538D01*
X18106766Y54635043D01*
X18106758Y54635045D01*
X17950001Y54655682D01*
X17949999Y54655682D01*
X17793241Y54635045D01*
X17793233Y54635043D01*
X17647161Y54574538D01*
X17647160Y54574538D01*
X17521723Y54478287D01*
X17521713Y54478277D01*
X17425462Y54352840D01*
X17425462Y54352839D01*
X17364957Y54206767D01*
X17364955Y54206759D01*
X17344318Y54050001D01*
X17344318Y54049999D01*
X17350742Y54001200D01*
X17339591Y53941039D01*
X17322593Y53918276D01*
X16969530Y53565213D01*
X16935456Y53506197D01*
X16935457Y53506196D01*
X16923386Y53485289D01*
X16917938Y53464956D01*
X16902347Y53406767D01*
X16899500Y53396143D01*
X16899500Y45603857D01*
X16915452Y45544320D01*
X16923386Y45514711D01*
X16923387Y45514709D01*
X16964028Y45444318D01*
X16969530Y45434788D01*
X17264637Y45139681D01*
X17522592Y44881726D01*
X17550369Y44827209D01*
X17550741Y44798803D01*
X17544318Y44750005D01*
X17544318Y44750000D01*
X17564955Y44593242D01*
X17564957Y44593234D01*
X17625462Y44447162D01*
X17625462Y44447161D01*
X17711493Y44335043D01*
X17721718Y44321718D01*
X17744996Y44303856D01*
X17760767Y44291755D01*
X17795423Y44241331D01*
X17799500Y44213213D01*
X17799500Y44199500D01*
X17780593Y44141309D01*
X17731093Y44105345D01*
X17700500Y44100500D01*
X3086787Y44100500D01*
X3028596Y44119407D01*
X3008245Y44139233D01*
X2978285Y44178278D01*
X2978282Y44178282D01*
X2978277Y44178286D01*
X2978276Y44178287D01*
X2869134Y44262034D01*
X2852841Y44274536D01*
X2852840Y44274537D01*
X2852838Y44274538D01*
X2706766Y44335043D01*
X2706758Y44335045D01*
X2550001Y44355682D01*
X2549999Y44355682D01*
X2393241Y44335045D01*
X2393233Y44335043D01*
X2247161Y44274538D01*
X2247160Y44274538D01*
X2121723Y44178287D01*
X2121710Y44178274D01*
X2101728Y44152233D01*
X2051303Y44117578D01*
X1990139Y44119181D01*
X1953184Y44142498D01*
X1629496Y44466186D01*
X1601719Y44520703D01*
X1600500Y44536190D01*
X1600500Y46150001D01*
X2844318Y46150001D01*
X2844318Y46150000D01*
X2864955Y45993242D01*
X2864957Y45993234D01*
X2925462Y45847162D01*
X2925462Y45847161D01*
X3015993Y45729179D01*
X3021718Y45721718D01*
X3147159Y45625464D01*
X3147160Y45625464D01*
X3147161Y45625463D01*
X3156212Y45621714D01*
X3293238Y45564956D01*
X3410809Y45549478D01*
X3449999Y45544318D01*
X3450000Y45544318D01*
X3450001Y45544318D01*
X3481352Y45548446D01*
X3606762Y45564956D01*
X3752841Y45625464D01*
X3878282Y45721718D01*
X3974536Y45847159D01*
X4035044Y45993238D01*
X4055682Y46150000D01*
X4035044Y46306762D01*
X4015958Y46352840D01*
X3974537Y46452839D01*
X3974537Y46452840D01*
X3878286Y46578277D01*
X3878285Y46578278D01*
X3878282Y46578282D01*
X3878277Y46578286D01*
X3878276Y46578287D01*
X3797062Y46640604D01*
X3752841Y46674536D01*
X3752840Y46674537D01*
X3752838Y46674538D01*
X3606766Y46735043D01*
X3606758Y46735045D01*
X3450001Y46755682D01*
X3449999Y46755682D01*
X3293241Y46735045D01*
X3293233Y46735043D01*
X3147161Y46674538D01*
X3147160Y46674538D01*
X3021723Y46578287D01*
X3021713Y46578277D01*
X2925462Y46452840D01*
X2925462Y46452839D01*
X2864957Y46306767D01*
X2864955Y46306759D01*
X2844318Y46150001D01*
X1600500Y46150001D01*
X1600500Y47550001D01*
X4044318Y47550001D01*
X4044318Y47550000D01*
X4064955Y47393242D01*
X4064957Y47393234D01*
X4125462Y47247162D01*
X4125462Y47247161D01*
X4218844Y47125463D01*
X4221718Y47121718D01*
X4221722Y47121715D01*
X4221723Y47121714D01*
X4242064Y47106106D01*
X4347159Y47025464D01*
X4347160Y47025464D01*
X4347161Y47025463D01*
X4479093Y46970815D01*
X4493238Y46964956D01*
X4610809Y46949478D01*
X4649999Y46944318D01*
X4650000Y46944318D01*
X4650001Y46944318D01*
X4681352Y46948446D01*
X4806762Y46964956D01*
X4952841Y47025464D01*
X5078282Y47121718D01*
X5174536Y47247159D01*
X5235044Y47393238D01*
X5255682Y47550000D01*
X5235044Y47706762D01*
X5193621Y47806767D01*
X5174537Y47852839D01*
X5174537Y47852840D01*
X5078286Y47978277D01*
X5078285Y47978278D01*
X5078282Y47978282D01*
X5078277Y47978286D01*
X5078276Y47978287D01*
X4972574Y48059394D01*
X4952841Y48074536D01*
X4952840Y48074537D01*
X4952838Y48074538D01*
X4806766Y48135043D01*
X4806758Y48135045D01*
X4650001Y48155682D01*
X4649999Y48155682D01*
X4493241Y48135045D01*
X4493233Y48135043D01*
X4347161Y48074538D01*
X4347160Y48074538D01*
X4221723Y47978287D01*
X4221713Y47978277D01*
X4125462Y47852840D01*
X4125462Y47852839D01*
X4064957Y47706767D01*
X4064955Y47706759D01*
X4044318Y47550001D01*
X1600500Y47550001D01*
X1600500Y51950001D01*
X2444318Y51950001D01*
X2444318Y51950000D01*
X2464955Y51793242D01*
X2464957Y51793234D01*
X2525462Y51647162D01*
X2525462Y51647161D01*
X2586438Y51567696D01*
X2621718Y51521718D01*
X2747159Y51425464D01*
X2747160Y51425464D01*
X2747161Y51425463D01*
X2765200Y51417991D01*
X2893238Y51364956D01*
X3010809Y51349478D01*
X3049999Y51344318D01*
X3050000Y51344318D01*
X3050001Y51344318D01*
X3081352Y51348446D01*
X3206762Y51364956D01*
X3352841Y51425464D01*
X3478282Y51521718D01*
X3574536Y51647159D01*
X3635044Y51793238D01*
X3655682Y51950000D01*
X3635044Y52106762D01*
X3613075Y52159800D01*
X3574537Y52252839D01*
X3574537Y52252840D01*
X3478286Y52378277D01*
X3478285Y52378278D01*
X3478282Y52378282D01*
X3478277Y52378286D01*
X3478276Y52378287D01*
X3371550Y52460180D01*
X3352841Y52474536D01*
X3352840Y52474537D01*
X3352838Y52474538D01*
X3206766Y52535043D01*
X3206758Y52535045D01*
X3050001Y52555682D01*
X3049999Y52555682D01*
X2893241Y52535045D01*
X2893233Y52535043D01*
X2747161Y52474538D01*
X2747160Y52474538D01*
X2621723Y52378287D01*
X2621713Y52378277D01*
X2525462Y52252840D01*
X2525462Y52252839D01*
X2464957Y52106767D01*
X2464955Y52106759D01*
X2444318Y51950001D01*
X1600500Y51950001D01*
X1600500Y52563812D01*
X1619407Y52622003D01*
X1629490Y52633810D01*
X1945681Y52950001D01*
X4344318Y52950001D01*
X4344318Y52950000D01*
X4364955Y52793242D01*
X4364957Y52793234D01*
X4425462Y52647162D01*
X4425462Y52647161D01*
X4511493Y52535043D01*
X4521718Y52521718D01*
X4647159Y52425464D01*
X4793238Y52364956D01*
X4910809Y52349478D01*
X4949999Y52344318D01*
X4950000Y52344318D01*
X4950001Y52344318D01*
X4981352Y52348446D01*
X5106762Y52364956D01*
X5252841Y52425464D01*
X5378282Y52521718D01*
X5474536Y52647159D01*
X5535044Y52793238D01*
X5555682Y52950000D01*
X5553679Y52965211D01*
X5535044Y53106759D01*
X5535044Y53106762D01*
X5511413Y53163812D01*
X5474537Y53252839D01*
X5474537Y53252840D01*
X5378286Y53378277D01*
X5378285Y53378278D01*
X5378282Y53378282D01*
X5378277Y53378286D01*
X5378276Y53378287D01*
X5292221Y53444319D01*
X5252841Y53474536D01*
X5252840Y53474537D01*
X5252838Y53474538D01*
X5106766Y53535043D01*
X5106758Y53535045D01*
X4950001Y53555682D01*
X4949999Y53555682D01*
X4793241Y53535045D01*
X4793233Y53535043D01*
X4647161Y53474538D01*
X4647160Y53474538D01*
X4521723Y53378287D01*
X4521713Y53378277D01*
X4425462Y53252840D01*
X4425462Y53252839D01*
X4364957Y53106767D01*
X4364955Y53106759D01*
X4344318Y52950001D01*
X1945681Y52950001D01*
X3030469Y54034788D01*
X3076614Y54114712D01*
X3088331Y54158442D01*
X3100500Y54203856D01*
X3100500Y54713213D01*
X3119407Y54771404D01*
X3139233Y54791755D01*
X3152591Y54802005D01*
X3178282Y54821718D01*
X3274536Y54947159D01*
X3335044Y55093238D01*
X3355682Y55250000D01*
X3335044Y55406762D01*
X3320149Y55442721D01*
X3274537Y55552839D01*
X3274537Y55552840D01*
X3178286Y55678277D01*
X3178285Y55678278D01*
X3178282Y55678282D01*
X3178277Y55678286D01*
X3178276Y55678287D01*
X3088517Y55747161D01*
X3052841Y55774536D01*
X3052840Y55774537D01*
X3052838Y55774538D01*
X2906766Y55835043D01*
X2906758Y55835045D01*
X2750001Y55855682D01*
X2749999Y55855682D01*
X2593241Y55835045D01*
X2593233Y55835043D01*
X2447161Y55774538D01*
X2447160Y55774538D01*
X2321723Y55678287D01*
X2321713Y55678277D01*
X2225462Y55552840D01*
X2225462Y55552839D01*
X2164957Y55406767D01*
X2164955Y55406759D01*
X2144318Y55250001D01*
X2144318Y55250000D01*
X2164955Y55093242D01*
X2164957Y55093234D01*
X2225462Y54947162D01*
X2225462Y54947161D01*
X2290293Y54862672D01*
X2321718Y54821718D01*
X2321722Y54821715D01*
X2360767Y54791755D01*
X2395423Y54741331D01*
X2399500Y54713213D01*
X2399500Y54436190D01*
X2380593Y54377999D01*
X2370504Y54366186D01*
X969529Y52965211D01*
X944552Y52921949D01*
X944551Y52921950D01*
X923387Y52885293D01*
X923386Y52885288D01*
X899500Y52796144D01*
X899500Y44303856D01*
X920505Y44225464D01*
X923386Y44214712D01*
X969530Y44134788D01*
X1634315Y43470003D01*
X1662091Y43415488D01*
X1652520Y43355056D01*
X1634314Y43329998D01*
X1169530Y42865213D01*
X1144552Y42821949D01*
X1144551Y42821950D01*
X1123387Y42785293D01*
X1123386Y42785288D01*
X1099500Y42696144D01*
X1099500Y6263169D01*
X1123386Y6174025D01*
X1169530Y6094101D01*
X2150723Y5112908D01*
X3102249Y4161382D01*
X3130026Y4106865D01*
X3130398Y4078459D01*
X3123975Y4029661D01*
X3123975Y4029657D01*
X3144612Y3872899D01*
X3144614Y3872891D01*
X3205119Y3726819D01*
X3205119Y3726818D01*
X3279051Y3630468D01*
X3301375Y3601375D01*
X3426816Y3505121D01*
X3572895Y3444613D01*
X3729657Y3423975D01*
X3778455Y3430400D01*
X3838613Y3419251D01*
X3861380Y3402251D01*
X6544129Y719502D01*
X6571905Y664987D01*
X6562334Y604555D01*
X6519069Y561290D01*
X6474124Y550500D01*
X3352773Y550500D01*
X3347222Y550656D01*
X3042105Y567792D01*
X3031073Y569035D01*
X2732538Y619757D01*
X2721716Y622227D01*
X2647239Y643683D01*
X2430724Y706061D01*
X2420245Y709728D01*
X2140476Y825612D01*
X2130474Y830429D01*
X1865444Y976906D01*
X1856044Y982812D01*
X1609069Y1158050D01*
X1600389Y1164973D01*
X1374600Y1366751D01*
X1366750Y1374601D01*
X1164972Y1600390D01*
X1158049Y1609070D01*
X982811Y1856045D01*
X976905Y1865445D01*
X830428Y2130475D01*
X825611Y2140477D01*
X780245Y2250000D01*
X709725Y2420250D01*
X706060Y2430725D01*
X622222Y2721730D01*
X619759Y2732524D01*
X569033Y3031079D01*
X567791Y3042106D01*
X562637Y3133875D01*
X550656Y3347223D01*
X550500Y3352774D01*
X550500Y56750001D01*
X4144318Y56750001D01*
X4144318Y56750000D01*
X4164955Y56593242D01*
X4164957Y56593234D01*
X4225462Y56447162D01*
X4225462Y56447161D01*
X4301111Y56348573D01*
X4321718Y56321718D01*
X4447159Y56225464D01*
X4447160Y56225464D01*
X4447161Y56225463D01*
X4526282Y56192690D01*
X4593238Y56164956D01*
X4710809Y56149478D01*
X4749999Y56144318D01*
X4750000Y56144318D01*
X4750001Y56144318D01*
X4781352Y56148446D01*
X4906762Y56164956D01*
X5052841Y56225464D01*
X5178282Y56321718D01*
X5274536Y56447159D01*
X5335044Y56593238D01*
X5355682Y56750000D01*
X5335044Y56906762D01*
X5319955Y56943191D01*
X5274537Y57052839D01*
X5274537Y57052840D01*
X5178286Y57178277D01*
X5178285Y57178278D01*
X5178282Y57178282D01*
X5178277Y57178286D01*
X5178276Y57178287D01*
X5052838Y57274538D01*
X4906766Y57335043D01*
X4906758Y57335045D01*
X4750001Y57355682D01*
X4749999Y57355682D01*
X4593241Y57335045D01*
X4593233Y57335043D01*
X4447161Y57274538D01*
X4447160Y57274538D01*
X4321723Y57178287D01*
X4321713Y57178277D01*
X4225462Y57052840D01*
X4225462Y57052839D01*
X4164957Y56906767D01*
X4164955Y56906759D01*
X4144318Y56750001D01*
X550500Y56750001D01*
X550500Y60300004D01*
X19382843Y60300004D01*
X19382843Y60299997D01*
X19401425Y60111322D01*
X19401426Y60111317D01*
X19456463Y59929885D01*
X19456465Y59929880D01*
X19490266Y59866644D01*
X19545838Y59762676D01*
X19666117Y59616117D01*
X19812676Y59495838D01*
X19979885Y59406463D01*
X20088914Y59373390D01*
X20161316Y59351427D01*
X20161321Y59351426D01*
X20349997Y59332843D01*
X20350000Y59332843D01*
X20350003Y59332843D01*
X20538678Y59351426D01*
X20538683Y59351427D01*
X20720115Y59406463D01*
X20887324Y59495838D01*
X21033883Y59616117D01*
X21154162Y59762676D01*
X21243537Y59929885D01*
X21298573Y60111317D01*
X21298574Y60111322D01*
X21317157Y60299997D01*
X21317157Y60300004D01*
X21882843Y60300004D01*
X21882843Y60299997D01*
X21901425Y60111322D01*
X21901426Y60111317D01*
X21956463Y59929885D01*
X21956465Y59929880D01*
X21990266Y59866644D01*
X22045838Y59762676D01*
X22166117Y59616117D01*
X22312676Y59495838D01*
X22479885Y59406463D01*
X22588914Y59373390D01*
X22661316Y59351427D01*
X22661321Y59351426D01*
X22849997Y59332843D01*
X22850000Y59332843D01*
X22850003Y59332843D01*
X23038678Y59351426D01*
X23038683Y59351427D01*
X23220115Y59406463D01*
X23387324Y59495838D01*
X23533883Y59616117D01*
X23654162Y59762676D01*
X23743537Y59929885D01*
X23798573Y60111317D01*
X23798574Y60111322D01*
X23817157Y60299997D01*
X23817157Y60300004D01*
X25382843Y60300004D01*
X25382843Y60299997D01*
X25401425Y60111322D01*
X25401426Y60111317D01*
X25456463Y59929885D01*
X25456465Y59929880D01*
X25490266Y59866644D01*
X25545838Y59762676D01*
X25666117Y59616117D01*
X25812676Y59495838D01*
X25979885Y59406463D01*
X26088914Y59373390D01*
X26161316Y59351427D01*
X26161321Y59351426D01*
X26349997Y59332843D01*
X26350000Y59332843D01*
X26350003Y59332843D01*
X26538678Y59351426D01*
X26538683Y59351427D01*
X26720115Y59406463D01*
X26887324Y59495838D01*
X27033883Y59616117D01*
X27154162Y59762676D01*
X27243537Y59929885D01*
X27298573Y60111317D01*
X27298574Y60111322D01*
X27317157Y60299997D01*
X27317157Y60300004D01*
X27298574Y60488679D01*
X27298573Y60488684D01*
X27279973Y60550001D01*
X27243537Y60670115D01*
X27154162Y60837324D01*
X27033883Y60983883D01*
X26887324Y61104162D01*
X26829546Y61135045D01*
X26720120Y61193535D01*
X26720115Y61193537D01*
X26538683Y61248574D01*
X26538678Y61248575D01*
X26350003Y61267157D01*
X26349997Y61267157D01*
X26161321Y61248575D01*
X26161316Y61248574D01*
X25979884Y61193537D01*
X25979879Y61193535D01*
X25812681Y61104165D01*
X25812671Y61104159D01*
X25666121Y60983887D01*
X25666113Y60983879D01*
X25545841Y60837329D01*
X25545835Y60837319D01*
X25456465Y60670121D01*
X25456463Y60670116D01*
X25401426Y60488684D01*
X25401425Y60488679D01*
X25382843Y60300004D01*
X23817157Y60300004D01*
X23798574Y60488679D01*
X23798573Y60488684D01*
X23779973Y60550001D01*
X23743537Y60670115D01*
X23654162Y60837324D01*
X23533883Y60983883D01*
X23387324Y61104162D01*
X23329546Y61135045D01*
X23220120Y61193535D01*
X23220115Y61193537D01*
X23038683Y61248574D01*
X23038678Y61248575D01*
X22850003Y61267157D01*
X22849997Y61267157D01*
X22661321Y61248575D01*
X22661316Y61248574D01*
X22479884Y61193537D01*
X22479879Y61193535D01*
X22312681Y61104165D01*
X22312671Y61104159D01*
X22166121Y60983887D01*
X22166113Y60983879D01*
X22045841Y60837329D01*
X22045835Y60837319D01*
X21956465Y60670121D01*
X21956463Y60670116D01*
X21901426Y60488684D01*
X21901425Y60488679D01*
X21882843Y60300004D01*
X21317157Y60300004D01*
X21298574Y60488679D01*
X21298573Y60488684D01*
X21279973Y60550001D01*
X21243537Y60670115D01*
X21154162Y60837324D01*
X21033883Y60983883D01*
X20887324Y61104162D01*
X20829546Y61135045D01*
X20720120Y61193535D01*
X20720115Y61193537D01*
X20538683Y61248574D01*
X20538678Y61248575D01*
X20350003Y61267157D01*
X20349997Y61267157D01*
X20161321Y61248575D01*
X20161316Y61248574D01*
X19979884Y61193537D01*
X19979879Y61193535D01*
X19812681Y61104165D01*
X19812671Y61104159D01*
X19666121Y60983887D01*
X19666113Y60983879D01*
X19545841Y60837329D01*
X19545835Y60837319D01*
X19456465Y60670121D01*
X19456463Y60670116D01*
X19401426Y60488684D01*
X19401425Y60488679D01*
X19382843Y60300004D01*
X550500Y60300004D01*
X550500Y61750001D01*
X17944318Y61750001D01*
X17944318Y61750000D01*
X17964955Y61593242D01*
X17964957Y61593234D01*
X18025462Y61447162D01*
X18025462Y61447161D01*
X18025464Y61447159D01*
X18121718Y61321718D01*
X18247159Y61225464D01*
X18393238Y61164956D01*
X18510809Y61149478D01*
X18549999Y61144318D01*
X18550000Y61144318D01*
X18550001Y61144318D01*
X18581352Y61148446D01*
X18706762Y61164956D01*
X18852841Y61225464D01*
X18978282Y61321718D01*
X19074536Y61447159D01*
X19135044Y61593238D01*
X19155682Y61750000D01*
X19135044Y61906762D01*
X19074537Y62052839D01*
X19074537Y62052840D01*
X18978286Y62178277D01*
X18978285Y62178278D01*
X18978282Y62178282D01*
X18978277Y62178286D01*
X18978276Y62178287D01*
X18852838Y62274538D01*
X18706766Y62335043D01*
X18706758Y62335045D01*
X18550001Y62355682D01*
X18549999Y62355682D01*
X18393241Y62335045D01*
X18393233Y62335043D01*
X18247161Y62274538D01*
X18247160Y62274538D01*
X18121723Y62178287D01*
X18121713Y62178277D01*
X18025462Y62052840D01*
X18025462Y62052839D01*
X17964957Y61906767D01*
X17964955Y61906759D01*
X17944318Y61750001D01*
X550500Y61750001D01*
X550500Y66950005D01*
X2344457Y66950005D01*
X2344457Y66949996D01*
X2364611Y66591103D01*
X2364614Y66591083D01*
X2424824Y66236713D01*
X2424828Y66236693D01*
X2524340Y65891277D01*
X2661907Y65559163D01*
X2832501Y65250497D01*
X2835789Y65244548D01*
X3043806Y64951377D01*
X3283339Y64683339D01*
X3551377Y64443806D01*
X3844548Y64235789D01*
X3844550Y64235788D01*
X4159163Y64061908D01*
X4159162Y64061908D01*
X4491276Y63924341D01*
X4836692Y63824829D01*
X4836695Y63824829D01*
X4836700Y63824827D01*
X5191093Y63764613D01*
X5191096Y63764613D01*
X5191102Y63764612D01*
X5549995Y63744457D01*
X5550000Y63744457D01*
X5550005Y63744457D01*
X5908897Y63764612D01*
X5908901Y63764613D01*
X5908907Y63764613D01*
X6263300Y63824827D01*
X6608724Y63924341D01*
X6940833Y64061906D01*
X7255452Y64235789D01*
X7548623Y64443806D01*
X7816661Y64683339D01*
X7879042Y64753143D01*
X22739500Y64753143D01*
X22739500Y64546858D01*
X22771767Y64343129D01*
X22835512Y64146943D01*
X22929159Y63963149D01*
X22929163Y63963143D01*
X23050402Y63796273D01*
X23050404Y63796271D01*
X23050407Y63796267D01*
X23196267Y63650407D01*
X23196270Y63650405D01*
X23196272Y63650403D01*
X23363142Y63529164D01*
X23363148Y63529160D01*
X23546943Y63435512D01*
X23743124Y63371769D01*
X23743125Y63371769D01*
X23743128Y63371768D01*
X23946858Y63339500D01*
X23946861Y63339500D01*
X24153142Y63339500D01*
X24356871Y63371768D01*
X24356872Y63371769D01*
X24356876Y63371769D01*
X24553057Y63435512D01*
X24736852Y63529160D01*
X24903733Y63650407D01*
X25049593Y63796267D01*
X25170840Y63963148D01*
X25264488Y64146943D01*
X25328231Y64343124D01*
X25349039Y64474500D01*
X25360500Y64546858D01*
X25360500Y64753143D01*
X25328232Y64956872D01*
X25304950Y65028527D01*
X25264488Y65153057D01*
X25170840Y65336852D01*
X25115370Y65413200D01*
X25049597Y65503728D01*
X25049595Y65503730D01*
X25049593Y65503733D01*
X24903733Y65649593D01*
X24903729Y65649596D01*
X24903727Y65649598D01*
X24736857Y65770837D01*
X24736851Y65770841D01*
X24553057Y65864488D01*
X24356871Y65928233D01*
X24153142Y65960500D01*
X24153139Y65960500D01*
X23946861Y65960500D01*
X23946858Y65960500D01*
X23743128Y65928233D01*
X23546942Y65864488D01*
X23363148Y65770841D01*
X23363142Y65770837D01*
X23196272Y65649598D01*
X23050402Y65503728D01*
X22929163Y65336858D01*
X22929159Y65336852D01*
X22835512Y65153058D01*
X22771767Y64956872D01*
X22739500Y64753143D01*
X7879042Y64753143D01*
X8056194Y64951377D01*
X8264211Y65244548D01*
X8438094Y65559167D01*
X8575659Y65891276D01*
X8675173Y66236700D01*
X8735387Y66591093D01*
X8737292Y66624998D01*
X8755543Y66949996D01*
X8755543Y66950005D01*
X8735388Y67308898D01*
X8735385Y67308918D01*
X8675175Y67663288D01*
X8675171Y67663308D01*
X8575659Y68008724D01*
X8438092Y68340838D01*
X8270051Y68644886D01*
X17739500Y68644886D01*
X17739500Y68355115D01*
X17777321Y68067836D01*
X17777321Y68067831D01*
X17852318Y67787941D01*
X17852322Y67787928D01*
X17963205Y67520231D01*
X17963207Y67520227D01*
X17963209Y67520223D01*
X18085213Y67308907D01*
X18108095Y67269274D01*
X18284486Y67039396D01*
X18284488Y67039394D01*
X18284492Y67039389D01*
X18489389Y66834492D01*
X18489393Y66834489D01*
X18489395Y66834487D01*
X18655837Y66706772D01*
X18719277Y66658093D01*
X18970223Y66513209D01*
X19237933Y66402320D01*
X19517828Y66327322D01*
X19805116Y66289500D01*
X19805117Y66289500D01*
X20094883Y66289500D01*
X20094884Y66289500D01*
X20382172Y66327322D01*
X20662067Y66402320D01*
X20929777Y66513209D01*
X21180723Y66658093D01*
X21410611Y66834492D01*
X21615508Y67039389D01*
X21791907Y67269277D01*
X21936791Y67520223D01*
X22047680Y67787933D01*
X22122678Y68067828D01*
X22160500Y68355116D01*
X22160500Y68644884D01*
X22122678Y68932172D01*
X22047680Y69212067D01*
X21936791Y69479777D01*
X21791907Y69730723D01*
X21709519Y69838093D01*
X21615513Y69960605D01*
X21615511Y69960607D01*
X21615508Y69960611D01*
X21410611Y70165508D01*
X21410606Y70165512D01*
X21410604Y70165514D01*
X21180726Y70341905D01*
X21180723Y70341907D01*
X20929777Y70486791D01*
X20929773Y70486793D01*
X20929769Y70486795D01*
X20662072Y70597678D01*
X20662071Y70597679D01*
X20662067Y70597680D01*
X20382172Y70672678D01*
X20382169Y70672679D01*
X20382167Y70672679D01*
X20094885Y70710500D01*
X20094884Y70710500D01*
X19805116Y70710500D01*
X19805114Y70710500D01*
X19517835Y70672679D01*
X19517830Y70672679D01*
X19237940Y70597682D01*
X19237927Y70597678D01*
X18970230Y70486795D01*
X18719273Y70341905D01*
X18489395Y70165514D01*
X18284486Y69960605D01*
X18108095Y69730727D01*
X17963205Y69479770D01*
X17852322Y69212073D01*
X17852318Y69212060D01*
X17777321Y68932170D01*
X17777321Y68932165D01*
X17739500Y68644886D01*
X8270051Y68644886D01*
X8264212Y68655450D01*
X8181888Y68771474D01*
X8058536Y68945322D01*
X8056197Y68948619D01*
X8056196Y68948620D01*
X8056194Y68948623D01*
X7816661Y69216661D01*
X7548623Y69456194D01*
X7548620Y69456196D01*
X7548618Y69456198D01*
X7255449Y69664213D01*
X6940836Y69838093D01*
X6940837Y69838093D01*
X6608723Y69975660D01*
X6263307Y70075172D01*
X6263287Y70075176D01*
X5908917Y70135386D01*
X5908897Y70135389D01*
X5550005Y70155543D01*
X5549995Y70155543D01*
X5191102Y70135389D01*
X5191082Y70135386D01*
X4836712Y70075176D01*
X4836692Y70075172D01*
X4491276Y69975660D01*
X4159162Y69838093D01*
X3844550Y69664213D01*
X3551381Y69456198D01*
X3283346Y69216668D01*
X3283332Y69216654D01*
X3043802Y68948619D01*
X2835787Y68655450D01*
X2661907Y68340838D01*
X2524340Y68008724D01*
X2424828Y67663308D01*
X2424824Y67663288D01*
X2364614Y67308918D01*
X2364611Y67308898D01*
X2344457Y66950005D01*
X550500Y66950005D01*
X550500Y73150000D01*
X29319464Y73150000D01*
X29339565Y72933077D01*
X29399183Y72723541D01*
X29496288Y72528528D01*
X29627573Y72354678D01*
X29788568Y72207912D01*
X29973790Y72093228D01*
X30176931Y72014530D01*
X30265758Y71997926D01*
X30269029Y71997314D01*
X30322755Y71968037D01*
X30349011Y71912771D01*
X30337768Y71852627D01*
X30293321Y71810579D01*
X30269029Y71802686D01*
X30176933Y71785471D01*
X30102258Y71756542D01*
X29973790Y71706772D01*
X29788568Y71592088D01*
X29788565Y71592086D01*
X29627574Y71445323D01*
X29496289Y71271474D01*
X29496284Y71271465D01*
X29399183Y71076460D01*
X29339565Y70866925D01*
X29319464Y70650000D01*
X29339565Y70433076D01*
X29399183Y70223541D01*
X29443078Y70135387D01*
X29496288Y70028528D01*
X29627573Y69854678D01*
X29788568Y69707912D01*
X29973790Y69593228D01*
X30176931Y69514530D01*
X30265758Y69497926D01*
X30269029Y69497314D01*
X30322755Y69468037D01*
X30349011Y69412771D01*
X30337768Y69352627D01*
X30293321Y69310579D01*
X30269029Y69302686D01*
X30176933Y69285471D01*
X30102258Y69256542D01*
X29973790Y69206772D01*
X29788568Y69092088D01*
X29788565Y69092086D01*
X29672505Y68986283D01*
X29627573Y68945322D01*
X29585009Y68888958D01*
X29496289Y68771474D01*
X29496284Y68771465D01*
X29399183Y68576460D01*
X29339565Y68366925D01*
X29319464Y68150000D01*
X29339565Y67933076D01*
X29380860Y67787941D01*
X29399183Y67723541D01*
X29496288Y67528528D01*
X29627573Y67354678D01*
X29788568Y67207912D01*
X29973790Y67093228D01*
X30176931Y67014530D01*
X30265758Y66997926D01*
X30269029Y66997314D01*
X30322755Y66968037D01*
X30349011Y66912771D01*
X30337768Y66852627D01*
X30293321Y66810579D01*
X30269029Y66802686D01*
X30176933Y66785471D01*
X30102258Y66756542D01*
X29973790Y66706772D01*
X29841720Y66624998D01*
X29788565Y66592086D01*
X29627574Y66445323D01*
X29496289Y66271474D01*
X29496284Y66271465D01*
X29399183Y66076460D01*
X29339565Y65866925D01*
X29319464Y65650000D01*
X29339565Y65433076D01*
X29366943Y65336852D01*
X29399183Y65223541D01*
X29496288Y65028528D01*
X29627573Y64854678D01*
X29788568Y64707912D01*
X29973790Y64593228D01*
X30176931Y64514530D01*
X30391074Y64474500D01*
X30608926Y64474500D01*
X30823069Y64514530D01*
X31026210Y64593228D01*
X31211432Y64707912D01*
X31372427Y64854678D01*
X31503712Y65028528D01*
X31600817Y65223541D01*
X31660435Y65433077D01*
X31680536Y65650000D01*
X33019464Y65650000D01*
X33039565Y65433076D01*
X33066943Y65336852D01*
X33099183Y65223541D01*
X33196288Y65028528D01*
X33327573Y64854678D01*
X33488568Y64707912D01*
X33673790Y64593228D01*
X33876931Y64514530D01*
X34091074Y64474500D01*
X34308926Y64474500D01*
X34523069Y64514530D01*
X34726210Y64593228D01*
X34911432Y64707912D01*
X35072427Y64854678D01*
X35203712Y65028528D01*
X35300817Y65223541D01*
X35360435Y65433077D01*
X35380536Y65650000D01*
X35360435Y65866923D01*
X35300817Y66076459D01*
X35203712Y66271472D01*
X35072427Y66445322D01*
X34911432Y66592088D01*
X34726210Y66706772D01*
X34523069Y66785470D01*
X34523068Y66785471D01*
X34523066Y66785471D01*
X34308926Y66825500D01*
X34091074Y66825500D01*
X33876933Y66785471D01*
X33802258Y66756542D01*
X33673790Y66706772D01*
X33541720Y66624998D01*
X33488565Y66592086D01*
X33327574Y66445323D01*
X33196289Y66271474D01*
X33196284Y66271465D01*
X33099183Y66076460D01*
X33039565Y65866925D01*
X33019464Y65650000D01*
X31680536Y65650000D01*
X31660435Y65866923D01*
X31600817Y66076459D01*
X31503712Y66271472D01*
X31372427Y66445322D01*
X31211432Y66592088D01*
X31026210Y66706772D01*
X30823069Y66785470D01*
X30823068Y66785471D01*
X30823066Y66785471D01*
X30757012Y66797818D01*
X30730969Y66802687D01*
X30677244Y66831963D01*
X30650988Y66887229D01*
X30662231Y66947372D01*
X30706678Y66989421D01*
X30730968Y66997314D01*
X30823069Y67014530D01*
X31026210Y67093228D01*
X31211432Y67207912D01*
X31372427Y67354678D01*
X31503712Y67528528D01*
X31600817Y67723541D01*
X31660435Y67933077D01*
X31680536Y68150000D01*
X31660435Y68366923D01*
X31600817Y68576459D01*
X31503712Y68771472D01*
X31372427Y68945322D01*
X31211432Y69092088D01*
X31026210Y69206772D01*
X30823069Y69285470D01*
X30823068Y69285471D01*
X30823066Y69285471D01*
X30757012Y69297818D01*
X30730969Y69302687D01*
X30677244Y69331963D01*
X30650988Y69387229D01*
X30662231Y69447372D01*
X30706678Y69489421D01*
X30730968Y69497314D01*
X30823069Y69514530D01*
X31026210Y69593228D01*
X31211432Y69707912D01*
X31372427Y69854678D01*
X31503712Y70028528D01*
X31600817Y70223541D01*
X31660435Y70433077D01*
X31680536Y70650000D01*
X31660435Y70866923D01*
X31600817Y71076459D01*
X31503712Y71271472D01*
X31372427Y71445322D01*
X31211432Y71592088D01*
X31026210Y71706772D01*
X30823069Y71785470D01*
X30823068Y71785471D01*
X30823066Y71785471D01*
X30757012Y71797818D01*
X30730969Y71802687D01*
X30677244Y71831963D01*
X30650988Y71887229D01*
X30662231Y71947372D01*
X30706678Y71989421D01*
X30730968Y71997314D01*
X30823069Y72014530D01*
X31026210Y72093228D01*
X31211432Y72207912D01*
X31372427Y72354678D01*
X31503712Y72528528D01*
X31600817Y72723541D01*
X31660435Y72933077D01*
X31680536Y73150000D01*
X33019464Y73150000D01*
X33039565Y72933077D01*
X33099183Y72723541D01*
X33196288Y72528528D01*
X33327573Y72354678D01*
X33488568Y72207912D01*
X33673790Y72093228D01*
X33876931Y72014530D01*
X33965758Y71997926D01*
X33969029Y71997314D01*
X34022755Y71968037D01*
X34049011Y71912771D01*
X34037768Y71852627D01*
X33993321Y71810579D01*
X33969029Y71802686D01*
X33876933Y71785471D01*
X33802258Y71756542D01*
X33673790Y71706772D01*
X33488568Y71592088D01*
X33488565Y71592086D01*
X33327574Y71445323D01*
X33196289Y71271474D01*
X33196284Y71271465D01*
X33099183Y71076460D01*
X33039565Y70866925D01*
X33019464Y70650000D01*
X33039565Y70433076D01*
X33099183Y70223541D01*
X33143078Y70135387D01*
X33196288Y70028528D01*
X33327573Y69854678D01*
X33488568Y69707912D01*
X33673790Y69593228D01*
X33876931Y69514530D01*
X34091074Y69474500D01*
X34308926Y69474500D01*
X34523069Y69514530D01*
X34726210Y69593228D01*
X34911432Y69707912D01*
X35072427Y69854678D01*
X35203712Y70028528D01*
X35300817Y70223541D01*
X35360435Y70433077D01*
X35380536Y70650000D01*
X35360435Y70866923D01*
X35300817Y71076459D01*
X35203712Y71271472D01*
X35072427Y71445322D01*
X34911432Y71592088D01*
X34726210Y71706772D01*
X34523069Y71785470D01*
X34523068Y71785471D01*
X34523066Y71785471D01*
X34457012Y71797818D01*
X34430969Y71802687D01*
X34377244Y71831963D01*
X34350988Y71887229D01*
X34362231Y71947372D01*
X34406678Y71989421D01*
X34430968Y71997314D01*
X34523069Y72014530D01*
X34726210Y72093228D01*
X34911432Y72207912D01*
X35072427Y72354678D01*
X35203712Y72528528D01*
X35300817Y72723541D01*
X35360435Y72933077D01*
X35380536Y73150000D01*
X35360435Y73366923D01*
X35300817Y73576459D01*
X35203712Y73771472D01*
X35072427Y73945322D01*
X34911432Y74092088D01*
X34726210Y74206772D01*
X34523069Y74285470D01*
X34523068Y74285471D01*
X34523066Y74285471D01*
X34308926Y74325500D01*
X34091074Y74325500D01*
X33876933Y74285471D01*
X33802258Y74256542D01*
X33673790Y74206772D01*
X33507707Y74103938D01*
X33488565Y74092086D01*
X33327574Y73945323D01*
X33196289Y73771474D01*
X33196284Y73771465D01*
X33099183Y73576460D01*
X33039565Y73366925D01*
X33034750Y73314961D01*
X33019464Y73150000D01*
X31680536Y73150000D01*
X31660435Y73366923D01*
X31600817Y73576459D01*
X31503712Y73771472D01*
X31372427Y73945322D01*
X31211432Y74092088D01*
X31026210Y74206772D01*
X30823069Y74285470D01*
X30823068Y74285471D01*
X30823066Y74285471D01*
X30608926Y74325500D01*
X30391074Y74325500D01*
X30176933Y74285471D01*
X30102258Y74256542D01*
X29973790Y74206772D01*
X29807707Y74103938D01*
X29788565Y74092086D01*
X29627574Y73945323D01*
X29496289Y73771474D01*
X29496284Y73771465D01*
X29399183Y73576460D01*
X29339565Y73366925D01*
X29334750Y73314961D01*
X29319464Y73150000D01*
X550500Y73150000D01*
X550500Y74709621D01*
X57503938Y74709621D01*
X57503938Y74709620D01*
X57524575Y74552862D01*
X57524577Y74552854D01*
X57585082Y74406782D01*
X57585082Y74406781D01*
X57678167Y74285470D01*
X57681338Y74281338D01*
X57806779Y74185084D01*
X57952858Y74124576D01*
X58070429Y74109098D01*
X58109619Y74103938D01*
X58109620Y74103938D01*
X58109621Y74103938D01*
X58140972Y74108066D01*
X58266382Y74124576D01*
X58412461Y74185084D01*
X58537902Y74281338D01*
X58634156Y74406779D01*
X58694664Y74552858D01*
X58715302Y74709620D01*
X58694664Y74866382D01*
X58653833Y74964956D01*
X58634157Y75012459D01*
X58634157Y75012460D01*
X58537906Y75137897D01*
X58537905Y75137898D01*
X58537902Y75137902D01*
X58537897Y75137906D01*
X58537896Y75137907D01*
X58412458Y75234158D01*
X58266386Y75294663D01*
X58266378Y75294665D01*
X58109621Y75315302D01*
X58109619Y75315302D01*
X57952861Y75294665D01*
X57952853Y75294663D01*
X57806781Y75234158D01*
X57806780Y75234158D01*
X57681343Y75137907D01*
X57681333Y75137897D01*
X57585082Y75012460D01*
X57585082Y75012459D01*
X57524577Y74866387D01*
X57524575Y74866379D01*
X57503938Y74709621D01*
X550500Y74709621D01*
X550500Y75550001D01*
X44544318Y75550001D01*
X44544318Y75550000D01*
X44564955Y75393242D01*
X44564957Y75393234D01*
X44625462Y75247162D01*
X44625462Y75247161D01*
X44709303Y75137897D01*
X44721718Y75121718D01*
X44847159Y75025464D01*
X44847160Y75025464D01*
X44847161Y75025463D01*
X44993233Y74964958D01*
X44993238Y74964956D01*
X45110809Y74949478D01*
X45149999Y74944318D01*
X45150000Y74944318D01*
X45150001Y74944318D01*
X45181352Y74948446D01*
X45306762Y74964956D01*
X45452841Y75025464D01*
X45578282Y75121718D01*
X45674536Y75247159D01*
X45735044Y75393238D01*
X45755682Y75550000D01*
X45735044Y75706762D01*
X45709507Y75768414D01*
X45674537Y75852839D01*
X45674537Y75852840D01*
X45578286Y75978277D01*
X45578285Y75978278D01*
X45578282Y75978282D01*
X45578277Y75978286D01*
X45578276Y75978287D01*
X45507104Y76032899D01*
X45452841Y76074536D01*
X45452840Y76074537D01*
X45452838Y76074538D01*
X45306766Y76135043D01*
X45306758Y76135045D01*
X45150001Y76155682D01*
X45149999Y76155682D01*
X44993241Y76135045D01*
X44993233Y76135043D01*
X44847161Y76074538D01*
X44847160Y76074538D01*
X44721723Y75978287D01*
X44721713Y75978277D01*
X44625462Y75852840D01*
X44625462Y75852839D01*
X44564957Y75706767D01*
X44564955Y75706759D01*
X44544318Y75550001D01*
X550500Y75550001D01*
X550500Y77315687D01*
X51010004Y77315687D01*
X51010004Y77315686D01*
X51030641Y77158928D01*
X51030643Y77158920D01*
X51091148Y77012848D01*
X51091148Y77012847D01*
X51187399Y76887410D01*
X51187404Y76887404D01*
X51312845Y76791150D01*
X51312846Y76791150D01*
X51312847Y76791149D01*
X51367430Y76768540D01*
X51458924Y76730642D01*
X51576495Y76715164D01*
X51615685Y76710004D01*
X51615686Y76710004D01*
X51615687Y76710004D01*
X51647038Y76714132D01*
X51772448Y76730642D01*
X51918527Y76791150D01*
X52043968Y76887404D01*
X52140222Y77012845D01*
X52140223Y77012847D01*
X52144172Y77017993D01*
X52145891Y77016674D01*
X52184144Y77051130D01*
X52244993Y77057536D01*
X52297987Y77026953D01*
X52322884Y76971062D01*
X52322581Y76947777D01*
X52319624Y76925312D01*
X52319624Y76925306D01*
X52340261Y76768548D01*
X52340263Y76768540D01*
X52400768Y76622468D01*
X52400768Y76622467D01*
X52497019Y76497030D01*
X52497024Y76497024D01*
X52622465Y76400770D01*
X52622466Y76400770D01*
X52622467Y76400769D01*
X52744875Y76350066D01*
X52768544Y76340262D01*
X52886115Y76324784D01*
X52925305Y76319624D01*
X52925306Y76319624D01*
X52925307Y76319624D01*
X52956658Y76323752D01*
X53082068Y76340262D01*
X53228147Y76400770D01*
X53337823Y76484927D01*
X53679244Y76484927D01*
X53679244Y76484926D01*
X53699881Y76328168D01*
X53699883Y76328160D01*
X53760388Y76182088D01*
X53760388Y76182087D01*
X53845433Y76071254D01*
X53856644Y76056644D01*
X53982085Y75960390D01*
X53982086Y75960390D01*
X53982087Y75960389D01*
X54014027Y75947159D01*
X54128164Y75899882D01*
X54245735Y75884404D01*
X54284925Y75879244D01*
X54284926Y75879244D01*
X54284927Y75879244D01*
X54316278Y75883372D01*
X54441688Y75899882D01*
X54587767Y75960390D01*
X54713208Y76056644D01*
X54809462Y76182085D01*
X54853854Y76289256D01*
X54893590Y76335782D01*
X54953085Y76350066D01*
X55009613Y76326651D01*
X55041583Y76274482D01*
X55044318Y76251371D01*
X55044318Y76250000D01*
X55064955Y76093242D01*
X55064957Y76093234D01*
X55125462Y75947162D01*
X55125462Y75947161D01*
X55197837Y75852840D01*
X55221718Y75821718D01*
X55347159Y75725464D01*
X55347160Y75725464D01*
X55347161Y75725463D01*
X55493233Y75664958D01*
X55493238Y75664956D01*
X55610809Y75649478D01*
X55649999Y75644318D01*
X55650000Y75644318D01*
X55650001Y75644318D01*
X55681352Y75648446D01*
X55806762Y75664956D01*
X55952841Y75725464D01*
X56008816Y75768415D01*
X56445144Y75768415D01*
X56445144Y75768414D01*
X56465781Y75611656D01*
X56465783Y75611648D01*
X56526288Y75465576D01*
X56526288Y75465575D01*
X56622539Y75340138D01*
X56622544Y75340132D01*
X56747985Y75243878D01*
X56894064Y75183370D01*
X57011635Y75167892D01*
X57050825Y75162732D01*
X57050826Y75162732D01*
X57050827Y75162732D01*
X57082178Y75166860D01*
X57207588Y75183370D01*
X57353667Y75243878D01*
X57479108Y75340132D01*
X57575362Y75465573D01*
X57635870Y75611652D01*
X57656508Y75768414D01*
X57635870Y75925176D01*
X57575363Y76071253D01*
X57575363Y76071254D01*
X57479112Y76196691D01*
X57479111Y76196692D01*
X57479108Y76196696D01*
X57479103Y76196700D01*
X57479102Y76196701D01*
X57353664Y76292952D01*
X57207592Y76353457D01*
X57207584Y76353459D01*
X57050827Y76374096D01*
X57050825Y76374096D01*
X56894067Y76353459D01*
X56894059Y76353457D01*
X56747987Y76292952D01*
X56747986Y76292952D01*
X56622549Y76196701D01*
X56622539Y76196691D01*
X56526288Y76071254D01*
X56526288Y76071253D01*
X56465783Y75925181D01*
X56465781Y75925173D01*
X56445144Y75768415D01*
X56008816Y75768415D01*
X56078282Y75821718D01*
X56174536Y75947159D01*
X56235044Y76093238D01*
X56255682Y76250000D01*
X56235044Y76406762D01*
X56174537Y76552839D01*
X56174537Y76552840D01*
X56078286Y76678277D01*
X56078285Y76678278D01*
X56078282Y76678282D01*
X56078277Y76678286D01*
X56078276Y76678287D01*
X55960650Y76768544D01*
X55952841Y76774536D01*
X55952840Y76774537D01*
X55952838Y76774538D01*
X55806766Y76835043D01*
X55806758Y76835045D01*
X55650001Y76855682D01*
X55649999Y76855682D01*
X55493241Y76835045D01*
X55493233Y76835043D01*
X55347161Y76774538D01*
X55347160Y76774538D01*
X55221723Y76678287D01*
X55221713Y76678277D01*
X55125463Y76552840D01*
X55081072Y76445670D01*
X55041335Y76399145D01*
X54981840Y76384861D01*
X54925313Y76408276D01*
X54893343Y76460445D01*
X54890608Y76483556D01*
X54890608Y76484927D01*
X54881667Y76552841D01*
X54869970Y76641688D01*
X54817426Y76768540D01*
X54809463Y76787765D01*
X54809463Y76787766D01*
X54713212Y76913203D01*
X54713211Y76913204D01*
X54713208Y76913208D01*
X54713203Y76913212D01*
X54713202Y76913213D01*
X54587764Y77009464D01*
X54441692Y77069969D01*
X54441684Y77069971D01*
X54284927Y77090608D01*
X54284925Y77090608D01*
X54128167Y77069971D01*
X54128159Y77069969D01*
X53982087Y77009464D01*
X53982086Y77009464D01*
X53856649Y76913213D01*
X53856639Y76913203D01*
X53760388Y76787766D01*
X53760388Y76787765D01*
X53699883Y76641693D01*
X53699881Y76641685D01*
X53679244Y76484927D01*
X53337823Y76484927D01*
X53353588Y76497024D01*
X53449842Y76622465D01*
X53510350Y76768544D01*
X53530988Y76925306D01*
X53510350Y77082068D01*
X53478515Y77158924D01*
X53449843Y77228145D01*
X53449843Y77228146D01*
X53353592Y77353583D01*
X53353591Y77353584D01*
X53353588Y77353588D01*
X53353583Y77353592D01*
X53353582Y77353593D01*
X53228144Y77449844D01*
X53082072Y77510349D01*
X53082064Y77510351D01*
X52925307Y77530988D01*
X52925305Y77530988D01*
X52768547Y77510351D01*
X52768539Y77510349D01*
X52622467Y77449844D01*
X52622466Y77449844D01*
X52497029Y77353593D01*
X52497019Y77353583D01*
X52396820Y77222999D01*
X52395106Y77224315D01*
X52356811Y77189847D01*
X52295959Y77183465D01*
X52242977Y77214069D01*
X52218103Y77269970D01*
X52218410Y77293220D01*
X52221368Y77315687D01*
X52200730Y77472445D01*
X52200730Y77472448D01*
X52185031Y77510349D01*
X52140223Y77618525D01*
X52140223Y77618526D01*
X52043972Y77743963D01*
X52043971Y77743964D01*
X52043968Y77743968D01*
X52043963Y77743972D01*
X52043962Y77743973D01*
X51918524Y77840224D01*
X51772452Y77900729D01*
X51772444Y77900731D01*
X51615687Y77921368D01*
X51615685Y77921368D01*
X51458927Y77900731D01*
X51458919Y77900729D01*
X51312847Y77840224D01*
X51312846Y77840224D01*
X51187409Y77743973D01*
X51187399Y77743963D01*
X51091148Y77618526D01*
X51091148Y77618525D01*
X51030643Y77472453D01*
X51030641Y77472445D01*
X51010004Y77315687D01*
X550500Y77315687D01*
X550500Y77347227D01*
X550656Y77352778D01*
X550701Y77353583D01*
X567791Y77657901D01*
X569034Y77668927D01*
X598138Y77840222D01*
X619760Y77967481D01*
X622221Y77978267D01*
X706063Y78269286D01*
X709723Y78279746D01*
X825614Y78559531D01*
X830428Y78569526D01*
X976909Y78834564D01*
X982806Y78843949D01*
X1158053Y79090937D01*
X1164967Y79099606D01*
X1366757Y79325408D01*
X1374592Y79333243D01*
X1600394Y79535033D01*
X1609063Y79541947D01*
X1856051Y79717194D01*
X1865436Y79723091D01*
X2130480Y79869576D01*
X2140469Y79874386D01*
X2420254Y79990277D01*
X2430714Y79993937D01*
X2721733Y80077779D01*
X2732519Y80080240D01*
X3031080Y80130967D01*
X3042099Y80132209D01*
X3347222Y80149345D01*
X3352773Y80149500D01*
X3389882Y80149500D01*
X77310118Y80149500D01*
X77347227Y80149500D01*
X77352777Y80149345D01*
G37*
G04 #@! TD.AperFunction*
G04 #@! TA.AperFunction,Conductor*
G36*
X21033546Y48111693D02*
G01*
X21082088Y48074446D01*
X21099500Y48018371D01*
X21099500Y44077611D01*
X21080593Y44019420D01*
X21070504Y44007607D01*
X17892393Y40829496D01*
X17837876Y40801719D01*
X17822389Y40800500D01*
X9990691Y40800500D01*
X9945508Y40788394D01*
X9900325Y40776287D01*
X9900324Y40776288D01*
X9876115Y40769800D01*
X9773386Y40710490D01*
X7789508Y38726611D01*
X7789507Y38726610D01*
X7730200Y38623888D01*
X7730200Y38623887D01*
X7730201Y38623886D01*
X7709643Y38547161D01*
X7699500Y38509308D01*
X7699500Y26490689D01*
X7710321Y26450306D01*
X7710321Y26450304D01*
X7710322Y26450304D01*
X7730202Y26376109D01*
X7789507Y26273391D01*
X7789508Y26273390D01*
X7789509Y26273389D01*
X7789511Y26273386D01*
X9646229Y24416668D01*
X11472665Y22590232D01*
X11500442Y22535715D01*
X11497399Y22491492D01*
X11488250Y22461331D01*
X11488249Y22461328D01*
X11469899Y22275007D01*
X11469899Y22274998D01*
X11488249Y22088677D01*
X11488250Y22088674D01*
X11488251Y22088671D01*
X11541565Y21912918D01*
X11542603Y21909498D01*
X11542604Y21909496D01*
X11630857Y21744385D01*
X11630860Y21744380D01*
X11630862Y21744377D01*
X11749641Y21599645D01*
X11752527Y21596129D01*
X11774827Y21539152D01*
X11774999Y21533324D01*
X11774999Y18066679D01*
X11756092Y18008488D01*
X11752527Y18003874D01*
X11630861Y17855623D01*
X11630857Y17855617D01*
X11542604Y17690506D01*
X11542603Y17690504D01*
X11488250Y17511328D01*
X11488249Y17511325D01*
X11469899Y17325004D01*
X11469899Y17324995D01*
X11488249Y17138674D01*
X11488250Y17138671D01*
X11503862Y17087205D01*
X11533502Y16989495D01*
X11542603Y16959495D01*
X11542604Y16959493D01*
X11630857Y16794382D01*
X11630860Y16794377D01*
X11630862Y16794374D01*
X11671894Y16744377D01*
X11752527Y16646126D01*
X11774827Y16589149D01*
X11774999Y16583321D01*
X11774999Y6016681D01*
X11756092Y5958490D01*
X11752527Y5953876D01*
X11666628Y5849208D01*
X11615097Y5816221D01*
X11554017Y5819823D01*
X11520096Y5842009D01*
X10329496Y7032609D01*
X10301719Y7087126D01*
X10300500Y7102613D01*
X10300500Y13409308D01*
X10269799Y13523886D01*
X10269799Y13523888D01*
X10210492Y13626610D01*
X10210491Y13626611D01*
X10210490Y13626612D01*
X10210489Y13626614D01*
X8929496Y14907607D01*
X8901719Y14962124D01*
X8900500Y14977611D01*
X8900500Y17817068D01*
X8919407Y17875259D01*
X8920936Y17877307D01*
X8974536Y17947159D01*
X9035044Y18093238D01*
X9055682Y18250000D01*
X9035044Y18406762D01*
X8974537Y18552839D01*
X8974537Y18552840D01*
X8878286Y18678277D01*
X8878285Y18678278D01*
X8878282Y18678282D01*
X8878277Y18678286D01*
X8878276Y18678287D01*
X8752838Y18774538D01*
X8606766Y18835043D01*
X8606758Y18835045D01*
X8450001Y18855682D01*
X8449999Y18855682D01*
X8293241Y18835045D01*
X8293233Y18835043D01*
X8147161Y18774538D01*
X8147160Y18774538D01*
X8021723Y18678287D01*
X8021713Y18678277D01*
X7925462Y18552840D01*
X7925462Y18552839D01*
X7864957Y18406767D01*
X7864955Y18406759D01*
X7844318Y18250001D01*
X7844318Y18250000D01*
X7864955Y18093242D01*
X7864957Y18093234D01*
X7925462Y17947162D01*
X7925463Y17947160D01*
X7925464Y17947159D01*
X7979042Y17877335D01*
X7999466Y17819660D01*
X7999500Y17817068D01*
X7999500Y14690691D01*
X8002676Y14678838D01*
X8023663Y14600512D01*
X8030202Y14576110D01*
X8089507Y14473391D01*
X8089509Y14473389D01*
X8089511Y14473386D01*
X9370505Y13192392D01*
X9398281Y13137877D01*
X9399500Y13122390D01*
X9399500Y6815693D01*
X9411869Y6769531D01*
X9430202Y6701110D01*
X9489507Y6598392D01*
X9489508Y6598391D01*
X9489509Y6598390D01*
X9489511Y6598387D01*
X11173386Y4914511D01*
X11276113Y4855202D01*
X11300320Y4848717D01*
X11300325Y4848714D01*
X11300326Y4848715D01*
X11390688Y4824502D01*
X11390690Y4824501D01*
X11390691Y4824501D01*
X11528696Y4824501D01*
X11586887Y4805594D01*
X11616006Y4772169D01*
X11630857Y4744384D01*
X11630860Y4744379D01*
X11630862Y4744376D01*
X11737284Y4614701D01*
X11752527Y4596128D01*
X11774827Y4539151D01*
X11774999Y4533323D01*
X11774999Y4174999D01*
X11775000Y4174999D01*
X28575001Y4174999D01*
X28575002Y4174999D01*
X28575002Y7154535D01*
X28593909Y7212726D01*
X28620479Y7237819D01*
X28706122Y7292858D01*
X28711474Y7297495D01*
X28712962Y7295778D01*
X28756335Y7321929D01*
X28778753Y7324501D01*
X29300500Y7324501D01*
X29358691Y7305594D01*
X29394655Y7256094D01*
X29399500Y7225501D01*
X29399500Y4336190D01*
X29380593Y4277999D01*
X29370504Y4266186D01*
X28833814Y3729496D01*
X28779297Y3701719D01*
X28763810Y3700500D01*
X25098856Y3700500D01*
X25009712Y3676614D01*
X24929785Y3630468D01*
X24478354Y3179039D01*
X24423838Y3151262D01*
X24379614Y3154306D01*
X24349656Y3163394D01*
X24233683Y3198574D01*
X24233678Y3198575D01*
X24045003Y3217157D01*
X24044997Y3217157D01*
X23856321Y3198575D01*
X23856316Y3198574D01*
X23674884Y3143537D01*
X23674879Y3143535D01*
X23507681Y3054165D01*
X23507671Y3054159D01*
X23361121Y2933887D01*
X23361113Y2933879D01*
X23240841Y2787329D01*
X23240835Y2787319D01*
X23151465Y2620121D01*
X23151463Y2620116D01*
X23096426Y2438684D01*
X23096425Y2438679D01*
X23077843Y2250004D01*
X23077843Y2249997D01*
X23096425Y2061322D01*
X23096426Y2061317D01*
X23151463Y1879885D01*
X23151465Y1879880D01*
X23168950Y1847169D01*
X23240838Y1712676D01*
X23361117Y1566117D01*
X23361121Y1566114D01*
X23470890Y1476028D01*
X23503877Y1424496D01*
X23500275Y1363417D01*
X23461459Y1316120D01*
X23408085Y1300500D01*
X6995503Y1300500D01*
X6937312Y1319407D01*
X6925499Y1329496D01*
X4357063Y3897933D01*
X4329286Y3952450D01*
X4328914Y3980855D01*
X4335339Y4029657D01*
X4314701Y4186419D01*
X4280968Y4267857D01*
X4254194Y4332496D01*
X4254194Y4332497D01*
X4157943Y4457934D01*
X4157942Y4457935D01*
X4157939Y4457939D01*
X4157934Y4457943D01*
X4157933Y4457944D01*
X4072665Y4523372D01*
X4032498Y4554193D01*
X4032497Y4554194D01*
X4032495Y4554195D01*
X3886423Y4614700D01*
X3886415Y4614702D01*
X3729658Y4635339D01*
X3729653Y4635339D01*
X3680854Y4628916D01*
X3620694Y4640068D01*
X3597931Y4657065D01*
X1829496Y6425500D01*
X1801719Y6480017D01*
X1800500Y6495504D01*
X1800500Y11250005D01*
X2344457Y11250005D01*
X2344457Y11249996D01*
X2364611Y10891103D01*
X2364614Y10891083D01*
X2424824Y10536713D01*
X2424828Y10536693D01*
X2524340Y10191277D01*
X2661907Y9859163D01*
X2835787Y9544551D01*
X3000854Y9311911D01*
X3043806Y9251377D01*
X3283339Y8983339D01*
X3551377Y8743806D01*
X3551380Y8743804D01*
X3551381Y8743803D01*
X3582507Y8721718D01*
X3844548Y8535789D01*
X3844550Y8535788D01*
X4159163Y8361908D01*
X4159162Y8361908D01*
X4491276Y8224341D01*
X4836692Y8124829D01*
X4836695Y8124829D01*
X4836700Y8124827D01*
X5191093Y8064613D01*
X5191096Y8064613D01*
X5191102Y8064612D01*
X5549995Y8044457D01*
X5550000Y8044457D01*
X5550005Y8044457D01*
X5908897Y8064612D01*
X5908901Y8064613D01*
X5908907Y8064613D01*
X6263300Y8124827D01*
X6608724Y8224341D01*
X6940833Y8361906D01*
X7255452Y8535789D01*
X7548623Y8743806D01*
X7816661Y8983339D01*
X8056194Y9251377D01*
X8264211Y9544548D01*
X8395917Y9782855D01*
X8438092Y9859163D01*
X8438094Y9859167D01*
X8575659Y10191276D01*
X8675173Y10536700D01*
X8735387Y10891093D01*
X8737292Y10924998D01*
X8755543Y11249996D01*
X8755543Y11250005D01*
X8735388Y11608898D01*
X8735385Y11608918D01*
X8716219Y11721718D01*
X8675173Y11963300D01*
X8666549Y11993234D01*
X8575659Y12308724D01*
X8438092Y12640838D01*
X8264212Y12955450D01*
X8209795Y13032143D01*
X8056194Y13248623D01*
X7816661Y13516661D01*
X7548623Y13756194D01*
X7548620Y13756196D01*
X7548618Y13756198D01*
X7255449Y13964213D01*
X6940836Y14138093D01*
X6940837Y14138093D01*
X6608723Y14275660D01*
X6263307Y14375172D01*
X6263287Y14375176D01*
X5908917Y14435386D01*
X5908897Y14435389D01*
X5550005Y14455543D01*
X5549995Y14455543D01*
X5191102Y14435389D01*
X5191082Y14435386D01*
X4836712Y14375176D01*
X4836692Y14375172D01*
X4491276Y14275660D01*
X4159162Y14138093D01*
X3844550Y13964213D01*
X3551381Y13756198D01*
X3283346Y13516668D01*
X3283332Y13516654D01*
X3043802Y13248619D01*
X2835787Y12955450D01*
X2661907Y12640838D01*
X2524340Y12308724D01*
X2424828Y11963308D01*
X2424824Y11963288D01*
X2364614Y11608918D01*
X2364611Y11608898D01*
X2344457Y11250005D01*
X1800500Y11250005D01*
X1800500Y42463811D01*
X1819407Y42522002D01*
X1829490Y42533809D01*
X2418276Y43122596D01*
X2472791Y43150371D01*
X2501197Y43150743D01*
X2550000Y43144318D01*
X2706762Y43164956D01*
X2852841Y43225464D01*
X2978282Y43321718D01*
X3008245Y43360768D01*
X3058669Y43395423D01*
X3086787Y43399500D01*
X18196142Y43399500D01*
X18196144Y43399500D01*
X18285288Y43423386D01*
X18365212Y43469531D01*
X18430469Y43534788D01*
X18476614Y43614712D01*
X18500500Y43703856D01*
X18500500Y44213213D01*
X18519407Y44271404D01*
X18539233Y44291755D01*
X18578282Y44321718D01*
X18674536Y44447159D01*
X18735044Y44593238D01*
X18755682Y44750000D01*
X18735044Y44906762D01*
X18674537Y45052839D01*
X18674537Y45052840D01*
X18578286Y45178277D01*
X18578285Y45178278D01*
X18578282Y45178282D01*
X18578277Y45178286D01*
X18578276Y45178287D01*
X18457243Y45271158D01*
X18452841Y45274536D01*
X18452840Y45274537D01*
X18452838Y45274538D01*
X18306766Y45335043D01*
X18306758Y45335045D01*
X18150001Y45355682D01*
X18149996Y45355682D01*
X18101197Y45349259D01*
X18041037Y45360411D01*
X18018274Y45377408D01*
X17629496Y45766186D01*
X17601719Y45820703D01*
X17600500Y45836190D01*
X17600500Y46196627D01*
X17619407Y46254818D01*
X17668907Y46290782D01*
X17730093Y46290782D01*
X17737379Y46288094D01*
X17793238Y46264956D01*
X17910809Y46249478D01*
X17949999Y46244318D01*
X17950000Y46244318D01*
X17950001Y46244318D01*
X17981352Y46248446D01*
X18106762Y46264956D01*
X18252841Y46325464D01*
X18339735Y46392141D01*
X18397408Y46412563D01*
X18456074Y46395186D01*
X18460234Y46392164D01*
X18547159Y46325464D01*
X18547162Y46325463D01*
X18547163Y46325462D01*
X18637385Y46288091D01*
X18693238Y46264956D01*
X18810809Y46249478D01*
X18849999Y46244318D01*
X18850000Y46244318D01*
X18850001Y46244318D01*
X18881352Y46248446D01*
X19006762Y46264956D01*
X19152841Y46325464D01*
X19278282Y46421718D01*
X19374536Y46547159D01*
X19435044Y46693238D01*
X19455682Y46850000D01*
X19443061Y46945866D01*
X19454211Y47006024D01*
X19498593Y47048142D01*
X19554134Y47056939D01*
X19650000Y47044318D01*
X19650001Y47044318D01*
X19681352Y47048446D01*
X19806762Y47064956D01*
X19952841Y47125464D01*
X20078282Y47221718D01*
X20174536Y47347159D01*
X20235044Y47493238D01*
X20255682Y47650000D01*
X20243061Y47745866D01*
X20254211Y47806024D01*
X20298593Y47848142D01*
X20354134Y47856939D01*
X20450000Y47844318D01*
X20450001Y47844318D01*
X20481352Y47848446D01*
X20606762Y47864956D01*
X20752841Y47925464D01*
X20878282Y48021718D01*
X20921958Y48078639D01*
X20972382Y48113294D01*
X21033546Y48111693D01*
G37*
G04 #@! TD.AperFunction*
G04 #@! TA.AperFunction,Conductor*
G36*
X30295445Y17153025D02*
G01*
X30338710Y17109760D01*
X30349500Y17064815D01*
X30349500Y12854682D01*
X30330593Y12796491D01*
X30281093Y12760527D01*
X30256421Y12756620D01*
X30256433Y12756529D01*
X30252966Y12756073D01*
X30250500Y12755682D01*
X30249999Y12755682D01*
X30093241Y12735045D01*
X30093233Y12735043D01*
X29947161Y12674538D01*
X29947160Y12674538D01*
X29821723Y12578287D01*
X29821713Y12578277D01*
X29725462Y12452840D01*
X29725462Y12452839D01*
X29664957Y12306767D01*
X29664955Y12306759D01*
X29644318Y12150001D01*
X29644318Y12150000D01*
X29664955Y11993242D01*
X29664957Y11993234D01*
X29725462Y11847162D01*
X29725462Y11847161D01*
X29753332Y11810840D01*
X29821718Y11721718D01*
X29947159Y11625464D01*
X29947160Y11625464D01*
X29947161Y11625463D01*
X30068985Y11575002D01*
X30093238Y11564956D01*
X30210809Y11549478D01*
X30249999Y11544318D01*
X30250000Y11544318D01*
X30250001Y11544318D01*
X30281352Y11548446D01*
X30406762Y11564956D01*
X30552841Y11625464D01*
X30640233Y11692522D01*
X30697909Y11712946D01*
X30756574Y11695568D01*
X30793822Y11647027D01*
X30799500Y11613980D01*
X30799500Y11436190D01*
X30780593Y11377999D01*
X30770504Y11366186D01*
X28744006Y9339688D01*
X28689489Y9311911D01*
X28629057Y9321482D01*
X28585792Y9364747D01*
X28575002Y9409692D01*
X28575002Y10333331D01*
X28593909Y10391522D01*
X28597474Y10396136D01*
X28600349Y10399641D01*
X28600352Y10399642D01*
X28719131Y10544374D01*
X28807391Y10709498D01*
X28861742Y10888668D01*
X28865161Y10923373D01*
X28880094Y11074995D01*
X28880094Y11075004D01*
X28861743Y11261325D01*
X28861742Y11261328D01*
X28861742Y11261330D01*
X28807391Y11440500D01*
X28781580Y11488789D01*
X28719135Y11605617D01*
X28719133Y11605619D01*
X28719131Y11605624D01*
X28600352Y11750356D01*
X28597474Y11753863D01*
X28575174Y11810840D01*
X28575002Y11816668D01*
X28575002Y14633331D01*
X28593909Y14691522D01*
X28597474Y14696136D01*
X28600349Y14699641D01*
X28600352Y14699642D01*
X28719131Y14844374D01*
X28807391Y15009498D01*
X28861742Y15188668D01*
X28873452Y15307553D01*
X28880094Y15374995D01*
X28880094Y15375004D01*
X28861743Y15561325D01*
X28861742Y15561331D01*
X28819679Y15699994D01*
X28820880Y15761167D01*
X28844410Y15798734D01*
X30180497Y17134820D01*
X30235013Y17162596D01*
X30295445Y17153025D01*
G37*
G04 #@! TD.AperFunction*
G04 #@! TA.AperFunction,Conductor*
G36*
X33204432Y14980593D02*
G01*
X33213403Y14972360D01*
X33213520Y14972494D01*
X33218871Y14967857D01*
X33304513Y14912819D01*
X33343244Y14865453D01*
X33349990Y14829535D01*
X33349990Y13170466D01*
X33331083Y13112275D01*
X33304514Y13087182D01*
X33218872Y13032143D01*
X33124622Y12923372D01*
X33064834Y12792456D01*
X33047368Y12670979D01*
X33020372Y12616071D01*
X33019380Y12615064D01*
X31669504Y11265186D01*
X31614987Y11237409D01*
X31554555Y11246980D01*
X31511290Y11290245D01*
X31500500Y11335190D01*
X31500500Y14663810D01*
X31519407Y14722001D01*
X31529496Y14733814D01*
X31766186Y14970504D01*
X31820703Y14998281D01*
X31836190Y14999500D01*
X33146241Y14999500D01*
X33204432Y14980593D01*
G37*
G04 #@! TD.AperFunction*
G04 #@! TA.AperFunction,Conductor*
G36*
X33204432Y28080603D02*
G01*
X33213403Y28072370D01*
X33213520Y28072504D01*
X33218871Y28067867D01*
X33304513Y28012829D01*
X33343244Y27965463D01*
X33349990Y27929545D01*
X33349990Y26570466D01*
X33331083Y26512275D01*
X33304514Y26487182D01*
X33218872Y26432143D01*
X33124622Y26323372D01*
X33064834Y26192457D01*
X33044353Y26050003D01*
X33044353Y26049998D01*
X33064834Y25907544D01*
X33124623Y25776627D01*
X33178169Y25714830D01*
X33201986Y25658471D01*
X33188127Y25598876D01*
X33178169Y25585170D01*
X33124623Y25523374D01*
X33064834Y25392457D01*
X33044353Y25250003D01*
X33044353Y25249998D01*
X33064834Y25107544D01*
X33124623Y24976627D01*
X33178159Y24914843D01*
X33201977Y24858484D01*
X33188119Y24798889D01*
X33178160Y24785182D01*
X33124613Y24723384D01*
X33064824Y24592467D01*
X33044343Y24450013D01*
X33044343Y24450008D01*
X33064824Y24307554D01*
X33124613Y24176637D01*
X33178163Y24114835D01*
X33201980Y24058476D01*
X33188121Y23998881D01*
X33178163Y23985175D01*
X33124613Y23923374D01*
X33064824Y23792457D01*
X33044343Y23650003D01*
X33044343Y23649998D01*
X33064824Y23507544D01*
X33124613Y23376627D01*
X33178159Y23314830D01*
X33201976Y23258471D01*
X33188117Y23198876D01*
X33178159Y23185170D01*
X33124613Y23123374D01*
X33064824Y22992457D01*
X33044343Y22850003D01*
X33044343Y22849998D01*
X33064824Y22707544D01*
X33124613Y22576627D01*
X33178159Y22514830D01*
X33201976Y22458471D01*
X33188117Y22398876D01*
X33178159Y22385170D01*
X33124613Y22323374D01*
X33064824Y22192457D01*
X33044343Y22050003D01*
X33044343Y22049998D01*
X33064824Y21907544D01*
X33124613Y21776627D01*
X33178159Y21714830D01*
X33201976Y21658471D01*
X33188117Y21598876D01*
X33178159Y21585170D01*
X33124613Y21523374D01*
X33064824Y21392457D01*
X33044343Y21250003D01*
X33044343Y21249998D01*
X33064824Y21107544D01*
X33108085Y21012818D01*
X33124613Y20976627D01*
X33178164Y20914825D01*
X33201981Y20858466D01*
X33188122Y20798871D01*
X33178164Y20785165D01*
X33124623Y20723374D01*
X33064834Y20592457D01*
X33044353Y20450003D01*
X33044353Y20449998D01*
X33064834Y20307544D01*
X33124623Y20176627D01*
X33178169Y20114830D01*
X33201986Y20058471D01*
X33188127Y19998876D01*
X33178169Y19985170D01*
X33124623Y19923374D01*
X33064834Y19792457D01*
X33044353Y19650003D01*
X33044353Y19649998D01*
X33064834Y19507544D01*
X33074123Y19487205D01*
X33124623Y19376627D01*
X33170759Y19323383D01*
X33218873Y19267856D01*
X33304513Y19212819D01*
X33343244Y19165453D01*
X33349990Y19129535D01*
X33349990Y15870466D01*
X33331083Y15812275D01*
X33304514Y15787182D01*
X33218869Y15732141D01*
X33213520Y15727506D01*
X33212031Y15729224D01*
X33168659Y15703072D01*
X33146241Y15700500D01*
X31696144Y15700500D01*
X31603856Y15700500D01*
X31514712Y15676614D01*
X31434785Y15630468D01*
X31219503Y15415186D01*
X31164987Y15387409D01*
X31104555Y15396980D01*
X31061290Y15440245D01*
X31050500Y15485190D01*
X31050500Y17327419D01*
X31069407Y17385610D01*
X31079490Y17397417D01*
X31730470Y18048396D01*
X31776614Y18128320D01*
X31800500Y18217464D01*
X31800500Y27663811D01*
X31819407Y27722002D01*
X31829496Y27733815D01*
X32166195Y28070514D01*
X32220712Y28098291D01*
X32236199Y28099510D01*
X33146241Y28099510D01*
X33204432Y28080603D01*
G37*
G04 #@! TD.AperFunction*
G04 #@! TA.AperFunction,Conductor*
G36*
X30595445Y37903021D02*
G01*
X30638710Y37859756D01*
X30649500Y37814811D01*
X30649500Y18636194D01*
X30630593Y18578003D01*
X30620504Y18566190D01*
X29018749Y16964436D01*
X28964232Y16936659D01*
X28903800Y16946230D01*
X28860535Y16989495D01*
X28850964Y17049927D01*
X28854007Y17063173D01*
X28861742Y17088671D01*
X28864131Y17112918D01*
X28880094Y17274998D01*
X28880094Y17275007D01*
X28861743Y17461328D01*
X28861742Y17461331D01*
X28861742Y17461333D01*
X28807391Y17640503D01*
X28780664Y17690506D01*
X28719135Y17805620D01*
X28719133Y17805622D01*
X28719131Y17805627D01*
X28600352Y17950359D01*
X28597474Y17953866D01*
X28575174Y18010843D01*
X28575002Y18016671D01*
X28575002Y22933331D01*
X28593909Y22991522D01*
X28597474Y22996136D01*
X28600349Y22999641D01*
X28600352Y22999642D01*
X28719131Y23144374D01*
X28807391Y23309498D01*
X28861742Y23488668D01*
X28863602Y23507544D01*
X28880094Y23674995D01*
X28880094Y23675004D01*
X28861743Y23861325D01*
X28861742Y23861328D01*
X28861742Y23861330D01*
X28807391Y24040500D01*
X28792763Y24067867D01*
X28719135Y24205617D01*
X28719133Y24205619D01*
X28719131Y24205624D01*
X28600352Y24350356D01*
X28597474Y24353863D01*
X28575174Y24410840D01*
X28575002Y24416668D01*
X28575002Y24764998D01*
X28575002Y24764999D01*
X28575001Y24764999D01*
X13176197Y24764999D01*
X13118006Y24783906D01*
X13103991Y24797118D01*
X13103793Y24796919D01*
X13100359Y24800353D01*
X13100355Y24800358D01*
X12955623Y24919137D01*
X12955620Y24919139D01*
X12955615Y24919142D01*
X12790504Y25007395D01*
X12790502Y25007396D01*
X12611326Y25061749D01*
X12611324Y25061750D01*
X12436183Y25078999D01*
X12380126Y25103519D01*
X12349187Y25156305D01*
X12355184Y25217196D01*
X12367339Y25237781D01*
X12374536Y25247159D01*
X12435044Y25393238D01*
X12446531Y25480499D01*
X12472871Y25535722D01*
X12474641Y25537540D01*
X12907607Y25970504D01*
X12962123Y25998281D01*
X12977610Y25999500D01*
X24077939Y25999500D01*
X24077939Y25999501D01*
X24160075Y26021509D01*
X24221176Y26018308D01*
X24268727Y25979803D01*
X24277163Y25963768D01*
X24325462Y25847162D01*
X24325462Y25847161D01*
X24415721Y25729533D01*
X24421718Y25721718D01*
X24421722Y25721715D01*
X24421723Y25721714D01*
X24441203Y25706767D01*
X24547159Y25625464D01*
X24693238Y25564956D01*
X24806833Y25550001D01*
X24849999Y25544318D01*
X24850000Y25544318D01*
X24850001Y25544318D01*
X24893167Y25550001D01*
X25006762Y25564956D01*
X25152841Y25625464D01*
X25278282Y25721718D01*
X25308245Y25760768D01*
X25358669Y25795423D01*
X25386787Y25799500D01*
X26796142Y25799500D01*
X26796144Y25799500D01*
X26885288Y25823386D01*
X26890873Y25826611D01*
X26890878Y25826612D01*
X26890878Y25826613D01*
X26926464Y25847159D01*
X26965212Y25869530D01*
X30230469Y29134788D01*
X30276614Y29214712D01*
X30286203Y29250500D01*
X30300500Y29303856D01*
X30300500Y37663811D01*
X30319407Y37722002D01*
X30329490Y37733809D01*
X30480497Y37884816D01*
X30535013Y37912592D01*
X30595445Y37903021D01*
G37*
G04 #@! TD.AperFunction*
G04 #@! TA.AperFunction,Conductor*
G36*
X28645445Y44942971D02*
G01*
X28688710Y44899706D01*
X28699500Y44854761D01*
X28699500Y32947071D01*
X28680593Y32888880D01*
X28673276Y32880313D01*
X28575462Y32752840D01*
X28575462Y32752839D01*
X28514957Y32606767D01*
X28514955Y32606759D01*
X28494318Y32450001D01*
X28494318Y32450000D01*
X28514955Y32293242D01*
X28514957Y32293234D01*
X28575462Y32147162D01*
X28575462Y32147161D01*
X28675668Y32016569D01*
X28674283Y32015507D01*
X28698279Y31968431D01*
X28699500Y31952929D01*
X28699500Y29977611D01*
X28680593Y29919420D01*
X28670504Y29907607D01*
X26192393Y27429496D01*
X26137876Y27401719D01*
X26122389Y27400500D01*
X24459320Y27400500D01*
X24414137Y27388394D01*
X24368954Y27376287D01*
X24368953Y27376288D01*
X24344744Y27369800D01*
X24242012Y27310488D01*
X23861023Y26929497D01*
X23806506Y26901719D01*
X23791019Y26900500D01*
X12690691Y26900500D01*
X12645508Y26888394D01*
X12600325Y26876287D01*
X12600324Y26876288D01*
X12576112Y26869799D01*
X12576109Y26869798D01*
X12473390Y26810493D01*
X12473385Y26810489D01*
X11837576Y26174682D01*
X11783060Y26146905D01*
X11780496Y26146533D01*
X11693237Y26135044D01*
X11547161Y26074538D01*
X11547160Y26074538D01*
X11421723Y25978287D01*
X11421719Y25978284D01*
X11421718Y25978282D01*
X11421715Y25978278D01*
X11325462Y25852840D01*
X11325462Y25852839D01*
X11264957Y25706767D01*
X11264955Y25706759D01*
X11244318Y25550001D01*
X11245248Y25542935D01*
X11234095Y25482775D01*
X11189711Y25440659D01*
X11129049Y25432675D01*
X11077090Y25460013D01*
X9429496Y27107607D01*
X9401719Y27162124D01*
X9400500Y27177611D01*
X9400500Y37922389D01*
X9419407Y37980580D01*
X9429496Y37992393D01*
X10557608Y39120504D01*
X10612125Y39148281D01*
X10627612Y39149500D01*
X11477310Y39149500D01*
X11535501Y39130593D01*
X11571465Y39081093D01*
X11571465Y39019907D01*
X11547314Y38980496D01*
X10569528Y38002710D01*
X10530603Y37935289D01*
X10530603Y37935288D01*
X10523387Y37922791D01*
X10523386Y37922789D01*
X10523386Y37922788D01*
X10502850Y37846144D01*
X10499500Y37833643D01*
X10499500Y29866357D01*
X10513337Y29814713D01*
X10523384Y29777216D01*
X10523385Y29777214D01*
X10523386Y29777212D01*
X10569530Y29697288D01*
X11052107Y29214712D01*
X11481880Y28784939D01*
X11509657Y28730422D01*
X11509868Y28729024D01*
X11527334Y28607544D01*
X11572999Y28507554D01*
X11587123Y28476627D01*
X11673764Y28376637D01*
X11681373Y28367856D01*
X11681375Y28367855D01*
X11802447Y28290047D01*
X11908903Y28258789D01*
X11940535Y28249501D01*
X11940536Y28249501D01*
X11940539Y28249500D01*
X11940541Y28249500D01*
X12084459Y28249500D01*
X12084461Y28249500D01*
X12222553Y28290047D01*
X12343628Y28367857D01*
X12385198Y28415832D01*
X12437592Y28447427D01*
X12460016Y28450000D01*
X26712499Y28450000D01*
X26712500Y28450000D01*
X26712500Y34737728D01*
X26731407Y34795919D01*
X26757978Y34821013D01*
X26768628Y34827857D01*
X26862877Y34936627D01*
X26922665Y35067543D01*
X26939578Y35185175D01*
X26943147Y35209998D01*
X26943147Y35210003D01*
X26922665Y35352457D01*
X26862877Y35483372D01*
X26862877Y35483373D01*
X26768628Y35592143D01*
X26768627Y35592144D01*
X26768625Y35592146D01*
X26757973Y35598992D01*
X26719244Y35646360D01*
X26712500Y35682274D01*
X26712500Y35737728D01*
X26731407Y35795919D01*
X26757978Y35821013D01*
X26768628Y35827857D01*
X26862877Y35936627D01*
X26922665Y36067543D01*
X26943147Y36210000D01*
X26922665Y36352457D01*
X26862877Y36483373D01*
X26768628Y36592143D01*
X26768627Y36592144D01*
X26768625Y36592146D01*
X26757973Y36598992D01*
X26719244Y36646360D01*
X26712500Y36682274D01*
X26712500Y37849999D01*
X26712500Y37850000D01*
X11812500Y37850000D01*
X11812500Y37849999D01*
X11812500Y32870472D01*
X11793593Y32812281D01*
X11767024Y32787188D01*
X11681372Y32732143D01*
X11587122Y32623372D01*
X11527334Y32492457D01*
X11506853Y32350003D01*
X11506853Y32349998D01*
X11527334Y32207544D01*
X11569674Y32114835D01*
X11587123Y32076627D01*
X11653173Y32000401D01*
X11681373Y31967856D01*
X11704600Y31952929D01*
X11767023Y31912813D01*
X11805754Y31865448D01*
X11812500Y31829529D01*
X11812500Y31670472D01*
X11793593Y31612281D01*
X11767024Y31587188D01*
X11681372Y31532143D01*
X11587122Y31423372D01*
X11527334Y31292457D01*
X11506853Y31150003D01*
X11506853Y31149998D01*
X11527334Y31007544D01*
X11534220Y30992467D01*
X11587123Y30876627D01*
X11681372Y30767857D01*
X11681373Y30767856D01*
X11720267Y30742861D01*
X11767023Y30712813D01*
X11805754Y30665448D01*
X11812500Y30629529D01*
X11812500Y30470472D01*
X11793593Y30412281D01*
X11767024Y30387188D01*
X11681372Y30332143D01*
X11587122Y30223372D01*
X11527334Y30092457D01*
X11510025Y29972068D01*
X11483029Y29917160D01*
X11428915Y29888607D01*
X11368352Y29897315D01*
X11342029Y29916153D01*
X11229496Y30028686D01*
X11201719Y30083203D01*
X11200500Y30098690D01*
X11200500Y37601310D01*
X11219407Y37659501D01*
X11229496Y37671314D01*
X12228686Y38670504D01*
X12283203Y38698281D01*
X12298690Y38699500D01*
X22206192Y38699500D01*
X22206194Y38699500D01*
X22295338Y38723386D01*
X22331922Y38744508D01*
X22375262Y38769530D01*
X22755733Y39150001D01*
X24344318Y39150001D01*
X24344318Y39150000D01*
X24364955Y38993242D01*
X24364957Y38993234D01*
X24425462Y38847162D01*
X24425462Y38847161D01*
X24518844Y38725463D01*
X24521718Y38721718D01*
X24647159Y38625464D01*
X24647160Y38625464D01*
X24647161Y38625463D01*
X24707427Y38600500D01*
X24793238Y38564956D01*
X24910809Y38549478D01*
X24949999Y38544318D01*
X24950000Y38544318D01*
X24950001Y38544318D01*
X24981352Y38548446D01*
X25106762Y38564956D01*
X25252841Y38625464D01*
X25378282Y38721718D01*
X25474536Y38847159D01*
X25535044Y38993238D01*
X25555682Y39150000D01*
X25535044Y39306762D01*
X25528851Y39321714D01*
X25474537Y39452839D01*
X25474537Y39452840D01*
X25378286Y39578277D01*
X25378285Y39578278D01*
X25378282Y39578282D01*
X25378277Y39578286D01*
X25378276Y39578287D01*
X25307104Y39632899D01*
X25252841Y39674536D01*
X25252840Y39674537D01*
X25252838Y39674538D01*
X25106766Y39735043D01*
X25106758Y39735045D01*
X24950001Y39755682D01*
X24949999Y39755682D01*
X24793241Y39735045D01*
X24793233Y39735043D01*
X24647161Y39674538D01*
X24647160Y39674538D01*
X24521723Y39578287D01*
X24521713Y39578277D01*
X24425462Y39452840D01*
X24425462Y39452839D01*
X24364957Y39306767D01*
X24364955Y39306759D01*
X24344318Y39150001D01*
X22755733Y39150001D01*
X28530498Y44924767D01*
X28585013Y44952542D01*
X28645445Y44942971D01*
G37*
G04 #@! TD.AperFunction*
G04 #@! TA.AperFunction,Conductor*
G36*
X33822971Y39780593D02*
G01*
X33858935Y39731093D01*
X33858935Y39669907D01*
X33834784Y39630496D01*
X31969530Y37765242D01*
X31923386Y37685318D01*
X31899500Y37596173D01*
X31899500Y31486789D01*
X31880593Y31428598D01*
X31860768Y31408248D01*
X31821721Y31378286D01*
X31821718Y31378284D01*
X31725462Y31252840D01*
X31725462Y31252839D01*
X31664957Y31106767D01*
X31664955Y31106759D01*
X31644318Y30950001D01*
X31644318Y30950000D01*
X31664955Y30793242D01*
X31664957Y30793234D01*
X31725462Y30647162D01*
X31725462Y30647161D01*
X31821713Y30521724D01*
X31821718Y30521718D01*
X31821722Y30521715D01*
X31821723Y30521714D01*
X31851082Y30499187D01*
X31947159Y30425464D01*
X31947160Y30425464D01*
X31947161Y30425463D01*
X32011324Y30398886D01*
X32093238Y30364956D01*
X32210809Y30349478D01*
X32249999Y30344318D01*
X32250000Y30344318D01*
X32250001Y30344318D01*
X32281352Y30348446D01*
X32406762Y30364956D01*
X32552841Y30425464D01*
X32678282Y30521718D01*
X32774536Y30647159D01*
X32835044Y30793238D01*
X32855682Y30950000D01*
X32835044Y31106762D01*
X32774537Y31252839D01*
X32774537Y31252840D01*
X32678281Y31378284D01*
X32678278Y31378286D01*
X32639232Y31408248D01*
X32604577Y31458672D01*
X32600500Y31486789D01*
X32600500Y37363840D01*
X32619407Y37422031D01*
X32629496Y37433844D01*
X34516156Y39320504D01*
X34570673Y39348281D01*
X34586160Y39349500D01*
X50345318Y39349500D01*
X50403509Y39330593D01*
X50439473Y39281093D01*
X50443380Y39256422D01*
X50443471Y39256433D01*
X50443927Y39252967D01*
X50444318Y39250500D01*
X50444318Y39250000D01*
X50464955Y39093242D01*
X50464957Y39093234D01*
X50525462Y38947162D01*
X50525462Y38947161D01*
X50602194Y38847162D01*
X50621718Y38821718D01*
X50747159Y38725464D01*
X50747160Y38725464D01*
X50747161Y38725463D01*
X50824959Y38693238D01*
X50893238Y38664956D01*
X51010809Y38649478D01*
X51049999Y38644318D01*
X51050000Y38644318D01*
X51050001Y38644318D01*
X51081352Y38648446D01*
X51206762Y38664956D01*
X51352841Y38725464D01*
X51478282Y38821718D01*
X51574536Y38947159D01*
X51629904Y39080830D01*
X51669639Y39127354D01*
X51729134Y39141638D01*
X51785662Y39118224D01*
X51791371Y39112947D01*
X52584804Y38319514D01*
X52612581Y38264997D01*
X52603010Y38204565D01*
X52559745Y38161300D01*
X52514800Y38150510D01*
X52478025Y38150510D01*
X52339939Y38109964D01*
X52339932Y38109961D01*
X52218862Y38032154D01*
X52214820Y38028651D01*
X52158461Y38004834D01*
X52098866Y38018693D01*
X52085160Y38028651D01*
X52081117Y38032154D01*
X51960047Y38109961D01*
X51960044Y38109963D01*
X51960043Y38109963D01*
X51960040Y38109964D01*
X51821954Y38150510D01*
X51821951Y38150510D01*
X51678029Y38150510D01*
X51678025Y38150510D01*
X51539939Y38109964D01*
X51539932Y38109961D01*
X51418862Y38032154D01*
X51414820Y38028651D01*
X51358461Y38004834D01*
X51298866Y38018693D01*
X51285160Y38028651D01*
X51281117Y38032154D01*
X51160047Y38109961D01*
X51160044Y38109963D01*
X51160043Y38109963D01*
X51160040Y38109964D01*
X51021954Y38150510D01*
X51021951Y38150510D01*
X50878029Y38150510D01*
X50878025Y38150510D01*
X50739939Y38109964D01*
X50739932Y38109961D01*
X50618862Y38032154D01*
X50614820Y38028651D01*
X50558461Y38004834D01*
X50498866Y38018693D01*
X50485160Y38028651D01*
X50481117Y38032154D01*
X50360047Y38109961D01*
X50360044Y38109963D01*
X50360043Y38109963D01*
X50360040Y38109964D01*
X50221954Y38150510D01*
X50221951Y38150510D01*
X50078029Y38150510D01*
X50078025Y38150510D01*
X49939939Y38109964D01*
X49939932Y38109961D01*
X49818862Y38032154D01*
X49814820Y38028651D01*
X49758461Y38004834D01*
X49698866Y38018693D01*
X49685160Y38028651D01*
X49681117Y38032154D01*
X49560047Y38109961D01*
X49560044Y38109963D01*
X49560043Y38109963D01*
X49560040Y38109964D01*
X49421954Y38150510D01*
X49421951Y38150510D01*
X49278029Y38150510D01*
X49278025Y38150510D01*
X49139939Y38109964D01*
X49139932Y38109961D01*
X49018862Y38032154D01*
X49014820Y38028651D01*
X48958461Y38004834D01*
X48898866Y38018693D01*
X48885160Y38028651D01*
X48881117Y38032154D01*
X48760047Y38109961D01*
X48760044Y38109963D01*
X48760043Y38109963D01*
X48760040Y38109964D01*
X48621954Y38150510D01*
X48621951Y38150510D01*
X48478029Y38150510D01*
X48478025Y38150510D01*
X48339939Y38109964D01*
X48339932Y38109961D01*
X48218862Y38032154D01*
X48214820Y38028651D01*
X48158461Y38004834D01*
X48098866Y38018693D01*
X48085160Y38028651D01*
X48081117Y38032154D01*
X47960047Y38109961D01*
X47960044Y38109963D01*
X47960043Y38109963D01*
X47960040Y38109964D01*
X47821954Y38150510D01*
X47821951Y38150510D01*
X47678029Y38150510D01*
X47678025Y38150510D01*
X47539939Y38109964D01*
X47539932Y38109961D01*
X47418857Y38032151D01*
X47414815Y38028648D01*
X47358454Y38004834D01*
X47298860Y38018696D01*
X47285161Y38028649D01*
X47281127Y38032144D01*
X47160057Y38109951D01*
X47160054Y38109953D01*
X47160053Y38109953D01*
X47160016Y38109964D01*
X47021964Y38150500D01*
X47021961Y38150500D01*
X46878039Y38150500D01*
X46878035Y38150500D01*
X46739949Y38109954D01*
X46739942Y38109951D01*
X46618871Y38032144D01*
X46614826Y38028638D01*
X46558465Y38004825D01*
X46498870Y38018687D01*
X46485168Y38028643D01*
X46481122Y38032148D01*
X46481118Y38032153D01*
X46429677Y38065212D01*
X46360047Y38109961D01*
X46360044Y38109963D01*
X46360043Y38109963D01*
X46360040Y38109964D01*
X46221954Y38150510D01*
X46221951Y38150510D01*
X46078029Y38150510D01*
X46078025Y38150510D01*
X45939939Y38109964D01*
X45939932Y38109961D01*
X45818863Y38032155D01*
X45724612Y37923382D01*
X45717531Y37907875D01*
X45676159Y37862797D01*
X45627477Y37850000D01*
X45272503Y37850000D01*
X45214312Y37868907D01*
X45182449Y37907875D01*
X45175821Y37922389D01*
X45175367Y37923383D01*
X45081118Y38032153D01*
X45081117Y38032154D01*
X45081116Y38032155D01*
X44960047Y38109961D01*
X44960044Y38109963D01*
X44960043Y38109963D01*
X44960040Y38109964D01*
X44821954Y38150510D01*
X44821951Y38150510D01*
X44678029Y38150510D01*
X44678025Y38150510D01*
X44539939Y38109964D01*
X44539932Y38109961D01*
X44418866Y38032156D01*
X44418864Y38032155D01*
X44418862Y38032153D01*
X44418860Y38032152D01*
X44414827Y38028656D01*
X44358468Y38004838D01*
X44298872Y38018696D01*
X44285163Y38028656D01*
X44281132Y38032148D01*
X44281128Y38032153D01*
X44229687Y38065212D01*
X44160057Y38109961D01*
X44160054Y38109963D01*
X44160053Y38109963D01*
X44160050Y38109964D01*
X44021964Y38150510D01*
X44021961Y38150510D01*
X43878039Y38150510D01*
X43878035Y38150510D01*
X43739949Y38109964D01*
X43739942Y38109961D01*
X43618872Y38032154D01*
X43614830Y38028651D01*
X43558471Y38004834D01*
X43498876Y38018693D01*
X43485170Y38028651D01*
X43481127Y38032154D01*
X43360057Y38109961D01*
X43360054Y38109963D01*
X43360053Y38109963D01*
X43360050Y38109964D01*
X43221964Y38150510D01*
X43221961Y38150510D01*
X43078039Y38150510D01*
X43078035Y38150510D01*
X42939949Y38109964D01*
X42939942Y38109961D01*
X42818872Y38032154D01*
X42814830Y38028651D01*
X42758471Y38004834D01*
X42698876Y38018693D01*
X42685170Y38028651D01*
X42681127Y38032154D01*
X42560057Y38109961D01*
X42560054Y38109963D01*
X42560053Y38109963D01*
X42560050Y38109964D01*
X42421964Y38150510D01*
X42421961Y38150510D01*
X42278039Y38150510D01*
X42278035Y38150510D01*
X42139949Y38109964D01*
X42139942Y38109961D01*
X42018872Y38032154D01*
X42014830Y38028651D01*
X41958471Y38004834D01*
X41898876Y38018693D01*
X41885170Y38028651D01*
X41881127Y38032154D01*
X41760057Y38109961D01*
X41760054Y38109963D01*
X41760053Y38109963D01*
X41760050Y38109964D01*
X41621964Y38150510D01*
X41621961Y38150510D01*
X41478039Y38150510D01*
X41478035Y38150510D01*
X41339949Y38109964D01*
X41339942Y38109961D01*
X41218871Y38032154D01*
X41214824Y38028646D01*
X41158464Y38004830D01*
X41098869Y38018690D01*
X41085166Y38028646D01*
X41081118Y38032154D01*
X40960047Y38109961D01*
X40960044Y38109963D01*
X40960043Y38109963D01*
X40960040Y38109964D01*
X40821954Y38150510D01*
X40821951Y38150510D01*
X40678029Y38150510D01*
X40678025Y38150510D01*
X40539939Y38109964D01*
X40539932Y38109961D01*
X40418863Y38032155D01*
X40324612Y37923382D01*
X40317531Y37907875D01*
X40276159Y37862797D01*
X40227477Y37850000D01*
X33349990Y37850000D01*
X33349990Y37849999D01*
X33349990Y37770482D01*
X33331083Y37712291D01*
X33304514Y37687198D01*
X33218862Y37632153D01*
X33124612Y37523382D01*
X33064824Y37392467D01*
X33044343Y37250013D01*
X33044343Y37250008D01*
X33064824Y37107554D01*
X33124613Y36976637D01*
X33178159Y36914840D01*
X33201976Y36858481D01*
X33188117Y36798886D01*
X33178159Y36785180D01*
X33124613Y36723384D01*
X33064824Y36592467D01*
X33044343Y36450013D01*
X33044343Y36450008D01*
X33064824Y36307554D01*
X33124613Y36176637D01*
X33178159Y36114840D01*
X33201976Y36058481D01*
X33188117Y35998886D01*
X33178159Y35985180D01*
X33124613Y35923384D01*
X33064824Y35792467D01*
X33044343Y35650013D01*
X33044343Y35650008D01*
X33064824Y35507554D01*
X33124613Y35376637D01*
X33178163Y35314835D01*
X33201980Y35258476D01*
X33188121Y35198881D01*
X33178163Y35185175D01*
X33124613Y35123374D01*
X33064824Y34992457D01*
X33044343Y34850003D01*
X33044343Y34849998D01*
X33064824Y34707544D01*
X33124612Y34576629D01*
X33124613Y34576627D01*
X33178155Y34514836D01*
X33201972Y34458476D01*
X33188113Y34398881D01*
X33178155Y34385174D01*
X33124612Y34323382D01*
X33064824Y34192467D01*
X33044343Y34050013D01*
X33044343Y34050008D01*
X33064824Y33907554D01*
X33124613Y33776637D01*
X33178159Y33714840D01*
X33201976Y33658481D01*
X33188117Y33598886D01*
X33178159Y33585180D01*
X33124613Y33523384D01*
X33064824Y33392467D01*
X33044343Y33250013D01*
X33044343Y33250008D01*
X33064824Y33107554D01*
X33124613Y32976637D01*
X33178159Y32914840D01*
X33201976Y32858481D01*
X33188117Y32798886D01*
X33178159Y32785180D01*
X33124613Y32723384D01*
X33064824Y32592467D01*
X33044343Y32450013D01*
X33044343Y32450008D01*
X33064824Y32307554D01*
X33124613Y32176637D01*
X33178163Y32114835D01*
X33201980Y32058476D01*
X33188121Y31998881D01*
X33178163Y31985175D01*
X33124613Y31923374D01*
X33064824Y31792457D01*
X33044343Y31650003D01*
X33044343Y31649998D01*
X33064824Y31507544D01*
X33124613Y31376627D01*
X33178159Y31314831D01*
X33201977Y31258472D01*
X33188118Y31198877D01*
X33178160Y31185170D01*
X33124623Y31123384D01*
X33064834Y30992467D01*
X33044353Y30850013D01*
X33044353Y30850008D01*
X33064834Y30707554D01*
X33124623Y30576637D01*
X33178169Y30514840D01*
X33201986Y30458481D01*
X33188127Y30398886D01*
X33178169Y30385180D01*
X33124623Y30323384D01*
X33064834Y30192467D01*
X33044353Y30050013D01*
X33044353Y30050008D01*
X33064834Y29907554D01*
X33124623Y29776637D01*
X33178169Y29714840D01*
X33201986Y29658481D01*
X33188127Y29598886D01*
X33178169Y29585180D01*
X33124623Y29523384D01*
X33064834Y29392467D01*
X33044353Y29250013D01*
X33044353Y29250008D01*
X33064834Y29107554D01*
X33099269Y29032153D01*
X33124623Y28976637D01*
X33135278Y28964340D01*
X33159095Y28907981D01*
X33145236Y28848386D01*
X33098995Y28808318D01*
X33060458Y28800510D01*
X32003866Y28800510D01*
X31914722Y28776624D01*
X31914721Y28776624D01*
X31914719Y28776623D01*
X31834799Y28730481D01*
X31519503Y28415185D01*
X31464987Y28387408D01*
X31404555Y28396979D01*
X31361290Y28440244D01*
X31350500Y28485189D01*
X31350500Y37613810D01*
X31369407Y37672001D01*
X31379496Y37683814D01*
X33466186Y39770504D01*
X33520703Y39798281D01*
X33536190Y39799500D01*
X33764780Y39799500D01*
X33822971Y39780593D01*
G37*
G04 #@! TD.AperFunction*
G04 #@! TA.AperFunction,Conductor*
G36*
X53522001Y47580593D02*
G01*
X53533814Y47570504D01*
X62070494Y39033824D01*
X62098271Y38979307D01*
X62099490Y38963820D01*
X62099490Y38046713D01*
X62080583Y37988522D01*
X62075310Y37981883D01*
X62024613Y37923374D01*
X62017534Y37907873D01*
X61976161Y37862796D01*
X61927481Y37850000D01*
X58672503Y37850000D01*
X58614312Y37868907D01*
X58582449Y37907875D01*
X58575821Y37922389D01*
X58575367Y37923383D01*
X58481118Y38032153D01*
X58481117Y38032154D01*
X58481116Y38032155D01*
X58360047Y38109961D01*
X58360044Y38109963D01*
X58360043Y38109963D01*
X58360040Y38109964D01*
X58221954Y38150510D01*
X58221951Y38150510D01*
X58078029Y38150510D01*
X58078025Y38150510D01*
X57939939Y38109964D01*
X57939932Y38109961D01*
X57818866Y38032156D01*
X57818864Y38032155D01*
X57818862Y38032153D01*
X57818860Y38032152D01*
X57814827Y38028656D01*
X57758468Y38004838D01*
X57698872Y38018696D01*
X57685163Y38028656D01*
X57681132Y38032148D01*
X57681128Y38032153D01*
X57629687Y38065212D01*
X57560057Y38109961D01*
X57560054Y38109963D01*
X57560053Y38109963D01*
X57560050Y38109964D01*
X57421964Y38150510D01*
X57421961Y38150510D01*
X57278039Y38150510D01*
X57278035Y38150510D01*
X57139949Y38109964D01*
X57139942Y38109961D01*
X57018871Y38032154D01*
X57014824Y38028646D01*
X56958464Y38004830D01*
X56898869Y38018690D01*
X56885166Y38028646D01*
X56881118Y38032154D01*
X56760047Y38109961D01*
X56760044Y38109963D01*
X56760043Y38109963D01*
X56760040Y38109964D01*
X56621954Y38150510D01*
X56621951Y38150510D01*
X56478029Y38150510D01*
X56478025Y38150510D01*
X56339939Y38109964D01*
X56339932Y38109961D01*
X56218862Y38032154D01*
X56214820Y38028651D01*
X56158461Y38004834D01*
X56098866Y38018693D01*
X56085160Y38028651D01*
X56081117Y38032154D01*
X55960047Y38109961D01*
X55960044Y38109963D01*
X55960043Y38109963D01*
X55866570Y38137409D01*
X55821948Y38150511D01*
X55821572Y38150565D01*
X55821287Y38150706D01*
X55815157Y38152505D01*
X55815468Y38153566D01*
X55766665Y38177561D01*
X55765659Y38178553D01*
X55413743Y38530468D01*
X55413741Y38530470D01*
X55333817Y38576614D01*
X55244673Y38600500D01*
X55244671Y38600500D01*
X53336190Y38600500D01*
X53277999Y38619407D01*
X53266186Y38629496D01*
X52145681Y39750001D01*
X56244318Y39750001D01*
X56244318Y39750000D01*
X56264955Y39593242D01*
X56264957Y39593234D01*
X56325462Y39447162D01*
X56325462Y39447161D01*
X56402162Y39347204D01*
X56421718Y39321718D01*
X56547159Y39225464D01*
X56693238Y39164956D01*
X56806833Y39150001D01*
X56849999Y39144318D01*
X56850000Y39144318D01*
X56850001Y39144318D01*
X56893167Y39150001D01*
X57006762Y39164956D01*
X57152841Y39225464D01*
X57278282Y39321718D01*
X57374536Y39447159D01*
X57435044Y39593238D01*
X57455682Y39750000D01*
X57435044Y39906762D01*
X57374537Y40052839D01*
X57374537Y40052840D01*
X57278286Y40178277D01*
X57278285Y40178278D01*
X57278282Y40178282D01*
X57278277Y40178286D01*
X57278276Y40178287D01*
X57152838Y40274538D01*
X57006766Y40335043D01*
X57006758Y40335045D01*
X56850001Y40355682D01*
X56849999Y40355682D01*
X56693241Y40335045D01*
X56693233Y40335043D01*
X56547161Y40274538D01*
X56547160Y40274538D01*
X56421723Y40178287D01*
X56421713Y40178277D01*
X56325462Y40052840D01*
X56325462Y40052839D01*
X56264957Y39906767D01*
X56264955Y39906759D01*
X56244318Y39750001D01*
X52145681Y39750001D01*
X51594381Y40301301D01*
X51566604Y40355818D01*
X51576175Y40416250D01*
X51585843Y40431572D01*
X51674536Y40547159D01*
X51735044Y40693238D01*
X51755682Y40850000D01*
X51735044Y41006762D01*
X51710348Y41066384D01*
X51674537Y41152839D01*
X51674537Y41152840D01*
X51578286Y41278277D01*
X51578285Y41278278D01*
X51578282Y41278282D01*
X51578277Y41278286D01*
X51578276Y41278287D01*
X51452838Y41374538D01*
X51306766Y41435043D01*
X51306758Y41435045D01*
X51150001Y41455682D01*
X51149999Y41455682D01*
X50993241Y41435045D01*
X50993233Y41435043D01*
X50847161Y41374538D01*
X50847160Y41374538D01*
X50721723Y41278287D01*
X50721713Y41278277D01*
X50625462Y41152840D01*
X50625462Y41152839D01*
X50564957Y41006767D01*
X50564955Y41006759D01*
X50544318Y40850001D01*
X50544318Y40850000D01*
X50562684Y40710490D01*
X50564956Y40693238D01*
X50588091Y40637386D01*
X50592892Y40576389D01*
X50560922Y40524220D01*
X50504395Y40500805D01*
X50496627Y40500500D01*
X41438301Y40500500D01*
X41380110Y40519407D01*
X41344146Y40568907D01*
X41344146Y40630093D01*
X41346837Y40637385D01*
X41394667Y40752859D01*
X41394669Y40752863D01*
X41415307Y40909625D01*
X41394669Y41066387D01*
X41334162Y41212464D01*
X41334162Y41212465D01*
X41237911Y41337902D01*
X41237910Y41337903D01*
X41237907Y41337907D01*
X41237902Y41337911D01*
X41237901Y41337912D01*
X41112463Y41434163D01*
X40966391Y41494668D01*
X40966383Y41494670D01*
X40809626Y41515307D01*
X40809624Y41515307D01*
X40652866Y41494670D01*
X40652858Y41494668D01*
X40506786Y41434163D01*
X40506785Y41434163D01*
X40381348Y41337912D01*
X40381338Y41337902D01*
X40285087Y41212465D01*
X40285087Y41212464D01*
X40224582Y41066392D01*
X40224580Y41066384D01*
X40203943Y40909626D01*
X40203943Y40909625D01*
X40224580Y40752867D01*
X40224582Y40752859D01*
X40272413Y40637385D01*
X40277214Y40576389D01*
X40245244Y40524220D01*
X40188716Y40500805D01*
X40180949Y40500500D01*
X33607437Y40500500D01*
X33549246Y40519407D01*
X33513282Y40568907D01*
X33513282Y40630093D01*
X33549246Y40679593D01*
X33569551Y40690964D01*
X33578286Y40694583D01*
X33652841Y40725464D01*
X33778282Y40821718D01*
X33874536Y40947159D01*
X33935044Y41093238D01*
X33955682Y41250000D01*
X33935044Y41406762D01*
X33874537Y41552839D01*
X33874537Y41552840D01*
X33778286Y41678277D01*
X33778285Y41678278D01*
X33778282Y41678282D01*
X33778277Y41678286D01*
X33778276Y41678287D01*
X33652838Y41774538D01*
X33506766Y41835043D01*
X33506758Y41835045D01*
X33350001Y41855682D01*
X33349999Y41855682D01*
X33193241Y41835045D01*
X33193233Y41835043D01*
X33047161Y41774538D01*
X33047160Y41774538D01*
X32921723Y41678287D01*
X32921713Y41678277D01*
X32825462Y41552840D01*
X32825462Y41552839D01*
X32764957Y41406767D01*
X32764955Y41406759D01*
X32744318Y41250001D01*
X32744318Y41249998D01*
X32750741Y41201200D01*
X32739590Y41141039D01*
X32722592Y41118276D01*
X29769504Y38165186D01*
X29714987Y38137409D01*
X29654555Y38146980D01*
X29611290Y38190245D01*
X29600500Y38235190D01*
X29600500Y43150001D01*
X39144318Y43150001D01*
X39144318Y43150000D01*
X39164955Y42993242D01*
X39164957Y42993234D01*
X39225462Y42847162D01*
X39225462Y42847161D01*
X39272935Y42785293D01*
X39321718Y42721718D01*
X39447159Y42625464D01*
X39447160Y42625464D01*
X39447161Y42625463D01*
X39593233Y42564958D01*
X39593238Y42564956D01*
X39690571Y42552142D01*
X39749999Y42544318D01*
X39750000Y42544318D01*
X39750001Y42544318D01*
X39809429Y42552142D01*
X39906762Y42564956D01*
X40052841Y42625464D01*
X40178282Y42721718D01*
X40274536Y42847159D01*
X40335044Y42993238D01*
X40355682Y43150000D01*
X40335044Y43306762D01*
X40312674Y43360767D01*
X40274537Y43452839D01*
X40274537Y43452840D01*
X40178286Y43578277D01*
X40178285Y43578278D01*
X40178282Y43578282D01*
X40178277Y43578286D01*
X40178276Y43578287D01*
X40052838Y43674538D01*
X39906766Y43735043D01*
X39906758Y43735045D01*
X39750001Y43755682D01*
X39749999Y43755682D01*
X39593241Y43735045D01*
X39593233Y43735043D01*
X39447161Y43674538D01*
X39447160Y43674538D01*
X39321723Y43578287D01*
X39321713Y43578277D01*
X39225462Y43452840D01*
X39225462Y43452839D01*
X39164957Y43306767D01*
X39164955Y43306759D01*
X39144318Y43150001D01*
X29600500Y43150001D01*
X29600500Y44822389D01*
X29619407Y44880580D01*
X29629496Y44892393D01*
X29876784Y45139681D01*
X34139489Y45139681D01*
X34139489Y44960320D01*
X34174479Y44784415D01*
X34174479Y44784413D01*
X34243113Y44618714D01*
X34243113Y44618713D01*
X34298254Y44536190D01*
X34342760Y44469583D01*
X34469583Y44342760D01*
X34618711Y44243115D01*
X34784414Y44174479D01*
X34960322Y44139489D01*
X34960323Y44139489D01*
X35139677Y44139489D01*
X35139678Y44139489D01*
X35315586Y44174479D01*
X35481289Y44243115D01*
X35630417Y44342760D01*
X35757240Y44469583D01*
X35856885Y44618711D01*
X35925521Y44784414D01*
X35960511Y44960322D01*
X35960511Y45139678D01*
X35925521Y45315586D01*
X35863650Y45464956D01*
X35856886Y45481287D01*
X35856886Y45481288D01*
X35757240Y45630417D01*
X35630416Y45757241D01*
X35481286Y45856887D01*
X35315586Y45925521D01*
X35139680Y45960511D01*
X35139678Y45960511D01*
X34960322Y45960511D01*
X34960319Y45960511D01*
X34784414Y45925521D01*
X34784412Y45925521D01*
X34618713Y45856887D01*
X34618712Y45856887D01*
X34469583Y45757241D01*
X34342759Y45630417D01*
X34243113Y45481288D01*
X34243113Y45481287D01*
X34174479Y45315588D01*
X34174479Y45315586D01*
X34139489Y45139681D01*
X29876784Y45139681D01*
X30907608Y46170504D01*
X30962125Y46198281D01*
X30977612Y46199500D01*
X32517068Y46199500D01*
X32575259Y46180593D01*
X32577315Y46179057D01*
X32647159Y46125464D01*
X32793238Y46064956D01*
X32906833Y46050001D01*
X32949999Y46044318D01*
X32950000Y46044318D01*
X32950001Y46044318D01*
X32993167Y46050001D01*
X39444318Y46050001D01*
X39444318Y46050000D01*
X39464955Y45893242D01*
X39464957Y45893234D01*
X39525462Y45747162D01*
X39525462Y45747161D01*
X39618844Y45625463D01*
X39621718Y45621718D01*
X39747159Y45525464D01*
X39747160Y45525464D01*
X39747161Y45525463D01*
X39893233Y45464958D01*
X39893238Y45464956D01*
X40010809Y45449478D01*
X40049999Y45444318D01*
X40050000Y45444318D01*
X40050001Y45444318D01*
X40081352Y45448446D01*
X40206762Y45464956D01*
X40352841Y45525464D01*
X40478282Y45621718D01*
X40574536Y45747159D01*
X40635044Y45893238D01*
X40655682Y46050000D01*
X40635044Y46206762D01*
X40585877Y46325462D01*
X40574537Y46352839D01*
X40574537Y46352840D01*
X40478286Y46478277D01*
X40478285Y46478278D01*
X40478282Y46478282D01*
X40478277Y46478286D01*
X40478276Y46478287D01*
X40388517Y46547161D01*
X40352841Y46574536D01*
X40352840Y46574537D01*
X40352838Y46574538D01*
X40206766Y46635043D01*
X40206758Y46635045D01*
X40050001Y46655682D01*
X40049999Y46655682D01*
X39893241Y46635045D01*
X39893233Y46635043D01*
X39747161Y46574538D01*
X39747160Y46574538D01*
X39621723Y46478287D01*
X39621713Y46478277D01*
X39525462Y46352840D01*
X39525462Y46352839D01*
X39464957Y46206767D01*
X39464955Y46206759D01*
X39444318Y46050001D01*
X32993167Y46050001D01*
X33106762Y46064956D01*
X33252841Y46125464D01*
X33378282Y46221718D01*
X33474536Y46347159D01*
X33535044Y46493238D01*
X33555682Y46650000D01*
X33535044Y46806762D01*
X33517134Y46850001D01*
X33474537Y46952839D01*
X33474537Y46952840D01*
X33378286Y47078277D01*
X33378285Y47078278D01*
X33378282Y47078282D01*
X33378277Y47078286D01*
X33378276Y47078287D01*
X33252838Y47174538D01*
X33106766Y47235043D01*
X33106758Y47235045D01*
X32950001Y47255682D01*
X32949999Y47255682D01*
X32793241Y47235045D01*
X32793233Y47235043D01*
X32647161Y47174538D01*
X32639823Y47168907D01*
X32577334Y47120958D01*
X32519659Y47100534D01*
X32517068Y47100500D01*
X30945240Y47100500D01*
X30887049Y47119407D01*
X30851085Y47168907D01*
X30851085Y47230093D01*
X30875236Y47269504D01*
X31176236Y47570504D01*
X31230753Y47598281D01*
X31246240Y47599500D01*
X53463810Y47599500D01*
X53522001Y47580593D01*
G37*
G04 #@! TD.AperFunction*
G04 #@! TA.AperFunction,Conductor*
G36*
X29057556Y54467730D02*
G01*
X29074620Y54459932D01*
X29126114Y54430201D01*
X29240691Y54399500D01*
X30817068Y54399500D01*
X30875259Y54380593D01*
X30877315Y54379057D01*
X30947159Y54325464D01*
X30947160Y54325464D01*
X30947161Y54325463D01*
X31003009Y54302330D01*
X31049535Y54262594D01*
X31063819Y54203099D01*
X31040405Y54146571D01*
X31035128Y54140863D01*
X30569532Y53675265D01*
X30569530Y53675263D01*
X30569530Y53675262D01*
X30523386Y53595338D01*
X30499500Y53506194D01*
X30499500Y49503856D01*
X30513894Y49450136D01*
X30518882Y49431519D01*
X30519164Y49430469D01*
X30523386Y49414712D01*
X30569530Y49334788D01*
X31434788Y48469530D01*
X31434790Y48469529D01*
X31434815Y48469504D01*
X31462592Y48414987D01*
X31453021Y48354555D01*
X31409756Y48311290D01*
X31364811Y48300500D01*
X31013906Y48300500D01*
X31008179Y48298966D01*
X30986804Y48293239D01*
X30986804Y48293238D01*
X30956108Y48285013D01*
X30924761Y48276614D01*
X30844838Y48230470D01*
X25438939Y42824571D01*
X25384422Y42796794D01*
X25323990Y42806365D01*
X25280725Y42849630D01*
X25271154Y42910062D01*
X25272140Y42915303D01*
X25274999Y42945789D01*
X25275000Y42945790D01*
X25275000Y43199999D01*
X25274999Y43200000D01*
X24546410Y43200000D01*
X24549444Y43205255D01*
X24575000Y43300630D01*
X24575000Y43399370D01*
X24549444Y43494745D01*
X24546410Y43500000D01*
X25274998Y43500000D01*
X25274999Y43500001D01*
X25274999Y43754204D01*
X25272149Y43784601D01*
X25272149Y43784603D01*
X25227345Y43912648D01*
X25146792Y44021791D01*
X25146790Y44021793D01*
X25037647Y44102346D01*
X24909601Y44147150D01*
X24879211Y44150000D01*
X24350001Y44150000D01*
X24350000Y44149999D01*
X24350000Y43696411D01*
X24344745Y43699444D01*
X24249370Y43725000D01*
X24150630Y43725000D01*
X24055255Y43699444D01*
X24050000Y43696411D01*
X24050000Y44149999D01*
X24049999Y44150000D01*
X23520796Y44150000D01*
X23490399Y44147150D01*
X23490397Y44147150D01*
X23362352Y44102346D01*
X23253209Y44021793D01*
X23253207Y44021791D01*
X23172654Y43912648D01*
X23127850Y43784602D01*
X23125000Y43754212D01*
X23125000Y43500001D01*
X23125001Y43500000D01*
X23853590Y43500000D01*
X23850556Y43494745D01*
X23825000Y43399370D01*
X23825000Y43300630D01*
X23850556Y43205255D01*
X23853590Y43200000D01*
X23125002Y43200000D01*
X23125001Y43199999D01*
X23125001Y42945797D01*
X23127850Y42915400D01*
X23127850Y42915398D01*
X23172654Y42787353D01*
X23253207Y42678210D01*
X23253209Y42678208D01*
X23362352Y42597655D01*
X23490398Y42552851D01*
X23520789Y42550001D01*
X24049998Y42550001D01*
X24050000Y42550002D01*
X24050000Y43003590D01*
X24055255Y43000556D01*
X24150630Y42975000D01*
X24249370Y42975000D01*
X24344745Y43000556D01*
X24350000Y43003590D01*
X24350000Y42550002D01*
X24350001Y42550001D01*
X24879203Y42550001D01*
X24915604Y42553413D01*
X24915723Y42552142D01*
X24970168Y42546737D01*
X25015873Y42506059D01*
X25028940Y42446285D01*
X25004377Y42390247D01*
X25000428Y42386061D01*
X22043864Y39429496D01*
X21989347Y39401719D01*
X21973860Y39400500D01*
X19176611Y39400500D01*
X19118420Y39419407D01*
X19082456Y39468907D01*
X19082456Y39530093D01*
X19106607Y39569504D01*
X19968675Y40431572D01*
X22710489Y43173386D01*
X22769799Y43276113D01*
X22780141Y43314712D01*
X22800500Y43390691D01*
X22800500Y45428845D01*
X23124500Y45428845D01*
X23124500Y45271156D01*
X23155263Y45116504D01*
X23155263Y45116502D01*
X23215603Y44970826D01*
X23215609Y44970815D01*
X23268010Y44892393D01*
X23303211Y44839711D01*
X23414711Y44728211D01*
X23492876Y44675983D01*
X23545814Y44640610D01*
X23545825Y44640604D01*
X23598673Y44618714D01*
X23691503Y44580263D01*
X23846158Y44549500D01*
X23846159Y44549500D01*
X24553841Y44549500D01*
X24553842Y44549500D01*
X24708497Y44580263D01*
X24854179Y44640606D01*
X24985289Y44728211D01*
X25096789Y44839711D01*
X25184394Y44970821D01*
X25244737Y45116503D01*
X25275500Y45271158D01*
X25275500Y45428842D01*
X25244737Y45583497D01*
X25187486Y45721714D01*
X25184396Y45729175D01*
X25184390Y45729186D01*
X25140292Y45795182D01*
X25096789Y45860289D01*
X24985289Y45971789D01*
X24933059Y46006688D01*
X24854185Y46059391D01*
X24854174Y46059397D01*
X24708497Y46119737D01*
X24553844Y46150500D01*
X24553842Y46150500D01*
X23846158Y46150500D01*
X23846155Y46150500D01*
X23691503Y46119737D01*
X23691501Y46119737D01*
X23545825Y46059397D01*
X23545814Y46059391D01*
X23414711Y45971789D01*
X23414707Y45971786D01*
X23303214Y45860293D01*
X23303211Y45860289D01*
X23215609Y45729186D01*
X23215603Y45729175D01*
X23155263Y45583499D01*
X23155263Y45583497D01*
X23124500Y45428845D01*
X22800500Y45428845D01*
X22800500Y47428845D01*
X23124500Y47428845D01*
X23124500Y47271156D01*
X23131684Y47235043D01*
X23154685Y47119407D01*
X23155263Y47116504D01*
X23155263Y47116502D01*
X23215603Y46970826D01*
X23215609Y46970815D01*
X23268312Y46891941D01*
X23303211Y46839711D01*
X23414711Y46728211D01*
X23467046Y46693242D01*
X23545814Y46640610D01*
X23545825Y46640604D01*
X23559251Y46635043D01*
X23691503Y46580263D01*
X23846158Y46549500D01*
X23846159Y46549500D01*
X24553841Y46549500D01*
X24553842Y46549500D01*
X24708497Y46580263D01*
X24854179Y46640606D01*
X24985289Y46728211D01*
X25096789Y46839711D01*
X25184394Y46970821D01*
X25244737Y47116503D01*
X25275500Y47271158D01*
X25275500Y47428842D01*
X25244737Y47583497D01*
X25193681Y47706759D01*
X25184396Y47729175D01*
X25184390Y47729186D01*
X25149017Y47782124D01*
X25096789Y47860289D01*
X24985289Y47971789D01*
X24933059Y48006688D01*
X24854185Y48059391D01*
X24854174Y48059397D01*
X24708497Y48119737D01*
X24553844Y48150500D01*
X24553842Y48150500D01*
X23846158Y48150500D01*
X23846155Y48150500D01*
X23691503Y48119737D01*
X23691501Y48119737D01*
X23545825Y48059397D01*
X23545814Y48059391D01*
X23414711Y47971789D01*
X23414707Y47971786D01*
X23303214Y47860293D01*
X23303211Y47860289D01*
X23215609Y47729186D01*
X23215603Y47729175D01*
X23155263Y47583499D01*
X23155263Y47583497D01*
X23124500Y47428845D01*
X22800500Y47428845D01*
X22800500Y49322389D01*
X22819407Y49380580D01*
X22829496Y49392392D01*
X22957927Y49520824D01*
X23012444Y49548602D01*
X23072876Y49539031D01*
X23116140Y49495766D01*
X23125712Y49435334D01*
X23125031Y49431519D01*
X23124501Y49428855D01*
X23124500Y49428841D01*
X23124500Y49271156D01*
X23155263Y49116504D01*
X23155263Y49116502D01*
X23215603Y48970826D01*
X23215609Y48970815D01*
X23268312Y48891941D01*
X23303211Y48839711D01*
X23414711Y48728211D01*
X23492876Y48675983D01*
X23545814Y48640610D01*
X23545825Y48640604D01*
X23599638Y48618315D01*
X23691503Y48580263D01*
X23846158Y48549500D01*
X23846159Y48549500D01*
X24553841Y48549500D01*
X24553842Y48549500D01*
X24708497Y48580263D01*
X24854179Y48640606D01*
X24985289Y48728211D01*
X25096789Y48839711D01*
X25184394Y48970821D01*
X25244737Y49116503D01*
X25275500Y49271158D01*
X25275500Y49428842D01*
X25244737Y49583497D01*
X25184656Y49728547D01*
X25184396Y49729175D01*
X25184390Y49729186D01*
X25116713Y49830470D01*
X25096789Y49860289D01*
X24985289Y49971789D01*
X24933059Y50006688D01*
X24854185Y50059391D01*
X24854174Y50059397D01*
X24708497Y50119737D01*
X24553844Y50150500D01*
X24553842Y50150500D01*
X23846158Y50150500D01*
X23846157Y50150500D01*
X23846145Y50150499D01*
X23843481Y50149969D01*
X23842248Y50150116D01*
X23841314Y50150023D01*
X23841293Y50150229D01*
X23782721Y50157168D01*
X23737796Y50198706D01*
X23725867Y50258717D01*
X23751489Y50314279D01*
X23754150Y50317048D01*
X26807607Y53370504D01*
X26862124Y53398281D01*
X26877611Y53399500D01*
X27259308Y53399500D01*
X27259309Y53399500D01*
X27355890Y53425379D01*
X27373887Y53430201D01*
X27476614Y53489511D01*
X28425150Y54438049D01*
X28479665Y54465824D01*
X28523890Y54462780D01*
X28561316Y54451427D01*
X28561321Y54451426D01*
X28749997Y54432843D01*
X28750000Y54432843D01*
X28750003Y54432843D01*
X28938678Y54451426D01*
X28938678Y54451427D01*
X28938683Y54451427D01*
X28996385Y54468931D01*
X29057556Y54467730D01*
G37*
G04 #@! TD.AperFunction*
G04 #@! TD*
M02*
