M48
; DRILL file {KiCad 8.0.9-8.0.9-0~ubuntu24.04.1} date 2025-11-11T04:04:05+0000
; FORMAT={2:4/ absolute / inch / suppress leading zeros}
; #@! TF.CreationDate,2025-11-11T04:04:05+00:00
; #@! TF.GenerationSoftware,Kicad,Pcbnew,8.0.9-8.0.9-0~ubuntu24.04.1
; #@! TF.FileFunction,MixedPlating,1,4
FMAT,2
INCH,TZ
; #@! TA.AperFunction,Plated,PTH,ComponentDrill
T1C0.0118
; #@! TA.AperFunction,Plated,PTH,ViaDrill
T2C0.0157
; #@! TA.AperFunction,Plated,PTH,ComponentDrill
T3C0.0295
; #@! TA.AperFunction,Plated,PTH,ComponentDrill
T4C0.0320
; #@! TA.AperFunction,Plated,PTH,ComponentDrill
T5C0.0394
; #@! TA.AperFunction,Plated,PTH,ComponentDrill
T6C0.0512
; #@! TA.AperFunction,NonPlated,NPTH,ComponentDrill
T7C0.0591
; #@! TA.AperFunction,NonPlated,NPTH,ComponentDrill
T8C0.0906
; #@! TA.AperFunction,NonPlated,NPTH,ComponentDrill
T9C0.1614
%
G90
G05
T1
X4592Y12598
X4592Y12126
X4592Y11654
X4592Y11181
X10271Y14118
X10271Y13724
X11033Y3278
X11033Y2884
X13071Y14528
X13071Y14213
X13071Y13898
X13071Y13583
X13071Y13268
X13071Y12953
X13071Y12638
X13071Y12323
X13071Y9488
X13071Y9173
X13071Y8858
X13071Y8543
X13071Y8228
X13071Y12008
X13071Y11693
X13071Y11378
X13071Y11063
X13071Y10118
X13071Y9803
X13071Y7913
X13071Y7598
X13071Y5906
X13071Y4843
X13071Y4449
X13071Y1535
X14921Y1535
X15472Y1535
X15906Y14685
X16220Y14685
X16535Y14685
X16850Y14685
X17165Y14685
X17323Y1535
X17480Y14685
X17638Y1535
X18031Y14685
X18346Y14685
X18661Y14685
X18661Y1535
X18976Y14685
X19055Y1535
X19291Y14685
X19449Y1535
X19606Y14685
X19843Y1535
X19921Y14685
X20236Y14685
X20236Y1535
X20551Y14685
X20630Y1535
X20866Y14685
X21024Y1535
X21181Y14685
X21417Y1535
X21496Y14685
X21811Y14685
X22126Y14685
X22441Y14685
X22756Y14685
X24449Y14685
X25630Y1535
X26024Y1535
X27008Y12087
X27008Y11614
X27008Y11142
X27008Y10669
X27008Y10197
X27008Y9724
X27008Y9252
X27008Y8780
X27008Y8307
X27008Y7835
X27008Y7362
X27008Y6890
X27008Y6417
X27008Y5945
X27008Y5472
X27008Y5000
X27008Y4528
X27008Y4055
X27008Y3583
X27008Y3110
X27008Y2638
X27008Y1693
T2
X394Y24764
X709Y18071
X748Y709
X866Y17087
X945Y21614
X1024Y23543
X1063Y20315
X1102Y16614
X1220Y18031
X1331Y1449
X1378Y16299
X1654Y16024
X1693Y19882
X1693Y18583
X1732Y22205
X1811Y20709
X1811Y18031
X1929Y15748
X2244Y15472
X2283Y23701
X2598Y15197
X3189Y7047
X3307Y19567
X3465Y23661
X3858Y23701
X3898Y24134
X3976Y6102
X4016Y16181
X4094Y19567
X4213Y7874
X4213Y4331
X4252Y2953
X4291Y24134
X4291Y23701
X4528Y9921
X4567Y16181
X4764Y24173
X4764Y23701
X4882Y19567
X5079Y25079
X5118Y16181
X5157Y1181
X5197Y24173
X5197Y23701
X5551Y9882
X5591Y25630
X5669Y25079
X5669Y24173
X5669Y23701
X5709Y16181
X5709Y1181
X6024Y26063
X6102Y23701
X6142Y24134
X6220Y25079
X6339Y19567
X6339Y1181
X6457Y26457
X6496Y23701
X6496Y9921
X6535Y24173
X6772Y25079
X6850Y21929
X6929Y21142
X6929Y18307
X6929Y1181
X7008Y17480
X7087Y16772
X7165Y24173
X7244Y9921
X7283Y18307
X7323Y25079
X7323Y21929
X7402Y20827
X7480Y1181
X7598Y18622
X7756Y17795
X7913Y18937
X8110Y9921
X8189Y1181
X8228Y24528
X8506Y20167
X8819Y24528
X9094Y9921
X9370Y24528
X9646Y10157
X9685Y15276
X9843Y26220
X9882Y25787
X10276Y25748
X10315Y26181
X10394Y27598
X10394Y27165
X10394Y15118
X10748Y25748
X10748Y20669
X10787Y26220
X11024Y27598
X11024Y27126
X11260Y24488
X11319Y12638
X11378Y8031
X11417Y5236
X11614Y24843
X11654Y19685
X11772Y4646
X11811Y3465
X11850Y29646
X12165Y21457
X12205Y23701
X12402Y29646
X12520Y19533
X12559Y12047
X12559Y9370
X12598Y10591
X12638Y2874
X12677Y3661
X12677Y2205
X12717Y7165
X12717Y6339
X12717Y5315
X12835Y18228
X12874Y29646
X12992Y16102
X13268Y21102
X13307Y24882
X13307Y24449
X13346Y29646
X13780Y29646
X13898Y1181
X14016Y28150
X14213Y29646
X14409Y18031
X14606Y16850
X14685Y15039
X14724Y24843
X14764Y29646
X15118Y16417
X15197Y23228
X15236Y15039
X15394Y16811
X15591Y22638
X15591Y22008
X15929Y15968
X16260Y1181
X16614Y20039
X16614Y16890
X16850Y22362
X16850Y21929
X17205Y16457
X17362Y20945
X17520Y15197
X17638Y29606
X17677Y18268
X17677Y17598
X17677Y16969
X17795Y20945
X18228Y20945
X18307Y1181
X18622Y20945
X18622Y17874
X18622Y17087
X19055Y20945
X19488Y20945
X20118Y23268
X20118Y22835
X20118Y22402
X20118Y21969
X20118Y21102
X20183Y30301
X20433Y26339
X20472Y27362
X20512Y15295
X20699Y30148
X20748Y21024
X21024Y26457
X21142Y17913
X21142Y17047
X21181Y21024
X21234Y29974
X21401Y15209
X21535Y19843
X21614Y21024
X21654Y16260
X21772Y29882
X21929Y1181
X22008Y21024
X22087Y19872
X22244Y18425
X22323Y29692
X22638Y27441
X22740Y29275
X22795Y1181
X22913Y24921
X23268Y15039
X23425Y23189
X23425Y22756
X23425Y22323
X23425Y21890
X23583Y1181
X23937Y15039
X24278Y21772
X24291Y1181
X24567Y25787
X24685Y19961
X25000Y15157
X25039Y1181
X25079Y25236
X25197Y16339
X25472Y15157
X25630Y24528
X25630Y16929
X25945Y15157
X26063Y24055
X26614Y15039
X26693Y1181
X26969Y22992
X27323Y14291
X27323Y13622
X27323Y12874
X28268Y11102
X28268Y8701
X28327Y10226
X30000Y12756
X30000Y12205
X30000Y11654
X30000Y11063
X30000Y10512
X30000Y9961
T3
X9390Y19291
X9390Y18504
X9390Y17717
X9390Y16929
T4
X7874Y23602
X7874Y21673
X8858Y23602
X8858Y21673
X9329Y748
X10236Y23602
X10236Y21673
X10829Y748
X11181Y23602
X11181Y21673
T5
X4754Y9360
X4754Y8632
X4754Y6683
X4754Y1939
X10856Y9183
X10856Y6663
X10856Y5915
X10856Y4222
X10856Y1762
T6
X11870Y28661
X11870Y27677
X11870Y26693
X11870Y25709
X13327Y28661
X13327Y27677
X13327Y26693
X13327Y25709
X14705Y28661
X14705Y27677
X14705Y26693
X14705Y25709
X15689Y28661
X15689Y27677
X15689Y26693
X15689Y25709
X16673Y28661
X16673Y27677
X16673Y26693
X16673Y25709
X17657Y28661
X17657Y27677
X17657Y26693
X17657Y25709
X18642Y28661
X18642Y27677
X18642Y26693
X18642Y25709
X19626Y28661
X19626Y27677
X19626Y26693
X19626Y25709
T7
X13661Y20551
X13661Y17598
T8
X9331Y25315
X22165Y25315
T9
X7717Y26831
X23780Y26831
M30
