G04 #@! TF.GenerationSoftware,KiCad,Pcbnew,8.0.9-8.0.9-0~ubuntu24.04.1*
G04 #@! TF.CreationDate,2025-11-11T04:04:05+00:00*
G04 #@! TF.ProjectId,PROLT,50524f4c-542e-46b6-9963-61645f706362,rev?*
G04 #@! TF.SameCoordinates,Original*
G04 #@! TF.FileFunction,Copper,L3,Inr*
G04 #@! TF.FilePolarity,Positive*
%FSLAX46Y46*%
G04 Gerber Fmt 4.6, Leading zero omitted, Abs format (unit mm)*
G04 Created by KiCad (PCBNEW 8.0.9-8.0.9-0~ubuntu24.04.1) date 2025-11-11 04:04:05*
%MOMM*%
%LPD*%
G01*
G04 APERTURE LIST*
G04 #@! TA.AperFunction,ComponentPad*
%ADD10C,1.524000*%
G04 #@! TD*
G04 #@! TA.AperFunction,ComponentPad*
%ADD11O,1.750000X1.200000*%
G04 #@! TD*
G04 #@! TA.AperFunction,ComponentPad*
%ADD12C,0.600000*%
G04 #@! TD*
G04 #@! TA.AperFunction,Conductor*
%ADD13R,3.700000X0.200000*%
G04 #@! TD*
G04 #@! TA.AperFunction,Conductor*
%ADD14R,0.400000X0.200000*%
G04 #@! TD*
G04 #@! TA.AperFunction,Conductor*
%ADD15R,1.600000X0.200000*%
G04 #@! TD*
G04 #@! TA.AperFunction,Conductor*
%ADD16R,9.700000X0.200000*%
G04 #@! TD*
G04 #@! TA.AperFunction,Conductor*
%ADD17R,2.300000X0.200000*%
G04 #@! TD*
G04 #@! TA.AperFunction,Conductor*
%ADD18R,0.200000X1.400000*%
G04 #@! TD*
G04 #@! TA.AperFunction,Conductor*
%ADD19R,0.200000X6.400000*%
G04 #@! TD*
G04 #@! TA.AperFunction,Conductor*
%ADD20R,0.200000X1.700000*%
G04 #@! TD*
G04 #@! TA.AperFunction,Conductor*
%ADD21R,0.200000X3.300000*%
G04 #@! TD*
G04 #@! TA.AperFunction,Conductor*
%ADD22R,7.000000X0.200000*%
G04 #@! TD*
G04 #@! TA.AperFunction,Conductor*
%ADD23R,3.300000X0.200000*%
G04 #@! TD*
G04 #@! TA.AperFunction,Conductor*
%ADD24R,6.300000X0.200000*%
G04 #@! TD*
G04 #@! TA.AperFunction,ComponentPad*
%ADD25C,1.950000*%
G04 #@! TD*
G04 #@! TA.AperFunction,Conductor*
%ADD26R,0.250000X6.185000*%
G04 #@! TD*
G04 #@! TA.AperFunction,Conductor*
%ADD27R,0.250000X1.115000*%
G04 #@! TD*
G04 #@! TA.AperFunction,Conductor*
%ADD28R,14.275000X0.250000*%
G04 #@! TD*
G04 #@! TA.AperFunction,Conductor*
%ADD29R,15.100000X0.250000*%
G04 #@! TD*
G04 #@! TA.AperFunction,Conductor*
%ADD30R,0.250000X5.175000*%
G04 #@! TD*
G04 #@! TA.AperFunction,ComponentPad*
%ADD31C,1.500000*%
G04 #@! TD*
G04 #@! TA.AperFunction,Conductor*
%ADD32O,0.200000X3.300000*%
G04 #@! TD*
G04 #@! TA.AperFunction,Conductor*
%ADD33O,0.200000X10.200000*%
G04 #@! TD*
G04 #@! TA.AperFunction,Conductor*
%ADD34O,0.200000X0.300000*%
G04 #@! TD*
G04 #@! TA.AperFunction,Conductor*
%ADD35O,17.000000X0.200000*%
G04 #@! TD*
G04 #@! TA.AperFunction,Conductor*
%ADD36O,15.400000X0.200000*%
G04 #@! TD*
G04 #@! TA.AperFunction,Conductor*
%ADD37O,0.200000X4.800000*%
G04 #@! TD*
G04 #@! TA.AperFunction,Conductor*
%ADD38O,0.200000X2.600000*%
G04 #@! TD*
G04 #@! TA.AperFunction,Conductor*
%ADD39O,0.200000X1.000000*%
G04 #@! TD*
G04 #@! TA.AperFunction,Conductor*
%ADD40O,0.200000X1.500000*%
G04 #@! TD*
G04 #@! TA.AperFunction,ViaPad*
%ADD41C,0.800000*%
G04 #@! TD*
G04 #@! TA.AperFunction,Conductor*
%ADD42C,0.300000*%
G04 #@! TD*
G04 #@! TA.AperFunction,Conductor*
%ADD43C,0.150000*%
G04 #@! TD*
G04 #@! TA.AperFunction,Conductor*
%ADD44C,0.500000*%
G04 #@! TD*
G04 APERTURE END LIST*
D10*
G04 #@! TO.N,+12V*
G04 #@! TO.C,F7*
X28400000Y59950000D03*
G04 #@! TO.N,+12V_RAW*
X28400000Y55050000D03*
G04 #@! TD*
G04 #@! TO.N,GND*
G04 #@! TO.C,J2*
G04 #@! TA.AperFunction,ComponentPad*
G36*
G01*
X24475000Y42400000D02*
X23225000Y42400000D01*
G75*
G02*
X22975000Y42650000I0J250000D01*
G01*
X22975000Y43350000D01*
G75*
G02*
X23225000Y43600000I250000J0D01*
G01*
X24475000Y43600000D01*
G75*
G02*
X24725000Y43350000I0J-250000D01*
G01*
X24725000Y42650000D01*
G75*
G02*
X24475000Y42400000I-250000J0D01*
G01*
G37*
G04 #@! TD.AperFunction*
D11*
G04 #@! TO.N,/USB+*
X23850000Y45000000D03*
G04 #@! TO.N,/USB-*
X23850000Y47000000D03*
G04 #@! TO.N,/VBUS*
X23850000Y49000000D03*
G04 #@! TD*
D12*
G04 #@! TO.N,+5VA*
G04 #@! TO.C,M1*
X62099990Y37300000D03*
G04 #@! TO.N,GNDA*
X57799990Y37300010D03*
G04 #@! TO.N,unconnected-(M1-I2C_SCL_(PB10)-PadE3)*
X57000000Y37300010D03*
G04 #@! TO.N,unconnected-(M1-I2C_SDA_(PB11)-PadE4)*
X56199990Y37300010D03*
G04 #@! TO.N,Net-(M1-IN_VIGN_(PA5))*
X55399990Y37300010D03*
G04 #@! TO.N,unconnected-(M1-SPI2_CS_{slash}_CAN2_RX_(PB12)-PadE6)*
X54599990Y37300010D03*
G04 #@! TO.N,unconnected-(M1-SPI2_SCK_{slash}_CAN2_TX_(PB13)-PadE7)*
X53799990Y37300010D03*
G04 #@! TO.N,/DC1_DIS*
X52999990Y37300010D03*
G04 #@! TO.N,/DC2_DIR*
X52199990Y37300010D03*
G04 #@! TO.N,unconnected-(M1-OUT_INJ8_(PD12)-PadE10)*
X51399990Y37300010D03*
G04 #@! TO.N,unconnected-(M1-OUT_INJ7_(PD15)-PadE11)*
X50599990Y37300010D03*
G04 #@! TO.N,unconnected-(M1-OUT_INJ6_(PA8)-PadE12)*
X49799990Y37300010D03*
G04 #@! TO.N,/HS*
X48999990Y37300010D03*
G04 #@! TO.N,/INJ4_IN*
X48199990Y37300010D03*
G04 #@! TO.N,/INJ3_IN*
X47399990Y37300010D03*
G04 #@! TO.N,/INJ2_IN*
X46600000Y37300000D03*
G04 #@! TO.N,/INJ1_IN*
X45799990Y37300010D03*
G04 #@! TO.N,/LS1*
X44399990Y37300010D03*
G04 #@! TO.N,/LS2*
X43600000Y37300010D03*
G04 #@! TO.N,/DC1_PWM*
X42800000Y37300010D03*
G04 #@! TO.N,/DC1_DIR*
X42000000Y37300010D03*
G04 #@! TO.N,/DC2_PWM*
X41200000Y37300010D03*
G04 #@! TO.N,unconnected-(M1-OUT_PWM6_(PD14)-PadE23)*
X40399990Y37300010D03*
D13*
G04 #@! TO.N,GND*
X35550000Y3700000D03*
D14*
X38599990Y3700000D03*
D13*
X41650000Y3700000D03*
D15*
X46099990Y3700000D03*
D16*
X59749990Y3700000D03*
D17*
X67749990Y3700000D03*
D18*
X68800000Y5500010D03*
D19*
X33000000Y7600000D03*
D20*
X33000000Y13650000D03*
D21*
X33000000Y17150000D03*
D18*
X33000000Y26900000D03*
D19*
X68800000Y34400000D03*
D22*
X36399980Y37500010D03*
D14*
X45100000Y37500010D03*
D23*
X59950000Y37500010D03*
D24*
X65750000Y37500010D03*
D12*
G04 #@! TO.N,/VBUS*
X33199990Y36900010D03*
G04 #@! TO.N,/USB-*
X33199990Y36100010D03*
G04 #@! TO.N,/USB+*
X33199990Y35300010D03*
G04 #@! TO.N,/DC2_DIS*
X33199990Y34500000D03*
G04 #@! TO.N,unconnected-(M1-SWDIO_(PA13)-PadN5)*
X33199990Y33700010D03*
G04 #@! TO.N,unconnected-(M1-SWCLK_(PA14)-PadN6)*
X33199990Y32900010D03*
G04 #@! TO.N,unconnected-(M1-nReset-PadN7)*
X33199990Y32100010D03*
G04 #@! TO.N,unconnected-(M1-SWO_(PB3)-PadN8)*
X33199990Y31300000D03*
G04 #@! TO.N,unconnected-(M1-SPI3_CS_(PA15)-PadN9)*
X33200000Y30500010D03*
G04 #@! TO.N,unconnected-(M1-SPI3_SCK_(PC10)-PadN10)*
X33200000Y29700010D03*
G04 #@! TO.N,unconnected-(M1-SPI3_MISO_(PC11)-PadN11)*
X33200000Y28900010D03*
G04 #@! TO.N,/PG_5VP*
X33200000Y28100010D03*
G04 #@! TO.N,unconnected-(M1-UART2_TX_(PD5)-PadN13)*
X33200000Y25700000D03*
G04 #@! TO.N,unconnected-(M1-UART2_RX_(PD6)-PadN14)*
X33200000Y24900000D03*
G04 #@! TO.N,unconnected-(M1-LED_GREEN-PadN14a)*
X33199990Y24100010D03*
G04 #@! TO.N,unconnected-(M1-LED_YELLOW-PadN14b)*
X33199990Y23300000D03*
G04 #@! TO.N,+3.3VA*
X33199990Y22500000D03*
G04 #@! TO.N,unconnected-(M1-BOOT0-PadN16)*
X33199990Y21700000D03*
G04 #@! TO.N,Net-(D3-K)*
X33199990Y20900000D03*
G04 #@! TO.N,unconnected-(M1-UART8_RX_(PE0)-PadN18)*
X33200000Y20100000D03*
G04 #@! TO.N,/VR_MAX9924*
X33200000Y19300000D03*
G04 #@! TO.N,/EN_5VP*
X33200000Y15000000D03*
G04 #@! TO.N,+3.3V*
X33200000Y12300000D03*
G04 #@! TO.N,+5V*
X33200000Y11300010D03*
G04 #@! TO.N,unconnected-(M1-V33-PadN23)*
X33200000Y3900000D03*
G04 #@! TO.N,/IN_D3*
X68600000Y30700020D03*
G04 #@! TO.N,/IN_D2*
X68600000Y29500010D03*
G04 #@! TO.N,/IN_D1*
X68600000Y28300010D03*
G04 #@! TO.N,/IN_CMP*
X68600000Y27100010D03*
G04 #@! TO.N,unconnected-(M1-VREF2-PadS5)*
X68600000Y25900010D03*
G04 #@! TO.N,/IN_VMAIN*
X68600000Y24700010D03*
G04 #@! TO.N,unconnected-(M1-IN_AUX3_(PA7)-PadS7)*
X68600000Y23500010D03*
G04 #@! TO.N,unconnected-(M1-IN_AUX2_(PC4{slash}PE9)-PadS8)*
X68600000Y22300010D03*
G04 #@! TO.N,unconnected-(M1-IN_AUX1_(PB0)-PadS9)*
X68600000Y21100010D03*
G04 #@! TO.N,/IN_AUX2*
X68600000Y19900010D03*
G04 #@! TO.N,/IN_AUX1*
X68600000Y18700010D03*
G04 #@! TO.N,unconnected-(M1-IN_MAP2_(PC1)-PadS12)*
X68600000Y17500010D03*
G04 #@! TO.N,/IN_MAP*
X68600000Y16300010D03*
G04 #@! TO.N,unconnected-(M1-IN_CRANK_(PB1)-PadS14)*
X68600000Y15100010D03*
G04 #@! TO.N,unconnected-(M1-IN_KNOCK_(PA2)-PadS15)*
X68600000Y13900010D03*
G04 #@! TO.N,unconnected-(M1-IN_CAM_(PA6)-PadS16)*
X68600000Y12700010D03*
G04 #@! TO.N,unconnected-(M1-IN_VSS_(PE11)-PadS17)*
X68600000Y11500010D03*
G04 #@! TO.N,/IN_TPS*
X68600000Y10300000D03*
G04 #@! TO.N,unconnected-(M1-IN_PPS_(PA3)-PadS19)*
X68600000Y9100000D03*
G04 #@! TO.N,/IN_IAT*
X68600000Y7900000D03*
G04 #@! TO.N,/IN_CLT*
X68600000Y6700000D03*
G04 #@! TO.N,unconnected-(M1-VREF1-PadS22)*
X68600000Y4300000D03*
G04 #@! TO.N,unconnected-(M1-GNDA-PadW1)*
X66099990Y3900000D03*
G04 #@! TO.N,unconnected-(M1-V5A_SWITCHABLE-PadW2)*
X65099990Y3900000D03*
G04 #@! TO.N,unconnected-(M1-IGN8_(PE6)-PadW3)*
X54400000Y3900000D03*
G04 #@! TO.N,unconnected-(M1-IGN7_(PB9)-PadW4)*
X53399990Y3900000D03*
G04 #@! TO.N,unconnected-(M1-IGN6_(PB8)-PadW5)*
X52400000Y3900000D03*
G04 #@! TO.N,unconnected-(M1-IGN5_(PE2)-PadW6)*
X51400000Y3900000D03*
G04 #@! TO.N,unconnected-(M1-IGN4_(PE3)-PadW7)*
X50400000Y3900000D03*
G04 #@! TO.N,/IGN3_IN*
X49400000Y3900000D03*
G04 #@! TO.N,/IGN2_IN*
X48400000Y3900000D03*
G04 #@! TO.N,/IGN1_IN*
X47400000Y3900000D03*
G04 #@! TO.N,/CAN-H*
X44800000Y3900000D03*
G04 #@! TO.N,/CAN-L*
X44000000Y3900000D03*
G04 #@! TO.N,unconnected-(M1-V33_REF-PadW13)*
X39299990Y3900000D03*
G04 #@! TO.N,unconnected-(M1-V5A_SWITCHABLE-PadW14)*
X37900000Y3900000D03*
G04 #@! TD*
D25*
G04 #@! TO.N,/IGN1_OUT*
G04 #@! TO.C,J1*
X49850000Y65300000D03*
G04 #@! TO.N,/IGN2_OUT*
X49850000Y67800000D03*
G04 #@! TO.N,/IGN3_OUT*
X49850000Y70300000D03*
G04 #@! TO.N,/TACH*
X49850000Y72800000D03*
G04 #@! TO.N,/OUT_1*
X47350000Y65300000D03*
G04 #@! TO.N,/IN_IAT*
X47350000Y67800000D03*
G04 #@! TO.N,/IN_CLT*
X47350000Y70300000D03*
G04 #@! TO.N,/IN_MAP*
X47350000Y72800000D03*
G04 #@! TO.N,/INJ3_OUT*
X44850000Y65300000D03*
G04 #@! TO.N,/IN_TPS*
X44850000Y67800000D03*
G04 #@! TO.N,/IN_AUX1*
X44850000Y70300000D03*
G04 #@! TO.N,/IN_AUX2*
X44850000Y72800000D03*
G04 #@! TO.N,/INJ2_OUT*
X42350000Y65300000D03*
G04 #@! TO.N,/IN_D1*
X42350000Y67800000D03*
G04 #@! TO.N,/IN_D2*
X42350000Y70300000D03*
G04 #@! TO.N,/IN_D3*
X42350000Y72800000D03*
G04 #@! TO.N,/INJ1_OUT*
X39850000Y65300000D03*
G04 #@! TO.N,/VR-*
X39850000Y67800000D03*
G04 #@! TO.N,/IN_CMP*
X39850000Y70300000D03*
G04 #@! TO.N,GNDA*
X39850000Y72800000D03*
G04 #@! TO.N,+5VP*
X37350000Y65300000D03*
G04 #@! TO.N,/VR+*
X37350000Y67800000D03*
G04 #@! TO.N,/CAN-H*
X37350000Y70300000D03*
G04 #@! TO.N,/CAN-L*
X37350000Y72800000D03*
G04 #@! TO.N,+12V*
X33850000Y65300000D03*
G04 #@! TO.N,GND*
X33850000Y67800000D03*
G04 #@! TO.N,/OUT_2*
X33850000Y70300000D03*
G04 #@! TO.N,/OUT_3*
X33850000Y72800000D03*
G04 #@! TO.N,/DC2-*
X30150000Y65300000D03*
G04 #@! TO.N,/DC1-*
X30150000Y67800000D03*
G04 #@! TO.N,/DC1+*
X30150000Y70300000D03*
G04 #@! TO.N,/DC2+*
X30150000Y72800000D03*
G04 #@! TD*
D10*
G04 #@! TO.N,+12V*
G04 #@! TO.C,F5*
X22500000Y59950000D03*
G04 #@! TO.N,/DC Drivers/DC2_PWR*
X22500000Y55050000D03*
G04 #@! TD*
G04 #@! TO.N,Net-(M3-PG_5VP)*
G04 #@! TO.C,R16*
X23695000Y1900000D03*
G04 #@! TO.N,/PG_5VP*
X27505000Y1900000D03*
G04 #@! TD*
G04 #@! TO.N,+12V*
G04 #@! TO.C,F4*
X20000000Y59950000D03*
G04 #@! TO.N,/DC Drivers/DC1_PWR*
X20000000Y55050000D03*
G04 #@! TD*
G04 #@! TO.N,+12V*
G04 #@! TO.C,F6*
X26000000Y59950000D03*
G04 #@! TO.N,/IN_VING*
X26000000Y55050000D03*
G04 #@! TD*
D12*
G04 #@! TO.N,unconnected-(M2-NC-PadE1)*
G04 #@! TO.C,M2*
X11662500Y30800000D03*
G04 #@! TO.N,unconnected-(M2-NC-PadE2)*
X11662500Y32000000D03*
G04 #@! TO.N,/VR_MAX9924*
X11662500Y29600000D03*
G04 #@! TO.N,+5VA*
X11662500Y28400000D03*
D26*
G04 #@! TO.N,GND*
X26312500Y31067500D03*
D27*
X26312500Y37117500D03*
D28*
X19300000Y28100000D03*
D29*
X18887500Y37550000D03*
D30*
X11462500Y35087500D03*
D12*
G04 #@! TO.N,/VR-*
X26087500Y34860000D03*
G04 #@! TO.N,/VR+*
X26087500Y35860000D03*
G04 #@! TD*
D31*
G04 #@! TO.N,Net-(D3-K)*
G04 #@! TO.C,M3*
X27574995Y23324999D03*
G04 #@! TO.N,unconnected-(M3-V12-PadE2)*
X27574995Y16925002D03*
G04 #@! TO.N,Net-(M1-IN_VIGN_(PA5))*
X27574995Y15024999D03*
G04 #@! TO.N,+5V*
X27574995Y10724999D03*
D12*
G04 #@! TO.N,/EN_5VP*
X28024994Y8325002D03*
G04 #@! TO.N,Net-(M3-PG_5VP)*
X28024994Y7325001D03*
D32*
G04 #@! TO.N,GND*
X11424999Y19474999D03*
D33*
X11424999Y10975001D03*
D34*
X11424999Y3874999D03*
D35*
X19824997Y3824999D03*
D36*
X20624998Y24424999D03*
D31*
X27574995Y4474999D03*
D34*
X28224996Y24374999D03*
D37*
X28224996Y20175001D03*
D38*
X28224996Y12824999D03*
D39*
X28224996Y9325002D03*
D40*
X28224996Y6025001D03*
D31*
G04 #@! TO.N,+12V_RAW*
X12074998Y23775001D03*
G04 #@! TO.N,/IN_VING*
X12074998Y21925002D03*
G04 #@! TO.N,+12V_RAW*
X12074998Y16974999D03*
G04 #@! TO.N,+5VP*
X12074998Y4925001D03*
G04 #@! TD*
D41*
G04 #@! TO.N,Net-(BT1-+)*
X33000000Y40900000D03*
X24500000Y25800000D03*
G04 #@! TO.N,GND*
X38400000Y41700000D03*
X42800000Y56800000D03*
X46300000Y53200000D03*
X23800000Y62300000D03*
X32300000Y18200000D03*
X26100000Y65400000D03*
X52700000Y53400000D03*
X53800000Y53400000D03*
X13200000Y61400000D03*
X32000000Y26900000D03*
X10700000Y20000000D03*
X54900000Y53400000D03*
X26400000Y70100000D03*
X59500000Y57800000D03*
X10900000Y61300000D03*
X18000000Y42600000D03*
X14400000Y60200000D03*
X71800000Y28200000D03*
X27300000Y65400000D03*
X26200000Y66500000D03*
X16100000Y3000000D03*
X36600000Y45800000D03*
X10200000Y41100000D03*
X46500000Y3000000D03*
X41300000Y3000000D03*
X44900000Y44700000D03*
X49500000Y53200000D03*
X35000000Y75300000D03*
X14100000Y25100000D03*
X16100000Y49700000D03*
X10800000Y7500000D03*
X76200000Y25300000D03*
X48400000Y53200000D03*
X35600000Y71500000D03*
X69400000Y34600000D03*
X18400000Y25200000D03*
X14400000Y63700000D03*
X44100000Y53200000D03*
X18600000Y63700000D03*
X32300000Y13500000D03*
X69400000Y36300000D03*
X57500000Y69700000D03*
X28900000Y20400000D03*
X76200000Y26700000D03*
X37100000Y42800000D03*
X13200000Y60200000D03*
X1800000Y45900000D03*
X52000000Y69500000D03*
X68500000Y58400000D03*
X76200000Y32400000D03*
X51100000Y53600000D03*
X63600000Y3000000D03*
X59900000Y3000000D03*
X14400000Y61400000D03*
X32700000Y75300000D03*
X19700000Y45200000D03*
X32300000Y16100000D03*
X33900000Y75300000D03*
X31900000Y23800000D03*
X38700000Y38200000D03*
X14500000Y3000000D03*
X11600000Y41100000D03*
X4300000Y50500000D03*
X63700000Y64100000D03*
X47300000Y43400000D03*
X29000000Y13300000D03*
X10700000Y11000000D03*
X76200000Y29600000D03*
X44900000Y43100000D03*
X51100000Y58000000D03*
X1000000Y62900000D03*
X23100000Y25200000D03*
X51100000Y55800000D03*
X5800000Y60200000D03*
X60800000Y38200000D03*
X2600000Y59800000D03*
X51100000Y56900000D03*
X47300000Y53200000D03*
X71800000Y22100000D03*
X10100000Y15500000D03*
X22400000Y62300000D03*
X76200000Y31000000D03*
X57900000Y3000000D03*
X6600000Y38600000D03*
X20600000Y25200000D03*
X64000000Y41500000D03*
X59100000Y38200000D03*
X29500000Y63100000D03*
X12400000Y49700000D03*
X25000000Y66600000D03*
X27400000Y66600000D03*
X16400000Y67200000D03*
X10400000Y49700000D03*
X20900000Y62300000D03*
X15500000Y60200000D03*
X5700000Y39300000D03*
X59500000Y58900000D03*
X4900000Y40000000D03*
X16500000Y60200000D03*
X33800000Y62100000D03*
X2800000Y42200000D03*
X44900000Y46400000D03*
X61700000Y3000000D03*
X19000000Y3000000D03*
X9900000Y61300000D03*
X59500000Y56700000D03*
X32100000Y7300000D03*
X62400000Y65500000D03*
X51100000Y59100000D03*
X25100000Y65500000D03*
X39600000Y57500000D03*
X26400000Y69000000D03*
X8400000Y49700000D03*
X9800000Y60200000D03*
X55900000Y53400000D03*
X47300000Y45400000D03*
X44500000Y38600000D03*
X13000000Y41100000D03*
X28600000Y62200000D03*
X12900000Y63700000D03*
X13100000Y3000000D03*
X76200000Y28100000D03*
X14500000Y41100000D03*
X16500000Y25200000D03*
X35300000Y3000000D03*
X67800000Y3000000D03*
X4200000Y40700000D03*
X51900000Y66900000D03*
X36100000Y75300000D03*
X66200000Y61100000D03*
X42200000Y50900000D03*
X12100000Y61400000D03*
X15300000Y66200000D03*
X10900000Y60200000D03*
X67600000Y38200000D03*
X29600000Y50000000D03*
X26400000Y38400000D03*
X1900000Y1800000D03*
X28000000Y68900000D03*
X15600000Y61300000D03*
X17600000Y3000000D03*
X59500000Y55600000D03*
X32200000Y9300000D03*
X12100000Y60200000D03*
X69400000Y32700000D03*
X16600000Y61400000D03*
X20800000Y3000000D03*
X39600000Y55900000D03*
X53700000Y43300000D03*
X37400000Y63100000D03*
X15800000Y63700000D03*
X55700000Y3000000D03*
X58200000Y63300000D03*
X30100000Y75300000D03*
X8800000Y60100000D03*
X4600000Y45800000D03*
X65100000Y62300000D03*
X27300000Y52500000D03*
X33800000Y63200000D03*
X14200000Y65100000D03*
X37300000Y38200000D03*
X3500000Y41400000D03*
X32200000Y5600000D03*
X37500000Y75300000D03*
X17200000Y63700000D03*
X28000000Y70100000D03*
X53700000Y45500000D03*
X43700000Y41800000D03*
X42800000Y55700000D03*
X31500000Y75300000D03*
X45200000Y53200000D03*
G04 #@! TO.N,/TACH*
X62700000Y50700000D03*
X53400000Y67200000D03*
G04 #@! TO.N,/DC1-*
X4400000Y56400000D03*
X18200000Y61400000D03*
G04 #@! TO.N,/DC2-*
X18800000Y52900000D03*
X4300000Y47200000D03*
G04 #@! TO.N,+3.3VA*
X52100000Y38850000D03*
X55000000Y41300000D03*
X31900000Y30600000D03*
G04 #@! TO.N,+12V_RAW*
X30900000Y54500000D03*
X33700000Y53600000D03*
X61665000Y55300000D03*
G04 #@! TO.N,/OUT_3*
X31000000Y60200000D03*
G04 #@! TO.N,/IGN1_IN*
X63500000Y38500000D03*
G04 #@! TO.N,/IGN2_IN*
X64700000Y38500000D03*
G04 #@! TO.N,/IGN3_IN*
X65900000Y38500000D03*
G04 #@! TO.N,+12V*
X71950000Y25975000D03*
G04 #@! TO.N,+3.3V*
X2400000Y54900000D03*
X17800000Y44400000D03*
X2200000Y43400000D03*
X65100000Y43000000D03*
X17600000Y53700000D03*
X3379657Y3679657D03*
G04 #@! TO.N,/DC1_DIS*
X2700000Y51600000D03*
X24600000Y38800000D03*
X3100000Y45800000D03*
G04 #@! TO.N,/DC1_PWM*
X4600000Y52600000D03*
X21605517Y51224757D03*
G04 #@! TO.N,/DC2_DIR*
X40459625Y40559625D03*
X54358025Y38631926D03*
G04 #@! TO.N,/IN_IAT*
X57759620Y74359620D03*
G04 #@! TO.N,/IN_CLT*
X56700826Y75418414D03*
G04 #@! TO.N,/IN_MAP*
X53934926Y76134926D03*
G04 #@! TO.N,/IN_TPS*
X55300000Y75900000D03*
G04 #@! TO.N,/IN_AUX1*
X52575306Y76575306D03*
G04 #@! TO.N,/IN_AUX2*
X51265686Y76965686D03*
G04 #@! TO.N,/IN_D3*
X44800000Y75200000D03*
G04 #@! TO.N,+5VP*
X11500000Y25200000D03*
X8100000Y17900000D03*
X31800000Y49613173D03*
X28750000Y32100000D03*
X32600000Y46300000D03*
G04 #@! TO.N,/CAN-H*
X38600000Y59000000D03*
G04 #@! TO.N,+5VA*
X56500000Y46800000D03*
G04 #@! TO.N,/LS2*
X39100000Y42700000D03*
X42200000Y42900000D03*
G04 #@! TO.N,/PG_5VP*
X29900000Y11800000D03*
X30000000Y8800000D03*
G04 #@! TO.N,/Injectors/OUT_5V_3*
X54700000Y50400000D03*
G04 #@! TO.N,/Injectors/OUT_5V_4*
X56100000Y50475000D03*
G04 #@! TO.N,/DC Drivers/DC1_PWR*
X18600000Y55700000D03*
X17400000Y55700000D03*
G04 #@! TO.N,/DC Drivers/DC2_PWR*
X17600000Y46500000D03*
X20100000Y48100000D03*
X19300000Y47300000D03*
X18500000Y46500000D03*
G04 #@! TD*
D42*
G04 #@! TO.N,Net-(BT1-+)*
X29600000Y29000000D02*
X26400000Y25800000D01*
X33000000Y40900000D02*
X29600000Y37500000D01*
X26400000Y25800000D02*
X24500000Y25800000D01*
X29600000Y37500000D02*
X29600000Y29000000D01*
D43*
G04 #@! TO.N,GND*
X44500000Y38600000D02*
X44500000Y38100010D01*
X44500000Y38100010D02*
X45100000Y37500010D01*
D42*
G04 #@! TO.N,+3.3VA*
X51600000Y39350000D02*
X34049970Y39350000D01*
X52100000Y38850000D02*
X51600000Y39350000D01*
X31900000Y37200030D02*
X31900000Y30600000D01*
X34049970Y39350000D02*
X31900000Y37200030D01*
D44*
G04 #@! TO.N,+12V_RAW*
X28400000Y55050000D02*
X26850000Y53500000D01*
X8600000Y26600000D02*
X11424999Y23775001D01*
X26300000Y53500000D02*
X22000000Y49200000D01*
X28400000Y55050000D02*
X28950000Y54500000D01*
X8600000Y37800000D02*
X8600000Y26600000D01*
X11424999Y23775001D02*
X12074998Y23775001D01*
X22000000Y43100000D02*
X18150000Y39250000D01*
X60765000Y54400000D02*
X61665000Y55300000D01*
X34500000Y54400000D02*
X60765000Y54400000D01*
X18150000Y39250000D02*
X10050000Y39250000D01*
X10050000Y39250000D02*
X8600000Y37800000D01*
X26850000Y53500000D02*
X26300000Y53500000D01*
X28950000Y54500000D02*
X30900000Y54500000D01*
X22000000Y49200000D02*
X22000000Y43100000D01*
X33700000Y53600000D02*
X34500000Y54400000D01*
D42*
G04 #@! TO.N,+12V*
X72600000Y48800000D02*
X72550000Y48850000D01*
X32050000Y54023654D02*
X32050000Y56300000D01*
X31100000Y53073654D02*
X32050000Y54023654D01*
X31100000Y49236396D02*
X31100000Y53073654D01*
X32050000Y56300000D02*
X28400000Y59950000D01*
X71950000Y25975000D02*
X72600000Y26625000D01*
X72600000Y26625000D02*
X72600000Y48800000D01*
X72550000Y48850000D02*
X31486396Y48850000D01*
X31486396Y48850000D02*
X31100000Y49236396D01*
G04 #@! TO.N,+3.3V*
X25648105Y56200000D02*
X23148105Y53700000D01*
X6459313Y600000D02*
X3379657Y3679657D01*
X65100000Y43000000D02*
X61300000Y43000000D01*
X31600000Y54789950D02*
X30189950Y56200000D01*
X1100000Y5959313D02*
X1100000Y42300000D01*
X30189950Y56200000D02*
X25648105Y56200000D01*
X2400000Y54900000D02*
X2400000Y53900000D01*
X1100000Y42300000D02*
X2200000Y43400000D01*
X30000000Y600000D02*
X6459313Y600000D01*
X16900000Y53000000D02*
X17600000Y53700000D01*
X31200000Y10300000D02*
X31200000Y1800000D01*
X33200000Y12300000D02*
X31200000Y10300000D01*
X30500000Y49200000D02*
X30500000Y53110050D01*
X31300000Y48400000D02*
X30500000Y49200000D01*
X31200000Y1800000D02*
X30000000Y600000D01*
X2400000Y53900000D02*
X900000Y52400000D01*
X16900000Y45300000D02*
X16900000Y53000000D01*
X61300000Y43000000D02*
X55900000Y48400000D01*
X65250000Y42850000D02*
X65350000Y42850000D01*
X65100000Y43000000D02*
X65250000Y42850000D01*
X2200000Y43400000D02*
X17800000Y43400000D01*
X900000Y52400000D02*
X900000Y44000000D01*
X30500000Y53110050D02*
X31600000Y54210050D01*
X900000Y44000000D02*
X1500000Y43400000D01*
X3379657Y3679657D02*
X1100000Y5959313D01*
X1500000Y43400000D02*
X2200000Y43400000D01*
X17800000Y44400000D02*
X16900000Y45300000D01*
X17800000Y43400000D02*
X17800000Y44400000D01*
X31600000Y54210050D02*
X31600000Y54789950D01*
X55900000Y48400000D02*
X31300000Y48400000D01*
X23148105Y53700000D02*
X17600000Y53700000D01*
D44*
G04 #@! TO.N,+5VP*
X9500000Y6525001D02*
X11100000Y4925001D01*
X8100000Y17900000D02*
X8100000Y14400000D01*
X12400000Y26100000D02*
X11500000Y25200000D01*
X35700000Y59300000D02*
X35700000Y63650000D01*
X32600000Y56200000D02*
X35700000Y59300000D01*
X28800000Y29400000D02*
X26000000Y26600000D01*
X31800000Y52995836D02*
X32600000Y53795837D01*
X24168629Y26600000D02*
X23668629Y26100000D01*
X30400000Y46300000D02*
X28800000Y44700000D01*
X9500000Y13000000D02*
X9500000Y6525001D01*
X23668629Y26100000D02*
X12400000Y26100000D01*
X28800000Y44700000D02*
X28800000Y29400000D01*
X35700000Y63650000D02*
X37350000Y65300000D01*
X32600000Y46300000D02*
X30400000Y46300000D01*
X8100000Y14400000D02*
X9500000Y13000000D01*
X32600000Y53795837D02*
X32600000Y56200000D01*
X26000000Y26600000D02*
X24168629Y26600000D01*
X11100000Y4925001D02*
X12074998Y4925001D01*
X31800000Y49613173D02*
X31800000Y52995836D01*
D42*
G04 #@! TO.N,+5VA*
X30710050Y47600000D02*
X53300000Y47600000D01*
X11762500Y38700000D02*
X21810050Y38700000D01*
X55700000Y47600000D02*
X53300000Y47600000D01*
X10500000Y37437500D02*
X11762500Y38700000D01*
X56500000Y46800000D02*
X55700000Y47600000D01*
X21810050Y38700000D02*
X30710050Y47600000D01*
X53300000Y47600000D02*
X62099990Y38800010D01*
X62099990Y38800010D02*
X62099990Y37300000D01*
X10500000Y29562500D02*
X10500000Y37437500D01*
X11662500Y28400000D02*
X10500000Y29562500D01*
G04 #@! TO.N,Net-(M1-IN_VIGN_(PA5))*
X52200000Y39800000D02*
X54100000Y37900000D01*
X33000000Y39800000D02*
X52200000Y39800000D01*
X54100000Y37900000D02*
X54848529Y37900000D01*
X54848529Y37900000D02*
X55399990Y37348539D01*
X30650000Y18100004D02*
X30650000Y37450000D01*
X55399990Y37348539D02*
X55399990Y37300010D01*
X27574995Y15024999D02*
X30650000Y18100004D01*
X30650000Y37450000D02*
X33000000Y39800000D01*
G04 #@! TO.N,/PG_5VP*
X30350000Y12250000D02*
X30350000Y17163608D01*
X31100000Y17913608D02*
X31100000Y27500000D01*
X27505000Y1900000D02*
X30000000Y1900000D01*
X29900000Y11800000D02*
X30350000Y12250000D01*
X31100000Y27500000D02*
X31700010Y28100010D01*
X31700010Y28100010D02*
X33200000Y28100010D01*
X30350000Y17163608D02*
X31100000Y17913608D01*
X30000000Y1900000D02*
X30000000Y8800000D01*
G04 #@! TO.N,/EN_5VP*
X30800000Y14500000D02*
X31300000Y15000000D01*
X30800000Y10900000D02*
X30800000Y14500000D01*
X28225002Y8325002D02*
X30800000Y10900000D01*
X31300000Y15000000D02*
X33200000Y15000000D01*
X28024994Y8325002D02*
X28225002Y8325002D01*
G04 #@! TO.N,Net-(M3-PG_5VP)*
X23695000Y1900000D02*
X24795000Y3000000D01*
X29400000Y3800000D02*
X29400000Y7325001D01*
X29400000Y7325001D02*
X28024994Y7325001D01*
X24795000Y3000000D02*
X28600000Y3000000D01*
X28600000Y3000000D02*
X29400000Y3800000D01*
D44*
G04 #@! TO.N,/IN_VING*
X21200000Y49319239D02*
X21200000Y43500000D01*
X7800000Y26200000D02*
X12074998Y21925002D01*
X21200000Y43500000D02*
X17700000Y40000000D01*
X17700000Y40000000D02*
X9700000Y40000000D01*
X26000000Y55050000D02*
X26000000Y54119239D01*
X9700000Y40000000D02*
X7800000Y38100000D01*
X26000000Y54119239D02*
X21200000Y49319239D01*
X7800000Y38100000D02*
X7800000Y26200000D01*
G04 #@! TD*
G04 #@! TA.AperFunction,Conductor*
G04 #@! TO.N,GND*
G36*
X77002777Y79799345D02*
G01*
X77307898Y79782209D01*
X77318921Y79780967D01*
X77617476Y79730241D01*
X77628270Y79727778D01*
X77919279Y79643939D01*
X77929750Y79640275D01*
X78209523Y79524389D01*
X78219525Y79519572D01*
X78484555Y79373095D01*
X78493955Y79367189D01*
X78740930Y79191951D01*
X78749610Y79185028D01*
X78975399Y78983250D01*
X78983249Y78975400D01*
X79185027Y78749611D01*
X79191950Y78740931D01*
X79367188Y78493956D01*
X79373094Y78484556D01*
X79519571Y78219526D01*
X79524388Y78209524D01*
X79640272Y77929755D01*
X79643939Y77919276D01*
X79727773Y77628286D01*
X79730243Y77617462D01*
X79780965Y77318927D01*
X79782208Y77307895D01*
X79793893Y77099844D01*
X79799298Y77003588D01*
X79799344Y77002778D01*
X79799500Y76997227D01*
X79799500Y3002774D01*
X79799344Y2997223D01*
X79782208Y2692106D01*
X79780965Y2681074D01*
X79730243Y2382539D01*
X79727773Y2371715D01*
X79643939Y2080725D01*
X79640272Y2070246D01*
X79524388Y1790477D01*
X79519571Y1780475D01*
X79373094Y1515445D01*
X79367188Y1506045D01*
X79191950Y1259070D01*
X79185027Y1250390D01*
X78983249Y1024601D01*
X78975399Y1016751D01*
X78749610Y814973D01*
X78740930Y808050D01*
X78493955Y632812D01*
X78484555Y626906D01*
X78219525Y480429D01*
X78209523Y475612D01*
X77929754Y359728D01*
X77919275Y356061D01*
X77628285Y272227D01*
X77617461Y269757D01*
X77318926Y219035D01*
X77307894Y217792D01*
X77002778Y200656D01*
X76997227Y200500D01*
X30335189Y200500D01*
X30276998Y219407D01*
X30241034Y268907D01*
X30241034Y330093D01*
X30265183Y369502D01*
X31480469Y1584788D01*
X31526614Y1664712D01*
X31526616Y1664718D01*
X31531993Y1684786D01*
X31531993Y1684788D01*
X31531994Y1684791D01*
X31550500Y1753856D01*
X31550500Y10113811D01*
X31569407Y10172002D01*
X31579490Y10183809D01*
X32563348Y11167668D01*
X32617863Y11195443D01*
X32678295Y11185872D01*
X32721560Y11142607D01*
X32723403Y11138789D01*
X32774621Y11026639D01*
X32868873Y10917866D01*
X32954513Y10862829D01*
X32993244Y10815463D01*
X32999990Y10779545D01*
X32999990Y4420466D01*
X32981083Y4362275D01*
X32954514Y4337182D01*
X32868872Y4282143D01*
X32774622Y4173372D01*
X32714834Y4042457D01*
X32694353Y3900003D01*
X32694353Y3899998D01*
X32714834Y3757544D01*
X32762687Y3652762D01*
X32774623Y3626627D01*
X32864503Y3522899D01*
X32868873Y3517856D01*
X32868875Y3517855D01*
X32989947Y3440047D01*
X33083451Y3412592D01*
X33128035Y3399501D01*
X33128036Y3399501D01*
X33128039Y3399500D01*
X33128041Y3399500D01*
X33271959Y3399500D01*
X33271961Y3399500D01*
X33410053Y3440047D01*
X33531128Y3517857D01*
X33625377Y3626627D01*
X33632456Y3642127D01*
X33673829Y3687204D01*
X33722509Y3700000D01*
X37377491Y3700000D01*
X37435682Y3681093D01*
X37467544Y3642127D01*
X37474621Y3626629D01*
X37474819Y3626401D01*
X37557205Y3531321D01*
X37568873Y3517856D01*
X37568875Y3517855D01*
X37689947Y3440047D01*
X37783451Y3412592D01*
X37828035Y3399501D01*
X37828036Y3399501D01*
X37828039Y3399500D01*
X37828041Y3399500D01*
X37971959Y3399500D01*
X37971961Y3399500D01*
X38110053Y3440047D01*
X38231128Y3517857D01*
X38325377Y3626627D01*
X38332456Y3642127D01*
X38373829Y3687204D01*
X38422509Y3700000D01*
X38777481Y3700000D01*
X38835672Y3681093D01*
X38867534Y3642127D01*
X38874611Y3626629D01*
X38874809Y3626401D01*
X38957195Y3531321D01*
X38968863Y3517856D01*
X38968865Y3517855D01*
X39089937Y3440047D01*
X39183441Y3412592D01*
X39228025Y3399501D01*
X39228026Y3399501D01*
X39228029Y3399500D01*
X39228031Y3399500D01*
X39371949Y3399500D01*
X39371951Y3399500D01*
X39510043Y3440047D01*
X39631118Y3517857D01*
X39725367Y3626627D01*
X39732446Y3642127D01*
X39773819Y3687204D01*
X39822499Y3700000D01*
X43477491Y3700000D01*
X43535682Y3681093D01*
X43567544Y3642127D01*
X43574621Y3626629D01*
X43574819Y3626401D01*
X43657205Y3531321D01*
X43668873Y3517856D01*
X43668875Y3517855D01*
X43789947Y3440047D01*
X43883451Y3412592D01*
X43928035Y3399501D01*
X43928036Y3399501D01*
X43928039Y3399500D01*
X43928041Y3399500D01*
X44071959Y3399500D01*
X44071961Y3399500D01*
X44210053Y3440047D01*
X44331128Y3517857D01*
X44331136Y3517867D01*
X44335165Y3521356D01*
X44391523Y3545176D01*
X44451119Y3531321D01*
X44464835Y3521356D01*
X44468866Y3517863D01*
X44468872Y3517857D01*
X44589947Y3440047D01*
X44683451Y3412592D01*
X44728035Y3399501D01*
X44728036Y3399501D01*
X44728039Y3399500D01*
X44728041Y3399500D01*
X44871959Y3399500D01*
X44871961Y3399500D01*
X45010053Y3440047D01*
X45131128Y3517857D01*
X45225377Y3626627D01*
X45232456Y3642127D01*
X45273829Y3687204D01*
X45322509Y3700000D01*
X46877491Y3700000D01*
X46935682Y3681093D01*
X46967544Y3642127D01*
X46974621Y3626629D01*
X46974819Y3626401D01*
X47057205Y3531321D01*
X47068873Y3517856D01*
X47068875Y3517855D01*
X47189947Y3440047D01*
X47283451Y3412592D01*
X47328035Y3399501D01*
X47328036Y3399501D01*
X47328039Y3399500D01*
X47328041Y3399500D01*
X47471959Y3399500D01*
X47471961Y3399500D01*
X47610053Y3440047D01*
X47731128Y3517857D01*
X47825182Y3626403D01*
X47877576Y3657997D01*
X47938537Y3652762D01*
X47974816Y3626404D01*
X48064503Y3522899D01*
X48068873Y3517856D01*
X48068875Y3517855D01*
X48189947Y3440047D01*
X48283451Y3412592D01*
X48328035Y3399501D01*
X48328036Y3399501D01*
X48328039Y3399500D01*
X48328041Y3399500D01*
X48471959Y3399500D01*
X48471961Y3399500D01*
X48610053Y3440047D01*
X48731128Y3517857D01*
X48825182Y3626403D01*
X48877576Y3657997D01*
X48938537Y3652762D01*
X48974816Y3626404D01*
X49064503Y3522899D01*
X49068873Y3517856D01*
X49068875Y3517855D01*
X49189947Y3440047D01*
X49283451Y3412592D01*
X49328035Y3399501D01*
X49328036Y3399501D01*
X49328039Y3399500D01*
X49328041Y3399500D01*
X49471959Y3399500D01*
X49471961Y3399500D01*
X49610053Y3440047D01*
X49731128Y3517857D01*
X49825182Y3626403D01*
X49877576Y3657997D01*
X49938537Y3652762D01*
X49974816Y3626404D01*
X50064503Y3522899D01*
X50068873Y3517856D01*
X50068875Y3517855D01*
X50189947Y3440047D01*
X50283451Y3412592D01*
X50328035Y3399501D01*
X50328036Y3399501D01*
X50328039Y3399500D01*
X50328041Y3399500D01*
X50471959Y3399500D01*
X50471961Y3399500D01*
X50610053Y3440047D01*
X50731128Y3517857D01*
X50825182Y3626403D01*
X50877576Y3657997D01*
X50938537Y3652762D01*
X50974816Y3626404D01*
X51064503Y3522899D01*
X51068873Y3517856D01*
X51068875Y3517855D01*
X51189947Y3440047D01*
X51283451Y3412592D01*
X51328035Y3399501D01*
X51328036Y3399501D01*
X51328039Y3399500D01*
X51328041Y3399500D01*
X51471959Y3399500D01*
X51471961Y3399500D01*
X51610053Y3440047D01*
X51731128Y3517857D01*
X51825182Y3626403D01*
X51877576Y3657997D01*
X51938537Y3652762D01*
X51974816Y3626404D01*
X52064503Y3522899D01*
X52068873Y3517856D01*
X52068875Y3517855D01*
X52189947Y3440047D01*
X52283451Y3412592D01*
X52328035Y3399501D01*
X52328036Y3399501D01*
X52328039Y3399500D01*
X52328041Y3399500D01*
X52471959Y3399500D01*
X52471961Y3399500D01*
X52610053Y3440047D01*
X52731128Y3517857D01*
X52825177Y3626397D01*
X52877571Y3657991D01*
X52938532Y3652756D01*
X52974812Y3626397D01*
X53064493Y3522899D01*
X53068863Y3517856D01*
X53068865Y3517855D01*
X53189937Y3440047D01*
X53283441Y3412592D01*
X53328025Y3399501D01*
X53328026Y3399501D01*
X53328029Y3399500D01*
X53328031Y3399500D01*
X53471949Y3399500D01*
X53471951Y3399500D01*
X53610043Y3440047D01*
X53731118Y3517857D01*
X53825177Y3626409D01*
X53877571Y3658003D01*
X53938532Y3652768D01*
X53974811Y3626410D01*
X54064503Y3522899D01*
X54068873Y3517856D01*
X54068875Y3517855D01*
X54189947Y3440047D01*
X54283451Y3412592D01*
X54328035Y3399501D01*
X54328036Y3399501D01*
X54328039Y3399500D01*
X54328041Y3399500D01*
X54471959Y3399500D01*
X54471961Y3399500D01*
X54610053Y3440047D01*
X54731128Y3517857D01*
X54825377Y3626627D01*
X54832456Y3642127D01*
X54873829Y3687204D01*
X54922509Y3700000D01*
X64577481Y3700000D01*
X64635672Y3681093D01*
X64667534Y3642127D01*
X64674611Y3626629D01*
X64674809Y3626401D01*
X64757195Y3531321D01*
X64768863Y3517856D01*
X64768865Y3517855D01*
X64889937Y3440047D01*
X64983441Y3412592D01*
X65028025Y3399501D01*
X65028026Y3399501D01*
X65028029Y3399500D01*
X65028031Y3399500D01*
X65171949Y3399500D01*
X65171951Y3399500D01*
X65310043Y3440047D01*
X65431118Y3517857D01*
X65525172Y3626403D01*
X65577566Y3657997D01*
X65638527Y3652762D01*
X65674806Y3626404D01*
X65764493Y3522899D01*
X65768863Y3517856D01*
X65768865Y3517855D01*
X65889937Y3440047D01*
X65983441Y3412592D01*
X66028025Y3399501D01*
X66028026Y3399501D01*
X66028029Y3399500D01*
X66028031Y3399500D01*
X66171949Y3399500D01*
X66171951Y3399500D01*
X66310043Y3440047D01*
X66431118Y3517857D01*
X66525367Y3626627D01*
X66532446Y3642127D01*
X66573819Y3687204D01*
X66622499Y3700000D01*
X68799989Y3700000D01*
X68799990Y3700000D01*
X68799990Y3779523D01*
X68818897Y3837714D01*
X68845460Y3862803D01*
X68931128Y3917857D01*
X69025377Y4026627D01*
X69085165Y4157543D01*
X69095415Y4228834D01*
X69105647Y4299998D01*
X69105647Y4300003D01*
X69085165Y4442457D01*
X69059473Y4498714D01*
X69025377Y4573373D01*
X68931128Y4682143D01*
X68882998Y4713074D01*
X68845466Y4737195D01*
X68806735Y4784562D01*
X68799990Y4820479D01*
X68799990Y6179523D01*
X68818897Y6237714D01*
X68845460Y6262803D01*
X68931128Y6317857D01*
X69025377Y6426627D01*
X69085165Y6557543D01*
X69105647Y6700000D01*
X69103978Y6711605D01*
X69085165Y6842457D01*
X69070074Y6875501D01*
X69025377Y6973373D01*
X68931128Y7082143D01*
X68882998Y7113074D01*
X68845466Y7137195D01*
X68806735Y7184562D01*
X68799990Y7220479D01*
X68799990Y7379523D01*
X68818897Y7437714D01*
X68845460Y7462803D01*
X68931128Y7517857D01*
X69025377Y7626627D01*
X69085165Y7757543D01*
X69105647Y7900000D01*
X69085165Y8042457D01*
X69025377Y8173373D01*
X68931128Y8282143D01*
X68870037Y8321404D01*
X68845466Y8337195D01*
X68806735Y8384562D01*
X68799990Y8420479D01*
X68799990Y8579523D01*
X68818897Y8637714D01*
X68845460Y8662803D01*
X68931128Y8717857D01*
X69025377Y8826627D01*
X69085165Y8957543D01*
X69105647Y9100000D01*
X69085165Y9242457D01*
X69025377Y9373373D01*
X68931128Y9482143D01*
X68882998Y9513074D01*
X68845466Y9537195D01*
X68806735Y9584562D01*
X68799990Y9620479D01*
X68799990Y9779523D01*
X68818897Y9837714D01*
X68845460Y9862803D01*
X68931128Y9917857D01*
X69025377Y10026627D01*
X69085165Y10157543D01*
X69093399Y10214811D01*
X69105647Y10299998D01*
X69105647Y10300003D01*
X69085165Y10442457D01*
X69025377Y10573373D01*
X68931128Y10682143D01*
X68864435Y10725004D01*
X68845466Y10737195D01*
X68806735Y10784562D01*
X68799990Y10820479D01*
X68799990Y10900005D01*
X71594457Y10900005D01*
X71594457Y10899996D01*
X71614611Y10541103D01*
X71614614Y10541083D01*
X71674824Y10186713D01*
X71674828Y10186693D01*
X71774340Y9841277D01*
X71911907Y9509163D01*
X72085787Y9194551D01*
X72250854Y8961911D01*
X72293806Y8901377D01*
X72533339Y8633339D01*
X72801377Y8393806D01*
X72801380Y8393804D01*
X72801381Y8393803D01*
X72832507Y8371718D01*
X73094548Y8185789D01*
X73094550Y8185788D01*
X73409163Y8011908D01*
X73409162Y8011908D01*
X73741276Y7874341D01*
X74086692Y7774829D01*
X74086695Y7774829D01*
X74086700Y7774827D01*
X74441093Y7714613D01*
X74441096Y7714613D01*
X74441102Y7714612D01*
X74799995Y7694457D01*
X74800000Y7694457D01*
X74800005Y7694457D01*
X75158897Y7714612D01*
X75158901Y7714613D01*
X75158907Y7714613D01*
X75513300Y7774827D01*
X75858724Y7874341D01*
X76190833Y8011906D01*
X76505452Y8185789D01*
X76798623Y8393806D01*
X77066661Y8633339D01*
X77306194Y8901377D01*
X77514211Y9194548D01*
X77645917Y9432855D01*
X77688092Y9509163D01*
X77688094Y9509167D01*
X77825659Y9841276D01*
X77925173Y10186700D01*
X77985387Y10541093D01*
X77987292Y10574998D01*
X78005543Y10899996D01*
X78005543Y10900005D01*
X77985388Y11258898D01*
X77985385Y11258918D01*
X77966219Y11371718D01*
X77925173Y11613300D01*
X77916549Y11643234D01*
X77825659Y11958724D01*
X77688092Y12290838D01*
X77514212Y12605450D01*
X77459795Y12682143D01*
X77306194Y12898623D01*
X77066661Y13166661D01*
X76798623Y13406194D01*
X76798620Y13406196D01*
X76798618Y13406198D01*
X76505449Y13614213D01*
X76190836Y13788093D01*
X76190837Y13788093D01*
X75858723Y13925660D01*
X75513307Y14025172D01*
X75513287Y14025176D01*
X75158917Y14085386D01*
X75158897Y14085389D01*
X74800005Y14105543D01*
X74799995Y14105543D01*
X74441102Y14085389D01*
X74441082Y14085386D01*
X74086712Y14025176D01*
X74086692Y14025172D01*
X73741276Y13925660D01*
X73409162Y13788093D01*
X73094550Y13614213D01*
X72801381Y13406198D01*
X72533346Y13166668D01*
X72533332Y13166654D01*
X72293802Y12898619D01*
X72085787Y12605450D01*
X71911907Y12290838D01*
X71774340Y11958724D01*
X71674828Y11613308D01*
X71674824Y11613288D01*
X71614614Y11258918D01*
X71614611Y11258898D01*
X71594457Y10900005D01*
X68799990Y10900005D01*
X68799990Y10979533D01*
X68818897Y11037724D01*
X68845460Y11062813D01*
X68931128Y11117867D01*
X69025377Y11226637D01*
X69085165Y11357553D01*
X69105237Y11497159D01*
X69105647Y11500008D01*
X69105647Y11500013D01*
X69085165Y11642467D01*
X69025377Y11773382D01*
X69025377Y11773383D01*
X68931128Y11882153D01*
X68882998Y11913084D01*
X68845466Y11937205D01*
X68806735Y11984572D01*
X68799990Y12020489D01*
X68799990Y12179533D01*
X68818897Y12237724D01*
X68845460Y12262813D01*
X68931128Y12317867D01*
X69025377Y12426637D01*
X69085165Y12557553D01*
X69103078Y12682143D01*
X69105647Y12700008D01*
X69105647Y12700013D01*
X69085165Y12842467D01*
X69025377Y12973382D01*
X69025377Y12973383D01*
X68931128Y13082153D01*
X68882998Y13113084D01*
X68845466Y13137205D01*
X68806735Y13184572D01*
X68799990Y13220489D01*
X68799990Y13379533D01*
X68818897Y13437724D01*
X68845460Y13462813D01*
X68931128Y13517867D01*
X69025377Y13626637D01*
X69085165Y13757553D01*
X69105647Y13900010D01*
X69101959Y13925659D01*
X69085165Y14042467D01*
X69025377Y14173382D01*
X69025377Y14173383D01*
X68931128Y14282153D01*
X68858485Y14328838D01*
X68845466Y14337205D01*
X68806735Y14384572D01*
X68799990Y14420489D01*
X68799990Y14579533D01*
X68818897Y14637724D01*
X68845460Y14662813D01*
X68931128Y14717867D01*
X69025377Y14826637D01*
X69085165Y14957553D01*
X69094863Y15025004D01*
X69105647Y15100008D01*
X69105647Y15100013D01*
X69085165Y15242467D01*
X69046736Y15326614D01*
X69025377Y15373383D01*
X68931128Y15482153D01*
X68871512Y15520466D01*
X68845466Y15537205D01*
X68806735Y15584572D01*
X68799990Y15620489D01*
X68799990Y15779533D01*
X68818897Y15837724D01*
X68845460Y15862813D01*
X68931128Y15917867D01*
X69025377Y16026637D01*
X69085165Y16157553D01*
X69105647Y16300010D01*
X69085165Y16442467D01*
X69025377Y16573383D01*
X68931128Y16682153D01*
X68880305Y16714815D01*
X68845466Y16737205D01*
X68806735Y16784572D01*
X68799990Y16820489D01*
X68799990Y16979533D01*
X68818897Y17037724D01*
X68845460Y17062813D01*
X68931128Y17117867D01*
X69025377Y17226637D01*
X69085165Y17357553D01*
X69100911Y17467068D01*
X69105647Y17500008D01*
X69105647Y17500013D01*
X69085165Y17642467D01*
X69081562Y17650356D01*
X69025377Y17773383D01*
X68931128Y17882153D01*
X68882998Y17913084D01*
X68845466Y17937205D01*
X68806735Y17984572D01*
X68799990Y18020489D01*
X68799990Y18179533D01*
X68818897Y18237724D01*
X68845460Y18262813D01*
X68931128Y18317867D01*
X69025377Y18426637D01*
X69085165Y18557553D01*
X69105647Y18700010D01*
X69085165Y18842467D01*
X69025377Y18973383D01*
X68931128Y19082153D01*
X68882998Y19113084D01*
X68845466Y19137205D01*
X68806735Y19184572D01*
X68799990Y19220489D01*
X68799990Y19379533D01*
X68818897Y19437724D01*
X68845460Y19462813D01*
X68931128Y19517867D01*
X69025377Y19626637D01*
X69085165Y19757553D01*
X69105647Y19900010D01*
X69085165Y20042467D01*
X69025377Y20173383D01*
X68931128Y20282153D01*
X68882998Y20313084D01*
X68845466Y20337205D01*
X68806735Y20384572D01*
X68799990Y20420489D01*
X68799990Y20579533D01*
X68818897Y20637724D01*
X68845460Y20662813D01*
X68931128Y20717867D01*
X69025377Y20826637D01*
X69085165Y20957553D01*
X69105647Y21100010D01*
X69093668Y21183324D01*
X69085165Y21242467D01*
X69058890Y21300000D01*
X69025377Y21373383D01*
X68931128Y21482153D01*
X68882998Y21513084D01*
X68845466Y21537205D01*
X68806735Y21584572D01*
X68799990Y21620489D01*
X68799990Y21779533D01*
X68818897Y21837724D01*
X68845460Y21862813D01*
X68931128Y21917867D01*
X69025377Y22026637D01*
X69085165Y22157553D01*
X69105647Y22300010D01*
X69085165Y22442467D01*
X69025377Y22573383D01*
X68931128Y22682153D01*
X68882998Y22713084D01*
X68845466Y22737205D01*
X68806735Y22784572D01*
X68799990Y22820489D01*
X68799990Y22979533D01*
X68818897Y23037724D01*
X68845460Y23062813D01*
X68931128Y23117867D01*
X69025377Y23226637D01*
X69085165Y23357553D01*
X69105647Y23500010D01*
X69104020Y23511325D01*
X69085165Y23642467D01*
X69055019Y23708476D01*
X69025377Y23773383D01*
X68931128Y23882153D01*
X68882998Y23913084D01*
X68845466Y23937205D01*
X68806735Y23984572D01*
X68799990Y24020489D01*
X68799990Y24179533D01*
X68818897Y24237724D01*
X68845460Y24262813D01*
X68931128Y24317867D01*
X69025377Y24426637D01*
X69085165Y24557553D01*
X69105647Y24700010D01*
X69103959Y24711748D01*
X69085165Y24842467D01*
X69025377Y24973383D01*
X68931128Y25082153D01*
X68882998Y25113084D01*
X68845466Y25137205D01*
X68806735Y25184572D01*
X68799990Y25220489D01*
X68799990Y25379533D01*
X68818897Y25437724D01*
X68845460Y25462813D01*
X68931128Y25517867D01*
X69025377Y25626637D01*
X69085165Y25757553D01*
X69105647Y25900010D01*
X69102285Y25923391D01*
X69085165Y26042467D01*
X69058751Y26100304D01*
X69025377Y26173383D01*
X68931128Y26282153D01*
X68882998Y26313084D01*
X68845466Y26337205D01*
X68806735Y26384572D01*
X68799990Y26420489D01*
X68799990Y26579533D01*
X68818897Y26637724D01*
X68845460Y26662813D01*
X68931128Y26717867D01*
X69025377Y26826637D01*
X69085165Y26957553D01*
X69095047Y27026287D01*
X69105647Y27100008D01*
X69105647Y27100013D01*
X69085165Y27242467D01*
X69033855Y27354819D01*
X69025377Y27373383D01*
X68931128Y27482153D01*
X68882998Y27513084D01*
X68845466Y27537205D01*
X68806735Y27584572D01*
X68799990Y27620489D01*
X68799990Y27779533D01*
X68818897Y27837724D01*
X68845460Y27862813D01*
X68931128Y27917867D01*
X69025377Y28026637D01*
X69085165Y28157553D01*
X69099541Y28257543D01*
X69105647Y28300008D01*
X69105647Y28300013D01*
X69085165Y28442467D01*
X69059627Y28498386D01*
X69025377Y28573383D01*
X68931128Y28682153D01*
X68882998Y28713084D01*
X68845466Y28737205D01*
X68806735Y28784572D01*
X68799990Y28820489D01*
X68799990Y28979533D01*
X68818897Y29037724D01*
X68845460Y29062813D01*
X68931128Y29117867D01*
X69025377Y29226637D01*
X69085165Y29357553D01*
X69105647Y29500010D01*
X69095992Y29567160D01*
X69085165Y29642467D01*
X69068624Y29678686D01*
X69025377Y29773383D01*
X68931128Y29882153D01*
X68882998Y29913084D01*
X68845466Y29937205D01*
X68806735Y29984572D01*
X68799990Y30020489D01*
X68799990Y30179543D01*
X68818897Y30237734D01*
X68845460Y30262823D01*
X68931128Y30317877D01*
X69025377Y30426647D01*
X69085165Y30557563D01*
X69105647Y30700020D01*
X69097489Y30756759D01*
X69085165Y30842477D01*
X69055026Y30908472D01*
X69025377Y30973393D01*
X68931128Y31082163D01*
X68882998Y31113094D01*
X68845466Y31137215D01*
X68806735Y31184582D01*
X68799990Y31220499D01*
X68799990Y37499999D01*
X68799990Y37500000D01*
X68799989Y37500000D01*
X62622499Y37500000D01*
X62564308Y37518907D01*
X62532446Y37557873D01*
X62525634Y37572788D01*
X62525367Y37573373D01*
X62525366Y37573374D01*
X62525367Y37573374D01*
X62474670Y37631883D01*
X62450853Y37688243D01*
X62450490Y37696713D01*
X62450490Y38500001D01*
X62894318Y38500001D01*
X62894318Y38500000D01*
X62914955Y38343242D01*
X62914957Y38343234D01*
X62975462Y38197162D01*
X62975462Y38197161D01*
X62988271Y38180468D01*
X63071718Y38071718D01*
X63197159Y37975464D01*
X63343238Y37914956D01*
X63460809Y37899478D01*
X63499999Y37894318D01*
X63500000Y37894318D01*
X63500001Y37894318D01*
X63531352Y37898446D01*
X63656762Y37914956D01*
X63802841Y37975464D01*
X63928282Y38071718D01*
X64021458Y38193149D01*
X64071882Y38227804D01*
X64133047Y38226203D01*
X64178541Y38193149D01*
X64271718Y38071718D01*
X64397159Y37975464D01*
X64543238Y37914956D01*
X64660809Y37899478D01*
X64699999Y37894318D01*
X64700000Y37894318D01*
X64700001Y37894318D01*
X64731352Y37898446D01*
X64856762Y37914956D01*
X65002841Y37975464D01*
X65128282Y38071718D01*
X65221458Y38193149D01*
X65271882Y38227804D01*
X65333047Y38226203D01*
X65378541Y38193149D01*
X65471718Y38071718D01*
X65597159Y37975464D01*
X65743238Y37914956D01*
X65860809Y37899478D01*
X65899999Y37894318D01*
X65900000Y37894318D01*
X65900001Y37894318D01*
X65931352Y37898446D01*
X66056762Y37914956D01*
X66202841Y37975464D01*
X66328282Y38071718D01*
X66424536Y38197159D01*
X66485044Y38343238D01*
X66505682Y38500000D01*
X66485044Y38656762D01*
X66469935Y38693238D01*
X66424537Y38802839D01*
X66424537Y38802840D01*
X66328286Y38928277D01*
X66328285Y38928278D01*
X66328282Y38928282D01*
X66328277Y38928286D01*
X66328276Y38928287D01*
X66237057Y38998281D01*
X66202841Y39024536D01*
X66202840Y39024537D01*
X66202838Y39024538D01*
X66056766Y39085043D01*
X66056758Y39085045D01*
X65900001Y39105682D01*
X65899999Y39105682D01*
X65743241Y39085045D01*
X65743233Y39085043D01*
X65597161Y39024538D01*
X65597160Y39024538D01*
X65471723Y38928287D01*
X65471713Y38928277D01*
X65378542Y38806853D01*
X65328117Y38772197D01*
X65266953Y38773799D01*
X65221458Y38806853D01*
X65128286Y38928277D01*
X65128285Y38928278D01*
X65128282Y38928282D01*
X65128277Y38928286D01*
X65128276Y38928287D01*
X65037057Y38998281D01*
X65002841Y39024536D01*
X65002840Y39024537D01*
X65002838Y39024538D01*
X64856766Y39085043D01*
X64856758Y39085045D01*
X64700001Y39105682D01*
X64699999Y39105682D01*
X64543241Y39085045D01*
X64543233Y39085043D01*
X64397161Y39024538D01*
X64397160Y39024538D01*
X64271723Y38928287D01*
X64271713Y38928277D01*
X64178542Y38806853D01*
X64128117Y38772197D01*
X64066953Y38773799D01*
X64021458Y38806853D01*
X63928286Y38928277D01*
X63928285Y38928278D01*
X63928282Y38928282D01*
X63928277Y38928286D01*
X63928276Y38928287D01*
X63837057Y38998281D01*
X63802841Y39024536D01*
X63802840Y39024537D01*
X63802838Y39024538D01*
X63656766Y39085043D01*
X63656758Y39085045D01*
X63500001Y39105682D01*
X63499999Y39105682D01*
X63343241Y39085045D01*
X63343233Y39085043D01*
X63197161Y39024538D01*
X63197160Y39024538D01*
X63071723Y38928287D01*
X63071713Y38928277D01*
X62975462Y38802840D01*
X62975462Y38802839D01*
X62914957Y38656767D01*
X62914955Y38656759D01*
X62894318Y38500001D01*
X62450490Y38500001D01*
X62450490Y38846153D01*
X62450490Y38846154D01*
X62426604Y38935298D01*
X62412356Y38959976D01*
X62380460Y39015222D01*
X54315186Y47080496D01*
X54287409Y47135013D01*
X54296980Y47195445D01*
X54340245Y47238710D01*
X54385190Y47249500D01*
X55513810Y47249500D01*
X55572001Y47230593D01*
X55583814Y47220504D01*
X55872592Y46931726D01*
X55900369Y46877209D01*
X55900741Y46848803D01*
X55894318Y46800005D01*
X55894318Y46800000D01*
X55914955Y46643242D01*
X55914957Y46643234D01*
X55975462Y46497162D01*
X55975462Y46497161D01*
X56071713Y46371724D01*
X56071718Y46371718D01*
X56197159Y46275464D01*
X56197160Y46275464D01*
X56197161Y46275463D01*
X56311054Y46228287D01*
X56343238Y46214956D01*
X56460631Y46199501D01*
X56499999Y46194318D01*
X56500000Y46194318D01*
X56500001Y46194318D01*
X56539369Y46199501D01*
X56656762Y46214956D01*
X56802841Y46275464D01*
X56928282Y46371718D01*
X57024536Y46497159D01*
X57050614Y46560118D01*
X57090350Y46606643D01*
X57149845Y46620927D01*
X57206373Y46597513D01*
X57212082Y46592236D01*
X61019531Y42784788D01*
X61019530Y42784788D01*
X61084787Y42719532D01*
X61084789Y42719530D01*
X61118614Y42700001D01*
X61164712Y42673386D01*
X61253856Y42649500D01*
X64563213Y42649500D01*
X64621404Y42630593D01*
X64641754Y42610768D01*
X64671718Y42571718D01*
X64797159Y42475464D01*
X64797160Y42475464D01*
X64797161Y42475463D01*
X64806212Y42471714D01*
X64943238Y42414956D01*
X65060809Y42399478D01*
X65099999Y42394318D01*
X65100000Y42394318D01*
X65100001Y42394318D01*
X65131352Y42398446D01*
X65256762Y42414956D01*
X65402841Y42475464D01*
X65438943Y42503168D01*
X65473587Y42520252D01*
X65485288Y42523386D01*
X65565212Y42569531D01*
X65630469Y42634788D01*
X65676614Y42714712D01*
X65700500Y42803856D01*
X65700500Y42896144D01*
X65700500Y42896146D01*
X65699905Y42898365D01*
X65697376Y42936916D01*
X65705682Y43000000D01*
X65685044Y43156762D01*
X65665958Y43202840D01*
X65624537Y43302839D01*
X65624537Y43302840D01*
X65528286Y43428277D01*
X65528285Y43428278D01*
X65528282Y43428282D01*
X65528277Y43428286D01*
X65528276Y43428287D01*
X65402838Y43524538D01*
X65256766Y43585043D01*
X65256758Y43585045D01*
X65100001Y43605682D01*
X65099999Y43605682D01*
X64943241Y43585045D01*
X64943233Y43585043D01*
X64797161Y43524538D01*
X64797160Y43524538D01*
X64671723Y43428287D01*
X64671714Y43428278D01*
X64641755Y43389233D01*
X64591331Y43354577D01*
X64563213Y43350500D01*
X61486189Y43350500D01*
X61427998Y43369407D01*
X61416185Y43379496D01*
X56465186Y48330496D01*
X56437409Y48385013D01*
X56446980Y48445445D01*
X56490245Y48488710D01*
X56535190Y48499500D01*
X72150500Y48499500D01*
X72208691Y48480593D01*
X72244655Y48431093D01*
X72249500Y48400500D01*
X72249500Y26811190D01*
X72230593Y26752999D01*
X72220504Y26741187D01*
X72081723Y26602407D01*
X72027208Y26574630D01*
X71998800Y26574258D01*
X71950001Y26580682D01*
X71949999Y26580682D01*
X71793241Y26560045D01*
X71793233Y26560043D01*
X71647161Y26499538D01*
X71647160Y26499538D01*
X71521723Y26403287D01*
X71521713Y26403277D01*
X71425462Y26277840D01*
X71425462Y26277839D01*
X71364957Y26131767D01*
X71364955Y26131759D01*
X71344318Y25975001D01*
X71344318Y25975000D01*
X71364955Y25818242D01*
X71364957Y25818234D01*
X71425462Y25672162D01*
X71425462Y25672161D01*
X71521713Y25546724D01*
X71521718Y25546718D01*
X71647159Y25450464D01*
X71647160Y25450464D01*
X71647161Y25450463D01*
X71742996Y25410767D01*
X71793238Y25389956D01*
X71910809Y25374478D01*
X71949999Y25369318D01*
X71950000Y25369318D01*
X71950001Y25369318D01*
X71981352Y25373446D01*
X72106762Y25389956D01*
X72252841Y25450464D01*
X72378282Y25546718D01*
X72474536Y25672159D01*
X72535044Y25818238D01*
X72555682Y25975000D01*
X72549257Y26023802D01*
X72560407Y26083961D01*
X72577403Y26106723D01*
X72880470Y26409788D01*
X72926614Y26489712D01*
X72950500Y26578856D01*
X72950500Y26671144D01*
X72950500Y48846144D01*
X72926614Y48935288D01*
X72898035Y48984788D01*
X72880470Y49015212D01*
X72765212Y49130470D01*
X72685288Y49176614D01*
X72596144Y49200500D01*
X72596142Y49200500D01*
X32427206Y49200500D01*
X32369015Y49219407D01*
X32333051Y49268907D01*
X32333051Y49330093D01*
X32335742Y49337386D01*
X32385044Y49456411D01*
X32405682Y49613173D01*
X32385044Y49769935D01*
X32374944Y49794318D01*
X32324537Y49916012D01*
X32324537Y49916013D01*
X32270958Y49985839D01*
X32250534Y50043515D01*
X32250500Y50046106D01*
X32250500Y50400001D01*
X54094318Y50400001D01*
X54094318Y50400000D01*
X54114955Y50243242D01*
X54114957Y50243234D01*
X54175462Y50097162D01*
X54175462Y50097161D01*
X54271713Y49971724D01*
X54271718Y49971718D01*
X54397159Y49875464D01*
X54397160Y49875464D01*
X54397161Y49875463D01*
X54461758Y49848706D01*
X54543238Y49814956D01*
X54655101Y49800229D01*
X54699999Y49794318D01*
X54700000Y49794318D01*
X54700001Y49794318D01*
X54731352Y49798446D01*
X54856762Y49814956D01*
X55002841Y49875464D01*
X55128282Y49971718D01*
X55224536Y50097159D01*
X55285044Y50243238D01*
X55305682Y50400000D01*
X55305682Y50400001D01*
X55306529Y50406433D01*
X55308535Y50406169D01*
X55313912Y50422716D01*
X55302115Y50452286D01*
X55486087Y50452286D01*
X55502835Y50410307D01*
X55514955Y50318242D01*
X55514957Y50318234D01*
X55575462Y50172162D01*
X55575462Y50172161D01*
X55633013Y50097159D01*
X55671718Y50046718D01*
X55671722Y50046715D01*
X55671723Y50046714D01*
X55675892Y50043515D01*
X55797159Y49950464D01*
X55797160Y49950464D01*
X55797161Y49950463D01*
X55880331Y49916013D01*
X55943238Y49889956D01*
X56053316Y49875464D01*
X56099999Y49869318D01*
X56100000Y49869318D01*
X56100001Y49869318D01*
X56146676Y49875463D01*
X56256762Y49889956D01*
X56402841Y49950464D01*
X56528282Y50046718D01*
X56624536Y50172159D01*
X56685044Y50318238D01*
X56705682Y50475000D01*
X56685044Y50631762D01*
X56656779Y50700000D01*
X56656779Y50700001D01*
X62094318Y50700001D01*
X62094318Y50700000D01*
X62114955Y50543242D01*
X62114957Y50543234D01*
X62175462Y50397162D01*
X62175462Y50397161D01*
X62175464Y50397159D01*
X62271718Y50271718D01*
X62397159Y50175464D01*
X62397160Y50175464D01*
X62397161Y50175463D01*
X62405133Y50172161D01*
X62543238Y50114956D01*
X62660809Y50099478D01*
X62699999Y50094318D01*
X62700000Y50094318D01*
X62700001Y50094318D01*
X62731352Y50098446D01*
X62856762Y50114956D01*
X63002841Y50175464D01*
X63128282Y50271718D01*
X63224536Y50397159D01*
X63285044Y50543238D01*
X63305682Y50700000D01*
X63285044Y50856762D01*
X63258056Y50921916D01*
X63224537Y51002839D01*
X63224537Y51002840D01*
X63128286Y51128277D01*
X63128285Y51128278D01*
X63128282Y51128282D01*
X63128277Y51128286D01*
X63128276Y51128287D01*
X63002838Y51224538D01*
X62856766Y51285043D01*
X62856758Y51285045D01*
X62700001Y51305682D01*
X62699999Y51305682D01*
X62543241Y51285045D01*
X62543233Y51285043D01*
X62397161Y51224538D01*
X62397160Y51224538D01*
X62271723Y51128287D01*
X62271713Y51128277D01*
X62175462Y51002840D01*
X62175462Y51002839D01*
X62114957Y50856767D01*
X62114955Y50856759D01*
X62094318Y50700001D01*
X56656779Y50700001D01*
X56624537Y50777839D01*
X56624537Y50777840D01*
X56528286Y50903277D01*
X56528285Y50903278D01*
X56528282Y50903282D01*
X56528277Y50903286D01*
X56528276Y50903287D01*
X56457104Y50957899D01*
X56402841Y50999536D01*
X56402840Y50999537D01*
X56402838Y50999538D01*
X56256766Y51060043D01*
X56256758Y51060045D01*
X56100001Y51080682D01*
X56099999Y51080682D01*
X55943241Y51060045D01*
X55943233Y51060043D01*
X55797161Y50999538D01*
X55797160Y50999538D01*
X55671723Y50903287D01*
X55671713Y50903277D01*
X55575462Y50777840D01*
X55575462Y50777839D01*
X55514957Y50631767D01*
X55514955Y50631759D01*
X55493471Y50468567D01*
X55491463Y50468832D01*
X55486087Y50452286D01*
X55302115Y50452286D01*
X55297165Y50464694D01*
X55285044Y50556759D01*
X55285044Y50556762D01*
X55225713Y50700000D01*
X55224537Y50702839D01*
X55224537Y50702840D01*
X55128286Y50828277D01*
X55128285Y50828278D01*
X55128282Y50828282D01*
X55128277Y50828286D01*
X55128276Y50828287D01*
X55006255Y50921916D01*
X55002841Y50924536D01*
X55002840Y50924537D01*
X55002838Y50924538D01*
X54856766Y50985043D01*
X54856758Y50985045D01*
X54700001Y51005682D01*
X54699999Y51005682D01*
X54543241Y50985045D01*
X54543233Y50985043D01*
X54397161Y50924538D01*
X54397160Y50924538D01*
X54271723Y50828287D01*
X54271713Y50828277D01*
X54175462Y50702840D01*
X54175462Y50702839D01*
X54114957Y50556767D01*
X54114955Y50556759D01*
X54094318Y50400001D01*
X32250500Y50400001D01*
X32250500Y52289539D01*
X33789489Y52289539D01*
X33789489Y52110178D01*
X33824479Y51934273D01*
X33824479Y51934271D01*
X33893113Y51768572D01*
X33893113Y51768571D01*
X33992759Y51619442D01*
X33992760Y51619441D01*
X34119583Y51492618D01*
X34268711Y51392973D01*
X34268712Y51392973D01*
X34268713Y51392972D01*
X34296371Y51381516D01*
X34434414Y51324337D01*
X34610322Y51289347D01*
X34610323Y51289347D01*
X34789677Y51289347D01*
X34789678Y51289347D01*
X34965586Y51324337D01*
X35131289Y51392973D01*
X35280417Y51492618D01*
X35407240Y51619441D01*
X35506885Y51768569D01*
X35575521Y51934272D01*
X35610511Y52110180D01*
X35610511Y52289536D01*
X35575521Y52465444D01*
X35541203Y52548296D01*
X35506886Y52631145D01*
X35506886Y52631146D01*
X35407240Y52780275D01*
X35280416Y52907099D01*
X35131286Y53006745D01*
X34965587Y53075379D01*
X34965586Y53075379D01*
X34906950Y53087043D01*
X34789680Y53110369D01*
X34789678Y53110369D01*
X34610322Y53110369D01*
X34610319Y53110369D01*
X34434414Y53075379D01*
X34434412Y53075379D01*
X34268713Y53006745D01*
X34268712Y53006745D01*
X34119583Y52907099D01*
X33992759Y52780275D01*
X33893113Y52631146D01*
X33893113Y52631145D01*
X33824479Y52465446D01*
X33824479Y52465444D01*
X33789489Y52289539D01*
X32250500Y52289539D01*
X32250500Y52768227D01*
X32269407Y52826418D01*
X32279490Y52838225D01*
X32946196Y53504931D01*
X33000709Y53532705D01*
X33061141Y53523134D01*
X33104406Y53479869D01*
X33114348Y53447851D01*
X33114955Y53443242D01*
X33114956Y53443240D01*
X33114957Y53443234D01*
X33175462Y53297162D01*
X33175462Y53297161D01*
X33268844Y53175463D01*
X33271718Y53171718D01*
X33397159Y53075464D01*
X33397160Y53075464D01*
X33397161Y53075463D01*
X33467946Y53046143D01*
X33543238Y53014956D01*
X33660809Y52999478D01*
X33699999Y52994318D01*
X33700000Y52994318D01*
X33700001Y52994318D01*
X33731352Y52998446D01*
X33856762Y53014956D01*
X34002841Y53075464D01*
X34128282Y53171718D01*
X34224536Y53297159D01*
X34285044Y53443238D01*
X34296531Y53530498D01*
X34322871Y53585722D01*
X34324640Y53587538D01*
X34657608Y53920504D01*
X34712124Y53948281D01*
X34727611Y53949500D01*
X60824309Y53949500D01*
X60914669Y53973713D01*
X60914672Y53973713D01*
X60928842Y53977510D01*
X60938887Y53980201D01*
X61041614Y54039511D01*
X61677423Y54675322D01*
X61731938Y54703097D01*
X61734470Y54703465D01*
X61821762Y54714956D01*
X61967841Y54775464D01*
X62093282Y54871718D01*
X62189536Y54997159D01*
X62250044Y55143238D01*
X62270682Y55300000D01*
X62269046Y55312423D01*
X62257891Y55397159D01*
X62250044Y55456762D01*
X62214226Y55543234D01*
X62189537Y55602839D01*
X62189537Y55602840D01*
X62093286Y55728277D01*
X62093285Y55728278D01*
X62093282Y55728282D01*
X62093277Y55728286D01*
X62093276Y55728287D01*
X61980323Y55814958D01*
X61967841Y55824536D01*
X61967840Y55824537D01*
X61967838Y55824538D01*
X61821766Y55885043D01*
X61821758Y55885045D01*
X61665001Y55905682D01*
X61664999Y55905682D01*
X61508241Y55885045D01*
X61508233Y55885043D01*
X61362161Y55824538D01*
X61362160Y55824538D01*
X61236723Y55728287D01*
X61236713Y55728277D01*
X61140462Y55602840D01*
X61140462Y55602839D01*
X61079956Y55456763D01*
X61068467Y55369503D01*
X61042125Y55314278D01*
X61040318Y55312423D01*
X60607394Y54879497D01*
X60552877Y54851719D01*
X60537390Y54850500D01*
X34440691Y54850500D01*
X34356907Y54828050D01*
X34356906Y54828051D01*
X34326115Y54819800D01*
X34326113Y54819800D01*
X34326113Y54819799D01*
X34249321Y54775463D01*
X34223383Y54760488D01*
X33687575Y54224682D01*
X33633059Y54196905D01*
X33630496Y54196533D01*
X33543236Y54185044D01*
X33397161Y54124538D01*
X33397160Y54124538D01*
X33271723Y54028287D01*
X33271718Y54028282D01*
X33231190Y53975464D01*
X33228042Y53971362D01*
X33177617Y53936707D01*
X33116453Y53938309D01*
X33067911Y53975556D01*
X33050500Y54031630D01*
X33050500Y55972390D01*
X33069407Y56030581D01*
X33079490Y56042388D01*
X36037104Y59000001D01*
X37994318Y59000001D01*
X37994318Y59000000D01*
X38014955Y58843242D01*
X38014957Y58843234D01*
X38075462Y58697162D01*
X38075462Y58697161D01*
X38075464Y58697159D01*
X38171718Y58571718D01*
X38297159Y58475464D01*
X38443238Y58414956D01*
X38560809Y58399478D01*
X38599999Y58394318D01*
X38600000Y58394318D01*
X38600001Y58394318D01*
X38631352Y58398446D01*
X38756762Y58414956D01*
X38902841Y58475464D01*
X39028282Y58571718D01*
X39124536Y58697159D01*
X39185044Y58843238D01*
X39205682Y59000000D01*
X39185044Y59156762D01*
X39185042Y59156767D01*
X39124537Y59302839D01*
X39124537Y59302840D01*
X39028286Y59428277D01*
X39028285Y59428278D01*
X39028282Y59428282D01*
X39028277Y59428286D01*
X39028276Y59428287D01*
X38902838Y59524538D01*
X38756766Y59585043D01*
X38756758Y59585045D01*
X38600001Y59605682D01*
X38599999Y59605682D01*
X38443241Y59585045D01*
X38443233Y59585043D01*
X38297161Y59524538D01*
X38297160Y59524538D01*
X38171723Y59428287D01*
X38171713Y59428277D01*
X38075462Y59302840D01*
X38075462Y59302839D01*
X38014957Y59156767D01*
X38014955Y59156759D01*
X37994318Y59000001D01*
X36037104Y59000001D01*
X36060489Y59023386D01*
X36119799Y59126113D01*
X36128011Y59156762D01*
X36150500Y59240691D01*
X36150500Y63422390D01*
X36169407Y63480581D01*
X36179490Y63492388D01*
X36854968Y64167867D01*
X36909483Y64195642D01*
X36960731Y64190177D01*
X37026931Y64164530D01*
X37241074Y64124500D01*
X37458926Y64124500D01*
X37673069Y64164530D01*
X37876210Y64243228D01*
X38061432Y64357912D01*
X38222427Y64504678D01*
X38353712Y64678528D01*
X38450817Y64873541D01*
X38504779Y65063202D01*
X38538889Y65113996D01*
X38596342Y65135040D01*
X38655191Y65118296D01*
X38692960Y65070159D01*
X38695216Y65063213D01*
X38749183Y64873541D01*
X38846288Y64678528D01*
X38977573Y64504678D01*
X39138568Y64357912D01*
X39323790Y64243228D01*
X39526931Y64164530D01*
X39741074Y64124500D01*
X39958926Y64124500D01*
X40173069Y64164530D01*
X40376210Y64243228D01*
X40561432Y64357912D01*
X40722427Y64504678D01*
X40853712Y64678528D01*
X40950817Y64873541D01*
X41004779Y65063202D01*
X41038889Y65113996D01*
X41096342Y65135040D01*
X41155191Y65118296D01*
X41192960Y65070159D01*
X41195216Y65063213D01*
X41249183Y64873541D01*
X41346288Y64678528D01*
X41477573Y64504678D01*
X41638568Y64357912D01*
X41823790Y64243228D01*
X42026931Y64164530D01*
X42241074Y64124500D01*
X42458926Y64124500D01*
X42673069Y64164530D01*
X42876210Y64243228D01*
X43061432Y64357912D01*
X43222427Y64504678D01*
X43353712Y64678528D01*
X43450817Y64873541D01*
X43504779Y65063202D01*
X43538889Y65113996D01*
X43596342Y65135040D01*
X43655191Y65118296D01*
X43692960Y65070159D01*
X43695216Y65063213D01*
X43749183Y64873541D01*
X43846288Y64678528D01*
X43977573Y64504678D01*
X44138568Y64357912D01*
X44323790Y64243228D01*
X44526931Y64164530D01*
X44741074Y64124500D01*
X44958926Y64124500D01*
X45173069Y64164530D01*
X45376210Y64243228D01*
X45561432Y64357912D01*
X45722427Y64504678D01*
X45853712Y64678528D01*
X45950817Y64873541D01*
X46004779Y65063202D01*
X46038889Y65113996D01*
X46096342Y65135040D01*
X46155191Y65118296D01*
X46192960Y65070159D01*
X46195216Y65063213D01*
X46249183Y64873541D01*
X46346288Y64678528D01*
X46477573Y64504678D01*
X46638568Y64357912D01*
X46823790Y64243228D01*
X47026931Y64164530D01*
X47241074Y64124500D01*
X47458926Y64124500D01*
X47673069Y64164530D01*
X47876210Y64243228D01*
X48061432Y64357912D01*
X48222427Y64504678D01*
X48353712Y64678528D01*
X48450817Y64873541D01*
X48504779Y65063202D01*
X48538889Y65113996D01*
X48596342Y65135040D01*
X48655191Y65118296D01*
X48692960Y65070159D01*
X48695216Y65063213D01*
X48749183Y64873541D01*
X48846288Y64678528D01*
X48977573Y64504678D01*
X49138568Y64357912D01*
X49323790Y64243228D01*
X49526931Y64164530D01*
X49741074Y64124500D01*
X49958926Y64124500D01*
X50173069Y64164530D01*
X50376210Y64243228D01*
X50561432Y64357912D01*
X50611048Y64403143D01*
X54989500Y64403143D01*
X54989500Y64196858D01*
X55021767Y63993129D01*
X55085512Y63796943D01*
X55179159Y63613149D01*
X55179163Y63613143D01*
X55300402Y63446273D01*
X55300404Y63446271D01*
X55300407Y63446267D01*
X55446267Y63300407D01*
X55446270Y63300405D01*
X55446272Y63300403D01*
X55613142Y63179164D01*
X55613148Y63179160D01*
X55796943Y63085512D01*
X55993124Y63021769D01*
X55993125Y63021769D01*
X55993128Y63021768D01*
X56196858Y62989500D01*
X56196861Y62989500D01*
X56403142Y62989500D01*
X56606871Y63021768D01*
X56606872Y63021769D01*
X56606876Y63021769D01*
X56803057Y63085512D01*
X56986852Y63179160D01*
X57153733Y63300407D01*
X57299593Y63446267D01*
X57420840Y63613148D01*
X57514488Y63796943D01*
X57578231Y63993124D01*
X57599039Y64124500D01*
X57610500Y64196858D01*
X57610500Y64403143D01*
X57578232Y64606872D01*
X57554950Y64678527D01*
X57514488Y64803057D01*
X57420840Y64986852D01*
X57365370Y65063200D01*
X57299597Y65153728D01*
X57299595Y65153730D01*
X57299593Y65153733D01*
X57153733Y65299593D01*
X57153729Y65299596D01*
X57153727Y65299598D01*
X56986857Y65420837D01*
X56986851Y65420841D01*
X56803057Y65514488D01*
X56606871Y65578233D01*
X56403142Y65610500D01*
X56403139Y65610500D01*
X56196861Y65610500D01*
X56196858Y65610500D01*
X55993128Y65578233D01*
X55796942Y65514488D01*
X55613148Y65420841D01*
X55613142Y65420837D01*
X55446272Y65299598D01*
X55300402Y65153728D01*
X55179163Y64986858D01*
X55179159Y64986852D01*
X55085512Y64803058D01*
X55021767Y64606872D01*
X54989500Y64403143D01*
X50611048Y64403143D01*
X50722427Y64504678D01*
X50853712Y64678528D01*
X50950817Y64873541D01*
X51010435Y65083077D01*
X51030536Y65300000D01*
X51010435Y65516923D01*
X50950817Y65726459D01*
X50853712Y65921472D01*
X50722427Y66095322D01*
X50561432Y66242088D01*
X50376210Y66356772D01*
X50173069Y66435470D01*
X50173068Y66435471D01*
X50173066Y66435471D01*
X50107012Y66447818D01*
X50080969Y66452687D01*
X50027244Y66481963D01*
X50000988Y66537229D01*
X50012231Y66597372D01*
X50056678Y66639421D01*
X50080968Y66647314D01*
X50173069Y66664530D01*
X50376210Y66743228D01*
X50561432Y66857912D01*
X50722427Y67004678D01*
X50853712Y67178528D01*
X50864404Y67200001D01*
X52794318Y67200001D01*
X52794318Y67200000D01*
X52814955Y67043242D01*
X52814957Y67043234D01*
X52875462Y66897162D01*
X52875462Y66897161D01*
X52905579Y66857912D01*
X52971718Y66771718D01*
X53097159Y66675464D01*
X53243238Y66614956D01*
X53356803Y66600005D01*
X53399999Y66594318D01*
X53400000Y66594318D01*
X53400001Y66594318D01*
X53443197Y66600005D01*
X53556762Y66614956D01*
X53702841Y66675464D01*
X53828282Y66771718D01*
X53924536Y66897159D01*
X53985044Y67043238D01*
X54005682Y67200000D01*
X53985044Y67356762D01*
X53924537Y67502839D01*
X53924537Y67502840D01*
X53828286Y67628277D01*
X53828285Y67628278D01*
X53828282Y67628282D01*
X53828277Y67628286D01*
X53828276Y67628287D01*
X53711579Y67717831D01*
X53702841Y67724536D01*
X53702840Y67724537D01*
X53702838Y67724538D01*
X53556766Y67785043D01*
X53556758Y67785045D01*
X53400001Y67805682D01*
X53399999Y67805682D01*
X53243241Y67785045D01*
X53243233Y67785043D01*
X53097161Y67724538D01*
X53097160Y67724538D01*
X52971723Y67628287D01*
X52971713Y67628277D01*
X52875462Y67502840D01*
X52875462Y67502839D01*
X52814957Y67356767D01*
X52814955Y67356759D01*
X52794318Y67200001D01*
X50864404Y67200001D01*
X50950817Y67373541D01*
X51010435Y67583077D01*
X51030536Y67800000D01*
X51010435Y68016923D01*
X50950817Y68226459D01*
X50916744Y68294886D01*
X58189500Y68294886D01*
X58189500Y68005115D01*
X58227321Y67717836D01*
X58227321Y67717831D01*
X58302318Y67437941D01*
X58302322Y67437928D01*
X58413205Y67170231D01*
X58413207Y67170227D01*
X58413209Y67170223D01*
X58535213Y66958907D01*
X58558095Y66919274D01*
X58734486Y66689396D01*
X58734488Y66689394D01*
X58734492Y66689389D01*
X58939389Y66484492D01*
X58939393Y66484489D01*
X58939395Y66484487D01*
X59105837Y66356772D01*
X59169277Y66308093D01*
X59420223Y66163209D01*
X59687933Y66052320D01*
X59967828Y65977322D01*
X60255116Y65939500D01*
X60255117Y65939500D01*
X60544883Y65939500D01*
X60544884Y65939500D01*
X60832172Y65977322D01*
X61112067Y66052320D01*
X61379777Y66163209D01*
X61630723Y66308093D01*
X61860611Y66484492D01*
X61976124Y66600005D01*
X71594457Y66600005D01*
X71594457Y66599996D01*
X71614611Y66241103D01*
X71614614Y66241083D01*
X71674824Y65886713D01*
X71674828Y65886693D01*
X71774340Y65541277D01*
X71911907Y65209163D01*
X72082501Y64900497D01*
X72085789Y64894548D01*
X72293806Y64601377D01*
X72533339Y64333339D01*
X72801377Y64093806D01*
X73094548Y63885789D01*
X73094550Y63885788D01*
X73409163Y63711908D01*
X73409162Y63711908D01*
X73741276Y63574341D01*
X74086692Y63474829D01*
X74086695Y63474829D01*
X74086700Y63474827D01*
X74441093Y63414613D01*
X74441096Y63414613D01*
X74441102Y63414612D01*
X74799995Y63394457D01*
X74800000Y63394457D01*
X74800005Y63394457D01*
X75158897Y63414612D01*
X75158901Y63414613D01*
X75158907Y63414613D01*
X75513300Y63474827D01*
X75858724Y63574341D01*
X76190833Y63711906D01*
X76505452Y63885789D01*
X76798623Y64093806D01*
X77066661Y64333339D01*
X77306194Y64601377D01*
X77514211Y64894548D01*
X77688094Y65209167D01*
X77825659Y65541276D01*
X77925173Y65886700D01*
X77985387Y66241093D01*
X77987292Y66274998D01*
X78005543Y66599996D01*
X78005543Y66600005D01*
X77985388Y66958898D01*
X77985385Y66958918D01*
X77971058Y67043238D01*
X77925173Y67313300D01*
X77912650Y67356767D01*
X77825659Y67658724D01*
X77688092Y67990838D01*
X77514212Y68305450D01*
X77431888Y68421474D01*
X77308536Y68595322D01*
X77306197Y68598619D01*
X77306196Y68598620D01*
X77306194Y68598623D01*
X77066661Y68866661D01*
X76798623Y69106194D01*
X76798620Y69106196D01*
X76798618Y69106198D01*
X76505449Y69314213D01*
X76190836Y69488093D01*
X76190837Y69488093D01*
X75858723Y69625660D01*
X75513307Y69725172D01*
X75513287Y69725176D01*
X75158917Y69785386D01*
X75158897Y69785389D01*
X74800005Y69805543D01*
X74799995Y69805543D01*
X74441102Y69785389D01*
X74441082Y69785386D01*
X74086712Y69725176D01*
X74086692Y69725172D01*
X73741276Y69625660D01*
X73409162Y69488093D01*
X73094550Y69314213D01*
X72801381Y69106198D01*
X72533346Y68866668D01*
X72533332Y68866654D01*
X72293802Y68598619D01*
X72085787Y68305450D01*
X71911907Y67990838D01*
X71774340Y67658724D01*
X71674828Y67313308D01*
X71674824Y67313288D01*
X71614614Y66958918D01*
X71614611Y66958898D01*
X71594457Y66600005D01*
X61976124Y66600005D01*
X62065508Y66689389D01*
X62241907Y66919277D01*
X62386791Y67170223D01*
X62497680Y67437933D01*
X62572678Y67717828D01*
X62610500Y68005116D01*
X62610500Y68294884D01*
X62572678Y68582172D01*
X62497680Y68862067D01*
X62386791Y69129777D01*
X62241907Y69380723D01*
X62159519Y69488093D01*
X62065513Y69610605D01*
X62065511Y69610607D01*
X62065508Y69610611D01*
X61860611Y69815508D01*
X61860606Y69815512D01*
X61860604Y69815514D01*
X61630726Y69991905D01*
X61630723Y69991907D01*
X61379777Y70136791D01*
X61379773Y70136793D01*
X61379769Y70136795D01*
X61112072Y70247678D01*
X61112071Y70247679D01*
X61112067Y70247680D01*
X60832172Y70322678D01*
X60832169Y70322679D01*
X60832167Y70322679D01*
X60544885Y70360500D01*
X60544884Y70360500D01*
X60255116Y70360500D01*
X60255114Y70360500D01*
X59967835Y70322679D01*
X59967830Y70322679D01*
X59687940Y70247682D01*
X59687927Y70247678D01*
X59420230Y70136795D01*
X59169273Y69991905D01*
X58939395Y69815514D01*
X58734486Y69610605D01*
X58558095Y69380727D01*
X58413205Y69129770D01*
X58302322Y68862073D01*
X58302318Y68862060D01*
X58227321Y68582170D01*
X58227321Y68582165D01*
X58189500Y68294886D01*
X50916744Y68294886D01*
X50853712Y68421472D01*
X50722427Y68595322D01*
X50561432Y68742088D01*
X50376210Y68856772D01*
X50173069Y68935470D01*
X50173068Y68935471D01*
X50173066Y68935471D01*
X50107012Y68947818D01*
X50080969Y68952687D01*
X50027244Y68981963D01*
X50000988Y69037229D01*
X50012231Y69097372D01*
X50056678Y69139421D01*
X50080968Y69147314D01*
X50173069Y69164530D01*
X50376210Y69243228D01*
X50561432Y69357912D01*
X50722427Y69504678D01*
X50853712Y69678528D01*
X50950817Y69873541D01*
X51010435Y70083077D01*
X51030536Y70300000D01*
X51010435Y70516923D01*
X50950817Y70726459D01*
X50853712Y70921472D01*
X50722427Y71095322D01*
X50561432Y71242088D01*
X50376210Y71356772D01*
X50173069Y71435470D01*
X50173068Y71435471D01*
X50173066Y71435471D01*
X50107012Y71447818D01*
X50080969Y71452687D01*
X50027244Y71481963D01*
X50000988Y71537229D01*
X50012231Y71597372D01*
X50056678Y71639421D01*
X50080968Y71647314D01*
X50173069Y71664530D01*
X50376210Y71743228D01*
X50561432Y71857912D01*
X50722427Y72004678D01*
X50853712Y72178528D01*
X50950817Y72373541D01*
X51010435Y72583077D01*
X51030536Y72800000D01*
X51010435Y73016923D01*
X50950817Y73226459D01*
X50853712Y73421472D01*
X50722427Y73595322D01*
X50561432Y73742088D01*
X50376210Y73856772D01*
X50173069Y73935470D01*
X50173068Y73935471D01*
X50173066Y73935471D01*
X49958926Y73975500D01*
X49741074Y73975500D01*
X49526933Y73935471D01*
X49452258Y73906542D01*
X49323790Y73856772D01*
X49157707Y73753938D01*
X49138565Y73742086D01*
X48977574Y73595323D01*
X48846289Y73421474D01*
X48846284Y73421465D01*
X48749184Y73226462D01*
X48749183Y73226459D01*
X48695220Y73036799D01*
X48661111Y72986005D01*
X48603658Y72964961D01*
X48544809Y72981705D01*
X48507040Y73029842D01*
X48504783Y73036788D01*
X48450817Y73226459D01*
X48353712Y73421472D01*
X48222427Y73595322D01*
X48061432Y73742088D01*
X47876210Y73856772D01*
X47673069Y73935470D01*
X47673068Y73935471D01*
X47673066Y73935471D01*
X47458926Y73975500D01*
X47241074Y73975500D01*
X47026933Y73935471D01*
X46952258Y73906542D01*
X46823790Y73856772D01*
X46657707Y73753938D01*
X46638565Y73742086D01*
X46477574Y73595323D01*
X46346289Y73421474D01*
X46346284Y73421465D01*
X46249184Y73226462D01*
X46249183Y73226459D01*
X46195220Y73036799D01*
X46161111Y72986005D01*
X46103658Y72964961D01*
X46044809Y72981705D01*
X46007040Y73029842D01*
X46004783Y73036788D01*
X45950817Y73226459D01*
X45853712Y73421472D01*
X45722427Y73595322D01*
X45561432Y73742088D01*
X45376210Y73856772D01*
X45173069Y73935470D01*
X45173068Y73935471D01*
X45173066Y73935471D01*
X44958926Y73975500D01*
X44741074Y73975500D01*
X44526933Y73935471D01*
X44452258Y73906542D01*
X44323790Y73856772D01*
X44157707Y73753938D01*
X44138565Y73742086D01*
X43977574Y73595323D01*
X43846289Y73421474D01*
X43846284Y73421465D01*
X43749184Y73226462D01*
X43749183Y73226459D01*
X43695220Y73036799D01*
X43661111Y72986005D01*
X43603658Y72964961D01*
X43544809Y72981705D01*
X43507040Y73029842D01*
X43504783Y73036788D01*
X43450817Y73226459D01*
X43353712Y73421472D01*
X43222427Y73595322D01*
X43061432Y73742088D01*
X42876210Y73856772D01*
X42673069Y73935470D01*
X42673068Y73935471D01*
X42673066Y73935471D01*
X42458926Y73975500D01*
X42241074Y73975500D01*
X42026933Y73935471D01*
X41952258Y73906542D01*
X41823790Y73856772D01*
X41657707Y73753938D01*
X41638565Y73742086D01*
X41477574Y73595323D01*
X41346289Y73421474D01*
X41346284Y73421465D01*
X41249184Y73226462D01*
X41249183Y73226459D01*
X41195220Y73036799D01*
X41161111Y72986005D01*
X41103658Y72964961D01*
X41044809Y72981705D01*
X41007040Y73029842D01*
X41004783Y73036788D01*
X40950817Y73226459D01*
X40853712Y73421472D01*
X40722427Y73595322D01*
X40561432Y73742088D01*
X40376210Y73856772D01*
X40173069Y73935470D01*
X40173068Y73935471D01*
X40173066Y73935471D01*
X39958926Y73975500D01*
X39741074Y73975500D01*
X39526933Y73935471D01*
X39452258Y73906542D01*
X39323790Y73856772D01*
X39157707Y73753938D01*
X39138565Y73742086D01*
X38977574Y73595323D01*
X38846289Y73421474D01*
X38846284Y73421465D01*
X38749184Y73226462D01*
X38749183Y73226459D01*
X38695220Y73036799D01*
X38661111Y72986005D01*
X38603658Y72964961D01*
X38544809Y72981705D01*
X38507040Y73029842D01*
X38504783Y73036788D01*
X38450817Y73226459D01*
X38353712Y73421472D01*
X38222427Y73595322D01*
X38061432Y73742088D01*
X37876210Y73856772D01*
X37673069Y73935470D01*
X37673068Y73935471D01*
X37673066Y73935471D01*
X37458926Y73975500D01*
X37241074Y73975500D01*
X37026933Y73935471D01*
X36952258Y73906542D01*
X36823790Y73856772D01*
X36657707Y73753938D01*
X36638565Y73742086D01*
X36477574Y73595323D01*
X36346289Y73421474D01*
X36346284Y73421465D01*
X36249183Y73226460D01*
X36189565Y73016925D01*
X36184750Y72964961D01*
X36169464Y72800000D01*
X36189565Y72583077D01*
X36249183Y72373541D01*
X36346288Y72178528D01*
X36477573Y72004678D01*
X36638568Y71857912D01*
X36823790Y71743228D01*
X37026931Y71664530D01*
X37115758Y71647926D01*
X37119029Y71647314D01*
X37172755Y71618037D01*
X37199011Y71562771D01*
X37187768Y71502627D01*
X37143321Y71460579D01*
X37119029Y71452686D01*
X37026933Y71435471D01*
X36952258Y71406542D01*
X36823790Y71356772D01*
X36638568Y71242088D01*
X36638565Y71242086D01*
X36477574Y71095323D01*
X36346289Y70921474D01*
X36346284Y70921465D01*
X36249183Y70726460D01*
X36189565Y70516925D01*
X36169464Y70300000D01*
X36189565Y70083076D01*
X36249183Y69873541D01*
X36293078Y69785387D01*
X36346288Y69678528D01*
X36477573Y69504678D01*
X36638568Y69357912D01*
X36823790Y69243228D01*
X37026931Y69164530D01*
X37115758Y69147926D01*
X37119029Y69147314D01*
X37172755Y69118037D01*
X37199011Y69062771D01*
X37187768Y69002627D01*
X37143321Y68960579D01*
X37119029Y68952686D01*
X37026933Y68935471D01*
X36952258Y68906542D01*
X36823790Y68856772D01*
X36638568Y68742088D01*
X36638565Y68742086D01*
X36522505Y68636283D01*
X36477573Y68595322D01*
X36435009Y68538958D01*
X36346289Y68421474D01*
X36346284Y68421465D01*
X36249183Y68226460D01*
X36189565Y68016925D01*
X36169464Y67800000D01*
X36189565Y67583076D01*
X36230860Y67437941D01*
X36249183Y67373541D01*
X36346288Y67178528D01*
X36477573Y67004678D01*
X36638568Y66857912D01*
X36823790Y66743228D01*
X37026931Y66664530D01*
X37115758Y66647926D01*
X37119029Y66647314D01*
X37172755Y66618037D01*
X37199011Y66562771D01*
X37187768Y66502627D01*
X37143321Y66460579D01*
X37119029Y66452686D01*
X37026933Y66435471D01*
X36952258Y66406542D01*
X36823790Y66356772D01*
X36691720Y66274998D01*
X36638565Y66242086D01*
X36477574Y66095323D01*
X36346289Y65921474D01*
X36346284Y65921465D01*
X36249183Y65726460D01*
X36189565Y65516925D01*
X36169464Y65300000D01*
X36189565Y65083076D01*
X36241513Y64900497D01*
X36239252Y64839354D01*
X36216296Y64803402D01*
X35339511Y63926615D01*
X35339507Y63926610D01*
X35280200Y63823888D01*
X35280200Y63823887D01*
X35280201Y63823886D01*
X35250197Y63711908D01*
X35249500Y63709308D01*
X35249500Y59527612D01*
X35230593Y59469421D01*
X35220504Y59457608D01*
X32374293Y56611397D01*
X32319776Y56583620D01*
X32259344Y56593191D01*
X32234285Y56611397D01*
X29329038Y59516644D01*
X29301261Y59571161D01*
X29304304Y59615382D01*
X29348573Y59761317D01*
X29348574Y59761322D01*
X29367157Y59949997D01*
X29367157Y59950004D01*
X29348574Y60138679D01*
X29348573Y60138684D01*
X29329973Y60200001D01*
X30394318Y60200001D01*
X30394318Y60200000D01*
X30414955Y60043242D01*
X30414957Y60043234D01*
X30475462Y59897162D01*
X30475462Y59897161D01*
X30475464Y59897159D01*
X30571718Y59771718D01*
X30697159Y59675464D01*
X30843238Y59614956D01*
X30960809Y59599478D01*
X30999999Y59594318D01*
X31000000Y59594318D01*
X31000001Y59594318D01*
X31031352Y59598446D01*
X31156762Y59614956D01*
X31302841Y59675464D01*
X31428282Y59771718D01*
X31524536Y59897159D01*
X31585044Y60043238D01*
X31605682Y60200000D01*
X31585044Y60356762D01*
X31585042Y60356767D01*
X31524537Y60502839D01*
X31524537Y60502840D01*
X31428286Y60628277D01*
X31428285Y60628278D01*
X31428282Y60628282D01*
X31428277Y60628286D01*
X31428276Y60628287D01*
X31302838Y60724538D01*
X31156766Y60785043D01*
X31156758Y60785045D01*
X31000001Y60805682D01*
X30999999Y60805682D01*
X30843241Y60785045D01*
X30843233Y60785043D01*
X30697161Y60724538D01*
X30697160Y60724538D01*
X30571723Y60628287D01*
X30571713Y60628277D01*
X30475462Y60502840D01*
X30475462Y60502839D01*
X30414957Y60356767D01*
X30414955Y60356759D01*
X30394318Y60200001D01*
X29329973Y60200001D01*
X29293537Y60320115D01*
X29204162Y60487324D01*
X29083883Y60633883D01*
X28937324Y60754162D01*
X28879546Y60785045D01*
X28770120Y60843535D01*
X28770115Y60843537D01*
X28588683Y60898574D01*
X28588678Y60898575D01*
X28400003Y60917157D01*
X28399997Y60917157D01*
X28211321Y60898575D01*
X28211316Y60898574D01*
X28029884Y60843537D01*
X28029879Y60843535D01*
X27862681Y60754165D01*
X27862671Y60754159D01*
X27716121Y60633887D01*
X27716113Y60633879D01*
X27595841Y60487329D01*
X27595835Y60487319D01*
X27506465Y60320121D01*
X27506463Y60320116D01*
X27451426Y60138684D01*
X27451425Y60138679D01*
X27432843Y59950004D01*
X27432843Y59949997D01*
X27451425Y59761322D01*
X27451426Y59761317D01*
X27506463Y59579885D01*
X27506465Y59579880D01*
X27540266Y59516644D01*
X27595838Y59412676D01*
X27716117Y59266117D01*
X27862676Y59145838D01*
X28029885Y59056463D01*
X28138914Y59023390D01*
X28211316Y59001427D01*
X28211321Y59001426D01*
X28399997Y58982843D01*
X28400000Y58982843D01*
X28400003Y58982843D01*
X28588678Y59001426D01*
X28588683Y59001427D01*
X28734616Y59045695D01*
X28795787Y59044494D01*
X28833356Y59020962D01*
X31670504Y56183814D01*
X31698281Y56129297D01*
X31699500Y56113810D01*
X31699500Y55425140D01*
X31680593Y55366949D01*
X31631093Y55330985D01*
X31569907Y55330985D01*
X31530496Y55355136D01*
X30979950Y55905682D01*
X30405162Y56480470D01*
X30325238Y56526614D01*
X30236094Y56550500D01*
X25601961Y56550500D01*
X25512817Y56526614D01*
X25432893Y56480470D01*
X23569037Y54616615D01*
X23514520Y54588838D01*
X23454088Y54598409D01*
X23410823Y54641674D01*
X23401252Y54702106D01*
X23404291Y54715339D01*
X23448573Y54861317D01*
X23448573Y54861321D01*
X23448574Y54861322D01*
X23467157Y55049997D01*
X23467157Y55050004D01*
X23448574Y55238679D01*
X23448573Y55238684D01*
X23429973Y55300001D01*
X23393537Y55420115D01*
X23304162Y55587324D01*
X23183883Y55733883D01*
X23126358Y55781093D01*
X23037328Y55854159D01*
X23037326Y55854160D01*
X23037324Y55854162D01*
X22940937Y55905682D01*
X22870120Y55943535D01*
X22870115Y55943537D01*
X22688683Y55998574D01*
X22688678Y55998575D01*
X22500003Y56017157D01*
X22499997Y56017157D01*
X22311321Y55998575D01*
X22311316Y55998574D01*
X22129884Y55943537D01*
X22129879Y55943535D01*
X21962681Y55854165D01*
X21962671Y55854159D01*
X21816121Y55733887D01*
X21816113Y55733879D01*
X21695841Y55587329D01*
X21695835Y55587319D01*
X21606465Y55420121D01*
X21606463Y55420116D01*
X21551426Y55238684D01*
X21551425Y55238679D01*
X21532843Y55050004D01*
X21532843Y55049997D01*
X21551425Y54861322D01*
X21551426Y54861317D01*
X21606463Y54679885D01*
X21606465Y54679880D01*
X21674797Y54552041D01*
X21695838Y54512676D01*
X21816117Y54366117D01*
X21962676Y54245838D01*
X21977114Y54238121D01*
X21979566Y54236810D01*
X22021973Y54192704D01*
X22030356Y54132096D01*
X22001514Y54078135D01*
X21946462Y54051434D01*
X21932898Y54050500D01*
X20567102Y54050500D01*
X20508911Y54069407D01*
X20472947Y54118907D01*
X20472947Y54180093D01*
X20508911Y54229593D01*
X20520434Y54236810D01*
X20521893Y54237591D01*
X20537324Y54245838D01*
X20683883Y54366117D01*
X20804162Y54512676D01*
X20893537Y54679885D01*
X20948573Y54861317D01*
X20948574Y54861322D01*
X20967157Y55049997D01*
X20967157Y55050004D01*
X20948574Y55238679D01*
X20948573Y55238684D01*
X20929973Y55300001D01*
X20893537Y55420115D01*
X20804162Y55587324D01*
X20683883Y55733883D01*
X20626358Y55781093D01*
X20537328Y55854159D01*
X20537326Y55854160D01*
X20537324Y55854162D01*
X20440937Y55905682D01*
X20370120Y55943535D01*
X20370115Y55943537D01*
X20188683Y55998574D01*
X20188678Y55998575D01*
X20000003Y56017157D01*
X19999997Y56017157D01*
X19811321Y55998575D01*
X19811316Y55998574D01*
X19629884Y55943537D01*
X19629879Y55943535D01*
X19462681Y55854165D01*
X19462671Y55854159D01*
X19350130Y55761798D01*
X19293153Y55739498D01*
X19233950Y55754947D01*
X19195135Y55802243D01*
X19189172Y55825405D01*
X19188489Y55830593D01*
X19185044Y55856762D01*
X19164781Y55905682D01*
X19124537Y56002839D01*
X19124537Y56002840D01*
X19028286Y56128277D01*
X19028285Y56128278D01*
X19028282Y56128282D01*
X19028277Y56128286D01*
X19028276Y56128287D01*
X18902838Y56224538D01*
X18756766Y56285043D01*
X18756758Y56285045D01*
X18600001Y56305682D01*
X18599999Y56305682D01*
X18443241Y56285045D01*
X18443233Y56285043D01*
X18297161Y56224538D01*
X18297160Y56224538D01*
X18171723Y56128287D01*
X18171713Y56128277D01*
X18078542Y56006853D01*
X18028117Y55972197D01*
X17966953Y55973799D01*
X17921458Y56006853D01*
X17828286Y56128277D01*
X17828285Y56128278D01*
X17828282Y56128282D01*
X17828277Y56128286D01*
X17828276Y56128287D01*
X17702838Y56224538D01*
X17556766Y56285043D01*
X17556758Y56285045D01*
X17400001Y56305682D01*
X17399999Y56305682D01*
X17243241Y56285045D01*
X17243233Y56285043D01*
X17097161Y56224538D01*
X17097160Y56224538D01*
X16971723Y56128287D01*
X16971713Y56128277D01*
X16875462Y56002840D01*
X16875462Y56002839D01*
X16814957Y55856767D01*
X16814955Y55856759D01*
X16794318Y55700001D01*
X16794318Y55700000D01*
X16814955Y55543242D01*
X16814957Y55543234D01*
X16875462Y55397162D01*
X16875462Y55397161D01*
X16971713Y55271724D01*
X16971718Y55271718D01*
X17097159Y55175464D01*
X17097160Y55175464D01*
X17097161Y55175463D01*
X17174959Y55143238D01*
X17243238Y55114956D01*
X17360809Y55099478D01*
X17399999Y55094318D01*
X17400000Y55094318D01*
X17400001Y55094318D01*
X17431352Y55098446D01*
X17556762Y55114956D01*
X17702841Y55175464D01*
X17828282Y55271718D01*
X17921458Y55393149D01*
X17971882Y55427804D01*
X18033047Y55426203D01*
X18078542Y55393148D01*
X18150016Y55300000D01*
X18171718Y55271718D01*
X18297159Y55175464D01*
X18297160Y55175464D01*
X18297161Y55175463D01*
X18374959Y55143238D01*
X18443238Y55114956D01*
X18560809Y55099478D01*
X18599999Y55094318D01*
X18600000Y55094318D01*
X18600001Y55094318D01*
X18631352Y55098446D01*
X18756762Y55114956D01*
X18898657Y55173732D01*
X18959652Y55178532D01*
X19011821Y55146563D01*
X19035236Y55090035D01*
X19035065Y55072567D01*
X19032843Y55049999D01*
X19032843Y55049997D01*
X19051425Y54861322D01*
X19051426Y54861317D01*
X19106463Y54679885D01*
X19106465Y54679880D01*
X19174797Y54552041D01*
X19195838Y54512676D01*
X19316117Y54366117D01*
X19462676Y54245838D01*
X19477114Y54238121D01*
X19479566Y54236810D01*
X19521973Y54192704D01*
X19530356Y54132096D01*
X19501514Y54078135D01*
X19446462Y54051434D01*
X19432898Y54050500D01*
X18136787Y54050500D01*
X18078596Y54069407D01*
X18058245Y54089233D01*
X18028285Y54128278D01*
X18028282Y54128282D01*
X18028277Y54128286D01*
X18028276Y54128287D01*
X17939335Y54196533D01*
X17902841Y54224536D01*
X17902840Y54224537D01*
X17902838Y54224538D01*
X17756766Y54285043D01*
X17756758Y54285045D01*
X17600001Y54305682D01*
X17599999Y54305682D01*
X17443241Y54285045D01*
X17443233Y54285043D01*
X17297161Y54224538D01*
X17297160Y54224538D01*
X17171723Y54128287D01*
X17171713Y54128277D01*
X17075462Y54002840D01*
X17075462Y54002839D01*
X17014957Y53856767D01*
X17014955Y53856759D01*
X16994318Y53700001D01*
X16994318Y53699999D01*
X17000742Y53651200D01*
X16989591Y53591039D01*
X16972593Y53568276D01*
X16619530Y53215213D01*
X16585456Y53156197D01*
X16585457Y53156196D01*
X16573386Y53135289D01*
X16567938Y53114956D01*
X16552347Y53056767D01*
X16549500Y53046143D01*
X16549500Y45253857D01*
X16565452Y45194320D01*
X16573386Y45164711D01*
X16573387Y45164709D01*
X16619528Y45084791D01*
X16619530Y45084788D01*
X16914637Y44789681D01*
X17172592Y44531726D01*
X17200369Y44477209D01*
X17200741Y44448803D01*
X17194318Y44400005D01*
X17194318Y44400000D01*
X17214955Y44243242D01*
X17214957Y44243234D01*
X17275462Y44097162D01*
X17275462Y44097161D01*
X17361493Y43985043D01*
X17371718Y43971718D01*
X17394996Y43953856D01*
X17410767Y43941755D01*
X17445423Y43891331D01*
X17449500Y43863213D01*
X17449500Y43849500D01*
X17430593Y43791309D01*
X17381093Y43755345D01*
X17350500Y43750500D01*
X2736787Y43750500D01*
X2678596Y43769407D01*
X2658245Y43789233D01*
X2628285Y43828278D01*
X2628282Y43828282D01*
X2628277Y43828286D01*
X2628276Y43828287D01*
X2519134Y43912034D01*
X2502841Y43924536D01*
X2502840Y43924537D01*
X2502838Y43924538D01*
X2356766Y43985043D01*
X2356758Y43985045D01*
X2200001Y44005682D01*
X2199999Y44005682D01*
X2043241Y43985045D01*
X2043233Y43985043D01*
X1897161Y43924538D01*
X1897160Y43924538D01*
X1771723Y43828287D01*
X1771710Y43828274D01*
X1751728Y43802233D01*
X1701303Y43767578D01*
X1640139Y43769181D01*
X1603184Y43792498D01*
X1279496Y44116186D01*
X1251719Y44170703D01*
X1250500Y44186190D01*
X1250500Y45800001D01*
X2494318Y45800001D01*
X2494318Y45800000D01*
X2514955Y45643242D01*
X2514957Y45643234D01*
X2575462Y45497162D01*
X2575462Y45497161D01*
X2665993Y45379179D01*
X2671718Y45371718D01*
X2797159Y45275464D01*
X2943238Y45214956D01*
X3060809Y45199478D01*
X3099999Y45194318D01*
X3100000Y45194318D01*
X3100001Y45194318D01*
X3131352Y45198446D01*
X3256762Y45214956D01*
X3402841Y45275464D01*
X3528282Y45371718D01*
X3624536Y45497159D01*
X3685044Y45643238D01*
X3705682Y45800000D01*
X3685044Y45956762D01*
X3624537Y46102839D01*
X3624537Y46102840D01*
X3528286Y46228277D01*
X3528285Y46228278D01*
X3528282Y46228282D01*
X3528277Y46228286D01*
X3528276Y46228287D01*
X3447062Y46290604D01*
X3402841Y46324536D01*
X3402840Y46324537D01*
X3402838Y46324538D01*
X3256766Y46385043D01*
X3256758Y46385045D01*
X3100001Y46405682D01*
X3099999Y46405682D01*
X2943241Y46385045D01*
X2943233Y46385043D01*
X2797161Y46324538D01*
X2797160Y46324538D01*
X2671723Y46228287D01*
X2671713Y46228277D01*
X2575462Y46102840D01*
X2575462Y46102839D01*
X2514957Y45956767D01*
X2514955Y45956759D01*
X2494318Y45800001D01*
X1250500Y45800001D01*
X1250500Y47200001D01*
X3694318Y47200001D01*
X3694318Y47200000D01*
X3714955Y47043242D01*
X3714957Y47043234D01*
X3775462Y46897162D01*
X3775462Y46897161D01*
X3868844Y46775463D01*
X3871718Y46771718D01*
X3871722Y46771715D01*
X3871723Y46771714D01*
X3892064Y46756106D01*
X3997159Y46675464D01*
X3997160Y46675464D01*
X3997161Y46675463D01*
X4129093Y46620815D01*
X4143238Y46614956D01*
X4260809Y46599478D01*
X4299999Y46594318D01*
X4300000Y46594318D01*
X4300001Y46594318D01*
X4331352Y46598446D01*
X4456762Y46614956D01*
X4602841Y46675464D01*
X4728282Y46771718D01*
X4824536Y46897159D01*
X4885044Y47043238D01*
X4905682Y47200000D01*
X4885044Y47356762D01*
X4843621Y47456767D01*
X4824537Y47502839D01*
X4824537Y47502840D01*
X4728286Y47628277D01*
X4728285Y47628278D01*
X4728282Y47628282D01*
X4728277Y47628286D01*
X4728276Y47628287D01*
X4622574Y47709394D01*
X4602841Y47724536D01*
X4602840Y47724537D01*
X4602838Y47724538D01*
X4456766Y47785043D01*
X4456758Y47785045D01*
X4300001Y47805682D01*
X4299999Y47805682D01*
X4143241Y47785045D01*
X4143233Y47785043D01*
X3997161Y47724538D01*
X3997160Y47724538D01*
X3871723Y47628287D01*
X3871713Y47628277D01*
X3775462Y47502840D01*
X3775462Y47502839D01*
X3714957Y47356767D01*
X3714955Y47356759D01*
X3694318Y47200001D01*
X1250500Y47200001D01*
X1250500Y51600001D01*
X2094318Y51600001D01*
X2094318Y51600000D01*
X2114955Y51443242D01*
X2114957Y51443234D01*
X2175462Y51297162D01*
X2175462Y51297161D01*
X2231189Y51224536D01*
X2271718Y51171718D01*
X2397159Y51075464D01*
X2397160Y51075464D01*
X2397161Y51075463D01*
X2543233Y51014958D01*
X2543238Y51014956D01*
X2660350Y50999538D01*
X2699999Y50994318D01*
X2700000Y50994318D01*
X2700001Y50994318D01*
X2739650Y50999538D01*
X2856762Y51014956D01*
X3002841Y51075464D01*
X3128282Y51171718D01*
X3224536Y51297159D01*
X3285044Y51443238D01*
X3305682Y51600000D01*
X3285044Y51756762D01*
X3263075Y51809800D01*
X3224537Y51902839D01*
X3224537Y51902840D01*
X3128286Y52028277D01*
X3128285Y52028278D01*
X3128282Y52028282D01*
X3128277Y52028286D01*
X3128276Y52028287D01*
X3021550Y52110180D01*
X3002841Y52124536D01*
X3002840Y52124537D01*
X3002838Y52124538D01*
X2856766Y52185043D01*
X2856758Y52185045D01*
X2700001Y52205682D01*
X2699999Y52205682D01*
X2543241Y52185045D01*
X2543233Y52185043D01*
X2397161Y52124538D01*
X2397160Y52124538D01*
X2271723Y52028287D01*
X2271713Y52028277D01*
X2175462Y51902840D01*
X2175462Y51902839D01*
X2114957Y51756767D01*
X2114955Y51756759D01*
X2094318Y51600001D01*
X1250500Y51600001D01*
X1250500Y52213812D01*
X1269407Y52272003D01*
X1279490Y52283810D01*
X1595681Y52600001D01*
X3994318Y52600001D01*
X3994318Y52600000D01*
X4014955Y52443242D01*
X4014957Y52443234D01*
X4075462Y52297162D01*
X4075462Y52297161D01*
X4161493Y52185043D01*
X4171718Y52171718D01*
X4297159Y52075464D01*
X4443238Y52014956D01*
X4560809Y51999478D01*
X4599999Y51994318D01*
X4600000Y51994318D01*
X4600001Y51994318D01*
X4631352Y51998446D01*
X4756762Y52014956D01*
X4902841Y52075464D01*
X5028282Y52171718D01*
X5124536Y52297159D01*
X5185044Y52443238D01*
X5205682Y52600000D01*
X5203679Y52615211D01*
X5185044Y52756759D01*
X5185044Y52756762D01*
X5161413Y52813812D01*
X5124537Y52902839D01*
X5124537Y52902840D01*
X5028286Y53028277D01*
X5028285Y53028278D01*
X5028282Y53028282D01*
X5028277Y53028286D01*
X5028276Y53028287D01*
X4942221Y53094319D01*
X4902841Y53124536D01*
X4902840Y53124537D01*
X4902838Y53124538D01*
X4756766Y53185043D01*
X4756758Y53185045D01*
X4600001Y53205682D01*
X4599999Y53205682D01*
X4443241Y53185045D01*
X4443233Y53185043D01*
X4297161Y53124538D01*
X4297160Y53124538D01*
X4171723Y53028287D01*
X4171713Y53028277D01*
X4075462Y52902840D01*
X4075462Y52902839D01*
X4014957Y52756767D01*
X4014955Y52756759D01*
X3994318Y52600001D01*
X1595681Y52600001D01*
X2680469Y53684788D01*
X2726614Y53764712D01*
X2738331Y53808442D01*
X2750500Y53853856D01*
X2750500Y54363213D01*
X2769407Y54421404D01*
X2789233Y54441755D01*
X2828282Y54471718D01*
X2924536Y54597159D01*
X2985044Y54743238D01*
X3005682Y54900000D01*
X2985044Y55056762D01*
X2970149Y55092721D01*
X2924537Y55202839D01*
X2924537Y55202840D01*
X2828286Y55328277D01*
X2828285Y55328278D01*
X2828282Y55328282D01*
X2828277Y55328286D01*
X2828276Y55328287D01*
X2738517Y55397161D01*
X2702841Y55424536D01*
X2702840Y55424537D01*
X2702838Y55424538D01*
X2556766Y55485043D01*
X2556758Y55485045D01*
X2400001Y55505682D01*
X2399999Y55505682D01*
X2243241Y55485045D01*
X2243233Y55485043D01*
X2097161Y55424538D01*
X2097160Y55424538D01*
X1971723Y55328287D01*
X1971713Y55328277D01*
X1875462Y55202840D01*
X1875462Y55202839D01*
X1814957Y55056767D01*
X1814955Y55056759D01*
X1794318Y54900001D01*
X1794318Y54900000D01*
X1814955Y54743242D01*
X1814957Y54743234D01*
X1875462Y54597162D01*
X1875462Y54597161D01*
X1940293Y54512672D01*
X1971718Y54471718D01*
X1971722Y54471715D01*
X2010767Y54441755D01*
X2045423Y54391331D01*
X2049500Y54363213D01*
X2049500Y54086190D01*
X2030593Y54027999D01*
X2020504Y54016186D01*
X619529Y52615211D01*
X594552Y52571949D01*
X594551Y52571950D01*
X573387Y52535293D01*
X573386Y52535288D01*
X549500Y52446144D01*
X549500Y43953856D01*
X570505Y43875464D01*
X573386Y43864712D01*
X619530Y43784788D01*
X1284315Y43120003D01*
X1312091Y43065488D01*
X1302520Y43005056D01*
X1284314Y42979998D01*
X819533Y42515216D01*
X819530Y42515212D01*
X807577Y42494508D01*
X796582Y42475464D01*
X773387Y42435291D01*
X773386Y42435289D01*
X773386Y42435288D01*
X749500Y42346144D01*
X749500Y5913169D01*
X773386Y5824025D01*
X819530Y5744101D01*
X1800723Y4762908D01*
X2752249Y3811382D01*
X2780026Y3756865D01*
X2780398Y3728459D01*
X2773975Y3679661D01*
X2773975Y3679657D01*
X2794612Y3522899D01*
X2794614Y3522891D01*
X2855119Y3376819D01*
X2855119Y3376818D01*
X2929051Y3280468D01*
X2951375Y3251375D01*
X3076816Y3155121D01*
X3222895Y3094613D01*
X3379657Y3073975D01*
X3428455Y3080400D01*
X3488613Y3069251D01*
X3511380Y3052251D01*
X6194129Y369502D01*
X6221905Y314987D01*
X6212334Y254555D01*
X6169069Y211290D01*
X6124124Y200500D01*
X3002773Y200500D01*
X2997222Y200656D01*
X2692105Y217792D01*
X2681073Y219035D01*
X2382538Y269757D01*
X2371716Y272227D01*
X2297239Y293683D01*
X2080724Y356061D01*
X2070245Y359728D01*
X1790476Y475612D01*
X1780474Y480429D01*
X1515444Y626906D01*
X1506044Y632812D01*
X1259069Y808050D01*
X1250389Y814973D01*
X1024600Y1016751D01*
X1016750Y1024601D01*
X814972Y1250390D01*
X808049Y1259070D01*
X632811Y1506045D01*
X626905Y1515445D01*
X480428Y1780475D01*
X475611Y1790477D01*
X430245Y1900000D01*
X359725Y2070250D01*
X356060Y2080725D01*
X272222Y2371730D01*
X269759Y2382524D01*
X219033Y2681079D01*
X217791Y2692106D01*
X212637Y2783875D01*
X200656Y2997223D01*
X200500Y3002774D01*
X200500Y56400001D01*
X3794318Y56400001D01*
X3794318Y56400000D01*
X3814955Y56243242D01*
X3814957Y56243234D01*
X3875462Y56097162D01*
X3875462Y56097161D01*
X3951111Y55998573D01*
X3971718Y55971718D01*
X4097159Y55875464D01*
X4097160Y55875464D01*
X4097161Y55875463D01*
X4176282Y55842690D01*
X4243238Y55814956D01*
X4360809Y55799478D01*
X4399999Y55794318D01*
X4400000Y55794318D01*
X4400001Y55794318D01*
X4431352Y55798446D01*
X4556762Y55814956D01*
X4702841Y55875464D01*
X4828282Y55971718D01*
X4924536Y56097159D01*
X4985044Y56243238D01*
X5005682Y56400000D01*
X4985044Y56556762D01*
X4969955Y56593191D01*
X4924537Y56702839D01*
X4924537Y56702840D01*
X4828286Y56828277D01*
X4828285Y56828278D01*
X4828282Y56828282D01*
X4828277Y56828286D01*
X4828276Y56828287D01*
X4702838Y56924538D01*
X4556766Y56985043D01*
X4556758Y56985045D01*
X4400001Y57005682D01*
X4399999Y57005682D01*
X4243241Y56985045D01*
X4243233Y56985043D01*
X4097161Y56924538D01*
X4097160Y56924538D01*
X3971723Y56828287D01*
X3971713Y56828277D01*
X3875462Y56702840D01*
X3875462Y56702839D01*
X3814957Y56556767D01*
X3814955Y56556759D01*
X3794318Y56400001D01*
X200500Y56400001D01*
X200500Y59950004D01*
X19032843Y59950004D01*
X19032843Y59949997D01*
X19051425Y59761322D01*
X19051426Y59761317D01*
X19106463Y59579885D01*
X19106465Y59579880D01*
X19140266Y59516644D01*
X19195838Y59412676D01*
X19316117Y59266117D01*
X19462676Y59145838D01*
X19629885Y59056463D01*
X19738914Y59023390D01*
X19811316Y59001427D01*
X19811321Y59001426D01*
X19999997Y58982843D01*
X20000000Y58982843D01*
X20000003Y58982843D01*
X20188678Y59001426D01*
X20188683Y59001427D01*
X20370115Y59056463D01*
X20537324Y59145838D01*
X20683883Y59266117D01*
X20804162Y59412676D01*
X20893537Y59579885D01*
X20948573Y59761317D01*
X20948574Y59761322D01*
X20967157Y59949997D01*
X20967157Y59950004D01*
X21532843Y59950004D01*
X21532843Y59949997D01*
X21551425Y59761322D01*
X21551426Y59761317D01*
X21606463Y59579885D01*
X21606465Y59579880D01*
X21640266Y59516644D01*
X21695838Y59412676D01*
X21816117Y59266117D01*
X21962676Y59145838D01*
X22129885Y59056463D01*
X22238914Y59023390D01*
X22311316Y59001427D01*
X22311321Y59001426D01*
X22499997Y58982843D01*
X22500000Y58982843D01*
X22500003Y58982843D01*
X22688678Y59001426D01*
X22688683Y59001427D01*
X22870115Y59056463D01*
X23037324Y59145838D01*
X23183883Y59266117D01*
X23304162Y59412676D01*
X23393537Y59579885D01*
X23448573Y59761317D01*
X23448574Y59761322D01*
X23467157Y59949997D01*
X23467157Y59950004D01*
X25032843Y59950004D01*
X25032843Y59949997D01*
X25051425Y59761322D01*
X25051426Y59761317D01*
X25106463Y59579885D01*
X25106465Y59579880D01*
X25140266Y59516644D01*
X25195838Y59412676D01*
X25316117Y59266117D01*
X25462676Y59145838D01*
X25629885Y59056463D01*
X25738914Y59023390D01*
X25811316Y59001427D01*
X25811321Y59001426D01*
X25999997Y58982843D01*
X26000000Y58982843D01*
X26000003Y58982843D01*
X26188678Y59001426D01*
X26188683Y59001427D01*
X26370115Y59056463D01*
X26537324Y59145838D01*
X26683883Y59266117D01*
X26804162Y59412676D01*
X26893537Y59579885D01*
X26948573Y59761317D01*
X26948574Y59761322D01*
X26967157Y59949997D01*
X26967157Y59950004D01*
X26948574Y60138679D01*
X26948573Y60138684D01*
X26929973Y60200001D01*
X26893537Y60320115D01*
X26804162Y60487324D01*
X26683883Y60633883D01*
X26537324Y60754162D01*
X26479546Y60785045D01*
X26370120Y60843535D01*
X26370115Y60843537D01*
X26188683Y60898574D01*
X26188678Y60898575D01*
X26000003Y60917157D01*
X25999997Y60917157D01*
X25811321Y60898575D01*
X25811316Y60898574D01*
X25629884Y60843537D01*
X25629879Y60843535D01*
X25462681Y60754165D01*
X25462671Y60754159D01*
X25316121Y60633887D01*
X25316113Y60633879D01*
X25195841Y60487329D01*
X25195835Y60487319D01*
X25106465Y60320121D01*
X25106463Y60320116D01*
X25051426Y60138684D01*
X25051425Y60138679D01*
X25032843Y59950004D01*
X23467157Y59950004D01*
X23448574Y60138679D01*
X23448573Y60138684D01*
X23429973Y60200001D01*
X23393537Y60320115D01*
X23304162Y60487324D01*
X23183883Y60633883D01*
X23037324Y60754162D01*
X22979546Y60785045D01*
X22870120Y60843535D01*
X22870115Y60843537D01*
X22688683Y60898574D01*
X22688678Y60898575D01*
X22500003Y60917157D01*
X22499997Y60917157D01*
X22311321Y60898575D01*
X22311316Y60898574D01*
X22129884Y60843537D01*
X22129879Y60843535D01*
X21962681Y60754165D01*
X21962671Y60754159D01*
X21816121Y60633887D01*
X21816113Y60633879D01*
X21695841Y60487329D01*
X21695835Y60487319D01*
X21606465Y60320121D01*
X21606463Y60320116D01*
X21551426Y60138684D01*
X21551425Y60138679D01*
X21532843Y59950004D01*
X20967157Y59950004D01*
X20948574Y60138679D01*
X20948573Y60138684D01*
X20929973Y60200001D01*
X20893537Y60320115D01*
X20804162Y60487324D01*
X20683883Y60633883D01*
X20537324Y60754162D01*
X20479546Y60785045D01*
X20370120Y60843535D01*
X20370115Y60843537D01*
X20188683Y60898574D01*
X20188678Y60898575D01*
X20000003Y60917157D01*
X19999997Y60917157D01*
X19811321Y60898575D01*
X19811316Y60898574D01*
X19629884Y60843537D01*
X19629879Y60843535D01*
X19462681Y60754165D01*
X19462671Y60754159D01*
X19316121Y60633887D01*
X19316113Y60633879D01*
X19195841Y60487329D01*
X19195835Y60487319D01*
X19106465Y60320121D01*
X19106463Y60320116D01*
X19051426Y60138684D01*
X19051425Y60138679D01*
X19032843Y59950004D01*
X200500Y59950004D01*
X200500Y61400001D01*
X17594318Y61400001D01*
X17594318Y61400000D01*
X17614955Y61243242D01*
X17614957Y61243234D01*
X17675462Y61097162D01*
X17675462Y61097161D01*
X17675464Y61097159D01*
X17771718Y60971718D01*
X17897159Y60875464D01*
X18043238Y60814956D01*
X18160809Y60799478D01*
X18199999Y60794318D01*
X18200000Y60794318D01*
X18200001Y60794318D01*
X18231352Y60798446D01*
X18356762Y60814956D01*
X18502841Y60875464D01*
X18628282Y60971718D01*
X18724536Y61097159D01*
X18785044Y61243238D01*
X18805682Y61400000D01*
X18785044Y61556762D01*
X18724537Y61702839D01*
X18724537Y61702840D01*
X18628286Y61828277D01*
X18628285Y61828278D01*
X18628282Y61828282D01*
X18628277Y61828286D01*
X18628276Y61828287D01*
X18502838Y61924538D01*
X18356766Y61985043D01*
X18356758Y61985045D01*
X18200001Y62005682D01*
X18199999Y62005682D01*
X18043241Y61985045D01*
X18043233Y61985043D01*
X17897161Y61924538D01*
X17897160Y61924538D01*
X17771723Y61828287D01*
X17771713Y61828277D01*
X17675462Y61702840D01*
X17675462Y61702839D01*
X17614957Y61556767D01*
X17614955Y61556759D01*
X17594318Y61400001D01*
X200500Y61400001D01*
X200500Y66600005D01*
X1994457Y66600005D01*
X1994457Y66599996D01*
X2014611Y66241103D01*
X2014614Y66241083D01*
X2074824Y65886713D01*
X2074828Y65886693D01*
X2174340Y65541277D01*
X2311907Y65209163D01*
X2482501Y64900497D01*
X2485789Y64894548D01*
X2693806Y64601377D01*
X2933339Y64333339D01*
X3201377Y64093806D01*
X3494548Y63885789D01*
X3494550Y63885788D01*
X3809163Y63711908D01*
X3809162Y63711908D01*
X4141276Y63574341D01*
X4486692Y63474829D01*
X4486695Y63474829D01*
X4486700Y63474827D01*
X4841093Y63414613D01*
X4841096Y63414613D01*
X4841102Y63414612D01*
X5199995Y63394457D01*
X5200000Y63394457D01*
X5200005Y63394457D01*
X5558897Y63414612D01*
X5558901Y63414613D01*
X5558907Y63414613D01*
X5913300Y63474827D01*
X6258724Y63574341D01*
X6590833Y63711906D01*
X6905452Y63885789D01*
X7198623Y64093806D01*
X7466661Y64333339D01*
X7529042Y64403143D01*
X22389500Y64403143D01*
X22389500Y64196858D01*
X22421767Y63993129D01*
X22485512Y63796943D01*
X22579159Y63613149D01*
X22579163Y63613143D01*
X22700402Y63446273D01*
X22700404Y63446271D01*
X22700407Y63446267D01*
X22846267Y63300407D01*
X22846270Y63300405D01*
X22846272Y63300403D01*
X23013142Y63179164D01*
X23013148Y63179160D01*
X23196943Y63085512D01*
X23393124Y63021769D01*
X23393125Y63021769D01*
X23393128Y63021768D01*
X23596858Y62989500D01*
X23596861Y62989500D01*
X23803142Y62989500D01*
X24006871Y63021768D01*
X24006872Y63021769D01*
X24006876Y63021769D01*
X24203057Y63085512D01*
X24386852Y63179160D01*
X24553733Y63300407D01*
X24699593Y63446267D01*
X24820840Y63613148D01*
X24914488Y63796943D01*
X24978231Y63993124D01*
X24999039Y64124500D01*
X25010500Y64196858D01*
X25010500Y64403143D01*
X24978232Y64606872D01*
X24954950Y64678527D01*
X24914488Y64803057D01*
X24820840Y64986852D01*
X24765370Y65063200D01*
X24699597Y65153728D01*
X24699595Y65153730D01*
X24699593Y65153733D01*
X24553733Y65299593D01*
X24553729Y65299596D01*
X24553727Y65299598D01*
X24386857Y65420837D01*
X24386851Y65420841D01*
X24203057Y65514488D01*
X24006871Y65578233D01*
X23803142Y65610500D01*
X23803139Y65610500D01*
X23596861Y65610500D01*
X23596858Y65610500D01*
X23393128Y65578233D01*
X23196942Y65514488D01*
X23013148Y65420841D01*
X23013142Y65420837D01*
X22846272Y65299598D01*
X22700402Y65153728D01*
X22579163Y64986858D01*
X22579159Y64986852D01*
X22485512Y64803058D01*
X22421767Y64606872D01*
X22389500Y64403143D01*
X7529042Y64403143D01*
X7706194Y64601377D01*
X7914211Y64894548D01*
X8088094Y65209167D01*
X8225659Y65541276D01*
X8325173Y65886700D01*
X8385387Y66241093D01*
X8387292Y66274998D01*
X8405543Y66599996D01*
X8405543Y66600005D01*
X8385388Y66958898D01*
X8385385Y66958918D01*
X8371058Y67043238D01*
X8325173Y67313300D01*
X8312650Y67356767D01*
X8225659Y67658724D01*
X8088092Y67990838D01*
X7920051Y68294886D01*
X17389500Y68294886D01*
X17389500Y68005115D01*
X17427321Y67717836D01*
X17427321Y67717831D01*
X17502318Y67437941D01*
X17502322Y67437928D01*
X17613205Y67170231D01*
X17613207Y67170227D01*
X17613209Y67170223D01*
X17735213Y66958907D01*
X17758095Y66919274D01*
X17934486Y66689396D01*
X17934488Y66689394D01*
X17934492Y66689389D01*
X18139389Y66484492D01*
X18139393Y66484489D01*
X18139395Y66484487D01*
X18305837Y66356772D01*
X18369277Y66308093D01*
X18620223Y66163209D01*
X18887933Y66052320D01*
X19167828Y65977322D01*
X19455116Y65939500D01*
X19455117Y65939500D01*
X19744883Y65939500D01*
X19744884Y65939500D01*
X20032172Y65977322D01*
X20312067Y66052320D01*
X20579777Y66163209D01*
X20830723Y66308093D01*
X21060611Y66484492D01*
X21265508Y66689389D01*
X21441907Y66919277D01*
X21586791Y67170223D01*
X21697680Y67437933D01*
X21772678Y67717828D01*
X21810500Y68005116D01*
X21810500Y68294884D01*
X21772678Y68582172D01*
X21697680Y68862067D01*
X21586791Y69129777D01*
X21441907Y69380723D01*
X21359519Y69488093D01*
X21265513Y69610605D01*
X21265511Y69610607D01*
X21265508Y69610611D01*
X21060611Y69815508D01*
X21060606Y69815512D01*
X21060604Y69815514D01*
X20830726Y69991905D01*
X20830723Y69991907D01*
X20579777Y70136791D01*
X20579773Y70136793D01*
X20579769Y70136795D01*
X20312072Y70247678D01*
X20312071Y70247679D01*
X20312067Y70247680D01*
X20032172Y70322678D01*
X20032169Y70322679D01*
X20032167Y70322679D01*
X19744885Y70360500D01*
X19744884Y70360500D01*
X19455116Y70360500D01*
X19455114Y70360500D01*
X19167835Y70322679D01*
X19167830Y70322679D01*
X18887940Y70247682D01*
X18887927Y70247678D01*
X18620230Y70136795D01*
X18369273Y69991905D01*
X18139395Y69815514D01*
X17934486Y69610605D01*
X17758095Y69380727D01*
X17613205Y69129770D01*
X17502322Y68862073D01*
X17502318Y68862060D01*
X17427321Y68582170D01*
X17427321Y68582165D01*
X17389500Y68294886D01*
X7920051Y68294886D01*
X7914212Y68305450D01*
X7831888Y68421474D01*
X7708536Y68595322D01*
X7706197Y68598619D01*
X7706196Y68598620D01*
X7706194Y68598623D01*
X7466661Y68866661D01*
X7198623Y69106194D01*
X7198620Y69106196D01*
X7198618Y69106198D01*
X6905449Y69314213D01*
X6590836Y69488093D01*
X6590837Y69488093D01*
X6258723Y69625660D01*
X5913307Y69725172D01*
X5913287Y69725176D01*
X5558917Y69785386D01*
X5558897Y69785389D01*
X5200005Y69805543D01*
X5199995Y69805543D01*
X4841102Y69785389D01*
X4841082Y69785386D01*
X4486712Y69725176D01*
X4486692Y69725172D01*
X4141276Y69625660D01*
X3809162Y69488093D01*
X3494550Y69314213D01*
X3201381Y69106198D01*
X2933346Y68866668D01*
X2933332Y68866654D01*
X2693802Y68598619D01*
X2485787Y68305450D01*
X2311907Y67990838D01*
X2174340Y67658724D01*
X2074828Y67313308D01*
X2074824Y67313288D01*
X2014614Y66958918D01*
X2014611Y66958898D01*
X1994457Y66600005D01*
X200500Y66600005D01*
X200500Y72800000D01*
X28969464Y72800000D01*
X28989565Y72583077D01*
X29049183Y72373541D01*
X29146288Y72178528D01*
X29277573Y72004678D01*
X29438568Y71857912D01*
X29623790Y71743228D01*
X29826931Y71664530D01*
X29915758Y71647926D01*
X29919029Y71647314D01*
X29972755Y71618037D01*
X29999011Y71562771D01*
X29987768Y71502627D01*
X29943321Y71460579D01*
X29919029Y71452686D01*
X29826933Y71435471D01*
X29752258Y71406542D01*
X29623790Y71356772D01*
X29438568Y71242088D01*
X29438565Y71242086D01*
X29277574Y71095323D01*
X29146289Y70921474D01*
X29146284Y70921465D01*
X29049183Y70726460D01*
X28989565Y70516925D01*
X28969464Y70300000D01*
X28989565Y70083076D01*
X29049183Y69873541D01*
X29093078Y69785387D01*
X29146288Y69678528D01*
X29277573Y69504678D01*
X29438568Y69357912D01*
X29623790Y69243228D01*
X29826931Y69164530D01*
X29915758Y69147926D01*
X29919029Y69147314D01*
X29972755Y69118037D01*
X29999011Y69062771D01*
X29987768Y69002627D01*
X29943321Y68960579D01*
X29919029Y68952686D01*
X29826933Y68935471D01*
X29752258Y68906542D01*
X29623790Y68856772D01*
X29438568Y68742088D01*
X29438565Y68742086D01*
X29322505Y68636283D01*
X29277573Y68595322D01*
X29235009Y68538958D01*
X29146289Y68421474D01*
X29146284Y68421465D01*
X29049183Y68226460D01*
X28989565Y68016925D01*
X28969464Y67800000D01*
X28989565Y67583076D01*
X29030860Y67437941D01*
X29049183Y67373541D01*
X29146288Y67178528D01*
X29277573Y67004678D01*
X29438568Y66857912D01*
X29623790Y66743228D01*
X29826931Y66664530D01*
X29915758Y66647926D01*
X29919029Y66647314D01*
X29972755Y66618037D01*
X29999011Y66562771D01*
X29987768Y66502627D01*
X29943321Y66460579D01*
X29919029Y66452686D01*
X29826933Y66435471D01*
X29752258Y66406542D01*
X29623790Y66356772D01*
X29491720Y66274998D01*
X29438565Y66242086D01*
X29277574Y66095323D01*
X29146289Y65921474D01*
X29146284Y65921465D01*
X29049183Y65726460D01*
X28989565Y65516925D01*
X28969464Y65300000D01*
X28989565Y65083076D01*
X29016943Y64986852D01*
X29049183Y64873541D01*
X29146288Y64678528D01*
X29277573Y64504678D01*
X29438568Y64357912D01*
X29623790Y64243228D01*
X29826931Y64164530D01*
X30041074Y64124500D01*
X30258926Y64124500D01*
X30473069Y64164530D01*
X30676210Y64243228D01*
X30861432Y64357912D01*
X31022427Y64504678D01*
X31153712Y64678528D01*
X31250817Y64873541D01*
X31310435Y65083077D01*
X31330536Y65300000D01*
X32669464Y65300000D01*
X32689565Y65083076D01*
X32716943Y64986852D01*
X32749183Y64873541D01*
X32846288Y64678528D01*
X32977573Y64504678D01*
X33138568Y64357912D01*
X33323790Y64243228D01*
X33526931Y64164530D01*
X33741074Y64124500D01*
X33958926Y64124500D01*
X34173069Y64164530D01*
X34376210Y64243228D01*
X34561432Y64357912D01*
X34722427Y64504678D01*
X34853712Y64678528D01*
X34950817Y64873541D01*
X35010435Y65083077D01*
X35030536Y65300000D01*
X35010435Y65516923D01*
X34950817Y65726459D01*
X34853712Y65921472D01*
X34722427Y66095322D01*
X34561432Y66242088D01*
X34376210Y66356772D01*
X34173069Y66435470D01*
X34173068Y66435471D01*
X34173066Y66435471D01*
X33958926Y66475500D01*
X33741074Y66475500D01*
X33526933Y66435471D01*
X33452258Y66406542D01*
X33323790Y66356772D01*
X33191720Y66274998D01*
X33138565Y66242086D01*
X32977574Y66095323D01*
X32846289Y65921474D01*
X32846284Y65921465D01*
X32749183Y65726460D01*
X32689565Y65516925D01*
X32669464Y65300000D01*
X31330536Y65300000D01*
X31310435Y65516923D01*
X31250817Y65726459D01*
X31153712Y65921472D01*
X31022427Y66095322D01*
X30861432Y66242088D01*
X30676210Y66356772D01*
X30473069Y66435470D01*
X30473068Y66435471D01*
X30473066Y66435471D01*
X30407012Y66447818D01*
X30380969Y66452687D01*
X30327244Y66481963D01*
X30300988Y66537229D01*
X30312231Y66597372D01*
X30356678Y66639421D01*
X30380968Y66647314D01*
X30473069Y66664530D01*
X30676210Y66743228D01*
X30861432Y66857912D01*
X31022427Y67004678D01*
X31153712Y67178528D01*
X31250817Y67373541D01*
X31310435Y67583077D01*
X31330536Y67800000D01*
X31310435Y68016923D01*
X31250817Y68226459D01*
X31153712Y68421472D01*
X31022427Y68595322D01*
X30861432Y68742088D01*
X30676210Y68856772D01*
X30473069Y68935470D01*
X30473068Y68935471D01*
X30473066Y68935471D01*
X30407012Y68947818D01*
X30380969Y68952687D01*
X30327244Y68981963D01*
X30300988Y69037229D01*
X30312231Y69097372D01*
X30356678Y69139421D01*
X30380968Y69147314D01*
X30473069Y69164530D01*
X30676210Y69243228D01*
X30861432Y69357912D01*
X31022427Y69504678D01*
X31153712Y69678528D01*
X31250817Y69873541D01*
X31310435Y70083077D01*
X31330536Y70300000D01*
X31310435Y70516923D01*
X31250817Y70726459D01*
X31153712Y70921472D01*
X31022427Y71095322D01*
X30861432Y71242088D01*
X30676210Y71356772D01*
X30473069Y71435470D01*
X30473068Y71435471D01*
X30473066Y71435471D01*
X30407012Y71447818D01*
X30380969Y71452687D01*
X30327244Y71481963D01*
X30300988Y71537229D01*
X30312231Y71597372D01*
X30356678Y71639421D01*
X30380968Y71647314D01*
X30473069Y71664530D01*
X30676210Y71743228D01*
X30861432Y71857912D01*
X31022427Y72004678D01*
X31153712Y72178528D01*
X31250817Y72373541D01*
X31310435Y72583077D01*
X31330536Y72800000D01*
X32669464Y72800000D01*
X32689565Y72583077D01*
X32749183Y72373541D01*
X32846288Y72178528D01*
X32977573Y72004678D01*
X33138568Y71857912D01*
X33323790Y71743228D01*
X33526931Y71664530D01*
X33615758Y71647926D01*
X33619029Y71647314D01*
X33672755Y71618037D01*
X33699011Y71562771D01*
X33687768Y71502627D01*
X33643321Y71460579D01*
X33619029Y71452686D01*
X33526933Y71435471D01*
X33452258Y71406542D01*
X33323790Y71356772D01*
X33138568Y71242088D01*
X33138565Y71242086D01*
X32977574Y71095323D01*
X32846289Y70921474D01*
X32846284Y70921465D01*
X32749183Y70726460D01*
X32689565Y70516925D01*
X32669464Y70300000D01*
X32689565Y70083076D01*
X32749183Y69873541D01*
X32793078Y69785387D01*
X32846288Y69678528D01*
X32977573Y69504678D01*
X33138568Y69357912D01*
X33323790Y69243228D01*
X33526931Y69164530D01*
X33741074Y69124500D01*
X33958926Y69124500D01*
X34173069Y69164530D01*
X34376210Y69243228D01*
X34561432Y69357912D01*
X34722427Y69504678D01*
X34853712Y69678528D01*
X34950817Y69873541D01*
X35010435Y70083077D01*
X35030536Y70300000D01*
X35010435Y70516923D01*
X34950817Y70726459D01*
X34853712Y70921472D01*
X34722427Y71095322D01*
X34561432Y71242088D01*
X34376210Y71356772D01*
X34173069Y71435470D01*
X34173068Y71435471D01*
X34173066Y71435471D01*
X34107012Y71447818D01*
X34080969Y71452687D01*
X34027244Y71481963D01*
X34000988Y71537229D01*
X34012231Y71597372D01*
X34056678Y71639421D01*
X34080968Y71647314D01*
X34173069Y71664530D01*
X34376210Y71743228D01*
X34561432Y71857912D01*
X34722427Y72004678D01*
X34853712Y72178528D01*
X34950817Y72373541D01*
X35010435Y72583077D01*
X35030536Y72800000D01*
X35010435Y73016923D01*
X34950817Y73226459D01*
X34853712Y73421472D01*
X34722427Y73595322D01*
X34561432Y73742088D01*
X34376210Y73856772D01*
X34173069Y73935470D01*
X34173068Y73935471D01*
X34173066Y73935471D01*
X33958926Y73975500D01*
X33741074Y73975500D01*
X33526933Y73935471D01*
X33452258Y73906542D01*
X33323790Y73856772D01*
X33157707Y73753938D01*
X33138565Y73742086D01*
X32977574Y73595323D01*
X32846289Y73421474D01*
X32846284Y73421465D01*
X32749183Y73226460D01*
X32689565Y73016925D01*
X32684750Y72964961D01*
X32669464Y72800000D01*
X31330536Y72800000D01*
X31310435Y73016923D01*
X31250817Y73226459D01*
X31153712Y73421472D01*
X31022427Y73595322D01*
X30861432Y73742088D01*
X30676210Y73856772D01*
X30473069Y73935470D01*
X30473068Y73935471D01*
X30473066Y73935471D01*
X30258926Y73975500D01*
X30041074Y73975500D01*
X29826933Y73935471D01*
X29752258Y73906542D01*
X29623790Y73856772D01*
X29457707Y73753938D01*
X29438565Y73742086D01*
X29277574Y73595323D01*
X29146289Y73421474D01*
X29146284Y73421465D01*
X29049183Y73226460D01*
X28989565Y73016925D01*
X28984750Y72964961D01*
X28969464Y72800000D01*
X200500Y72800000D01*
X200500Y74359621D01*
X57153938Y74359621D01*
X57153938Y74359620D01*
X57174575Y74202862D01*
X57174577Y74202854D01*
X57235082Y74056782D01*
X57235082Y74056781D01*
X57328167Y73935470D01*
X57331338Y73931338D01*
X57456779Y73835084D01*
X57602858Y73774576D01*
X57720429Y73759098D01*
X57759619Y73753938D01*
X57759620Y73753938D01*
X57759621Y73753938D01*
X57790972Y73758066D01*
X57916382Y73774576D01*
X58062461Y73835084D01*
X58187902Y73931338D01*
X58284156Y74056779D01*
X58344664Y74202858D01*
X58365302Y74359620D01*
X58344664Y74516382D01*
X58303833Y74614956D01*
X58284157Y74662459D01*
X58284157Y74662460D01*
X58187906Y74787897D01*
X58187905Y74787898D01*
X58187902Y74787902D01*
X58187897Y74787906D01*
X58187896Y74787907D01*
X58062458Y74884158D01*
X57916386Y74944663D01*
X57916378Y74944665D01*
X57759621Y74965302D01*
X57759619Y74965302D01*
X57602861Y74944665D01*
X57602853Y74944663D01*
X57456781Y74884158D01*
X57456780Y74884158D01*
X57331343Y74787907D01*
X57331333Y74787897D01*
X57235082Y74662460D01*
X57235082Y74662459D01*
X57174577Y74516387D01*
X57174575Y74516379D01*
X57153938Y74359621D01*
X200500Y74359621D01*
X200500Y75200001D01*
X44194318Y75200001D01*
X44194318Y75200000D01*
X44214955Y75043242D01*
X44214957Y75043234D01*
X44275462Y74897162D01*
X44275462Y74897161D01*
X44359303Y74787897D01*
X44371718Y74771718D01*
X44497159Y74675464D01*
X44497160Y74675464D01*
X44497161Y74675463D01*
X44643233Y74614958D01*
X44643238Y74614956D01*
X44760809Y74599478D01*
X44799999Y74594318D01*
X44800000Y74594318D01*
X44800001Y74594318D01*
X44831352Y74598446D01*
X44956762Y74614956D01*
X45102841Y74675464D01*
X45228282Y74771718D01*
X45324536Y74897159D01*
X45385044Y75043238D01*
X45405682Y75200000D01*
X45385044Y75356762D01*
X45359507Y75418414D01*
X45324537Y75502839D01*
X45324537Y75502840D01*
X45228286Y75628277D01*
X45228285Y75628278D01*
X45228282Y75628282D01*
X45228277Y75628286D01*
X45228276Y75628287D01*
X45157104Y75682899D01*
X45102841Y75724536D01*
X45102840Y75724537D01*
X45102838Y75724538D01*
X44956766Y75785043D01*
X44956758Y75785045D01*
X44800001Y75805682D01*
X44799999Y75805682D01*
X44643241Y75785045D01*
X44643233Y75785043D01*
X44497161Y75724538D01*
X44497160Y75724538D01*
X44371723Y75628287D01*
X44371713Y75628277D01*
X44275462Y75502840D01*
X44275462Y75502839D01*
X44214957Y75356767D01*
X44214955Y75356759D01*
X44194318Y75200001D01*
X200500Y75200001D01*
X200500Y76965687D01*
X50660004Y76965687D01*
X50660004Y76965686D01*
X50680641Y76808928D01*
X50680643Y76808920D01*
X50741148Y76662848D01*
X50741148Y76662847D01*
X50837399Y76537410D01*
X50837404Y76537404D01*
X50962845Y76441150D01*
X50962846Y76441150D01*
X50962847Y76441149D01*
X51017430Y76418540D01*
X51108924Y76380642D01*
X51226495Y76365164D01*
X51265685Y76360004D01*
X51265686Y76360004D01*
X51265687Y76360004D01*
X51297038Y76364132D01*
X51422448Y76380642D01*
X51568527Y76441150D01*
X51693968Y76537404D01*
X51790222Y76662845D01*
X51790223Y76662847D01*
X51794172Y76667993D01*
X51795891Y76666674D01*
X51834144Y76701130D01*
X51894993Y76707536D01*
X51947987Y76676953D01*
X51972884Y76621062D01*
X51972581Y76597777D01*
X51969624Y76575312D01*
X51969624Y76575306D01*
X51990261Y76418548D01*
X51990263Y76418540D01*
X52050768Y76272468D01*
X52050768Y76272467D01*
X52147019Y76147030D01*
X52147024Y76147024D01*
X52272465Y76050770D01*
X52272466Y76050770D01*
X52272467Y76050769D01*
X52394875Y76000066D01*
X52418544Y75990262D01*
X52536115Y75974784D01*
X52575305Y75969624D01*
X52575306Y75969624D01*
X52575307Y75969624D01*
X52606658Y75973752D01*
X52732068Y75990262D01*
X52878147Y76050770D01*
X52987823Y76134927D01*
X53329244Y76134927D01*
X53329244Y76134926D01*
X53349881Y75978168D01*
X53349883Y75978160D01*
X53410388Y75832088D01*
X53410388Y75832087D01*
X53495433Y75721254D01*
X53506644Y75706644D01*
X53632085Y75610390D01*
X53632086Y75610390D01*
X53632087Y75610389D01*
X53664027Y75597159D01*
X53778164Y75549882D01*
X53895735Y75534404D01*
X53934925Y75529244D01*
X53934926Y75529244D01*
X53934927Y75529244D01*
X53966278Y75533372D01*
X54091688Y75549882D01*
X54237767Y75610390D01*
X54363208Y75706644D01*
X54459462Y75832085D01*
X54503854Y75939256D01*
X54543590Y75985782D01*
X54603085Y76000066D01*
X54659613Y75976651D01*
X54691583Y75924482D01*
X54694318Y75901371D01*
X54694318Y75900000D01*
X54714955Y75743242D01*
X54714957Y75743234D01*
X54775462Y75597162D01*
X54775462Y75597161D01*
X54847837Y75502840D01*
X54871718Y75471718D01*
X54997159Y75375464D01*
X54997160Y75375464D01*
X54997161Y75375463D01*
X55143233Y75314958D01*
X55143238Y75314956D01*
X55260809Y75299478D01*
X55299999Y75294318D01*
X55300000Y75294318D01*
X55300001Y75294318D01*
X55331352Y75298446D01*
X55456762Y75314956D01*
X55602841Y75375464D01*
X55658816Y75418415D01*
X56095144Y75418415D01*
X56095144Y75418414D01*
X56115781Y75261656D01*
X56115783Y75261648D01*
X56176288Y75115576D01*
X56176288Y75115575D01*
X56272539Y74990138D01*
X56272544Y74990132D01*
X56397985Y74893878D01*
X56544064Y74833370D01*
X56661635Y74817892D01*
X56700825Y74812732D01*
X56700826Y74812732D01*
X56700827Y74812732D01*
X56732178Y74816860D01*
X56857588Y74833370D01*
X57003667Y74893878D01*
X57129108Y74990132D01*
X57225362Y75115573D01*
X57285870Y75261652D01*
X57306508Y75418414D01*
X57285870Y75575176D01*
X57225363Y75721253D01*
X57225363Y75721254D01*
X57129112Y75846691D01*
X57129111Y75846692D01*
X57129108Y75846696D01*
X57129103Y75846700D01*
X57129102Y75846701D01*
X57003664Y75942952D01*
X56857592Y76003457D01*
X56857584Y76003459D01*
X56700827Y76024096D01*
X56700825Y76024096D01*
X56544067Y76003459D01*
X56544059Y76003457D01*
X56397987Y75942952D01*
X56397986Y75942952D01*
X56272549Y75846701D01*
X56272539Y75846691D01*
X56176288Y75721254D01*
X56176288Y75721253D01*
X56115783Y75575181D01*
X56115781Y75575173D01*
X56095144Y75418415D01*
X55658816Y75418415D01*
X55728282Y75471718D01*
X55824536Y75597159D01*
X55885044Y75743238D01*
X55905682Y75900000D01*
X55885044Y76056762D01*
X55824537Y76202839D01*
X55824537Y76202840D01*
X55728286Y76328277D01*
X55728285Y76328278D01*
X55728282Y76328282D01*
X55728277Y76328286D01*
X55728276Y76328287D01*
X55610650Y76418544D01*
X55602841Y76424536D01*
X55602840Y76424537D01*
X55602838Y76424538D01*
X55456766Y76485043D01*
X55456758Y76485045D01*
X55300001Y76505682D01*
X55299999Y76505682D01*
X55143241Y76485045D01*
X55143233Y76485043D01*
X54997161Y76424538D01*
X54997160Y76424538D01*
X54871723Y76328287D01*
X54871713Y76328277D01*
X54775463Y76202840D01*
X54731072Y76095670D01*
X54691335Y76049145D01*
X54631840Y76034861D01*
X54575313Y76058276D01*
X54543343Y76110445D01*
X54540608Y76133556D01*
X54540608Y76134927D01*
X54531667Y76202841D01*
X54519970Y76291688D01*
X54467426Y76418540D01*
X54459463Y76437765D01*
X54459463Y76437766D01*
X54363212Y76563203D01*
X54363211Y76563204D01*
X54363208Y76563208D01*
X54363203Y76563212D01*
X54363202Y76563213D01*
X54237764Y76659464D01*
X54091692Y76719969D01*
X54091684Y76719971D01*
X53934927Y76740608D01*
X53934925Y76740608D01*
X53778167Y76719971D01*
X53778159Y76719969D01*
X53632087Y76659464D01*
X53632086Y76659464D01*
X53506649Y76563213D01*
X53506639Y76563203D01*
X53410388Y76437766D01*
X53410388Y76437765D01*
X53349883Y76291693D01*
X53349881Y76291685D01*
X53329244Y76134927D01*
X52987823Y76134927D01*
X53003588Y76147024D01*
X53099842Y76272465D01*
X53160350Y76418544D01*
X53180988Y76575306D01*
X53160350Y76732068D01*
X53128515Y76808924D01*
X53099843Y76878145D01*
X53099843Y76878146D01*
X53003592Y77003583D01*
X53003591Y77003584D01*
X53003588Y77003588D01*
X53003583Y77003592D01*
X53003582Y77003593D01*
X52878144Y77099844D01*
X52732072Y77160349D01*
X52732064Y77160351D01*
X52575307Y77180988D01*
X52575305Y77180988D01*
X52418547Y77160351D01*
X52418539Y77160349D01*
X52272467Y77099844D01*
X52272466Y77099844D01*
X52147029Y77003593D01*
X52147019Y77003583D01*
X52046820Y76872999D01*
X52045106Y76874315D01*
X52006811Y76839847D01*
X51945959Y76833465D01*
X51892977Y76864069D01*
X51868103Y76919970D01*
X51868410Y76943220D01*
X51871368Y76965687D01*
X51850730Y77122445D01*
X51850730Y77122448D01*
X51835031Y77160349D01*
X51790223Y77268525D01*
X51790223Y77268526D01*
X51693972Y77393963D01*
X51693971Y77393964D01*
X51693968Y77393968D01*
X51693963Y77393972D01*
X51693962Y77393973D01*
X51568524Y77490224D01*
X51422452Y77550729D01*
X51422444Y77550731D01*
X51265687Y77571368D01*
X51265685Y77571368D01*
X51108927Y77550731D01*
X51108919Y77550729D01*
X50962847Y77490224D01*
X50962846Y77490224D01*
X50837409Y77393973D01*
X50837399Y77393963D01*
X50741148Y77268526D01*
X50741148Y77268525D01*
X50680643Y77122453D01*
X50680641Y77122445D01*
X50660004Y76965687D01*
X200500Y76965687D01*
X200500Y76997227D01*
X200656Y77002778D01*
X200701Y77003583D01*
X217791Y77307901D01*
X219034Y77318927D01*
X248138Y77490222D01*
X269760Y77617481D01*
X272221Y77628267D01*
X356063Y77919286D01*
X359723Y77929746D01*
X475614Y78209531D01*
X480428Y78219526D01*
X626909Y78484564D01*
X632806Y78493949D01*
X808053Y78740937D01*
X814967Y78749606D01*
X1016757Y78975408D01*
X1024592Y78983243D01*
X1250394Y79185033D01*
X1259063Y79191947D01*
X1506051Y79367194D01*
X1515436Y79373091D01*
X1780480Y79519576D01*
X1790469Y79524386D01*
X2070254Y79640277D01*
X2080714Y79643937D01*
X2371733Y79727779D01*
X2382519Y79730240D01*
X2681080Y79780967D01*
X2692099Y79782209D01*
X2997222Y79799345D01*
X3002773Y79799500D01*
X3039882Y79799500D01*
X76960118Y79799500D01*
X76997227Y79799500D01*
X77002777Y79799345D01*
G37*
G04 #@! TD.AperFunction*
G04 #@! TA.AperFunction,Conductor*
G36*
X20683546Y47761693D02*
G01*
X20732088Y47724446D01*
X20749500Y47668371D01*
X20749500Y43727611D01*
X20730593Y43669420D01*
X20720504Y43657607D01*
X17542393Y40479496D01*
X17487876Y40451719D01*
X17472389Y40450500D01*
X9640691Y40450500D01*
X9595508Y40438394D01*
X9550325Y40426287D01*
X9550324Y40426288D01*
X9526115Y40419800D01*
X9423386Y40360490D01*
X7439507Y38376610D01*
X7380200Y38273888D01*
X7380200Y38273887D01*
X7380201Y38273886D01*
X7359643Y38197161D01*
X7349500Y38159308D01*
X7349500Y26140689D01*
X7360321Y26100306D01*
X7360321Y26100304D01*
X7360322Y26100304D01*
X7380202Y26026109D01*
X7439507Y25923391D01*
X7439508Y25923390D01*
X7439509Y25923389D01*
X7439511Y25923386D01*
X9296229Y24066668D01*
X11122665Y22240232D01*
X11150442Y22185715D01*
X11147399Y22141492D01*
X11138250Y22111331D01*
X11138249Y22111328D01*
X11119899Y21925007D01*
X11119899Y21924998D01*
X11138249Y21738677D01*
X11138250Y21738674D01*
X11138251Y21738671D01*
X11191565Y21562918D01*
X11192603Y21559498D01*
X11192604Y21559496D01*
X11280857Y21394385D01*
X11280860Y21394380D01*
X11280862Y21394377D01*
X11399641Y21249645D01*
X11402527Y21246129D01*
X11424827Y21189152D01*
X11424999Y21183324D01*
X11424999Y17716679D01*
X11406092Y17658488D01*
X11402527Y17653874D01*
X11280861Y17505623D01*
X11280857Y17505617D01*
X11192604Y17340506D01*
X11192603Y17340504D01*
X11138250Y17161328D01*
X11138249Y17161325D01*
X11119899Y16975004D01*
X11119899Y16974995D01*
X11138249Y16788674D01*
X11138250Y16788671D01*
X11153862Y16737205D01*
X11183502Y16639495D01*
X11192603Y16609495D01*
X11192604Y16609493D01*
X11280857Y16444382D01*
X11280860Y16444377D01*
X11280862Y16444374D01*
X11321894Y16394377D01*
X11402527Y16296126D01*
X11424827Y16239149D01*
X11424999Y16233321D01*
X11424999Y5666681D01*
X11406092Y5608490D01*
X11402527Y5603876D01*
X11316628Y5499208D01*
X11265097Y5466221D01*
X11204017Y5469823D01*
X11170096Y5492009D01*
X9979496Y6682609D01*
X9951719Y6737126D01*
X9950500Y6752613D01*
X9950500Y13059308D01*
X9919799Y13173886D01*
X9919799Y13173888D01*
X9860492Y13276610D01*
X9860491Y13276611D01*
X9860490Y13276612D01*
X9860489Y13276614D01*
X8579496Y14557607D01*
X8551719Y14612124D01*
X8550500Y14627611D01*
X8550500Y17467068D01*
X8569407Y17525259D01*
X8570936Y17527307D01*
X8624536Y17597159D01*
X8685044Y17743238D01*
X8705682Y17900000D01*
X8685044Y18056762D01*
X8624537Y18202839D01*
X8624537Y18202840D01*
X8528286Y18328277D01*
X8528285Y18328278D01*
X8528282Y18328282D01*
X8528277Y18328286D01*
X8528276Y18328287D01*
X8402838Y18424538D01*
X8256766Y18485043D01*
X8256758Y18485045D01*
X8100001Y18505682D01*
X8099999Y18505682D01*
X7943241Y18485045D01*
X7943233Y18485043D01*
X7797161Y18424538D01*
X7797160Y18424538D01*
X7671723Y18328287D01*
X7671713Y18328277D01*
X7575462Y18202840D01*
X7575462Y18202839D01*
X7514957Y18056767D01*
X7514955Y18056759D01*
X7494318Y17900001D01*
X7494318Y17900000D01*
X7514955Y17743242D01*
X7514957Y17743234D01*
X7575462Y17597162D01*
X7575463Y17597160D01*
X7575464Y17597159D01*
X7629042Y17527335D01*
X7649466Y17469660D01*
X7649500Y17467068D01*
X7649500Y14340691D01*
X7652676Y14328838D01*
X7673663Y14250512D01*
X7680202Y14226110D01*
X7739507Y14123391D01*
X7739509Y14123389D01*
X7739511Y14123386D01*
X9020505Y12842392D01*
X9048281Y12787877D01*
X9049500Y12772390D01*
X9049500Y6465693D01*
X9061869Y6419531D01*
X9080202Y6351110D01*
X9139507Y6248392D01*
X9139508Y6248391D01*
X9139509Y6248390D01*
X9139511Y6248387D01*
X10823386Y4564511D01*
X10926113Y4505202D01*
X10950320Y4498717D01*
X10950325Y4498714D01*
X10950326Y4498715D01*
X11040688Y4474502D01*
X11040690Y4474501D01*
X11040691Y4474501D01*
X11178696Y4474501D01*
X11236887Y4455594D01*
X11266006Y4422169D01*
X11280857Y4394384D01*
X11280860Y4394379D01*
X11280862Y4394376D01*
X11387284Y4264701D01*
X11402527Y4246128D01*
X11424827Y4189151D01*
X11424999Y4183323D01*
X11424999Y3824999D01*
X11425000Y3824999D01*
X28225001Y3824999D01*
X28225002Y3824999D01*
X28225002Y6804535D01*
X28243909Y6862726D01*
X28270479Y6887819D01*
X28356122Y6942858D01*
X28361474Y6947495D01*
X28362962Y6945778D01*
X28406335Y6971929D01*
X28428753Y6974501D01*
X28950500Y6974501D01*
X29008691Y6955594D01*
X29044655Y6906094D01*
X29049500Y6875501D01*
X29049500Y3986190D01*
X29030593Y3927999D01*
X29020504Y3916186D01*
X28483814Y3379496D01*
X28429297Y3351719D01*
X28413810Y3350500D01*
X24748856Y3350500D01*
X24659712Y3326614D01*
X24579785Y3280468D01*
X24128354Y2829039D01*
X24073838Y2801262D01*
X24029614Y2804306D01*
X23999656Y2813394D01*
X23883683Y2848574D01*
X23883678Y2848575D01*
X23695003Y2867157D01*
X23694997Y2867157D01*
X23506321Y2848575D01*
X23506316Y2848574D01*
X23324884Y2793537D01*
X23324879Y2793535D01*
X23157681Y2704165D01*
X23157671Y2704159D01*
X23011121Y2583887D01*
X23011113Y2583879D01*
X22890841Y2437329D01*
X22890835Y2437319D01*
X22801465Y2270121D01*
X22801463Y2270116D01*
X22746426Y2088684D01*
X22746425Y2088679D01*
X22727843Y1900004D01*
X22727843Y1899997D01*
X22746425Y1711322D01*
X22746426Y1711317D01*
X22801463Y1529885D01*
X22801465Y1529880D01*
X22818950Y1497169D01*
X22890838Y1362676D01*
X23011117Y1216117D01*
X23011121Y1216114D01*
X23120890Y1126028D01*
X23153877Y1074496D01*
X23150275Y1013417D01*
X23111459Y966120D01*
X23058085Y950500D01*
X6645503Y950500D01*
X6587312Y969407D01*
X6575499Y979496D01*
X4007063Y3547933D01*
X3979286Y3602450D01*
X3978914Y3630855D01*
X3985339Y3679657D01*
X3964701Y3836419D01*
X3930968Y3917857D01*
X3904194Y3982496D01*
X3904194Y3982497D01*
X3807943Y4107934D01*
X3807942Y4107935D01*
X3807939Y4107939D01*
X3807934Y4107943D01*
X3807933Y4107944D01*
X3722665Y4173372D01*
X3682498Y4204193D01*
X3682497Y4204194D01*
X3682495Y4204195D01*
X3536423Y4264700D01*
X3536415Y4264702D01*
X3379658Y4285339D01*
X3379653Y4285339D01*
X3330854Y4278916D01*
X3270694Y4290068D01*
X3247931Y4307065D01*
X1479496Y6075500D01*
X1451719Y6130017D01*
X1450500Y6145504D01*
X1450500Y10900005D01*
X1994457Y10900005D01*
X1994457Y10899996D01*
X2014611Y10541103D01*
X2014614Y10541083D01*
X2074824Y10186713D01*
X2074828Y10186693D01*
X2174340Y9841277D01*
X2311907Y9509163D01*
X2485787Y9194551D01*
X2650854Y8961911D01*
X2693806Y8901377D01*
X2933339Y8633339D01*
X3201377Y8393806D01*
X3201380Y8393804D01*
X3201381Y8393803D01*
X3232507Y8371718D01*
X3494548Y8185789D01*
X3494550Y8185788D01*
X3809163Y8011908D01*
X3809162Y8011908D01*
X4141276Y7874341D01*
X4486692Y7774829D01*
X4486695Y7774829D01*
X4486700Y7774827D01*
X4841093Y7714613D01*
X4841096Y7714613D01*
X4841102Y7714612D01*
X5199995Y7694457D01*
X5200000Y7694457D01*
X5200005Y7694457D01*
X5558897Y7714612D01*
X5558901Y7714613D01*
X5558907Y7714613D01*
X5913300Y7774827D01*
X6258724Y7874341D01*
X6590833Y8011906D01*
X6905452Y8185789D01*
X7198623Y8393806D01*
X7466661Y8633339D01*
X7706194Y8901377D01*
X7914211Y9194548D01*
X8045917Y9432855D01*
X8088092Y9509163D01*
X8088094Y9509167D01*
X8225659Y9841276D01*
X8325173Y10186700D01*
X8385387Y10541093D01*
X8387292Y10574998D01*
X8405543Y10899996D01*
X8405543Y10900005D01*
X8385388Y11258898D01*
X8385385Y11258918D01*
X8366219Y11371718D01*
X8325173Y11613300D01*
X8316549Y11643234D01*
X8225659Y11958724D01*
X8088092Y12290838D01*
X7914212Y12605450D01*
X7859795Y12682143D01*
X7706194Y12898623D01*
X7466661Y13166661D01*
X7198623Y13406194D01*
X7198620Y13406196D01*
X7198618Y13406198D01*
X6905449Y13614213D01*
X6590836Y13788093D01*
X6590837Y13788093D01*
X6258723Y13925660D01*
X5913307Y14025172D01*
X5913287Y14025176D01*
X5558917Y14085386D01*
X5558897Y14085389D01*
X5200005Y14105543D01*
X5199995Y14105543D01*
X4841102Y14085389D01*
X4841082Y14085386D01*
X4486712Y14025176D01*
X4486692Y14025172D01*
X4141276Y13925660D01*
X3809162Y13788093D01*
X3494550Y13614213D01*
X3201381Y13406198D01*
X2933346Y13166668D01*
X2933332Y13166654D01*
X2693802Y12898619D01*
X2485787Y12605450D01*
X2311907Y12290838D01*
X2174340Y11958724D01*
X2074828Y11613308D01*
X2074824Y11613288D01*
X2014614Y11258918D01*
X2014611Y11258898D01*
X1994457Y10900005D01*
X1450500Y10900005D01*
X1450500Y42113811D01*
X1469407Y42172002D01*
X1479490Y42183809D01*
X2068276Y42772596D01*
X2122791Y42800371D01*
X2151197Y42800743D01*
X2200000Y42794318D01*
X2356762Y42814956D01*
X2502841Y42875464D01*
X2628282Y42971718D01*
X2658245Y43010768D01*
X2708669Y43045423D01*
X2736787Y43049500D01*
X17846142Y43049500D01*
X17846144Y43049500D01*
X17935288Y43073386D01*
X18015212Y43119531D01*
X18080469Y43184788D01*
X18126614Y43264712D01*
X18150500Y43353856D01*
X18150500Y43863213D01*
X18169407Y43921404D01*
X18189233Y43941755D01*
X18228282Y43971718D01*
X18324536Y44097159D01*
X18385044Y44243238D01*
X18405682Y44400000D01*
X18385044Y44556762D01*
X18324537Y44702839D01*
X18324537Y44702840D01*
X18228286Y44828277D01*
X18228285Y44828278D01*
X18228282Y44828282D01*
X18228277Y44828286D01*
X18228276Y44828287D01*
X18107243Y44921158D01*
X18102841Y44924536D01*
X18102840Y44924537D01*
X18102838Y44924538D01*
X17956766Y44985043D01*
X17956758Y44985045D01*
X17800001Y45005682D01*
X17799996Y45005682D01*
X17751197Y44999259D01*
X17691037Y45010411D01*
X17668274Y45027408D01*
X17279496Y45416186D01*
X17251719Y45470703D01*
X17250500Y45486190D01*
X17250500Y45846627D01*
X17269407Y45904818D01*
X17318907Y45940782D01*
X17380093Y45940782D01*
X17387379Y45938094D01*
X17443238Y45914956D01*
X17560809Y45899478D01*
X17599999Y45894318D01*
X17600000Y45894318D01*
X17600001Y45894318D01*
X17631352Y45898446D01*
X17756762Y45914956D01*
X17902841Y45975464D01*
X17989735Y46042141D01*
X18047408Y46062563D01*
X18106074Y46045186D01*
X18110234Y46042164D01*
X18197159Y45975464D01*
X18197162Y45975463D01*
X18197163Y45975462D01*
X18287385Y45938091D01*
X18343238Y45914956D01*
X18460809Y45899478D01*
X18499999Y45894318D01*
X18500000Y45894318D01*
X18500001Y45894318D01*
X18531352Y45898446D01*
X18656762Y45914956D01*
X18802841Y45975464D01*
X18928282Y46071718D01*
X19024536Y46197159D01*
X19085044Y46343238D01*
X19105682Y46500000D01*
X19093061Y46595866D01*
X19104211Y46656024D01*
X19148593Y46698142D01*
X19204134Y46706939D01*
X19300000Y46694318D01*
X19300001Y46694318D01*
X19331352Y46698446D01*
X19456762Y46714956D01*
X19602841Y46775464D01*
X19728282Y46871718D01*
X19824536Y46997159D01*
X19885044Y47143238D01*
X19905682Y47300000D01*
X19893061Y47395866D01*
X19904211Y47456024D01*
X19948593Y47498142D01*
X20004134Y47506939D01*
X20100000Y47494318D01*
X20100001Y47494318D01*
X20131352Y47498446D01*
X20256762Y47514956D01*
X20402841Y47575464D01*
X20528282Y47671718D01*
X20571958Y47728639D01*
X20622382Y47763294D01*
X20683546Y47761693D01*
G37*
G04 #@! TD.AperFunction*
G04 #@! TA.AperFunction,Conductor*
G36*
X29945445Y16803025D02*
G01*
X29988710Y16759760D01*
X29999500Y16714815D01*
X29999500Y12504682D01*
X29980593Y12446491D01*
X29931093Y12410527D01*
X29906421Y12406620D01*
X29906433Y12406529D01*
X29902966Y12406073D01*
X29900500Y12405682D01*
X29899999Y12405682D01*
X29743241Y12385045D01*
X29743233Y12385043D01*
X29597161Y12324538D01*
X29597160Y12324538D01*
X29471723Y12228287D01*
X29471713Y12228277D01*
X29375462Y12102840D01*
X29375462Y12102839D01*
X29314957Y11956767D01*
X29314955Y11956759D01*
X29294318Y11800001D01*
X29294318Y11800000D01*
X29314955Y11643242D01*
X29314957Y11643234D01*
X29375462Y11497162D01*
X29375462Y11497161D01*
X29403332Y11460840D01*
X29471718Y11371718D01*
X29597159Y11275464D01*
X29597160Y11275464D01*
X29597161Y11275463D01*
X29718985Y11225002D01*
X29743238Y11214956D01*
X29860809Y11199478D01*
X29899999Y11194318D01*
X29900000Y11194318D01*
X29900001Y11194318D01*
X29931352Y11198446D01*
X30056762Y11214956D01*
X30202841Y11275464D01*
X30290233Y11342522D01*
X30347909Y11362946D01*
X30406574Y11345568D01*
X30443822Y11297027D01*
X30449500Y11263980D01*
X30449500Y11086190D01*
X30430593Y11027999D01*
X30420504Y11016186D01*
X28394006Y8989688D01*
X28339489Y8961911D01*
X28279057Y8971482D01*
X28235792Y9014747D01*
X28225002Y9059692D01*
X28225002Y9983331D01*
X28243909Y10041522D01*
X28247474Y10046136D01*
X28250349Y10049641D01*
X28250352Y10049642D01*
X28369131Y10194374D01*
X28457391Y10359498D01*
X28511742Y10538668D01*
X28515161Y10573373D01*
X28530094Y10724995D01*
X28530094Y10725004D01*
X28511743Y10911325D01*
X28511742Y10911328D01*
X28511742Y10911330D01*
X28457391Y11090500D01*
X28431580Y11138789D01*
X28369135Y11255617D01*
X28369133Y11255619D01*
X28369131Y11255624D01*
X28250352Y11400356D01*
X28247474Y11403863D01*
X28225174Y11460840D01*
X28225002Y11466668D01*
X28225002Y14283331D01*
X28243909Y14341522D01*
X28247474Y14346136D01*
X28250349Y14349641D01*
X28250352Y14349642D01*
X28369131Y14494374D01*
X28457391Y14659498D01*
X28511742Y14838668D01*
X28523452Y14957553D01*
X28530094Y15024995D01*
X28530094Y15025004D01*
X28511743Y15211325D01*
X28511742Y15211331D01*
X28469679Y15349994D01*
X28470880Y15411167D01*
X28494410Y15448734D01*
X29830497Y16784820D01*
X29885013Y16812596D01*
X29945445Y16803025D01*
G37*
G04 #@! TD.AperFunction*
G04 #@! TA.AperFunction,Conductor*
G36*
X32854432Y14630593D02*
G01*
X32863403Y14622360D01*
X32863520Y14622494D01*
X32868871Y14617857D01*
X32954513Y14562819D01*
X32993244Y14515453D01*
X32999990Y14479535D01*
X32999990Y12820466D01*
X32981083Y12762275D01*
X32954514Y12737182D01*
X32868872Y12682143D01*
X32774622Y12573372D01*
X32714834Y12442456D01*
X32697368Y12320979D01*
X32670372Y12266071D01*
X32669380Y12265064D01*
X31319504Y10915186D01*
X31264987Y10887409D01*
X31204555Y10896980D01*
X31161290Y10940245D01*
X31150500Y10985190D01*
X31150500Y14313810D01*
X31169407Y14372001D01*
X31179496Y14383814D01*
X31416186Y14620504D01*
X31470703Y14648281D01*
X31486190Y14649500D01*
X32796241Y14649500D01*
X32854432Y14630593D01*
G37*
G04 #@! TD.AperFunction*
G04 #@! TA.AperFunction,Conductor*
G36*
X32854432Y27730603D02*
G01*
X32863403Y27722370D01*
X32863520Y27722504D01*
X32868871Y27717867D01*
X32954513Y27662829D01*
X32993244Y27615463D01*
X32999990Y27579545D01*
X32999990Y26220466D01*
X32981083Y26162275D01*
X32954514Y26137182D01*
X32868872Y26082143D01*
X32774622Y25973372D01*
X32714834Y25842457D01*
X32694353Y25700003D01*
X32694353Y25699998D01*
X32714834Y25557544D01*
X32774623Y25426627D01*
X32828169Y25364830D01*
X32851986Y25308471D01*
X32838127Y25248876D01*
X32828169Y25235170D01*
X32774623Y25173374D01*
X32714834Y25042457D01*
X32694353Y24900003D01*
X32694353Y24899998D01*
X32714834Y24757544D01*
X32774623Y24626627D01*
X32828159Y24564843D01*
X32851977Y24508484D01*
X32838119Y24448889D01*
X32828160Y24435182D01*
X32774613Y24373384D01*
X32714824Y24242467D01*
X32694343Y24100013D01*
X32694343Y24100008D01*
X32714824Y23957554D01*
X32774613Y23826637D01*
X32828163Y23764835D01*
X32851980Y23708476D01*
X32838121Y23648881D01*
X32828163Y23635175D01*
X32774613Y23573374D01*
X32714824Y23442457D01*
X32694343Y23300003D01*
X32694343Y23299998D01*
X32714824Y23157544D01*
X32774613Y23026627D01*
X32828159Y22964830D01*
X32851976Y22908471D01*
X32838117Y22848876D01*
X32828159Y22835170D01*
X32774613Y22773374D01*
X32714824Y22642457D01*
X32694343Y22500003D01*
X32694343Y22499998D01*
X32714824Y22357544D01*
X32774613Y22226627D01*
X32828159Y22164830D01*
X32851976Y22108471D01*
X32838117Y22048876D01*
X32828159Y22035170D01*
X32774613Y21973374D01*
X32714824Y21842457D01*
X32694343Y21700003D01*
X32694343Y21699998D01*
X32714824Y21557544D01*
X32774613Y21426627D01*
X32828159Y21364830D01*
X32851976Y21308471D01*
X32838117Y21248876D01*
X32828159Y21235170D01*
X32774613Y21173374D01*
X32714824Y21042457D01*
X32694343Y20900003D01*
X32694343Y20899998D01*
X32714824Y20757544D01*
X32758085Y20662818D01*
X32774613Y20626627D01*
X32828164Y20564825D01*
X32851981Y20508466D01*
X32838122Y20448871D01*
X32828164Y20435165D01*
X32774623Y20373374D01*
X32714834Y20242457D01*
X32694353Y20100003D01*
X32694353Y20099998D01*
X32714834Y19957544D01*
X32774623Y19826627D01*
X32828169Y19764830D01*
X32851986Y19708471D01*
X32838127Y19648876D01*
X32828169Y19635170D01*
X32774623Y19573374D01*
X32714834Y19442457D01*
X32694353Y19300003D01*
X32694353Y19299998D01*
X32714834Y19157544D01*
X32724123Y19137205D01*
X32774623Y19026627D01*
X32820759Y18973383D01*
X32868873Y18917856D01*
X32954513Y18862819D01*
X32993244Y18815453D01*
X32999990Y18779535D01*
X32999990Y15520466D01*
X32981083Y15462275D01*
X32954514Y15437182D01*
X32868869Y15382141D01*
X32863520Y15377506D01*
X32862031Y15379224D01*
X32818659Y15353072D01*
X32796241Y15350500D01*
X31346144Y15350500D01*
X31253856Y15350500D01*
X31164712Y15326614D01*
X31084785Y15280468D01*
X30869503Y15065186D01*
X30814987Y15037409D01*
X30754555Y15046980D01*
X30711290Y15090245D01*
X30700500Y15135190D01*
X30700500Y16977419D01*
X30719407Y17035610D01*
X30729490Y17047417D01*
X31380470Y17698396D01*
X31426614Y17778320D01*
X31450500Y17867464D01*
X31450500Y27313811D01*
X31469407Y27372002D01*
X31479496Y27383815D01*
X31816195Y27720514D01*
X31870712Y27748291D01*
X31886199Y27749510D01*
X32796241Y27749510D01*
X32854432Y27730603D01*
G37*
G04 #@! TD.AperFunction*
G04 #@! TA.AperFunction,Conductor*
G36*
X30245445Y37553021D02*
G01*
X30288710Y37509756D01*
X30299500Y37464811D01*
X30299500Y18286194D01*
X30280593Y18228003D01*
X30270504Y18216190D01*
X28668749Y16614436D01*
X28614232Y16586659D01*
X28553800Y16596230D01*
X28510535Y16639495D01*
X28500964Y16699927D01*
X28504007Y16713173D01*
X28511742Y16738671D01*
X28514131Y16762918D01*
X28530094Y16924998D01*
X28530094Y16925007D01*
X28511743Y17111328D01*
X28511742Y17111331D01*
X28511742Y17111333D01*
X28457391Y17290503D01*
X28430664Y17340506D01*
X28369135Y17455620D01*
X28369133Y17455622D01*
X28369131Y17455627D01*
X28250352Y17600359D01*
X28247474Y17603866D01*
X28225174Y17660843D01*
X28225002Y17666671D01*
X28225002Y22583331D01*
X28243909Y22641522D01*
X28247474Y22646136D01*
X28250349Y22649641D01*
X28250352Y22649642D01*
X28369131Y22794374D01*
X28457391Y22959498D01*
X28511742Y23138668D01*
X28513602Y23157544D01*
X28530094Y23324995D01*
X28530094Y23325004D01*
X28511743Y23511325D01*
X28511742Y23511328D01*
X28511742Y23511330D01*
X28457391Y23690500D01*
X28442763Y23717867D01*
X28369135Y23855617D01*
X28369133Y23855619D01*
X28369131Y23855624D01*
X28250352Y24000356D01*
X28247474Y24003863D01*
X28225174Y24060840D01*
X28225002Y24066668D01*
X28225002Y24414998D01*
X28225002Y24414999D01*
X28225001Y24414999D01*
X12826197Y24414999D01*
X12768006Y24433906D01*
X12753991Y24447118D01*
X12753793Y24446919D01*
X12750359Y24450353D01*
X12750355Y24450358D01*
X12605623Y24569137D01*
X12605620Y24569139D01*
X12605615Y24569142D01*
X12440504Y24657395D01*
X12440502Y24657396D01*
X12261326Y24711749D01*
X12261324Y24711750D01*
X12086183Y24728999D01*
X12030126Y24753519D01*
X11999187Y24806305D01*
X12005184Y24867196D01*
X12017339Y24887781D01*
X12024536Y24897159D01*
X12085044Y25043238D01*
X12096531Y25130499D01*
X12122871Y25185722D01*
X12124641Y25187540D01*
X12557607Y25620504D01*
X12612123Y25648281D01*
X12627610Y25649500D01*
X23727939Y25649500D01*
X23727939Y25649501D01*
X23810075Y25671509D01*
X23871176Y25668308D01*
X23918727Y25629803D01*
X23927163Y25613768D01*
X23975462Y25497162D01*
X23975462Y25497161D01*
X24065721Y25379533D01*
X24071718Y25371718D01*
X24071722Y25371715D01*
X24071723Y25371714D01*
X24091203Y25356767D01*
X24197159Y25275464D01*
X24343238Y25214956D01*
X24456833Y25200001D01*
X24499999Y25194318D01*
X24500000Y25194318D01*
X24500001Y25194318D01*
X24543167Y25200001D01*
X24656762Y25214956D01*
X24802841Y25275464D01*
X24928282Y25371718D01*
X24958245Y25410768D01*
X25008669Y25445423D01*
X25036787Y25449500D01*
X26446142Y25449500D01*
X26446144Y25449500D01*
X26535288Y25473386D01*
X26540873Y25476611D01*
X26540878Y25476612D01*
X26540878Y25476613D01*
X26576464Y25497159D01*
X26615212Y25519530D01*
X29880469Y28784788D01*
X29926614Y28864712D01*
X29936203Y28900500D01*
X29950500Y28953856D01*
X29950500Y37313811D01*
X29969407Y37372002D01*
X29979490Y37383809D01*
X30130497Y37534816D01*
X30185013Y37562592D01*
X30245445Y37553021D01*
G37*
G04 #@! TD.AperFunction*
G04 #@! TA.AperFunction,Conductor*
G36*
X28295445Y44592971D02*
G01*
X28338710Y44549706D01*
X28349500Y44504761D01*
X28349500Y32597071D01*
X28330593Y32538880D01*
X28323276Y32530313D01*
X28225462Y32402840D01*
X28225462Y32402839D01*
X28164957Y32256767D01*
X28164955Y32256759D01*
X28144318Y32100001D01*
X28144318Y32100000D01*
X28164955Y31943242D01*
X28164957Y31943234D01*
X28225462Y31797162D01*
X28225462Y31797161D01*
X28325668Y31666569D01*
X28324283Y31665507D01*
X28348279Y31618431D01*
X28349500Y31602929D01*
X28349500Y29627611D01*
X28330593Y29569420D01*
X28320504Y29557607D01*
X25842393Y27079496D01*
X25787876Y27051719D01*
X25772389Y27050500D01*
X24109320Y27050500D01*
X24064137Y27038394D01*
X24018954Y27026287D01*
X24018953Y27026288D01*
X23994744Y27019800D01*
X23892012Y26960488D01*
X23511023Y26579497D01*
X23456506Y26551719D01*
X23441019Y26550500D01*
X12340691Y26550500D01*
X12295508Y26538394D01*
X12250325Y26526287D01*
X12250324Y26526288D01*
X12226112Y26519799D01*
X12226109Y26519798D01*
X12123390Y26460493D01*
X12123385Y26460489D01*
X11487576Y25824682D01*
X11433060Y25796905D01*
X11430496Y25796533D01*
X11343237Y25785044D01*
X11197161Y25724538D01*
X11197160Y25724538D01*
X11071723Y25628287D01*
X11071719Y25628284D01*
X11071718Y25628282D01*
X11071715Y25628278D01*
X10975462Y25502840D01*
X10975462Y25502839D01*
X10914957Y25356767D01*
X10914955Y25356759D01*
X10894318Y25200001D01*
X10895248Y25192935D01*
X10884095Y25132775D01*
X10839711Y25090659D01*
X10779049Y25082675D01*
X10727090Y25110013D01*
X9079496Y26757607D01*
X9051719Y26812124D01*
X9050500Y26827611D01*
X9050500Y37572389D01*
X9069407Y37630580D01*
X9079496Y37642393D01*
X10207608Y38770504D01*
X10262125Y38798281D01*
X10277612Y38799500D01*
X11127310Y38799500D01*
X11185501Y38780593D01*
X11221465Y38731093D01*
X11221465Y38669907D01*
X11197314Y38630496D01*
X10219528Y37652710D01*
X10180603Y37585289D01*
X10180603Y37585288D01*
X10173387Y37572791D01*
X10173386Y37572789D01*
X10173386Y37572788D01*
X10152850Y37496144D01*
X10149500Y37483643D01*
X10149500Y29516357D01*
X10163337Y29464713D01*
X10173384Y29427216D01*
X10173385Y29427214D01*
X10173386Y29427212D01*
X10219530Y29347288D01*
X10702107Y28864712D01*
X11131880Y28434939D01*
X11159657Y28380422D01*
X11159868Y28379024D01*
X11177334Y28257544D01*
X11222999Y28157554D01*
X11237123Y28126627D01*
X11323764Y28026637D01*
X11331373Y28017856D01*
X11331375Y28017855D01*
X11452447Y27940047D01*
X11558903Y27908789D01*
X11590535Y27899501D01*
X11590536Y27899501D01*
X11590539Y27899500D01*
X11590541Y27899500D01*
X11734459Y27899500D01*
X11734461Y27899500D01*
X11872553Y27940047D01*
X11993628Y28017857D01*
X12035198Y28065832D01*
X12087592Y28097427D01*
X12110016Y28100000D01*
X26362499Y28100000D01*
X26362500Y28100000D01*
X26362500Y34387728D01*
X26381407Y34445919D01*
X26407978Y34471013D01*
X26418628Y34477857D01*
X26512877Y34586627D01*
X26572665Y34717543D01*
X26589578Y34835175D01*
X26593147Y34859998D01*
X26593147Y34860003D01*
X26572665Y35002457D01*
X26512877Y35133372D01*
X26512877Y35133373D01*
X26418628Y35242143D01*
X26418627Y35242144D01*
X26418625Y35242146D01*
X26407973Y35248992D01*
X26369244Y35296360D01*
X26362500Y35332274D01*
X26362500Y35387728D01*
X26381407Y35445919D01*
X26407978Y35471013D01*
X26418628Y35477857D01*
X26512877Y35586627D01*
X26572665Y35717543D01*
X26593147Y35860000D01*
X26572665Y36002457D01*
X26512877Y36133373D01*
X26418628Y36242143D01*
X26418627Y36242144D01*
X26418625Y36242146D01*
X26407973Y36248992D01*
X26369244Y36296360D01*
X26362500Y36332274D01*
X26362500Y37499999D01*
X26362500Y37500000D01*
X11462500Y37500000D01*
X11462500Y37499999D01*
X11462500Y32520472D01*
X11443593Y32462281D01*
X11417024Y32437188D01*
X11331372Y32382143D01*
X11237122Y32273372D01*
X11177334Y32142457D01*
X11156853Y32000003D01*
X11156853Y31999998D01*
X11177334Y31857544D01*
X11219674Y31764835D01*
X11237123Y31726627D01*
X11303173Y31650401D01*
X11331373Y31617856D01*
X11354600Y31602929D01*
X11417023Y31562813D01*
X11455754Y31515448D01*
X11462500Y31479529D01*
X11462500Y31320472D01*
X11443593Y31262281D01*
X11417024Y31237188D01*
X11331372Y31182143D01*
X11237122Y31073372D01*
X11177334Y30942457D01*
X11156853Y30800003D01*
X11156853Y30799998D01*
X11177334Y30657544D01*
X11184220Y30642467D01*
X11237123Y30526627D01*
X11331372Y30417857D01*
X11331373Y30417856D01*
X11370267Y30392861D01*
X11417023Y30362813D01*
X11455754Y30315448D01*
X11462500Y30279529D01*
X11462500Y30120472D01*
X11443593Y30062281D01*
X11417024Y30037188D01*
X11331372Y29982143D01*
X11237122Y29873372D01*
X11177334Y29742457D01*
X11160025Y29622068D01*
X11133029Y29567160D01*
X11078915Y29538607D01*
X11018352Y29547315D01*
X10992029Y29566153D01*
X10879496Y29678686D01*
X10851719Y29733203D01*
X10850500Y29748690D01*
X10850500Y37251310D01*
X10869407Y37309501D01*
X10879496Y37321314D01*
X11878686Y38320504D01*
X11933203Y38348281D01*
X11948690Y38349500D01*
X21856192Y38349500D01*
X21856194Y38349500D01*
X21945338Y38373386D01*
X21950923Y38376611D01*
X21950928Y38376612D01*
X21950928Y38376613D01*
X21970845Y38388113D01*
X22025262Y38419530D01*
X22405733Y38800001D01*
X23994318Y38800001D01*
X23994318Y38800000D01*
X24014955Y38643242D01*
X24014957Y38643234D01*
X24075462Y38497162D01*
X24075462Y38497161D01*
X24167964Y38376610D01*
X24171718Y38371718D01*
X24297159Y38275464D01*
X24297160Y38275464D01*
X24297161Y38275463D01*
X24357427Y38250500D01*
X24443238Y38214956D01*
X24560809Y38199478D01*
X24599999Y38194318D01*
X24600000Y38194318D01*
X24600001Y38194318D01*
X24631352Y38198446D01*
X24756762Y38214956D01*
X24902841Y38275464D01*
X25028282Y38371718D01*
X25124536Y38497159D01*
X25185044Y38643238D01*
X25205682Y38800000D01*
X25185044Y38956762D01*
X25167341Y38999500D01*
X25124537Y39102839D01*
X25124537Y39102840D01*
X25028286Y39228277D01*
X25028285Y39228278D01*
X25028282Y39228282D01*
X25028277Y39228286D01*
X25028276Y39228287D01*
X24957104Y39282899D01*
X24902841Y39324536D01*
X24902840Y39324537D01*
X24902838Y39324538D01*
X24756766Y39385043D01*
X24756758Y39385045D01*
X24600001Y39405682D01*
X24599999Y39405682D01*
X24443241Y39385045D01*
X24443233Y39385043D01*
X24297161Y39324538D01*
X24297160Y39324538D01*
X24171723Y39228287D01*
X24171713Y39228277D01*
X24075462Y39102840D01*
X24075462Y39102839D01*
X24014957Y38956767D01*
X24014955Y38956759D01*
X23994318Y38800001D01*
X22405733Y38800001D01*
X28180498Y44574767D01*
X28235013Y44602542D01*
X28295445Y44592971D01*
G37*
G04 #@! TD.AperFunction*
G04 #@! TA.AperFunction,Conductor*
G36*
X33472971Y39430593D02*
G01*
X33508935Y39381093D01*
X33508935Y39319907D01*
X33484784Y39280496D01*
X31619530Y37415242D01*
X31573386Y37335318D01*
X31549500Y37246173D01*
X31549500Y31136789D01*
X31530593Y31078598D01*
X31510768Y31058248D01*
X31471721Y31028286D01*
X31471718Y31028284D01*
X31375462Y30902840D01*
X31375462Y30902839D01*
X31314957Y30756767D01*
X31314955Y30756759D01*
X31294318Y30600001D01*
X31294318Y30600000D01*
X31314955Y30443242D01*
X31314957Y30443234D01*
X31375462Y30297162D01*
X31375462Y30297161D01*
X31471713Y30171724D01*
X31471718Y30171718D01*
X31471722Y30171715D01*
X31471723Y30171714D01*
X31501082Y30149187D01*
X31597159Y30075464D01*
X31597160Y30075464D01*
X31597161Y30075463D01*
X31661324Y30048886D01*
X31743238Y30014956D01*
X31860809Y29999478D01*
X31899999Y29994318D01*
X31900000Y29994318D01*
X31900001Y29994318D01*
X31931352Y29998446D01*
X32056762Y30014956D01*
X32202841Y30075464D01*
X32328282Y30171718D01*
X32424536Y30297159D01*
X32485044Y30443238D01*
X32505682Y30600000D01*
X32485044Y30756762D01*
X32424537Y30902839D01*
X32424537Y30902840D01*
X32328281Y31028284D01*
X32328278Y31028286D01*
X32289232Y31058248D01*
X32254577Y31108672D01*
X32250500Y31136789D01*
X32250500Y37013840D01*
X32269407Y37072031D01*
X32279496Y37083844D01*
X34166156Y38970504D01*
X34220673Y38998281D01*
X34236160Y38999500D01*
X51401112Y38999500D01*
X51459303Y38980593D01*
X51495267Y38931093D01*
X51499265Y38887579D01*
X51494318Y38850001D01*
X51494318Y38850000D01*
X51514955Y38693242D01*
X51514957Y38693234D01*
X51575462Y38547162D01*
X51575462Y38547161D01*
X51630708Y38475163D01*
X51671718Y38421718D01*
X51797159Y38325464D01*
X51797160Y38325464D01*
X51797161Y38325463D01*
X51921679Y38273886D01*
X51943238Y38264956D01*
X52053043Y38250500D01*
X52099999Y38244318D01*
X52100000Y38244318D01*
X52100001Y38244318D01*
X52146957Y38250500D01*
X52256762Y38264956D01*
X52402841Y38325464D01*
X52528282Y38421718D01*
X52624536Y38547159D01*
X52665260Y38645476D01*
X52704994Y38691999D01*
X52764488Y38706283D01*
X52821016Y38682869D01*
X52826726Y38677592D01*
X53597072Y37907246D01*
X53624849Y37852729D01*
X53615278Y37792297D01*
X53580592Y37753958D01*
X53468859Y37682152D01*
X53464820Y37678651D01*
X53408461Y37654834D01*
X53348866Y37668693D01*
X53335160Y37678651D01*
X53331117Y37682154D01*
X53210047Y37759961D01*
X53210044Y37759963D01*
X53210043Y37759963D01*
X53210040Y37759964D01*
X53071954Y37800510D01*
X53071951Y37800510D01*
X52928029Y37800510D01*
X52928025Y37800510D01*
X52789939Y37759964D01*
X52789932Y37759961D01*
X52668862Y37682154D01*
X52664820Y37678651D01*
X52608461Y37654834D01*
X52548866Y37668693D01*
X52535160Y37678651D01*
X52531117Y37682154D01*
X52410047Y37759961D01*
X52410044Y37759963D01*
X52410043Y37759963D01*
X52410040Y37759964D01*
X52271954Y37800510D01*
X52271951Y37800510D01*
X52128029Y37800510D01*
X52128025Y37800510D01*
X51989939Y37759964D01*
X51989932Y37759961D01*
X51868862Y37682154D01*
X51864820Y37678651D01*
X51808461Y37654834D01*
X51748866Y37668693D01*
X51735160Y37678651D01*
X51731117Y37682154D01*
X51610047Y37759961D01*
X51610044Y37759963D01*
X51610043Y37759963D01*
X51610040Y37759964D01*
X51471954Y37800510D01*
X51471951Y37800510D01*
X51328029Y37800510D01*
X51328025Y37800510D01*
X51189939Y37759964D01*
X51189932Y37759961D01*
X51068862Y37682154D01*
X51064820Y37678651D01*
X51008461Y37654834D01*
X50948866Y37668693D01*
X50935160Y37678651D01*
X50931117Y37682154D01*
X50810047Y37759961D01*
X50810044Y37759963D01*
X50810043Y37759963D01*
X50810040Y37759964D01*
X50671954Y37800510D01*
X50671951Y37800510D01*
X50528029Y37800510D01*
X50528025Y37800510D01*
X50389939Y37759964D01*
X50389932Y37759961D01*
X50268862Y37682154D01*
X50264820Y37678651D01*
X50208461Y37654834D01*
X50148866Y37668693D01*
X50135160Y37678651D01*
X50131117Y37682154D01*
X50010047Y37759961D01*
X50010044Y37759963D01*
X50010043Y37759963D01*
X50010040Y37759964D01*
X49871954Y37800510D01*
X49871951Y37800510D01*
X49728029Y37800510D01*
X49728025Y37800510D01*
X49589939Y37759964D01*
X49589932Y37759961D01*
X49468862Y37682154D01*
X49464820Y37678651D01*
X49408461Y37654834D01*
X49348866Y37668693D01*
X49335160Y37678651D01*
X49331117Y37682154D01*
X49210047Y37759961D01*
X49210044Y37759963D01*
X49210043Y37759963D01*
X49210040Y37759964D01*
X49071954Y37800510D01*
X49071951Y37800510D01*
X48928029Y37800510D01*
X48928025Y37800510D01*
X48789939Y37759964D01*
X48789932Y37759961D01*
X48668862Y37682154D01*
X48664820Y37678651D01*
X48608461Y37654834D01*
X48548866Y37668693D01*
X48535160Y37678651D01*
X48531117Y37682154D01*
X48410047Y37759961D01*
X48410044Y37759963D01*
X48410043Y37759963D01*
X48410040Y37759964D01*
X48271954Y37800510D01*
X48271951Y37800510D01*
X48128029Y37800510D01*
X48128025Y37800510D01*
X47989939Y37759964D01*
X47989932Y37759961D01*
X47868862Y37682154D01*
X47864820Y37678651D01*
X47808461Y37654834D01*
X47748866Y37668693D01*
X47735160Y37678651D01*
X47731117Y37682154D01*
X47610047Y37759961D01*
X47610044Y37759963D01*
X47610043Y37759963D01*
X47610040Y37759964D01*
X47471954Y37800510D01*
X47471951Y37800510D01*
X47328029Y37800510D01*
X47328025Y37800510D01*
X47189939Y37759964D01*
X47189932Y37759961D01*
X47068857Y37682151D01*
X47064815Y37678648D01*
X47008454Y37654834D01*
X46948860Y37668696D01*
X46935161Y37678649D01*
X46931127Y37682144D01*
X46810057Y37759951D01*
X46810054Y37759953D01*
X46810053Y37759953D01*
X46810016Y37759964D01*
X46671964Y37800500D01*
X46671961Y37800500D01*
X46528039Y37800500D01*
X46528035Y37800500D01*
X46389949Y37759954D01*
X46389942Y37759951D01*
X46268871Y37682144D01*
X46264826Y37678638D01*
X46208465Y37654825D01*
X46148870Y37668687D01*
X46135168Y37678643D01*
X46131122Y37682148D01*
X46131118Y37682153D01*
X46079677Y37715212D01*
X46010047Y37759961D01*
X46010044Y37759963D01*
X46010043Y37759963D01*
X46010040Y37759964D01*
X45871954Y37800510D01*
X45871951Y37800510D01*
X45728029Y37800510D01*
X45728025Y37800510D01*
X45589939Y37759964D01*
X45589932Y37759961D01*
X45468863Y37682155D01*
X45374612Y37573382D01*
X45367531Y37557875D01*
X45326159Y37512797D01*
X45277477Y37500000D01*
X44922503Y37500000D01*
X44864312Y37518907D01*
X44832449Y37557875D01*
X44825821Y37572389D01*
X44825367Y37573383D01*
X44731118Y37682153D01*
X44731117Y37682154D01*
X44731116Y37682155D01*
X44610047Y37759961D01*
X44610044Y37759963D01*
X44610043Y37759963D01*
X44610040Y37759964D01*
X44471954Y37800510D01*
X44471951Y37800510D01*
X44328029Y37800510D01*
X44328025Y37800510D01*
X44189939Y37759964D01*
X44189932Y37759961D01*
X44068866Y37682156D01*
X44068864Y37682155D01*
X44068862Y37682153D01*
X44068860Y37682152D01*
X44064827Y37678656D01*
X44008468Y37654838D01*
X43948872Y37668696D01*
X43935163Y37678656D01*
X43931132Y37682148D01*
X43931128Y37682153D01*
X43879687Y37715212D01*
X43810057Y37759961D01*
X43810054Y37759963D01*
X43810053Y37759963D01*
X43810050Y37759964D01*
X43671964Y37800510D01*
X43671961Y37800510D01*
X43528039Y37800510D01*
X43528035Y37800510D01*
X43389949Y37759964D01*
X43389942Y37759961D01*
X43268872Y37682154D01*
X43264830Y37678651D01*
X43208471Y37654834D01*
X43148876Y37668693D01*
X43135170Y37678651D01*
X43131127Y37682154D01*
X43010057Y37759961D01*
X43010054Y37759963D01*
X43010053Y37759963D01*
X43010050Y37759964D01*
X42871964Y37800510D01*
X42871961Y37800510D01*
X42728039Y37800510D01*
X42728035Y37800510D01*
X42589949Y37759964D01*
X42589942Y37759961D01*
X42468872Y37682154D01*
X42464830Y37678651D01*
X42408471Y37654834D01*
X42348876Y37668693D01*
X42335170Y37678651D01*
X42331127Y37682154D01*
X42210057Y37759961D01*
X42210054Y37759963D01*
X42210053Y37759963D01*
X42210050Y37759964D01*
X42071964Y37800510D01*
X42071961Y37800510D01*
X41928039Y37800510D01*
X41928035Y37800510D01*
X41789949Y37759964D01*
X41789942Y37759961D01*
X41668872Y37682154D01*
X41664830Y37678651D01*
X41608471Y37654834D01*
X41548876Y37668693D01*
X41535170Y37678651D01*
X41531127Y37682154D01*
X41410057Y37759961D01*
X41410054Y37759963D01*
X41410053Y37759963D01*
X41410050Y37759964D01*
X41271964Y37800510D01*
X41271961Y37800510D01*
X41128039Y37800510D01*
X41128035Y37800510D01*
X40989949Y37759964D01*
X40989942Y37759961D01*
X40868871Y37682154D01*
X40864824Y37678646D01*
X40808464Y37654830D01*
X40748869Y37668690D01*
X40735166Y37678646D01*
X40731118Y37682154D01*
X40610047Y37759961D01*
X40610044Y37759963D01*
X40610043Y37759963D01*
X40610040Y37759964D01*
X40471954Y37800510D01*
X40471951Y37800510D01*
X40328029Y37800510D01*
X40328025Y37800510D01*
X40189939Y37759964D01*
X40189932Y37759961D01*
X40068863Y37682155D01*
X39974612Y37573382D01*
X39967531Y37557875D01*
X39926159Y37512797D01*
X39877477Y37500000D01*
X32999990Y37500000D01*
X32999990Y37499999D01*
X32999990Y37420482D01*
X32981083Y37362291D01*
X32954514Y37337198D01*
X32868862Y37282153D01*
X32774612Y37173382D01*
X32714824Y37042467D01*
X32694343Y36900013D01*
X32694343Y36900008D01*
X32714824Y36757554D01*
X32774613Y36626637D01*
X32828159Y36564840D01*
X32851976Y36508481D01*
X32838117Y36448886D01*
X32828159Y36435180D01*
X32774613Y36373384D01*
X32714824Y36242467D01*
X32694343Y36100013D01*
X32694343Y36100008D01*
X32714824Y35957554D01*
X32774613Y35826637D01*
X32828159Y35764840D01*
X32851976Y35708481D01*
X32838117Y35648886D01*
X32828159Y35635180D01*
X32774613Y35573384D01*
X32714824Y35442467D01*
X32694343Y35300013D01*
X32694343Y35300008D01*
X32714824Y35157554D01*
X32774613Y35026637D01*
X32828163Y34964835D01*
X32851980Y34908476D01*
X32838121Y34848881D01*
X32828163Y34835175D01*
X32774613Y34773374D01*
X32714824Y34642457D01*
X32694343Y34500003D01*
X32694343Y34499998D01*
X32714824Y34357544D01*
X32774612Y34226629D01*
X32774613Y34226627D01*
X32828155Y34164836D01*
X32851972Y34108476D01*
X32838113Y34048881D01*
X32828155Y34035174D01*
X32774612Y33973382D01*
X32714824Y33842467D01*
X32694343Y33700013D01*
X32694343Y33700008D01*
X32714824Y33557554D01*
X32774613Y33426637D01*
X32828159Y33364840D01*
X32851976Y33308481D01*
X32838117Y33248886D01*
X32828159Y33235180D01*
X32774613Y33173384D01*
X32714824Y33042467D01*
X32694343Y32900013D01*
X32694343Y32900008D01*
X32714824Y32757554D01*
X32774613Y32626637D01*
X32828159Y32564840D01*
X32851976Y32508481D01*
X32838117Y32448886D01*
X32828159Y32435180D01*
X32774613Y32373384D01*
X32714824Y32242467D01*
X32694343Y32100013D01*
X32694343Y32100008D01*
X32714824Y31957554D01*
X32774613Y31826637D01*
X32828163Y31764835D01*
X32851980Y31708476D01*
X32838121Y31648881D01*
X32828163Y31635175D01*
X32774613Y31573374D01*
X32714824Y31442457D01*
X32694343Y31300003D01*
X32694343Y31299998D01*
X32714824Y31157544D01*
X32774613Y31026627D01*
X32828159Y30964831D01*
X32851977Y30908472D01*
X32838118Y30848877D01*
X32828160Y30835170D01*
X32774623Y30773384D01*
X32714834Y30642467D01*
X32694353Y30500013D01*
X32694353Y30500008D01*
X32714834Y30357554D01*
X32774623Y30226637D01*
X32828169Y30164840D01*
X32851986Y30108481D01*
X32838127Y30048886D01*
X32828169Y30035180D01*
X32774623Y29973384D01*
X32714834Y29842467D01*
X32694353Y29700013D01*
X32694353Y29700008D01*
X32714834Y29557554D01*
X32774623Y29426637D01*
X32828169Y29364840D01*
X32851986Y29308481D01*
X32838127Y29248886D01*
X32828169Y29235180D01*
X32774623Y29173384D01*
X32714834Y29042467D01*
X32694353Y28900013D01*
X32694353Y28900008D01*
X32714834Y28757554D01*
X32749269Y28682153D01*
X32774623Y28626637D01*
X32785278Y28614340D01*
X32809095Y28557981D01*
X32795236Y28498386D01*
X32748995Y28458318D01*
X32710458Y28450510D01*
X31653866Y28450510D01*
X31564722Y28426624D01*
X31564721Y28426624D01*
X31564719Y28426623D01*
X31484799Y28380481D01*
X31169503Y28065185D01*
X31114987Y28037408D01*
X31054555Y28046979D01*
X31011290Y28090244D01*
X31000500Y28135189D01*
X31000500Y37263810D01*
X31019407Y37322001D01*
X31029496Y37333814D01*
X33116186Y39420504D01*
X33170703Y39448281D01*
X33186190Y39449500D01*
X33414780Y39449500D01*
X33472971Y39430593D01*
G37*
G04 #@! TD.AperFunction*
G04 #@! TA.AperFunction,Conductor*
G36*
X53172001Y47230593D02*
G01*
X53183814Y47220504D01*
X61720494Y38683824D01*
X61748271Y38629307D01*
X61749490Y38613820D01*
X61749490Y37696713D01*
X61730583Y37638522D01*
X61725310Y37631883D01*
X61674613Y37573374D01*
X61667534Y37557873D01*
X61626161Y37512796D01*
X61577481Y37500000D01*
X58322503Y37500000D01*
X58264312Y37518907D01*
X58232449Y37557875D01*
X58225821Y37572389D01*
X58225367Y37573383D01*
X58131118Y37682153D01*
X58131117Y37682154D01*
X58131116Y37682155D01*
X58010047Y37759961D01*
X58010044Y37759963D01*
X58010043Y37759963D01*
X58010040Y37759964D01*
X57871954Y37800510D01*
X57871951Y37800510D01*
X57728029Y37800510D01*
X57728025Y37800510D01*
X57589939Y37759964D01*
X57589932Y37759961D01*
X57468866Y37682156D01*
X57468864Y37682155D01*
X57468862Y37682153D01*
X57468860Y37682152D01*
X57464827Y37678656D01*
X57408468Y37654838D01*
X57348872Y37668696D01*
X57335163Y37678656D01*
X57331132Y37682148D01*
X57331128Y37682153D01*
X57279687Y37715212D01*
X57210057Y37759961D01*
X57210054Y37759963D01*
X57210053Y37759963D01*
X57210050Y37759964D01*
X57071964Y37800510D01*
X57071961Y37800510D01*
X56928039Y37800510D01*
X56928035Y37800510D01*
X56789949Y37759964D01*
X56789942Y37759961D01*
X56668871Y37682154D01*
X56664824Y37678646D01*
X56608464Y37654830D01*
X56548869Y37668690D01*
X56535166Y37678646D01*
X56531118Y37682154D01*
X56410047Y37759961D01*
X56410044Y37759963D01*
X56410043Y37759963D01*
X56410040Y37759964D01*
X56271954Y37800510D01*
X56271951Y37800510D01*
X56128029Y37800510D01*
X56128025Y37800510D01*
X55989939Y37759964D01*
X55989932Y37759961D01*
X55868862Y37682154D01*
X55864820Y37678651D01*
X55808461Y37654834D01*
X55748866Y37668693D01*
X55735160Y37678651D01*
X55731117Y37682154D01*
X55610047Y37759961D01*
X55610044Y37759963D01*
X55610043Y37759963D01*
X55516570Y37787409D01*
X55471948Y37800511D01*
X55471572Y37800565D01*
X55471287Y37800706D01*
X55465157Y37802505D01*
X55465468Y37803566D01*
X55416665Y37827561D01*
X55415659Y37828553D01*
X55063743Y38180468D01*
X55063741Y38180470D01*
X54983817Y38226614D01*
X54963511Y38232055D01*
X54912198Y38265378D01*
X54890272Y38322500D01*
X54897672Y38365567D01*
X54943069Y38475164D01*
X54963707Y38631926D01*
X54943069Y38788688D01*
X54943067Y38788693D01*
X54882562Y38934765D01*
X54882562Y38934766D01*
X54786311Y39060203D01*
X54786310Y39060204D01*
X54786307Y39060208D01*
X54786302Y39060212D01*
X54786301Y39060213D01*
X54660863Y39156464D01*
X54514791Y39216969D01*
X54514783Y39216971D01*
X54358026Y39237608D01*
X54358024Y39237608D01*
X54201266Y39216971D01*
X54201258Y39216969D01*
X54055186Y39156464D01*
X54055185Y39156464D01*
X53929748Y39060213D01*
X53929738Y39060203D01*
X53833487Y38934766D01*
X53833486Y38934763D01*
X53810352Y38878914D01*
X53770615Y38832389D01*
X53711120Y38818106D01*
X53654592Y38841522D01*
X53648885Y38846797D01*
X53046182Y39449500D01*
X52415212Y40080470D01*
X52335288Y40126614D01*
X52246144Y40150500D01*
X52246142Y40150500D01*
X41088301Y40150500D01*
X41030110Y40169407D01*
X40994146Y40218907D01*
X40994146Y40280093D01*
X40996837Y40287385D01*
X41044667Y40402859D01*
X41044669Y40402863D01*
X41065307Y40559625D01*
X41044669Y40716387D01*
X41020199Y40775463D01*
X40984162Y40862464D01*
X40984162Y40862465D01*
X40887911Y40987902D01*
X40887910Y40987903D01*
X40887907Y40987907D01*
X40887902Y40987911D01*
X40887901Y40987912D01*
X40762463Y41084163D01*
X40616391Y41144668D01*
X40616383Y41144670D01*
X40459626Y41165307D01*
X40459624Y41165307D01*
X40302866Y41144670D01*
X40302858Y41144668D01*
X40156786Y41084163D01*
X40156785Y41084163D01*
X40031348Y40987912D01*
X40031338Y40987902D01*
X39935087Y40862465D01*
X39935087Y40862464D01*
X39874582Y40716392D01*
X39874580Y40716384D01*
X39853943Y40559626D01*
X39853943Y40559625D01*
X39874580Y40402867D01*
X39874582Y40402859D01*
X39922413Y40287385D01*
X39927214Y40226389D01*
X39895244Y40174220D01*
X39838716Y40150805D01*
X39830949Y40150500D01*
X33257437Y40150500D01*
X33199246Y40169407D01*
X33163282Y40218907D01*
X33163282Y40280093D01*
X33199246Y40329593D01*
X33219551Y40340964D01*
X33228286Y40344583D01*
X33302841Y40375464D01*
X33428282Y40471718D01*
X33524536Y40597159D01*
X33585044Y40743238D01*
X33605682Y40900000D01*
X33585044Y41056762D01*
X33549226Y41143234D01*
X33524537Y41202839D01*
X33524537Y41202840D01*
X33449983Y41300001D01*
X54394318Y41300001D01*
X54394318Y41300000D01*
X54414955Y41143242D01*
X54414957Y41143234D01*
X54475462Y40997162D01*
X54475462Y40997161D01*
X54550018Y40899998D01*
X54571718Y40871718D01*
X54697159Y40775464D01*
X54697160Y40775464D01*
X54697161Y40775463D01*
X54843233Y40714958D01*
X54843238Y40714956D01*
X54960809Y40699478D01*
X54999999Y40694318D01*
X55000000Y40694318D01*
X55000001Y40694318D01*
X55031352Y40698446D01*
X55156762Y40714956D01*
X55302841Y40775464D01*
X55428282Y40871718D01*
X55524536Y40997159D01*
X55585044Y41143238D01*
X55605682Y41300000D01*
X55585044Y41456762D01*
X55524537Y41602839D01*
X55524537Y41602840D01*
X55428286Y41728277D01*
X55428285Y41728278D01*
X55428282Y41728282D01*
X55428277Y41728286D01*
X55428276Y41728287D01*
X55302838Y41824538D01*
X55156766Y41885043D01*
X55156758Y41885045D01*
X55000001Y41905682D01*
X54999999Y41905682D01*
X54843241Y41885045D01*
X54843233Y41885043D01*
X54697161Y41824538D01*
X54697160Y41824538D01*
X54571723Y41728287D01*
X54571713Y41728277D01*
X54475462Y41602840D01*
X54475462Y41602839D01*
X54414957Y41456767D01*
X54414955Y41456759D01*
X54394318Y41300001D01*
X33449983Y41300001D01*
X33428286Y41328277D01*
X33428285Y41328278D01*
X33428282Y41328282D01*
X33428277Y41328286D01*
X33428276Y41328287D01*
X33302838Y41424538D01*
X33156766Y41485043D01*
X33156758Y41485045D01*
X33000001Y41505682D01*
X32999999Y41505682D01*
X32843241Y41485045D01*
X32843233Y41485043D01*
X32697161Y41424538D01*
X32697160Y41424538D01*
X32571723Y41328287D01*
X32571713Y41328277D01*
X32475462Y41202840D01*
X32475462Y41202839D01*
X32414957Y41056767D01*
X32414955Y41056759D01*
X32394318Y40900001D01*
X32394318Y40899998D01*
X32400741Y40851200D01*
X32389590Y40791039D01*
X32372592Y40768276D01*
X29419504Y37815186D01*
X29364987Y37787409D01*
X29304555Y37796980D01*
X29261290Y37840245D01*
X29250500Y37885190D01*
X29250500Y42700001D01*
X38494318Y42700001D01*
X38494318Y42700000D01*
X38514955Y42543242D01*
X38514957Y42543234D01*
X38575462Y42397162D01*
X38575462Y42397161D01*
X38638540Y42314956D01*
X38671718Y42271718D01*
X38797159Y42175464D01*
X38797160Y42175464D01*
X38797161Y42175463D01*
X38943233Y42114958D01*
X38943238Y42114956D01*
X39060809Y42099478D01*
X39099999Y42094318D01*
X39100000Y42094318D01*
X39100001Y42094318D01*
X39131352Y42098446D01*
X39256762Y42114956D01*
X39402841Y42175464D01*
X39528282Y42271718D01*
X39624536Y42397159D01*
X39685044Y42543238D01*
X39705682Y42700000D01*
X39685044Y42856762D01*
X39677297Y42875464D01*
X39667134Y42900001D01*
X41594318Y42900001D01*
X41594318Y42900000D01*
X41614955Y42743242D01*
X41614957Y42743234D01*
X41675462Y42597162D01*
X41675462Y42597161D01*
X41771713Y42471724D01*
X41771718Y42471718D01*
X41897159Y42375464D01*
X41897160Y42375464D01*
X41897161Y42375463D01*
X41967946Y42346143D01*
X42043238Y42314956D01*
X42160809Y42299478D01*
X42199999Y42294318D01*
X42200000Y42294318D01*
X42200001Y42294318D01*
X42231352Y42298446D01*
X42356762Y42314956D01*
X42502841Y42375464D01*
X42628282Y42471718D01*
X42724536Y42597159D01*
X42785044Y42743238D01*
X42805682Y42900000D01*
X42785044Y43056762D01*
X42758848Y43120005D01*
X42724537Y43202839D01*
X42724537Y43202840D01*
X42628286Y43328277D01*
X42628285Y43328278D01*
X42628282Y43328282D01*
X42628277Y43328286D01*
X42628276Y43328287D01*
X42502838Y43424538D01*
X42356766Y43485043D01*
X42356758Y43485045D01*
X42200001Y43505682D01*
X42199999Y43505682D01*
X42043241Y43485045D01*
X42043233Y43485043D01*
X41897161Y43424538D01*
X41897160Y43424538D01*
X41771723Y43328287D01*
X41771713Y43328277D01*
X41675462Y43202840D01*
X41675462Y43202839D01*
X41614957Y43056767D01*
X41614955Y43056759D01*
X41594318Y42900001D01*
X39667134Y42900001D01*
X39624537Y43002839D01*
X39624537Y43002840D01*
X39528286Y43128277D01*
X39528285Y43128278D01*
X39528282Y43128282D01*
X39528277Y43128286D01*
X39528276Y43128287D01*
X39431116Y43202840D01*
X39402841Y43224536D01*
X39402840Y43224537D01*
X39402838Y43224538D01*
X39256766Y43285043D01*
X39256758Y43285045D01*
X39100001Y43305682D01*
X39099999Y43305682D01*
X38943241Y43285045D01*
X38943233Y43285043D01*
X38797161Y43224538D01*
X38797160Y43224538D01*
X38671723Y43128287D01*
X38671713Y43128277D01*
X38575462Y43002840D01*
X38575462Y43002839D01*
X38514957Y42856767D01*
X38514955Y42856759D01*
X38494318Y42700001D01*
X29250500Y42700001D01*
X29250500Y44472389D01*
X29269407Y44530580D01*
X29279496Y44542393D01*
X29526784Y44789681D01*
X33789489Y44789681D01*
X33789489Y44610320D01*
X33824479Y44434415D01*
X33824479Y44434413D01*
X33893113Y44268714D01*
X33893113Y44268713D01*
X33948254Y44186190D01*
X33992760Y44119583D01*
X34119583Y43992760D01*
X34268711Y43893115D01*
X34434414Y43824479D01*
X34610322Y43789489D01*
X34610323Y43789489D01*
X34789677Y43789489D01*
X34789678Y43789489D01*
X34965586Y43824479D01*
X35131289Y43893115D01*
X35280417Y43992760D01*
X35407240Y44119583D01*
X35506885Y44268711D01*
X35575521Y44434414D01*
X35610511Y44610322D01*
X35610511Y44789678D01*
X35575521Y44965586D01*
X35506886Y45131287D01*
X35506886Y45131288D01*
X35407240Y45280417D01*
X35280416Y45407241D01*
X35131286Y45506887D01*
X34965586Y45575521D01*
X34789680Y45610511D01*
X34789678Y45610511D01*
X34610322Y45610511D01*
X34610319Y45610511D01*
X34434414Y45575521D01*
X34434412Y45575521D01*
X34268713Y45506887D01*
X34268712Y45506887D01*
X34119583Y45407241D01*
X33992759Y45280417D01*
X33893113Y45131288D01*
X33893113Y45131287D01*
X33824479Y44965588D01*
X33824479Y44965586D01*
X33789489Y44789681D01*
X29526784Y44789681D01*
X30557608Y45820504D01*
X30612125Y45848281D01*
X30627612Y45849500D01*
X32167068Y45849500D01*
X32225259Y45830593D01*
X32227315Y45829057D01*
X32297159Y45775464D01*
X32443238Y45714956D01*
X32560809Y45699478D01*
X32599999Y45694318D01*
X32600000Y45694318D01*
X32600001Y45694318D01*
X32631352Y45698446D01*
X32756762Y45714956D01*
X32902841Y45775464D01*
X33028282Y45871718D01*
X33124536Y45997159D01*
X33185044Y46143238D01*
X33205682Y46300000D01*
X33185044Y46456762D01*
X33128929Y46592236D01*
X33124537Y46602839D01*
X33124537Y46602840D01*
X33028286Y46728277D01*
X33028285Y46728278D01*
X33028282Y46728282D01*
X33028277Y46728286D01*
X33028276Y46728287D01*
X32934817Y46800000D01*
X32902841Y46824536D01*
X32902840Y46824537D01*
X32902838Y46824538D01*
X32756766Y46885043D01*
X32756758Y46885045D01*
X32600001Y46905682D01*
X32599999Y46905682D01*
X32443241Y46885045D01*
X32443233Y46885043D01*
X32297161Y46824538D01*
X32289823Y46818907D01*
X32227334Y46770958D01*
X32169659Y46750534D01*
X32167068Y46750500D01*
X30595240Y46750500D01*
X30537049Y46769407D01*
X30501085Y46818907D01*
X30501085Y46880093D01*
X30525236Y46919504D01*
X30826236Y47220504D01*
X30880753Y47248281D01*
X30896240Y47249500D01*
X53113810Y47249500D01*
X53172001Y47230593D01*
G37*
G04 #@! TD.AperFunction*
G04 #@! TA.AperFunction,Conductor*
G36*
X28707556Y54117730D02*
G01*
X28724620Y54109932D01*
X28776114Y54080201D01*
X28890691Y54049500D01*
X30467068Y54049500D01*
X30525259Y54030593D01*
X30527315Y54029057D01*
X30597159Y53975464D01*
X30597160Y53975464D01*
X30597161Y53975463D01*
X30653009Y53952330D01*
X30699535Y53912594D01*
X30713819Y53853099D01*
X30690405Y53796571D01*
X30685128Y53790863D01*
X30219532Y53325265D01*
X30219530Y53325263D01*
X30219530Y53325262D01*
X30173386Y53245338D01*
X30149500Y53156194D01*
X30149500Y49153856D01*
X30163894Y49100136D01*
X30168882Y49081519D01*
X30169164Y49080469D01*
X30173386Y49064712D01*
X30219530Y48984788D01*
X31084788Y48119530D01*
X31084790Y48119529D01*
X31084815Y48119504D01*
X31112592Y48064987D01*
X31103021Y48004555D01*
X31059756Y47961290D01*
X31014811Y47950500D01*
X30663906Y47950500D01*
X30658179Y47948966D01*
X30636804Y47943239D01*
X30636804Y47943238D01*
X30605783Y47934926D01*
X30574761Y47926614D01*
X30494838Y47880470D01*
X25088939Y42474571D01*
X25034422Y42446794D01*
X24973990Y42456365D01*
X24930725Y42499630D01*
X24921154Y42560062D01*
X24922140Y42565303D01*
X24924999Y42595789D01*
X24925000Y42595790D01*
X24925000Y42849999D01*
X24924999Y42850000D01*
X24196410Y42850000D01*
X24199444Y42855255D01*
X24225000Y42950630D01*
X24225000Y43049370D01*
X24199444Y43144745D01*
X24196410Y43150000D01*
X24924998Y43150000D01*
X24924999Y43150001D01*
X24924999Y43404204D01*
X24922149Y43434601D01*
X24922149Y43434603D01*
X24877345Y43562648D01*
X24796792Y43671791D01*
X24796790Y43671793D01*
X24687647Y43752346D01*
X24559601Y43797150D01*
X24529211Y43800000D01*
X24000001Y43800000D01*
X24000000Y43799999D01*
X24000000Y43346411D01*
X23994745Y43349444D01*
X23899370Y43375000D01*
X23800630Y43375000D01*
X23705255Y43349444D01*
X23700000Y43346411D01*
X23700000Y43799999D01*
X23699999Y43800000D01*
X23170796Y43800000D01*
X23140399Y43797150D01*
X23140397Y43797150D01*
X23012352Y43752346D01*
X22903209Y43671793D01*
X22903207Y43671791D01*
X22822654Y43562648D01*
X22777850Y43434602D01*
X22775000Y43404212D01*
X22775000Y43150001D01*
X22775001Y43150000D01*
X23503590Y43150000D01*
X23500556Y43144745D01*
X23475000Y43049370D01*
X23475000Y42950630D01*
X23500556Y42855255D01*
X23503590Y42850000D01*
X22775002Y42850000D01*
X22775001Y42849999D01*
X22775001Y42595797D01*
X22777850Y42565400D01*
X22777850Y42565398D01*
X22822654Y42437353D01*
X22903207Y42328210D01*
X22903209Y42328208D01*
X23012352Y42247655D01*
X23140398Y42202851D01*
X23170789Y42200001D01*
X23699998Y42200001D01*
X23700000Y42200002D01*
X23700000Y42653590D01*
X23705255Y42650556D01*
X23800630Y42625000D01*
X23899370Y42625000D01*
X23994745Y42650556D01*
X24000000Y42653590D01*
X24000000Y42200002D01*
X24000001Y42200001D01*
X24529203Y42200001D01*
X24565604Y42203413D01*
X24565723Y42202142D01*
X24620168Y42196737D01*
X24665873Y42156059D01*
X24678940Y42096285D01*
X24654377Y42040247D01*
X24650428Y42036061D01*
X21693864Y39079496D01*
X21639347Y39051719D01*
X21623860Y39050500D01*
X18826611Y39050500D01*
X18768420Y39069407D01*
X18732456Y39118907D01*
X18732456Y39180093D01*
X18756607Y39219504D01*
X19617573Y40080470D01*
X22360489Y42823386D01*
X22419799Y42926113D01*
X22427233Y42953857D01*
X22450500Y43040691D01*
X22450500Y45078845D01*
X22774500Y45078845D01*
X22774500Y44921156D01*
X22805263Y44766504D01*
X22805263Y44766502D01*
X22865603Y44620826D01*
X22865609Y44620815D01*
X22918010Y44542393D01*
X22953211Y44489711D01*
X23064711Y44378211D01*
X23142876Y44325983D01*
X23195814Y44290610D01*
X23195825Y44290604D01*
X23248673Y44268714D01*
X23341503Y44230263D01*
X23496158Y44199500D01*
X23496159Y44199500D01*
X24203841Y44199500D01*
X24203842Y44199500D01*
X24358497Y44230263D01*
X24504179Y44290606D01*
X24635289Y44378211D01*
X24746789Y44489711D01*
X24834394Y44620821D01*
X24894737Y44766503D01*
X24925500Y44921158D01*
X24925500Y45078842D01*
X24894737Y45233497D01*
X24837486Y45371714D01*
X24834396Y45379175D01*
X24834390Y45379186D01*
X24790292Y45445182D01*
X24746789Y45510289D01*
X24635289Y45621789D01*
X24583059Y45656688D01*
X24504185Y45709391D01*
X24504174Y45709397D01*
X24358497Y45769737D01*
X24203844Y45800500D01*
X24203842Y45800500D01*
X23496158Y45800500D01*
X23496155Y45800500D01*
X23341503Y45769737D01*
X23341501Y45769737D01*
X23195825Y45709397D01*
X23195814Y45709391D01*
X23064711Y45621789D01*
X23064707Y45621786D01*
X22953214Y45510293D01*
X22953211Y45510289D01*
X22865609Y45379186D01*
X22865603Y45379175D01*
X22805263Y45233499D01*
X22805263Y45233497D01*
X22774500Y45078845D01*
X22450500Y45078845D01*
X22450500Y47078845D01*
X22774500Y47078845D01*
X22774500Y46921156D01*
X22781684Y46885043D01*
X22804685Y46769407D01*
X22805263Y46766504D01*
X22805263Y46766502D01*
X22865603Y46620826D01*
X22865609Y46620815D01*
X22906167Y46560117D01*
X22953211Y46489711D01*
X23064711Y46378211D01*
X23117046Y46343242D01*
X23195814Y46290610D01*
X23195825Y46290604D01*
X23249638Y46268315D01*
X23341503Y46230263D01*
X23496158Y46199500D01*
X23496159Y46199500D01*
X24203841Y46199500D01*
X24203842Y46199500D01*
X24358497Y46230263D01*
X24504179Y46290606D01*
X24635289Y46378211D01*
X24746789Y46489711D01*
X24834394Y46620821D01*
X24894737Y46766503D01*
X24925500Y46921158D01*
X24925500Y47078842D01*
X24894737Y47233497D01*
X24843681Y47356759D01*
X24834396Y47379175D01*
X24834390Y47379186D01*
X24799017Y47432124D01*
X24746789Y47510289D01*
X24635289Y47621789D01*
X24583059Y47656688D01*
X24504185Y47709391D01*
X24504174Y47709397D01*
X24358497Y47769737D01*
X24203844Y47800500D01*
X24203842Y47800500D01*
X23496158Y47800500D01*
X23496155Y47800500D01*
X23341503Y47769737D01*
X23341501Y47769737D01*
X23195825Y47709397D01*
X23195814Y47709391D01*
X23064711Y47621789D01*
X23064707Y47621786D01*
X22953214Y47510293D01*
X22953211Y47510289D01*
X22865609Y47379186D01*
X22865603Y47379175D01*
X22805263Y47233499D01*
X22805263Y47233497D01*
X22774500Y47078845D01*
X22450500Y47078845D01*
X22450500Y48972389D01*
X22469407Y49030580D01*
X22479496Y49042392D01*
X22607927Y49170824D01*
X22662444Y49198602D01*
X22722876Y49189031D01*
X22766140Y49145766D01*
X22775712Y49085334D01*
X22775031Y49081519D01*
X22774501Y49078855D01*
X22774500Y49078841D01*
X22774500Y48921156D01*
X22805263Y48766504D01*
X22805263Y48766502D01*
X22865603Y48620826D01*
X22865609Y48620815D01*
X22918312Y48541941D01*
X22953211Y48489711D01*
X23064711Y48378211D01*
X23142876Y48325983D01*
X23195814Y48290610D01*
X23195825Y48290604D01*
X23249638Y48268315D01*
X23341503Y48230263D01*
X23496158Y48199500D01*
X23496159Y48199500D01*
X24203841Y48199500D01*
X24203842Y48199500D01*
X24358497Y48230263D01*
X24504179Y48290606D01*
X24635289Y48378211D01*
X24746789Y48489711D01*
X24834394Y48620821D01*
X24894737Y48766503D01*
X24925500Y48921158D01*
X24925500Y49078842D01*
X24894737Y49233497D01*
X24834656Y49378547D01*
X24834396Y49379175D01*
X24834390Y49379186D01*
X24766713Y49480470D01*
X24746789Y49510289D01*
X24635289Y49621789D01*
X24583059Y49656688D01*
X24504185Y49709391D01*
X24504174Y49709397D01*
X24358497Y49769737D01*
X24203844Y49800500D01*
X24203842Y49800500D01*
X23496158Y49800500D01*
X23496157Y49800500D01*
X23496145Y49800499D01*
X23493481Y49799969D01*
X23492248Y49800116D01*
X23491314Y49800023D01*
X23491293Y49800229D01*
X23432721Y49807168D01*
X23387796Y49848706D01*
X23375867Y49908717D01*
X23401489Y49964279D01*
X23404150Y49967048D01*
X26457607Y53020504D01*
X26512124Y53048281D01*
X26527611Y53049500D01*
X26909308Y53049500D01*
X26909309Y53049500D01*
X27005890Y53075379D01*
X27023887Y53080201D01*
X27126614Y53139511D01*
X28075150Y54088049D01*
X28129665Y54115824D01*
X28173890Y54112780D01*
X28211316Y54101427D01*
X28211321Y54101426D01*
X28399997Y54082843D01*
X28400000Y54082843D01*
X28400003Y54082843D01*
X28588678Y54101426D01*
X28588678Y54101427D01*
X28588683Y54101427D01*
X28646385Y54118931D01*
X28707556Y54117730D01*
G37*
G04 #@! TD.AperFunction*
G04 #@! TD*
M02*
