G04 #@! TF.GenerationSoftware,KiCad,Pcbnew,8.0.9-8.0.9-0~ubuntu24.04.1*
G04 #@! TF.CreationDate,2026-08-19T20:18:35+00:00*
G04 #@! TF.ProjectId,PROLT,50524f4c-542e-46b6-9963-61645f706362,rev?*
G04 #@! TF.SameCoordinates,Original*
G04 #@! TF.FileFunction,Legend,Bot*
G04 #@! TF.FilePolarity,Positive*
%FSLAX46Y46*%
G04 Gerber Fmt 4.6, Leading zero omitted, Abs format (unit mm)*
G04 Created by KiCad (PCBNEW 8.0.9-8.0.9-0~ubuntu24.04.1) date 2026-08-19 20:18:35*
%MOMM*%
%LPD*%
G01*
G04 APERTURE LIST*
%ADD10C,0.150000*%
%ADD11C,0.120000*%
%ADD12C,0.200000*%
%ADD13C,0.099060*%
%ADD14C,0.203200*%
%ADD15C,0.170000*%
%ADD16C,0.150012*%
G04 APERTURE END LIST*
D10*
X72201316Y73781229D02*
X72658458Y73609800D01*
X72658458Y73609800D02*
X72201316Y73438372D01*
X71458459Y73781229D02*
X71915601Y73609800D01*
X71915601Y73609800D02*
X71458459Y73438372D01*
X70715602Y73781229D02*
X71172744Y73609800D01*
X71172744Y73609800D02*
X70715602Y73438372D01*
X69972744Y73381229D02*
X69972744Y73981229D01*
X69972744Y73981229D02*
X69829887Y73981229D01*
X69829887Y73981229D02*
X69744173Y73952658D01*
X69744173Y73952658D02*
X69687030Y73895515D01*
X69687030Y73895515D02*
X69658459Y73838372D01*
X69658459Y73838372D02*
X69629887Y73724086D01*
X69629887Y73724086D02*
X69629887Y73638372D01*
X69629887Y73638372D02*
X69658459Y73524086D01*
X69658459Y73524086D02*
X69687030Y73466943D01*
X69687030Y73466943D02*
X69744173Y73409800D01*
X69744173Y73409800D02*
X69829887Y73381229D01*
X69829887Y73381229D02*
X69972744Y73381229D01*
X69372744Y73381229D02*
X69372744Y73981229D01*
X69087030Y73381229D02*
X69087030Y73981229D01*
X69087030Y73981229D02*
X68744173Y73381229D01*
X68744173Y73381229D02*
X68744173Y73981229D01*
X68058459Y73981229D02*
X67687031Y73981229D01*
X67687031Y73981229D02*
X67887031Y73752658D01*
X67887031Y73752658D02*
X67801316Y73752658D01*
X67801316Y73752658D02*
X67744174Y73724086D01*
X67744174Y73724086D02*
X67715602Y73695515D01*
X67715602Y73695515D02*
X67687031Y73638372D01*
X67687031Y73638372D02*
X67687031Y73495515D01*
X67687031Y73495515D02*
X67715602Y73438372D01*
X67715602Y73438372D02*
X67744174Y73409800D01*
X67744174Y73409800D02*
X67801316Y73381229D01*
X67801316Y73381229D02*
X67972745Y73381229D01*
X67972745Y73381229D02*
X68029888Y73409800D01*
X68029888Y73409800D02*
X68058459Y73438372D01*
X66544173Y74009800D02*
X67058459Y73238372D01*
X65772745Y73981229D02*
X65658459Y73981229D01*
X65658459Y73981229D02*
X65601316Y73952658D01*
X65601316Y73952658D02*
X65544173Y73895515D01*
X65544173Y73895515D02*
X65515602Y73781229D01*
X65515602Y73781229D02*
X65515602Y73581229D01*
X65515602Y73581229D02*
X65544173Y73466943D01*
X65544173Y73466943D02*
X65601316Y73409800D01*
X65601316Y73409800D02*
X65658459Y73381229D01*
X65658459Y73381229D02*
X65772745Y73381229D01*
X65772745Y73381229D02*
X65829888Y73409800D01*
X65829888Y73409800D02*
X65887030Y73466943D01*
X65887030Y73466943D02*
X65915602Y73581229D01*
X65915602Y73581229D02*
X65915602Y73781229D01*
X65915602Y73781229D02*
X65887030Y73895515D01*
X65887030Y73895515D02*
X65829888Y73952658D01*
X65829888Y73952658D02*
X65772745Y73981229D01*
X65258459Y73981229D02*
X65258459Y73495515D01*
X65258459Y73495515D02*
X65229888Y73438372D01*
X65229888Y73438372D02*
X65201317Y73409800D01*
X65201317Y73409800D02*
X65144174Y73381229D01*
X65144174Y73381229D02*
X65029888Y73381229D01*
X65029888Y73381229D02*
X64972745Y73409800D01*
X64972745Y73409800D02*
X64944174Y73438372D01*
X64944174Y73438372D02*
X64915602Y73495515D01*
X64915602Y73495515D02*
X64915602Y73981229D01*
X64715603Y73981229D02*
X64372746Y73981229D01*
X64544174Y73381229D02*
X64544174Y73981229D01*
X63458460Y73781229D02*
X63458460Y73381229D01*
X63601317Y74009800D02*
X63744174Y73581229D01*
X63744174Y73581229D02*
X63372745Y73581229D01*
X62687030Y73781229D02*
X62229888Y73609800D01*
X62229888Y73609800D02*
X62687030Y73438372D01*
X61944173Y73781229D02*
X61487031Y73609800D01*
X61487031Y73609800D02*
X61944173Y73438372D01*
X61201316Y73781229D02*
X60744174Y73609800D01*
X60744174Y73609800D02*
X61201316Y73438372D01*
X72101316Y77781229D02*
X72558458Y77609800D01*
X72558458Y77609800D02*
X72101316Y77438372D01*
X71358459Y77781229D02*
X71815601Y77609800D01*
X71815601Y77609800D02*
X71358459Y77438372D01*
X70615602Y77781229D02*
X71072744Y77609800D01*
X71072744Y77609800D02*
X70615602Y77438372D01*
X69872744Y77381229D02*
X69872744Y77981229D01*
X69272745Y77952658D02*
X69329888Y77981229D01*
X69329888Y77981229D02*
X69415602Y77981229D01*
X69415602Y77981229D02*
X69501316Y77952658D01*
X69501316Y77952658D02*
X69558459Y77895515D01*
X69558459Y77895515D02*
X69587030Y77838372D01*
X69587030Y77838372D02*
X69615602Y77724086D01*
X69615602Y77724086D02*
X69615602Y77638372D01*
X69615602Y77638372D02*
X69587030Y77524086D01*
X69587030Y77524086D02*
X69558459Y77466943D01*
X69558459Y77466943D02*
X69501316Y77409800D01*
X69501316Y77409800D02*
X69415602Y77381229D01*
X69415602Y77381229D02*
X69358459Y77381229D01*
X69358459Y77381229D02*
X69272745Y77409800D01*
X69272745Y77409800D02*
X69244173Y77438372D01*
X69244173Y77438372D02*
X69244173Y77638372D01*
X69244173Y77638372D02*
X69358459Y77638372D01*
X68987030Y77381229D02*
X68987030Y77981229D01*
X68987030Y77981229D02*
X68644173Y77381229D01*
X68644173Y77381229D02*
X68644173Y77981229D01*
X67958459Y77981229D02*
X67587031Y77981229D01*
X67587031Y77981229D02*
X67787031Y77752658D01*
X67787031Y77752658D02*
X67701316Y77752658D01*
X67701316Y77752658D02*
X67644174Y77724086D01*
X67644174Y77724086D02*
X67615602Y77695515D01*
X67615602Y77695515D02*
X67587031Y77638372D01*
X67587031Y77638372D02*
X67587031Y77495515D01*
X67587031Y77495515D02*
X67615602Y77438372D01*
X67615602Y77438372D02*
X67644174Y77409800D01*
X67644174Y77409800D02*
X67701316Y77381229D01*
X67701316Y77381229D02*
X67872745Y77381229D01*
X67872745Y77381229D02*
X67929888Y77409800D01*
X67929888Y77409800D02*
X67958459Y77438372D01*
X66444173Y78009800D02*
X66958459Y77238372D01*
X65672745Y77981229D02*
X65558459Y77981229D01*
X65558459Y77981229D02*
X65501316Y77952658D01*
X65501316Y77952658D02*
X65444173Y77895515D01*
X65444173Y77895515D02*
X65415602Y77781229D01*
X65415602Y77781229D02*
X65415602Y77581229D01*
X65415602Y77581229D02*
X65444173Y77466943D01*
X65444173Y77466943D02*
X65501316Y77409800D01*
X65501316Y77409800D02*
X65558459Y77381229D01*
X65558459Y77381229D02*
X65672745Y77381229D01*
X65672745Y77381229D02*
X65729888Y77409800D01*
X65729888Y77409800D02*
X65787030Y77466943D01*
X65787030Y77466943D02*
X65815602Y77581229D01*
X65815602Y77581229D02*
X65815602Y77781229D01*
X65815602Y77781229D02*
X65787030Y77895515D01*
X65787030Y77895515D02*
X65729888Y77952658D01*
X65729888Y77952658D02*
X65672745Y77981229D01*
X65158459Y77981229D02*
X65158459Y77495515D01*
X65158459Y77495515D02*
X65129888Y77438372D01*
X65129888Y77438372D02*
X65101317Y77409800D01*
X65101317Y77409800D02*
X65044174Y77381229D01*
X65044174Y77381229D02*
X64929888Y77381229D01*
X64929888Y77381229D02*
X64872745Y77409800D01*
X64872745Y77409800D02*
X64844174Y77438372D01*
X64844174Y77438372D02*
X64815602Y77495515D01*
X64815602Y77495515D02*
X64815602Y77981229D01*
X64615603Y77981229D02*
X64272746Y77981229D01*
X64444174Y77381229D02*
X64444174Y77981229D01*
X63672745Y77981229D02*
X63301317Y77981229D01*
X63301317Y77981229D02*
X63501317Y77752658D01*
X63501317Y77752658D02*
X63415602Y77752658D01*
X63415602Y77752658D02*
X63358460Y77724086D01*
X63358460Y77724086D02*
X63329888Y77695515D01*
X63329888Y77695515D02*
X63301317Y77638372D01*
X63301317Y77638372D02*
X63301317Y77495515D01*
X63301317Y77495515D02*
X63329888Y77438372D01*
X63329888Y77438372D02*
X63358460Y77409800D01*
X63358460Y77409800D02*
X63415602Y77381229D01*
X63415602Y77381229D02*
X63587031Y77381229D01*
X63587031Y77381229D02*
X63644174Y77409800D01*
X63644174Y77409800D02*
X63672745Y77438372D01*
X62587030Y77781229D02*
X62129888Y77609800D01*
X62129888Y77609800D02*
X62587030Y77438372D01*
X61844173Y77781229D02*
X61387031Y77609800D01*
X61387031Y77609800D02*
X61844173Y77438372D01*
X61101316Y77781229D02*
X60644174Y77609800D01*
X60644174Y77609800D02*
X61101316Y77438372D01*
D11*
G04 #@! TO.C,F7*
X27400000Y55100000D02*
X27400000Y59950000D01*
X29400000Y55100000D02*
X29400000Y59950000D01*
X27400000Y59950000D02*
G75*
G02*
X29400000Y59950000I1000000J0D01*
G01*
X29400000Y55050000D02*
G75*
G02*
X27400000Y55050000I-1000000J0D01*
G01*
D12*
G04 #@! TO.C,M1*
X33000000Y3700000D02*
X33000000Y37500010D01*
X68799990Y37500010D02*
X33000000Y37500010D01*
X68799990Y3700000D02*
X33000000Y3700000D01*
X68799990Y3700000D02*
X68799990Y37500010D01*
D11*
G04 #@! TO.C,F5*
X21500000Y55100000D02*
X21500000Y59950000D01*
X23500000Y55100000D02*
X23500000Y59950000D01*
X21500000Y59950000D02*
G75*
G02*
X23500000Y59950000I1000000J0D01*
G01*
X23500000Y55050000D02*
G75*
G02*
X21500000Y55050000I-1000000J0D01*
G01*
D13*
G04 #@! TO.C,R16*
X24076000Y1100000D02*
X25092000Y1100000D01*
X25092000Y2700000D02*
X24076000Y2700000D01*
X26108000Y1100000D02*
X27124000Y1100000D01*
X27124000Y2700000D02*
X26108000Y2700000D01*
D11*
X24021000Y1098362D02*
G75*
G02*
X24025000Y2700000I-326000J801638D01*
G01*
X27175000Y2700000D02*
G75*
G02*
X27183602Y1096505I330000J-800000D01*
G01*
G04 #@! TO.C,F4*
X19000000Y55100000D02*
X19000000Y59950000D01*
X21000000Y55100000D02*
X21000000Y59950000D01*
X19000000Y59950000D02*
G75*
G02*
X21000000Y59950000I1000000J0D01*
G01*
X21000000Y55050000D02*
G75*
G02*
X19000000Y55050000I-1000000J0D01*
G01*
G04 #@! TO.C,F6*
X25000000Y55100000D02*
X25000000Y59950000D01*
X27000000Y55100000D02*
X27000000Y59950000D01*
X25000000Y59950000D02*
G75*
G02*
X27000000Y59950000I1000000J0D01*
G01*
X27000000Y55050000D02*
G75*
G02*
X25000000Y55050000I-1000000J0D01*
G01*
D12*
G04 #@! TO.C,M2*
X11362500Y37600000D02*
X11362500Y32500000D01*
X11962500Y28000000D02*
X26362500Y28000000D01*
X26362500Y37600000D02*
X11362500Y37600000D01*
X26362500Y37600000D02*
X26362500Y36300000D01*
X26362500Y28000000D02*
X26362500Y34400000D01*
G04 #@! TO.C,M3*
X11424999Y17824999D02*
X11424999Y21025002D01*
X11424999Y5724999D02*
X11424999Y16125001D01*
X11424999Y3824999D02*
X11424999Y4124999D01*
X11424999Y3824999D02*
X26824999Y3824999D01*
X12924999Y24424997D02*
X28224998Y24424999D01*
X28224996Y17725001D02*
X28224996Y22525001D01*
X28224996Y11524999D02*
X28224996Y14224999D01*
X28224996Y8825001D02*
X28224996Y9925004D01*
X28224996Y5274999D02*
X28225001Y6824999D01*
X28224998Y24125001D02*
X28224998Y24424999D01*
D14*
G04 #@! TO.C,R9*
X54464160Y49322349D02*
X54464149Y49722348D01*
X55209995Y49323405D02*
X55209985Y49723405D01*
D12*
G04 #@! TO.C,C6*
X14600079Y53314993D02*
X13600079Y53314993D01*
G04 #@! TO.C,C1*
X61849986Y49525000D02*
X61100001Y49525000D01*
G04 #@! TO.C,C11*
X10650015Y53300000D02*
X9650015Y53300000D01*
G04 #@! TO.C,C4*
X9650015Y56730002D02*
X10650015Y56730002D01*
G04 #@! TO.C,C18*
X9900000Y47600000D02*
X10900000Y47600000D01*
G04 #@! TO.C,IC1*
X59050000Y56600000D02*
X59050000Y53400000D01*
X59050000Y53400000D02*
X63950000Y53400000D01*
X63950000Y56600000D02*
X59050000Y56600000D01*
X63950000Y53400000D02*
X63950000Y56600000D01*
X64080000Y51525000D02*
X64080000Y53050000D01*
D14*
G04 #@! TO.C,R25*
X45725005Y49700000D02*
X45725015Y49300000D01*
X46470840Y49701056D02*
X46470851Y49301057D01*
G04 #@! TO.C,R24*
X44429160Y49298944D02*
X44429149Y49698943D01*
X45174995Y49300000D02*
X45174985Y49700000D01*
D12*
G04 #@! TO.C,C25*
X10900000Y44169998D02*
X9900000Y44169998D01*
G04 #@! TO.C,C24*
X8950015Y44169998D02*
X7950015Y44169998D01*
D11*
G04 #@! TO.C,U3*
X42840000Y55500000D02*
X42840000Y57450000D01*
X42840000Y55500000D02*
X42840000Y53550000D01*
X47960000Y55500000D02*
X47960000Y57450000D01*
X47960000Y55500000D02*
X47960000Y53550000D01*
X48195000Y52560000D02*
X47865000Y52800000D01*
X48195000Y53040000D01*
X48195000Y52560000D01*
G36*
X48195000Y52560000D02*
G01*
X47865000Y52800000D01*
X48195000Y53040000D01*
X48195000Y52560000D01*
G37*
D14*
G04 #@! TO.C,R5*
X63829160Y49298944D02*
X63829149Y49698943D01*
X64574995Y49300000D02*
X64574985Y49700000D01*
D11*
G04 #@! TO.C,JP1*
X64050000Y76550000D02*
X64050000Y74600000D01*
X64050000Y74600000D02*
X69550000Y74600000D01*
X65100000Y77100000D02*
X65700000Y77100000D01*
X65400000Y76800000D02*
X65100000Y77100000D01*
X65700000Y77100000D02*
X65400000Y76800000D01*
X69550000Y76550000D02*
X64050000Y76550000D01*
X69550000Y74600000D02*
X69550000Y76550000D01*
D14*
G04 #@! TO.C,R21*
X53200005Y49750000D02*
X53200015Y49350000D01*
X53945840Y49751056D02*
X53945851Y49351057D01*
D12*
G04 #@! TO.C,C9*
X6750045Y53300000D02*
X5750045Y53300000D01*
G04 #@! TO.C,C12*
X12600000Y53300000D02*
X11600000Y53300000D01*
D11*
G04 #@! TO.C,U4*
X50340000Y55500000D02*
X50340000Y57450000D01*
X50340000Y55500000D02*
X50340000Y53550000D01*
X55460000Y55500000D02*
X55460000Y57450000D01*
X55460000Y55500000D02*
X55460000Y53550000D01*
X55695000Y52560000D02*
X55365000Y52800000D01*
X55695000Y53040000D01*
X55695000Y52560000D01*
G36*
X55695000Y52560000D02*
G01*
X55365000Y52800000D01*
X55695000Y53040000D01*
X55695000Y52560000D01*
G37*
D12*
G04 #@! TO.C,C10*
X8700030Y53300000D02*
X7700030Y53300000D01*
G04 #@! TO.C,C8*
X15500079Y56730002D02*
X16500079Y56730002D01*
G04 #@! TO.C,C16*
X6000030Y47600000D02*
X7000030Y47600000D01*
G04 #@! TO.C,C23*
X7000030Y44169998D02*
X6000030Y44169998D01*
G04 #@! TO.C,C20*
X13799970Y47600000D02*
X14799970Y47600000D01*
D14*
G04 #@! TO.C,R26*
X43125005Y49700000D02*
X43125015Y49300000D01*
X43870840Y49701056D02*
X43870851Y49301057D01*
D11*
G04 #@! TO.C,D2*
X23250000Y76600000D02*
X27150000Y76600000D01*
X23250000Y74600000D02*
X23250000Y76600000D01*
X23250000Y74600000D02*
X27150000Y74600000D01*
D15*
X24950000Y75600000D02*
X25150000Y75600000D01*
X25150000Y75950000D02*
X25150000Y75250000D01*
X25150000Y75600000D02*
X25850000Y75950000D01*
X25150000Y75600000D02*
X25850000Y75250000D01*
X25850000Y75950000D02*
X25850000Y75250000D01*
X25850000Y75600000D02*
X26150000Y75600000D01*
D16*
G04 #@! TO.C,BT1*
X27588000Y44535890D02*
X28788302Y44535890D01*
X27588000Y41379864D02*
X27588000Y44535890D01*
X27588000Y41379864D02*
X32468889Y41379864D01*
X36224000Y44688316D02*
X38256000Y44688316D01*
X36931110Y41379864D02*
X41812000Y41379864D01*
X37240000Y51419316D02*
X37240000Y52943316D01*
X37240000Y43672316D02*
X37240000Y45704316D01*
X40870600Y44535890D02*
X41812000Y44535890D01*
X41812000Y41379864D02*
X41812000Y44535890D01*
X32402548Y41784487D02*
G75*
G02*
X32576081Y55471406I2297434J6815431D01*
G01*
X36854049Y55517531D02*
G75*
G02*
X36875107Y41688883I-2154015J-6917620D01*
G01*
D11*
G04 #@! TO.C,D1*
X23250000Y74300000D02*
X27150000Y74300000D01*
X23250000Y72300000D02*
X23250000Y74300000D01*
X23250000Y72300000D02*
X27150000Y72300000D01*
D15*
X24950000Y73300000D02*
X25150000Y73300000D01*
X25150000Y73650000D02*
X25150000Y72950000D01*
X25150000Y73300000D02*
X25850000Y73650000D01*
X25150000Y73300000D02*
X25850000Y72950000D01*
X25850000Y73650000D02*
X25850000Y72950000D01*
X25850000Y73300000D02*
X26150000Y73300000D01*
D14*
G04 #@! TO.C,R23*
X47029160Y49298944D02*
X47029149Y49698943D01*
X47774995Y49300000D02*
X47774985Y49700000D01*
D11*
G04 #@! TO.C,JP2*
X64050000Y72850000D02*
X64050000Y70900000D01*
X64050000Y70900000D02*
X69550000Y70900000D01*
X65100000Y73400000D02*
X65700000Y73400000D01*
X65400000Y73100000D02*
X65100000Y73400000D01*
X65700000Y73400000D02*
X65400000Y73100000D01*
X69550000Y72850000D02*
X64050000Y72850000D01*
X69550000Y70900000D02*
X69550000Y72850000D01*
D14*
G04 #@! TO.C,R7*
X58064160Y49323944D02*
X58064149Y49723943D01*
X58809995Y49325000D02*
X58809985Y49725000D01*
G04 #@! TO.C,R8*
X59664160Y49323944D02*
X59664149Y49723943D01*
X60409995Y49325000D02*
X60409985Y49725000D01*
D12*
G04 #@! TO.C,C15*
X14800000Y44100000D02*
X13800000Y44100000D01*
G04 #@! TO.C,C22*
X15600000Y47600000D02*
X16600000Y47600000D01*
G04 #@! TO.C,C19*
X11849985Y47600000D02*
X12849985Y47600000D01*
G04 #@! TO.C,C21*
X12800000Y44100000D02*
X11800000Y44100000D01*
D14*
G04 #@! TO.C,R22*
X50700005Y49750000D02*
X50700015Y49350000D01*
X51445840Y49751056D02*
X51445851Y49351057D01*
D12*
G04 #@! TO.C,C2*
X5750045Y56730002D02*
X6750045Y56730002D01*
G04 #@! TO.C,C5*
X11600000Y56730002D02*
X12600000Y56730002D01*
D14*
G04 #@! TO.C,R6*
X62529160Y49323944D02*
X62529149Y49723943D01*
X63274995Y49325000D02*
X63274985Y49725000D01*
D12*
G04 #@! TO.C,C3*
X7700030Y56730002D02*
X8700030Y56730002D01*
G04 #@! TO.C,C7*
X13600079Y56714993D02*
X14600079Y56714993D01*
G04 #@! TO.C,C17*
X7950015Y47600000D02*
X8950015Y47600000D01*
D14*
G04 #@! TO.C,R10*
X51964160Y49323944D02*
X51964149Y49723943D01*
X52709995Y49325000D02*
X52709985Y49725000D01*
G04 #@! TD*
M02*
