G04 #@! TF.GenerationSoftware,KiCad,Pcbnew,8.0.9-8.0.9-0~ubuntu24.04.1*
G04 #@! TF.CreationDate,2025-09-04T03:17:17+00:00*
G04 #@! TF.ProjectId,PROLT,50524f4c-542e-46b6-9963-61645f706362,rev?*
G04 #@! TF.SameCoordinates,Original*
G04 #@! TF.FileFunction,Legend,Bot*
G04 #@! TF.FilePolarity,Positive*
%FSLAX46Y46*%
G04 Gerber Fmt 4.6, Leading zero omitted, Abs format (unit mm)*
G04 Created by KiCad (PCBNEW 8.0.9-8.0.9-0~ubuntu24.04.1) date 2025-09-04 03:17:17*
%MOMM*%
%LPD*%
G01*
G04 APERTURE LIST*
%ADD10C,0.120000*%
%ADD11C,0.200000*%
%ADD12C,0.099060*%
%ADD13C,0.631031*%
%ADD14C,0.150012*%
G04 APERTURE END LIST*
D10*
G04 #@! TO.C,F7*
X27400000Y55100000D02*
X27400000Y59950000D01*
X29400000Y55100000D02*
X29400000Y59950000D01*
X27400000Y59950000D02*
G75*
G02*
X29400000Y59950000I1000000J0D01*
G01*
X29400000Y55050000D02*
G75*
G02*
X27400000Y55050000I-1000000J0D01*
G01*
D11*
G04 #@! TO.C,M1*
X33000000Y3700000D02*
X33000000Y37500010D01*
X68799990Y37500010D02*
X33000000Y37500010D01*
X68799990Y3700000D02*
X33000000Y3700000D01*
X68799990Y3700000D02*
X68799990Y37500010D01*
D10*
G04 #@! TO.C,F5*
X21500000Y55100000D02*
X21500000Y59950000D01*
X23500000Y55100000D02*
X23500000Y59950000D01*
X21500000Y59950000D02*
G75*
G02*
X23500000Y59950000I1000000J0D01*
G01*
X23500000Y55050000D02*
G75*
G02*
X21500000Y55050000I-1000000J0D01*
G01*
D12*
G04 #@! TO.C,R16*
X24076000Y1100000D02*
X25092000Y1100000D01*
X25092000Y2700000D02*
X24076000Y2700000D01*
X26108000Y1100000D02*
X27124000Y1100000D01*
X27124000Y2700000D02*
X26108000Y2700000D01*
D10*
X24021000Y1098362D02*
G75*
G02*
X24025000Y2700000I-326000J801638D01*
G01*
X27175000Y2700000D02*
G75*
G02*
X27183602Y1096505I330000J-800000D01*
G01*
G04 #@! TO.C,F4*
X19000000Y55100000D02*
X19000000Y59950000D01*
X21000000Y55100000D02*
X21000000Y59950000D01*
X19000000Y59950000D02*
G75*
G02*
X21000000Y59950000I1000000J0D01*
G01*
X21000000Y55050000D02*
G75*
G02*
X19000000Y55050000I-1000000J0D01*
G01*
G04 #@! TO.C,F6*
X25000000Y55100000D02*
X25000000Y59950000D01*
X27000000Y55100000D02*
X27000000Y59950000D01*
X25000000Y59950000D02*
G75*
G02*
X27000000Y59950000I1000000J0D01*
G01*
X27000000Y55050000D02*
G75*
G02*
X25000000Y55050000I-1000000J0D01*
G01*
D11*
G04 #@! TO.C,M2*
X11362500Y37600000D02*
X11362500Y32500000D01*
X11962500Y28000000D02*
X26362500Y28000000D01*
X26362500Y37600000D02*
X11362500Y37600000D01*
X26362500Y37600000D02*
X26362500Y36300000D01*
X26362500Y28000000D02*
X26362500Y34400000D01*
G04 #@! TO.C,M3*
X11424999Y17824999D02*
X11424999Y21025002D01*
X11424999Y5724999D02*
X11424999Y16125001D01*
X11424999Y3824999D02*
X11424999Y4124999D01*
X11424999Y3824999D02*
X26824999Y3824999D01*
X12924999Y24424997D02*
X28224998Y24424999D01*
X28224996Y17725001D02*
X28224996Y22525001D01*
X28224996Y11524999D02*
X28224996Y14224999D01*
X28224996Y8825001D02*
X28224996Y9925004D01*
X28224996Y5274999D02*
X28225001Y6824999D01*
X28224998Y24125001D02*
X28224998Y24424999D01*
G04 #@! TO.C,C6*
X14600079Y53314993D02*
X13600079Y53314993D01*
G04 #@! TO.C,C11*
X10650015Y53300000D02*
X9650015Y53300000D01*
G04 #@! TO.C,C4*
X9650015Y56730002D02*
X10650015Y56730002D01*
G04 #@! TO.C,C18*
X9900000Y47600000D02*
X10900000Y47600000D01*
G04 #@! TO.C,U1*
X52075000Y53812500D02*
X53005000Y53812500D01*
X52075000Y41112500D02*
X52075000Y53812500D01*
X53005000Y41112500D02*
X52075000Y41112500D01*
D13*
X59694751Y47848500D02*
X59694751Y47848500D01*
X59694751Y47848500D02*
X59694751Y47157937D01*
X59694751Y47157937D02*
X59694751Y47157937D01*
X59694751Y47157937D02*
X59699259Y46979644D01*
X59699259Y48026794D02*
X59694751Y47848500D01*
X59699259Y46979644D02*
X59712639Y46803690D01*
X59712639Y48202747D02*
X59699259Y48026794D01*
X59712639Y46803690D02*
X59734673Y46630295D01*
X59734673Y48376143D02*
X59712639Y48202747D01*
X59734673Y46630295D02*
X59765142Y46459676D01*
X59765142Y48546762D02*
X59734673Y48376143D01*
X59765142Y46459676D02*
X59803830Y46292050D01*
X59803830Y48714387D02*
X59765142Y48546762D01*
X59803830Y46292050D02*
X59850518Y46127636D01*
X59850518Y48878801D02*
X59803830Y48714387D01*
X59850518Y46127636D02*
X59904989Y45966651D01*
X59904989Y49039787D02*
X59850518Y48878801D01*
X59904989Y45966651D02*
X59967026Y45809313D01*
X59967026Y49197125D02*
X59904989Y49039787D01*
X59967026Y45809313D02*
X60036410Y45655839D01*
X60036410Y49350599D02*
X59967026Y49197125D01*
X60036410Y45655839D02*
X60112924Y45506447D01*
X60112924Y49499991D02*
X60036410Y49350599D01*
X60112924Y45506447D02*
X60196350Y45361355D01*
X60196350Y49645083D02*
X60112924Y49499991D01*
X60196350Y45361355D02*
X60286471Y45220780D01*
X60286471Y49785657D02*
X60196350Y49645083D01*
X60286471Y45220780D02*
X60383068Y45084941D01*
X60383068Y49921497D02*
X60286471Y49785657D01*
X60383068Y45084941D02*
X60485924Y44954055D01*
X60485924Y50052383D02*
X60383068Y49921497D01*
X60485924Y44954055D02*
X60594822Y44828339D01*
X60594822Y50178099D02*
X60485924Y50052383D01*
X60594822Y44828339D02*
X60709544Y44708012D01*
X60709544Y50298426D02*
X60594822Y50178099D01*
X60709544Y44708012D02*
X60829871Y44593290D01*
X60829871Y50413148D02*
X60709544Y50298426D01*
X60829871Y44593290D02*
X60955587Y44484392D01*
X60955587Y50522046D02*
X60829871Y50413148D01*
X60955587Y44484392D02*
X61086473Y44381536D01*
X61086473Y50624902D02*
X60955587Y50522046D01*
X61086473Y44381536D02*
X61222312Y44284938D01*
X61222312Y50721499D02*
X61086473Y50624902D01*
X61222312Y44284938D02*
X61362887Y44194818D01*
X61362887Y50811620D02*
X61222312Y50721499D01*
X61362887Y44194818D02*
X61507979Y44111392D01*
X61507979Y50895046D02*
X61362887Y50811620D01*
X61507979Y44111392D02*
X61657371Y44034878D01*
X61611657Y47443687D02*
X61611657Y47443687D01*
X61611657Y47443687D02*
X69184031Y47443687D01*
X61657371Y50971560D02*
X61507979Y50895046D01*
X61657371Y44034878D02*
X61810844Y43965494D01*
X61810844Y51040944D02*
X61657371Y50971560D01*
X61810844Y43965494D02*
X61968183Y43903457D01*
X61968183Y51102981D02*
X61810844Y51040944D01*
X61968183Y43903457D02*
X62129168Y43848986D01*
X62129168Y51157452D02*
X61968183Y51102981D01*
X62129168Y43848986D02*
X62293582Y43802298D01*
X62293582Y51204140D02*
X62129168Y51157452D01*
X62293582Y43802298D02*
X62461208Y43763610D01*
X62461208Y51242828D02*
X62293582Y51204140D01*
X62461208Y43763610D02*
X62631827Y43733140D01*
X62631827Y51273297D02*
X62461208Y51242828D01*
X62631827Y43733140D02*
X62805222Y43711107D01*
X62805222Y51295331D02*
X62631827Y51273297D01*
X62805222Y43711107D02*
X62981175Y43697727D01*
X62981175Y51308711D02*
X62805222Y51295331D01*
X62981175Y43697727D02*
X63159469Y43693219D01*
X63159469Y51313219D02*
X62981175Y51308711D01*
X63159469Y51313219D02*
X63159469Y51313219D01*
X63159469Y43693219D02*
X63159469Y43693219D01*
X63159469Y43693219D02*
X67850532Y43693219D01*
X63730969Y49193906D02*
X61611657Y47443687D01*
X63730969Y49193906D02*
X63730969Y49193906D01*
X67159969Y49193906D02*
X63600000Y45562500D01*
X67159969Y49193906D02*
X67159969Y49193906D01*
X67386188Y45562500D02*
X63730969Y49193906D01*
X67850532Y51313219D02*
X63159469Y51313219D01*
X67850532Y51313219D02*
X67850532Y51313219D01*
X67850532Y43693219D02*
X67850532Y43693219D01*
X67850532Y43693219D02*
X68028825Y43697727D01*
X68028825Y51308711D02*
X67850532Y51313219D01*
X68028825Y43697727D02*
X68204779Y43711107D01*
X68204779Y51295331D02*
X68028825Y51308711D01*
X68204779Y43711107D02*
X68378174Y43733140D01*
X68378174Y51273297D02*
X68204779Y51295331D01*
X68378174Y43733140D02*
X68548793Y43763610D01*
X68548793Y51242828D02*
X68378174Y51273297D01*
X68548793Y43763610D02*
X68716419Y43802298D01*
X68716419Y51204140D02*
X68548793Y51242828D01*
X68716419Y43802298D02*
X68880833Y43848986D01*
X68880833Y51157452D02*
X68716419Y51204140D01*
X68880833Y43848986D02*
X69041818Y43903457D01*
X69041818Y51102981D02*
X68880833Y51157452D01*
X69041818Y43903457D02*
X69199156Y43965494D01*
X69184031Y47443687D02*
X67159969Y49193906D01*
X69184031Y47443687D02*
X69184031Y47443687D01*
X69199156Y51040944D02*
X69041818Y51102981D01*
X69199156Y43965494D02*
X69352630Y44034878D01*
X69352630Y50971560D02*
X69199156Y51040944D01*
X69352630Y44034878D02*
X69502022Y44111392D01*
X69502022Y50895046D02*
X69352630Y50971560D01*
X69502022Y44111392D02*
X69647114Y44194818D01*
X69647114Y50811620D02*
X69502022Y50895046D01*
X69647114Y44194818D02*
X69787689Y44284938D01*
X69787689Y50721499D02*
X69647114Y50811620D01*
X69787689Y44284938D02*
X69923528Y44381536D01*
X69923528Y50624902D02*
X69787689Y50721499D01*
X69923528Y44381536D02*
X70054414Y44484392D01*
X70054414Y50522046D02*
X69923528Y50624902D01*
X70054414Y44484392D02*
X70180130Y44593290D01*
X70180130Y50413148D02*
X70054414Y50522046D01*
X70180130Y44593290D02*
X70300457Y44708012D01*
X70300457Y50298426D02*
X70180130Y50413148D01*
X70300457Y44708012D02*
X70415179Y44828339D01*
X70415179Y50178099D02*
X70300457Y50298426D01*
X70415179Y44828339D02*
X70524077Y44954055D01*
X70524077Y50052383D02*
X70415179Y50178099D01*
X70524077Y44954055D02*
X70626933Y45084941D01*
X70626933Y49921497D02*
X70524077Y50052383D01*
X70626933Y45084941D02*
X70723531Y45220780D01*
X70723531Y49785657D02*
X70626933Y49921497D01*
X70723531Y45220780D02*
X70813651Y45361355D01*
X70813651Y49645083D02*
X70723531Y49785657D01*
X70813651Y45361355D02*
X70897077Y45506447D01*
X70897077Y49499991D02*
X70813651Y49645083D01*
X70897077Y45506447D02*
X70973591Y45655839D01*
X70973591Y49350599D02*
X70897077Y49499991D01*
X70973591Y45655839D02*
X71042975Y45809313D01*
X71042975Y49197125D02*
X70973591Y49350599D01*
X71042975Y45809313D02*
X71105012Y45966651D01*
X71105012Y49039787D02*
X71042975Y49197125D01*
X71105012Y45966651D02*
X71159483Y46127636D01*
X71159483Y48878801D02*
X71105012Y49039787D01*
X71159483Y46127636D02*
X71206171Y46292050D01*
X71206171Y48714387D02*
X71159483Y48878801D01*
X71206171Y46292050D02*
X71244859Y46459676D01*
X71244859Y48546762D02*
X71206171Y48714387D01*
X71244859Y46459676D02*
X71275329Y46630295D01*
X71275329Y48376143D02*
X71244859Y48546762D01*
X71275329Y46630295D02*
X71297362Y46803690D01*
X71297362Y48202747D02*
X71275329Y48376143D01*
X71297362Y46803690D02*
X71310742Y46979644D01*
X71310742Y48026794D02*
X71297362Y48202747D01*
X71310742Y46979644D02*
X71315250Y47157937D01*
X71315250Y47848500D02*
X71310742Y48026794D01*
X71315250Y47848500D02*
X71315250Y47848500D01*
X71315250Y47157937D02*
X71315250Y47848500D01*
X71315250Y47157937D02*
X71315250Y47157937D01*
X71315250Y47157937D02*
X71315250Y47157937D01*
D11*
X72645000Y41112500D02*
X79325000Y41112500D01*
X79325000Y53812500D02*
X72645000Y53812500D01*
X79325000Y41112500D02*
X79325000Y53812500D01*
X72100000Y39462500D02*
G75*
G02*
X71900000Y39462500I-100000J0D01*
G01*
X71900000Y39462500D02*
G75*
G02*
X72100000Y39462500I100000J0D01*
G01*
G04 #@! TO.C,C28*
X54600000Y39150014D02*
X54600000Y39899999D01*
G04 #@! TO.C,C25*
X10900000Y44169998D02*
X9900000Y44169998D01*
G04 #@! TO.C,C24*
X8950015Y44169998D02*
X7950015Y44169998D01*
G04 #@! TO.C,C9*
X6750045Y53300000D02*
X5750045Y53300000D01*
G04 #@! TO.C,C12*
X12600000Y53300000D02*
X11600000Y53300000D01*
G04 #@! TO.C,C10*
X8700030Y53300000D02*
X7700030Y53300000D01*
G04 #@! TO.C,C8*
X15500079Y56730002D02*
X16500079Y56730002D01*
G04 #@! TO.C,C16*
X6000030Y47600000D02*
X7000030Y47600000D01*
G04 #@! TO.C,C23*
X7000030Y44169998D02*
X6000030Y44169998D01*
G04 #@! TO.C,C20*
X13799970Y47600000D02*
X14799970Y47600000D01*
D14*
G04 #@! TO.C,BT1*
X27588000Y44535890D02*
X28788302Y44535890D01*
X27588000Y41379864D02*
X27588000Y44535890D01*
X27588000Y41379864D02*
X32468889Y41379864D01*
X36224000Y44688316D02*
X38256000Y44688316D01*
X36931110Y41379864D02*
X41812000Y41379864D01*
X37240000Y51419316D02*
X37240000Y52943316D01*
X37240000Y43672316D02*
X37240000Y45704316D01*
X40870600Y44535890D02*
X41812000Y44535890D01*
X41812000Y41379864D02*
X41812000Y44535890D01*
X32402548Y41784487D02*
G75*
G02*
X32576081Y55471406I2297434J6815431D01*
G01*
X36854049Y55517531D02*
G75*
G02*
X36875107Y41688883I-2154015J-6917620D01*
G01*
D11*
G04 #@! TO.C,C15*
X14800000Y44100000D02*
X13800000Y44100000D01*
G04 #@! TO.C,C22*
X15600000Y47600000D02*
X16600000Y47600000D01*
G04 #@! TO.C,C19*
X11849985Y47600000D02*
X12849985Y47600000D01*
G04 #@! TO.C,C21*
X12800000Y44100000D02*
X11800000Y44100000D01*
G04 #@! TO.C,C2*
X5750045Y56730002D02*
X6750045Y56730002D01*
G04 #@! TO.C,C5*
X11600000Y56730002D02*
X12600000Y56730002D01*
G04 #@! TO.C,C3*
X7700030Y56730002D02*
X8700030Y56730002D01*
G04 #@! TO.C,C7*
X13600079Y56714993D02*
X14600079Y56714993D01*
G04 #@! TO.C,C17*
X7950015Y47600000D02*
X8950015Y47600000D01*
G04 #@! TD*
M02*
