G04 #@! TF.GenerationSoftware,KiCad,Pcbnew,8.0.9-8.0.9-0~ubuntu24.04.1*
G04 #@! TF.CreationDate,2025-11-11T04:04:05+00:00*
G04 #@! TF.ProjectId,PROLT,50524f4c-542e-46b6-9963-61645f706362,rev?*
G04 #@! TF.SameCoordinates,Original*
G04 #@! TF.FileFunction,Paste,Bot*
G04 #@! TF.FilePolarity,Positive*
%FSLAX46Y46*%
G04 Gerber Fmt 4.6, Leading zero omitted, Abs format (unit mm)*
G04 Created by KiCad (PCBNEW 8.0.9-8.0.9-0~ubuntu24.04.1) date 2025-11-11 04:04:05*
%MOMM*%
%LPD*%
G01*
G04 APERTURE LIST*
%ADD10R,2.299995X4.399991*%
%ADD11R,2.299995X3.999992*%
G04 APERTURE END LIST*
G04 #@! TO.C,C6*
G36*
G01*
X14625079Y51814993D02*
X13575079Y51814993D01*
G75*
G02*
X13475079Y51914993I0J100000D01*
G01*
X13475079Y52714993D01*
G75*
G02*
X13575079Y52814993I100000J0D01*
G01*
X14625079Y52814993D01*
G75*
G02*
X14725079Y52714993I0J-100000D01*
G01*
X14725079Y51914993D01*
G75*
G02*
X14625079Y51814993I-100000J0D01*
G01*
G37*
G36*
G01*
X14625079Y53814993D02*
X13575079Y53814993D01*
G75*
G02*
X13475079Y53914993I0J100000D01*
G01*
X13475079Y54714993D01*
G75*
G02*
X13575079Y54814993I100000J0D01*
G01*
X14625079Y54814993D01*
G75*
G02*
X14725079Y54714993I0J-100000D01*
G01*
X14725079Y53914993D01*
G75*
G02*
X14625079Y53814993I-100000J0D01*
G01*
G37*
G04 #@! TD*
G04 #@! TO.C,C11*
G36*
G01*
X10675015Y51800000D02*
X9625015Y51800000D01*
G75*
G02*
X9525015Y51900000I0J100000D01*
G01*
X9525015Y52700000D01*
G75*
G02*
X9625015Y52800000I100000J0D01*
G01*
X10675015Y52800000D01*
G75*
G02*
X10775015Y52700000I0J-100000D01*
G01*
X10775015Y51900000D01*
G75*
G02*
X10675015Y51800000I-100000J0D01*
G01*
G37*
G36*
G01*
X10675015Y53800000D02*
X9625015Y53800000D01*
G75*
G02*
X9525015Y53900000I0J100000D01*
G01*
X9525015Y54700000D01*
G75*
G02*
X9625015Y54800000I100000J0D01*
G01*
X10675015Y54800000D01*
G75*
G02*
X10775015Y54700000I0J-100000D01*
G01*
X10775015Y53900000D01*
G75*
G02*
X10675015Y53800000I-100000J0D01*
G01*
G37*
G04 #@! TD*
G04 #@! TO.C,C4*
G36*
G01*
X9625015Y58230002D02*
X10675015Y58230002D01*
G75*
G02*
X10775015Y58130002I0J-100000D01*
G01*
X10775015Y57330002D01*
G75*
G02*
X10675015Y57230002I-100000J0D01*
G01*
X9625015Y57230002D01*
G75*
G02*
X9525015Y57330002I0J100000D01*
G01*
X9525015Y58130002D01*
G75*
G02*
X9625015Y58230002I100000J0D01*
G01*
G37*
G36*
G01*
X9625015Y56230002D02*
X10675015Y56230002D01*
G75*
G02*
X10775015Y56130002I0J-100000D01*
G01*
X10775015Y55330002D01*
G75*
G02*
X10675015Y55230002I-100000J0D01*
G01*
X9625015Y55230002D01*
G75*
G02*
X9525015Y55330002I0J100000D01*
G01*
X9525015Y56130002D01*
G75*
G02*
X9625015Y56230002I100000J0D01*
G01*
G37*
G04 #@! TD*
G04 #@! TO.C,C18*
G36*
G01*
X9875000Y49100000D02*
X10925000Y49100000D01*
G75*
G02*
X11025000Y49000000I0J-100000D01*
G01*
X11025000Y48200000D01*
G75*
G02*
X10925000Y48100000I-100000J0D01*
G01*
X9875000Y48100000D01*
G75*
G02*
X9775000Y48200000I0J100000D01*
G01*
X9775000Y49000000D01*
G75*
G02*
X9875000Y49100000I100000J0D01*
G01*
G37*
G36*
G01*
X9875000Y47100000D02*
X10925000Y47100000D01*
G75*
G02*
X11025000Y47000000I0J-100000D01*
G01*
X11025000Y46200000D01*
G75*
G02*
X10925000Y46100000I-100000J0D01*
G01*
X9875000Y46100000D01*
G75*
G02*
X9775000Y46200000I0J100000D01*
G01*
X9775000Y47000000D01*
G75*
G02*
X9875000Y47100000I100000J0D01*
G01*
G37*
G04 #@! TD*
G04 #@! TO.C,C25*
G36*
G01*
X10925000Y42669998D02*
X9875000Y42669998D01*
G75*
G02*
X9775000Y42769998I0J100000D01*
G01*
X9775000Y43569998D01*
G75*
G02*
X9875000Y43669998I100000J0D01*
G01*
X10925000Y43669998D01*
G75*
G02*
X11025000Y43569998I0J-100000D01*
G01*
X11025000Y42769998D01*
G75*
G02*
X10925000Y42669998I-100000J0D01*
G01*
G37*
G36*
G01*
X10925000Y44669998D02*
X9875000Y44669998D01*
G75*
G02*
X9775000Y44769998I0J100000D01*
G01*
X9775000Y45569998D01*
G75*
G02*
X9875000Y45669998I100000J0D01*
G01*
X10925000Y45669998D01*
G75*
G02*
X11025000Y45569998I0J-100000D01*
G01*
X11025000Y44769998D01*
G75*
G02*
X10925000Y44669998I-100000J0D01*
G01*
G37*
G04 #@! TD*
G04 #@! TO.C,C24*
G36*
G01*
X8975015Y42669998D02*
X7925015Y42669998D01*
G75*
G02*
X7825015Y42769998I0J100000D01*
G01*
X7825015Y43569998D01*
G75*
G02*
X7925015Y43669998I100000J0D01*
G01*
X8975015Y43669998D01*
G75*
G02*
X9075015Y43569998I0J-100000D01*
G01*
X9075015Y42769998D01*
G75*
G02*
X8975015Y42669998I-100000J0D01*
G01*
G37*
G36*
G01*
X8975015Y44669998D02*
X7925015Y44669998D01*
G75*
G02*
X7825015Y44769998I0J100000D01*
G01*
X7825015Y45569998D01*
G75*
G02*
X7925015Y45669998I100000J0D01*
G01*
X8975015Y45669998D01*
G75*
G02*
X9075015Y45569998I0J-100000D01*
G01*
X9075015Y44769998D01*
G75*
G02*
X8975015Y44669998I-100000J0D01*
G01*
G37*
G04 #@! TD*
G04 #@! TO.C,R4*
G36*
G01*
X59110000Y52135000D02*
X59890000Y52135000D01*
G75*
G02*
X59960000Y52065000I0J-70000D01*
G01*
X59960000Y51505000D01*
G75*
G02*
X59890000Y51435000I-70000J0D01*
G01*
X59110000Y51435000D01*
G75*
G02*
X59040000Y51505000I0J70000D01*
G01*
X59040000Y52065000D01*
G75*
G02*
X59110000Y52135000I70000J0D01*
G01*
G37*
G36*
G01*
X59110000Y50535000D02*
X59890000Y50535000D01*
G75*
G02*
X59960000Y50465000I0J-70000D01*
G01*
X59960000Y49905000D01*
G75*
G02*
X59890000Y49835000I-70000J0D01*
G01*
X59110000Y49835000D01*
G75*
G02*
X59040000Y49905000I0J70000D01*
G01*
X59040000Y50465000D01*
G75*
G02*
X59110000Y50535000I70000J0D01*
G01*
G37*
G04 #@! TD*
G04 #@! TO.C,C9*
G36*
G01*
X6775045Y51800000D02*
X5725045Y51800000D01*
G75*
G02*
X5625045Y51900000I0J100000D01*
G01*
X5625045Y52700000D01*
G75*
G02*
X5725045Y52800000I100000J0D01*
G01*
X6775045Y52800000D01*
G75*
G02*
X6875045Y52700000I0J-100000D01*
G01*
X6875045Y51900000D01*
G75*
G02*
X6775045Y51800000I-100000J0D01*
G01*
G37*
G36*
G01*
X6775045Y53800000D02*
X5725045Y53800000D01*
G75*
G02*
X5625045Y53900000I0J100000D01*
G01*
X5625045Y54700000D01*
G75*
G02*
X5725045Y54800000I100000J0D01*
G01*
X6775045Y54800000D01*
G75*
G02*
X6875045Y54700000I0J-100000D01*
G01*
X6875045Y53900000D01*
G75*
G02*
X6775045Y53800000I-100000J0D01*
G01*
G37*
G04 #@! TD*
G04 #@! TO.C,Q4*
G36*
G01*
X57930000Y49960000D02*
X57230000Y49960000D01*
G75*
G02*
X56980000Y50210000I0J250000D01*
G01*
X56980000Y51910000D01*
G75*
G02*
X57230000Y52160000I250000J0D01*
G01*
X57930000Y52160000D01*
G75*
G02*
X58180000Y51910000I0J-250000D01*
G01*
X58180000Y50210000D01*
G75*
G02*
X57930000Y49960000I-250000J0D01*
G01*
G37*
G36*
G01*
X54900000Y54160000D02*
X52650000Y54160000D01*
G75*
G02*
X52400000Y54410000I0J250000D01*
G01*
X52400000Y56960000D01*
G75*
G02*
X52650000Y57210000I250000J0D01*
G01*
X54900000Y57210000D01*
G75*
G02*
X55150000Y56960000I0J-250000D01*
G01*
X55150000Y54410000D01*
G75*
G02*
X54900000Y54160000I-250000J0D01*
G01*
G37*
G36*
G01*
X57950000Y54160000D02*
X55700000Y54160000D01*
G75*
G02*
X55450000Y54410000I0J250000D01*
G01*
X55450000Y56960000D01*
G75*
G02*
X55700000Y57210000I250000J0D01*
G01*
X57950000Y57210000D01*
G75*
G02*
X58200000Y56960000I0J-250000D01*
G01*
X58200000Y54410000D01*
G75*
G02*
X57950000Y54160000I-250000J0D01*
G01*
G37*
G36*
G01*
X54900000Y57510000D02*
X52650000Y57510000D01*
G75*
G02*
X52400000Y57760000I0J250000D01*
G01*
X52400000Y60310000D01*
G75*
G02*
X52650000Y60560000I250000J0D01*
G01*
X54900000Y60560000D01*
G75*
G02*
X55150000Y60310000I0J-250000D01*
G01*
X55150000Y57760000D01*
G75*
G02*
X54900000Y57510000I-250000J0D01*
G01*
G37*
G36*
G01*
X57950000Y57510000D02*
X55700000Y57510000D01*
G75*
G02*
X55450000Y57760000I0J250000D01*
G01*
X55450000Y60310000D01*
G75*
G02*
X55700000Y60560000I250000J0D01*
G01*
X57950000Y60560000D01*
G75*
G02*
X58200000Y60310000I0J-250000D01*
G01*
X58200000Y57760000D01*
G75*
G02*
X57950000Y57510000I-250000J0D01*
G01*
G37*
G36*
G01*
X53370000Y49960000D02*
X52670000Y49960000D01*
G75*
G02*
X52420000Y50210000I0J250000D01*
G01*
X52420000Y51910000D01*
G75*
G02*
X52670000Y52160000I250000J0D01*
G01*
X53370000Y52160000D01*
G75*
G02*
X53620000Y51910000I0J-250000D01*
G01*
X53620000Y50210000D01*
G75*
G02*
X53370000Y49960000I-250000J0D01*
G01*
G37*
G04 #@! TD*
G04 #@! TO.C,C12*
G36*
G01*
X12625000Y51800000D02*
X11575000Y51800000D01*
G75*
G02*
X11475000Y51900000I0J100000D01*
G01*
X11475000Y52700000D01*
G75*
G02*
X11575000Y52800000I100000J0D01*
G01*
X12625000Y52800000D01*
G75*
G02*
X12725000Y52700000I0J-100000D01*
G01*
X12725000Y51900000D01*
G75*
G02*
X12625000Y51800000I-100000J0D01*
G01*
G37*
G36*
G01*
X12625000Y53800000D02*
X11575000Y53800000D01*
G75*
G02*
X11475000Y53900000I0J100000D01*
G01*
X11475000Y54700000D01*
G75*
G02*
X11575000Y54800000I100000J0D01*
G01*
X12625000Y54800000D01*
G75*
G02*
X12725000Y54700000I0J-100000D01*
G01*
X12725000Y53900000D01*
G75*
G02*
X12625000Y53800000I-100000J0D01*
G01*
G37*
G04 #@! TD*
G04 #@! TO.C,C10*
G36*
G01*
X8725030Y51800000D02*
X7675030Y51800000D01*
G75*
G02*
X7575030Y51900000I0J100000D01*
G01*
X7575030Y52700000D01*
G75*
G02*
X7675030Y52800000I100000J0D01*
G01*
X8725030Y52800000D01*
G75*
G02*
X8825030Y52700000I0J-100000D01*
G01*
X8825030Y51900000D01*
G75*
G02*
X8725030Y51800000I-100000J0D01*
G01*
G37*
G36*
G01*
X8725030Y53800000D02*
X7675030Y53800000D01*
G75*
G02*
X7575030Y53900000I0J100000D01*
G01*
X7575030Y54700000D01*
G75*
G02*
X7675030Y54800000I100000J0D01*
G01*
X8725030Y54800000D01*
G75*
G02*
X8825030Y54700000I0J-100000D01*
G01*
X8825030Y53900000D01*
G75*
G02*
X8725030Y53800000I-100000J0D01*
G01*
G37*
G04 #@! TD*
G04 #@! TO.C,C8*
G36*
G01*
X15475079Y58230002D02*
X16525079Y58230002D01*
G75*
G02*
X16625079Y58130002I0J-100000D01*
G01*
X16625079Y57330002D01*
G75*
G02*
X16525079Y57230002I-100000J0D01*
G01*
X15475079Y57230002D01*
G75*
G02*
X15375079Y57330002I0J100000D01*
G01*
X15375079Y58130002D01*
G75*
G02*
X15475079Y58230002I100000J0D01*
G01*
G37*
G36*
G01*
X15475079Y56230002D02*
X16525079Y56230002D01*
G75*
G02*
X16625079Y56130002I0J-100000D01*
G01*
X16625079Y55330002D01*
G75*
G02*
X16525079Y55230002I-100000J0D01*
G01*
X15475079Y55230002D01*
G75*
G02*
X15375079Y55330002I0J100000D01*
G01*
X15375079Y56130002D01*
G75*
G02*
X15475079Y56230002I100000J0D01*
G01*
G37*
G04 #@! TD*
G04 #@! TO.C,C16*
G36*
G01*
X5975030Y49100000D02*
X7025030Y49100000D01*
G75*
G02*
X7125030Y49000000I0J-100000D01*
G01*
X7125030Y48200000D01*
G75*
G02*
X7025030Y48100000I-100000J0D01*
G01*
X5975030Y48100000D01*
G75*
G02*
X5875030Y48200000I0J100000D01*
G01*
X5875030Y49000000D01*
G75*
G02*
X5975030Y49100000I100000J0D01*
G01*
G37*
G36*
G01*
X5975030Y47100000D02*
X7025030Y47100000D01*
G75*
G02*
X7125030Y47000000I0J-100000D01*
G01*
X7125030Y46200000D01*
G75*
G02*
X7025030Y46100000I-100000J0D01*
G01*
X5975030Y46100000D01*
G75*
G02*
X5875030Y46200000I0J100000D01*
G01*
X5875030Y47000000D01*
G75*
G02*
X5975030Y47100000I100000J0D01*
G01*
G37*
G04 #@! TD*
G04 #@! TO.C,C23*
G36*
G01*
X7025030Y42669998D02*
X5975030Y42669998D01*
G75*
G02*
X5875030Y42769998I0J100000D01*
G01*
X5875030Y43569998D01*
G75*
G02*
X5975030Y43669998I100000J0D01*
G01*
X7025030Y43669998D01*
G75*
G02*
X7125030Y43569998I0J-100000D01*
G01*
X7125030Y42769998D01*
G75*
G02*
X7025030Y42669998I-100000J0D01*
G01*
G37*
G36*
G01*
X7025030Y44669998D02*
X5975030Y44669998D01*
G75*
G02*
X5875030Y44769998I0J100000D01*
G01*
X5875030Y45569998D01*
G75*
G02*
X5975030Y45669998I100000J0D01*
G01*
X7025030Y45669998D01*
G75*
G02*
X7125030Y45569998I0J-100000D01*
G01*
X7125030Y44769998D01*
G75*
G02*
X7025030Y44669998I-100000J0D01*
G01*
G37*
G04 #@! TD*
G04 #@! TO.C,C20*
G36*
G01*
X13774970Y49100000D02*
X14824970Y49100000D01*
G75*
G02*
X14924970Y49000000I0J-100000D01*
G01*
X14924970Y48200000D01*
G75*
G02*
X14824970Y48100000I-100000J0D01*
G01*
X13774970Y48100000D01*
G75*
G02*
X13674970Y48200000I0J100000D01*
G01*
X13674970Y49000000D01*
G75*
G02*
X13774970Y49100000I100000J0D01*
G01*
G37*
G36*
G01*
X13774970Y47100000D02*
X14824970Y47100000D01*
G75*
G02*
X14924970Y47000000I0J-100000D01*
G01*
X14924970Y46200000D01*
G75*
G02*
X14824970Y46100000I-100000J0D01*
G01*
X13774970Y46100000D01*
G75*
G02*
X13674970Y46200000I0J100000D01*
G01*
X13674970Y47000000D01*
G75*
G02*
X13774970Y47100000I100000J0D01*
G01*
G37*
G04 #@! TD*
D10*
G04 #@! TO.C,BT1*
X34700000Y40599906D03*
D11*
X34700000Y56599925D03*
G04 #@! TD*
G04 #@! TO.C,R3*
G36*
G01*
X50687500Y52125000D02*
X51467500Y52125000D01*
G75*
G02*
X51537500Y52055000I0J-70000D01*
G01*
X51537500Y51495000D01*
G75*
G02*
X51467500Y51425000I-70000J0D01*
G01*
X50687500Y51425000D01*
G75*
G02*
X50617500Y51495000I0J70000D01*
G01*
X50617500Y52055000D01*
G75*
G02*
X50687500Y52125000I70000J0D01*
G01*
G37*
G36*
G01*
X50687500Y50525000D02*
X51467500Y50525000D01*
G75*
G02*
X51537500Y50455000I0J-70000D01*
G01*
X51537500Y49895000D01*
G75*
G02*
X51467500Y49825000I-70000J0D01*
G01*
X50687500Y49825000D01*
G75*
G02*
X50617500Y49895000I0J70000D01*
G01*
X50617500Y50455000D01*
G75*
G02*
X50687500Y50525000I70000J0D01*
G01*
G37*
G04 #@! TD*
G04 #@! TO.C,C15*
G36*
G01*
X14825000Y42600000D02*
X13775000Y42600000D01*
G75*
G02*
X13675000Y42700000I0J100000D01*
G01*
X13675000Y43500000D01*
G75*
G02*
X13775000Y43600000I100000J0D01*
G01*
X14825000Y43600000D01*
G75*
G02*
X14925000Y43500000I0J-100000D01*
G01*
X14925000Y42700000D01*
G75*
G02*
X14825000Y42600000I-100000J0D01*
G01*
G37*
G36*
G01*
X14825000Y44600000D02*
X13775000Y44600000D01*
G75*
G02*
X13675000Y44700000I0J100000D01*
G01*
X13675000Y45500000D01*
G75*
G02*
X13775000Y45600000I100000J0D01*
G01*
X14825000Y45600000D01*
G75*
G02*
X14925000Y45500000I0J-100000D01*
G01*
X14925000Y44700000D01*
G75*
G02*
X14825000Y44600000I-100000J0D01*
G01*
G37*
G04 #@! TD*
G04 #@! TO.C,C22*
G36*
G01*
X15575000Y49100000D02*
X16625000Y49100000D01*
G75*
G02*
X16725000Y49000000I0J-100000D01*
G01*
X16725000Y48200000D01*
G75*
G02*
X16625000Y48100000I-100000J0D01*
G01*
X15575000Y48100000D01*
G75*
G02*
X15475000Y48200000I0J100000D01*
G01*
X15475000Y49000000D01*
G75*
G02*
X15575000Y49100000I100000J0D01*
G01*
G37*
G36*
G01*
X15575000Y47100000D02*
X16625000Y47100000D01*
G75*
G02*
X16725000Y47000000I0J-100000D01*
G01*
X16725000Y46200000D01*
G75*
G02*
X16625000Y46100000I-100000J0D01*
G01*
X15575000Y46100000D01*
G75*
G02*
X15475000Y46200000I0J100000D01*
G01*
X15475000Y47000000D01*
G75*
G02*
X15575000Y47100000I100000J0D01*
G01*
G37*
G04 #@! TD*
G04 #@! TO.C,C19*
G36*
G01*
X11824985Y49100000D02*
X12874985Y49100000D01*
G75*
G02*
X12974985Y49000000I0J-100000D01*
G01*
X12974985Y48200000D01*
G75*
G02*
X12874985Y48100000I-100000J0D01*
G01*
X11824985Y48100000D01*
G75*
G02*
X11724985Y48200000I0J100000D01*
G01*
X11724985Y49000000D01*
G75*
G02*
X11824985Y49100000I100000J0D01*
G01*
G37*
G36*
G01*
X11824985Y47100000D02*
X12874985Y47100000D01*
G75*
G02*
X12974985Y47000000I0J-100000D01*
G01*
X12974985Y46200000D01*
G75*
G02*
X12874985Y46100000I-100000J0D01*
G01*
X11824985Y46100000D01*
G75*
G02*
X11724985Y46200000I0J100000D01*
G01*
X11724985Y47000000D01*
G75*
G02*
X11824985Y47100000I100000J0D01*
G01*
G37*
G04 #@! TD*
G04 #@! TO.C,C21*
G36*
G01*
X12825000Y42600000D02*
X11775000Y42600000D01*
G75*
G02*
X11675000Y42700000I0J100000D01*
G01*
X11675000Y43500000D01*
G75*
G02*
X11775000Y43600000I100000J0D01*
G01*
X12825000Y43600000D01*
G75*
G02*
X12925000Y43500000I0J-100000D01*
G01*
X12925000Y42700000D01*
G75*
G02*
X12825000Y42600000I-100000J0D01*
G01*
G37*
G36*
G01*
X12825000Y44600000D02*
X11775000Y44600000D01*
G75*
G02*
X11675000Y44700000I0J100000D01*
G01*
X11675000Y45500000D01*
G75*
G02*
X11775000Y45600000I100000J0D01*
G01*
X12825000Y45600000D01*
G75*
G02*
X12925000Y45500000I0J-100000D01*
G01*
X12925000Y44700000D01*
G75*
G02*
X12825000Y44600000I-100000J0D01*
G01*
G37*
G04 #@! TD*
G04 #@! TO.C,Q3*
G36*
G01*
X49505000Y49975000D02*
X48805000Y49975000D01*
G75*
G02*
X48555000Y50225000I0J250000D01*
G01*
X48555000Y51925000D01*
G75*
G02*
X48805000Y52175000I250000J0D01*
G01*
X49505000Y52175000D01*
G75*
G02*
X49755000Y51925000I0J-250000D01*
G01*
X49755000Y50225000D01*
G75*
G02*
X49505000Y49975000I-250000J0D01*
G01*
G37*
G36*
G01*
X46475000Y54175000D02*
X44225000Y54175000D01*
G75*
G02*
X43975000Y54425000I0J250000D01*
G01*
X43975000Y56975000D01*
G75*
G02*
X44225000Y57225000I250000J0D01*
G01*
X46475000Y57225000D01*
G75*
G02*
X46725000Y56975000I0J-250000D01*
G01*
X46725000Y54425000D01*
G75*
G02*
X46475000Y54175000I-250000J0D01*
G01*
G37*
G36*
G01*
X49525000Y54175000D02*
X47275000Y54175000D01*
G75*
G02*
X47025000Y54425000I0J250000D01*
G01*
X47025000Y56975000D01*
G75*
G02*
X47275000Y57225000I250000J0D01*
G01*
X49525000Y57225000D01*
G75*
G02*
X49775000Y56975000I0J-250000D01*
G01*
X49775000Y54425000D01*
G75*
G02*
X49525000Y54175000I-250000J0D01*
G01*
G37*
G36*
G01*
X46475000Y57525000D02*
X44225000Y57525000D01*
G75*
G02*
X43975000Y57775000I0J250000D01*
G01*
X43975000Y60325000D01*
G75*
G02*
X44225000Y60575000I250000J0D01*
G01*
X46475000Y60575000D01*
G75*
G02*
X46725000Y60325000I0J-250000D01*
G01*
X46725000Y57775000D01*
G75*
G02*
X46475000Y57525000I-250000J0D01*
G01*
G37*
G36*
G01*
X49525000Y57525000D02*
X47275000Y57525000D01*
G75*
G02*
X47025000Y57775000I0J250000D01*
G01*
X47025000Y60325000D01*
G75*
G02*
X47275000Y60575000I250000J0D01*
G01*
X49525000Y60575000D01*
G75*
G02*
X49775000Y60325000I0J-250000D01*
G01*
X49775000Y57775000D01*
G75*
G02*
X49525000Y57525000I-250000J0D01*
G01*
G37*
G36*
G01*
X44945000Y49975000D02*
X44245000Y49975000D01*
G75*
G02*
X43995000Y50225000I0J250000D01*
G01*
X43995000Y51925000D01*
G75*
G02*
X44245000Y52175000I250000J0D01*
G01*
X44945000Y52175000D01*
G75*
G02*
X45195000Y51925000I0J-250000D01*
G01*
X45195000Y50225000D01*
G75*
G02*
X44945000Y49975000I-250000J0D01*
G01*
G37*
G04 #@! TD*
G04 #@! TO.C,C2*
G36*
G01*
X5725045Y58230002D02*
X6775045Y58230002D01*
G75*
G02*
X6875045Y58130002I0J-100000D01*
G01*
X6875045Y57330002D01*
G75*
G02*
X6775045Y57230002I-100000J0D01*
G01*
X5725045Y57230002D01*
G75*
G02*
X5625045Y57330002I0J100000D01*
G01*
X5625045Y58130002D01*
G75*
G02*
X5725045Y58230002I100000J0D01*
G01*
G37*
G36*
G01*
X5725045Y56230002D02*
X6775045Y56230002D01*
G75*
G02*
X6875045Y56130002I0J-100000D01*
G01*
X6875045Y55330002D01*
G75*
G02*
X6775045Y55230002I-100000J0D01*
G01*
X5725045Y55230002D01*
G75*
G02*
X5625045Y55330002I0J100000D01*
G01*
X5625045Y56130002D01*
G75*
G02*
X5725045Y56230002I100000J0D01*
G01*
G37*
G04 #@! TD*
G04 #@! TO.C,C5*
G36*
G01*
X11575000Y58230002D02*
X12625000Y58230002D01*
G75*
G02*
X12725000Y58130002I0J-100000D01*
G01*
X12725000Y57330002D01*
G75*
G02*
X12625000Y57230002I-100000J0D01*
G01*
X11575000Y57230002D01*
G75*
G02*
X11475000Y57330002I0J100000D01*
G01*
X11475000Y58130002D01*
G75*
G02*
X11575000Y58230002I100000J0D01*
G01*
G37*
G36*
G01*
X11575000Y56230002D02*
X12625000Y56230002D01*
G75*
G02*
X12725000Y56130002I0J-100000D01*
G01*
X12725000Y55330002D01*
G75*
G02*
X12625000Y55230002I-100000J0D01*
G01*
X11575000Y55230002D01*
G75*
G02*
X11475000Y55330002I0J100000D01*
G01*
X11475000Y56130002D01*
G75*
G02*
X11575000Y56230002I100000J0D01*
G01*
G37*
G04 #@! TD*
G04 #@! TO.C,C3*
G36*
G01*
X7675030Y58230002D02*
X8725030Y58230002D01*
G75*
G02*
X8825030Y58130002I0J-100000D01*
G01*
X8825030Y57330002D01*
G75*
G02*
X8725030Y57230002I-100000J0D01*
G01*
X7675030Y57230002D01*
G75*
G02*
X7575030Y57330002I0J100000D01*
G01*
X7575030Y58130002D01*
G75*
G02*
X7675030Y58230002I100000J0D01*
G01*
G37*
G36*
G01*
X7675030Y56230002D02*
X8725030Y56230002D01*
G75*
G02*
X8825030Y56130002I0J-100000D01*
G01*
X8825030Y55330002D01*
G75*
G02*
X8725030Y55230002I-100000J0D01*
G01*
X7675030Y55230002D01*
G75*
G02*
X7575030Y55330002I0J100000D01*
G01*
X7575030Y56130002D01*
G75*
G02*
X7675030Y56230002I100000J0D01*
G01*
G37*
G04 #@! TD*
G04 #@! TO.C,C7*
G36*
G01*
X13575079Y58214993D02*
X14625079Y58214993D01*
G75*
G02*
X14725079Y58114993I0J-100000D01*
G01*
X14725079Y57314993D01*
G75*
G02*
X14625079Y57214993I-100000J0D01*
G01*
X13575079Y57214993D01*
G75*
G02*
X13475079Y57314993I0J100000D01*
G01*
X13475079Y58114993D01*
G75*
G02*
X13575079Y58214993I100000J0D01*
G01*
G37*
G36*
G01*
X13575079Y56214993D02*
X14625079Y56214993D01*
G75*
G02*
X14725079Y56114993I0J-100000D01*
G01*
X14725079Y55314993D01*
G75*
G02*
X14625079Y55214993I-100000J0D01*
G01*
X13575079Y55214993D01*
G75*
G02*
X13475079Y55314993I0J100000D01*
G01*
X13475079Y56114993D01*
G75*
G02*
X13575079Y56214993I100000J0D01*
G01*
G37*
G04 #@! TD*
G04 #@! TO.C,C17*
G36*
G01*
X7925015Y49100000D02*
X8975015Y49100000D01*
G75*
G02*
X9075015Y49000000I0J-100000D01*
G01*
X9075015Y48200000D01*
G75*
G02*
X8975015Y48100000I-100000J0D01*
G01*
X7925015Y48100000D01*
G75*
G02*
X7825015Y48200000I0J100000D01*
G01*
X7825015Y49000000D01*
G75*
G02*
X7925015Y49100000I100000J0D01*
G01*
G37*
G36*
G01*
X7925015Y47100000D02*
X8975015Y47100000D01*
G75*
G02*
X9075015Y47000000I0J-100000D01*
G01*
X9075015Y46200000D01*
G75*
G02*
X8975015Y46100000I-100000J0D01*
G01*
X7925015Y46100000D01*
G75*
G02*
X7825015Y46200000I0J100000D01*
G01*
X7825015Y47000000D01*
G75*
G02*
X7925015Y47100000I100000J0D01*
G01*
G37*
G04 #@! TD*
M02*
