G04 #@! TF.GenerationSoftware,KiCad,Pcbnew,8.0.9-8.0.9-0~ubuntu24.04.1*
G04 #@! TF.CreationDate,2025-11-11T04:04:05+00:00*
G04 #@! TF.ProjectId,PROLT,50524f4c-542e-46b6-9963-61645f706362,rev?*
G04 #@! TF.SameCoordinates,Original*
G04 #@! TF.FileFunction,Paste,Top*
G04 #@! TF.FilePolarity,Positive*
%FSLAX46Y46*%
G04 Gerber Fmt 4.6, Leading zero omitted, Abs format (unit mm)*
G04 Created by KiCad (PCBNEW 8.0.9-8.0.9-0~ubuntu24.04.1) date 2025-11-11 04:04:05*
%MOMM*%
%LPD*%
G01*
G04 APERTURE LIST*
%ADD10R,0.650000X1.525000*%
%ADD11R,0.400000X1.650000*%
%ADD12R,1.750000X0.650000*%
%ADD13R,4.300000X7.900000*%
G04 APERTURE END LIST*
G04 #@! TO.C,R9*
G36*
G01*
X38830000Y43823405D02*
X38050000Y43823405D01*
G75*
G02*
X37980000Y43893405I0J70000D01*
G01*
X37980000Y44453405D01*
G75*
G02*
X38050000Y44523405I70000J0D01*
G01*
X38830000Y44523405D01*
G75*
G02*
X38900000Y44453405I0J-70000D01*
G01*
X38900000Y43893405D01*
G75*
G02*
X38830000Y43823405I-70000J0D01*
G01*
G37*
G36*
G01*
X38830000Y45423405D02*
X38050000Y45423405D01*
G75*
G02*
X37980000Y45493405I0J70000D01*
G01*
X37980000Y46053405D01*
G75*
G02*
X38050000Y46123405I70000J0D01*
G01*
X38830000Y46123405D01*
G75*
G02*
X38900000Y46053405I0J-70000D01*
G01*
X38900000Y45493405D01*
G75*
G02*
X38830000Y45423405I-70000J0D01*
G01*
G37*
G04 #@! TD*
G04 #@! TO.C,C1*
G36*
G01*
X62270000Y43734999D02*
X61590000Y43734999D01*
G75*
G02*
X61505000Y43819999I0J85000D01*
G01*
X61505000Y44499999D01*
G75*
G02*
X61590000Y44584999I85000J0D01*
G01*
X62270000Y44584999D01*
G75*
G02*
X62355000Y44499999I0J-85000D01*
G01*
X62355000Y43819999D01*
G75*
G02*
X62270000Y43734999I-85000J0D01*
G01*
G37*
G36*
G01*
X62270000Y45315001D02*
X61590000Y45315001D01*
G75*
G02*
X61505000Y45400001I0J85000D01*
G01*
X61505000Y46080001D01*
G75*
G02*
X61590000Y46165001I85000J0D01*
G01*
X62270000Y46165001D01*
G75*
G02*
X62355000Y46080001I0J-85000D01*
G01*
X62355000Y45400001D01*
G75*
G02*
X62270000Y45315001I-85000J0D01*
G01*
G37*
G04 #@! TD*
G04 #@! TO.C,C26*
G36*
G01*
X1894998Y48160000D02*
X1894998Y48840000D01*
G75*
G02*
X1979998Y48925000I85000J0D01*
G01*
X2659998Y48925000D01*
G75*
G02*
X2744998Y48840000I0J-85000D01*
G01*
X2744998Y48160000D01*
G75*
G02*
X2659998Y48075000I-85000J0D01*
G01*
X1979998Y48075000D01*
G75*
G02*
X1894998Y48160000I0J85000D01*
G01*
G37*
G36*
G01*
X3475000Y48160000D02*
X3475000Y48840000D01*
G75*
G02*
X3560000Y48925000I85000J0D01*
G01*
X4240000Y48925000D01*
G75*
G02*
X4325000Y48840000I0J-85000D01*
G01*
X4325000Y48160000D01*
G75*
G02*
X4240000Y48075000I-85000J0D01*
G01*
X3560000Y48075000D01*
G75*
G02*
X3475000Y48160000I0J85000D01*
G01*
G37*
G04 #@! TD*
G04 #@! TO.C,R15*
G36*
G01*
X71950000Y23490000D02*
X71950000Y22710000D01*
G75*
G02*
X71880000Y22640000I-70000J0D01*
G01*
X71320000Y22640000D01*
G75*
G02*
X71250000Y22710000I0J70000D01*
G01*
X71250000Y23490000D01*
G75*
G02*
X71320000Y23560000I70000J0D01*
G01*
X71880000Y23560000D01*
G75*
G02*
X71950000Y23490000I0J-70000D01*
G01*
G37*
G36*
G01*
X70350000Y23490000D02*
X70350000Y22710000D01*
G75*
G02*
X70280000Y22640000I-70000J0D01*
G01*
X69720000Y22640000D01*
G75*
G02*
X69650000Y22710000I0J70000D01*
G01*
X69650000Y23490000D01*
G75*
G02*
X69720000Y23560000I70000J0D01*
G01*
X70280000Y23560000D01*
G75*
G02*
X70350000Y23490000I0J-70000D01*
G01*
G37*
G04 #@! TD*
G04 #@! TO.C,F7*
G36*
G01*
X27500000Y58605010D02*
X27500000Y59295010D01*
G75*
G02*
X27730000Y59525010I230000J0D01*
G01*
X29070000Y59525010D01*
G75*
G02*
X29300000Y59295010I0J-230000D01*
G01*
X29300000Y58605010D01*
G75*
G02*
X29070000Y58375010I-230000J0D01*
G01*
X27730000Y58375010D01*
G75*
G02*
X27500000Y58605010I0J230000D01*
G01*
G37*
G36*
G01*
X27500000Y55704990D02*
X27500000Y56394990D01*
G75*
G02*
X27730000Y56624990I230000J0D01*
G01*
X29070000Y56624990D01*
G75*
G02*
X29300000Y56394990I0J-230000D01*
G01*
X29300000Y55704990D01*
G75*
G02*
X29070000Y55474990I-230000J0D01*
G01*
X27730000Y55474990D01*
G75*
G02*
X27500000Y55704990I0J230000D01*
G01*
G37*
G04 #@! TD*
G04 #@! TO.C,C29*
G36*
G01*
X55850000Y45575000D02*
X55350000Y45575000D01*
G75*
G02*
X55125000Y45800000I0J225000D01*
G01*
X55125000Y46250000D01*
G75*
G02*
X55350000Y46475000I225000J0D01*
G01*
X55850000Y46475000D01*
G75*
G02*
X56075000Y46250000I0J-225000D01*
G01*
X56075000Y45800000D01*
G75*
G02*
X55850000Y45575000I-225000J0D01*
G01*
G37*
G36*
G01*
X55850000Y47125000D02*
X55350000Y47125000D01*
G75*
G02*
X55125000Y47350000I0J225000D01*
G01*
X55125000Y47800000D01*
G75*
G02*
X55350000Y48025000I225000J0D01*
G01*
X55850000Y48025000D01*
G75*
G02*
X56075000Y47800000I0J-225000D01*
G01*
X56075000Y47350000D01*
G75*
G02*
X55850000Y47125000I-225000J0D01*
G01*
G37*
G04 #@! TD*
D10*
G04 #@! TO.C,IC1*
X60160000Y48113000D03*
X61430000Y48113000D03*
X62700000Y48113000D03*
X63970000Y48113000D03*
X63970000Y53537000D03*
X62700000Y53537000D03*
X61430000Y53537000D03*
X60160000Y53537000D03*
G04 #@! TD*
G04 #@! TO.C,R12*
G36*
G01*
X4250000Y44990000D02*
X4250000Y44210000D01*
G75*
G02*
X4180000Y44140000I-70000J0D01*
G01*
X3620000Y44140000D01*
G75*
G02*
X3550000Y44210000I0J70000D01*
G01*
X3550000Y44990000D01*
G75*
G02*
X3620000Y45060000I70000J0D01*
G01*
X4180000Y45060000D01*
G75*
G02*
X4250000Y44990000I0J-70000D01*
G01*
G37*
G36*
G01*
X2650000Y44990000D02*
X2650000Y44210000D01*
G75*
G02*
X2580000Y44140000I-70000J0D01*
G01*
X2020000Y44140000D01*
G75*
G02*
X1950000Y44210000I0J70000D01*
G01*
X1950000Y44990000D01*
G75*
G02*
X2020000Y45060000I70000J0D01*
G01*
X2580000Y45060000D01*
G75*
G02*
X2650000Y44990000I0J-70000D01*
G01*
G37*
G04 #@! TD*
G04 #@! TO.C,C13*
G36*
G01*
X1994998Y57360000D02*
X1994998Y58040000D01*
G75*
G02*
X2079998Y58125000I85000J0D01*
G01*
X2759998Y58125000D01*
G75*
G02*
X2844998Y58040000I0J-85000D01*
G01*
X2844998Y57360000D01*
G75*
G02*
X2759998Y57275000I-85000J0D01*
G01*
X2079998Y57275000D01*
G75*
G02*
X1994998Y57360000I0J85000D01*
G01*
G37*
G36*
G01*
X3575000Y57360000D02*
X3575000Y58040000D01*
G75*
G02*
X3660000Y58125000I85000J0D01*
G01*
X4340000Y58125000D01*
G75*
G02*
X4425000Y58040000I0J-85000D01*
G01*
X4425000Y57360000D01*
G75*
G02*
X4340000Y57275000I-85000J0D01*
G01*
X3660000Y57275000D01*
G75*
G02*
X3575000Y57360000I0J85000D01*
G01*
G37*
G04 #@! TD*
G04 #@! TO.C,R14*
G36*
G01*
X69650000Y24110000D02*
X69650000Y24890000D01*
G75*
G02*
X69720000Y24960000I70000J0D01*
G01*
X70280000Y24960000D01*
G75*
G02*
X70350000Y24890000I0J-70000D01*
G01*
X70350000Y24110000D01*
G75*
G02*
X70280000Y24040000I-70000J0D01*
G01*
X69720000Y24040000D01*
G75*
G02*
X69650000Y24110000I0J70000D01*
G01*
G37*
G36*
G01*
X71250000Y24110000D02*
X71250000Y24890000D01*
G75*
G02*
X71320000Y24960000I70000J0D01*
G01*
X71880000Y24960000D01*
G75*
G02*
X71950000Y24890000I0J-70000D01*
G01*
X71950000Y24110000D01*
G75*
G02*
X71880000Y24040000I-70000J0D01*
G01*
X71320000Y24040000D01*
G75*
G02*
X71250000Y24110000I0J70000D01*
G01*
G37*
G04 #@! TD*
G04 #@! TO.C,Q1*
G36*
G01*
X44945000Y49900000D02*
X44245000Y49900000D01*
G75*
G02*
X43995000Y50150000I0J250000D01*
G01*
X43995000Y51850000D01*
G75*
G02*
X44245000Y52100000I250000J0D01*
G01*
X44945000Y52100000D01*
G75*
G02*
X45195000Y51850000I0J-250000D01*
G01*
X45195000Y50150000D01*
G75*
G02*
X44945000Y49900000I-250000J0D01*
G01*
G37*
G36*
G01*
X46475000Y54100000D02*
X44225000Y54100000D01*
G75*
G02*
X43975000Y54350000I0J250000D01*
G01*
X43975000Y56900000D01*
G75*
G02*
X44225000Y57150000I250000J0D01*
G01*
X46475000Y57150000D01*
G75*
G02*
X46725000Y56900000I0J-250000D01*
G01*
X46725000Y54350000D01*
G75*
G02*
X46475000Y54100000I-250000J0D01*
G01*
G37*
G36*
G01*
X49525000Y54100000D02*
X47275000Y54100000D01*
G75*
G02*
X47025000Y54350000I0J250000D01*
G01*
X47025000Y56900000D01*
G75*
G02*
X47275000Y57150000I250000J0D01*
G01*
X49525000Y57150000D01*
G75*
G02*
X49775000Y56900000I0J-250000D01*
G01*
X49775000Y54350000D01*
G75*
G02*
X49525000Y54100000I-250000J0D01*
G01*
G37*
G36*
G01*
X46475000Y57450000D02*
X44225000Y57450000D01*
G75*
G02*
X43975000Y57700000I0J250000D01*
G01*
X43975000Y60250000D01*
G75*
G02*
X44225000Y60500000I250000J0D01*
G01*
X46475000Y60500000D01*
G75*
G02*
X46725000Y60250000I0J-250000D01*
G01*
X46725000Y57700000D01*
G75*
G02*
X46475000Y57450000I-250000J0D01*
G01*
G37*
G36*
G01*
X49525000Y57450000D02*
X47275000Y57450000D01*
G75*
G02*
X47025000Y57700000I0J250000D01*
G01*
X47025000Y60250000D01*
G75*
G02*
X47275000Y60500000I250000J0D01*
G01*
X49525000Y60500000D01*
G75*
G02*
X49775000Y60250000I0J-250000D01*
G01*
X49775000Y57700000D01*
G75*
G02*
X49525000Y57450000I-250000J0D01*
G01*
G37*
G36*
G01*
X49505000Y49900000D02*
X48805000Y49900000D01*
G75*
G02*
X48555000Y50150000I0J250000D01*
G01*
X48555000Y51850000D01*
G75*
G02*
X48805000Y52100000I250000J0D01*
G01*
X49505000Y52100000D01*
G75*
G02*
X49755000Y51850000I0J-250000D01*
G01*
X49755000Y50150000D01*
G75*
G02*
X49505000Y49900000I-250000J0D01*
G01*
G37*
G04 #@! TD*
D11*
G04 #@! TO.C,U2*
X54150000Y47340000D03*
X53500000Y47340000D03*
X52850000Y47340000D03*
X52200000Y47340000D03*
X51550000Y47340000D03*
X50900000Y47340000D03*
X50260000Y47340000D03*
X49600000Y47340000D03*
X48950000Y47340000D03*
X48300000Y47340000D03*
X47650000Y47340000D03*
X47010000Y47340000D03*
X47010000Y41300000D03*
X47650000Y41300000D03*
X48300000Y41300000D03*
X48950000Y41300000D03*
X49600000Y41300000D03*
X50260000Y41300000D03*
X50900000Y41300000D03*
X51550000Y41300000D03*
X52200000Y41300000D03*
X52850000Y41300000D03*
X53500000Y41300000D03*
X54150000Y41300000D03*
G04 #@! TD*
D12*
G04 #@! TO.C,IC3*
X16000000Y43500000D03*
X16000000Y44500000D03*
X16000000Y45500000D03*
X16000000Y46500000D03*
X16000000Y47500000D03*
X16000000Y48500000D03*
X6400000Y48500000D03*
X6400000Y47500000D03*
X6400000Y46500000D03*
X6400000Y45500000D03*
X6400000Y44500000D03*
X6400000Y43500000D03*
D13*
X11200000Y46000000D03*
G04 #@! TD*
G04 #@! TO.C,D3*
G36*
G01*
X27838502Y25512502D02*
X27358502Y25512502D01*
G75*
G02*
X27298502Y25572502I0J60000D01*
G01*
X27298502Y26052502D01*
G75*
G02*
X27358502Y26112502I60000J0D01*
G01*
X27838502Y26112502D01*
G75*
G02*
X27898502Y26052502I0J-60000D01*
G01*
X27898502Y25572502D01*
G75*
G02*
X27838502Y25512502I-60000J0D01*
G01*
G37*
G36*
G01*
X25638502Y25512502D02*
X25158502Y25512502D01*
G75*
G02*
X25098502Y25572502I0J60000D01*
G01*
X25098502Y26052502D01*
G75*
G02*
X25158502Y26112502I60000J0D01*
G01*
X25638502Y26112502D01*
G75*
G02*
X25698502Y26052502I0J-60000D01*
G01*
X25698502Y25572502D01*
G75*
G02*
X25638502Y25512502I-60000J0D01*
G01*
G37*
G04 #@! TD*
G04 #@! TO.C,R1*
G36*
G01*
X43450000Y48510000D02*
X43450000Y49290000D01*
G75*
G02*
X43520000Y49360000I70000J0D01*
G01*
X44080000Y49360000D01*
G75*
G02*
X44150000Y49290000I0J-70000D01*
G01*
X44150000Y48510000D01*
G75*
G02*
X44080000Y48440000I-70000J0D01*
G01*
X43520000Y48440000D01*
G75*
G02*
X43450000Y48510000I0J70000D01*
G01*
G37*
G36*
G01*
X45050000Y48510000D02*
X45050000Y49290000D01*
G75*
G02*
X45120000Y49360000I70000J0D01*
G01*
X45680000Y49360000D01*
G75*
G02*
X45750000Y49290000I0J-70000D01*
G01*
X45750000Y48510000D01*
G75*
G02*
X45680000Y48440000I-70000J0D01*
G01*
X45120000Y48440000D01*
G75*
G02*
X45050000Y48510000I0J70000D01*
G01*
G37*
G04 #@! TD*
G04 #@! TO.C,C27*
G36*
G01*
X1894998Y46860000D02*
X1894998Y47540000D01*
G75*
G02*
X1979998Y47625000I85000J0D01*
G01*
X2659998Y47625000D01*
G75*
G02*
X2744998Y47540000I0J-85000D01*
G01*
X2744998Y46860000D01*
G75*
G02*
X2659998Y46775000I-85000J0D01*
G01*
X1979998Y46775000D01*
G75*
G02*
X1894998Y46860000I0J85000D01*
G01*
G37*
G36*
G01*
X3475000Y46860000D02*
X3475000Y47540000D01*
G75*
G02*
X3560000Y47625000I85000J0D01*
G01*
X4240000Y47625000D01*
G75*
G02*
X4325000Y47540000I0J-85000D01*
G01*
X4325000Y46860000D01*
G75*
G02*
X4240000Y46775000I-85000J0D01*
G01*
X3560000Y46775000D01*
G75*
G02*
X3475000Y46860000I0J85000D01*
G01*
G37*
G04 #@! TD*
G04 #@! TO.C,R13*
G36*
G01*
X28090000Y31750000D02*
X27310000Y31750000D01*
G75*
G02*
X27240000Y31820000I0J70000D01*
G01*
X27240000Y32380000D01*
G75*
G02*
X27310000Y32450000I70000J0D01*
G01*
X28090000Y32450000D01*
G75*
G02*
X28160000Y32380000I0J-70000D01*
G01*
X28160000Y31820000D01*
G75*
G02*
X28090000Y31750000I-70000J0D01*
G01*
G37*
G36*
G01*
X28090000Y33350000D02*
X27310000Y33350000D01*
G75*
G02*
X27240000Y33420000I0J70000D01*
G01*
X27240000Y33980000D01*
G75*
G02*
X27310000Y34050000I70000J0D01*
G01*
X28090000Y34050000D01*
G75*
G02*
X28160000Y33980000I0J-70000D01*
G01*
X28160000Y33420000D01*
G75*
G02*
X28090000Y33350000I-70000J0D01*
G01*
G37*
G04 #@! TD*
G04 #@! TO.C,R2*
G36*
G01*
X50710000Y52050000D02*
X51490000Y52050000D01*
G75*
G02*
X51560000Y51980000I0J-70000D01*
G01*
X51560000Y51420000D01*
G75*
G02*
X51490000Y51350000I-70000J0D01*
G01*
X50710000Y51350000D01*
G75*
G02*
X50640000Y51420000I0J70000D01*
G01*
X50640000Y51980000D01*
G75*
G02*
X50710000Y52050000I70000J0D01*
G01*
G37*
G36*
G01*
X50710000Y50450000D02*
X51490000Y50450000D01*
G75*
G02*
X51560000Y50380000I0J-70000D01*
G01*
X51560000Y49820000D01*
G75*
G02*
X51490000Y49750000I-70000J0D01*
G01*
X50710000Y49750000D01*
G75*
G02*
X50640000Y49820000I0J70000D01*
G01*
X50640000Y50380000D01*
G75*
G02*
X50710000Y50450000I70000J0D01*
G01*
G37*
G04 #@! TD*
G04 #@! TO.C,R5*
G36*
G01*
X59755000Y43775000D02*
X58975000Y43775000D01*
G75*
G02*
X58905000Y43845000I0J70000D01*
G01*
X58905000Y44405000D01*
G75*
G02*
X58975000Y44475000I70000J0D01*
G01*
X59755000Y44475000D01*
G75*
G02*
X59825000Y44405000I0J-70000D01*
G01*
X59825000Y43845000D01*
G75*
G02*
X59755000Y43775000I-70000J0D01*
G01*
G37*
G36*
G01*
X59755000Y45375000D02*
X58975000Y45375000D01*
G75*
G02*
X58905000Y45445000I0J70000D01*
G01*
X58905000Y46005000D01*
G75*
G02*
X58975000Y46075000I70000J0D01*
G01*
X59755000Y46075000D01*
G75*
G02*
X59825000Y46005000I0J-70000D01*
G01*
X59825000Y45445000D01*
G75*
G02*
X59755000Y45375000I-70000J0D01*
G01*
G37*
G04 #@! TD*
G04 #@! TO.C,R21*
G36*
G01*
X39310000Y46150000D02*
X40090000Y46150000D01*
G75*
G02*
X40160000Y46080000I0J-70000D01*
G01*
X40160000Y45520000D01*
G75*
G02*
X40090000Y45450000I-70000J0D01*
G01*
X39310000Y45450000D01*
G75*
G02*
X39240000Y45520000I0J70000D01*
G01*
X39240000Y46080000D01*
G75*
G02*
X39310000Y46150000I70000J0D01*
G01*
G37*
G36*
G01*
X39310000Y44550000D02*
X40090000Y44550000D01*
G75*
G02*
X40160000Y44480000I0J-70000D01*
G01*
X40160000Y43920000D01*
G75*
G02*
X40090000Y43850000I-70000J0D01*
G01*
X39310000Y43850000D01*
G75*
G02*
X39240000Y43920000I0J70000D01*
G01*
X39240000Y44480000D01*
G75*
G02*
X39310000Y44550000I70000J0D01*
G01*
G37*
G04 #@! TD*
D12*
G04 #@! TO.C,IC2*
X16000000Y52700000D03*
X16000000Y53700000D03*
X16000000Y54700000D03*
X16000000Y55700000D03*
X16000000Y56700000D03*
X16000000Y57700000D03*
X6400000Y57700000D03*
X6400000Y56700000D03*
X6400000Y55700000D03*
X6400000Y54700000D03*
X6400000Y53700000D03*
X6400000Y52700000D03*
D13*
X11200000Y55200000D03*
G04 #@! TD*
G04 #@! TO.C,F2*
G36*
G01*
X67343750Y52100000D02*
X67856250Y52100000D01*
G75*
G02*
X68075000Y51881250I0J-218750D01*
G01*
X68075000Y51443750D01*
G75*
G02*
X67856250Y51225000I-218750J0D01*
G01*
X67343750Y51225000D01*
G75*
G02*
X67125000Y51443750I0J218750D01*
G01*
X67125000Y51881250D01*
G75*
G02*
X67343750Y52100000I218750J0D01*
G01*
G37*
G36*
G01*
X67343750Y50525000D02*
X67856250Y50525000D01*
G75*
G02*
X68075000Y50306250I0J-218750D01*
G01*
X68075000Y49868750D01*
G75*
G02*
X67856250Y49650000I-218750J0D01*
G01*
X67343750Y49650000D01*
G75*
G02*
X67125000Y49868750I0J218750D01*
G01*
X67125000Y50306250D01*
G75*
G02*
X67343750Y50525000I218750J0D01*
G01*
G37*
G04 #@! TD*
G04 #@! TO.C,U4*
G36*
G01*
X38620000Y47500000D02*
X38320000Y47500000D01*
G75*
G02*
X38170000Y47650000I0J150000D01*
G01*
X38170000Y49300000D01*
G75*
G02*
X38320000Y49450000I150000J0D01*
G01*
X38620000Y49450000D01*
G75*
G02*
X38770000Y49300000I0J-150000D01*
G01*
X38770000Y47650000D01*
G75*
G02*
X38620000Y47500000I-150000J0D01*
G01*
G37*
G36*
G01*
X39890000Y47500000D02*
X39590000Y47500000D01*
G75*
G02*
X39440000Y47650000I0J150000D01*
G01*
X39440000Y49300000D01*
G75*
G02*
X39590000Y49450000I150000J0D01*
G01*
X39890000Y49450000D01*
G75*
G02*
X40040000Y49300000I0J-150000D01*
G01*
X40040000Y47650000D01*
G75*
G02*
X39890000Y47500000I-150000J0D01*
G01*
G37*
G36*
G01*
X41160000Y47500000D02*
X40860000Y47500000D01*
G75*
G02*
X40710000Y47650000I0J150000D01*
G01*
X40710000Y49300000D01*
G75*
G02*
X40860000Y49450000I150000J0D01*
G01*
X41160000Y49450000D01*
G75*
G02*
X41310000Y49300000I0J-150000D01*
G01*
X41310000Y47650000D01*
G75*
G02*
X41160000Y47500000I-150000J0D01*
G01*
G37*
G36*
G01*
X42430000Y47500000D02*
X42130000Y47500000D01*
G75*
G02*
X41980000Y47650000I0J150000D01*
G01*
X41980000Y49300000D01*
G75*
G02*
X42130000Y49450000I150000J0D01*
G01*
X42430000Y49450000D01*
G75*
G02*
X42580000Y49300000I0J-150000D01*
G01*
X42580000Y47650000D01*
G75*
G02*
X42430000Y47500000I-150000J0D01*
G01*
G37*
G36*
G01*
X42430000Y52450000D02*
X42130000Y52450000D01*
G75*
G02*
X41980000Y52600000I0J150000D01*
G01*
X41980000Y54250000D01*
G75*
G02*
X42130000Y54400000I150000J0D01*
G01*
X42430000Y54400000D01*
G75*
G02*
X42580000Y54250000I0J-150000D01*
G01*
X42580000Y52600000D01*
G75*
G02*
X42430000Y52450000I-150000J0D01*
G01*
G37*
G36*
G01*
X41160000Y52450000D02*
X40860000Y52450000D01*
G75*
G02*
X40710000Y52600000I0J150000D01*
G01*
X40710000Y54250000D01*
G75*
G02*
X40860000Y54400000I150000J0D01*
G01*
X41160000Y54400000D01*
G75*
G02*
X41310000Y54250000I0J-150000D01*
G01*
X41310000Y52600000D01*
G75*
G02*
X41160000Y52450000I-150000J0D01*
G01*
G37*
G36*
G01*
X39890000Y52450000D02*
X39590000Y52450000D01*
G75*
G02*
X39440000Y52600000I0J150000D01*
G01*
X39440000Y54250000D01*
G75*
G02*
X39590000Y54400000I150000J0D01*
G01*
X39890000Y54400000D01*
G75*
G02*
X40040000Y54250000I0J-150000D01*
G01*
X40040000Y52600000D01*
G75*
G02*
X39890000Y52450000I-150000J0D01*
G01*
G37*
G36*
G01*
X38620000Y52450000D02*
X38320000Y52450000D01*
G75*
G02*
X38170000Y52600000I0J150000D01*
G01*
X38170000Y54250000D01*
G75*
G02*
X38320000Y54400000I150000J0D01*
G01*
X38620000Y54400000D01*
G75*
G02*
X38770000Y54250000I0J-150000D01*
G01*
X38770000Y52600000D01*
G75*
G02*
X38620000Y52450000I-150000J0D01*
G01*
G37*
G04 #@! TD*
G04 #@! TO.C,F5*
G36*
G01*
X21600000Y58605010D02*
X21600000Y59295010D01*
G75*
G02*
X21830000Y59525010I230000J0D01*
G01*
X23170000Y59525010D01*
G75*
G02*
X23400000Y59295010I0J-230000D01*
G01*
X23400000Y58605010D01*
G75*
G02*
X23170000Y58375010I-230000J0D01*
G01*
X21830000Y58375010D01*
G75*
G02*
X21600000Y58605010I0J230000D01*
G01*
G37*
G36*
G01*
X21600000Y55704990D02*
X21600000Y56394990D01*
G75*
G02*
X21830000Y56624990I230000J0D01*
G01*
X23170000Y56624990D01*
G75*
G02*
X23400000Y56394990I0J-230000D01*
G01*
X23400000Y55704990D01*
G75*
G02*
X23170000Y55474990I-230000J0D01*
G01*
X21830000Y55474990D01*
G75*
G02*
X21600000Y55704990I0J230000D01*
G01*
G37*
G04 #@! TD*
G04 #@! TO.C,R16*
G36*
G01*
X24149999Y1275000D02*
X24149999Y2525000D01*
G75*
G02*
X24249999Y2625000I100000J0D01*
G01*
X25049999Y2625000D01*
G75*
G02*
X25149999Y2525000I0J-100000D01*
G01*
X25149999Y1275000D01*
G75*
G02*
X25049999Y1175000I-100000J0D01*
G01*
X24249999Y1175000D01*
G75*
G02*
X24149999Y1275000I0J100000D01*
G01*
G37*
G36*
G01*
X26050021Y1275000D02*
X26050021Y2525000D01*
G75*
G02*
X26150021Y2625000I100000J0D01*
G01*
X26950021Y2625000D01*
G75*
G02*
X27050021Y2525000I0J-100000D01*
G01*
X27050021Y1275000D01*
G75*
G02*
X26950021Y1175000I-100000J0D01*
G01*
X26150021Y1175000D01*
G75*
G02*
X26050021Y1275000I0J100000D01*
G01*
G37*
G04 #@! TD*
G04 #@! TO.C,R11*
G36*
G01*
X4350000Y54190000D02*
X4350000Y53410000D01*
G75*
G02*
X4280000Y53340000I-70000J0D01*
G01*
X3720000Y53340000D01*
G75*
G02*
X3650000Y53410000I0J70000D01*
G01*
X3650000Y54190000D01*
G75*
G02*
X3720000Y54260000I70000J0D01*
G01*
X4280000Y54260000D01*
G75*
G02*
X4350000Y54190000I0J-70000D01*
G01*
G37*
G36*
G01*
X2750000Y54190000D02*
X2750000Y53410000D01*
G75*
G02*
X2680000Y53340000I-70000J0D01*
G01*
X2120000Y53340000D01*
G75*
G02*
X2050000Y53410000I0J70000D01*
G01*
X2050000Y54190000D01*
G75*
G02*
X2120000Y54260000I70000J0D01*
G01*
X2680000Y54260000D01*
G75*
G02*
X2750000Y54190000I0J-70000D01*
G01*
G37*
G04 #@! TD*
G04 #@! TO.C,D2*
G36*
G01*
X31410000Y55300000D02*
X30390000Y55300000D01*
G75*
G02*
X30300000Y55390000I0J90000D01*
G01*
X30300000Y56110000D01*
G75*
G02*
X30390000Y56200000I90000J0D01*
G01*
X31410000Y56200000D01*
G75*
G02*
X31500000Y56110000I0J-90000D01*
G01*
X31500000Y55390000D01*
G75*
G02*
X31410000Y55300000I-90000J0D01*
G01*
G37*
G36*
G01*
X31410000Y58600000D02*
X30390000Y58600000D01*
G75*
G02*
X30300000Y58690000I0J90000D01*
G01*
X30300000Y59410000D01*
G75*
G02*
X30390000Y59500000I90000J0D01*
G01*
X31410000Y59500000D01*
G75*
G02*
X31500000Y59410000I0J-90000D01*
G01*
X31500000Y58690000D01*
G75*
G02*
X31410000Y58600000I-90000J0D01*
G01*
G37*
G04 #@! TD*
G04 #@! TO.C,F4*
G36*
G01*
X19100000Y58605010D02*
X19100000Y59295010D01*
G75*
G02*
X19330000Y59525010I230000J0D01*
G01*
X20670000Y59525010D01*
G75*
G02*
X20900000Y59295010I0J-230000D01*
G01*
X20900000Y58605010D01*
G75*
G02*
X20670000Y58375010I-230000J0D01*
G01*
X19330000Y58375010D01*
G75*
G02*
X19100000Y58605010I0J230000D01*
G01*
G37*
G36*
G01*
X19100000Y55704990D02*
X19100000Y56394990D01*
G75*
G02*
X19330000Y56624990I230000J0D01*
G01*
X20670000Y56624990D01*
G75*
G02*
X20900000Y56394990I0J-230000D01*
G01*
X20900000Y55704990D01*
G75*
G02*
X20670000Y55474990I-230000J0D01*
G01*
X19330000Y55474990D01*
G75*
G02*
X19100000Y55704990I0J230000D01*
G01*
G37*
G04 #@! TD*
G04 #@! TO.C,D1*
G36*
G01*
X34410000Y55300000D02*
X33390000Y55300000D01*
G75*
G02*
X33300000Y55390000I0J90000D01*
G01*
X33300000Y56110000D01*
G75*
G02*
X33390000Y56200000I90000J0D01*
G01*
X34410000Y56200000D01*
G75*
G02*
X34500000Y56110000I0J-90000D01*
G01*
X34500000Y55390000D01*
G75*
G02*
X34410000Y55300000I-90000J0D01*
G01*
G37*
G36*
G01*
X34410000Y58600000D02*
X33390000Y58600000D01*
G75*
G02*
X33300000Y58690000I0J90000D01*
G01*
X33300000Y59410000D01*
G75*
G02*
X33390000Y59500000I90000J0D01*
G01*
X34410000Y59500000D01*
G75*
G02*
X34500000Y59410000I0J-90000D01*
G01*
X34500000Y58690000D01*
G75*
G02*
X34410000Y58600000I-90000J0D01*
G01*
G37*
G04 #@! TD*
G04 #@! TO.C,F3*
G36*
G01*
X69143750Y52112500D02*
X69656250Y52112500D01*
G75*
G02*
X69875000Y51893750I0J-218750D01*
G01*
X69875000Y51456250D01*
G75*
G02*
X69656250Y51237500I-218750J0D01*
G01*
X69143750Y51237500D01*
G75*
G02*
X68925000Y51456250I0J218750D01*
G01*
X68925000Y51893750D01*
G75*
G02*
X69143750Y52112500I218750J0D01*
G01*
G37*
G36*
G01*
X69143750Y50537500D02*
X69656250Y50537500D01*
G75*
G02*
X69875000Y50318750I0J-218750D01*
G01*
X69875000Y49881250D01*
G75*
G02*
X69656250Y49662500I-218750J0D01*
G01*
X69143750Y49662500D01*
G75*
G02*
X68925000Y49881250I0J218750D01*
G01*
X68925000Y50318750D01*
G75*
G02*
X69143750Y50537500I218750J0D01*
G01*
G37*
G04 #@! TD*
G04 #@! TO.C,R7*
G36*
G01*
X65520000Y43800000D02*
X64740000Y43800000D01*
G75*
G02*
X64670000Y43870000I0J70000D01*
G01*
X64670000Y44430000D01*
G75*
G02*
X64740000Y44500000I70000J0D01*
G01*
X65520000Y44500000D01*
G75*
G02*
X65590000Y44430000I0J-70000D01*
G01*
X65590000Y43870000D01*
G75*
G02*
X65520000Y43800000I-70000J0D01*
G01*
G37*
G36*
G01*
X65520000Y45400000D02*
X64740000Y45400000D01*
G75*
G02*
X64670000Y45470000I0J70000D01*
G01*
X64670000Y46030000D01*
G75*
G02*
X64740000Y46100000I70000J0D01*
G01*
X65520000Y46100000D01*
G75*
G02*
X65590000Y46030000I0J-70000D01*
G01*
X65590000Y45470000D01*
G75*
G02*
X65520000Y45400000I-70000J0D01*
G01*
G37*
G04 #@! TD*
G04 #@! TO.C,R8*
G36*
G01*
X63920000Y43800000D02*
X63140000Y43800000D01*
G75*
G02*
X63070000Y43870000I0J70000D01*
G01*
X63070000Y44430000D01*
G75*
G02*
X63140000Y44500000I70000J0D01*
G01*
X63920000Y44500000D01*
G75*
G02*
X63990000Y44430000I0J-70000D01*
G01*
X63990000Y43870000D01*
G75*
G02*
X63920000Y43800000I-70000J0D01*
G01*
G37*
G36*
G01*
X63920000Y45400000D02*
X63140000Y45400000D01*
G75*
G02*
X63070000Y45470000I0J70000D01*
G01*
X63070000Y46030000D01*
G75*
G02*
X63140000Y46100000I70000J0D01*
G01*
X63920000Y46100000D01*
G75*
G02*
X63990000Y46030000I0J-70000D01*
G01*
X63990000Y45470000D01*
G75*
G02*
X63920000Y45400000I-70000J0D01*
G01*
G37*
G04 #@! TD*
G04 #@! TO.C,C30*
G36*
G01*
X55350000Y44725000D02*
X55850000Y44725000D01*
G75*
G02*
X56075000Y44500000I0J-225000D01*
G01*
X56075000Y44050000D01*
G75*
G02*
X55850000Y43825000I-225000J0D01*
G01*
X55350000Y43825000D01*
G75*
G02*
X55125000Y44050000I0J225000D01*
G01*
X55125000Y44500000D01*
G75*
G02*
X55350000Y44725000I225000J0D01*
G01*
G37*
G36*
G01*
X55350000Y43175000D02*
X55850000Y43175000D01*
G75*
G02*
X56075000Y42950000I0J-225000D01*
G01*
X56075000Y42500000D01*
G75*
G02*
X55850000Y42275000I-225000J0D01*
G01*
X55350000Y42275000D01*
G75*
G02*
X55125000Y42500000I0J225000D01*
G01*
X55125000Y42950000D01*
G75*
G02*
X55350000Y43175000I225000J0D01*
G01*
G37*
G04 #@! TD*
G04 #@! TO.C,R22*
G36*
G01*
X41810000Y46150000D02*
X42590000Y46150000D01*
G75*
G02*
X42660000Y46080000I0J-70000D01*
G01*
X42660000Y45520000D01*
G75*
G02*
X42590000Y45450000I-70000J0D01*
G01*
X41810000Y45450000D01*
G75*
G02*
X41740000Y45520000I0J70000D01*
G01*
X41740000Y46080000D01*
G75*
G02*
X41810000Y46150000I70000J0D01*
G01*
G37*
G36*
G01*
X41810000Y44550000D02*
X42590000Y44550000D01*
G75*
G02*
X42660000Y44480000I0J-70000D01*
G01*
X42660000Y43920000D01*
G75*
G02*
X42590000Y43850000I-70000J0D01*
G01*
X41810000Y43850000D01*
G75*
G02*
X41740000Y43920000I0J70000D01*
G01*
X41740000Y44480000D01*
G75*
G02*
X41810000Y44550000I70000J0D01*
G01*
G37*
G04 #@! TD*
G04 #@! TO.C,Q2*
G36*
G01*
X53472500Y50000000D02*
X52772500Y50000000D01*
G75*
G02*
X52522500Y50250000I0J250000D01*
G01*
X52522500Y51950000D01*
G75*
G02*
X52772500Y52200000I250000J0D01*
G01*
X53472500Y52200000D01*
G75*
G02*
X53722500Y51950000I0J-250000D01*
G01*
X53722500Y50250000D01*
G75*
G02*
X53472500Y50000000I-250000J0D01*
G01*
G37*
G36*
G01*
X55002500Y54200000D02*
X52752500Y54200000D01*
G75*
G02*
X52502500Y54450000I0J250000D01*
G01*
X52502500Y57000000D01*
G75*
G02*
X52752500Y57250000I250000J0D01*
G01*
X55002500Y57250000D01*
G75*
G02*
X55252500Y57000000I0J-250000D01*
G01*
X55252500Y54450000D01*
G75*
G02*
X55002500Y54200000I-250000J0D01*
G01*
G37*
G36*
G01*
X58052500Y54200000D02*
X55802500Y54200000D01*
G75*
G02*
X55552500Y54450000I0J250000D01*
G01*
X55552500Y57000000D01*
G75*
G02*
X55802500Y57250000I250000J0D01*
G01*
X58052500Y57250000D01*
G75*
G02*
X58302500Y57000000I0J-250000D01*
G01*
X58302500Y54450000D01*
G75*
G02*
X58052500Y54200000I-250000J0D01*
G01*
G37*
G36*
G01*
X55002500Y57550000D02*
X52752500Y57550000D01*
G75*
G02*
X52502500Y57800000I0J250000D01*
G01*
X52502500Y60350000D01*
G75*
G02*
X52752500Y60600000I250000J0D01*
G01*
X55002500Y60600000D01*
G75*
G02*
X55252500Y60350000I0J-250000D01*
G01*
X55252500Y57800000D01*
G75*
G02*
X55002500Y57550000I-250000J0D01*
G01*
G37*
G36*
G01*
X58052500Y57550000D02*
X55802500Y57550000D01*
G75*
G02*
X55552500Y57800000I0J250000D01*
G01*
X55552500Y60350000D01*
G75*
G02*
X55802500Y60600000I250000J0D01*
G01*
X58052500Y60600000D01*
G75*
G02*
X58302500Y60350000I0J-250000D01*
G01*
X58302500Y57800000D01*
G75*
G02*
X58052500Y57550000I-250000J0D01*
G01*
G37*
G36*
G01*
X58032500Y50000000D02*
X57332500Y50000000D01*
G75*
G02*
X57082500Y50250000I0J250000D01*
G01*
X57082500Y51950000D01*
G75*
G02*
X57332500Y52200000I250000J0D01*
G01*
X58032500Y52200000D01*
G75*
G02*
X58282500Y51950000I0J-250000D01*
G01*
X58282500Y50250000D01*
G75*
G02*
X58032500Y50000000I-250000J0D01*
G01*
G37*
G04 #@! TD*
G04 #@! TO.C,F6*
G36*
G01*
X25100000Y58605010D02*
X25100000Y59295010D01*
G75*
G02*
X25330000Y59525010I230000J0D01*
G01*
X26670000Y59525010D01*
G75*
G02*
X26900000Y59295010I0J-230000D01*
G01*
X26900000Y58605010D01*
G75*
G02*
X26670000Y58375010I-230000J0D01*
G01*
X25330000Y58375010D01*
G75*
G02*
X25100000Y58605010I0J230000D01*
G01*
G37*
G36*
G01*
X25100000Y55704990D02*
X25100000Y56394990D01*
G75*
G02*
X25330000Y56624990I230000J0D01*
G01*
X26670000Y56624990D01*
G75*
G02*
X26900000Y56394990I0J-230000D01*
G01*
X26900000Y55704990D01*
G75*
G02*
X26670000Y55474990I-230000J0D01*
G01*
X25330000Y55474990D01*
G75*
G02*
X25100000Y55704990I0J230000D01*
G01*
G37*
G04 #@! TD*
G04 #@! TO.C,C14*
G36*
G01*
X1994998Y56060000D02*
X1994998Y56740000D01*
G75*
G02*
X2079998Y56825000I85000J0D01*
G01*
X2759998Y56825000D01*
G75*
G02*
X2844998Y56740000I0J-85000D01*
G01*
X2844998Y56060000D01*
G75*
G02*
X2759998Y55975000I-85000J0D01*
G01*
X2079998Y55975000D01*
G75*
G02*
X1994998Y56060000I0J85000D01*
G01*
G37*
G36*
G01*
X3575000Y56060000D02*
X3575000Y56740000D01*
G75*
G02*
X3660000Y56825000I85000J0D01*
G01*
X4340000Y56825000D01*
G75*
G02*
X4425000Y56740000I0J-85000D01*
G01*
X4425000Y56060000D01*
G75*
G02*
X4340000Y55975000I-85000J0D01*
G01*
X3660000Y55975000D01*
G75*
G02*
X3575000Y56060000I0J85000D01*
G01*
G37*
G04 #@! TD*
G04 #@! TO.C,F1*
G36*
G01*
X65433750Y52112500D02*
X65946250Y52112500D01*
G75*
G02*
X66165000Y51893750I0J-218750D01*
G01*
X66165000Y51456250D01*
G75*
G02*
X65946250Y51237500I-218750J0D01*
G01*
X65433750Y51237500D01*
G75*
G02*
X65215000Y51456250I0J218750D01*
G01*
X65215000Y51893750D01*
G75*
G02*
X65433750Y52112500I218750J0D01*
G01*
G37*
G36*
G01*
X65433750Y50537500D02*
X65946250Y50537500D01*
G75*
G02*
X66165000Y50318750I0J-218750D01*
G01*
X66165000Y49881250D01*
G75*
G02*
X65946250Y49662500I-218750J0D01*
G01*
X65433750Y49662500D01*
G75*
G02*
X65215000Y49881250I0J218750D01*
G01*
X65215000Y50318750D01*
G75*
G02*
X65433750Y50537500I218750J0D01*
G01*
G37*
G04 #@! TD*
G04 #@! TO.C,R6*
G36*
G01*
X61055000Y43800000D02*
X60275000Y43800000D01*
G75*
G02*
X60205000Y43870000I0J70000D01*
G01*
X60205000Y44430000D01*
G75*
G02*
X60275000Y44500000I70000J0D01*
G01*
X61055000Y44500000D01*
G75*
G02*
X61125000Y44430000I0J-70000D01*
G01*
X61125000Y43870000D01*
G75*
G02*
X61055000Y43800000I-70000J0D01*
G01*
G37*
G36*
G01*
X61055000Y45400000D02*
X60275000Y45400000D01*
G75*
G02*
X60205000Y45470000I0J70000D01*
G01*
X60205000Y46030000D01*
G75*
G02*
X60275000Y46100000I70000J0D01*
G01*
X61055000Y46100000D01*
G75*
G02*
X61125000Y46030000I0J-70000D01*
G01*
X61125000Y45470000D01*
G75*
G02*
X61055000Y45400000I-70000J0D01*
G01*
G37*
G04 #@! TD*
G04 #@! TO.C,R10*
G36*
G01*
X41330000Y43825000D02*
X40550000Y43825000D01*
G75*
G02*
X40480000Y43895000I0J70000D01*
G01*
X40480000Y44455000D01*
G75*
G02*
X40550000Y44525000I70000J0D01*
G01*
X41330000Y44525000D01*
G75*
G02*
X41400000Y44455000I0J-70000D01*
G01*
X41400000Y43895000D01*
G75*
G02*
X41330000Y43825000I-70000J0D01*
G01*
G37*
G36*
G01*
X41330000Y45425000D02*
X40550000Y45425000D01*
G75*
G02*
X40480000Y45495000I0J70000D01*
G01*
X40480000Y46055000D01*
G75*
G02*
X40550000Y46125000I70000J0D01*
G01*
X41330000Y46125000D01*
G75*
G02*
X41400000Y46055000I0J-70000D01*
G01*
X41400000Y45495000D01*
G75*
G02*
X41330000Y45425000I-70000J0D01*
G01*
G37*
G04 #@! TD*
M02*
