G04 #@! TF.GenerationSoftware,KiCad,Pcbnew,8.0.2-8.0.2-0~ubuntu22.04.1*
G04 #@! TF.CreationDate,2024-05-29T14:04:05+00:00*
G04 #@! TF.ProjectId,PROLT,50524f4c-542e-46b6-9963-61645f706362,rev?*
G04 #@! TF.SameCoordinates,Original*
G04 #@! TF.FileFunction,Legend,Bot*
G04 #@! TF.FilePolarity,Positive*
%FSLAX46Y46*%
G04 Gerber Fmt 4.6, Leading zero omitted, Abs format (unit mm)*
G04 Created by KiCad (PCBNEW 8.0.2-8.0.2-0~ubuntu22.04.1) date 2024-05-29 14:04:05*
%MOMM*%
%LPD*%
G01*
G04 APERTURE LIST*
%ADD10C,0.120000*%
%ADD11C,0.200000*%
%ADD12C,0.099060*%
%ADD13C,0.631031*%
%ADD14C,0.150012*%
G04 APERTURE END LIST*
D10*
G04 #@! TO.C,F7*
X27750000Y55450000D02*
X27750000Y60300000D01*
X29750000Y55450000D02*
X29750000Y60300000D01*
X27750000Y60300000D02*
G75*
G02*
X29750000Y60300000I1000000J0D01*
G01*
X29750000Y55400000D02*
G75*
G02*
X27750000Y55400000I-1000000J0D01*
G01*
D11*
G04 #@! TO.C,M1*
X33350000Y4050000D02*
X33350000Y37850010D01*
X69149990Y37850010D02*
X33350000Y37850010D01*
X69149990Y4050000D02*
X33350000Y4050000D01*
X69149990Y4050000D02*
X69149990Y37850010D01*
D10*
G04 #@! TO.C,F5*
X21850000Y55450000D02*
X21850000Y60300000D01*
X23850000Y55450000D02*
X23850000Y60300000D01*
X21850000Y60300000D02*
G75*
G02*
X23850000Y60300000I1000000J0D01*
G01*
X23850000Y55400000D02*
G75*
G02*
X21850000Y55400000I-1000000J0D01*
G01*
D12*
G04 #@! TO.C,R16*
X24426000Y1450000D02*
X25442000Y1450000D01*
X25442000Y3050000D02*
X24426000Y3050000D01*
X26458000Y1450000D02*
X27474000Y1450000D01*
X27474000Y3050000D02*
X26458000Y3050000D01*
D10*
X24371000Y1448362D02*
G75*
G02*
X24375000Y3050000I-326000J801638D01*
G01*
X27525000Y3050000D02*
G75*
G02*
X27533602Y1446505I330000J-800000D01*
G01*
G04 #@! TO.C,F4*
X19350000Y55450000D02*
X19350000Y60300000D01*
X21350000Y55450000D02*
X21350000Y60300000D01*
X19350000Y60300000D02*
G75*
G02*
X21350000Y60300000I1000000J0D01*
G01*
X21350000Y55400000D02*
G75*
G02*
X19350000Y55400000I-1000000J0D01*
G01*
G04 #@! TO.C,F6*
X25350000Y55450000D02*
X25350000Y60300000D01*
X27350000Y55450000D02*
X27350000Y60300000D01*
X25350000Y60300000D02*
G75*
G02*
X27350000Y60300000I1000000J0D01*
G01*
X27350000Y55400000D02*
G75*
G02*
X25350000Y55400000I-1000000J0D01*
G01*
D11*
G04 #@! TO.C,M2*
X11712500Y37950000D02*
X11712500Y32850000D01*
X12312500Y28350000D02*
X26712500Y28350000D01*
X26712500Y37950000D02*
X11712500Y37950000D01*
X26712500Y37950000D02*
X26712500Y36650000D01*
X26712500Y28350000D02*
X26712500Y34750000D01*
G04 #@! TO.C,M3*
X11774999Y18174999D02*
X11774999Y21375002D01*
X11774999Y6074999D02*
X11774999Y16475001D01*
X11774999Y4174999D02*
X11774999Y4474999D01*
X11774999Y4174999D02*
X27174999Y4174999D01*
X13274999Y24774997D02*
X28574998Y24774999D01*
X28574996Y18075001D02*
X28574996Y22875001D01*
X28574996Y11874999D02*
X28574996Y14574999D01*
X28574996Y9175001D02*
X28574996Y10275004D01*
X28574996Y5624999D02*
X28575001Y7174999D01*
X28574998Y24475001D02*
X28574998Y24774999D01*
G04 #@! TO.C,C6*
X14950079Y53664993D02*
X13950079Y53664993D01*
G04 #@! TO.C,C11*
X11000015Y53650000D02*
X10000015Y53650000D01*
G04 #@! TO.C,C4*
X10000015Y57080002D02*
X11000015Y57080002D01*
G04 #@! TO.C,C18*
X10250000Y47950000D02*
X11250000Y47950000D01*
G04 #@! TO.C,U1*
X52425000Y54162500D02*
X53355000Y54162500D01*
X52425000Y41462500D02*
X52425000Y54162500D01*
X53355000Y41462500D02*
X52425000Y41462500D01*
D13*
X60044751Y48198500D02*
X60044751Y48198500D01*
X60044751Y48198500D02*
X60044751Y47507937D01*
X60044751Y47507937D02*
X60044751Y47507937D01*
X60044751Y47507937D02*
X60049259Y47329644D01*
X60049259Y48376794D02*
X60044751Y48198500D01*
X60049259Y47329644D02*
X60062639Y47153690D01*
X60062639Y48552747D02*
X60049259Y48376794D01*
X60062639Y47153690D02*
X60084673Y46980295D01*
X60084673Y48726143D02*
X60062639Y48552747D01*
X60084673Y46980295D02*
X60115142Y46809676D01*
X60115142Y48896762D02*
X60084673Y48726143D01*
X60115142Y46809676D02*
X60153830Y46642050D01*
X60153830Y49064387D02*
X60115142Y48896762D01*
X60153830Y46642050D02*
X60200518Y46477636D01*
X60200518Y49228801D02*
X60153830Y49064387D01*
X60200518Y46477636D02*
X60254989Y46316651D01*
X60254989Y49389787D02*
X60200518Y49228801D01*
X60254989Y46316651D02*
X60317026Y46159313D01*
X60317026Y49547125D02*
X60254989Y49389787D01*
X60317026Y46159313D02*
X60386410Y46005839D01*
X60386410Y49700599D02*
X60317026Y49547125D01*
X60386410Y46005839D02*
X60462924Y45856447D01*
X60462924Y49849991D02*
X60386410Y49700599D01*
X60462924Y45856447D02*
X60546350Y45711355D01*
X60546350Y49995083D02*
X60462924Y49849991D01*
X60546350Y45711355D02*
X60636471Y45570780D01*
X60636471Y50135657D02*
X60546350Y49995083D01*
X60636471Y45570780D02*
X60733068Y45434941D01*
X60733068Y50271497D02*
X60636471Y50135657D01*
X60733068Y45434941D02*
X60835924Y45304055D01*
X60835924Y50402383D02*
X60733068Y50271497D01*
X60835924Y45304055D02*
X60944822Y45178339D01*
X60944822Y50528099D02*
X60835924Y50402383D01*
X60944822Y45178339D02*
X61059544Y45058012D01*
X61059544Y50648426D02*
X60944822Y50528099D01*
X61059544Y45058012D02*
X61179871Y44943290D01*
X61179871Y50763148D02*
X61059544Y50648426D01*
X61179871Y44943290D02*
X61305587Y44834392D01*
X61305587Y50872046D02*
X61179871Y50763148D01*
X61305587Y44834392D02*
X61436473Y44731536D01*
X61436473Y50974902D02*
X61305587Y50872046D01*
X61436473Y44731536D02*
X61572312Y44634938D01*
X61572312Y51071499D02*
X61436473Y50974902D01*
X61572312Y44634938D02*
X61712887Y44544818D01*
X61712887Y51161620D02*
X61572312Y51071499D01*
X61712887Y44544818D02*
X61857979Y44461392D01*
X61857979Y51245046D02*
X61712887Y51161620D01*
X61857979Y44461392D02*
X62007371Y44384878D01*
X61961657Y47793687D02*
X61961657Y47793687D01*
X61961657Y47793687D02*
X69534031Y47793687D01*
X62007371Y51321560D02*
X61857979Y51245046D01*
X62007371Y44384878D02*
X62160844Y44315494D01*
X62160844Y51390944D02*
X62007371Y51321560D01*
X62160844Y44315494D02*
X62318183Y44253457D01*
X62318183Y51452981D02*
X62160844Y51390944D01*
X62318183Y44253457D02*
X62479168Y44198986D01*
X62479168Y51507452D02*
X62318183Y51452981D01*
X62479168Y44198986D02*
X62643582Y44152298D01*
X62643582Y51554140D02*
X62479168Y51507452D01*
X62643582Y44152298D02*
X62811208Y44113610D01*
X62811208Y51592828D02*
X62643582Y51554140D01*
X62811208Y44113610D02*
X62981827Y44083140D01*
X62981827Y51623297D02*
X62811208Y51592828D01*
X62981827Y44083140D02*
X63155222Y44061107D01*
X63155222Y51645331D02*
X62981827Y51623297D01*
X63155222Y44061107D02*
X63331175Y44047727D01*
X63331175Y51658711D02*
X63155222Y51645331D01*
X63331175Y44047727D02*
X63509469Y44043219D01*
X63509469Y51663219D02*
X63331175Y51658711D01*
X63509469Y51663219D02*
X63509469Y51663219D01*
X63509469Y44043219D02*
X63509469Y44043219D01*
X63509469Y44043219D02*
X68200532Y44043219D01*
X64080969Y49543906D02*
X61961657Y47793687D01*
X64080969Y49543906D02*
X64080969Y49543906D01*
X67509969Y49543906D02*
X63950000Y45912500D01*
X67509969Y49543906D02*
X67509969Y49543906D01*
X67736188Y45912500D02*
X64080969Y49543906D01*
X68200532Y51663219D02*
X63509469Y51663219D01*
X68200532Y51663219D02*
X68200532Y51663219D01*
X68200532Y44043219D02*
X68200532Y44043219D01*
X68200532Y44043219D02*
X68378825Y44047727D01*
X68378825Y51658711D02*
X68200532Y51663219D01*
X68378825Y44047727D02*
X68554779Y44061107D01*
X68554779Y51645331D02*
X68378825Y51658711D01*
X68554779Y44061107D02*
X68728174Y44083140D01*
X68728174Y51623297D02*
X68554779Y51645331D01*
X68728174Y44083140D02*
X68898793Y44113610D01*
X68898793Y51592828D02*
X68728174Y51623297D01*
X68898793Y44113610D02*
X69066419Y44152298D01*
X69066419Y51554140D02*
X68898793Y51592828D01*
X69066419Y44152298D02*
X69230833Y44198986D01*
X69230833Y51507452D02*
X69066419Y51554140D01*
X69230833Y44198986D02*
X69391818Y44253457D01*
X69391818Y51452981D02*
X69230833Y51507452D01*
X69391818Y44253457D02*
X69549156Y44315494D01*
X69534031Y47793687D02*
X67509969Y49543906D01*
X69534031Y47793687D02*
X69534031Y47793687D01*
X69549156Y51390944D02*
X69391818Y51452981D01*
X69549156Y44315494D02*
X69702630Y44384878D01*
X69702630Y51321560D02*
X69549156Y51390944D01*
X69702630Y44384878D02*
X69852022Y44461392D01*
X69852022Y51245046D02*
X69702630Y51321560D01*
X69852022Y44461392D02*
X69997114Y44544818D01*
X69997114Y51161620D02*
X69852022Y51245046D01*
X69997114Y44544818D02*
X70137689Y44634938D01*
X70137689Y51071499D02*
X69997114Y51161620D01*
X70137689Y44634938D02*
X70273528Y44731536D01*
X70273528Y50974902D02*
X70137689Y51071499D01*
X70273528Y44731536D02*
X70404414Y44834392D01*
X70404414Y50872046D02*
X70273528Y50974902D01*
X70404414Y44834392D02*
X70530130Y44943290D01*
X70530130Y50763148D02*
X70404414Y50872046D01*
X70530130Y44943290D02*
X70650457Y45058012D01*
X70650457Y50648426D02*
X70530130Y50763148D01*
X70650457Y45058012D02*
X70765179Y45178339D01*
X70765179Y50528099D02*
X70650457Y50648426D01*
X70765179Y45178339D02*
X70874077Y45304055D01*
X70874077Y50402383D02*
X70765179Y50528099D01*
X70874077Y45304055D02*
X70976933Y45434941D01*
X70976933Y50271497D02*
X70874077Y50402383D01*
X70976933Y45434941D02*
X71073531Y45570780D01*
X71073531Y50135657D02*
X70976933Y50271497D01*
X71073531Y45570780D02*
X71163651Y45711355D01*
X71163651Y49995083D02*
X71073531Y50135657D01*
X71163651Y45711355D02*
X71247077Y45856447D01*
X71247077Y49849991D02*
X71163651Y49995083D01*
X71247077Y45856447D02*
X71323591Y46005839D01*
X71323591Y49700599D02*
X71247077Y49849991D01*
X71323591Y46005839D02*
X71392975Y46159313D01*
X71392975Y49547125D02*
X71323591Y49700599D01*
X71392975Y46159313D02*
X71455012Y46316651D01*
X71455012Y49389787D02*
X71392975Y49547125D01*
X71455012Y46316651D02*
X71509483Y46477636D01*
X71509483Y49228801D02*
X71455012Y49389787D01*
X71509483Y46477636D02*
X71556171Y46642050D01*
X71556171Y49064387D02*
X71509483Y49228801D01*
X71556171Y46642050D02*
X71594859Y46809676D01*
X71594859Y48896762D02*
X71556171Y49064387D01*
X71594859Y46809676D02*
X71625329Y46980295D01*
X71625329Y48726143D02*
X71594859Y48896762D01*
X71625329Y46980295D02*
X71647362Y47153690D01*
X71647362Y48552747D02*
X71625329Y48726143D01*
X71647362Y47153690D02*
X71660742Y47329644D01*
X71660742Y48376794D02*
X71647362Y48552747D01*
X71660742Y47329644D02*
X71665250Y47507937D01*
X71665250Y48198500D02*
X71660742Y48376794D01*
X71665250Y48198500D02*
X71665250Y48198500D01*
X71665250Y47507937D02*
X71665250Y48198500D01*
X71665250Y47507937D02*
X71665250Y47507937D01*
X71665250Y47507937D02*
X71665250Y47507937D01*
D11*
X72995000Y41462500D02*
X79675000Y41462500D01*
X79675000Y54162500D02*
X72995000Y54162500D01*
X79675000Y41462500D02*
X79675000Y54162500D01*
X72450000Y39812500D02*
G75*
G02*
X72250000Y39812500I-100000J0D01*
G01*
X72250000Y39812500D02*
G75*
G02*
X72450000Y39812500I100000J0D01*
G01*
G04 #@! TO.C,C28*
X54950000Y39500014D02*
X54950000Y40249999D01*
G04 #@! TO.C,C25*
X11250000Y44519998D02*
X10250000Y44519998D01*
G04 #@! TO.C,C24*
X9300015Y44519998D02*
X8300015Y44519998D01*
G04 #@! TO.C,C9*
X7100045Y53650000D02*
X6100045Y53650000D01*
G04 #@! TO.C,C12*
X12950000Y53650000D02*
X11950000Y53650000D01*
G04 #@! TO.C,C10*
X9050030Y53650000D02*
X8050030Y53650000D01*
G04 #@! TO.C,C8*
X15850079Y57080002D02*
X16850079Y57080002D01*
G04 #@! TO.C,C16*
X6350030Y47950000D02*
X7350030Y47950000D01*
G04 #@! TO.C,C23*
X7350030Y44519998D02*
X6350030Y44519998D01*
G04 #@! TO.C,C20*
X14149970Y47950000D02*
X15149970Y47950000D01*
D14*
G04 #@! TO.C,BT1*
X27938000Y44885890D02*
X29138302Y44885890D01*
X27938000Y41729864D02*
X27938000Y44885890D01*
X27938000Y41729864D02*
X32818889Y41729864D01*
X36574000Y45038316D02*
X38606000Y45038316D01*
X37281110Y41729864D02*
X42162000Y41729864D01*
X37590000Y51769316D02*
X37590000Y53293316D01*
X37590000Y44022316D02*
X37590000Y46054316D01*
X41220600Y44885890D02*
X42162000Y44885890D01*
X42162000Y41729864D02*
X42162000Y44885890D01*
X32752548Y42134487D02*
G75*
G02*
X32926081Y55821406I2297434J6815431D01*
G01*
X37204049Y55867531D02*
G75*
G02*
X37225107Y42038883I-2154015J-6917620D01*
G01*
D11*
G04 #@! TO.C,C15*
X15150000Y44450000D02*
X14150000Y44450000D01*
G04 #@! TO.C,C22*
X15950000Y47950000D02*
X16950000Y47950000D01*
G04 #@! TO.C,C19*
X12199985Y47950000D02*
X13199985Y47950000D01*
G04 #@! TO.C,C21*
X13150000Y44450000D02*
X12150000Y44450000D01*
G04 #@! TO.C,C2*
X6100045Y57080002D02*
X7100045Y57080002D01*
G04 #@! TO.C,C5*
X11950000Y57080002D02*
X12950000Y57080002D01*
G04 #@! TO.C,C3*
X8050030Y57080002D02*
X9050030Y57080002D01*
G04 #@! TO.C,C7*
X13950079Y57064993D02*
X14950079Y57064993D01*
G04 #@! TO.C,C17*
X8300015Y47950000D02*
X9300015Y47950000D01*
G04 #@! TD*
M02*
