G04 #@! TF.GenerationSoftware,KiCad,Pcbnew,8.0.9-8.0.9-0~ubuntu24.04.1*
G04 #@! TF.CreationDate,2026-02-24T23:03:09+00:00*
G04 #@! TF.ProjectId,PROLT,50524f4c-542e-46b6-9963-61645f706362,rev?*
G04 #@! TF.SameCoordinates,Original*
G04 #@! TF.FileFunction,Legend,Bot*
G04 #@! TF.FilePolarity,Positive*
%FSLAX46Y46*%
G04 Gerber Fmt 4.6, Leading zero omitted, Abs format (unit mm)*
G04 Created by KiCad (PCBNEW 8.0.9-8.0.9-0~ubuntu24.04.1) date 2026-02-24 23:03:09*
%MOMM*%
%LPD*%
G01*
G04 APERTURE LIST*
%ADD10C,0.120000*%
%ADD11C,0.200000*%
%ADD12C,0.099060*%
%ADD13C,0.150012*%
G04 APERTURE END LIST*
D10*
G04 #@! TO.C,F7*
X27400000Y55100000D02*
X27400000Y59950000D01*
X29400000Y55100000D02*
X29400000Y59950000D01*
X27400000Y59950000D02*
G75*
G02*
X29400000Y59950000I1000000J0D01*
G01*
X29400000Y55050000D02*
G75*
G02*
X27400000Y55050000I-1000000J0D01*
G01*
D11*
G04 #@! TO.C,M1*
X33000000Y3700000D02*
X33000000Y37500010D01*
X68799990Y37500010D02*
X33000000Y37500010D01*
X68799990Y3700000D02*
X33000000Y3700000D01*
X68799990Y3700000D02*
X68799990Y37500010D01*
D10*
G04 #@! TO.C,F5*
X21500000Y55100000D02*
X21500000Y59950000D01*
X23500000Y55100000D02*
X23500000Y59950000D01*
X21500000Y59950000D02*
G75*
G02*
X23500000Y59950000I1000000J0D01*
G01*
X23500000Y55050000D02*
G75*
G02*
X21500000Y55050000I-1000000J0D01*
G01*
D12*
G04 #@! TO.C,R16*
X24076000Y1100000D02*
X25092000Y1100000D01*
X25092000Y2700000D02*
X24076000Y2700000D01*
X26108000Y1100000D02*
X27124000Y1100000D01*
X27124000Y2700000D02*
X26108000Y2700000D01*
D10*
X24021000Y1098362D02*
G75*
G02*
X24025000Y2700000I-326000J801638D01*
G01*
X27175000Y2700000D02*
G75*
G02*
X27183602Y1096505I330000J-800000D01*
G01*
G04 #@! TO.C,F4*
X19000000Y55100000D02*
X19000000Y59950000D01*
X21000000Y55100000D02*
X21000000Y59950000D01*
X19000000Y59950000D02*
G75*
G02*
X21000000Y59950000I1000000J0D01*
G01*
X21000000Y55050000D02*
G75*
G02*
X19000000Y55050000I-1000000J0D01*
G01*
G04 #@! TO.C,F6*
X25000000Y55100000D02*
X25000000Y59950000D01*
X27000000Y55100000D02*
X27000000Y59950000D01*
X25000000Y59950000D02*
G75*
G02*
X27000000Y59950000I1000000J0D01*
G01*
X27000000Y55050000D02*
G75*
G02*
X25000000Y55050000I-1000000J0D01*
G01*
D11*
G04 #@! TO.C,M2*
X11362500Y37600000D02*
X11362500Y32500000D01*
X11962500Y28000000D02*
X26362500Y28000000D01*
X26362500Y37600000D02*
X11362500Y37600000D01*
X26362500Y37600000D02*
X26362500Y36300000D01*
X26362500Y28000000D02*
X26362500Y34400000D01*
G04 #@! TO.C,M3*
X11424999Y17824999D02*
X11424999Y21025002D01*
X11424999Y5724999D02*
X11424999Y16125001D01*
X11424999Y3824999D02*
X11424999Y4124999D01*
X11424999Y3824999D02*
X26824999Y3824999D01*
X12924999Y24424997D02*
X28224998Y24424999D01*
X28224996Y17725001D02*
X28224996Y22525001D01*
X28224996Y11524999D02*
X28224996Y14224999D01*
X28224996Y8825001D02*
X28224996Y9925004D01*
X28224996Y5274999D02*
X28225001Y6824999D01*
X28224998Y24125001D02*
X28224998Y24424999D01*
G04 #@! TO.C,C6*
X14600079Y53314993D02*
X13600079Y53314993D01*
G04 #@! TO.C,C11*
X10650015Y53300000D02*
X9650015Y53300000D01*
G04 #@! TO.C,C4*
X9650015Y56730002D02*
X10650015Y56730002D01*
G04 #@! TO.C,C18*
X9900000Y47600000D02*
X10900000Y47600000D01*
G04 #@! TO.C,C25*
X10900000Y44169998D02*
X9900000Y44169998D01*
G04 #@! TO.C,C24*
X8950015Y44169998D02*
X7950015Y44169998D01*
G04 #@! TO.C,C9*
X6750045Y53300000D02*
X5750045Y53300000D01*
G04 #@! TO.C,C12*
X12600000Y53300000D02*
X11600000Y53300000D01*
G04 #@! TO.C,C10*
X8700030Y53300000D02*
X7700030Y53300000D01*
G04 #@! TO.C,C8*
X15500079Y56730002D02*
X16500079Y56730002D01*
G04 #@! TO.C,C16*
X6000030Y47600000D02*
X7000030Y47600000D01*
G04 #@! TO.C,C23*
X7000030Y44169998D02*
X6000030Y44169998D01*
G04 #@! TO.C,C20*
X13799970Y47600000D02*
X14799970Y47600000D01*
D13*
G04 #@! TO.C,BT1*
X27588000Y44535890D02*
X28788302Y44535890D01*
X27588000Y41379864D02*
X27588000Y44535890D01*
X27588000Y41379864D02*
X32468889Y41379864D01*
X36224000Y44688316D02*
X38256000Y44688316D01*
X36931110Y41379864D02*
X41812000Y41379864D01*
X37240000Y51419316D02*
X37240000Y52943316D01*
X37240000Y43672316D02*
X37240000Y45704316D01*
X40870600Y44535890D02*
X41812000Y44535890D01*
X41812000Y41379864D02*
X41812000Y44535890D01*
X32402548Y41784487D02*
G75*
G02*
X32576081Y55471406I2297434J6815431D01*
G01*
X36854049Y55517531D02*
G75*
G02*
X36875107Y41688883I-2154015J-6917620D01*
G01*
D11*
G04 #@! TO.C,C15*
X14800000Y44100000D02*
X13800000Y44100000D01*
G04 #@! TO.C,C22*
X15600000Y47600000D02*
X16600000Y47600000D01*
G04 #@! TO.C,C19*
X11849985Y47600000D02*
X12849985Y47600000D01*
G04 #@! TO.C,C21*
X12800000Y44100000D02*
X11800000Y44100000D01*
G04 #@! TO.C,C2*
X5750045Y56730002D02*
X6750045Y56730002D01*
G04 #@! TO.C,C5*
X11600000Y56730002D02*
X12600000Y56730002D01*
G04 #@! TO.C,C3*
X7700030Y56730002D02*
X8700030Y56730002D01*
G04 #@! TO.C,C7*
X13600079Y56714993D02*
X14600079Y56714993D01*
G04 #@! TO.C,C17*
X7950015Y47600000D02*
X8950015Y47600000D01*
G04 #@! TD*
M02*
