G04 #@! TF.GenerationSoftware,KiCad,Pcbnew,8.0.9-8.0.9-0~ubuntu24.04.1*
G04 #@! TF.CreationDate,2026-02-24T23:03:09+00:00*
G04 #@! TF.ProjectId,PROLT,50524f4c-542e-46b6-9963-61645f706362,rev?*
G04 #@! TF.SameCoordinates,Original*
G04 #@! TF.FileFunction,Soldermask,Top*
G04 #@! TF.FilePolarity,Negative*
%FSLAX46Y46*%
G04 Gerber Fmt 4.6, Leading zero omitted, Abs format (unit mm)*
G04 Created by KiCad (PCBNEW 8.0.9-8.0.9-0~ubuntu24.04.1) date 2026-02-24 23:03:09*
%MOMM*%
%LPD*%
G01*
G04 APERTURE LIST*
%ADD10C,1.000000*%
%ADD11C,1.524000*%
%ADD12R,0.650000X1.525000*%
%ADD13R,1.750000X0.650000*%
%ADD14R,4.300000X7.900000*%
%ADD15O,1.750000X1.200000*%
%ADD16R,1.500000X1.500000*%
%ADD17C,4.100000*%
%ADD18C,2.300000*%
%ADD19C,1.950000*%
%ADD20C,0.600000*%
%ADD21C,2.000000*%
%ADD22C,1.500000*%
G04 APERTURE END LIST*
G04 #@! TO.C,R9*
G36*
G01*
X38055000Y43773405D02*
X37275000Y43773405D01*
G75*
G02*
X37205000Y43843405I0J70000D01*
G01*
X37205000Y44403405D01*
G75*
G02*
X37275000Y44473405I70000J0D01*
G01*
X38055000Y44473405D01*
G75*
G02*
X38125000Y44403405I0J-70000D01*
G01*
X38125000Y43843405D01*
G75*
G02*
X38055000Y43773405I-70000J0D01*
G01*
G37*
G36*
G01*
X38055000Y45373405D02*
X37275000Y45373405D01*
G75*
G02*
X37205000Y45443405I0J70000D01*
G01*
X37205000Y46003405D01*
G75*
G02*
X37275000Y46073405I70000J0D01*
G01*
X38055000Y46073405D01*
G75*
G02*
X38125000Y46003405I0J-70000D01*
G01*
X38125000Y45443405D01*
G75*
G02*
X38055000Y45373405I-70000J0D01*
G01*
G37*
G04 #@! TD*
D10*
G04 #@! TO.C,TP1*
X28000000Y35900000D03*
G04 #@! TD*
G04 #@! TO.C,U2*
G36*
G01*
X49045000Y47450000D02*
X48745000Y47450000D01*
G75*
G02*
X48595000Y47600000I0J150000D01*
G01*
X48595000Y49250000D01*
G75*
G02*
X48745000Y49400000I150000J0D01*
G01*
X49045000Y49400000D01*
G75*
G02*
X49195000Y49250000I0J-150000D01*
G01*
X49195000Y47600000D01*
G75*
G02*
X49045000Y47450000I-150000J0D01*
G01*
G37*
G36*
G01*
X50315000Y47450000D02*
X50015000Y47450000D01*
G75*
G02*
X49865000Y47600000I0J150000D01*
G01*
X49865000Y49250000D01*
G75*
G02*
X50015000Y49400000I150000J0D01*
G01*
X50315000Y49400000D01*
G75*
G02*
X50465000Y49250000I0J-150000D01*
G01*
X50465000Y47600000D01*
G75*
G02*
X50315000Y47450000I-150000J0D01*
G01*
G37*
G36*
G01*
X51585000Y47450000D02*
X51285000Y47450000D01*
G75*
G02*
X51135000Y47600000I0J150000D01*
G01*
X51135000Y49250000D01*
G75*
G02*
X51285000Y49400000I150000J0D01*
G01*
X51585000Y49400000D01*
G75*
G02*
X51735000Y49250000I0J-150000D01*
G01*
X51735000Y47600000D01*
G75*
G02*
X51585000Y47450000I-150000J0D01*
G01*
G37*
G36*
G01*
X52855000Y47450000D02*
X52555000Y47450000D01*
G75*
G02*
X52405000Y47600000I0J150000D01*
G01*
X52405000Y49250000D01*
G75*
G02*
X52555000Y49400000I150000J0D01*
G01*
X52855000Y49400000D01*
G75*
G02*
X53005000Y49250000I0J-150000D01*
G01*
X53005000Y47600000D01*
G75*
G02*
X52855000Y47450000I-150000J0D01*
G01*
G37*
G36*
G01*
X52855000Y52400000D02*
X52555000Y52400000D01*
G75*
G02*
X52405000Y52550000I0J150000D01*
G01*
X52405000Y54200000D01*
G75*
G02*
X52555000Y54350000I150000J0D01*
G01*
X52855000Y54350000D01*
G75*
G02*
X53005000Y54200000I0J-150000D01*
G01*
X53005000Y52550000D01*
G75*
G02*
X52855000Y52400000I-150000J0D01*
G01*
G37*
G36*
G01*
X51585000Y52400000D02*
X51285000Y52400000D01*
G75*
G02*
X51135000Y52550000I0J150000D01*
G01*
X51135000Y54200000D01*
G75*
G02*
X51285000Y54350000I150000J0D01*
G01*
X51585000Y54350000D01*
G75*
G02*
X51735000Y54200000I0J-150000D01*
G01*
X51735000Y52550000D01*
G75*
G02*
X51585000Y52400000I-150000J0D01*
G01*
G37*
G36*
G01*
X50315000Y52400000D02*
X50015000Y52400000D01*
G75*
G02*
X49865000Y52550000I0J150000D01*
G01*
X49865000Y54200000D01*
G75*
G02*
X50015000Y54350000I150000J0D01*
G01*
X50315000Y54350000D01*
G75*
G02*
X50465000Y54200000I0J-150000D01*
G01*
X50465000Y52550000D01*
G75*
G02*
X50315000Y52400000I-150000J0D01*
G01*
G37*
G36*
G01*
X49045000Y52400000D02*
X48745000Y52400000D01*
G75*
G02*
X48595000Y52550000I0J150000D01*
G01*
X48595000Y54200000D01*
G75*
G02*
X48745000Y54350000I150000J0D01*
G01*
X49045000Y54350000D01*
G75*
G02*
X49195000Y54200000I0J-150000D01*
G01*
X49195000Y52550000D01*
G75*
G02*
X49045000Y52400000I-150000J0D01*
G01*
G37*
G04 #@! TD*
G04 #@! TO.C,C1*
G36*
G01*
X62270000Y43734999D02*
X61590000Y43734999D01*
G75*
G02*
X61505000Y43819999I0J85000D01*
G01*
X61505000Y44499999D01*
G75*
G02*
X61590000Y44584999I85000J0D01*
G01*
X62270000Y44584999D01*
G75*
G02*
X62355000Y44499999I0J-85000D01*
G01*
X62355000Y43819999D01*
G75*
G02*
X62270000Y43734999I-85000J0D01*
G01*
G37*
G36*
G01*
X62270000Y45315001D02*
X61590000Y45315001D01*
G75*
G02*
X61505000Y45400001I0J85000D01*
G01*
X61505000Y46080001D01*
G75*
G02*
X61590000Y46165001I85000J0D01*
G01*
X62270000Y46165001D01*
G75*
G02*
X62355000Y46080001I0J-85000D01*
G01*
X62355000Y45400001D01*
G75*
G02*
X62270000Y45315001I-85000J0D01*
G01*
G37*
G04 #@! TD*
G04 #@! TO.C,R3*
G36*
G01*
X43610000Y46050000D02*
X44390000Y46050000D01*
G75*
G02*
X44460000Y45980000I0J-70000D01*
G01*
X44460000Y45420000D01*
G75*
G02*
X44390000Y45350000I-70000J0D01*
G01*
X43610000Y45350000D01*
G75*
G02*
X43540000Y45420000I0J70000D01*
G01*
X43540000Y45980000D01*
G75*
G02*
X43610000Y46050000I70000J0D01*
G01*
G37*
G36*
G01*
X43610000Y44450000D02*
X44390000Y44450000D01*
G75*
G02*
X44460000Y44380000I0J-70000D01*
G01*
X44460000Y43820000D01*
G75*
G02*
X44390000Y43750000I-70000J0D01*
G01*
X43610000Y43750000D01*
G75*
G02*
X43540000Y43820000I0J70000D01*
G01*
X43540000Y44380000D01*
G75*
G02*
X43610000Y44450000I70000J0D01*
G01*
G37*
G04 #@! TD*
G04 #@! TO.C,C26*
G36*
G01*
X1894998Y48160000D02*
X1894998Y48840000D01*
G75*
G02*
X1979998Y48925000I85000J0D01*
G01*
X2659998Y48925000D01*
G75*
G02*
X2744998Y48840000I0J-85000D01*
G01*
X2744998Y48160000D01*
G75*
G02*
X2659998Y48075000I-85000J0D01*
G01*
X1979998Y48075000D01*
G75*
G02*
X1894998Y48160000I0J85000D01*
G01*
G37*
G36*
G01*
X3475000Y48160000D02*
X3475000Y48840000D01*
G75*
G02*
X3560000Y48925000I85000J0D01*
G01*
X4240000Y48925000D01*
G75*
G02*
X4325000Y48840000I0J-85000D01*
G01*
X4325000Y48160000D01*
G75*
G02*
X4240000Y48075000I-85000J0D01*
G01*
X3560000Y48075000D01*
G75*
G02*
X3475000Y48160000I0J85000D01*
G01*
G37*
G04 #@! TD*
G04 #@! TO.C,R15*
G36*
G01*
X71950000Y23490000D02*
X71950000Y22710000D01*
G75*
G02*
X71880000Y22640000I-70000J0D01*
G01*
X71320000Y22640000D01*
G75*
G02*
X71250000Y22710000I0J70000D01*
G01*
X71250000Y23490000D01*
G75*
G02*
X71320000Y23560000I70000J0D01*
G01*
X71880000Y23560000D01*
G75*
G02*
X71950000Y23490000I0J-70000D01*
G01*
G37*
G36*
G01*
X70350000Y23490000D02*
X70350000Y22710000D01*
G75*
G02*
X70280000Y22640000I-70000J0D01*
G01*
X69720000Y22640000D01*
G75*
G02*
X69650000Y22710000I0J70000D01*
G01*
X69650000Y23490000D01*
G75*
G02*
X69720000Y23560000I70000J0D01*
G01*
X70280000Y23560000D01*
G75*
G02*
X70350000Y23490000I0J-70000D01*
G01*
G37*
G04 #@! TD*
G04 #@! TO.C,U1*
G36*
G01*
X43445000Y47450000D02*
X43145000Y47450000D01*
G75*
G02*
X42995000Y47600000I0J150000D01*
G01*
X42995000Y49250000D01*
G75*
G02*
X43145000Y49400000I150000J0D01*
G01*
X43445000Y49400000D01*
G75*
G02*
X43595000Y49250000I0J-150000D01*
G01*
X43595000Y47600000D01*
G75*
G02*
X43445000Y47450000I-150000J0D01*
G01*
G37*
G36*
G01*
X44715000Y47450000D02*
X44415000Y47450000D01*
G75*
G02*
X44265000Y47600000I0J150000D01*
G01*
X44265000Y49250000D01*
G75*
G02*
X44415000Y49400000I150000J0D01*
G01*
X44715000Y49400000D01*
G75*
G02*
X44865000Y49250000I0J-150000D01*
G01*
X44865000Y47600000D01*
G75*
G02*
X44715000Y47450000I-150000J0D01*
G01*
G37*
G36*
G01*
X45985000Y47450000D02*
X45685000Y47450000D01*
G75*
G02*
X45535000Y47600000I0J150000D01*
G01*
X45535000Y49250000D01*
G75*
G02*
X45685000Y49400000I150000J0D01*
G01*
X45985000Y49400000D01*
G75*
G02*
X46135000Y49250000I0J-150000D01*
G01*
X46135000Y47600000D01*
G75*
G02*
X45985000Y47450000I-150000J0D01*
G01*
G37*
G36*
G01*
X47255000Y47450000D02*
X46955000Y47450000D01*
G75*
G02*
X46805000Y47600000I0J150000D01*
G01*
X46805000Y49250000D01*
G75*
G02*
X46955000Y49400000I150000J0D01*
G01*
X47255000Y49400000D01*
G75*
G02*
X47405000Y49250000I0J-150000D01*
G01*
X47405000Y47600000D01*
G75*
G02*
X47255000Y47450000I-150000J0D01*
G01*
G37*
G36*
G01*
X47255000Y52400000D02*
X46955000Y52400000D01*
G75*
G02*
X46805000Y52550000I0J150000D01*
G01*
X46805000Y54200000D01*
G75*
G02*
X46955000Y54350000I150000J0D01*
G01*
X47255000Y54350000D01*
G75*
G02*
X47405000Y54200000I0J-150000D01*
G01*
X47405000Y52550000D01*
G75*
G02*
X47255000Y52400000I-150000J0D01*
G01*
G37*
G36*
G01*
X45985000Y52400000D02*
X45685000Y52400000D01*
G75*
G02*
X45535000Y52550000I0J150000D01*
G01*
X45535000Y54200000D01*
G75*
G02*
X45685000Y54350000I150000J0D01*
G01*
X45985000Y54350000D01*
G75*
G02*
X46135000Y54200000I0J-150000D01*
G01*
X46135000Y52550000D01*
G75*
G02*
X45985000Y52400000I-150000J0D01*
G01*
G37*
G36*
G01*
X44715000Y52400000D02*
X44415000Y52400000D01*
G75*
G02*
X44265000Y52550000I0J150000D01*
G01*
X44265000Y54200000D01*
G75*
G02*
X44415000Y54350000I150000J0D01*
G01*
X44715000Y54350000D01*
G75*
G02*
X44865000Y54200000I0J-150000D01*
G01*
X44865000Y52550000D01*
G75*
G02*
X44715000Y52400000I-150000J0D01*
G01*
G37*
G36*
G01*
X43445000Y52400000D02*
X43145000Y52400000D01*
G75*
G02*
X42995000Y52550000I0J150000D01*
G01*
X42995000Y54200000D01*
G75*
G02*
X43145000Y54350000I150000J0D01*
G01*
X43445000Y54350000D01*
G75*
G02*
X43595000Y54200000I0J-150000D01*
G01*
X43595000Y52550000D01*
G75*
G02*
X43445000Y52400000I-150000J0D01*
G01*
G37*
G04 #@! TD*
D11*
G04 #@! TO.C,F7*
X28400000Y59950000D03*
G36*
G01*
X27500000Y58605010D02*
X27500000Y59295010D01*
G75*
G02*
X27730000Y59525010I230000J0D01*
G01*
X29070000Y59525010D01*
G75*
G02*
X29300000Y59295010I0J-230000D01*
G01*
X29300000Y58605010D01*
G75*
G02*
X29070000Y58375010I-230000J0D01*
G01*
X27730000Y58375010D01*
G75*
G02*
X27500000Y58605010I0J230000D01*
G01*
G37*
G36*
G01*
X27500000Y55704990D02*
X27500000Y56394990D01*
G75*
G02*
X27730000Y56624990I230000J0D01*
G01*
X29070000Y56624990D01*
G75*
G02*
X29300000Y56394990I0J-230000D01*
G01*
X29300000Y55704990D01*
G75*
G02*
X29070000Y55474990I-230000J0D01*
G01*
X27730000Y55474990D01*
G75*
G02*
X27500000Y55704990I0J230000D01*
G01*
G37*
X28400000Y55050000D03*
G04 #@! TD*
D10*
G04 #@! TO.C,TP11*
X4400000Y4700000D03*
G04 #@! TD*
G04 #@! TO.C,R20*
G36*
G01*
X51558175Y46055000D02*
X52338175Y46055000D01*
G75*
G02*
X52408175Y45985000I0J-70000D01*
G01*
X52408175Y45425000D01*
G75*
G02*
X52338175Y45355000I-70000J0D01*
G01*
X51558175Y45355000D01*
G75*
G02*
X51488175Y45425000I0J70000D01*
G01*
X51488175Y45985000D01*
G75*
G02*
X51558175Y46055000I70000J0D01*
G01*
G37*
G36*
G01*
X51558175Y44455000D02*
X52338175Y44455000D01*
G75*
G02*
X52408175Y44385000I0J-70000D01*
G01*
X52408175Y43825000D01*
G75*
G02*
X52338175Y43755000I-70000J0D01*
G01*
X51558175Y43755000D01*
G75*
G02*
X51488175Y43825000I0J70000D01*
G01*
X51488175Y44385000D01*
G75*
G02*
X51558175Y44455000I70000J0D01*
G01*
G37*
G04 #@! TD*
D12*
G04 #@! TO.C,IC1*
X60160000Y48113000D03*
X61430000Y48113000D03*
X62700000Y48113000D03*
X63970000Y48113000D03*
X63970000Y53537000D03*
X62700000Y53537000D03*
X61430000Y53537000D03*
X60160000Y53537000D03*
G04 #@! TD*
G04 #@! TO.C,R12*
G36*
G01*
X4250000Y44990000D02*
X4250000Y44210000D01*
G75*
G02*
X4180000Y44140000I-70000J0D01*
G01*
X3620000Y44140000D01*
G75*
G02*
X3550000Y44210000I0J70000D01*
G01*
X3550000Y44990000D01*
G75*
G02*
X3620000Y45060000I70000J0D01*
G01*
X4180000Y45060000D01*
G75*
G02*
X4250000Y44990000I0J-70000D01*
G01*
G37*
G36*
G01*
X2650000Y44990000D02*
X2650000Y44210000D01*
G75*
G02*
X2580000Y44140000I-70000J0D01*
G01*
X2020000Y44140000D01*
G75*
G02*
X1950000Y44210000I0J70000D01*
G01*
X1950000Y44990000D01*
G75*
G02*
X2020000Y45060000I70000J0D01*
G01*
X2580000Y45060000D01*
G75*
G02*
X2650000Y44990000I0J-70000D01*
G01*
G37*
G04 #@! TD*
G04 #@! TO.C,R25*
G36*
G01*
X54210000Y46050000D02*
X54990000Y46050000D01*
G75*
G02*
X55060000Y45980000I0J-70000D01*
G01*
X55060000Y45420000D01*
G75*
G02*
X54990000Y45350000I-70000J0D01*
G01*
X54210000Y45350000D01*
G75*
G02*
X54140000Y45420000I0J70000D01*
G01*
X54140000Y45980000D01*
G75*
G02*
X54210000Y46050000I70000J0D01*
G01*
G37*
G36*
G01*
X54210000Y44450000D02*
X54990000Y44450000D01*
G75*
G02*
X55060000Y44380000I0J-70000D01*
G01*
X55060000Y43820000D01*
G75*
G02*
X54990000Y43750000I-70000J0D01*
G01*
X54210000Y43750000D01*
G75*
G02*
X54140000Y43820000I0J70000D01*
G01*
X54140000Y44380000D01*
G75*
G02*
X54210000Y44450000I70000J0D01*
G01*
G37*
G04 #@! TD*
G04 #@! TO.C,C13*
G36*
G01*
X1994998Y57360000D02*
X1994998Y58040000D01*
G75*
G02*
X2079998Y58125000I85000J0D01*
G01*
X2759998Y58125000D01*
G75*
G02*
X2844998Y58040000I0J-85000D01*
G01*
X2844998Y57360000D01*
G75*
G02*
X2759998Y57275000I-85000J0D01*
G01*
X2079998Y57275000D01*
G75*
G02*
X1994998Y57360000I0J85000D01*
G01*
G37*
G36*
G01*
X3575000Y57360000D02*
X3575000Y58040000D01*
G75*
G02*
X3660000Y58125000I85000J0D01*
G01*
X4340000Y58125000D01*
G75*
G02*
X4425000Y58040000I0J-85000D01*
G01*
X4425000Y57360000D01*
G75*
G02*
X4340000Y57275000I-85000J0D01*
G01*
X3660000Y57275000D01*
G75*
G02*
X3575000Y57360000I0J85000D01*
G01*
G37*
G04 #@! TD*
G04 #@! TO.C,R14*
G36*
G01*
X69650000Y24110000D02*
X69650000Y24890000D01*
G75*
G02*
X69720000Y24960000I70000J0D01*
G01*
X70280000Y24960000D01*
G75*
G02*
X70350000Y24890000I0J-70000D01*
G01*
X70350000Y24110000D01*
G75*
G02*
X70280000Y24040000I-70000J0D01*
G01*
X69720000Y24040000D01*
G75*
G02*
X69650000Y24110000I0J70000D01*
G01*
G37*
G36*
G01*
X71250000Y24110000D02*
X71250000Y24890000D01*
G75*
G02*
X71320000Y24960000I70000J0D01*
G01*
X71880000Y24960000D01*
G75*
G02*
X71950000Y24890000I0J-70000D01*
G01*
X71950000Y24110000D01*
G75*
G02*
X71880000Y24040000I-70000J0D01*
G01*
X71320000Y24040000D01*
G75*
G02*
X71250000Y24110000I0J70000D01*
G01*
G37*
G04 #@! TD*
G04 #@! TO.C,R19*
G36*
G01*
X48910000Y46050000D02*
X49690000Y46050000D01*
G75*
G02*
X49760000Y45980000I0J-70000D01*
G01*
X49760000Y45420000D01*
G75*
G02*
X49690000Y45350000I-70000J0D01*
G01*
X48910000Y45350000D01*
G75*
G02*
X48840000Y45420000I0J70000D01*
G01*
X48840000Y45980000D01*
G75*
G02*
X48910000Y46050000I70000J0D01*
G01*
G37*
G36*
G01*
X48910000Y44450000D02*
X49690000Y44450000D01*
G75*
G02*
X49760000Y44380000I0J-70000D01*
G01*
X49760000Y43820000D01*
G75*
G02*
X49690000Y43750000I-70000J0D01*
G01*
X48910000Y43750000D01*
G75*
G02*
X48840000Y43820000I0J70000D01*
G01*
X48840000Y44380000D01*
G75*
G02*
X48910000Y44450000I70000J0D01*
G01*
G37*
G04 #@! TD*
G04 #@! TO.C,R2*
G36*
G01*
X45690000Y43750000D02*
X44910000Y43750000D01*
G75*
G02*
X44840000Y43820000I0J70000D01*
G01*
X44840000Y44380000D01*
G75*
G02*
X44910000Y44450000I70000J0D01*
G01*
X45690000Y44450000D01*
G75*
G02*
X45760000Y44380000I0J-70000D01*
G01*
X45760000Y43820000D01*
G75*
G02*
X45690000Y43750000I-70000J0D01*
G01*
G37*
G36*
G01*
X45690000Y45350000D02*
X44910000Y45350000D01*
G75*
G02*
X44840000Y45420000I0J70000D01*
G01*
X44840000Y45980000D01*
G75*
G02*
X44910000Y46050000I70000J0D01*
G01*
X45690000Y46050000D01*
G75*
G02*
X45760000Y45980000I0J-70000D01*
G01*
X45760000Y45420000D01*
G75*
G02*
X45690000Y45350000I-70000J0D01*
G01*
G37*
G04 #@! TD*
D10*
G04 #@! TO.C,TP9*
X8800000Y4700000D03*
G04 #@! TD*
D13*
G04 #@! TO.C,IC3*
X16000000Y43500000D03*
X16000000Y44500000D03*
X16000000Y45500000D03*
X16000000Y46500000D03*
X16000000Y47500000D03*
X16000000Y48500000D03*
X6400000Y48500000D03*
X6400000Y47500000D03*
X6400000Y46500000D03*
X6400000Y45500000D03*
X6400000Y44500000D03*
X6400000Y43500000D03*
D14*
X11200000Y46000000D03*
G04 #@! TD*
G04 #@! TO.C,D3*
G36*
G01*
X27838502Y25512502D02*
X27358502Y25512502D01*
G75*
G02*
X27298502Y25572502I0J60000D01*
G01*
X27298502Y26052502D01*
G75*
G02*
X27358502Y26112502I60000J0D01*
G01*
X27838502Y26112502D01*
G75*
G02*
X27898502Y26052502I0J-60000D01*
G01*
X27898502Y25572502D01*
G75*
G02*
X27838502Y25512502I-60000J0D01*
G01*
G37*
G36*
G01*
X25638502Y25512502D02*
X25158502Y25512502D01*
G75*
G02*
X25098502Y25572502I0J60000D01*
G01*
X25098502Y26052502D01*
G75*
G02*
X25158502Y26112502I60000J0D01*
G01*
X25638502Y26112502D01*
G75*
G02*
X25698502Y26052502I0J-60000D01*
G01*
X25698502Y25572502D01*
G75*
G02*
X25638502Y25512502I-60000J0D01*
G01*
G37*
G04 #@! TD*
G04 #@! TO.C,R24*
G36*
G01*
X56290000Y43750000D02*
X55510000Y43750000D01*
G75*
G02*
X55440000Y43820000I0J70000D01*
G01*
X55440000Y44380000D01*
G75*
G02*
X55510000Y44450000I70000J0D01*
G01*
X56290000Y44450000D01*
G75*
G02*
X56360000Y44380000I0J-70000D01*
G01*
X56360000Y43820000D01*
G75*
G02*
X56290000Y43750000I-70000J0D01*
G01*
G37*
G36*
G01*
X56290000Y45350000D02*
X55510000Y45350000D01*
G75*
G02*
X55440000Y45420000I0J70000D01*
G01*
X55440000Y45980000D01*
G75*
G02*
X55510000Y46050000I70000J0D01*
G01*
X56290000Y46050000D01*
G75*
G02*
X56360000Y45980000I0J-70000D01*
G01*
X56360000Y45420000D01*
G75*
G02*
X56290000Y45350000I-70000J0D01*
G01*
G37*
G04 #@! TD*
D10*
G04 #@! TO.C,TP14*
X57800000Y39500000D03*
G04 #@! TD*
G04 #@! TO.C,C27*
G36*
G01*
X1894998Y46860000D02*
X1894998Y47540000D01*
G75*
G02*
X1979998Y47625000I85000J0D01*
G01*
X2659998Y47625000D01*
G75*
G02*
X2744998Y47540000I0J-85000D01*
G01*
X2744998Y46860000D01*
G75*
G02*
X2659998Y46775000I-85000J0D01*
G01*
X1979998Y46775000D01*
G75*
G02*
X1894998Y46860000I0J85000D01*
G01*
G37*
G36*
G01*
X3475000Y46860000D02*
X3475000Y47540000D01*
G75*
G02*
X3560000Y47625000I85000J0D01*
G01*
X4240000Y47625000D01*
G75*
G02*
X4325000Y47540000I0J-85000D01*
G01*
X4325000Y46860000D01*
G75*
G02*
X4240000Y46775000I-85000J0D01*
G01*
X3560000Y46775000D01*
G75*
G02*
X3475000Y46860000I0J85000D01*
G01*
G37*
G04 #@! TD*
G04 #@! TO.C,R13*
G36*
G01*
X28090000Y31750000D02*
X27310000Y31750000D01*
G75*
G02*
X27240000Y31820000I0J70000D01*
G01*
X27240000Y32380000D01*
G75*
G02*
X27310000Y32450000I70000J0D01*
G01*
X28090000Y32450000D01*
G75*
G02*
X28160000Y32380000I0J-70000D01*
G01*
X28160000Y31820000D01*
G75*
G02*
X28090000Y31750000I-70000J0D01*
G01*
G37*
G36*
G01*
X28090000Y33350000D02*
X27310000Y33350000D01*
G75*
G02*
X27240000Y33420000I0J70000D01*
G01*
X27240000Y33980000D01*
G75*
G02*
X27310000Y34050000I70000J0D01*
G01*
X28090000Y34050000D01*
G75*
G02*
X28160000Y33980000I0J-70000D01*
G01*
X28160000Y33420000D01*
G75*
G02*
X28090000Y33350000I-70000J0D01*
G01*
G37*
G04 #@! TD*
G04 #@! TO.C,J2*
G36*
G01*
X24475000Y42400000D02*
X23225000Y42400000D01*
G75*
G02*
X22975000Y42650000I0J250000D01*
G01*
X22975000Y43350000D01*
G75*
G02*
X23225000Y43600000I250000J0D01*
G01*
X24475000Y43600000D01*
G75*
G02*
X24725000Y43350000I0J-250000D01*
G01*
X24725000Y42650000D01*
G75*
G02*
X24475000Y42400000I-250000J0D01*
G01*
G37*
D15*
X23850000Y45000000D03*
X23850000Y47000000D03*
X23850000Y49000000D03*
G04 #@! TD*
G04 #@! TO.C,U3*
G36*
G01*
X54645000Y47450000D02*
X54345000Y47450000D01*
G75*
G02*
X54195000Y47600000I0J150000D01*
G01*
X54195000Y49250000D01*
G75*
G02*
X54345000Y49400000I150000J0D01*
G01*
X54645000Y49400000D01*
G75*
G02*
X54795000Y49250000I0J-150000D01*
G01*
X54795000Y47600000D01*
G75*
G02*
X54645000Y47450000I-150000J0D01*
G01*
G37*
G36*
G01*
X55915000Y47450000D02*
X55615000Y47450000D01*
G75*
G02*
X55465000Y47600000I0J150000D01*
G01*
X55465000Y49250000D01*
G75*
G02*
X55615000Y49400000I150000J0D01*
G01*
X55915000Y49400000D01*
G75*
G02*
X56065000Y49250000I0J-150000D01*
G01*
X56065000Y47600000D01*
G75*
G02*
X55915000Y47450000I-150000J0D01*
G01*
G37*
G36*
G01*
X57185000Y47450000D02*
X56885000Y47450000D01*
G75*
G02*
X56735000Y47600000I0J150000D01*
G01*
X56735000Y49250000D01*
G75*
G02*
X56885000Y49400000I150000J0D01*
G01*
X57185000Y49400000D01*
G75*
G02*
X57335000Y49250000I0J-150000D01*
G01*
X57335000Y47600000D01*
G75*
G02*
X57185000Y47450000I-150000J0D01*
G01*
G37*
G36*
G01*
X58455000Y47450000D02*
X58155000Y47450000D01*
G75*
G02*
X58005000Y47600000I0J150000D01*
G01*
X58005000Y49250000D01*
G75*
G02*
X58155000Y49400000I150000J0D01*
G01*
X58455000Y49400000D01*
G75*
G02*
X58605000Y49250000I0J-150000D01*
G01*
X58605000Y47600000D01*
G75*
G02*
X58455000Y47450000I-150000J0D01*
G01*
G37*
G36*
G01*
X58455000Y52400000D02*
X58155000Y52400000D01*
G75*
G02*
X58005000Y52550000I0J150000D01*
G01*
X58005000Y54200000D01*
G75*
G02*
X58155000Y54350000I150000J0D01*
G01*
X58455000Y54350000D01*
G75*
G02*
X58605000Y54200000I0J-150000D01*
G01*
X58605000Y52550000D01*
G75*
G02*
X58455000Y52400000I-150000J0D01*
G01*
G37*
G36*
G01*
X57185000Y52400000D02*
X56885000Y52400000D01*
G75*
G02*
X56735000Y52550000I0J150000D01*
G01*
X56735000Y54200000D01*
G75*
G02*
X56885000Y54350000I150000J0D01*
G01*
X57185000Y54350000D01*
G75*
G02*
X57335000Y54200000I0J-150000D01*
G01*
X57335000Y52550000D01*
G75*
G02*
X57185000Y52400000I-150000J0D01*
G01*
G37*
G36*
G01*
X55915000Y52400000D02*
X55615000Y52400000D01*
G75*
G02*
X55465000Y52550000I0J150000D01*
G01*
X55465000Y54200000D01*
G75*
G02*
X55615000Y54350000I150000J0D01*
G01*
X55915000Y54350000D01*
G75*
G02*
X56065000Y54200000I0J-150000D01*
G01*
X56065000Y52550000D01*
G75*
G02*
X55915000Y52400000I-150000J0D01*
G01*
G37*
G36*
G01*
X54645000Y52400000D02*
X54345000Y52400000D01*
G75*
G02*
X54195000Y52550000I0J150000D01*
G01*
X54195000Y54200000D01*
G75*
G02*
X54345000Y54350000I150000J0D01*
G01*
X54645000Y54350000D01*
G75*
G02*
X54795000Y54200000I0J-150000D01*
G01*
X54795000Y52550000D01*
G75*
G02*
X54645000Y52400000I-150000J0D01*
G01*
G37*
G04 #@! TD*
D10*
G04 #@! TO.C,TP3*
X27900000Y29000000D03*
G04 #@! TD*
G04 #@! TO.C,R5*
G36*
G01*
X59755000Y43775000D02*
X58975000Y43775000D01*
G75*
G02*
X58905000Y43845000I0J70000D01*
G01*
X58905000Y44405000D01*
G75*
G02*
X58975000Y44475000I70000J0D01*
G01*
X59755000Y44475000D01*
G75*
G02*
X59825000Y44405000I0J-70000D01*
G01*
X59825000Y43845000D01*
G75*
G02*
X59755000Y43775000I-70000J0D01*
G01*
G37*
G36*
G01*
X59755000Y45375000D02*
X58975000Y45375000D01*
G75*
G02*
X58905000Y45445000I0J70000D01*
G01*
X58905000Y46005000D01*
G75*
G02*
X58975000Y46075000I70000J0D01*
G01*
X59755000Y46075000D01*
G75*
G02*
X59825000Y46005000I0J-70000D01*
G01*
X59825000Y45445000D01*
G75*
G02*
X59755000Y45375000I-70000J0D01*
G01*
G37*
G04 #@! TD*
D16*
G04 #@! TO.C,JP1*
X52500000Y59500000D03*
X54900000Y59500000D03*
G36*
X52700000Y59500000D02*
G01*
X52200000Y58750000D01*
X51200000Y58750000D01*
X51200000Y60250000D01*
X52200000Y60250000D01*
X52700000Y59500000D01*
G37*
G36*
X54700000Y59500000D02*
G01*
X55200000Y60250000D01*
X56200000Y60250000D01*
X56200000Y58750000D01*
X55200000Y58750000D01*
X54700000Y59500000D01*
G37*
G04 #@! TD*
G04 #@! TO.C,R21*
G36*
G01*
X38535000Y46100000D02*
X39315000Y46100000D01*
G75*
G02*
X39385000Y46030000I0J-70000D01*
G01*
X39385000Y45470000D01*
G75*
G02*
X39315000Y45400000I-70000J0D01*
G01*
X38535000Y45400000D01*
G75*
G02*
X38465000Y45470000I0J70000D01*
G01*
X38465000Y46030000D01*
G75*
G02*
X38535000Y46100000I70000J0D01*
G01*
G37*
G36*
G01*
X38535000Y44500000D02*
X39315000Y44500000D01*
G75*
G02*
X39385000Y44430000I0J-70000D01*
G01*
X39385000Y43870000D01*
G75*
G02*
X39315000Y43800000I-70000J0D01*
G01*
X38535000Y43800000D01*
G75*
G02*
X38465000Y43870000I0J70000D01*
G01*
X38465000Y44430000D01*
G75*
G02*
X38535000Y44500000I70000J0D01*
G01*
G37*
G04 #@! TD*
D10*
G04 #@! TO.C,TP12*
X30500000Y32000000D03*
G04 #@! TD*
D17*
G04 #@! TO.C,J1*
X60400000Y68150000D03*
D18*
X56300000Y64300000D03*
X23700000Y64300000D03*
D17*
X19600000Y68150000D03*
D19*
X49850000Y65300000D03*
X49850000Y67800000D03*
X49850000Y70300000D03*
X49850000Y72800000D03*
X47350000Y65300000D03*
X47350000Y67800000D03*
X47350000Y70300000D03*
X47350000Y72800000D03*
X44850000Y65300000D03*
X44850000Y67800000D03*
X44850000Y70300000D03*
X44850000Y72800000D03*
X42350000Y65300000D03*
X42350000Y67800000D03*
X42350000Y70300000D03*
X42350000Y72800000D03*
X39850000Y65300000D03*
X39850000Y67800000D03*
X39850000Y70300000D03*
X39850000Y72800000D03*
X37350000Y65300000D03*
X37350000Y67800000D03*
X37350000Y70300000D03*
X37350000Y72800000D03*
X33850000Y65300000D03*
X33850000Y67800000D03*
X33850000Y70300000D03*
X33850000Y72800000D03*
X30150000Y65300000D03*
X30150000Y67800000D03*
X30150000Y70300000D03*
X30150000Y72800000D03*
G04 #@! TD*
D13*
G04 #@! TO.C,IC2*
X16000000Y52700000D03*
X16000000Y53700000D03*
X16000000Y54700000D03*
X16000000Y55700000D03*
X16000000Y56700000D03*
X16000000Y57700000D03*
X6400000Y57700000D03*
X6400000Y56700000D03*
X6400000Y55700000D03*
X6400000Y54700000D03*
X6400000Y53700000D03*
X6400000Y52700000D03*
D14*
X11200000Y55200000D03*
G04 #@! TD*
D10*
G04 #@! TO.C,TP5*
X47800000Y1600000D03*
G04 #@! TD*
G04 #@! TO.C,TP6*
X44900000Y1600000D03*
G04 #@! TD*
G04 #@! TO.C,R1*
G36*
G01*
X43090000Y43750000D02*
X42310000Y43750000D01*
G75*
G02*
X42240000Y43820000I0J70000D01*
G01*
X42240000Y44380000D01*
G75*
G02*
X42310000Y44450000I70000J0D01*
G01*
X43090000Y44450000D01*
G75*
G02*
X43160000Y44380000I0J-70000D01*
G01*
X43160000Y43820000D01*
G75*
G02*
X43090000Y43750000I-70000J0D01*
G01*
G37*
G36*
G01*
X43090000Y45350000D02*
X42310000Y45350000D01*
G75*
G02*
X42240000Y45420000I0J70000D01*
G01*
X42240000Y45980000D01*
G75*
G02*
X42310000Y46050000I70000J0D01*
G01*
X43090000Y46050000D01*
G75*
G02*
X43160000Y45980000I0J-70000D01*
G01*
X43160000Y45420000D01*
G75*
G02*
X43090000Y45350000I-70000J0D01*
G01*
G37*
G04 #@! TD*
G04 #@! TO.C,TP4*
X67700000Y60000000D03*
G04 #@! TD*
G04 #@! TO.C,F2*
G36*
G01*
X67343750Y52100000D02*
X67856250Y52100000D01*
G75*
G02*
X68075000Y51881250I0J-218750D01*
G01*
X68075000Y51443750D01*
G75*
G02*
X67856250Y51225000I-218750J0D01*
G01*
X67343750Y51225000D01*
G75*
G02*
X67125000Y51443750I0J218750D01*
G01*
X67125000Y51881250D01*
G75*
G02*
X67343750Y52100000I218750J0D01*
G01*
G37*
G36*
G01*
X67343750Y50525000D02*
X67856250Y50525000D01*
G75*
G02*
X68075000Y50306250I0J-218750D01*
G01*
X68075000Y49868750D01*
G75*
G02*
X67856250Y49650000I-218750J0D01*
G01*
X67343750Y49650000D01*
G75*
G02*
X67125000Y49868750I0J218750D01*
G01*
X67125000Y50306250D01*
G75*
G02*
X67343750Y50525000I218750J0D01*
G01*
G37*
G04 #@! TD*
G04 #@! TO.C,U4*
G36*
G01*
X37845000Y47450000D02*
X37545000Y47450000D01*
G75*
G02*
X37395000Y47600000I0J150000D01*
G01*
X37395000Y49250000D01*
G75*
G02*
X37545000Y49400000I150000J0D01*
G01*
X37845000Y49400000D01*
G75*
G02*
X37995000Y49250000I0J-150000D01*
G01*
X37995000Y47600000D01*
G75*
G02*
X37845000Y47450000I-150000J0D01*
G01*
G37*
G36*
G01*
X39115000Y47450000D02*
X38815000Y47450000D01*
G75*
G02*
X38665000Y47600000I0J150000D01*
G01*
X38665000Y49250000D01*
G75*
G02*
X38815000Y49400000I150000J0D01*
G01*
X39115000Y49400000D01*
G75*
G02*
X39265000Y49250000I0J-150000D01*
G01*
X39265000Y47600000D01*
G75*
G02*
X39115000Y47450000I-150000J0D01*
G01*
G37*
G36*
G01*
X40385000Y47450000D02*
X40085000Y47450000D01*
G75*
G02*
X39935000Y47600000I0J150000D01*
G01*
X39935000Y49250000D01*
G75*
G02*
X40085000Y49400000I150000J0D01*
G01*
X40385000Y49400000D01*
G75*
G02*
X40535000Y49250000I0J-150000D01*
G01*
X40535000Y47600000D01*
G75*
G02*
X40385000Y47450000I-150000J0D01*
G01*
G37*
G36*
G01*
X41655000Y47450000D02*
X41355000Y47450000D01*
G75*
G02*
X41205000Y47600000I0J150000D01*
G01*
X41205000Y49250000D01*
G75*
G02*
X41355000Y49400000I150000J0D01*
G01*
X41655000Y49400000D01*
G75*
G02*
X41805000Y49250000I0J-150000D01*
G01*
X41805000Y47600000D01*
G75*
G02*
X41655000Y47450000I-150000J0D01*
G01*
G37*
G36*
G01*
X41655000Y52400000D02*
X41355000Y52400000D01*
G75*
G02*
X41205000Y52550000I0J150000D01*
G01*
X41205000Y54200000D01*
G75*
G02*
X41355000Y54350000I150000J0D01*
G01*
X41655000Y54350000D01*
G75*
G02*
X41805000Y54200000I0J-150000D01*
G01*
X41805000Y52550000D01*
G75*
G02*
X41655000Y52400000I-150000J0D01*
G01*
G37*
G36*
G01*
X40385000Y52400000D02*
X40085000Y52400000D01*
G75*
G02*
X39935000Y52550000I0J150000D01*
G01*
X39935000Y54200000D01*
G75*
G02*
X40085000Y54350000I150000J0D01*
G01*
X40385000Y54350000D01*
G75*
G02*
X40535000Y54200000I0J-150000D01*
G01*
X40535000Y52550000D01*
G75*
G02*
X40385000Y52400000I-150000J0D01*
G01*
G37*
G36*
G01*
X39115000Y52400000D02*
X38815000Y52400000D01*
G75*
G02*
X38665000Y52550000I0J150000D01*
G01*
X38665000Y54200000D01*
G75*
G02*
X38815000Y54350000I150000J0D01*
G01*
X39115000Y54350000D01*
G75*
G02*
X39265000Y54200000I0J-150000D01*
G01*
X39265000Y52550000D01*
G75*
G02*
X39115000Y52400000I-150000J0D01*
G01*
G37*
G36*
G01*
X37845000Y52400000D02*
X37545000Y52400000D01*
G75*
G02*
X37395000Y52550000I0J150000D01*
G01*
X37395000Y54200000D01*
G75*
G02*
X37545000Y54350000I150000J0D01*
G01*
X37845000Y54350000D01*
G75*
G02*
X37995000Y54200000I0J-150000D01*
G01*
X37995000Y52550000D01*
G75*
G02*
X37845000Y52400000I-150000J0D01*
G01*
G37*
G04 #@! TD*
D11*
G04 #@! TO.C,F5*
X22500000Y59950000D03*
G36*
G01*
X21600000Y58605010D02*
X21600000Y59295010D01*
G75*
G02*
X21830000Y59525010I230000J0D01*
G01*
X23170000Y59525010D01*
G75*
G02*
X23400000Y59295010I0J-230000D01*
G01*
X23400000Y58605010D01*
G75*
G02*
X23170000Y58375010I-230000J0D01*
G01*
X21830000Y58375010D01*
G75*
G02*
X21600000Y58605010I0J230000D01*
G01*
G37*
G36*
G01*
X21600000Y55704990D02*
X21600000Y56394990D01*
G75*
G02*
X21830000Y56624990I230000J0D01*
G01*
X23170000Y56624990D01*
G75*
G02*
X23400000Y56394990I0J-230000D01*
G01*
X23400000Y55704990D01*
G75*
G02*
X23170000Y55474990I-230000J0D01*
G01*
X21830000Y55474990D01*
G75*
G02*
X21600000Y55704990I0J230000D01*
G01*
G37*
X22500000Y55050000D03*
G04 #@! TD*
D10*
G04 #@! TO.C,TP10*
X60300000Y41300000D03*
G04 #@! TD*
G04 #@! TO.C,R26*
G36*
G01*
X56810000Y46050000D02*
X57590000Y46050000D01*
G75*
G02*
X57660000Y45980000I0J-70000D01*
G01*
X57660000Y45420000D01*
G75*
G02*
X57590000Y45350000I-70000J0D01*
G01*
X56810000Y45350000D01*
G75*
G02*
X56740000Y45420000I0J70000D01*
G01*
X56740000Y45980000D01*
G75*
G02*
X56810000Y46050000I70000J0D01*
G01*
G37*
G36*
G01*
X56810000Y44450000D02*
X57590000Y44450000D01*
G75*
G02*
X57660000Y44380000I0J-70000D01*
G01*
X57660000Y43820000D01*
G75*
G02*
X57590000Y43750000I-70000J0D01*
G01*
X56810000Y43750000D01*
G75*
G02*
X56740000Y43820000I0J70000D01*
G01*
X56740000Y44380000D01*
G75*
G02*
X56810000Y44450000I70000J0D01*
G01*
G37*
G04 #@! TD*
G04 #@! TO.C,R17*
G36*
G01*
X48390000Y43750000D02*
X47610000Y43750000D01*
G75*
G02*
X47540000Y43820000I0J70000D01*
G01*
X47540000Y44380000D01*
G75*
G02*
X47610000Y44450000I70000J0D01*
G01*
X48390000Y44450000D01*
G75*
G02*
X48460000Y44380000I0J-70000D01*
G01*
X48460000Y43820000D01*
G75*
G02*
X48390000Y43750000I-70000J0D01*
G01*
G37*
G36*
G01*
X48390000Y45350000D02*
X47610000Y45350000D01*
G75*
G02*
X47540000Y45420000I0J70000D01*
G01*
X47540000Y45980000D01*
G75*
G02*
X47610000Y46050000I70000J0D01*
G01*
X48390000Y46050000D01*
G75*
G02*
X48460000Y45980000I0J-70000D01*
G01*
X48460000Y45420000D01*
G75*
G02*
X48390000Y45350000I-70000J0D01*
G01*
G37*
G04 #@! TD*
D11*
G04 #@! TO.C,R16*
X23695000Y1900000D03*
G36*
G01*
X24149999Y1275000D02*
X24149999Y2525000D01*
G75*
G02*
X24249999Y2625000I100000J0D01*
G01*
X25049999Y2625000D01*
G75*
G02*
X25149999Y2525000I0J-100000D01*
G01*
X25149999Y1275000D01*
G75*
G02*
X25049999Y1175000I-100000J0D01*
G01*
X24249999Y1175000D01*
G75*
G02*
X24149999Y1275000I0J100000D01*
G01*
G37*
G36*
G01*
X26050021Y1275000D02*
X26050021Y2525000D01*
G75*
G02*
X26150021Y2625000I100000J0D01*
G01*
X26950021Y2625000D01*
G75*
G02*
X27050021Y2525000I0J-100000D01*
G01*
X27050021Y1275000D01*
G75*
G02*
X26950021Y1175000I-100000J0D01*
G01*
X26150021Y1175000D01*
G75*
G02*
X26050021Y1275000I0J100000D01*
G01*
G37*
X27505000Y1900000D03*
G04 #@! TD*
G04 #@! TO.C,R11*
G36*
G01*
X4350000Y54190000D02*
X4350000Y53410000D01*
G75*
G02*
X4280000Y53340000I-70000J0D01*
G01*
X3720000Y53340000D01*
G75*
G02*
X3650000Y53410000I0J70000D01*
G01*
X3650000Y54190000D01*
G75*
G02*
X3720000Y54260000I70000J0D01*
G01*
X4280000Y54260000D01*
G75*
G02*
X4350000Y54190000I0J-70000D01*
G01*
G37*
G36*
G01*
X2750000Y54190000D02*
X2750000Y53410000D01*
G75*
G02*
X2680000Y53340000I-70000J0D01*
G01*
X2120000Y53340000D01*
G75*
G02*
X2050000Y53410000I0J70000D01*
G01*
X2050000Y54190000D01*
G75*
G02*
X2120000Y54260000I70000J0D01*
G01*
X2680000Y54260000D01*
G75*
G02*
X2750000Y54190000I0J-70000D01*
G01*
G37*
G04 #@! TD*
G04 #@! TO.C,R18*
G36*
G01*
X50990000Y43750000D02*
X50210000Y43750000D01*
G75*
G02*
X50140000Y43820000I0J70000D01*
G01*
X50140000Y44380000D01*
G75*
G02*
X50210000Y44450000I70000J0D01*
G01*
X50990000Y44450000D01*
G75*
G02*
X51060000Y44380000I0J-70000D01*
G01*
X51060000Y43820000D01*
G75*
G02*
X50990000Y43750000I-70000J0D01*
G01*
G37*
G36*
G01*
X50990000Y45350000D02*
X50210000Y45350000D01*
G75*
G02*
X50140000Y45420000I0J70000D01*
G01*
X50140000Y45980000D01*
G75*
G02*
X50210000Y46050000I70000J0D01*
G01*
X50990000Y46050000D01*
G75*
G02*
X51060000Y45980000I0J-70000D01*
G01*
X51060000Y45420000D01*
G75*
G02*
X50990000Y45350000I-70000J0D01*
G01*
G37*
G04 #@! TD*
D10*
G04 #@! TO.C,TP8*
X30500000Y15100000D03*
G04 #@! TD*
G04 #@! TO.C,D2*
G36*
G01*
X31410000Y55300000D02*
X30390000Y55300000D01*
G75*
G02*
X30300000Y55390000I0J90000D01*
G01*
X30300000Y56110000D01*
G75*
G02*
X30390000Y56200000I90000J0D01*
G01*
X31410000Y56200000D01*
G75*
G02*
X31500000Y56110000I0J-90000D01*
G01*
X31500000Y55390000D01*
G75*
G02*
X31410000Y55300000I-90000J0D01*
G01*
G37*
G36*
G01*
X31410000Y58600000D02*
X30390000Y58600000D01*
G75*
G02*
X30300000Y58690000I0J90000D01*
G01*
X30300000Y59410000D01*
G75*
G02*
X30390000Y59500000I90000J0D01*
G01*
X31410000Y59500000D01*
G75*
G02*
X31500000Y59410000I0J-90000D01*
G01*
X31500000Y58690000D01*
G75*
G02*
X31410000Y58600000I-90000J0D01*
G01*
G37*
G04 #@! TD*
D11*
G04 #@! TO.C,F4*
X20000000Y59950000D03*
G36*
G01*
X19100000Y58605010D02*
X19100000Y59295010D01*
G75*
G02*
X19330000Y59525010I230000J0D01*
G01*
X20670000Y59525010D01*
G75*
G02*
X20900000Y59295010I0J-230000D01*
G01*
X20900000Y58605010D01*
G75*
G02*
X20670000Y58375010I-230000J0D01*
G01*
X19330000Y58375010D01*
G75*
G02*
X19100000Y58605010I0J230000D01*
G01*
G37*
G36*
G01*
X19100000Y55704990D02*
X19100000Y56394990D01*
G75*
G02*
X19330000Y56624990I230000J0D01*
G01*
X20670000Y56624990D01*
G75*
G02*
X20900000Y56394990I0J-230000D01*
G01*
X20900000Y55704990D01*
G75*
G02*
X20670000Y55474990I-230000J0D01*
G01*
X19330000Y55474990D01*
G75*
G02*
X19100000Y55704990I0J230000D01*
G01*
G37*
X20000000Y55050000D03*
G04 #@! TD*
D10*
G04 #@! TO.C,TP7*
X33300000Y39000000D03*
G04 #@! TD*
G04 #@! TO.C,D1*
G36*
G01*
X34410000Y55300000D02*
X33390000Y55300000D01*
G75*
G02*
X33300000Y55390000I0J90000D01*
G01*
X33300000Y56110000D01*
G75*
G02*
X33390000Y56200000I90000J0D01*
G01*
X34410000Y56200000D01*
G75*
G02*
X34500000Y56110000I0J-90000D01*
G01*
X34500000Y55390000D01*
G75*
G02*
X34410000Y55300000I-90000J0D01*
G01*
G37*
G36*
G01*
X34410000Y58600000D02*
X33390000Y58600000D01*
G75*
G02*
X33300000Y58690000I0J90000D01*
G01*
X33300000Y59410000D01*
G75*
G02*
X33390000Y59500000I90000J0D01*
G01*
X34410000Y59500000D01*
G75*
G02*
X34500000Y59410000I0J-90000D01*
G01*
X34500000Y58690000D01*
G75*
G02*
X34410000Y58600000I-90000J0D01*
G01*
G37*
G04 #@! TD*
G04 #@! TO.C,R23*
G36*
G01*
X53690000Y43750000D02*
X52910000Y43750000D01*
G75*
G02*
X52840000Y43820000I0J70000D01*
G01*
X52840000Y44380000D01*
G75*
G02*
X52910000Y44450000I70000J0D01*
G01*
X53690000Y44450000D01*
G75*
G02*
X53760000Y44380000I0J-70000D01*
G01*
X53760000Y43820000D01*
G75*
G02*
X53690000Y43750000I-70000J0D01*
G01*
G37*
G36*
G01*
X53690000Y45350000D02*
X52910000Y45350000D01*
G75*
G02*
X52840000Y45420000I0J70000D01*
G01*
X52840000Y45980000D01*
G75*
G02*
X52910000Y46050000I70000J0D01*
G01*
X53690000Y46050000D01*
G75*
G02*
X53760000Y45980000I0J-70000D01*
G01*
X53760000Y45420000D01*
G75*
G02*
X53690000Y45350000I-70000J0D01*
G01*
G37*
G04 #@! TD*
G04 #@! TO.C,F3*
G36*
G01*
X69143750Y52112500D02*
X69656250Y52112500D01*
G75*
G02*
X69875000Y51893750I0J-218750D01*
G01*
X69875000Y51456250D01*
G75*
G02*
X69656250Y51237500I-218750J0D01*
G01*
X69143750Y51237500D01*
G75*
G02*
X68925000Y51456250I0J218750D01*
G01*
X68925000Y51893750D01*
G75*
G02*
X69143750Y52112500I218750J0D01*
G01*
G37*
G36*
G01*
X69143750Y50537500D02*
X69656250Y50537500D01*
G75*
G02*
X69875000Y50318750I0J-218750D01*
G01*
X69875000Y49881250D01*
G75*
G02*
X69656250Y49662500I-218750J0D01*
G01*
X69143750Y49662500D01*
G75*
G02*
X68925000Y49881250I0J218750D01*
G01*
X68925000Y50318750D01*
G75*
G02*
X69143750Y50537500I218750J0D01*
G01*
G37*
G04 #@! TD*
D16*
G04 #@! TO.C,JP2*
X56700000Y56600000D03*
X59100000Y56600000D03*
G36*
X56900000Y56600000D02*
G01*
X56400000Y55850000D01*
X55400000Y55850000D01*
X55400000Y57350000D01*
X56400000Y57350000D01*
X56900000Y56600000D01*
G37*
G36*
X58900000Y56600000D02*
G01*
X59400000Y57350000D01*
X60400000Y57350000D01*
X60400000Y55850000D01*
X59400000Y55850000D01*
X58900000Y56600000D01*
G37*
G04 #@! TD*
G04 #@! TO.C,R7*
G36*
G01*
X65520000Y43800000D02*
X64740000Y43800000D01*
G75*
G02*
X64670000Y43870000I0J70000D01*
G01*
X64670000Y44430000D01*
G75*
G02*
X64740000Y44500000I70000J0D01*
G01*
X65520000Y44500000D01*
G75*
G02*
X65590000Y44430000I0J-70000D01*
G01*
X65590000Y43870000D01*
G75*
G02*
X65520000Y43800000I-70000J0D01*
G01*
G37*
G36*
G01*
X65520000Y45400000D02*
X64740000Y45400000D01*
G75*
G02*
X64670000Y45470000I0J70000D01*
G01*
X64670000Y46030000D01*
G75*
G02*
X64740000Y46100000I70000J0D01*
G01*
X65520000Y46100000D01*
G75*
G02*
X65590000Y46030000I0J-70000D01*
G01*
X65590000Y45470000D01*
G75*
G02*
X65520000Y45400000I-70000J0D01*
G01*
G37*
G04 #@! TD*
G04 #@! TO.C,R8*
G36*
G01*
X63920000Y43800000D02*
X63140000Y43800000D01*
G75*
G02*
X63070000Y43870000I0J70000D01*
G01*
X63070000Y44430000D01*
G75*
G02*
X63140000Y44500000I70000J0D01*
G01*
X63920000Y44500000D01*
G75*
G02*
X63990000Y44430000I0J-70000D01*
G01*
X63990000Y43870000D01*
G75*
G02*
X63920000Y43800000I-70000J0D01*
G01*
G37*
G36*
G01*
X63920000Y45400000D02*
X63140000Y45400000D01*
G75*
G02*
X63070000Y45470000I0J70000D01*
G01*
X63070000Y46030000D01*
G75*
G02*
X63140000Y46100000I70000J0D01*
G01*
X63920000Y46100000D01*
G75*
G02*
X63990000Y46030000I0J-70000D01*
G01*
X63990000Y45470000D01*
G75*
G02*
X63920000Y45400000I-70000J0D01*
G01*
G37*
G04 #@! TD*
G04 #@! TO.C,R22*
G36*
G01*
X41035000Y46100000D02*
X41815000Y46100000D01*
G75*
G02*
X41885000Y46030000I0J-70000D01*
G01*
X41885000Y45470000D01*
G75*
G02*
X41815000Y45400000I-70000J0D01*
G01*
X41035000Y45400000D01*
G75*
G02*
X40965000Y45470000I0J70000D01*
G01*
X40965000Y46030000D01*
G75*
G02*
X41035000Y46100000I70000J0D01*
G01*
G37*
G36*
G01*
X41035000Y44500000D02*
X41815000Y44500000D01*
G75*
G02*
X41885000Y44430000I0J-70000D01*
G01*
X41885000Y43870000D01*
G75*
G02*
X41815000Y43800000I-70000J0D01*
G01*
X41035000Y43800000D01*
G75*
G02*
X40965000Y43870000I0J70000D01*
G01*
X40965000Y44430000D01*
G75*
G02*
X41035000Y44500000I70000J0D01*
G01*
G37*
G04 #@! TD*
D11*
G04 #@! TO.C,F6*
X26000000Y59950000D03*
G36*
G01*
X25100000Y58605010D02*
X25100000Y59295010D01*
G75*
G02*
X25330000Y59525010I230000J0D01*
G01*
X26670000Y59525010D01*
G75*
G02*
X26900000Y59295010I0J-230000D01*
G01*
X26900000Y58605010D01*
G75*
G02*
X26670000Y58375010I-230000J0D01*
G01*
X25330000Y58375010D01*
G75*
G02*
X25100000Y58605010I0J230000D01*
G01*
G37*
G36*
G01*
X25100000Y55704990D02*
X25100000Y56394990D01*
G75*
G02*
X25330000Y56624990I230000J0D01*
G01*
X26670000Y56624990D01*
G75*
G02*
X26900000Y56394990I0J-230000D01*
G01*
X26900000Y55704990D01*
G75*
G02*
X26670000Y55474990I-230000J0D01*
G01*
X25330000Y55474990D01*
G75*
G02*
X25100000Y55704990I0J230000D01*
G01*
G37*
X26000000Y55050000D03*
G04 #@! TD*
G04 #@! TO.C,C14*
G36*
G01*
X1994998Y56060000D02*
X1994998Y56740000D01*
G75*
G02*
X2079998Y56825000I85000J0D01*
G01*
X2759998Y56825000D01*
G75*
G02*
X2844998Y56740000I0J-85000D01*
G01*
X2844998Y56060000D01*
G75*
G02*
X2759998Y55975000I-85000J0D01*
G01*
X2079998Y55975000D01*
G75*
G02*
X1994998Y56060000I0J85000D01*
G01*
G37*
G36*
G01*
X3575000Y56060000D02*
X3575000Y56740000D01*
G75*
G02*
X3660000Y56825000I85000J0D01*
G01*
X4340000Y56825000D01*
G75*
G02*
X4425000Y56740000I0J-85000D01*
G01*
X4425000Y56060000D01*
G75*
G02*
X4340000Y55975000I-85000J0D01*
G01*
X3660000Y55975000D01*
G75*
G02*
X3575000Y56060000I0J85000D01*
G01*
G37*
G04 #@! TD*
G04 #@! TO.C,F1*
G36*
G01*
X65433750Y52112500D02*
X65946250Y52112500D01*
G75*
G02*
X66165000Y51893750I0J-218750D01*
G01*
X66165000Y51456250D01*
G75*
G02*
X65946250Y51237500I-218750J0D01*
G01*
X65433750Y51237500D01*
G75*
G02*
X65215000Y51456250I0J218750D01*
G01*
X65215000Y51893750D01*
G75*
G02*
X65433750Y52112500I218750J0D01*
G01*
G37*
G36*
G01*
X65433750Y50537500D02*
X65946250Y50537500D01*
G75*
G02*
X66165000Y50318750I0J-218750D01*
G01*
X66165000Y49881250D01*
G75*
G02*
X65946250Y49662500I-218750J0D01*
G01*
X65433750Y49662500D01*
G75*
G02*
X65215000Y49881250I0J218750D01*
G01*
X65215000Y50318750D01*
G75*
G02*
X65433750Y50537500I218750J0D01*
G01*
G37*
G04 #@! TD*
G04 #@! TO.C,R4*
G36*
G01*
X46254359Y46050000D02*
X47034359Y46050000D01*
G75*
G02*
X47104359Y45980000I0J-70000D01*
G01*
X47104359Y45420000D01*
G75*
G02*
X47034359Y45350000I-70000J0D01*
G01*
X46254359Y45350000D01*
G75*
G02*
X46184359Y45420000I0J70000D01*
G01*
X46184359Y45980000D01*
G75*
G02*
X46254359Y46050000I70000J0D01*
G01*
G37*
G36*
G01*
X46254359Y44450000D02*
X47034359Y44450000D01*
G75*
G02*
X47104359Y44380000I0J-70000D01*
G01*
X47104359Y43820000D01*
G75*
G02*
X47034359Y43750000I-70000J0D01*
G01*
X46254359Y43750000D01*
G75*
G02*
X46184359Y43820000I0J70000D01*
G01*
X46184359Y44380000D01*
G75*
G02*
X46254359Y44450000I70000J0D01*
G01*
G37*
G04 #@! TD*
G04 #@! TO.C,R6*
G36*
G01*
X61055000Y43800000D02*
X60275000Y43800000D01*
G75*
G02*
X60205000Y43870000I0J70000D01*
G01*
X60205000Y44430000D01*
G75*
G02*
X60275000Y44500000I70000J0D01*
G01*
X61055000Y44500000D01*
G75*
G02*
X61125000Y44430000I0J-70000D01*
G01*
X61125000Y43870000D01*
G75*
G02*
X61055000Y43800000I-70000J0D01*
G01*
G37*
G36*
G01*
X61055000Y45400000D02*
X60275000Y45400000D01*
G75*
G02*
X60205000Y45470000I0J70000D01*
G01*
X60205000Y46030000D01*
G75*
G02*
X60275000Y46100000I70000J0D01*
G01*
X61055000Y46100000D01*
G75*
G02*
X61125000Y46030000I0J-70000D01*
G01*
X61125000Y45470000D01*
G75*
G02*
X61055000Y45400000I-70000J0D01*
G01*
G37*
G04 #@! TD*
D20*
G04 #@! TO.C,M2*
X11662500Y30800000D03*
X11662500Y32000000D03*
X11662500Y29600000D03*
X11662500Y28400000D03*
X26087500Y34860000D03*
X26087500Y35860000D03*
G04 #@! TD*
D21*
G04 #@! TO.C,TP13*
X75500000Y74800000D03*
G04 #@! TD*
D22*
G04 #@! TO.C,M3*
X27574995Y23324999D03*
X27574995Y16925002D03*
X27574995Y15024999D03*
X27574995Y10724999D03*
D20*
X28024994Y8325002D03*
X28024994Y7325001D03*
D22*
X27574995Y4474999D03*
X12074998Y23775001D03*
X12074998Y21925002D03*
X12074998Y16974999D03*
X12074998Y4925001D03*
G04 #@! TD*
G04 #@! TO.C,R10*
G36*
G01*
X40555000Y43775000D02*
X39775000Y43775000D01*
G75*
G02*
X39705000Y43845000I0J70000D01*
G01*
X39705000Y44405000D01*
G75*
G02*
X39775000Y44475000I70000J0D01*
G01*
X40555000Y44475000D01*
G75*
G02*
X40625000Y44405000I0J-70000D01*
G01*
X40625000Y43845000D01*
G75*
G02*
X40555000Y43775000I-70000J0D01*
G01*
G37*
G36*
G01*
X40555000Y45375000D02*
X39775000Y45375000D01*
G75*
G02*
X39705000Y45445000I0J70000D01*
G01*
X39705000Y46005000D01*
G75*
G02*
X39775000Y46075000I70000J0D01*
G01*
X40555000Y46075000D01*
G75*
G02*
X40625000Y46005000I0J-70000D01*
G01*
X40625000Y45445000D01*
G75*
G02*
X40555000Y45375000I-70000J0D01*
G01*
G37*
G04 #@! TD*
G04 #@! TO.C,BT1*
X34700000Y44700000D03*
X34700000Y52199858D03*
G04 #@! TD*
M02*
